%TF.GenerationSoftware,KiCad,Pcbnew,7.0.11+dfsg-1build4*%
%TF.CreationDate,2026-08-02T22:20:36-04:00*%
%TF.ProjectId,radar2,72616461-7232-42e6-9b69-6361645f7063,rev?*%
%TF.SameCoordinates,Original*%
%TF.FileFunction,Drillmap*%
%TF.FilePolarity,Positive*%
%FSLAX45Y45*%
G04 Gerber Fmt 4.5, Leading zero omitted, Abs format (unit mm)*
G04 Created by KiCad (PCBNEW 7.0.11+dfsg-1build4) date 2026-08-02 22:20:36*
%MOMM*%
%LPD*%
G01*
G04 APERTURE LIST*
%ADD10C,0.038100*%
%ADD11C,0.200000*%
%ADD12C,0.100000*%
%ADD13C,0.125000*%
%ADD14C,0.150000*%
%ADD15C,0.162000*%
%ADD16C,0.170000*%
G04 APERTURE END LIST*
D10*
X19540000Y-5900000D02*
X19540000Y-11480000D01*
X9643800Y-11460500D02*
X10492500Y-11465000D01*
X9650000Y-5880000D02*
X9643800Y-11460500D01*
X9595000Y-5885000D02*
X19540000Y-5900000D01*
X11082500Y-12385000D02*
X11995000Y-12385000D01*
X19540000Y-11480000D02*
X12525000Y-11455000D01*
X10492500Y-11465000D02*
X11082500Y-12385000D01*
X11995000Y-12385000D02*
X12525000Y-11455000D01*
D11*
D12*
X9710439Y-9970006D02*
X9740439Y-10000006D01*
X9740439Y-9970006D02*
X9710439Y-10000006D01*
X9765000Y-10875000D02*
X9795000Y-10905000D01*
X9795000Y-10875000D02*
X9765000Y-10905000D01*
X9785000Y-9025000D02*
X9815000Y-9055000D01*
X9815000Y-9025000D02*
X9785000Y-9055000D01*
X9785000Y-10295000D02*
X9815000Y-10325000D01*
X9815000Y-10295000D02*
X9785000Y-10325000D01*
X9795000Y-10685000D02*
X9825000Y-10715000D01*
X9825000Y-10685000D02*
X9795000Y-10715000D01*
X9875000Y-10725000D02*
X9905000Y-10755000D01*
X9905000Y-10725000D02*
X9875000Y-10755000D01*
X9895000Y-8895000D02*
X9925000Y-8925000D01*
X9925000Y-8895000D02*
X9895000Y-8925000D01*
X9905000Y-8125000D02*
X9935000Y-8155000D01*
X9935000Y-8125000D02*
X9905000Y-8155000D01*
X9915000Y-8365000D02*
X9945000Y-8395000D01*
X9945000Y-8365000D02*
X9915000Y-8395000D01*
X9915000Y-10455000D02*
X9945000Y-10485000D01*
X9945000Y-10455000D02*
X9915000Y-10485000D01*
X9925000Y-7865000D02*
X9955000Y-7895000D01*
X9955000Y-7865000D02*
X9925000Y-7895000D01*
X9925000Y-10565000D02*
X9955000Y-10595000D01*
X9955000Y-10565000D02*
X9925000Y-10595000D01*
X9975000Y-7385000D02*
X10005000Y-7415000D01*
X10005000Y-7385000D02*
X9975000Y-7415000D01*
X10000000Y-11140000D02*
X10030000Y-11170000D01*
X10030000Y-11140000D02*
X10000000Y-11170000D01*
X10020000Y-11215000D02*
X10050000Y-11245000D01*
X10050000Y-11215000D02*
X10020000Y-11245000D01*
X10075000Y-10030000D02*
X10105000Y-10060000D01*
X10105000Y-10030000D02*
X10075000Y-10060000D01*
X10110000Y-11130000D02*
X10140000Y-11160000D01*
X10140000Y-11130000D02*
X10110000Y-11160000D01*
X10140000Y-10320000D02*
X10170000Y-10350000D01*
X10170000Y-10320000D02*
X10140000Y-10350000D01*
X10145000Y-11210000D02*
X10175000Y-11240000D01*
X10175000Y-11210000D02*
X10145000Y-11240000D01*
X10275000Y-11245000D02*
X10305000Y-11275000D01*
X10305000Y-11245000D02*
X10275000Y-11275000D01*
X10365000Y-6845000D02*
X10395000Y-6875000D01*
X10395000Y-6845000D02*
X10365000Y-6875000D01*
X10385000Y-8255000D02*
X10415000Y-8285000D01*
X10415000Y-8255000D02*
X10385000Y-8285000D01*
X10455000Y-8055000D02*
X10485000Y-8085000D01*
X10485000Y-8055000D02*
X10455000Y-8085000D01*
X10460000Y-10085000D02*
X10490000Y-10115000D01*
X10490000Y-10085000D02*
X10460000Y-10115000D01*
X10470000Y-8190000D02*
X10500000Y-8220000D01*
X10500000Y-8190000D02*
X10470000Y-8220000D01*
X10475000Y-9395000D02*
X10505000Y-9425000D01*
X10505000Y-9395000D02*
X10475000Y-9425000D01*
X10490000Y-10005000D02*
X10520000Y-10035000D01*
X10520000Y-10005000D02*
X10490000Y-10035000D01*
X10495000Y-7380000D02*
X10525000Y-7410000D01*
X10525000Y-7380000D02*
X10495000Y-7410000D01*
X10510000Y-7270000D02*
X10540000Y-7300000D01*
X10540000Y-7270000D02*
X10510000Y-7300000D01*
X10525000Y-7980000D02*
X10555000Y-8010000D01*
X10555000Y-7980000D02*
X10525000Y-8010000D01*
X10525000Y-9595000D02*
X10555000Y-9625000D01*
X10555000Y-9595000D02*
X10525000Y-9625000D01*
X10540000Y-10085000D02*
X10570000Y-10115000D01*
X10570000Y-10085000D02*
X10540000Y-10115000D01*
X10560000Y-9960000D02*
X10590000Y-9990000D01*
X10590000Y-9960000D02*
X10560000Y-9990000D01*
X10585000Y-9025000D02*
X10615000Y-9055000D01*
X10615000Y-9025000D02*
X10585000Y-9055000D01*
X10620000Y-10085000D02*
X10650000Y-10115000D01*
X10650000Y-10085000D02*
X10620000Y-10115000D01*
X10630000Y-10010000D02*
X10660000Y-10040000D01*
X10660000Y-10010000D02*
X10630000Y-10040000D01*
X10680000Y-11205000D02*
X10710000Y-11235000D01*
X10710000Y-11205000D02*
X10680000Y-11235000D01*
X10685000Y-7552500D02*
X10715000Y-7582500D01*
X10715000Y-7552500D02*
X10685000Y-7582500D01*
X10690000Y-7352500D02*
X10720000Y-7382500D01*
X10720000Y-7352500D02*
X10690000Y-7382500D01*
X10690000Y-11120000D02*
X10720000Y-11150000D01*
X10720000Y-11120000D02*
X10690000Y-11150000D01*
X10695000Y-9045000D02*
X10725000Y-9075000D01*
X10725000Y-9045000D02*
X10695000Y-9075000D01*
X10715000Y-10610000D02*
X10745000Y-10640000D01*
X10745000Y-10610000D02*
X10715000Y-10640000D01*
X10760000Y-10880000D02*
X10790000Y-10910000D01*
X10790000Y-10880000D02*
X10760000Y-10910000D01*
X10770000Y-11095000D02*
X10800000Y-11125000D01*
X10800000Y-11095000D02*
X10770000Y-11125000D01*
X10775000Y-9967500D02*
X10805000Y-9997500D01*
X10805000Y-9967500D02*
X10775000Y-9997500D01*
X10775000Y-11200000D02*
X10805000Y-11230000D01*
X10805000Y-11200000D02*
X10775000Y-11230000D01*
X10785000Y-9595000D02*
X10815000Y-9625000D01*
X10815000Y-9595000D02*
X10785000Y-9625000D01*
X10800000Y-10040000D02*
X10830000Y-10070000D01*
X10830000Y-10040000D02*
X10800000Y-10070000D01*
X10805000Y-7342500D02*
X10835000Y-7372500D01*
X10835000Y-7342500D02*
X10805000Y-7372500D01*
X10810000Y-6885000D02*
X10840000Y-6915000D01*
X10840000Y-6885000D02*
X10810000Y-6915000D01*
X10830000Y-10630000D02*
X10860000Y-10660000D01*
X10860000Y-10630000D02*
X10830000Y-10660000D01*
X10835000Y-7535000D02*
X10865000Y-7565000D01*
X10865000Y-7535000D02*
X10835000Y-7565000D01*
X10865000Y-10115000D02*
X10895000Y-10145000D01*
X10895000Y-10115000D02*
X10865000Y-10145000D01*
X10875000Y-10855000D02*
X10905000Y-10885000D01*
X10905000Y-10855000D02*
X10875000Y-10885000D01*
X10895000Y-9565000D02*
X10925000Y-9595000D01*
X10925000Y-9565000D02*
X10895000Y-9595000D01*
X10905000Y-10950000D02*
X10935000Y-10980000D01*
X10935000Y-10950000D02*
X10905000Y-10980000D01*
X10945000Y-7485000D02*
X10975000Y-7515000D01*
X10975000Y-7485000D02*
X10945000Y-7515000D01*
X10965000Y-9595000D02*
X10995000Y-9625000D01*
X10995000Y-9595000D02*
X10965000Y-9625000D01*
X10965000Y-10340000D02*
X10995000Y-10370000D01*
X10995000Y-10340000D02*
X10965000Y-10370000D01*
X10965000Y-10835000D02*
X10995000Y-10865000D01*
X10995000Y-10835000D02*
X10965000Y-10865000D01*
X10995000Y-10045000D02*
X11025000Y-10075000D01*
X11025000Y-10045000D02*
X10995000Y-10075000D01*
X11095000Y-9915000D02*
X11125000Y-9945000D01*
X11125000Y-9915000D02*
X11095000Y-9945000D01*
X11135000Y-9615000D02*
X11165000Y-9645000D01*
X11165000Y-9615000D02*
X11135000Y-9645000D01*
X11215000Y-9565000D02*
X11245000Y-9595000D01*
X11245000Y-9565000D02*
X11215000Y-9595000D01*
X11255000Y-9695000D02*
X11285000Y-9725000D01*
X11285000Y-9695000D02*
X11255000Y-9725000D01*
X11262500Y-7870000D02*
X11292500Y-7900000D01*
X11292500Y-7870000D02*
X11262500Y-7900000D01*
X11265000Y-9085000D02*
X11295000Y-9115000D01*
X11295000Y-9085000D02*
X11265000Y-9115000D01*
X11300000Y-7565000D02*
X11330000Y-7595000D01*
X11330000Y-7565000D02*
X11300000Y-7595000D01*
X11335000Y-6940000D02*
X11365000Y-6970000D01*
X11365000Y-6940000D02*
X11335000Y-6970000D01*
X11340000Y-10210000D02*
X11370000Y-10240000D01*
X11370000Y-10210000D02*
X11340000Y-10240000D01*
X11607500Y-6282500D02*
X11637500Y-6312500D01*
X11637500Y-6282500D02*
X11607500Y-6312500D01*
X11730000Y-9590000D02*
X11760000Y-9620000D01*
X11760000Y-9590000D02*
X11730000Y-9620000D01*
X11732500Y-7830000D02*
X11762500Y-7860000D01*
X11762500Y-7830000D02*
X11732500Y-7860000D01*
X11810000Y-6900000D02*
X11840000Y-6930000D01*
X11840000Y-6900000D02*
X11810000Y-6930000D01*
X11810000Y-9425000D02*
X11840000Y-9455000D01*
X11840000Y-9425000D02*
X11810000Y-9455000D01*
X11895000Y-8575000D02*
X11925000Y-8605000D01*
X11925000Y-8575000D02*
X11895000Y-8605000D01*
X11995000Y-6440000D02*
X12025000Y-6470000D01*
X12025000Y-6440000D02*
X11995000Y-6470000D01*
X12072500Y-9045000D02*
X12102500Y-9075000D01*
X12102500Y-9045000D02*
X12072500Y-9075000D01*
X12110000Y-7555000D02*
X12140000Y-7585000D01*
X12140000Y-7555000D02*
X12110000Y-7585000D01*
X12182500Y-7652500D02*
X12212500Y-7682500D01*
X12212500Y-7652500D02*
X12182500Y-7682500D01*
X12225000Y-10625000D02*
X12255000Y-10655000D01*
X12255000Y-10625000D02*
X12225000Y-10655000D01*
X12365000Y-6155000D02*
X12395000Y-6185000D01*
X12395000Y-6155000D02*
X12365000Y-6185000D01*
X12425000Y-9325000D02*
X12455000Y-9355000D01*
X12455000Y-9325000D02*
X12425000Y-9355000D01*
X12675000Y-8295000D02*
X12705000Y-8325000D01*
X12705000Y-8295000D02*
X12675000Y-8325000D01*
X12685000Y-8635000D02*
X12715000Y-8665000D01*
X12715000Y-8635000D02*
X12685000Y-8665000D01*
X12687500Y-10447500D02*
X12717500Y-10477500D01*
X12717500Y-10447500D02*
X12687500Y-10477500D01*
X12725000Y-7435000D02*
X12755000Y-7465000D01*
X12755000Y-7435000D02*
X12725000Y-7465000D01*
X12825000Y-7515000D02*
X12855000Y-7545000D01*
X12855000Y-7515000D02*
X12825000Y-7545000D01*
X12925000Y-8565000D02*
X12955000Y-8595000D01*
X12955000Y-8565000D02*
X12925000Y-8595000D01*
X12947500Y-10477500D02*
X12977500Y-10507500D01*
X12977500Y-10477500D02*
X12947500Y-10507500D01*
X13100000Y-7070000D02*
X13130000Y-7100000D01*
X13130000Y-7070000D02*
X13100000Y-7100000D01*
X13185000Y-7355000D02*
X13215000Y-7385000D01*
X13215000Y-7355000D02*
X13185000Y-7385000D01*
X13215000Y-9425000D02*
X13245000Y-9455000D01*
X13245000Y-9425000D02*
X13215000Y-9455000D01*
X13235000Y-8475000D02*
X13265000Y-8505000D01*
X13265000Y-8475000D02*
X13235000Y-8505000D01*
X13380000Y-6295000D02*
X13410000Y-6325000D01*
X13410000Y-6295000D02*
X13380000Y-6325000D01*
X13725000Y-10345000D02*
X13755000Y-10375000D01*
X13755000Y-10345000D02*
X13725000Y-10375000D01*
X13745000Y-9060000D02*
X13775000Y-9090000D01*
X13775000Y-9060000D02*
X13745000Y-9090000D01*
X13865000Y-9070000D02*
X13895000Y-9100000D01*
X13895000Y-9070000D02*
X13865000Y-9100000D01*
X13900000Y-9195000D02*
X13930000Y-9225000D01*
X13930000Y-9195000D02*
X13900000Y-9225000D01*
X13927500Y-9762500D02*
X13957500Y-9792500D01*
X13957500Y-9762500D02*
X13927500Y-9792500D01*
X13982500Y-9077500D02*
X14012500Y-9107500D01*
X14012500Y-9077500D02*
X13982500Y-9107500D01*
X14100000Y-9085000D02*
X14130000Y-9115000D01*
X14130000Y-9085000D02*
X14100000Y-9115000D01*
X14122500Y-11355000D02*
X14152500Y-11385000D01*
X14152500Y-11355000D02*
X14122500Y-11385000D01*
X14215000Y-7385000D02*
X14245000Y-7415000D01*
X14245000Y-7385000D02*
X14215000Y-7415000D01*
X14250000Y-9080000D02*
X14280000Y-9110000D01*
X14280000Y-9080000D02*
X14250000Y-9110000D01*
X14360000Y-9082500D02*
X14390000Y-9112500D01*
X14390000Y-9082500D02*
X14360000Y-9112500D01*
X14525000Y-9270000D02*
X14555000Y-9300000D01*
X14555000Y-9270000D02*
X14525000Y-9300000D01*
X14600000Y-9112500D02*
X14630000Y-9142500D01*
X14630000Y-9112500D02*
X14600000Y-9142500D01*
X14612500Y-9375000D02*
X14642500Y-9405000D01*
X14642500Y-9375000D02*
X14612500Y-9405000D01*
X14697500Y-9472500D02*
X14727500Y-9502500D01*
X14727500Y-9472500D02*
X14697500Y-9502500D01*
X14850000Y-7215000D02*
X14880000Y-7245000D01*
X14880000Y-7215000D02*
X14850000Y-7245000D01*
X14927500Y-6752500D02*
X14957500Y-6782500D01*
X14957500Y-6752500D02*
X14927500Y-6782500D01*
X14940000Y-7220000D02*
X14970000Y-7250000D01*
X14970000Y-7220000D02*
X14940000Y-7250000D01*
X15032500Y-9620000D02*
X15062500Y-9650000D01*
X15062500Y-9620000D02*
X15032500Y-9650000D01*
X15035000Y-7220000D02*
X15065000Y-7250000D01*
X15065000Y-7220000D02*
X15035000Y-7250000D01*
X15095000Y-9465000D02*
X15125000Y-9495000D01*
X15125000Y-9465000D02*
X15095000Y-9495000D01*
X15112500Y-6757500D02*
X15142500Y-6787500D01*
X15142500Y-6757500D02*
X15112500Y-6787500D01*
X15120000Y-7195000D02*
X15150000Y-7225000D01*
X15150000Y-7195000D02*
X15120000Y-7225000D01*
X15292500Y-6770000D02*
X15322500Y-6800000D01*
X15322500Y-6770000D02*
X15292500Y-6800000D01*
X15402500Y-9545000D02*
X15432500Y-9575000D01*
X15432500Y-9545000D02*
X15402500Y-9575000D01*
X15435000Y-9395000D02*
X15465000Y-9425000D01*
X15465000Y-9395000D02*
X15435000Y-9425000D01*
X15460000Y-6747500D02*
X15490000Y-6777500D01*
X15490000Y-6747500D02*
X15460000Y-6777500D01*
X15577500Y-6927500D02*
X15607500Y-6957500D01*
X15607500Y-6927500D02*
X15577500Y-6957500D01*
X15577500Y-8742500D02*
X15607500Y-8772500D01*
X15607500Y-8742500D02*
X15577500Y-8772500D01*
X15585000Y-9540000D02*
X15615000Y-9570000D01*
X15615000Y-9540000D02*
X15585000Y-9570000D01*
X15647500Y-9252500D02*
X15677500Y-9282500D01*
X15677500Y-9252500D02*
X15647500Y-9282500D01*
X15670000Y-8370000D02*
X15700000Y-8400000D01*
X15700000Y-8370000D02*
X15670000Y-8400000D01*
X15682500Y-8452500D02*
X15712500Y-8482500D01*
X15712500Y-8452500D02*
X15682500Y-8482500D01*
X15685000Y-8580000D02*
X15715000Y-8610000D01*
X15715000Y-8580000D02*
X15685000Y-8610000D01*
X15775000Y-8735000D02*
X15805000Y-8765000D01*
X15805000Y-8735000D02*
X15775000Y-8765000D01*
X15970000Y-10540000D02*
X16000000Y-10570000D01*
X16000000Y-10540000D02*
X15970000Y-10570000D01*
X16025000Y-8835000D02*
X16055000Y-8865000D01*
X16055000Y-8835000D02*
X16025000Y-8865000D01*
X16050000Y-10625000D02*
X16080000Y-10655000D01*
X16080000Y-10625000D02*
X16050000Y-10655000D01*
X16190000Y-10590000D02*
X16220000Y-10620000D01*
X16220000Y-10590000D02*
X16190000Y-10620000D01*
X16305000Y-10740000D02*
X16335000Y-10770000D01*
X16335000Y-10740000D02*
X16305000Y-10770000D01*
X16330000Y-10550000D02*
X16360000Y-10580000D01*
X16360000Y-10550000D02*
X16330000Y-10580000D01*
X16377500Y-9145000D02*
X16407500Y-9175000D01*
X16407500Y-9145000D02*
X16377500Y-9175000D01*
X16420000Y-10030000D02*
X16450000Y-10060000D01*
X16450000Y-10030000D02*
X16420000Y-10060000D01*
X16425000Y-9570000D02*
X16455000Y-9600000D01*
X16455000Y-9570000D02*
X16425000Y-9600000D01*
X16445000Y-8775000D02*
X16475000Y-8805000D01*
X16475000Y-8775000D02*
X16445000Y-8805000D01*
X16575000Y-9760000D02*
X16605000Y-9790000D01*
X16605000Y-9760000D02*
X16575000Y-9790000D01*
X16580000Y-9670000D02*
X16610000Y-9700000D01*
X16610000Y-9670000D02*
X16580000Y-9700000D01*
X16595000Y-9045000D02*
X16625000Y-9075000D01*
X16625000Y-9045000D02*
X16595000Y-9075000D01*
X16625000Y-9125000D02*
X16655000Y-9155000D01*
X16655000Y-9125000D02*
X16625000Y-9155000D01*
X16705000Y-9205000D02*
X16735000Y-9235000D01*
X16735000Y-9205000D02*
X16705000Y-9235000D01*
X16755000Y-9515000D02*
X16785000Y-9545000D01*
X16785000Y-9515000D02*
X16755000Y-9545000D01*
X16765000Y-9825000D02*
X16795000Y-9855000D01*
X16795000Y-9825000D02*
X16765000Y-9855000D01*
X16790000Y-9367500D02*
X16820000Y-9397500D01*
X16820000Y-9367500D02*
X16790000Y-9397500D01*
X16825000Y-9900000D02*
X16855000Y-9930000D01*
X16855000Y-9900000D02*
X16825000Y-9930000D01*
X16825000Y-10125000D02*
X16855000Y-10155000D01*
X16855000Y-10125000D02*
X16825000Y-10155000D01*
X16847500Y-9475000D02*
X16877500Y-9505000D01*
X16877500Y-9475000D02*
X16847500Y-9505000D01*
X16875000Y-8805000D02*
X16905000Y-8835000D01*
X16905000Y-8805000D02*
X16875000Y-8835000D01*
X16880000Y-9100000D02*
X16910000Y-9130000D01*
X16910000Y-9100000D02*
X16880000Y-9130000D01*
X16920000Y-9865000D02*
X16950000Y-9895000D01*
X16950000Y-9865000D02*
X16920000Y-9895000D01*
X16925000Y-8965000D02*
X16955000Y-8995000D01*
X16955000Y-8965000D02*
X16925000Y-8995000D01*
X16990000Y-10162500D02*
X17020000Y-10192500D01*
X17020000Y-10162500D02*
X16990000Y-10192500D01*
X17015000Y-8905000D02*
X17045000Y-8935000D01*
X17045000Y-8905000D02*
X17015000Y-8935000D01*
X17025000Y-9235000D02*
X17055000Y-9265000D01*
X17055000Y-9235000D02*
X17025000Y-9265000D01*
X17030000Y-9335000D02*
X17060000Y-9365000D01*
X17060000Y-9335000D02*
X17030000Y-9365000D01*
X17030000Y-9425000D02*
X17060000Y-9455000D01*
X17060000Y-9425000D02*
X17030000Y-9455000D01*
X17060000Y-8800000D02*
X17090000Y-8830000D01*
X17090000Y-8800000D02*
X17060000Y-8830000D01*
X17100000Y-10555000D02*
X17130000Y-10585000D01*
X17130000Y-10555000D02*
X17100000Y-10585000D01*
X17135000Y-9235000D02*
X17165000Y-9265000D01*
X17165000Y-9235000D02*
X17135000Y-9265000D01*
X17135000Y-9325000D02*
X17165000Y-9355000D01*
X17165000Y-9325000D02*
X17135000Y-9355000D01*
X17135000Y-9425000D02*
X17165000Y-9455000D01*
X17165000Y-9425000D02*
X17135000Y-9455000D01*
X17170000Y-6990000D02*
X17200000Y-7020000D01*
X17200000Y-6990000D02*
X17170000Y-7020000D01*
X17190000Y-10685000D02*
X17220000Y-10715000D01*
X17220000Y-10685000D02*
X17190000Y-10715000D01*
X17235000Y-9235000D02*
X17265000Y-9265000D01*
X17265000Y-9235000D02*
X17235000Y-9265000D01*
X17235000Y-9330000D02*
X17265000Y-9360000D01*
X17265000Y-9330000D02*
X17235000Y-9360000D01*
X17235000Y-9420000D02*
X17265000Y-9450000D01*
X17265000Y-9420000D02*
X17235000Y-9450000D01*
X17265000Y-10545000D02*
X17295000Y-10575000D01*
X17295000Y-10545000D02*
X17265000Y-10575000D01*
X17285000Y-8885000D02*
X17315000Y-8915000D01*
X17315000Y-8885000D02*
X17285000Y-8915000D01*
X17325000Y-8965000D02*
X17355000Y-8995000D01*
X17355000Y-8965000D02*
X17325000Y-8995000D01*
X17400000Y-10695000D02*
X17430000Y-10725000D01*
X17430000Y-10695000D02*
X17400000Y-10725000D01*
X17405000Y-10605000D02*
X17435000Y-10635000D01*
X17435000Y-10605000D02*
X17405000Y-10635000D01*
X17410000Y-9105000D02*
X17440000Y-9135000D01*
X17440000Y-9105000D02*
X17410000Y-9135000D01*
X17460000Y-6642500D02*
X17490000Y-6672500D01*
X17490000Y-6642500D02*
X17460000Y-6672500D01*
X17465000Y-7475000D02*
X17495000Y-7505000D01*
X17495000Y-7475000D02*
X17465000Y-7505000D01*
X17470000Y-9880000D02*
X17500000Y-9910000D01*
X17500000Y-9880000D02*
X17470000Y-9910000D01*
X17485000Y-9970000D02*
X17515000Y-10000000D01*
X17515000Y-9970000D02*
X17485000Y-10000000D01*
X17500000Y-9370000D02*
X17530000Y-9400000D01*
X17530000Y-9370000D02*
X17500000Y-9400000D01*
X17525000Y-10550000D02*
X17555000Y-10580000D01*
X17555000Y-10550000D02*
X17525000Y-10580000D01*
X17585000Y-9245000D02*
X17615000Y-9275000D01*
X17615000Y-9245000D02*
X17585000Y-9275000D01*
X17685000Y-6651250D02*
X17715000Y-6681250D01*
X17715000Y-6651250D02*
X17685000Y-6681250D01*
X17755000Y-9870000D02*
X17785000Y-9900000D01*
X17785000Y-9870000D02*
X17755000Y-9900000D01*
X17810000Y-9595000D02*
X17840000Y-9625000D01*
X17840000Y-9595000D02*
X17810000Y-9625000D01*
X17810000Y-9780000D02*
X17840000Y-9810000D01*
X17840000Y-9780000D02*
X17810000Y-9810000D01*
X17815000Y-8935000D02*
X17845000Y-8965000D01*
X17845000Y-8935000D02*
X17815000Y-8965000D01*
X17830000Y-9177500D02*
X17860000Y-9207500D01*
X17860000Y-9177500D02*
X17830000Y-9207500D01*
X18025000Y-9745000D02*
X18055000Y-9775000D01*
X18055000Y-9745000D02*
X18025000Y-9775000D01*
X18090000Y-9815000D02*
X18120000Y-9845000D01*
X18120000Y-9815000D02*
X18090000Y-9845000D01*
X18135000Y-8475000D02*
X18165000Y-8505000D01*
X18165000Y-8475000D02*
X18135000Y-8505000D01*
X18415000Y-8347500D02*
X18445000Y-8377500D01*
X18445000Y-8347500D02*
X18415000Y-8377500D01*
X18417500Y-8235000D02*
X18447500Y-8265000D01*
X18447500Y-8235000D02*
X18417500Y-8265000D01*
X18417500Y-8435000D02*
X18447500Y-8465000D01*
X18447500Y-8435000D02*
X18417500Y-8465000D01*
X18525000Y-9027500D02*
X18555000Y-9057500D01*
X18555000Y-9027500D02*
X18525000Y-9057500D01*
X18547500Y-8597500D02*
X18577500Y-8627500D01*
X18577500Y-8597500D02*
X18547500Y-8627500D01*
X18632500Y-10395000D02*
X18662500Y-10425000D01*
X18662500Y-10395000D02*
X18632500Y-10425000D01*
X18665000Y-9020000D02*
X18695000Y-9050000D01*
X18695000Y-9020000D02*
X18665000Y-9050000D01*
X18687500Y-9542500D02*
X18717500Y-9572500D01*
X18717500Y-9542500D02*
X18687500Y-9572500D01*
X18697500Y-8615000D02*
X18727500Y-8645000D01*
X18727500Y-8615000D02*
X18697500Y-8645000D01*
X18780000Y-9025000D02*
X18810000Y-9055000D01*
X18810000Y-9025000D02*
X18780000Y-9055000D01*
X18802500Y-8620000D02*
X18832500Y-8650000D01*
X18832500Y-8620000D02*
X18802500Y-8650000D01*
X18890000Y-9025000D02*
X18920000Y-9055000D01*
X18920000Y-9025000D02*
X18890000Y-9055000D01*
X18900000Y-8637500D02*
X18930000Y-8667500D01*
X18930000Y-8637500D02*
X18900000Y-8667500D01*
X19000000Y-9027500D02*
X19030000Y-9057500D01*
X19030000Y-9027500D02*
X19000000Y-9057500D01*
X19007500Y-8642500D02*
X19037500Y-8672500D01*
X19037500Y-8642500D02*
X19007500Y-8672500D01*
X19120000Y-8632500D02*
X19150000Y-8662500D01*
X19150000Y-8632500D02*
X19120000Y-8662500D01*
X19120000Y-9032500D02*
X19150000Y-9062500D01*
X19150000Y-9032500D02*
X19120000Y-9062500D01*
X19140000Y-10415000D02*
X19170000Y-10445000D01*
X19170000Y-10415000D02*
X19140000Y-10445000D01*
X19440000Y-6975000D02*
X19470000Y-7005000D01*
X19470000Y-6975000D02*
X19440000Y-7005000D01*
X19445000Y-7510000D02*
X19475000Y-7540000D01*
X19475000Y-7510000D02*
X19445000Y-7540000D01*
X12262000Y-6042500D02*
G75*
G03*
X12182000Y-6042500I-40000J0D01*
G01*
X12182000Y-6042500D02*
G75*
G03*
X12262000Y-6042500I40000J0D01*
G01*
X12516000Y-6042500D02*
G75*
G03*
X12436000Y-6042500I-40000J0D01*
G01*
X12436000Y-6042500D02*
G75*
G03*
X12516000Y-6042500I40000J0D01*
G01*
X12770000Y-6042500D02*
G75*
G03*
X12690000Y-6042500I-40000J0D01*
G01*
X12690000Y-6042500D02*
G75*
G03*
X12770000Y-6042500I40000J0D01*
G01*
X13258000Y-11030000D02*
X13258000Y-11130000D01*
X13208000Y-11080000D02*
X13308000Y-11080000D01*
X13362000Y-9950000D02*
X13362000Y-10050000D01*
X13312000Y-10000000D02*
X13412000Y-10000000D01*
X13512000Y-11030000D02*
X13512000Y-11130000D01*
X13462000Y-11080000D02*
X13562000Y-11080000D01*
X13616000Y-9950000D02*
X13616000Y-10050000D01*
X13566000Y-10000000D02*
X13666000Y-10000000D01*
X13766000Y-11030000D02*
X13766000Y-11130000D01*
X13716000Y-11080000D02*
X13816000Y-11080000D01*
X13870000Y-9950000D02*
X13870000Y-10050000D01*
X13820000Y-10000000D02*
X13920000Y-10000000D01*
X14020000Y-11030000D02*
X14020000Y-11130000D01*
X13970000Y-11080000D02*
X14070000Y-11080000D01*
X14124000Y-9950000D02*
X14124000Y-10050000D01*
X14074000Y-10000000D02*
X14174000Y-10000000D01*
X14274000Y-11030000D02*
X14274000Y-11130000D01*
X14224000Y-11080000D02*
X14324000Y-11080000D01*
X14378000Y-9950000D02*
X14378000Y-10050000D01*
X14328000Y-10000000D02*
X14428000Y-10000000D01*
X14528000Y-11030000D02*
X14528000Y-11130000D01*
X14478000Y-11080000D02*
X14578000Y-11080000D01*
X19220000Y-9950000D02*
X19220000Y-10050000D01*
X19170000Y-10000000D02*
X19270000Y-10000000D01*
X19220000Y-10200000D02*
X19220000Y-10300000D01*
X19170000Y-10250000D02*
X19270000Y-10250000D01*
X19295000Y-6588000D02*
X19295000Y-6688000D01*
X19245000Y-6638000D02*
X19345000Y-6638000D01*
X19295000Y-6842000D02*
X19295000Y-6942000D01*
X19245000Y-6892000D02*
X19345000Y-6892000D01*
X19295000Y-7096000D02*
X19295000Y-7196000D01*
X19245000Y-7146000D02*
X19345000Y-7146000D01*
X19295000Y-7350000D02*
X19295000Y-7450000D01*
X19245000Y-7400000D02*
X19345000Y-7400000D01*
D13*
X16234695Y-10884195D02*
X16234695Y-10795805D01*
X16146305Y-10795805D01*
X16146305Y-10884195D01*
X16234695Y-10884195D01*
X17358695Y-10884195D02*
X17358695Y-10795805D01*
X17270305Y-10795805D01*
X17270305Y-10884195D01*
X17358695Y-10884195D01*
D14*
X11605000Y-11780000D02*
X11680000Y-11705000D01*
X11605000Y-11630000D01*
X11530000Y-11705000D01*
X11605000Y-11780000D01*
X11610000Y-10885000D02*
X11685000Y-10810000D01*
X11610000Y-10735000D01*
X11535000Y-10810000D01*
X11610000Y-10885000D01*
D15*
X16109500Y-11159000D02*
X16271500Y-11321000D01*
X16271500Y-11159000D02*
X16109500Y-11321000D01*
X16271500Y-11240000D02*
G75*
G03*
X16109500Y-11240000I-81000J0D01*
G01*
X16109500Y-11240000D02*
G75*
G03*
X16271500Y-11240000I81000J0D01*
G01*
X17233500Y-11159000D02*
X17395500Y-11321000D01*
X17395500Y-11159000D02*
X17233500Y-11321000D01*
X17395500Y-11240000D02*
G75*
G03*
X17233500Y-11240000I-81000J0D01*
G01*
X17233500Y-11240000D02*
G75*
G03*
X17395500Y-11240000I81000J0D01*
G01*
D16*
X11265000Y-11365000D02*
X11435000Y-11535000D01*
X11435000Y-11365000D02*
X11265000Y-11535000D01*
X11350000Y-11365000D02*
X11350000Y-11535000D01*
X11265000Y-11450000D02*
X11435000Y-11450000D01*
X11265000Y-11875000D02*
X11435000Y-12045000D01*
X11435000Y-11875000D02*
X11265000Y-12045000D01*
X11350000Y-11875000D02*
X11350000Y-12045000D01*
X11265000Y-11960000D02*
X11435000Y-11960000D01*
X11270000Y-10470000D02*
X11440000Y-10640000D01*
X11440000Y-10470000D02*
X11270000Y-10640000D01*
X11355000Y-10470000D02*
X11355000Y-10640000D01*
X11270000Y-10555000D02*
X11440000Y-10555000D01*
X11270000Y-10980000D02*
X11440000Y-11150000D01*
X11440000Y-10980000D02*
X11270000Y-11150000D01*
X11355000Y-10980000D02*
X11355000Y-11150000D01*
X11270000Y-11065000D02*
X11440000Y-11065000D01*
X11775000Y-11365000D02*
X11945000Y-11535000D01*
X11945000Y-11365000D02*
X11775000Y-11535000D01*
X11860000Y-11365000D02*
X11860000Y-11535000D01*
X11775000Y-11450000D02*
X11945000Y-11450000D01*
X11775000Y-11875000D02*
X11945000Y-12045000D01*
X11945000Y-11875000D02*
X11775000Y-12045000D01*
X11860000Y-11875000D02*
X11860000Y-12045000D01*
X11775000Y-11960000D02*
X11945000Y-11960000D01*
X11780000Y-10470000D02*
X11950000Y-10640000D01*
X11950000Y-10470000D02*
X11780000Y-10640000D01*
X11865000Y-10470000D02*
X11865000Y-10640000D01*
X11780000Y-10555000D02*
X11950000Y-10555000D01*
X11780000Y-10980000D02*
X11950000Y-11150000D01*
X11950000Y-10980000D02*
X11780000Y-11150000D01*
X11865000Y-10980000D02*
X11865000Y-11150000D01*
X11780000Y-11065000D02*
X11950000Y-11065000D01*
D11*
X9853872Y-12698389D02*
X9853872Y-12498389D01*
X9853872Y-12498389D02*
X9901491Y-12498389D01*
X9901491Y-12498389D02*
X9930062Y-12507913D01*
X9930062Y-12507913D02*
X9949110Y-12526960D01*
X9949110Y-12526960D02*
X9958634Y-12546008D01*
X9958634Y-12546008D02*
X9968158Y-12584103D01*
X9968158Y-12584103D02*
X9968158Y-12612674D01*
X9968158Y-12612674D02*
X9958634Y-12650770D01*
X9958634Y-12650770D02*
X9949110Y-12669817D01*
X9949110Y-12669817D02*
X9930062Y-12688865D01*
X9930062Y-12688865D02*
X9901491Y-12698389D01*
X9901491Y-12698389D02*
X9853872Y-12698389D01*
X10053872Y-12698389D02*
X10053872Y-12565055D01*
X10053872Y-12603151D02*
X10063396Y-12584103D01*
X10063396Y-12584103D02*
X10072919Y-12574579D01*
X10072919Y-12574579D02*
X10091967Y-12565055D01*
X10091967Y-12565055D02*
X10111015Y-12565055D01*
X10177681Y-12698389D02*
X10177681Y-12565055D01*
X10177681Y-12498389D02*
X10168158Y-12507913D01*
X10168158Y-12507913D02*
X10177681Y-12517436D01*
X10177681Y-12517436D02*
X10187205Y-12507913D01*
X10187205Y-12507913D02*
X10177681Y-12498389D01*
X10177681Y-12498389D02*
X10177681Y-12517436D01*
X10301491Y-12698389D02*
X10282443Y-12688865D01*
X10282443Y-12688865D02*
X10272919Y-12669817D01*
X10272919Y-12669817D02*
X10272919Y-12498389D01*
X10406253Y-12698389D02*
X10387205Y-12688865D01*
X10387205Y-12688865D02*
X10377681Y-12669817D01*
X10377681Y-12669817D02*
X10377681Y-12498389D01*
X10634824Y-12698389D02*
X10634824Y-12498389D01*
X10634824Y-12498389D02*
X10701491Y-12641246D01*
X10701491Y-12641246D02*
X10768158Y-12498389D01*
X10768158Y-12498389D02*
X10768158Y-12698389D01*
X10949110Y-12698389D02*
X10949110Y-12593627D01*
X10949110Y-12593627D02*
X10939586Y-12574579D01*
X10939586Y-12574579D02*
X10920539Y-12565055D01*
X10920539Y-12565055D02*
X10882443Y-12565055D01*
X10882443Y-12565055D02*
X10863396Y-12574579D01*
X10949110Y-12688865D02*
X10930062Y-12698389D01*
X10930062Y-12698389D02*
X10882443Y-12698389D01*
X10882443Y-12698389D02*
X10863396Y-12688865D01*
X10863396Y-12688865D02*
X10853872Y-12669817D01*
X10853872Y-12669817D02*
X10853872Y-12650770D01*
X10853872Y-12650770D02*
X10863396Y-12631722D01*
X10863396Y-12631722D02*
X10882443Y-12622198D01*
X10882443Y-12622198D02*
X10930062Y-12622198D01*
X10930062Y-12622198D02*
X10949110Y-12612674D01*
X11044348Y-12565055D02*
X11044348Y-12765055D01*
X11044348Y-12574579D02*
X11063396Y-12565055D01*
X11063396Y-12565055D02*
X11101491Y-12565055D01*
X11101491Y-12565055D02*
X11120539Y-12574579D01*
X11120539Y-12574579D02*
X11130062Y-12584103D01*
X11130062Y-12584103D02*
X11139586Y-12603151D01*
X11139586Y-12603151D02*
X11139586Y-12660293D01*
X11139586Y-12660293D02*
X11130062Y-12679341D01*
X11130062Y-12679341D02*
X11120539Y-12688865D01*
X11120539Y-12688865D02*
X11101491Y-12698389D01*
X11101491Y-12698389D02*
X11063396Y-12698389D01*
X11063396Y-12698389D02*
X11044348Y-12688865D01*
X11225300Y-12679341D02*
X11234824Y-12688865D01*
X11234824Y-12688865D02*
X11225300Y-12698389D01*
X11225300Y-12698389D02*
X11215777Y-12688865D01*
X11215777Y-12688865D02*
X11225300Y-12679341D01*
X11225300Y-12679341D02*
X11225300Y-12698389D01*
X11225300Y-12574579D02*
X11234824Y-12584103D01*
X11234824Y-12584103D02*
X11225300Y-12593627D01*
X11225300Y-12593627D02*
X11215777Y-12584103D01*
X11215777Y-12584103D02*
X11225300Y-12574579D01*
X11225300Y-12574579D02*
X11225300Y-12593627D01*
D12*
X9563095Y-13011905D02*
X9593095Y-13041905D01*
X9593095Y-13011905D02*
X9563095Y-13041905D01*
D11*
X9891967Y-12918389D02*
X9911015Y-12918389D01*
X9911015Y-12918389D02*
X9930062Y-12927913D01*
X9930062Y-12927913D02*
X9939586Y-12937436D01*
X9939586Y-12937436D02*
X9949110Y-12956484D01*
X9949110Y-12956484D02*
X9958634Y-12994579D01*
X9958634Y-12994579D02*
X9958634Y-13042198D01*
X9958634Y-13042198D02*
X9949110Y-13080293D01*
X9949110Y-13080293D02*
X9939586Y-13099341D01*
X9939586Y-13099341D02*
X9930062Y-13108865D01*
X9930062Y-13108865D02*
X9911015Y-13118389D01*
X9911015Y-13118389D02*
X9891967Y-13118389D01*
X9891967Y-13118389D02*
X9872919Y-13108865D01*
X9872919Y-13108865D02*
X9863396Y-13099341D01*
X9863396Y-13099341D02*
X9853872Y-13080293D01*
X9853872Y-13080293D02*
X9844348Y-13042198D01*
X9844348Y-13042198D02*
X9844348Y-12994579D01*
X9844348Y-12994579D02*
X9853872Y-12956484D01*
X9853872Y-12956484D02*
X9863396Y-12937436D01*
X9863396Y-12937436D02*
X9872919Y-12927913D01*
X9872919Y-12927913D02*
X9891967Y-12918389D01*
X10044348Y-13099341D02*
X10053872Y-13108865D01*
X10053872Y-13108865D02*
X10044348Y-13118389D01*
X10044348Y-13118389D02*
X10034824Y-13108865D01*
X10034824Y-13108865D02*
X10044348Y-13099341D01*
X10044348Y-13099341D02*
X10044348Y-13118389D01*
X10120539Y-12918389D02*
X10244348Y-12918389D01*
X10244348Y-12918389D02*
X10177681Y-12994579D01*
X10177681Y-12994579D02*
X10206253Y-12994579D01*
X10206253Y-12994579D02*
X10225300Y-13004103D01*
X10225300Y-13004103D02*
X10234824Y-13013627D01*
X10234824Y-13013627D02*
X10244348Y-13032674D01*
X10244348Y-13032674D02*
X10244348Y-13080293D01*
X10244348Y-13080293D02*
X10234824Y-13099341D01*
X10234824Y-13099341D02*
X10225300Y-13108865D01*
X10225300Y-13108865D02*
X10206253Y-13118389D01*
X10206253Y-13118389D02*
X10149110Y-13118389D01*
X10149110Y-13118389D02*
X10130062Y-13108865D01*
X10130062Y-13108865D02*
X10120539Y-13099341D01*
X10368158Y-12918389D02*
X10387205Y-12918389D01*
X10387205Y-12918389D02*
X10406253Y-12927913D01*
X10406253Y-12927913D02*
X10415777Y-12937436D01*
X10415777Y-12937436D02*
X10425300Y-12956484D01*
X10425300Y-12956484D02*
X10434824Y-12994579D01*
X10434824Y-12994579D02*
X10434824Y-13042198D01*
X10434824Y-13042198D02*
X10425300Y-13080293D01*
X10425300Y-13080293D02*
X10415777Y-13099341D01*
X10415777Y-13099341D02*
X10406253Y-13108865D01*
X10406253Y-13108865D02*
X10387205Y-13118389D01*
X10387205Y-13118389D02*
X10368158Y-13118389D01*
X10368158Y-13118389D02*
X10349110Y-13108865D01*
X10349110Y-13108865D02*
X10339586Y-13099341D01*
X10339586Y-13099341D02*
X10330062Y-13080293D01*
X10330062Y-13080293D02*
X10320539Y-13042198D01*
X10320539Y-13042198D02*
X10320539Y-12994579D01*
X10320539Y-12994579D02*
X10330062Y-12956484D01*
X10330062Y-12956484D02*
X10339586Y-12937436D01*
X10339586Y-12937436D02*
X10349110Y-12927913D01*
X10349110Y-12927913D02*
X10368158Y-12918389D01*
X10558634Y-12918389D02*
X10577681Y-12918389D01*
X10577681Y-12918389D02*
X10596729Y-12927913D01*
X10596729Y-12927913D02*
X10606253Y-12937436D01*
X10606253Y-12937436D02*
X10615777Y-12956484D01*
X10615777Y-12956484D02*
X10625300Y-12994579D01*
X10625300Y-12994579D02*
X10625300Y-13042198D01*
X10625300Y-13042198D02*
X10615777Y-13080293D01*
X10615777Y-13080293D02*
X10606253Y-13099341D01*
X10606253Y-13099341D02*
X10596729Y-13108865D01*
X10596729Y-13108865D02*
X10577681Y-13118389D01*
X10577681Y-13118389D02*
X10558634Y-13118389D01*
X10558634Y-13118389D02*
X10539586Y-13108865D01*
X10539586Y-13108865D02*
X10530062Y-13099341D01*
X10530062Y-13099341D02*
X10520539Y-13080293D01*
X10520539Y-13080293D02*
X10511015Y-13042198D01*
X10511015Y-13042198D02*
X10511015Y-12994579D01*
X10511015Y-12994579D02*
X10520539Y-12956484D01*
X10520539Y-12956484D02*
X10530062Y-12937436D01*
X10530062Y-12937436D02*
X10539586Y-12927913D01*
X10539586Y-12927913D02*
X10558634Y-12918389D01*
X10711015Y-13118389D02*
X10711015Y-12985055D01*
X10711015Y-13004103D02*
X10720539Y-12994579D01*
X10720539Y-12994579D02*
X10739586Y-12985055D01*
X10739586Y-12985055D02*
X10768158Y-12985055D01*
X10768158Y-12985055D02*
X10787205Y-12994579D01*
X10787205Y-12994579D02*
X10796729Y-13013627D01*
X10796729Y-13013627D02*
X10796729Y-13118389D01*
X10796729Y-13013627D02*
X10806253Y-12994579D01*
X10806253Y-12994579D02*
X10825300Y-12985055D01*
X10825300Y-12985055D02*
X10853872Y-12985055D01*
X10853872Y-12985055D02*
X10872920Y-12994579D01*
X10872920Y-12994579D02*
X10882443Y-13013627D01*
X10882443Y-13013627D02*
X10882443Y-13118389D01*
X10977681Y-13118389D02*
X10977681Y-12985055D01*
X10977681Y-13004103D02*
X10987205Y-12994579D01*
X10987205Y-12994579D02*
X11006253Y-12985055D01*
X11006253Y-12985055D02*
X11034824Y-12985055D01*
X11034824Y-12985055D02*
X11053872Y-12994579D01*
X11053872Y-12994579D02*
X11063396Y-13013627D01*
X11063396Y-13013627D02*
X11063396Y-13118389D01*
X11063396Y-13013627D02*
X11072920Y-12994579D01*
X11072920Y-12994579D02*
X11091967Y-12985055D01*
X11091967Y-12985055D02*
X11120539Y-12985055D01*
X11120539Y-12985055D02*
X11139586Y-12994579D01*
X11139586Y-12994579D02*
X11149110Y-13013627D01*
X11149110Y-13013627D02*
X11149110Y-13118389D01*
X11539586Y-12908865D02*
X11368158Y-13166008D01*
X11796729Y-12918389D02*
X11815777Y-12918389D01*
X11815777Y-12918389D02*
X11834824Y-12927913D01*
X11834824Y-12927913D02*
X11844348Y-12937436D01*
X11844348Y-12937436D02*
X11853872Y-12956484D01*
X11853872Y-12956484D02*
X11863396Y-12994579D01*
X11863396Y-12994579D02*
X11863396Y-13042198D01*
X11863396Y-13042198D02*
X11853872Y-13080293D01*
X11853872Y-13080293D02*
X11844348Y-13099341D01*
X11844348Y-13099341D02*
X11834824Y-13108865D01*
X11834824Y-13108865D02*
X11815777Y-13118389D01*
X11815777Y-13118389D02*
X11796729Y-13118389D01*
X11796729Y-13118389D02*
X11777681Y-13108865D01*
X11777681Y-13108865D02*
X11768158Y-13099341D01*
X11768158Y-13099341D02*
X11758634Y-13080293D01*
X11758634Y-13080293D02*
X11749110Y-13042198D01*
X11749110Y-13042198D02*
X11749110Y-12994579D01*
X11749110Y-12994579D02*
X11758634Y-12956484D01*
X11758634Y-12956484D02*
X11768158Y-12937436D01*
X11768158Y-12937436D02*
X11777681Y-12927913D01*
X11777681Y-12927913D02*
X11796729Y-12918389D01*
X11949110Y-13099341D02*
X11958634Y-13108865D01*
X11958634Y-13108865D02*
X11949110Y-13118389D01*
X11949110Y-13118389D02*
X11939586Y-13108865D01*
X11939586Y-13108865D02*
X11949110Y-13099341D01*
X11949110Y-13099341D02*
X11949110Y-13118389D01*
X12082443Y-12918389D02*
X12101491Y-12918389D01*
X12101491Y-12918389D02*
X12120539Y-12927913D01*
X12120539Y-12927913D02*
X12130062Y-12937436D01*
X12130062Y-12937436D02*
X12139586Y-12956484D01*
X12139586Y-12956484D02*
X12149110Y-12994579D01*
X12149110Y-12994579D02*
X12149110Y-13042198D01*
X12149110Y-13042198D02*
X12139586Y-13080293D01*
X12139586Y-13080293D02*
X12130062Y-13099341D01*
X12130062Y-13099341D02*
X12120539Y-13108865D01*
X12120539Y-13108865D02*
X12101491Y-13118389D01*
X12101491Y-13118389D02*
X12082443Y-13118389D01*
X12082443Y-13118389D02*
X12063396Y-13108865D01*
X12063396Y-13108865D02*
X12053872Y-13099341D01*
X12053872Y-13099341D02*
X12044348Y-13080293D01*
X12044348Y-13080293D02*
X12034824Y-13042198D01*
X12034824Y-13042198D02*
X12034824Y-12994579D01*
X12034824Y-12994579D02*
X12044348Y-12956484D01*
X12044348Y-12956484D02*
X12053872Y-12937436D01*
X12053872Y-12937436D02*
X12063396Y-12927913D01*
X12063396Y-12927913D02*
X12082443Y-12918389D01*
X12339586Y-13118389D02*
X12225301Y-13118389D01*
X12282443Y-13118389D02*
X12282443Y-12918389D01*
X12282443Y-12918389D02*
X12263396Y-12946960D01*
X12263396Y-12946960D02*
X12244348Y-12966008D01*
X12244348Y-12966008D02*
X12225301Y-12975532D01*
X12530062Y-13118389D02*
X12415777Y-13118389D01*
X12472920Y-13118389D02*
X12472920Y-12918389D01*
X12472920Y-12918389D02*
X12453872Y-12946960D01*
X12453872Y-12946960D02*
X12434824Y-12966008D01*
X12434824Y-12966008D02*
X12415777Y-12975532D01*
X12644348Y-13004103D02*
X12625301Y-12994579D01*
X12625301Y-12994579D02*
X12615777Y-12985055D01*
X12615777Y-12985055D02*
X12606253Y-12966008D01*
X12606253Y-12966008D02*
X12606253Y-12956484D01*
X12606253Y-12956484D02*
X12615777Y-12937436D01*
X12615777Y-12937436D02*
X12625301Y-12927913D01*
X12625301Y-12927913D02*
X12644348Y-12918389D01*
X12644348Y-12918389D02*
X12682443Y-12918389D01*
X12682443Y-12918389D02*
X12701491Y-12927913D01*
X12701491Y-12927913D02*
X12711015Y-12937436D01*
X12711015Y-12937436D02*
X12720539Y-12956484D01*
X12720539Y-12956484D02*
X12720539Y-12966008D01*
X12720539Y-12966008D02*
X12711015Y-12985055D01*
X12711015Y-12985055D02*
X12701491Y-12994579D01*
X12701491Y-12994579D02*
X12682443Y-13004103D01*
X12682443Y-13004103D02*
X12644348Y-13004103D01*
X12644348Y-13004103D02*
X12625301Y-13013627D01*
X12625301Y-13013627D02*
X12615777Y-13023151D01*
X12615777Y-13023151D02*
X12606253Y-13042198D01*
X12606253Y-13042198D02*
X12606253Y-13080293D01*
X12606253Y-13080293D02*
X12615777Y-13099341D01*
X12615777Y-13099341D02*
X12625301Y-13108865D01*
X12625301Y-13108865D02*
X12644348Y-13118389D01*
X12644348Y-13118389D02*
X12682443Y-13118389D01*
X12682443Y-13118389D02*
X12701491Y-13108865D01*
X12701491Y-13108865D02*
X12711015Y-13099341D01*
X12711015Y-13099341D02*
X12720539Y-13080293D01*
X12720539Y-13080293D02*
X12720539Y-13042198D01*
X12720539Y-13042198D02*
X12711015Y-13023151D01*
X12711015Y-13023151D02*
X12701491Y-13013627D01*
X12701491Y-13013627D02*
X12682443Y-13004103D01*
X12796729Y-12918389D02*
X12796729Y-12956484D01*
X12872920Y-12918389D02*
X12872920Y-12956484D01*
X13168158Y-13194579D02*
X13158634Y-13185055D01*
X13158634Y-13185055D02*
X13139586Y-13156484D01*
X13139586Y-13156484D02*
X13130063Y-13137436D01*
X13130063Y-13137436D02*
X13120539Y-13108865D01*
X13120539Y-13108865D02*
X13111015Y-13061246D01*
X13111015Y-13061246D02*
X13111015Y-13023151D01*
X13111015Y-13023151D02*
X13120539Y-12975532D01*
X13120539Y-12975532D02*
X13130063Y-12946960D01*
X13130063Y-12946960D02*
X13139586Y-12927913D01*
X13139586Y-12927913D02*
X13158634Y-12899341D01*
X13158634Y-12899341D02*
X13168158Y-12889817D01*
X13234824Y-12937436D02*
X13244348Y-12927913D01*
X13244348Y-12927913D02*
X13263396Y-12918389D01*
X13263396Y-12918389D02*
X13311015Y-12918389D01*
X13311015Y-12918389D02*
X13330063Y-12927913D01*
X13330063Y-12927913D02*
X13339586Y-12937436D01*
X13339586Y-12937436D02*
X13349110Y-12956484D01*
X13349110Y-12956484D02*
X13349110Y-12975532D01*
X13349110Y-12975532D02*
X13339586Y-13004103D01*
X13339586Y-13004103D02*
X13225301Y-13118389D01*
X13225301Y-13118389D02*
X13349110Y-13118389D01*
X13539586Y-13118389D02*
X13425301Y-13118389D01*
X13482443Y-13118389D02*
X13482443Y-12918389D01*
X13482443Y-12918389D02*
X13463396Y-12946960D01*
X13463396Y-12946960D02*
X13444348Y-12966008D01*
X13444348Y-12966008D02*
X13425301Y-12975532D01*
X13615777Y-12937436D02*
X13625301Y-12927913D01*
X13625301Y-12927913D02*
X13644348Y-12918389D01*
X13644348Y-12918389D02*
X13691967Y-12918389D01*
X13691967Y-12918389D02*
X13711015Y-12927913D01*
X13711015Y-12927913D02*
X13720539Y-12937436D01*
X13720539Y-12937436D02*
X13730063Y-12956484D01*
X13730063Y-12956484D02*
X13730063Y-12975532D01*
X13730063Y-12975532D02*
X13720539Y-13004103D01*
X13720539Y-13004103D02*
X13606253Y-13118389D01*
X13606253Y-13118389D02*
X13730063Y-13118389D01*
X13968158Y-13118389D02*
X13968158Y-12918389D01*
X14053872Y-13118389D02*
X14053872Y-13013627D01*
X14053872Y-13013627D02*
X14044348Y-12994579D01*
X14044348Y-12994579D02*
X14025301Y-12985055D01*
X14025301Y-12985055D02*
X13996729Y-12985055D01*
X13996729Y-12985055D02*
X13977682Y-12994579D01*
X13977682Y-12994579D02*
X13968158Y-13004103D01*
X14177682Y-13118389D02*
X14158634Y-13108865D01*
X14158634Y-13108865D02*
X14149110Y-13099341D01*
X14149110Y-13099341D02*
X14139586Y-13080293D01*
X14139586Y-13080293D02*
X14139586Y-13023151D01*
X14139586Y-13023151D02*
X14149110Y-13004103D01*
X14149110Y-13004103D02*
X14158634Y-12994579D01*
X14158634Y-12994579D02*
X14177682Y-12985055D01*
X14177682Y-12985055D02*
X14206253Y-12985055D01*
X14206253Y-12985055D02*
X14225301Y-12994579D01*
X14225301Y-12994579D02*
X14234825Y-13004103D01*
X14234825Y-13004103D02*
X14244348Y-13023151D01*
X14244348Y-13023151D02*
X14244348Y-13080293D01*
X14244348Y-13080293D02*
X14234825Y-13099341D01*
X14234825Y-13099341D02*
X14225301Y-13108865D01*
X14225301Y-13108865D02*
X14206253Y-13118389D01*
X14206253Y-13118389D02*
X14177682Y-13118389D01*
X14358634Y-13118389D02*
X14339586Y-13108865D01*
X14339586Y-13108865D02*
X14330063Y-13089817D01*
X14330063Y-13089817D02*
X14330063Y-12918389D01*
X14511015Y-13108865D02*
X14491967Y-13118389D01*
X14491967Y-13118389D02*
X14453872Y-13118389D01*
X14453872Y-13118389D02*
X14434825Y-13108865D01*
X14434825Y-13108865D02*
X14425301Y-13089817D01*
X14425301Y-13089817D02*
X14425301Y-13013627D01*
X14425301Y-13013627D02*
X14434825Y-12994579D01*
X14434825Y-12994579D02*
X14453872Y-12985055D01*
X14453872Y-12985055D02*
X14491967Y-12985055D01*
X14491967Y-12985055D02*
X14511015Y-12994579D01*
X14511015Y-12994579D02*
X14520539Y-13013627D01*
X14520539Y-13013627D02*
X14520539Y-13032674D01*
X14520539Y-13032674D02*
X14425301Y-13051722D01*
X14596729Y-13108865D02*
X14615777Y-13118389D01*
X14615777Y-13118389D02*
X14653872Y-13118389D01*
X14653872Y-13118389D02*
X14672920Y-13108865D01*
X14672920Y-13108865D02*
X14682444Y-13089817D01*
X14682444Y-13089817D02*
X14682444Y-13080293D01*
X14682444Y-13080293D02*
X14672920Y-13061246D01*
X14672920Y-13061246D02*
X14653872Y-13051722D01*
X14653872Y-13051722D02*
X14625301Y-13051722D01*
X14625301Y-13051722D02*
X14606253Y-13042198D01*
X14606253Y-13042198D02*
X14596729Y-13023151D01*
X14596729Y-13023151D02*
X14596729Y-13013627D01*
X14596729Y-13013627D02*
X14606253Y-12994579D01*
X14606253Y-12994579D02*
X14625301Y-12985055D01*
X14625301Y-12985055D02*
X14653872Y-12985055D01*
X14653872Y-12985055D02*
X14672920Y-12994579D01*
X14749110Y-13194579D02*
X14758634Y-13185055D01*
X14758634Y-13185055D02*
X14777682Y-13156484D01*
X14777682Y-13156484D02*
X14787206Y-13137436D01*
X14787206Y-13137436D02*
X14796729Y-13108865D01*
X14796729Y-13108865D02*
X14806253Y-13061246D01*
X14806253Y-13061246D02*
X14806253Y-13023151D01*
X14806253Y-13023151D02*
X14796729Y-12975532D01*
X14796729Y-12975532D02*
X14787206Y-12946960D01*
X14787206Y-12946960D02*
X14777682Y-12927913D01*
X14777682Y-12927913D02*
X14758634Y-12899341D01*
X14758634Y-12899341D02*
X14749110Y-12889817D01*
D12*
X9593095Y-13290905D02*
G75*
G03*
X9513095Y-13290905I-40000J0D01*
G01*
X9513095Y-13290905D02*
G75*
G03*
X9593095Y-13290905I40000J0D01*
G01*
D11*
X9891967Y-13182389D02*
X9911015Y-13182389D01*
X9911015Y-13182389D02*
X9930062Y-13191913D01*
X9930062Y-13191913D02*
X9939586Y-13201436D01*
X9939586Y-13201436D02*
X9949110Y-13220484D01*
X9949110Y-13220484D02*
X9958634Y-13258579D01*
X9958634Y-13258579D02*
X9958634Y-13306198D01*
X9958634Y-13306198D02*
X9949110Y-13344293D01*
X9949110Y-13344293D02*
X9939586Y-13363341D01*
X9939586Y-13363341D02*
X9930062Y-13372865D01*
X9930062Y-13372865D02*
X9911015Y-13382389D01*
X9911015Y-13382389D02*
X9891967Y-13382389D01*
X9891967Y-13382389D02*
X9872919Y-13372865D01*
X9872919Y-13372865D02*
X9863396Y-13363341D01*
X9863396Y-13363341D02*
X9853872Y-13344293D01*
X9853872Y-13344293D02*
X9844348Y-13306198D01*
X9844348Y-13306198D02*
X9844348Y-13258579D01*
X9844348Y-13258579D02*
X9853872Y-13220484D01*
X9853872Y-13220484D02*
X9863396Y-13201436D01*
X9863396Y-13201436D02*
X9872919Y-13191913D01*
X9872919Y-13191913D02*
X9891967Y-13182389D01*
X10044348Y-13363341D02*
X10053872Y-13372865D01*
X10053872Y-13372865D02*
X10044348Y-13382389D01*
X10044348Y-13382389D02*
X10034824Y-13372865D01*
X10034824Y-13372865D02*
X10044348Y-13363341D01*
X10044348Y-13363341D02*
X10044348Y-13382389D01*
X10168158Y-13268103D02*
X10149110Y-13258579D01*
X10149110Y-13258579D02*
X10139586Y-13249055D01*
X10139586Y-13249055D02*
X10130062Y-13230008D01*
X10130062Y-13230008D02*
X10130062Y-13220484D01*
X10130062Y-13220484D02*
X10139586Y-13201436D01*
X10139586Y-13201436D02*
X10149110Y-13191913D01*
X10149110Y-13191913D02*
X10168158Y-13182389D01*
X10168158Y-13182389D02*
X10206253Y-13182389D01*
X10206253Y-13182389D02*
X10225300Y-13191913D01*
X10225300Y-13191913D02*
X10234824Y-13201436D01*
X10234824Y-13201436D02*
X10244348Y-13220484D01*
X10244348Y-13220484D02*
X10244348Y-13230008D01*
X10244348Y-13230008D02*
X10234824Y-13249055D01*
X10234824Y-13249055D02*
X10225300Y-13258579D01*
X10225300Y-13258579D02*
X10206253Y-13268103D01*
X10206253Y-13268103D02*
X10168158Y-13268103D01*
X10168158Y-13268103D02*
X10149110Y-13277627D01*
X10149110Y-13277627D02*
X10139586Y-13287151D01*
X10139586Y-13287151D02*
X10130062Y-13306198D01*
X10130062Y-13306198D02*
X10130062Y-13344293D01*
X10130062Y-13344293D02*
X10139586Y-13363341D01*
X10139586Y-13363341D02*
X10149110Y-13372865D01*
X10149110Y-13372865D02*
X10168158Y-13382389D01*
X10168158Y-13382389D02*
X10206253Y-13382389D01*
X10206253Y-13382389D02*
X10225300Y-13372865D01*
X10225300Y-13372865D02*
X10234824Y-13363341D01*
X10234824Y-13363341D02*
X10244348Y-13344293D01*
X10244348Y-13344293D02*
X10244348Y-13306198D01*
X10244348Y-13306198D02*
X10234824Y-13287151D01*
X10234824Y-13287151D02*
X10225300Y-13277627D01*
X10225300Y-13277627D02*
X10206253Y-13268103D01*
X10368158Y-13182389D02*
X10387205Y-13182389D01*
X10387205Y-13182389D02*
X10406253Y-13191913D01*
X10406253Y-13191913D02*
X10415777Y-13201436D01*
X10415777Y-13201436D02*
X10425300Y-13220484D01*
X10425300Y-13220484D02*
X10434824Y-13258579D01*
X10434824Y-13258579D02*
X10434824Y-13306198D01*
X10434824Y-13306198D02*
X10425300Y-13344293D01*
X10425300Y-13344293D02*
X10415777Y-13363341D01*
X10415777Y-13363341D02*
X10406253Y-13372865D01*
X10406253Y-13372865D02*
X10387205Y-13382389D01*
X10387205Y-13382389D02*
X10368158Y-13382389D01*
X10368158Y-13382389D02*
X10349110Y-13372865D01*
X10349110Y-13372865D02*
X10339586Y-13363341D01*
X10339586Y-13363341D02*
X10330062Y-13344293D01*
X10330062Y-13344293D02*
X10320539Y-13306198D01*
X10320539Y-13306198D02*
X10320539Y-13258579D01*
X10320539Y-13258579D02*
X10330062Y-13220484D01*
X10330062Y-13220484D02*
X10339586Y-13201436D01*
X10339586Y-13201436D02*
X10349110Y-13191913D01*
X10349110Y-13191913D02*
X10368158Y-13182389D01*
X10558634Y-13182389D02*
X10577681Y-13182389D01*
X10577681Y-13182389D02*
X10596729Y-13191913D01*
X10596729Y-13191913D02*
X10606253Y-13201436D01*
X10606253Y-13201436D02*
X10615777Y-13220484D01*
X10615777Y-13220484D02*
X10625300Y-13258579D01*
X10625300Y-13258579D02*
X10625300Y-13306198D01*
X10625300Y-13306198D02*
X10615777Y-13344293D01*
X10615777Y-13344293D02*
X10606253Y-13363341D01*
X10606253Y-13363341D02*
X10596729Y-13372865D01*
X10596729Y-13372865D02*
X10577681Y-13382389D01*
X10577681Y-13382389D02*
X10558634Y-13382389D01*
X10558634Y-13382389D02*
X10539586Y-13372865D01*
X10539586Y-13372865D02*
X10530062Y-13363341D01*
X10530062Y-13363341D02*
X10520539Y-13344293D01*
X10520539Y-13344293D02*
X10511015Y-13306198D01*
X10511015Y-13306198D02*
X10511015Y-13258579D01*
X10511015Y-13258579D02*
X10520539Y-13220484D01*
X10520539Y-13220484D02*
X10530062Y-13201436D01*
X10530062Y-13201436D02*
X10539586Y-13191913D01*
X10539586Y-13191913D02*
X10558634Y-13182389D01*
X10711015Y-13382389D02*
X10711015Y-13249055D01*
X10711015Y-13268103D02*
X10720539Y-13258579D01*
X10720539Y-13258579D02*
X10739586Y-13249055D01*
X10739586Y-13249055D02*
X10768158Y-13249055D01*
X10768158Y-13249055D02*
X10787205Y-13258579D01*
X10787205Y-13258579D02*
X10796729Y-13277627D01*
X10796729Y-13277627D02*
X10796729Y-13382389D01*
X10796729Y-13277627D02*
X10806253Y-13258579D01*
X10806253Y-13258579D02*
X10825300Y-13249055D01*
X10825300Y-13249055D02*
X10853872Y-13249055D01*
X10853872Y-13249055D02*
X10872920Y-13258579D01*
X10872920Y-13258579D02*
X10882443Y-13277627D01*
X10882443Y-13277627D02*
X10882443Y-13382389D01*
X10977681Y-13382389D02*
X10977681Y-13249055D01*
X10977681Y-13268103D02*
X10987205Y-13258579D01*
X10987205Y-13258579D02*
X11006253Y-13249055D01*
X11006253Y-13249055D02*
X11034824Y-13249055D01*
X11034824Y-13249055D02*
X11053872Y-13258579D01*
X11053872Y-13258579D02*
X11063396Y-13277627D01*
X11063396Y-13277627D02*
X11063396Y-13382389D01*
X11063396Y-13277627D02*
X11072920Y-13258579D01*
X11072920Y-13258579D02*
X11091967Y-13249055D01*
X11091967Y-13249055D02*
X11120539Y-13249055D01*
X11120539Y-13249055D02*
X11139586Y-13258579D01*
X11139586Y-13258579D02*
X11149110Y-13277627D01*
X11149110Y-13277627D02*
X11149110Y-13382389D01*
X11539586Y-13172865D02*
X11368158Y-13430008D01*
X11796729Y-13182389D02*
X11815777Y-13182389D01*
X11815777Y-13182389D02*
X11834824Y-13191913D01*
X11834824Y-13191913D02*
X11844348Y-13201436D01*
X11844348Y-13201436D02*
X11853872Y-13220484D01*
X11853872Y-13220484D02*
X11863396Y-13258579D01*
X11863396Y-13258579D02*
X11863396Y-13306198D01*
X11863396Y-13306198D02*
X11853872Y-13344293D01*
X11853872Y-13344293D02*
X11844348Y-13363341D01*
X11844348Y-13363341D02*
X11834824Y-13372865D01*
X11834824Y-13372865D02*
X11815777Y-13382389D01*
X11815777Y-13382389D02*
X11796729Y-13382389D01*
X11796729Y-13382389D02*
X11777681Y-13372865D01*
X11777681Y-13372865D02*
X11768158Y-13363341D01*
X11768158Y-13363341D02*
X11758634Y-13344293D01*
X11758634Y-13344293D02*
X11749110Y-13306198D01*
X11749110Y-13306198D02*
X11749110Y-13258579D01*
X11749110Y-13258579D02*
X11758634Y-13220484D01*
X11758634Y-13220484D02*
X11768158Y-13201436D01*
X11768158Y-13201436D02*
X11777681Y-13191913D01*
X11777681Y-13191913D02*
X11796729Y-13182389D01*
X11949110Y-13363341D02*
X11958634Y-13372865D01*
X11958634Y-13372865D02*
X11949110Y-13382389D01*
X11949110Y-13382389D02*
X11939586Y-13372865D01*
X11939586Y-13372865D02*
X11949110Y-13363341D01*
X11949110Y-13363341D02*
X11949110Y-13382389D01*
X12082443Y-13182389D02*
X12101491Y-13182389D01*
X12101491Y-13182389D02*
X12120539Y-13191913D01*
X12120539Y-13191913D02*
X12130062Y-13201436D01*
X12130062Y-13201436D02*
X12139586Y-13220484D01*
X12139586Y-13220484D02*
X12149110Y-13258579D01*
X12149110Y-13258579D02*
X12149110Y-13306198D01*
X12149110Y-13306198D02*
X12139586Y-13344293D01*
X12139586Y-13344293D02*
X12130062Y-13363341D01*
X12130062Y-13363341D02*
X12120539Y-13372865D01*
X12120539Y-13372865D02*
X12101491Y-13382389D01*
X12101491Y-13382389D02*
X12082443Y-13382389D01*
X12082443Y-13382389D02*
X12063396Y-13372865D01*
X12063396Y-13372865D02*
X12053872Y-13363341D01*
X12053872Y-13363341D02*
X12044348Y-13344293D01*
X12044348Y-13344293D02*
X12034824Y-13306198D01*
X12034824Y-13306198D02*
X12034824Y-13258579D01*
X12034824Y-13258579D02*
X12044348Y-13220484D01*
X12044348Y-13220484D02*
X12053872Y-13201436D01*
X12053872Y-13201436D02*
X12063396Y-13191913D01*
X12063396Y-13191913D02*
X12082443Y-13182389D01*
X12215777Y-13182389D02*
X12339586Y-13182389D01*
X12339586Y-13182389D02*
X12272920Y-13258579D01*
X12272920Y-13258579D02*
X12301491Y-13258579D01*
X12301491Y-13258579D02*
X12320539Y-13268103D01*
X12320539Y-13268103D02*
X12330062Y-13277627D01*
X12330062Y-13277627D02*
X12339586Y-13296674D01*
X12339586Y-13296674D02*
X12339586Y-13344293D01*
X12339586Y-13344293D02*
X12330062Y-13363341D01*
X12330062Y-13363341D02*
X12320539Y-13372865D01*
X12320539Y-13372865D02*
X12301491Y-13382389D01*
X12301491Y-13382389D02*
X12244348Y-13382389D01*
X12244348Y-13382389D02*
X12225301Y-13372865D01*
X12225301Y-13372865D02*
X12215777Y-13363341D01*
X12530062Y-13382389D02*
X12415777Y-13382389D01*
X12472920Y-13382389D02*
X12472920Y-13182389D01*
X12472920Y-13182389D02*
X12453872Y-13210960D01*
X12453872Y-13210960D02*
X12434824Y-13230008D01*
X12434824Y-13230008D02*
X12415777Y-13239532D01*
X12711015Y-13182389D02*
X12615777Y-13182389D01*
X12615777Y-13182389D02*
X12606253Y-13277627D01*
X12606253Y-13277627D02*
X12615777Y-13268103D01*
X12615777Y-13268103D02*
X12634824Y-13258579D01*
X12634824Y-13258579D02*
X12682443Y-13258579D01*
X12682443Y-13258579D02*
X12701491Y-13268103D01*
X12701491Y-13268103D02*
X12711015Y-13277627D01*
X12711015Y-13277627D02*
X12720539Y-13296674D01*
X12720539Y-13296674D02*
X12720539Y-13344293D01*
X12720539Y-13344293D02*
X12711015Y-13363341D01*
X12711015Y-13363341D02*
X12701491Y-13372865D01*
X12701491Y-13372865D02*
X12682443Y-13382389D01*
X12682443Y-13382389D02*
X12634824Y-13382389D01*
X12634824Y-13382389D02*
X12615777Y-13372865D01*
X12615777Y-13372865D02*
X12606253Y-13363341D01*
X12796729Y-13182389D02*
X12796729Y-13220484D01*
X12872920Y-13182389D02*
X12872920Y-13220484D01*
X13168158Y-13458579D02*
X13158634Y-13449055D01*
X13158634Y-13449055D02*
X13139586Y-13420484D01*
X13139586Y-13420484D02*
X13130063Y-13401436D01*
X13130063Y-13401436D02*
X13120539Y-13372865D01*
X13120539Y-13372865D02*
X13111015Y-13325246D01*
X13111015Y-13325246D02*
X13111015Y-13287151D01*
X13111015Y-13287151D02*
X13120539Y-13239532D01*
X13120539Y-13239532D02*
X13130063Y-13210960D01*
X13130063Y-13210960D02*
X13139586Y-13191913D01*
X13139586Y-13191913D02*
X13158634Y-13163341D01*
X13158634Y-13163341D02*
X13168158Y-13153817D01*
X13225301Y-13182389D02*
X13349110Y-13182389D01*
X13349110Y-13182389D02*
X13282443Y-13258579D01*
X13282443Y-13258579D02*
X13311015Y-13258579D01*
X13311015Y-13258579D02*
X13330063Y-13268103D01*
X13330063Y-13268103D02*
X13339586Y-13277627D01*
X13339586Y-13277627D02*
X13349110Y-13296674D01*
X13349110Y-13296674D02*
X13349110Y-13344293D01*
X13349110Y-13344293D02*
X13339586Y-13363341D01*
X13339586Y-13363341D02*
X13330063Y-13372865D01*
X13330063Y-13372865D02*
X13311015Y-13382389D01*
X13311015Y-13382389D02*
X13253872Y-13382389D01*
X13253872Y-13382389D02*
X13234824Y-13372865D01*
X13234824Y-13372865D02*
X13225301Y-13363341D01*
X13587205Y-13382389D02*
X13587205Y-13182389D01*
X13672920Y-13382389D02*
X13672920Y-13277627D01*
X13672920Y-13277627D02*
X13663396Y-13258579D01*
X13663396Y-13258579D02*
X13644348Y-13249055D01*
X13644348Y-13249055D02*
X13615777Y-13249055D01*
X13615777Y-13249055D02*
X13596729Y-13258579D01*
X13596729Y-13258579D02*
X13587205Y-13268103D01*
X13796729Y-13382389D02*
X13777682Y-13372865D01*
X13777682Y-13372865D02*
X13768158Y-13363341D01*
X13768158Y-13363341D02*
X13758634Y-13344293D01*
X13758634Y-13344293D02*
X13758634Y-13287151D01*
X13758634Y-13287151D02*
X13768158Y-13268103D01*
X13768158Y-13268103D02*
X13777682Y-13258579D01*
X13777682Y-13258579D02*
X13796729Y-13249055D01*
X13796729Y-13249055D02*
X13825301Y-13249055D01*
X13825301Y-13249055D02*
X13844348Y-13258579D01*
X13844348Y-13258579D02*
X13853872Y-13268103D01*
X13853872Y-13268103D02*
X13863396Y-13287151D01*
X13863396Y-13287151D02*
X13863396Y-13344293D01*
X13863396Y-13344293D02*
X13853872Y-13363341D01*
X13853872Y-13363341D02*
X13844348Y-13372865D01*
X13844348Y-13372865D02*
X13825301Y-13382389D01*
X13825301Y-13382389D02*
X13796729Y-13382389D01*
X13977682Y-13382389D02*
X13958634Y-13372865D01*
X13958634Y-13372865D02*
X13949110Y-13353817D01*
X13949110Y-13353817D02*
X13949110Y-13182389D01*
X14130063Y-13372865D02*
X14111015Y-13382389D01*
X14111015Y-13382389D02*
X14072920Y-13382389D01*
X14072920Y-13382389D02*
X14053872Y-13372865D01*
X14053872Y-13372865D02*
X14044348Y-13353817D01*
X14044348Y-13353817D02*
X14044348Y-13277627D01*
X14044348Y-13277627D02*
X14053872Y-13258579D01*
X14053872Y-13258579D02*
X14072920Y-13249055D01*
X14072920Y-13249055D02*
X14111015Y-13249055D01*
X14111015Y-13249055D02*
X14130063Y-13258579D01*
X14130063Y-13258579D02*
X14139586Y-13277627D01*
X14139586Y-13277627D02*
X14139586Y-13296674D01*
X14139586Y-13296674D02*
X14044348Y-13315722D01*
X14215777Y-13372865D02*
X14234825Y-13382389D01*
X14234825Y-13382389D02*
X14272920Y-13382389D01*
X14272920Y-13382389D02*
X14291967Y-13372865D01*
X14291967Y-13372865D02*
X14301491Y-13353817D01*
X14301491Y-13353817D02*
X14301491Y-13344293D01*
X14301491Y-13344293D02*
X14291967Y-13325246D01*
X14291967Y-13325246D02*
X14272920Y-13315722D01*
X14272920Y-13315722D02*
X14244348Y-13315722D01*
X14244348Y-13315722D02*
X14225301Y-13306198D01*
X14225301Y-13306198D02*
X14215777Y-13287151D01*
X14215777Y-13287151D02*
X14215777Y-13277627D01*
X14215777Y-13277627D02*
X14225301Y-13258579D01*
X14225301Y-13258579D02*
X14244348Y-13249055D01*
X14244348Y-13249055D02*
X14272920Y-13249055D01*
X14272920Y-13249055D02*
X14291967Y-13258579D01*
X14368158Y-13458579D02*
X14377682Y-13449055D01*
X14377682Y-13449055D02*
X14396729Y-13420484D01*
X14396729Y-13420484D02*
X14406253Y-13401436D01*
X14406253Y-13401436D02*
X14415777Y-13372865D01*
X14415777Y-13372865D02*
X14425301Y-13325246D01*
X14425301Y-13325246D02*
X14425301Y-13287151D01*
X14425301Y-13287151D02*
X14415777Y-13239532D01*
X14415777Y-13239532D02*
X14406253Y-13210960D01*
X14406253Y-13210960D02*
X14396729Y-13191913D01*
X14396729Y-13191913D02*
X14377682Y-13163341D01*
X14377682Y-13163341D02*
X14368158Y-13153817D01*
D12*
X9543095Y-13504905D02*
X9543095Y-13604905D01*
X9493095Y-13554905D02*
X9593095Y-13554905D01*
D11*
X9958634Y-13646389D02*
X9844348Y-13646389D01*
X9901491Y-13646389D02*
X9901491Y-13446389D01*
X9901491Y-13446389D02*
X9882443Y-13474960D01*
X9882443Y-13474960D02*
X9863396Y-13494008D01*
X9863396Y-13494008D02*
X9844348Y-13503532D01*
X10044348Y-13627341D02*
X10053872Y-13636865D01*
X10053872Y-13636865D02*
X10044348Y-13646389D01*
X10044348Y-13646389D02*
X10034824Y-13636865D01*
X10034824Y-13636865D02*
X10044348Y-13627341D01*
X10044348Y-13627341D02*
X10044348Y-13646389D01*
X10177681Y-13446389D02*
X10196729Y-13446389D01*
X10196729Y-13446389D02*
X10215777Y-13455913D01*
X10215777Y-13455913D02*
X10225300Y-13465436D01*
X10225300Y-13465436D02*
X10234824Y-13484484D01*
X10234824Y-13484484D02*
X10244348Y-13522579D01*
X10244348Y-13522579D02*
X10244348Y-13570198D01*
X10244348Y-13570198D02*
X10234824Y-13608293D01*
X10234824Y-13608293D02*
X10225300Y-13627341D01*
X10225300Y-13627341D02*
X10215777Y-13636865D01*
X10215777Y-13636865D02*
X10196729Y-13646389D01*
X10196729Y-13646389D02*
X10177681Y-13646389D01*
X10177681Y-13646389D02*
X10158634Y-13636865D01*
X10158634Y-13636865D02*
X10149110Y-13627341D01*
X10149110Y-13627341D02*
X10139586Y-13608293D01*
X10139586Y-13608293D02*
X10130062Y-13570198D01*
X10130062Y-13570198D02*
X10130062Y-13522579D01*
X10130062Y-13522579D02*
X10139586Y-13484484D01*
X10139586Y-13484484D02*
X10149110Y-13465436D01*
X10149110Y-13465436D02*
X10158634Y-13455913D01*
X10158634Y-13455913D02*
X10177681Y-13446389D01*
X10368158Y-13446389D02*
X10387205Y-13446389D01*
X10387205Y-13446389D02*
X10406253Y-13455913D01*
X10406253Y-13455913D02*
X10415777Y-13465436D01*
X10415777Y-13465436D02*
X10425300Y-13484484D01*
X10425300Y-13484484D02*
X10434824Y-13522579D01*
X10434824Y-13522579D02*
X10434824Y-13570198D01*
X10434824Y-13570198D02*
X10425300Y-13608293D01*
X10425300Y-13608293D02*
X10415777Y-13627341D01*
X10415777Y-13627341D02*
X10406253Y-13636865D01*
X10406253Y-13636865D02*
X10387205Y-13646389D01*
X10387205Y-13646389D02*
X10368158Y-13646389D01*
X10368158Y-13646389D02*
X10349110Y-13636865D01*
X10349110Y-13636865D02*
X10339586Y-13627341D01*
X10339586Y-13627341D02*
X10330062Y-13608293D01*
X10330062Y-13608293D02*
X10320539Y-13570198D01*
X10320539Y-13570198D02*
X10320539Y-13522579D01*
X10320539Y-13522579D02*
X10330062Y-13484484D01*
X10330062Y-13484484D02*
X10339586Y-13465436D01*
X10339586Y-13465436D02*
X10349110Y-13455913D01*
X10349110Y-13455913D02*
X10368158Y-13446389D01*
X10558634Y-13446389D02*
X10577681Y-13446389D01*
X10577681Y-13446389D02*
X10596729Y-13455913D01*
X10596729Y-13455913D02*
X10606253Y-13465436D01*
X10606253Y-13465436D02*
X10615777Y-13484484D01*
X10615777Y-13484484D02*
X10625300Y-13522579D01*
X10625300Y-13522579D02*
X10625300Y-13570198D01*
X10625300Y-13570198D02*
X10615777Y-13608293D01*
X10615777Y-13608293D02*
X10606253Y-13627341D01*
X10606253Y-13627341D02*
X10596729Y-13636865D01*
X10596729Y-13636865D02*
X10577681Y-13646389D01*
X10577681Y-13646389D02*
X10558634Y-13646389D01*
X10558634Y-13646389D02*
X10539586Y-13636865D01*
X10539586Y-13636865D02*
X10530062Y-13627341D01*
X10530062Y-13627341D02*
X10520539Y-13608293D01*
X10520539Y-13608293D02*
X10511015Y-13570198D01*
X10511015Y-13570198D02*
X10511015Y-13522579D01*
X10511015Y-13522579D02*
X10520539Y-13484484D01*
X10520539Y-13484484D02*
X10530062Y-13465436D01*
X10530062Y-13465436D02*
X10539586Y-13455913D01*
X10539586Y-13455913D02*
X10558634Y-13446389D01*
X10711015Y-13646389D02*
X10711015Y-13513055D01*
X10711015Y-13532103D02*
X10720539Y-13522579D01*
X10720539Y-13522579D02*
X10739586Y-13513055D01*
X10739586Y-13513055D02*
X10768158Y-13513055D01*
X10768158Y-13513055D02*
X10787205Y-13522579D01*
X10787205Y-13522579D02*
X10796729Y-13541627D01*
X10796729Y-13541627D02*
X10796729Y-13646389D01*
X10796729Y-13541627D02*
X10806253Y-13522579D01*
X10806253Y-13522579D02*
X10825300Y-13513055D01*
X10825300Y-13513055D02*
X10853872Y-13513055D01*
X10853872Y-13513055D02*
X10872920Y-13522579D01*
X10872920Y-13522579D02*
X10882443Y-13541627D01*
X10882443Y-13541627D02*
X10882443Y-13646389D01*
X10977681Y-13646389D02*
X10977681Y-13513055D01*
X10977681Y-13532103D02*
X10987205Y-13522579D01*
X10987205Y-13522579D02*
X11006253Y-13513055D01*
X11006253Y-13513055D02*
X11034824Y-13513055D01*
X11034824Y-13513055D02*
X11053872Y-13522579D01*
X11053872Y-13522579D02*
X11063396Y-13541627D01*
X11063396Y-13541627D02*
X11063396Y-13646389D01*
X11063396Y-13541627D02*
X11072920Y-13522579D01*
X11072920Y-13522579D02*
X11091967Y-13513055D01*
X11091967Y-13513055D02*
X11120539Y-13513055D01*
X11120539Y-13513055D02*
X11139586Y-13522579D01*
X11139586Y-13522579D02*
X11149110Y-13541627D01*
X11149110Y-13541627D02*
X11149110Y-13646389D01*
X11539586Y-13436865D02*
X11368158Y-13694008D01*
X11796729Y-13446389D02*
X11815777Y-13446389D01*
X11815777Y-13446389D02*
X11834824Y-13455913D01*
X11834824Y-13455913D02*
X11844348Y-13465436D01*
X11844348Y-13465436D02*
X11853872Y-13484484D01*
X11853872Y-13484484D02*
X11863396Y-13522579D01*
X11863396Y-13522579D02*
X11863396Y-13570198D01*
X11863396Y-13570198D02*
X11853872Y-13608293D01*
X11853872Y-13608293D02*
X11844348Y-13627341D01*
X11844348Y-13627341D02*
X11834824Y-13636865D01*
X11834824Y-13636865D02*
X11815777Y-13646389D01*
X11815777Y-13646389D02*
X11796729Y-13646389D01*
X11796729Y-13646389D02*
X11777681Y-13636865D01*
X11777681Y-13636865D02*
X11768158Y-13627341D01*
X11768158Y-13627341D02*
X11758634Y-13608293D01*
X11758634Y-13608293D02*
X11749110Y-13570198D01*
X11749110Y-13570198D02*
X11749110Y-13522579D01*
X11749110Y-13522579D02*
X11758634Y-13484484D01*
X11758634Y-13484484D02*
X11768158Y-13465436D01*
X11768158Y-13465436D02*
X11777681Y-13455913D01*
X11777681Y-13455913D02*
X11796729Y-13446389D01*
X11949110Y-13627341D02*
X11958634Y-13636865D01*
X11958634Y-13636865D02*
X11949110Y-13646389D01*
X11949110Y-13646389D02*
X11939586Y-13636865D01*
X11939586Y-13636865D02*
X11949110Y-13627341D01*
X11949110Y-13627341D02*
X11949110Y-13646389D01*
X12082443Y-13446389D02*
X12101491Y-13446389D01*
X12101491Y-13446389D02*
X12120539Y-13455913D01*
X12120539Y-13455913D02*
X12130062Y-13465436D01*
X12130062Y-13465436D02*
X12139586Y-13484484D01*
X12139586Y-13484484D02*
X12149110Y-13522579D01*
X12149110Y-13522579D02*
X12149110Y-13570198D01*
X12149110Y-13570198D02*
X12139586Y-13608293D01*
X12139586Y-13608293D02*
X12130062Y-13627341D01*
X12130062Y-13627341D02*
X12120539Y-13636865D01*
X12120539Y-13636865D02*
X12101491Y-13646389D01*
X12101491Y-13646389D02*
X12082443Y-13646389D01*
X12082443Y-13646389D02*
X12063396Y-13636865D01*
X12063396Y-13636865D02*
X12053872Y-13627341D01*
X12053872Y-13627341D02*
X12044348Y-13608293D01*
X12044348Y-13608293D02*
X12034824Y-13570198D01*
X12034824Y-13570198D02*
X12034824Y-13522579D01*
X12034824Y-13522579D02*
X12044348Y-13484484D01*
X12044348Y-13484484D02*
X12053872Y-13465436D01*
X12053872Y-13465436D02*
X12063396Y-13455913D01*
X12063396Y-13455913D02*
X12082443Y-13446389D01*
X12215777Y-13446389D02*
X12339586Y-13446389D01*
X12339586Y-13446389D02*
X12272920Y-13522579D01*
X12272920Y-13522579D02*
X12301491Y-13522579D01*
X12301491Y-13522579D02*
X12320539Y-13532103D01*
X12320539Y-13532103D02*
X12330062Y-13541627D01*
X12330062Y-13541627D02*
X12339586Y-13560674D01*
X12339586Y-13560674D02*
X12339586Y-13608293D01*
X12339586Y-13608293D02*
X12330062Y-13627341D01*
X12330062Y-13627341D02*
X12320539Y-13636865D01*
X12320539Y-13636865D02*
X12301491Y-13646389D01*
X12301491Y-13646389D02*
X12244348Y-13646389D01*
X12244348Y-13646389D02*
X12225301Y-13636865D01*
X12225301Y-13636865D02*
X12215777Y-13627341D01*
X12434824Y-13646389D02*
X12472920Y-13646389D01*
X12472920Y-13646389D02*
X12491967Y-13636865D01*
X12491967Y-13636865D02*
X12501491Y-13627341D01*
X12501491Y-13627341D02*
X12520539Y-13598770D01*
X12520539Y-13598770D02*
X12530062Y-13560674D01*
X12530062Y-13560674D02*
X12530062Y-13484484D01*
X12530062Y-13484484D02*
X12520539Y-13465436D01*
X12520539Y-13465436D02*
X12511015Y-13455913D01*
X12511015Y-13455913D02*
X12491967Y-13446389D01*
X12491967Y-13446389D02*
X12453872Y-13446389D01*
X12453872Y-13446389D02*
X12434824Y-13455913D01*
X12434824Y-13455913D02*
X12425301Y-13465436D01*
X12425301Y-13465436D02*
X12415777Y-13484484D01*
X12415777Y-13484484D02*
X12415777Y-13532103D01*
X12415777Y-13532103D02*
X12425301Y-13551151D01*
X12425301Y-13551151D02*
X12434824Y-13560674D01*
X12434824Y-13560674D02*
X12453872Y-13570198D01*
X12453872Y-13570198D02*
X12491967Y-13570198D01*
X12491967Y-13570198D02*
X12511015Y-13560674D01*
X12511015Y-13560674D02*
X12520539Y-13551151D01*
X12520539Y-13551151D02*
X12530062Y-13532103D01*
X12701491Y-13513055D02*
X12701491Y-13646389D01*
X12653872Y-13436865D02*
X12606253Y-13579722D01*
X12606253Y-13579722D02*
X12730062Y-13579722D01*
X12796729Y-13446389D02*
X12796729Y-13484484D01*
X12872920Y-13446389D02*
X12872920Y-13484484D01*
X13168158Y-13722579D02*
X13158634Y-13713055D01*
X13158634Y-13713055D02*
X13139586Y-13684484D01*
X13139586Y-13684484D02*
X13130063Y-13665436D01*
X13130063Y-13665436D02*
X13120539Y-13636865D01*
X13120539Y-13636865D02*
X13111015Y-13589246D01*
X13111015Y-13589246D02*
X13111015Y-13551151D01*
X13111015Y-13551151D02*
X13120539Y-13503532D01*
X13120539Y-13503532D02*
X13130063Y-13474960D01*
X13130063Y-13474960D02*
X13139586Y-13455913D01*
X13139586Y-13455913D02*
X13158634Y-13427341D01*
X13158634Y-13427341D02*
X13168158Y-13417817D01*
X13349110Y-13646389D02*
X13234824Y-13646389D01*
X13291967Y-13646389D02*
X13291967Y-13446389D01*
X13291967Y-13446389D02*
X13272920Y-13474960D01*
X13272920Y-13474960D02*
X13253872Y-13494008D01*
X13253872Y-13494008D02*
X13234824Y-13503532D01*
X13415777Y-13446389D02*
X13549110Y-13446389D01*
X13549110Y-13446389D02*
X13463396Y-13646389D01*
X13777682Y-13646389D02*
X13777682Y-13446389D01*
X13863396Y-13646389D02*
X13863396Y-13541627D01*
X13863396Y-13541627D02*
X13853872Y-13522579D01*
X13853872Y-13522579D02*
X13834825Y-13513055D01*
X13834825Y-13513055D02*
X13806253Y-13513055D01*
X13806253Y-13513055D02*
X13787205Y-13522579D01*
X13787205Y-13522579D02*
X13777682Y-13532103D01*
X13987205Y-13646389D02*
X13968158Y-13636865D01*
X13968158Y-13636865D02*
X13958634Y-13627341D01*
X13958634Y-13627341D02*
X13949110Y-13608293D01*
X13949110Y-13608293D02*
X13949110Y-13551151D01*
X13949110Y-13551151D02*
X13958634Y-13532103D01*
X13958634Y-13532103D02*
X13968158Y-13522579D01*
X13968158Y-13522579D02*
X13987205Y-13513055D01*
X13987205Y-13513055D02*
X14015777Y-13513055D01*
X14015777Y-13513055D02*
X14034825Y-13522579D01*
X14034825Y-13522579D02*
X14044348Y-13532103D01*
X14044348Y-13532103D02*
X14053872Y-13551151D01*
X14053872Y-13551151D02*
X14053872Y-13608293D01*
X14053872Y-13608293D02*
X14044348Y-13627341D01*
X14044348Y-13627341D02*
X14034825Y-13636865D01*
X14034825Y-13636865D02*
X14015777Y-13646389D01*
X14015777Y-13646389D02*
X13987205Y-13646389D01*
X14168158Y-13646389D02*
X14149110Y-13636865D01*
X14149110Y-13636865D02*
X14139586Y-13617817D01*
X14139586Y-13617817D02*
X14139586Y-13446389D01*
X14320539Y-13636865D02*
X14301491Y-13646389D01*
X14301491Y-13646389D02*
X14263396Y-13646389D01*
X14263396Y-13646389D02*
X14244348Y-13636865D01*
X14244348Y-13636865D02*
X14234825Y-13617817D01*
X14234825Y-13617817D02*
X14234825Y-13541627D01*
X14234825Y-13541627D02*
X14244348Y-13522579D01*
X14244348Y-13522579D02*
X14263396Y-13513055D01*
X14263396Y-13513055D02*
X14301491Y-13513055D01*
X14301491Y-13513055D02*
X14320539Y-13522579D01*
X14320539Y-13522579D02*
X14330063Y-13541627D01*
X14330063Y-13541627D02*
X14330063Y-13560674D01*
X14330063Y-13560674D02*
X14234825Y-13579722D01*
X14406253Y-13636865D02*
X14425301Y-13646389D01*
X14425301Y-13646389D02*
X14463396Y-13646389D01*
X14463396Y-13646389D02*
X14482444Y-13636865D01*
X14482444Y-13636865D02*
X14491967Y-13617817D01*
X14491967Y-13617817D02*
X14491967Y-13608293D01*
X14491967Y-13608293D02*
X14482444Y-13589246D01*
X14482444Y-13589246D02*
X14463396Y-13579722D01*
X14463396Y-13579722D02*
X14434825Y-13579722D01*
X14434825Y-13579722D02*
X14415777Y-13570198D01*
X14415777Y-13570198D02*
X14406253Y-13551151D01*
X14406253Y-13551151D02*
X14406253Y-13541627D01*
X14406253Y-13541627D02*
X14415777Y-13522579D01*
X14415777Y-13522579D02*
X14434825Y-13513055D01*
X14434825Y-13513055D02*
X14463396Y-13513055D01*
X14463396Y-13513055D02*
X14482444Y-13522579D01*
X14558634Y-13722579D02*
X14568158Y-13713055D01*
X14568158Y-13713055D02*
X14587206Y-13684484D01*
X14587206Y-13684484D02*
X14596729Y-13665436D01*
X14596729Y-13665436D02*
X14606253Y-13636865D01*
X14606253Y-13636865D02*
X14615777Y-13589246D01*
X14615777Y-13589246D02*
X14615777Y-13551151D01*
X14615777Y-13551151D02*
X14606253Y-13503532D01*
X14606253Y-13503532D02*
X14596729Y-13474960D01*
X14596729Y-13474960D02*
X14587206Y-13455913D01*
X14587206Y-13455913D02*
X14568158Y-13427341D01*
X14568158Y-13427341D02*
X14558634Y-13417817D01*
D13*
X9574790Y-13863100D02*
X9574790Y-13774710D01*
X9486400Y-13774710D01*
X9486400Y-13863100D01*
X9574790Y-13863100D01*
D11*
X9958634Y-13910389D02*
X9844348Y-13910389D01*
X9901491Y-13910389D02*
X9901491Y-13710389D01*
X9901491Y-13710389D02*
X9882443Y-13738960D01*
X9882443Y-13738960D02*
X9863396Y-13758008D01*
X9863396Y-13758008D02*
X9844348Y-13767532D01*
X10044348Y-13891341D02*
X10053872Y-13900865D01*
X10053872Y-13900865D02*
X10044348Y-13910389D01*
X10044348Y-13910389D02*
X10034824Y-13900865D01*
X10034824Y-13900865D02*
X10044348Y-13891341D01*
X10044348Y-13891341D02*
X10044348Y-13910389D01*
X10130062Y-13729436D02*
X10139586Y-13719913D01*
X10139586Y-13719913D02*
X10158634Y-13710389D01*
X10158634Y-13710389D02*
X10206253Y-13710389D01*
X10206253Y-13710389D02*
X10225300Y-13719913D01*
X10225300Y-13719913D02*
X10234824Y-13729436D01*
X10234824Y-13729436D02*
X10244348Y-13748484D01*
X10244348Y-13748484D02*
X10244348Y-13767532D01*
X10244348Y-13767532D02*
X10234824Y-13796103D01*
X10234824Y-13796103D02*
X10120539Y-13910389D01*
X10120539Y-13910389D02*
X10244348Y-13910389D01*
X10425300Y-13710389D02*
X10330062Y-13710389D01*
X10330062Y-13710389D02*
X10320539Y-13805627D01*
X10320539Y-13805627D02*
X10330062Y-13796103D01*
X10330062Y-13796103D02*
X10349110Y-13786579D01*
X10349110Y-13786579D02*
X10396729Y-13786579D01*
X10396729Y-13786579D02*
X10415777Y-13796103D01*
X10415777Y-13796103D02*
X10425300Y-13805627D01*
X10425300Y-13805627D02*
X10434824Y-13824674D01*
X10434824Y-13824674D02*
X10434824Y-13872293D01*
X10434824Y-13872293D02*
X10425300Y-13891341D01*
X10425300Y-13891341D02*
X10415777Y-13900865D01*
X10415777Y-13900865D02*
X10396729Y-13910389D01*
X10396729Y-13910389D02*
X10349110Y-13910389D01*
X10349110Y-13910389D02*
X10330062Y-13900865D01*
X10330062Y-13900865D02*
X10320539Y-13891341D01*
X10558634Y-13710389D02*
X10577681Y-13710389D01*
X10577681Y-13710389D02*
X10596729Y-13719913D01*
X10596729Y-13719913D02*
X10606253Y-13729436D01*
X10606253Y-13729436D02*
X10615777Y-13748484D01*
X10615777Y-13748484D02*
X10625300Y-13786579D01*
X10625300Y-13786579D02*
X10625300Y-13834198D01*
X10625300Y-13834198D02*
X10615777Y-13872293D01*
X10615777Y-13872293D02*
X10606253Y-13891341D01*
X10606253Y-13891341D02*
X10596729Y-13900865D01*
X10596729Y-13900865D02*
X10577681Y-13910389D01*
X10577681Y-13910389D02*
X10558634Y-13910389D01*
X10558634Y-13910389D02*
X10539586Y-13900865D01*
X10539586Y-13900865D02*
X10530062Y-13891341D01*
X10530062Y-13891341D02*
X10520539Y-13872293D01*
X10520539Y-13872293D02*
X10511015Y-13834198D01*
X10511015Y-13834198D02*
X10511015Y-13786579D01*
X10511015Y-13786579D02*
X10520539Y-13748484D01*
X10520539Y-13748484D02*
X10530062Y-13729436D01*
X10530062Y-13729436D02*
X10539586Y-13719913D01*
X10539586Y-13719913D02*
X10558634Y-13710389D01*
X10711015Y-13910389D02*
X10711015Y-13777055D01*
X10711015Y-13796103D02*
X10720539Y-13786579D01*
X10720539Y-13786579D02*
X10739586Y-13777055D01*
X10739586Y-13777055D02*
X10768158Y-13777055D01*
X10768158Y-13777055D02*
X10787205Y-13786579D01*
X10787205Y-13786579D02*
X10796729Y-13805627D01*
X10796729Y-13805627D02*
X10796729Y-13910389D01*
X10796729Y-13805627D02*
X10806253Y-13786579D01*
X10806253Y-13786579D02*
X10825300Y-13777055D01*
X10825300Y-13777055D02*
X10853872Y-13777055D01*
X10853872Y-13777055D02*
X10872920Y-13786579D01*
X10872920Y-13786579D02*
X10882443Y-13805627D01*
X10882443Y-13805627D02*
X10882443Y-13910389D01*
X10977681Y-13910389D02*
X10977681Y-13777055D01*
X10977681Y-13796103D02*
X10987205Y-13786579D01*
X10987205Y-13786579D02*
X11006253Y-13777055D01*
X11006253Y-13777055D02*
X11034824Y-13777055D01*
X11034824Y-13777055D02*
X11053872Y-13786579D01*
X11053872Y-13786579D02*
X11063396Y-13805627D01*
X11063396Y-13805627D02*
X11063396Y-13910389D01*
X11063396Y-13805627D02*
X11072920Y-13786579D01*
X11072920Y-13786579D02*
X11091967Y-13777055D01*
X11091967Y-13777055D02*
X11120539Y-13777055D01*
X11120539Y-13777055D02*
X11139586Y-13786579D01*
X11139586Y-13786579D02*
X11149110Y-13805627D01*
X11149110Y-13805627D02*
X11149110Y-13910389D01*
X11539586Y-13700865D02*
X11368158Y-13958008D01*
X11796729Y-13710389D02*
X11815777Y-13710389D01*
X11815777Y-13710389D02*
X11834824Y-13719913D01*
X11834824Y-13719913D02*
X11844348Y-13729436D01*
X11844348Y-13729436D02*
X11853872Y-13748484D01*
X11853872Y-13748484D02*
X11863396Y-13786579D01*
X11863396Y-13786579D02*
X11863396Y-13834198D01*
X11863396Y-13834198D02*
X11853872Y-13872293D01*
X11853872Y-13872293D02*
X11844348Y-13891341D01*
X11844348Y-13891341D02*
X11834824Y-13900865D01*
X11834824Y-13900865D02*
X11815777Y-13910389D01*
X11815777Y-13910389D02*
X11796729Y-13910389D01*
X11796729Y-13910389D02*
X11777681Y-13900865D01*
X11777681Y-13900865D02*
X11768158Y-13891341D01*
X11768158Y-13891341D02*
X11758634Y-13872293D01*
X11758634Y-13872293D02*
X11749110Y-13834198D01*
X11749110Y-13834198D02*
X11749110Y-13786579D01*
X11749110Y-13786579D02*
X11758634Y-13748484D01*
X11758634Y-13748484D02*
X11768158Y-13729436D01*
X11768158Y-13729436D02*
X11777681Y-13719913D01*
X11777681Y-13719913D02*
X11796729Y-13710389D01*
X11949110Y-13891341D02*
X11958634Y-13900865D01*
X11958634Y-13900865D02*
X11949110Y-13910389D01*
X11949110Y-13910389D02*
X11939586Y-13900865D01*
X11939586Y-13900865D02*
X11949110Y-13891341D01*
X11949110Y-13891341D02*
X11949110Y-13910389D01*
X12082443Y-13710389D02*
X12101491Y-13710389D01*
X12101491Y-13710389D02*
X12120539Y-13719913D01*
X12120539Y-13719913D02*
X12130062Y-13729436D01*
X12130062Y-13729436D02*
X12139586Y-13748484D01*
X12139586Y-13748484D02*
X12149110Y-13786579D01*
X12149110Y-13786579D02*
X12149110Y-13834198D01*
X12149110Y-13834198D02*
X12139586Y-13872293D01*
X12139586Y-13872293D02*
X12130062Y-13891341D01*
X12130062Y-13891341D02*
X12120539Y-13900865D01*
X12120539Y-13900865D02*
X12101491Y-13910389D01*
X12101491Y-13910389D02*
X12082443Y-13910389D01*
X12082443Y-13910389D02*
X12063396Y-13900865D01*
X12063396Y-13900865D02*
X12053872Y-13891341D01*
X12053872Y-13891341D02*
X12044348Y-13872293D01*
X12044348Y-13872293D02*
X12034824Y-13834198D01*
X12034824Y-13834198D02*
X12034824Y-13786579D01*
X12034824Y-13786579D02*
X12044348Y-13748484D01*
X12044348Y-13748484D02*
X12053872Y-13729436D01*
X12053872Y-13729436D02*
X12063396Y-13719913D01*
X12063396Y-13719913D02*
X12082443Y-13710389D01*
X12320539Y-13777055D02*
X12320539Y-13910389D01*
X12272920Y-13700865D02*
X12225301Y-13843722D01*
X12225301Y-13843722D02*
X12349110Y-13843722D01*
X12434824Y-13910389D02*
X12472920Y-13910389D01*
X12472920Y-13910389D02*
X12491967Y-13900865D01*
X12491967Y-13900865D02*
X12501491Y-13891341D01*
X12501491Y-13891341D02*
X12520539Y-13862770D01*
X12520539Y-13862770D02*
X12530062Y-13824674D01*
X12530062Y-13824674D02*
X12530062Y-13748484D01*
X12530062Y-13748484D02*
X12520539Y-13729436D01*
X12520539Y-13729436D02*
X12511015Y-13719913D01*
X12511015Y-13719913D02*
X12491967Y-13710389D01*
X12491967Y-13710389D02*
X12453872Y-13710389D01*
X12453872Y-13710389D02*
X12434824Y-13719913D01*
X12434824Y-13719913D02*
X12425301Y-13729436D01*
X12425301Y-13729436D02*
X12415777Y-13748484D01*
X12415777Y-13748484D02*
X12415777Y-13796103D01*
X12415777Y-13796103D02*
X12425301Y-13815151D01*
X12425301Y-13815151D02*
X12434824Y-13824674D01*
X12434824Y-13824674D02*
X12453872Y-13834198D01*
X12453872Y-13834198D02*
X12491967Y-13834198D01*
X12491967Y-13834198D02*
X12511015Y-13824674D01*
X12511015Y-13824674D02*
X12520539Y-13815151D01*
X12520539Y-13815151D02*
X12530062Y-13796103D01*
X12606253Y-13729436D02*
X12615777Y-13719913D01*
X12615777Y-13719913D02*
X12634824Y-13710389D01*
X12634824Y-13710389D02*
X12682443Y-13710389D01*
X12682443Y-13710389D02*
X12701491Y-13719913D01*
X12701491Y-13719913D02*
X12711015Y-13729436D01*
X12711015Y-13729436D02*
X12720539Y-13748484D01*
X12720539Y-13748484D02*
X12720539Y-13767532D01*
X12720539Y-13767532D02*
X12711015Y-13796103D01*
X12711015Y-13796103D02*
X12596729Y-13910389D01*
X12596729Y-13910389D02*
X12720539Y-13910389D01*
X12796729Y-13710389D02*
X12796729Y-13748484D01*
X12872920Y-13710389D02*
X12872920Y-13748484D01*
X13168158Y-13986579D02*
X13158634Y-13977055D01*
X13158634Y-13977055D02*
X13139586Y-13948484D01*
X13139586Y-13948484D02*
X13130063Y-13929436D01*
X13130063Y-13929436D02*
X13120539Y-13900865D01*
X13120539Y-13900865D02*
X13111015Y-13853246D01*
X13111015Y-13853246D02*
X13111015Y-13815151D01*
X13111015Y-13815151D02*
X13120539Y-13767532D01*
X13120539Y-13767532D02*
X13130063Y-13738960D01*
X13130063Y-13738960D02*
X13139586Y-13719913D01*
X13139586Y-13719913D02*
X13158634Y-13691341D01*
X13158634Y-13691341D02*
X13168158Y-13681817D01*
X13234824Y-13729436D02*
X13244348Y-13719913D01*
X13244348Y-13719913D02*
X13263396Y-13710389D01*
X13263396Y-13710389D02*
X13311015Y-13710389D01*
X13311015Y-13710389D02*
X13330063Y-13719913D01*
X13330063Y-13719913D02*
X13339586Y-13729436D01*
X13339586Y-13729436D02*
X13349110Y-13748484D01*
X13349110Y-13748484D02*
X13349110Y-13767532D01*
X13349110Y-13767532D02*
X13339586Y-13796103D01*
X13339586Y-13796103D02*
X13225301Y-13910389D01*
X13225301Y-13910389D02*
X13349110Y-13910389D01*
X13587205Y-13910389D02*
X13587205Y-13710389D01*
X13672920Y-13910389D02*
X13672920Y-13805627D01*
X13672920Y-13805627D02*
X13663396Y-13786579D01*
X13663396Y-13786579D02*
X13644348Y-13777055D01*
X13644348Y-13777055D02*
X13615777Y-13777055D01*
X13615777Y-13777055D02*
X13596729Y-13786579D01*
X13596729Y-13786579D02*
X13587205Y-13796103D01*
X13796729Y-13910389D02*
X13777682Y-13900865D01*
X13777682Y-13900865D02*
X13768158Y-13891341D01*
X13768158Y-13891341D02*
X13758634Y-13872293D01*
X13758634Y-13872293D02*
X13758634Y-13815151D01*
X13758634Y-13815151D02*
X13768158Y-13796103D01*
X13768158Y-13796103D02*
X13777682Y-13786579D01*
X13777682Y-13786579D02*
X13796729Y-13777055D01*
X13796729Y-13777055D02*
X13825301Y-13777055D01*
X13825301Y-13777055D02*
X13844348Y-13786579D01*
X13844348Y-13786579D02*
X13853872Y-13796103D01*
X13853872Y-13796103D02*
X13863396Y-13815151D01*
X13863396Y-13815151D02*
X13863396Y-13872293D01*
X13863396Y-13872293D02*
X13853872Y-13891341D01*
X13853872Y-13891341D02*
X13844348Y-13900865D01*
X13844348Y-13900865D02*
X13825301Y-13910389D01*
X13825301Y-13910389D02*
X13796729Y-13910389D01*
X13977682Y-13910389D02*
X13958634Y-13900865D01*
X13958634Y-13900865D02*
X13949110Y-13881817D01*
X13949110Y-13881817D02*
X13949110Y-13710389D01*
X14130063Y-13900865D02*
X14111015Y-13910389D01*
X14111015Y-13910389D02*
X14072920Y-13910389D01*
X14072920Y-13910389D02*
X14053872Y-13900865D01*
X14053872Y-13900865D02*
X14044348Y-13881817D01*
X14044348Y-13881817D02*
X14044348Y-13805627D01*
X14044348Y-13805627D02*
X14053872Y-13786579D01*
X14053872Y-13786579D02*
X14072920Y-13777055D01*
X14072920Y-13777055D02*
X14111015Y-13777055D01*
X14111015Y-13777055D02*
X14130063Y-13786579D01*
X14130063Y-13786579D02*
X14139586Y-13805627D01*
X14139586Y-13805627D02*
X14139586Y-13824674D01*
X14139586Y-13824674D02*
X14044348Y-13843722D01*
X14215777Y-13900865D02*
X14234825Y-13910389D01*
X14234825Y-13910389D02*
X14272920Y-13910389D01*
X14272920Y-13910389D02*
X14291967Y-13900865D01*
X14291967Y-13900865D02*
X14301491Y-13881817D01*
X14301491Y-13881817D02*
X14301491Y-13872293D01*
X14301491Y-13872293D02*
X14291967Y-13853246D01*
X14291967Y-13853246D02*
X14272920Y-13843722D01*
X14272920Y-13843722D02*
X14244348Y-13843722D01*
X14244348Y-13843722D02*
X14225301Y-13834198D01*
X14225301Y-13834198D02*
X14215777Y-13815151D01*
X14215777Y-13815151D02*
X14215777Y-13805627D01*
X14215777Y-13805627D02*
X14225301Y-13786579D01*
X14225301Y-13786579D02*
X14244348Y-13777055D01*
X14244348Y-13777055D02*
X14272920Y-13777055D01*
X14272920Y-13777055D02*
X14291967Y-13786579D01*
X14368158Y-13986579D02*
X14377682Y-13977055D01*
X14377682Y-13977055D02*
X14396729Y-13948484D01*
X14396729Y-13948484D02*
X14406253Y-13929436D01*
X14406253Y-13929436D02*
X14415777Y-13900865D01*
X14415777Y-13900865D02*
X14425301Y-13853246D01*
X14425301Y-13853246D02*
X14425301Y-13815151D01*
X14425301Y-13815151D02*
X14415777Y-13767532D01*
X14415777Y-13767532D02*
X14406253Y-13738960D01*
X14406253Y-13738960D02*
X14396729Y-13719913D01*
X14396729Y-13719913D02*
X14377682Y-13691341D01*
X14377682Y-13691341D02*
X14368158Y-13681817D01*
D14*
X9518095Y-14157905D02*
X9593095Y-14082905D01*
X9518095Y-14007905D01*
X9443095Y-14082905D01*
X9518095Y-14157905D01*
D11*
X9958634Y-14174389D02*
X9844348Y-14174389D01*
X9901491Y-14174389D02*
X9901491Y-13974389D01*
X9901491Y-13974389D02*
X9882443Y-14002960D01*
X9882443Y-14002960D02*
X9863396Y-14022008D01*
X9863396Y-14022008D02*
X9844348Y-14031532D01*
X10044348Y-14155341D02*
X10053872Y-14164865D01*
X10053872Y-14164865D02*
X10044348Y-14174389D01*
X10044348Y-14174389D02*
X10034824Y-14164865D01*
X10034824Y-14164865D02*
X10044348Y-14155341D01*
X10044348Y-14155341D02*
X10044348Y-14174389D01*
X10234824Y-13974389D02*
X10139586Y-13974389D01*
X10139586Y-13974389D02*
X10130062Y-14069627D01*
X10130062Y-14069627D02*
X10139586Y-14060103D01*
X10139586Y-14060103D02*
X10158634Y-14050579D01*
X10158634Y-14050579D02*
X10206253Y-14050579D01*
X10206253Y-14050579D02*
X10225300Y-14060103D01*
X10225300Y-14060103D02*
X10234824Y-14069627D01*
X10234824Y-14069627D02*
X10244348Y-14088674D01*
X10244348Y-14088674D02*
X10244348Y-14136293D01*
X10244348Y-14136293D02*
X10234824Y-14155341D01*
X10234824Y-14155341D02*
X10225300Y-14164865D01*
X10225300Y-14164865D02*
X10206253Y-14174389D01*
X10206253Y-14174389D02*
X10158634Y-14174389D01*
X10158634Y-14174389D02*
X10139586Y-14164865D01*
X10139586Y-14164865D02*
X10130062Y-14155341D01*
X10368158Y-13974389D02*
X10387205Y-13974389D01*
X10387205Y-13974389D02*
X10406253Y-13983913D01*
X10406253Y-13983913D02*
X10415777Y-13993436D01*
X10415777Y-13993436D02*
X10425300Y-14012484D01*
X10425300Y-14012484D02*
X10434824Y-14050579D01*
X10434824Y-14050579D02*
X10434824Y-14098198D01*
X10434824Y-14098198D02*
X10425300Y-14136293D01*
X10425300Y-14136293D02*
X10415777Y-14155341D01*
X10415777Y-14155341D02*
X10406253Y-14164865D01*
X10406253Y-14164865D02*
X10387205Y-14174389D01*
X10387205Y-14174389D02*
X10368158Y-14174389D01*
X10368158Y-14174389D02*
X10349110Y-14164865D01*
X10349110Y-14164865D02*
X10339586Y-14155341D01*
X10339586Y-14155341D02*
X10330062Y-14136293D01*
X10330062Y-14136293D02*
X10320539Y-14098198D01*
X10320539Y-14098198D02*
X10320539Y-14050579D01*
X10320539Y-14050579D02*
X10330062Y-14012484D01*
X10330062Y-14012484D02*
X10339586Y-13993436D01*
X10339586Y-13993436D02*
X10349110Y-13983913D01*
X10349110Y-13983913D02*
X10368158Y-13974389D01*
X10558634Y-13974389D02*
X10577681Y-13974389D01*
X10577681Y-13974389D02*
X10596729Y-13983913D01*
X10596729Y-13983913D02*
X10606253Y-13993436D01*
X10606253Y-13993436D02*
X10615777Y-14012484D01*
X10615777Y-14012484D02*
X10625300Y-14050579D01*
X10625300Y-14050579D02*
X10625300Y-14098198D01*
X10625300Y-14098198D02*
X10615777Y-14136293D01*
X10615777Y-14136293D02*
X10606253Y-14155341D01*
X10606253Y-14155341D02*
X10596729Y-14164865D01*
X10596729Y-14164865D02*
X10577681Y-14174389D01*
X10577681Y-14174389D02*
X10558634Y-14174389D01*
X10558634Y-14174389D02*
X10539586Y-14164865D01*
X10539586Y-14164865D02*
X10530062Y-14155341D01*
X10530062Y-14155341D02*
X10520539Y-14136293D01*
X10520539Y-14136293D02*
X10511015Y-14098198D01*
X10511015Y-14098198D02*
X10511015Y-14050579D01*
X10511015Y-14050579D02*
X10520539Y-14012484D01*
X10520539Y-14012484D02*
X10530062Y-13993436D01*
X10530062Y-13993436D02*
X10539586Y-13983913D01*
X10539586Y-13983913D02*
X10558634Y-13974389D01*
X10711015Y-14174389D02*
X10711015Y-14041055D01*
X10711015Y-14060103D02*
X10720539Y-14050579D01*
X10720539Y-14050579D02*
X10739586Y-14041055D01*
X10739586Y-14041055D02*
X10768158Y-14041055D01*
X10768158Y-14041055D02*
X10787205Y-14050579D01*
X10787205Y-14050579D02*
X10796729Y-14069627D01*
X10796729Y-14069627D02*
X10796729Y-14174389D01*
X10796729Y-14069627D02*
X10806253Y-14050579D01*
X10806253Y-14050579D02*
X10825300Y-14041055D01*
X10825300Y-14041055D02*
X10853872Y-14041055D01*
X10853872Y-14041055D02*
X10872920Y-14050579D01*
X10872920Y-14050579D02*
X10882443Y-14069627D01*
X10882443Y-14069627D02*
X10882443Y-14174389D01*
X10977681Y-14174389D02*
X10977681Y-14041055D01*
X10977681Y-14060103D02*
X10987205Y-14050579D01*
X10987205Y-14050579D02*
X11006253Y-14041055D01*
X11006253Y-14041055D02*
X11034824Y-14041055D01*
X11034824Y-14041055D02*
X11053872Y-14050579D01*
X11053872Y-14050579D02*
X11063396Y-14069627D01*
X11063396Y-14069627D02*
X11063396Y-14174389D01*
X11063396Y-14069627D02*
X11072920Y-14050579D01*
X11072920Y-14050579D02*
X11091967Y-14041055D01*
X11091967Y-14041055D02*
X11120539Y-14041055D01*
X11120539Y-14041055D02*
X11139586Y-14050579D01*
X11139586Y-14050579D02*
X11149110Y-14069627D01*
X11149110Y-14069627D02*
X11149110Y-14174389D01*
X11539586Y-13964865D02*
X11368158Y-14222008D01*
X11796729Y-13974389D02*
X11815777Y-13974389D01*
X11815777Y-13974389D02*
X11834824Y-13983913D01*
X11834824Y-13983913D02*
X11844348Y-13993436D01*
X11844348Y-13993436D02*
X11853872Y-14012484D01*
X11853872Y-14012484D02*
X11863396Y-14050579D01*
X11863396Y-14050579D02*
X11863396Y-14098198D01*
X11863396Y-14098198D02*
X11853872Y-14136293D01*
X11853872Y-14136293D02*
X11844348Y-14155341D01*
X11844348Y-14155341D02*
X11834824Y-14164865D01*
X11834824Y-14164865D02*
X11815777Y-14174389D01*
X11815777Y-14174389D02*
X11796729Y-14174389D01*
X11796729Y-14174389D02*
X11777681Y-14164865D01*
X11777681Y-14164865D02*
X11768158Y-14155341D01*
X11768158Y-14155341D02*
X11758634Y-14136293D01*
X11758634Y-14136293D02*
X11749110Y-14098198D01*
X11749110Y-14098198D02*
X11749110Y-14050579D01*
X11749110Y-14050579D02*
X11758634Y-14012484D01*
X11758634Y-14012484D02*
X11768158Y-13993436D01*
X11768158Y-13993436D02*
X11777681Y-13983913D01*
X11777681Y-13983913D02*
X11796729Y-13974389D01*
X11949110Y-14155341D02*
X11958634Y-14164865D01*
X11958634Y-14164865D02*
X11949110Y-14174389D01*
X11949110Y-14174389D02*
X11939586Y-14164865D01*
X11939586Y-14164865D02*
X11949110Y-14155341D01*
X11949110Y-14155341D02*
X11949110Y-14174389D01*
X12082443Y-13974389D02*
X12101491Y-13974389D01*
X12101491Y-13974389D02*
X12120539Y-13983913D01*
X12120539Y-13983913D02*
X12130062Y-13993436D01*
X12130062Y-13993436D02*
X12139586Y-14012484D01*
X12139586Y-14012484D02*
X12149110Y-14050579D01*
X12149110Y-14050579D02*
X12149110Y-14098198D01*
X12149110Y-14098198D02*
X12139586Y-14136293D01*
X12139586Y-14136293D02*
X12130062Y-14155341D01*
X12130062Y-14155341D02*
X12120539Y-14164865D01*
X12120539Y-14164865D02*
X12101491Y-14174389D01*
X12101491Y-14174389D02*
X12082443Y-14174389D01*
X12082443Y-14174389D02*
X12063396Y-14164865D01*
X12063396Y-14164865D02*
X12053872Y-14155341D01*
X12053872Y-14155341D02*
X12044348Y-14136293D01*
X12044348Y-14136293D02*
X12034824Y-14098198D01*
X12034824Y-14098198D02*
X12034824Y-14050579D01*
X12034824Y-14050579D02*
X12044348Y-14012484D01*
X12044348Y-14012484D02*
X12053872Y-13993436D01*
X12053872Y-13993436D02*
X12063396Y-13983913D01*
X12063396Y-13983913D02*
X12082443Y-13974389D01*
X12330062Y-13974389D02*
X12234824Y-13974389D01*
X12234824Y-13974389D02*
X12225301Y-14069627D01*
X12225301Y-14069627D02*
X12234824Y-14060103D01*
X12234824Y-14060103D02*
X12253872Y-14050579D01*
X12253872Y-14050579D02*
X12301491Y-14050579D01*
X12301491Y-14050579D02*
X12320539Y-14060103D01*
X12320539Y-14060103D02*
X12330062Y-14069627D01*
X12330062Y-14069627D02*
X12339586Y-14088674D01*
X12339586Y-14088674D02*
X12339586Y-14136293D01*
X12339586Y-14136293D02*
X12330062Y-14155341D01*
X12330062Y-14155341D02*
X12320539Y-14164865D01*
X12320539Y-14164865D02*
X12301491Y-14174389D01*
X12301491Y-14174389D02*
X12253872Y-14174389D01*
X12253872Y-14174389D02*
X12234824Y-14164865D01*
X12234824Y-14164865D02*
X12225301Y-14155341D01*
X12434824Y-14174389D02*
X12472920Y-14174389D01*
X12472920Y-14174389D02*
X12491967Y-14164865D01*
X12491967Y-14164865D02*
X12501491Y-14155341D01*
X12501491Y-14155341D02*
X12520539Y-14126770D01*
X12520539Y-14126770D02*
X12530062Y-14088674D01*
X12530062Y-14088674D02*
X12530062Y-14012484D01*
X12530062Y-14012484D02*
X12520539Y-13993436D01*
X12520539Y-13993436D02*
X12511015Y-13983913D01*
X12511015Y-13983913D02*
X12491967Y-13974389D01*
X12491967Y-13974389D02*
X12453872Y-13974389D01*
X12453872Y-13974389D02*
X12434824Y-13983913D01*
X12434824Y-13983913D02*
X12425301Y-13993436D01*
X12425301Y-13993436D02*
X12415777Y-14012484D01*
X12415777Y-14012484D02*
X12415777Y-14060103D01*
X12415777Y-14060103D02*
X12425301Y-14079151D01*
X12425301Y-14079151D02*
X12434824Y-14088674D01*
X12434824Y-14088674D02*
X12453872Y-14098198D01*
X12453872Y-14098198D02*
X12491967Y-14098198D01*
X12491967Y-14098198D02*
X12511015Y-14088674D01*
X12511015Y-14088674D02*
X12520539Y-14079151D01*
X12520539Y-14079151D02*
X12530062Y-14060103D01*
X12720539Y-14174389D02*
X12606253Y-14174389D01*
X12663396Y-14174389D02*
X12663396Y-13974389D01*
X12663396Y-13974389D02*
X12644348Y-14002960D01*
X12644348Y-14002960D02*
X12625301Y-14022008D01*
X12625301Y-14022008D02*
X12606253Y-14031532D01*
X12796729Y-13974389D02*
X12796729Y-14012484D01*
X12872920Y-13974389D02*
X12872920Y-14012484D01*
X13168158Y-14250579D02*
X13158634Y-14241055D01*
X13158634Y-14241055D02*
X13139586Y-14212484D01*
X13139586Y-14212484D02*
X13130063Y-14193436D01*
X13130063Y-14193436D02*
X13120539Y-14164865D01*
X13120539Y-14164865D02*
X13111015Y-14117246D01*
X13111015Y-14117246D02*
X13111015Y-14079151D01*
X13111015Y-14079151D02*
X13120539Y-14031532D01*
X13120539Y-14031532D02*
X13130063Y-14002960D01*
X13130063Y-14002960D02*
X13139586Y-13983913D01*
X13139586Y-13983913D02*
X13158634Y-13955341D01*
X13158634Y-13955341D02*
X13168158Y-13945817D01*
X13234824Y-13993436D02*
X13244348Y-13983913D01*
X13244348Y-13983913D02*
X13263396Y-13974389D01*
X13263396Y-13974389D02*
X13311015Y-13974389D01*
X13311015Y-13974389D02*
X13330063Y-13983913D01*
X13330063Y-13983913D02*
X13339586Y-13993436D01*
X13339586Y-13993436D02*
X13349110Y-14012484D01*
X13349110Y-14012484D02*
X13349110Y-14031532D01*
X13349110Y-14031532D02*
X13339586Y-14060103D01*
X13339586Y-14060103D02*
X13225301Y-14174389D01*
X13225301Y-14174389D02*
X13349110Y-14174389D01*
X13587205Y-14174389D02*
X13587205Y-13974389D01*
X13672920Y-14174389D02*
X13672920Y-14069627D01*
X13672920Y-14069627D02*
X13663396Y-14050579D01*
X13663396Y-14050579D02*
X13644348Y-14041055D01*
X13644348Y-14041055D02*
X13615777Y-14041055D01*
X13615777Y-14041055D02*
X13596729Y-14050579D01*
X13596729Y-14050579D02*
X13587205Y-14060103D01*
X13796729Y-14174389D02*
X13777682Y-14164865D01*
X13777682Y-14164865D02*
X13768158Y-14155341D01*
X13768158Y-14155341D02*
X13758634Y-14136293D01*
X13758634Y-14136293D02*
X13758634Y-14079151D01*
X13758634Y-14079151D02*
X13768158Y-14060103D01*
X13768158Y-14060103D02*
X13777682Y-14050579D01*
X13777682Y-14050579D02*
X13796729Y-14041055D01*
X13796729Y-14041055D02*
X13825301Y-14041055D01*
X13825301Y-14041055D02*
X13844348Y-14050579D01*
X13844348Y-14050579D02*
X13853872Y-14060103D01*
X13853872Y-14060103D02*
X13863396Y-14079151D01*
X13863396Y-14079151D02*
X13863396Y-14136293D01*
X13863396Y-14136293D02*
X13853872Y-14155341D01*
X13853872Y-14155341D02*
X13844348Y-14164865D01*
X13844348Y-14164865D02*
X13825301Y-14174389D01*
X13825301Y-14174389D02*
X13796729Y-14174389D01*
X13977682Y-14174389D02*
X13958634Y-14164865D01*
X13958634Y-14164865D02*
X13949110Y-14145817D01*
X13949110Y-14145817D02*
X13949110Y-13974389D01*
X14130063Y-14164865D02*
X14111015Y-14174389D01*
X14111015Y-14174389D02*
X14072920Y-14174389D01*
X14072920Y-14174389D02*
X14053872Y-14164865D01*
X14053872Y-14164865D02*
X14044348Y-14145817D01*
X14044348Y-14145817D02*
X14044348Y-14069627D01*
X14044348Y-14069627D02*
X14053872Y-14050579D01*
X14053872Y-14050579D02*
X14072920Y-14041055D01*
X14072920Y-14041055D02*
X14111015Y-14041055D01*
X14111015Y-14041055D02*
X14130063Y-14050579D01*
X14130063Y-14050579D02*
X14139586Y-14069627D01*
X14139586Y-14069627D02*
X14139586Y-14088674D01*
X14139586Y-14088674D02*
X14044348Y-14107722D01*
X14215777Y-14164865D02*
X14234825Y-14174389D01*
X14234825Y-14174389D02*
X14272920Y-14174389D01*
X14272920Y-14174389D02*
X14291967Y-14164865D01*
X14291967Y-14164865D02*
X14301491Y-14145817D01*
X14301491Y-14145817D02*
X14301491Y-14136293D01*
X14301491Y-14136293D02*
X14291967Y-14117246D01*
X14291967Y-14117246D02*
X14272920Y-14107722D01*
X14272920Y-14107722D02*
X14244348Y-14107722D01*
X14244348Y-14107722D02*
X14225301Y-14098198D01*
X14225301Y-14098198D02*
X14215777Y-14079151D01*
X14215777Y-14079151D02*
X14215777Y-14069627D01*
X14215777Y-14069627D02*
X14225301Y-14050579D01*
X14225301Y-14050579D02*
X14244348Y-14041055D01*
X14244348Y-14041055D02*
X14272920Y-14041055D01*
X14272920Y-14041055D02*
X14291967Y-14050579D01*
X14368158Y-14250579D02*
X14377682Y-14241055D01*
X14377682Y-14241055D02*
X14396729Y-14212484D01*
X14396729Y-14212484D02*
X14406253Y-14193436D01*
X14406253Y-14193436D02*
X14415777Y-14164865D01*
X14415777Y-14164865D02*
X14425301Y-14117246D01*
X14425301Y-14117246D02*
X14425301Y-14079151D01*
X14425301Y-14079151D02*
X14415777Y-14031532D01*
X14415777Y-14031532D02*
X14406253Y-14002960D01*
X14406253Y-14002960D02*
X14396729Y-13983913D01*
X14396729Y-13983913D02*
X14377682Y-13955341D01*
X14377682Y-13955341D02*
X14368158Y-13945817D01*
D15*
X9431095Y-14271905D02*
X9593095Y-14433905D01*
X9593095Y-14271905D02*
X9431095Y-14433905D01*
X9593095Y-14352905D02*
G75*
G03*
X9431095Y-14352905I-81000J0D01*
G01*
X9431095Y-14352905D02*
G75*
G03*
X9593095Y-14352905I81000J0D01*
G01*
D11*
X9958634Y-14444389D02*
X9844348Y-14444389D01*
X9901491Y-14444389D02*
X9901491Y-14244389D01*
X9901491Y-14244389D02*
X9882443Y-14272960D01*
X9882443Y-14272960D02*
X9863396Y-14292008D01*
X9863396Y-14292008D02*
X9844348Y-14301532D01*
X10044348Y-14425341D02*
X10053872Y-14434865D01*
X10053872Y-14434865D02*
X10044348Y-14444389D01*
X10044348Y-14444389D02*
X10034824Y-14434865D01*
X10034824Y-14434865D02*
X10044348Y-14425341D01*
X10044348Y-14425341D02*
X10044348Y-14444389D01*
X10225300Y-14244389D02*
X10187205Y-14244389D01*
X10187205Y-14244389D02*
X10168158Y-14253913D01*
X10168158Y-14253913D02*
X10158634Y-14263436D01*
X10158634Y-14263436D02*
X10139586Y-14292008D01*
X10139586Y-14292008D02*
X10130062Y-14330103D01*
X10130062Y-14330103D02*
X10130062Y-14406293D01*
X10130062Y-14406293D02*
X10139586Y-14425341D01*
X10139586Y-14425341D02*
X10149110Y-14434865D01*
X10149110Y-14434865D02*
X10168158Y-14444389D01*
X10168158Y-14444389D02*
X10206253Y-14444389D01*
X10206253Y-14444389D02*
X10225300Y-14434865D01*
X10225300Y-14434865D02*
X10234824Y-14425341D01*
X10234824Y-14425341D02*
X10244348Y-14406293D01*
X10244348Y-14406293D02*
X10244348Y-14358674D01*
X10244348Y-14358674D02*
X10234824Y-14339627D01*
X10234824Y-14339627D02*
X10225300Y-14330103D01*
X10225300Y-14330103D02*
X10206253Y-14320579D01*
X10206253Y-14320579D02*
X10168158Y-14320579D01*
X10168158Y-14320579D02*
X10149110Y-14330103D01*
X10149110Y-14330103D02*
X10139586Y-14339627D01*
X10139586Y-14339627D02*
X10130062Y-14358674D01*
X10320539Y-14263436D02*
X10330062Y-14253913D01*
X10330062Y-14253913D02*
X10349110Y-14244389D01*
X10349110Y-14244389D02*
X10396729Y-14244389D01*
X10396729Y-14244389D02*
X10415777Y-14253913D01*
X10415777Y-14253913D02*
X10425300Y-14263436D01*
X10425300Y-14263436D02*
X10434824Y-14282484D01*
X10434824Y-14282484D02*
X10434824Y-14301532D01*
X10434824Y-14301532D02*
X10425300Y-14330103D01*
X10425300Y-14330103D02*
X10311015Y-14444389D01*
X10311015Y-14444389D02*
X10434824Y-14444389D01*
X10558634Y-14244389D02*
X10577681Y-14244389D01*
X10577681Y-14244389D02*
X10596729Y-14253913D01*
X10596729Y-14253913D02*
X10606253Y-14263436D01*
X10606253Y-14263436D02*
X10615777Y-14282484D01*
X10615777Y-14282484D02*
X10625300Y-14320579D01*
X10625300Y-14320579D02*
X10625300Y-14368198D01*
X10625300Y-14368198D02*
X10615777Y-14406293D01*
X10615777Y-14406293D02*
X10606253Y-14425341D01*
X10606253Y-14425341D02*
X10596729Y-14434865D01*
X10596729Y-14434865D02*
X10577681Y-14444389D01*
X10577681Y-14444389D02*
X10558634Y-14444389D01*
X10558634Y-14444389D02*
X10539586Y-14434865D01*
X10539586Y-14434865D02*
X10530062Y-14425341D01*
X10530062Y-14425341D02*
X10520539Y-14406293D01*
X10520539Y-14406293D02*
X10511015Y-14368198D01*
X10511015Y-14368198D02*
X10511015Y-14320579D01*
X10511015Y-14320579D02*
X10520539Y-14282484D01*
X10520539Y-14282484D02*
X10530062Y-14263436D01*
X10530062Y-14263436D02*
X10539586Y-14253913D01*
X10539586Y-14253913D02*
X10558634Y-14244389D01*
X10711015Y-14444389D02*
X10711015Y-14311055D01*
X10711015Y-14330103D02*
X10720539Y-14320579D01*
X10720539Y-14320579D02*
X10739586Y-14311055D01*
X10739586Y-14311055D02*
X10768158Y-14311055D01*
X10768158Y-14311055D02*
X10787205Y-14320579D01*
X10787205Y-14320579D02*
X10796729Y-14339627D01*
X10796729Y-14339627D02*
X10796729Y-14444389D01*
X10796729Y-14339627D02*
X10806253Y-14320579D01*
X10806253Y-14320579D02*
X10825300Y-14311055D01*
X10825300Y-14311055D02*
X10853872Y-14311055D01*
X10853872Y-14311055D02*
X10872920Y-14320579D01*
X10872920Y-14320579D02*
X10882443Y-14339627D01*
X10882443Y-14339627D02*
X10882443Y-14444389D01*
X10977681Y-14444389D02*
X10977681Y-14311055D01*
X10977681Y-14330103D02*
X10987205Y-14320579D01*
X10987205Y-14320579D02*
X11006253Y-14311055D01*
X11006253Y-14311055D02*
X11034824Y-14311055D01*
X11034824Y-14311055D02*
X11053872Y-14320579D01*
X11053872Y-14320579D02*
X11063396Y-14339627D01*
X11063396Y-14339627D02*
X11063396Y-14444389D01*
X11063396Y-14339627D02*
X11072920Y-14320579D01*
X11072920Y-14320579D02*
X11091967Y-14311055D01*
X11091967Y-14311055D02*
X11120539Y-14311055D01*
X11120539Y-14311055D02*
X11139586Y-14320579D01*
X11139586Y-14320579D02*
X11149110Y-14339627D01*
X11149110Y-14339627D02*
X11149110Y-14444389D01*
X11539586Y-14234865D02*
X11368158Y-14492008D01*
X11796729Y-14244389D02*
X11815777Y-14244389D01*
X11815777Y-14244389D02*
X11834824Y-14253913D01*
X11834824Y-14253913D02*
X11844348Y-14263436D01*
X11844348Y-14263436D02*
X11853872Y-14282484D01*
X11853872Y-14282484D02*
X11863396Y-14320579D01*
X11863396Y-14320579D02*
X11863396Y-14368198D01*
X11863396Y-14368198D02*
X11853872Y-14406293D01*
X11853872Y-14406293D02*
X11844348Y-14425341D01*
X11844348Y-14425341D02*
X11834824Y-14434865D01*
X11834824Y-14434865D02*
X11815777Y-14444389D01*
X11815777Y-14444389D02*
X11796729Y-14444389D01*
X11796729Y-14444389D02*
X11777681Y-14434865D01*
X11777681Y-14434865D02*
X11768158Y-14425341D01*
X11768158Y-14425341D02*
X11758634Y-14406293D01*
X11758634Y-14406293D02*
X11749110Y-14368198D01*
X11749110Y-14368198D02*
X11749110Y-14320579D01*
X11749110Y-14320579D02*
X11758634Y-14282484D01*
X11758634Y-14282484D02*
X11768158Y-14263436D01*
X11768158Y-14263436D02*
X11777681Y-14253913D01*
X11777681Y-14253913D02*
X11796729Y-14244389D01*
X11949110Y-14425341D02*
X11958634Y-14434865D01*
X11958634Y-14434865D02*
X11949110Y-14444389D01*
X11949110Y-14444389D02*
X11939586Y-14434865D01*
X11939586Y-14434865D02*
X11949110Y-14425341D01*
X11949110Y-14425341D02*
X11949110Y-14444389D01*
X12082443Y-14244389D02*
X12101491Y-14244389D01*
X12101491Y-14244389D02*
X12120539Y-14253913D01*
X12120539Y-14253913D02*
X12130062Y-14263436D01*
X12130062Y-14263436D02*
X12139586Y-14282484D01*
X12139586Y-14282484D02*
X12149110Y-14320579D01*
X12149110Y-14320579D02*
X12149110Y-14368198D01*
X12149110Y-14368198D02*
X12139586Y-14406293D01*
X12139586Y-14406293D02*
X12130062Y-14425341D01*
X12130062Y-14425341D02*
X12120539Y-14434865D01*
X12120539Y-14434865D02*
X12101491Y-14444389D01*
X12101491Y-14444389D02*
X12082443Y-14444389D01*
X12082443Y-14444389D02*
X12063396Y-14434865D01*
X12063396Y-14434865D02*
X12053872Y-14425341D01*
X12053872Y-14425341D02*
X12044348Y-14406293D01*
X12044348Y-14406293D02*
X12034824Y-14368198D01*
X12034824Y-14368198D02*
X12034824Y-14320579D01*
X12034824Y-14320579D02*
X12044348Y-14282484D01*
X12044348Y-14282484D02*
X12053872Y-14263436D01*
X12053872Y-14263436D02*
X12063396Y-14253913D01*
X12063396Y-14253913D02*
X12082443Y-14244389D01*
X12320539Y-14244389D02*
X12282443Y-14244389D01*
X12282443Y-14244389D02*
X12263396Y-14253913D01*
X12263396Y-14253913D02*
X12253872Y-14263436D01*
X12253872Y-14263436D02*
X12234824Y-14292008D01*
X12234824Y-14292008D02*
X12225301Y-14330103D01*
X12225301Y-14330103D02*
X12225301Y-14406293D01*
X12225301Y-14406293D02*
X12234824Y-14425341D01*
X12234824Y-14425341D02*
X12244348Y-14434865D01*
X12244348Y-14434865D02*
X12263396Y-14444389D01*
X12263396Y-14444389D02*
X12301491Y-14444389D01*
X12301491Y-14444389D02*
X12320539Y-14434865D01*
X12320539Y-14434865D02*
X12330062Y-14425341D01*
X12330062Y-14425341D02*
X12339586Y-14406293D01*
X12339586Y-14406293D02*
X12339586Y-14358674D01*
X12339586Y-14358674D02*
X12330062Y-14339627D01*
X12330062Y-14339627D02*
X12320539Y-14330103D01*
X12320539Y-14330103D02*
X12301491Y-14320579D01*
X12301491Y-14320579D02*
X12263396Y-14320579D01*
X12263396Y-14320579D02*
X12244348Y-14330103D01*
X12244348Y-14330103D02*
X12234824Y-14339627D01*
X12234824Y-14339627D02*
X12225301Y-14358674D01*
X12406253Y-14244389D02*
X12530062Y-14244389D01*
X12530062Y-14244389D02*
X12463396Y-14320579D01*
X12463396Y-14320579D02*
X12491967Y-14320579D01*
X12491967Y-14320579D02*
X12511015Y-14330103D01*
X12511015Y-14330103D02*
X12520539Y-14339627D01*
X12520539Y-14339627D02*
X12530062Y-14358674D01*
X12530062Y-14358674D02*
X12530062Y-14406293D01*
X12530062Y-14406293D02*
X12520539Y-14425341D01*
X12520539Y-14425341D02*
X12511015Y-14434865D01*
X12511015Y-14434865D02*
X12491967Y-14444389D01*
X12491967Y-14444389D02*
X12434824Y-14444389D01*
X12434824Y-14444389D02*
X12415777Y-14434865D01*
X12415777Y-14434865D02*
X12406253Y-14425341D01*
X12644348Y-14330103D02*
X12625301Y-14320579D01*
X12625301Y-14320579D02*
X12615777Y-14311055D01*
X12615777Y-14311055D02*
X12606253Y-14292008D01*
X12606253Y-14292008D02*
X12606253Y-14282484D01*
X12606253Y-14282484D02*
X12615777Y-14263436D01*
X12615777Y-14263436D02*
X12625301Y-14253913D01*
X12625301Y-14253913D02*
X12644348Y-14244389D01*
X12644348Y-14244389D02*
X12682443Y-14244389D01*
X12682443Y-14244389D02*
X12701491Y-14253913D01*
X12701491Y-14253913D02*
X12711015Y-14263436D01*
X12711015Y-14263436D02*
X12720539Y-14282484D01*
X12720539Y-14282484D02*
X12720539Y-14292008D01*
X12720539Y-14292008D02*
X12711015Y-14311055D01*
X12711015Y-14311055D02*
X12701491Y-14320579D01*
X12701491Y-14320579D02*
X12682443Y-14330103D01*
X12682443Y-14330103D02*
X12644348Y-14330103D01*
X12644348Y-14330103D02*
X12625301Y-14339627D01*
X12625301Y-14339627D02*
X12615777Y-14349151D01*
X12615777Y-14349151D02*
X12606253Y-14368198D01*
X12606253Y-14368198D02*
X12606253Y-14406293D01*
X12606253Y-14406293D02*
X12615777Y-14425341D01*
X12615777Y-14425341D02*
X12625301Y-14434865D01*
X12625301Y-14434865D02*
X12644348Y-14444389D01*
X12644348Y-14444389D02*
X12682443Y-14444389D01*
X12682443Y-14444389D02*
X12701491Y-14434865D01*
X12701491Y-14434865D02*
X12711015Y-14425341D01*
X12711015Y-14425341D02*
X12720539Y-14406293D01*
X12720539Y-14406293D02*
X12720539Y-14368198D01*
X12720539Y-14368198D02*
X12711015Y-14349151D01*
X12711015Y-14349151D02*
X12701491Y-14339627D01*
X12701491Y-14339627D02*
X12682443Y-14330103D01*
X12796729Y-14244389D02*
X12796729Y-14282484D01*
X12872920Y-14244389D02*
X12872920Y-14282484D01*
X13168158Y-14520579D02*
X13158634Y-14511055D01*
X13158634Y-14511055D02*
X13139586Y-14482484D01*
X13139586Y-14482484D02*
X13130063Y-14463436D01*
X13130063Y-14463436D02*
X13120539Y-14434865D01*
X13120539Y-14434865D02*
X13111015Y-14387246D01*
X13111015Y-14387246D02*
X13111015Y-14349151D01*
X13111015Y-14349151D02*
X13120539Y-14301532D01*
X13120539Y-14301532D02*
X13130063Y-14272960D01*
X13130063Y-14272960D02*
X13139586Y-14253913D01*
X13139586Y-14253913D02*
X13158634Y-14225341D01*
X13158634Y-14225341D02*
X13168158Y-14215817D01*
X13234824Y-14263436D02*
X13244348Y-14253913D01*
X13244348Y-14253913D02*
X13263396Y-14244389D01*
X13263396Y-14244389D02*
X13311015Y-14244389D01*
X13311015Y-14244389D02*
X13330063Y-14253913D01*
X13330063Y-14253913D02*
X13339586Y-14263436D01*
X13339586Y-14263436D02*
X13349110Y-14282484D01*
X13349110Y-14282484D02*
X13349110Y-14301532D01*
X13349110Y-14301532D02*
X13339586Y-14330103D01*
X13339586Y-14330103D02*
X13225301Y-14444389D01*
X13225301Y-14444389D02*
X13349110Y-14444389D01*
X13587205Y-14444389D02*
X13587205Y-14244389D01*
X13672920Y-14444389D02*
X13672920Y-14339627D01*
X13672920Y-14339627D02*
X13663396Y-14320579D01*
X13663396Y-14320579D02*
X13644348Y-14311055D01*
X13644348Y-14311055D02*
X13615777Y-14311055D01*
X13615777Y-14311055D02*
X13596729Y-14320579D01*
X13596729Y-14320579D02*
X13587205Y-14330103D01*
X13796729Y-14444389D02*
X13777682Y-14434865D01*
X13777682Y-14434865D02*
X13768158Y-14425341D01*
X13768158Y-14425341D02*
X13758634Y-14406293D01*
X13758634Y-14406293D02*
X13758634Y-14349151D01*
X13758634Y-14349151D02*
X13768158Y-14330103D01*
X13768158Y-14330103D02*
X13777682Y-14320579D01*
X13777682Y-14320579D02*
X13796729Y-14311055D01*
X13796729Y-14311055D02*
X13825301Y-14311055D01*
X13825301Y-14311055D02*
X13844348Y-14320579D01*
X13844348Y-14320579D02*
X13853872Y-14330103D01*
X13853872Y-14330103D02*
X13863396Y-14349151D01*
X13863396Y-14349151D02*
X13863396Y-14406293D01*
X13863396Y-14406293D02*
X13853872Y-14425341D01*
X13853872Y-14425341D02*
X13844348Y-14434865D01*
X13844348Y-14434865D02*
X13825301Y-14444389D01*
X13825301Y-14444389D02*
X13796729Y-14444389D01*
X13977682Y-14444389D02*
X13958634Y-14434865D01*
X13958634Y-14434865D02*
X13949110Y-14415817D01*
X13949110Y-14415817D02*
X13949110Y-14244389D01*
X14130063Y-14434865D02*
X14111015Y-14444389D01*
X14111015Y-14444389D02*
X14072920Y-14444389D01*
X14072920Y-14444389D02*
X14053872Y-14434865D01*
X14053872Y-14434865D02*
X14044348Y-14415817D01*
X14044348Y-14415817D02*
X14044348Y-14339627D01*
X14044348Y-14339627D02*
X14053872Y-14320579D01*
X14053872Y-14320579D02*
X14072920Y-14311055D01*
X14072920Y-14311055D02*
X14111015Y-14311055D01*
X14111015Y-14311055D02*
X14130063Y-14320579D01*
X14130063Y-14320579D02*
X14139586Y-14339627D01*
X14139586Y-14339627D02*
X14139586Y-14358674D01*
X14139586Y-14358674D02*
X14044348Y-14377722D01*
X14215777Y-14434865D02*
X14234825Y-14444389D01*
X14234825Y-14444389D02*
X14272920Y-14444389D01*
X14272920Y-14444389D02*
X14291967Y-14434865D01*
X14291967Y-14434865D02*
X14301491Y-14415817D01*
X14301491Y-14415817D02*
X14301491Y-14406293D01*
X14301491Y-14406293D02*
X14291967Y-14387246D01*
X14291967Y-14387246D02*
X14272920Y-14377722D01*
X14272920Y-14377722D02*
X14244348Y-14377722D01*
X14244348Y-14377722D02*
X14225301Y-14368198D01*
X14225301Y-14368198D02*
X14215777Y-14349151D01*
X14215777Y-14349151D02*
X14215777Y-14339627D01*
X14215777Y-14339627D02*
X14225301Y-14320579D01*
X14225301Y-14320579D02*
X14244348Y-14311055D01*
X14244348Y-14311055D02*
X14272920Y-14311055D01*
X14272920Y-14311055D02*
X14291967Y-14320579D01*
X14368158Y-14520579D02*
X14377682Y-14511055D01*
X14377682Y-14511055D02*
X14396729Y-14482484D01*
X14396729Y-14482484D02*
X14406253Y-14463436D01*
X14406253Y-14463436D02*
X14415777Y-14434865D01*
X14415777Y-14434865D02*
X14425301Y-14387246D01*
X14425301Y-14387246D02*
X14425301Y-14349151D01*
X14425301Y-14349151D02*
X14415777Y-14301532D01*
X14415777Y-14301532D02*
X14406253Y-14272960D01*
X14406253Y-14272960D02*
X14396729Y-14253913D01*
X14396729Y-14253913D02*
X14377682Y-14225341D01*
X14377682Y-14225341D02*
X14368158Y-14215817D01*
D16*
X9423095Y-14549905D02*
X9593095Y-14719905D01*
X9593095Y-14549905D02*
X9423095Y-14719905D01*
X9508095Y-14549905D02*
X9508095Y-14719905D01*
X9423095Y-14634905D02*
X9593095Y-14634905D01*
D11*
X9958634Y-14726389D02*
X9844348Y-14726389D01*
X9901491Y-14726389D02*
X9901491Y-14526389D01*
X9901491Y-14526389D02*
X9882443Y-14554960D01*
X9882443Y-14554960D02*
X9863396Y-14574008D01*
X9863396Y-14574008D02*
X9844348Y-14583532D01*
X10044348Y-14707341D02*
X10053872Y-14716865D01*
X10053872Y-14716865D02*
X10044348Y-14726389D01*
X10044348Y-14726389D02*
X10034824Y-14716865D01*
X10034824Y-14716865D02*
X10044348Y-14707341D01*
X10044348Y-14707341D02*
X10044348Y-14726389D01*
X10120539Y-14526389D02*
X10253872Y-14526389D01*
X10253872Y-14526389D02*
X10168158Y-14726389D01*
X10368158Y-14526389D02*
X10387205Y-14526389D01*
X10387205Y-14526389D02*
X10406253Y-14535913D01*
X10406253Y-14535913D02*
X10415777Y-14545436D01*
X10415777Y-14545436D02*
X10425300Y-14564484D01*
X10425300Y-14564484D02*
X10434824Y-14602579D01*
X10434824Y-14602579D02*
X10434824Y-14650198D01*
X10434824Y-14650198D02*
X10425300Y-14688293D01*
X10425300Y-14688293D02*
X10415777Y-14707341D01*
X10415777Y-14707341D02*
X10406253Y-14716865D01*
X10406253Y-14716865D02*
X10387205Y-14726389D01*
X10387205Y-14726389D02*
X10368158Y-14726389D01*
X10368158Y-14726389D02*
X10349110Y-14716865D01*
X10349110Y-14716865D02*
X10339586Y-14707341D01*
X10339586Y-14707341D02*
X10330062Y-14688293D01*
X10330062Y-14688293D02*
X10320539Y-14650198D01*
X10320539Y-14650198D02*
X10320539Y-14602579D01*
X10320539Y-14602579D02*
X10330062Y-14564484D01*
X10330062Y-14564484D02*
X10339586Y-14545436D01*
X10339586Y-14545436D02*
X10349110Y-14535913D01*
X10349110Y-14535913D02*
X10368158Y-14526389D01*
X10558634Y-14526389D02*
X10577681Y-14526389D01*
X10577681Y-14526389D02*
X10596729Y-14535913D01*
X10596729Y-14535913D02*
X10606253Y-14545436D01*
X10606253Y-14545436D02*
X10615777Y-14564484D01*
X10615777Y-14564484D02*
X10625300Y-14602579D01*
X10625300Y-14602579D02*
X10625300Y-14650198D01*
X10625300Y-14650198D02*
X10615777Y-14688293D01*
X10615777Y-14688293D02*
X10606253Y-14707341D01*
X10606253Y-14707341D02*
X10596729Y-14716865D01*
X10596729Y-14716865D02*
X10577681Y-14726389D01*
X10577681Y-14726389D02*
X10558634Y-14726389D01*
X10558634Y-14726389D02*
X10539586Y-14716865D01*
X10539586Y-14716865D02*
X10530062Y-14707341D01*
X10530062Y-14707341D02*
X10520539Y-14688293D01*
X10520539Y-14688293D02*
X10511015Y-14650198D01*
X10511015Y-14650198D02*
X10511015Y-14602579D01*
X10511015Y-14602579D02*
X10520539Y-14564484D01*
X10520539Y-14564484D02*
X10530062Y-14545436D01*
X10530062Y-14545436D02*
X10539586Y-14535913D01*
X10539586Y-14535913D02*
X10558634Y-14526389D01*
X10711015Y-14726389D02*
X10711015Y-14593055D01*
X10711015Y-14612103D02*
X10720539Y-14602579D01*
X10720539Y-14602579D02*
X10739586Y-14593055D01*
X10739586Y-14593055D02*
X10768158Y-14593055D01*
X10768158Y-14593055D02*
X10787205Y-14602579D01*
X10787205Y-14602579D02*
X10796729Y-14621627D01*
X10796729Y-14621627D02*
X10796729Y-14726389D01*
X10796729Y-14621627D02*
X10806253Y-14602579D01*
X10806253Y-14602579D02*
X10825300Y-14593055D01*
X10825300Y-14593055D02*
X10853872Y-14593055D01*
X10853872Y-14593055D02*
X10872920Y-14602579D01*
X10872920Y-14602579D02*
X10882443Y-14621627D01*
X10882443Y-14621627D02*
X10882443Y-14726389D01*
X10977681Y-14726389D02*
X10977681Y-14593055D01*
X10977681Y-14612103D02*
X10987205Y-14602579D01*
X10987205Y-14602579D02*
X11006253Y-14593055D01*
X11006253Y-14593055D02*
X11034824Y-14593055D01*
X11034824Y-14593055D02*
X11053872Y-14602579D01*
X11053872Y-14602579D02*
X11063396Y-14621627D01*
X11063396Y-14621627D02*
X11063396Y-14726389D01*
X11063396Y-14621627D02*
X11072920Y-14602579D01*
X11072920Y-14602579D02*
X11091967Y-14593055D01*
X11091967Y-14593055D02*
X11120539Y-14593055D01*
X11120539Y-14593055D02*
X11139586Y-14602579D01*
X11139586Y-14602579D02*
X11149110Y-14621627D01*
X11149110Y-14621627D02*
X11149110Y-14726389D01*
X11539586Y-14516865D02*
X11368158Y-14774008D01*
X11796729Y-14526389D02*
X11815777Y-14526389D01*
X11815777Y-14526389D02*
X11834824Y-14535913D01*
X11834824Y-14535913D02*
X11844348Y-14545436D01*
X11844348Y-14545436D02*
X11853872Y-14564484D01*
X11853872Y-14564484D02*
X11863396Y-14602579D01*
X11863396Y-14602579D02*
X11863396Y-14650198D01*
X11863396Y-14650198D02*
X11853872Y-14688293D01*
X11853872Y-14688293D02*
X11844348Y-14707341D01*
X11844348Y-14707341D02*
X11834824Y-14716865D01*
X11834824Y-14716865D02*
X11815777Y-14726389D01*
X11815777Y-14726389D02*
X11796729Y-14726389D01*
X11796729Y-14726389D02*
X11777681Y-14716865D01*
X11777681Y-14716865D02*
X11768158Y-14707341D01*
X11768158Y-14707341D02*
X11758634Y-14688293D01*
X11758634Y-14688293D02*
X11749110Y-14650198D01*
X11749110Y-14650198D02*
X11749110Y-14602579D01*
X11749110Y-14602579D02*
X11758634Y-14564484D01*
X11758634Y-14564484D02*
X11768158Y-14545436D01*
X11768158Y-14545436D02*
X11777681Y-14535913D01*
X11777681Y-14535913D02*
X11796729Y-14526389D01*
X11949110Y-14707341D02*
X11958634Y-14716865D01*
X11958634Y-14716865D02*
X11949110Y-14726389D01*
X11949110Y-14726389D02*
X11939586Y-14716865D01*
X11939586Y-14716865D02*
X11949110Y-14707341D01*
X11949110Y-14707341D02*
X11949110Y-14726389D01*
X12082443Y-14526389D02*
X12101491Y-14526389D01*
X12101491Y-14526389D02*
X12120539Y-14535913D01*
X12120539Y-14535913D02*
X12130062Y-14545436D01*
X12130062Y-14545436D02*
X12139586Y-14564484D01*
X12139586Y-14564484D02*
X12149110Y-14602579D01*
X12149110Y-14602579D02*
X12149110Y-14650198D01*
X12149110Y-14650198D02*
X12139586Y-14688293D01*
X12139586Y-14688293D02*
X12130062Y-14707341D01*
X12130062Y-14707341D02*
X12120539Y-14716865D01*
X12120539Y-14716865D02*
X12101491Y-14726389D01*
X12101491Y-14726389D02*
X12082443Y-14726389D01*
X12082443Y-14726389D02*
X12063396Y-14716865D01*
X12063396Y-14716865D02*
X12053872Y-14707341D01*
X12053872Y-14707341D02*
X12044348Y-14688293D01*
X12044348Y-14688293D02*
X12034824Y-14650198D01*
X12034824Y-14650198D02*
X12034824Y-14602579D01*
X12034824Y-14602579D02*
X12044348Y-14564484D01*
X12044348Y-14564484D02*
X12053872Y-14545436D01*
X12053872Y-14545436D02*
X12063396Y-14535913D01*
X12063396Y-14535913D02*
X12082443Y-14526389D01*
X12320539Y-14526389D02*
X12282443Y-14526389D01*
X12282443Y-14526389D02*
X12263396Y-14535913D01*
X12263396Y-14535913D02*
X12253872Y-14545436D01*
X12253872Y-14545436D02*
X12234824Y-14574008D01*
X12234824Y-14574008D02*
X12225301Y-14612103D01*
X12225301Y-14612103D02*
X12225301Y-14688293D01*
X12225301Y-14688293D02*
X12234824Y-14707341D01*
X12234824Y-14707341D02*
X12244348Y-14716865D01*
X12244348Y-14716865D02*
X12263396Y-14726389D01*
X12263396Y-14726389D02*
X12301491Y-14726389D01*
X12301491Y-14726389D02*
X12320539Y-14716865D01*
X12320539Y-14716865D02*
X12330062Y-14707341D01*
X12330062Y-14707341D02*
X12339586Y-14688293D01*
X12339586Y-14688293D02*
X12339586Y-14640674D01*
X12339586Y-14640674D02*
X12330062Y-14621627D01*
X12330062Y-14621627D02*
X12320539Y-14612103D01*
X12320539Y-14612103D02*
X12301491Y-14602579D01*
X12301491Y-14602579D02*
X12263396Y-14602579D01*
X12263396Y-14602579D02*
X12244348Y-14612103D01*
X12244348Y-14612103D02*
X12234824Y-14621627D01*
X12234824Y-14621627D02*
X12225301Y-14640674D01*
X12511015Y-14526389D02*
X12472920Y-14526389D01*
X12472920Y-14526389D02*
X12453872Y-14535913D01*
X12453872Y-14535913D02*
X12444348Y-14545436D01*
X12444348Y-14545436D02*
X12425301Y-14574008D01*
X12425301Y-14574008D02*
X12415777Y-14612103D01*
X12415777Y-14612103D02*
X12415777Y-14688293D01*
X12415777Y-14688293D02*
X12425301Y-14707341D01*
X12425301Y-14707341D02*
X12434824Y-14716865D01*
X12434824Y-14716865D02*
X12453872Y-14726389D01*
X12453872Y-14726389D02*
X12491967Y-14726389D01*
X12491967Y-14726389D02*
X12511015Y-14716865D01*
X12511015Y-14716865D02*
X12520539Y-14707341D01*
X12520539Y-14707341D02*
X12530062Y-14688293D01*
X12530062Y-14688293D02*
X12530062Y-14640674D01*
X12530062Y-14640674D02*
X12520539Y-14621627D01*
X12520539Y-14621627D02*
X12511015Y-14612103D01*
X12511015Y-14612103D02*
X12491967Y-14602579D01*
X12491967Y-14602579D02*
X12453872Y-14602579D01*
X12453872Y-14602579D02*
X12434824Y-14612103D01*
X12434824Y-14612103D02*
X12425301Y-14621627D01*
X12425301Y-14621627D02*
X12415777Y-14640674D01*
X12625301Y-14726389D02*
X12663396Y-14726389D01*
X12663396Y-14726389D02*
X12682443Y-14716865D01*
X12682443Y-14716865D02*
X12691967Y-14707341D01*
X12691967Y-14707341D02*
X12711015Y-14678770D01*
X12711015Y-14678770D02*
X12720539Y-14640674D01*
X12720539Y-14640674D02*
X12720539Y-14564484D01*
X12720539Y-14564484D02*
X12711015Y-14545436D01*
X12711015Y-14545436D02*
X12701491Y-14535913D01*
X12701491Y-14535913D02*
X12682443Y-14526389D01*
X12682443Y-14526389D02*
X12644348Y-14526389D01*
X12644348Y-14526389D02*
X12625301Y-14535913D01*
X12625301Y-14535913D02*
X12615777Y-14545436D01*
X12615777Y-14545436D02*
X12606253Y-14564484D01*
X12606253Y-14564484D02*
X12606253Y-14612103D01*
X12606253Y-14612103D02*
X12615777Y-14631151D01*
X12615777Y-14631151D02*
X12625301Y-14640674D01*
X12625301Y-14640674D02*
X12644348Y-14650198D01*
X12644348Y-14650198D02*
X12682443Y-14650198D01*
X12682443Y-14650198D02*
X12701491Y-14640674D01*
X12701491Y-14640674D02*
X12711015Y-14631151D01*
X12711015Y-14631151D02*
X12720539Y-14612103D01*
X12796729Y-14526389D02*
X12796729Y-14564484D01*
X12872920Y-14526389D02*
X12872920Y-14564484D01*
X13168158Y-14802579D02*
X13158634Y-14793055D01*
X13158634Y-14793055D02*
X13139586Y-14764484D01*
X13139586Y-14764484D02*
X13130063Y-14745436D01*
X13130063Y-14745436D02*
X13120539Y-14716865D01*
X13120539Y-14716865D02*
X13111015Y-14669246D01*
X13111015Y-14669246D02*
X13111015Y-14631151D01*
X13111015Y-14631151D02*
X13120539Y-14583532D01*
X13120539Y-14583532D02*
X13130063Y-14554960D01*
X13130063Y-14554960D02*
X13139586Y-14535913D01*
X13139586Y-14535913D02*
X13158634Y-14507341D01*
X13158634Y-14507341D02*
X13168158Y-14497817D01*
X13272920Y-14612103D02*
X13253872Y-14602579D01*
X13253872Y-14602579D02*
X13244348Y-14593055D01*
X13244348Y-14593055D02*
X13234824Y-14574008D01*
X13234824Y-14574008D02*
X13234824Y-14564484D01*
X13234824Y-14564484D02*
X13244348Y-14545436D01*
X13244348Y-14545436D02*
X13253872Y-14535913D01*
X13253872Y-14535913D02*
X13272920Y-14526389D01*
X13272920Y-14526389D02*
X13311015Y-14526389D01*
X13311015Y-14526389D02*
X13330063Y-14535913D01*
X13330063Y-14535913D02*
X13339586Y-14545436D01*
X13339586Y-14545436D02*
X13349110Y-14564484D01*
X13349110Y-14564484D02*
X13349110Y-14574008D01*
X13349110Y-14574008D02*
X13339586Y-14593055D01*
X13339586Y-14593055D02*
X13330063Y-14602579D01*
X13330063Y-14602579D02*
X13311015Y-14612103D01*
X13311015Y-14612103D02*
X13272920Y-14612103D01*
X13272920Y-14612103D02*
X13253872Y-14621627D01*
X13253872Y-14621627D02*
X13244348Y-14631151D01*
X13244348Y-14631151D02*
X13234824Y-14650198D01*
X13234824Y-14650198D02*
X13234824Y-14688293D01*
X13234824Y-14688293D02*
X13244348Y-14707341D01*
X13244348Y-14707341D02*
X13253872Y-14716865D01*
X13253872Y-14716865D02*
X13272920Y-14726389D01*
X13272920Y-14726389D02*
X13311015Y-14726389D01*
X13311015Y-14726389D02*
X13330063Y-14716865D01*
X13330063Y-14716865D02*
X13339586Y-14707341D01*
X13339586Y-14707341D02*
X13349110Y-14688293D01*
X13349110Y-14688293D02*
X13349110Y-14650198D01*
X13349110Y-14650198D02*
X13339586Y-14631151D01*
X13339586Y-14631151D02*
X13330063Y-14621627D01*
X13330063Y-14621627D02*
X13311015Y-14612103D01*
X13587205Y-14726389D02*
X13587205Y-14526389D01*
X13672920Y-14726389D02*
X13672920Y-14621627D01*
X13672920Y-14621627D02*
X13663396Y-14602579D01*
X13663396Y-14602579D02*
X13644348Y-14593055D01*
X13644348Y-14593055D02*
X13615777Y-14593055D01*
X13615777Y-14593055D02*
X13596729Y-14602579D01*
X13596729Y-14602579D02*
X13587205Y-14612103D01*
X13796729Y-14726389D02*
X13777682Y-14716865D01*
X13777682Y-14716865D02*
X13768158Y-14707341D01*
X13768158Y-14707341D02*
X13758634Y-14688293D01*
X13758634Y-14688293D02*
X13758634Y-14631151D01*
X13758634Y-14631151D02*
X13768158Y-14612103D01*
X13768158Y-14612103D02*
X13777682Y-14602579D01*
X13777682Y-14602579D02*
X13796729Y-14593055D01*
X13796729Y-14593055D02*
X13825301Y-14593055D01*
X13825301Y-14593055D02*
X13844348Y-14602579D01*
X13844348Y-14602579D02*
X13853872Y-14612103D01*
X13853872Y-14612103D02*
X13863396Y-14631151D01*
X13863396Y-14631151D02*
X13863396Y-14688293D01*
X13863396Y-14688293D02*
X13853872Y-14707341D01*
X13853872Y-14707341D02*
X13844348Y-14716865D01*
X13844348Y-14716865D02*
X13825301Y-14726389D01*
X13825301Y-14726389D02*
X13796729Y-14726389D01*
X13977682Y-14726389D02*
X13958634Y-14716865D01*
X13958634Y-14716865D02*
X13949110Y-14697817D01*
X13949110Y-14697817D02*
X13949110Y-14526389D01*
X14130063Y-14716865D02*
X14111015Y-14726389D01*
X14111015Y-14726389D02*
X14072920Y-14726389D01*
X14072920Y-14726389D02*
X14053872Y-14716865D01*
X14053872Y-14716865D02*
X14044348Y-14697817D01*
X14044348Y-14697817D02*
X14044348Y-14621627D01*
X14044348Y-14621627D02*
X14053872Y-14602579D01*
X14053872Y-14602579D02*
X14072920Y-14593055D01*
X14072920Y-14593055D02*
X14111015Y-14593055D01*
X14111015Y-14593055D02*
X14130063Y-14602579D01*
X14130063Y-14602579D02*
X14139586Y-14621627D01*
X14139586Y-14621627D02*
X14139586Y-14640674D01*
X14139586Y-14640674D02*
X14044348Y-14659722D01*
X14215777Y-14716865D02*
X14234825Y-14726389D01*
X14234825Y-14726389D02*
X14272920Y-14726389D01*
X14272920Y-14726389D02*
X14291967Y-14716865D01*
X14291967Y-14716865D02*
X14301491Y-14697817D01*
X14301491Y-14697817D02*
X14301491Y-14688293D01*
X14301491Y-14688293D02*
X14291967Y-14669246D01*
X14291967Y-14669246D02*
X14272920Y-14659722D01*
X14272920Y-14659722D02*
X14244348Y-14659722D01*
X14244348Y-14659722D02*
X14225301Y-14650198D01*
X14225301Y-14650198D02*
X14215777Y-14631151D01*
X14215777Y-14631151D02*
X14215777Y-14621627D01*
X14215777Y-14621627D02*
X14225301Y-14602579D01*
X14225301Y-14602579D02*
X14244348Y-14593055D01*
X14244348Y-14593055D02*
X14272920Y-14593055D01*
X14272920Y-14593055D02*
X14291967Y-14602579D01*
X14368158Y-14802579D02*
X14377682Y-14793055D01*
X14377682Y-14793055D02*
X14396729Y-14764484D01*
X14396729Y-14764484D02*
X14406253Y-14745436D01*
X14406253Y-14745436D02*
X14415777Y-14716865D01*
X14415777Y-14716865D02*
X14425301Y-14669246D01*
X14425301Y-14669246D02*
X14425301Y-14631151D01*
X14425301Y-14631151D02*
X14415777Y-14583532D01*
X14415777Y-14583532D02*
X14406253Y-14554960D01*
X14406253Y-14554960D02*
X14396729Y-14535913D01*
X14396729Y-14535913D02*
X14377682Y-14507341D01*
X14377682Y-14507341D02*
X14368158Y-14497817D01*
M02*
