%TF.GenerationSoftware,KiCad,Pcbnew,7.0.11+dfsg-1build4*%
%TF.CreationDate,2026-08-02T22:20:36-04:00*%
%TF.ProjectId,radar2,72616461-7232-42e6-9b69-6361645f7063,rev?*%
%TF.SameCoordinates,Original*%
%TF.FileFunction,Drillmap*%
%TF.FilePolarity,Positive*%
%FSLAX45Y45*%
G04 Gerber Fmt 4.5, Leading zero omitted, Abs format (unit mm)*
G04 Created by KiCad (PCBNEW 7.0.11+dfsg-1build4) date 2026-08-02 22:20:36*
%MOMM*%
%LPD*%
G01*
G04 APERTURE LIST*
%ADD10C,0.038100*%
%ADD11C,0.200000*%
%ADD12C,0.120000*%
G04 APERTURE END LIST*
D10*
X19540000Y-5900000D02*
X19540000Y-11480000D01*
X9643800Y-11460500D02*
X10492500Y-11465000D01*
X9650000Y-5880000D02*
X9643800Y-11460500D01*
X9595000Y-5885000D02*
X19540000Y-5900000D01*
X11082500Y-12385000D02*
X11995000Y-12385000D01*
X19540000Y-11480000D02*
X12525000Y-11455000D01*
X10492500Y-11465000D02*
X11082500Y-12385000D01*
X11995000Y-12385000D02*
X12525000Y-11455000D01*
D11*
D12*
X18960000Y-9780000D02*
X19080000Y-9900000D01*
X19080000Y-9780000D02*
X18960000Y-9900000D01*
D11*
X9853872Y-12698389D02*
X9853872Y-12498389D01*
X9853872Y-12498389D02*
X9901491Y-12498389D01*
X9901491Y-12498389D02*
X9930062Y-12507913D01*
X9930062Y-12507913D02*
X9949110Y-12526960D01*
X9949110Y-12526960D02*
X9958634Y-12546008D01*
X9958634Y-12546008D02*
X9968158Y-12584103D01*
X9968158Y-12584103D02*
X9968158Y-12612674D01*
X9968158Y-12612674D02*
X9958634Y-12650770D01*
X9958634Y-12650770D02*
X9949110Y-12669817D01*
X9949110Y-12669817D02*
X9930062Y-12688865D01*
X9930062Y-12688865D02*
X9901491Y-12698389D01*
X9901491Y-12698389D02*
X9853872Y-12698389D01*
X10053872Y-12698389D02*
X10053872Y-12565055D01*
X10053872Y-12603151D02*
X10063396Y-12584103D01*
X10063396Y-12584103D02*
X10072919Y-12574579D01*
X10072919Y-12574579D02*
X10091967Y-12565055D01*
X10091967Y-12565055D02*
X10111015Y-12565055D01*
X10177681Y-12698389D02*
X10177681Y-12565055D01*
X10177681Y-12498389D02*
X10168158Y-12507913D01*
X10168158Y-12507913D02*
X10177681Y-12517436D01*
X10177681Y-12517436D02*
X10187205Y-12507913D01*
X10187205Y-12507913D02*
X10177681Y-12498389D01*
X10177681Y-12498389D02*
X10177681Y-12517436D01*
X10301491Y-12698389D02*
X10282443Y-12688865D01*
X10282443Y-12688865D02*
X10272919Y-12669817D01*
X10272919Y-12669817D02*
X10272919Y-12498389D01*
X10406253Y-12698389D02*
X10387205Y-12688865D01*
X10387205Y-12688865D02*
X10377681Y-12669817D01*
X10377681Y-12669817D02*
X10377681Y-12498389D01*
X10634824Y-12698389D02*
X10634824Y-12498389D01*
X10634824Y-12498389D02*
X10701491Y-12641246D01*
X10701491Y-12641246D02*
X10768158Y-12498389D01*
X10768158Y-12498389D02*
X10768158Y-12698389D01*
X10949110Y-12698389D02*
X10949110Y-12593627D01*
X10949110Y-12593627D02*
X10939586Y-12574579D01*
X10939586Y-12574579D02*
X10920539Y-12565055D01*
X10920539Y-12565055D02*
X10882443Y-12565055D01*
X10882443Y-12565055D02*
X10863396Y-12574579D01*
X10949110Y-12688865D02*
X10930062Y-12698389D01*
X10930062Y-12698389D02*
X10882443Y-12698389D01*
X10882443Y-12698389D02*
X10863396Y-12688865D01*
X10863396Y-12688865D02*
X10853872Y-12669817D01*
X10853872Y-12669817D02*
X10853872Y-12650770D01*
X10853872Y-12650770D02*
X10863396Y-12631722D01*
X10863396Y-12631722D02*
X10882443Y-12622198D01*
X10882443Y-12622198D02*
X10930062Y-12622198D01*
X10930062Y-12622198D02*
X10949110Y-12612674D01*
X11044348Y-12565055D02*
X11044348Y-12765055D01*
X11044348Y-12574579D02*
X11063396Y-12565055D01*
X11063396Y-12565055D02*
X11101491Y-12565055D01*
X11101491Y-12565055D02*
X11120539Y-12574579D01*
X11120539Y-12574579D02*
X11130062Y-12584103D01*
X11130062Y-12584103D02*
X11139586Y-12603151D01*
X11139586Y-12603151D02*
X11139586Y-12660293D01*
X11139586Y-12660293D02*
X11130062Y-12679341D01*
X11130062Y-12679341D02*
X11120539Y-12688865D01*
X11120539Y-12688865D02*
X11101491Y-12698389D01*
X11101491Y-12698389D02*
X11063396Y-12698389D01*
X11063396Y-12698389D02*
X11044348Y-12688865D01*
X11225300Y-12679341D02*
X11234824Y-12688865D01*
X11234824Y-12688865D02*
X11225300Y-12698389D01*
X11225300Y-12698389D02*
X11215777Y-12688865D01*
X11215777Y-12688865D02*
X11225300Y-12679341D01*
X11225300Y-12679341D02*
X11225300Y-12698389D01*
X11225300Y-12574579D02*
X11234824Y-12584103D01*
X11234824Y-12584103D02*
X11225300Y-12593627D01*
X11225300Y-12593627D02*
X11215777Y-12584103D01*
X11215777Y-12584103D02*
X11225300Y-12574579D01*
X11225300Y-12574579D02*
X11225300Y-12593627D01*
D12*
X9473095Y-12966905D02*
X9593095Y-13086905D01*
X9593095Y-12966905D02*
X9473095Y-13086905D01*
D11*
X9958634Y-13118389D02*
X9844348Y-13118389D01*
X9901491Y-13118389D02*
X9901491Y-12918389D01*
X9901491Y-12918389D02*
X9882443Y-12946960D01*
X9882443Y-12946960D02*
X9863396Y-12966008D01*
X9863396Y-12966008D02*
X9844348Y-12975532D01*
X10044348Y-13099341D02*
X10053872Y-13108865D01*
X10053872Y-13108865D02*
X10044348Y-13118389D01*
X10044348Y-13118389D02*
X10034824Y-13108865D01*
X10034824Y-13108865D02*
X10044348Y-13099341D01*
X10044348Y-13099341D02*
X10044348Y-13118389D01*
X10130062Y-12937436D02*
X10139586Y-12927913D01*
X10139586Y-12927913D02*
X10158634Y-12918389D01*
X10158634Y-12918389D02*
X10206253Y-12918389D01*
X10206253Y-12918389D02*
X10225300Y-12927913D01*
X10225300Y-12927913D02*
X10234824Y-12937436D01*
X10234824Y-12937436D02*
X10244348Y-12956484D01*
X10244348Y-12956484D02*
X10244348Y-12975532D01*
X10244348Y-12975532D02*
X10234824Y-13004103D01*
X10234824Y-13004103D02*
X10120539Y-13118389D01*
X10120539Y-13118389D02*
X10244348Y-13118389D01*
X10368158Y-12918389D02*
X10387205Y-12918389D01*
X10387205Y-12918389D02*
X10406253Y-12927913D01*
X10406253Y-12927913D02*
X10415777Y-12937436D01*
X10415777Y-12937436D02*
X10425300Y-12956484D01*
X10425300Y-12956484D02*
X10434824Y-12994579D01*
X10434824Y-12994579D02*
X10434824Y-13042198D01*
X10434824Y-13042198D02*
X10425300Y-13080293D01*
X10425300Y-13080293D02*
X10415777Y-13099341D01*
X10415777Y-13099341D02*
X10406253Y-13108865D01*
X10406253Y-13108865D02*
X10387205Y-13118389D01*
X10387205Y-13118389D02*
X10368158Y-13118389D01*
X10368158Y-13118389D02*
X10349110Y-13108865D01*
X10349110Y-13108865D02*
X10339586Y-13099341D01*
X10339586Y-13099341D02*
X10330062Y-13080293D01*
X10330062Y-13080293D02*
X10320539Y-13042198D01*
X10320539Y-13042198D02*
X10320539Y-12994579D01*
X10320539Y-12994579D02*
X10330062Y-12956484D01*
X10330062Y-12956484D02*
X10339586Y-12937436D01*
X10339586Y-12937436D02*
X10349110Y-12927913D01*
X10349110Y-12927913D02*
X10368158Y-12918389D01*
X10558634Y-12918389D02*
X10577681Y-12918389D01*
X10577681Y-12918389D02*
X10596729Y-12927913D01*
X10596729Y-12927913D02*
X10606253Y-12937436D01*
X10606253Y-12937436D02*
X10615777Y-12956484D01*
X10615777Y-12956484D02*
X10625300Y-12994579D01*
X10625300Y-12994579D02*
X10625300Y-13042198D01*
X10625300Y-13042198D02*
X10615777Y-13080293D01*
X10615777Y-13080293D02*
X10606253Y-13099341D01*
X10606253Y-13099341D02*
X10596729Y-13108865D01*
X10596729Y-13108865D02*
X10577681Y-13118389D01*
X10577681Y-13118389D02*
X10558634Y-13118389D01*
X10558634Y-13118389D02*
X10539586Y-13108865D01*
X10539586Y-13108865D02*
X10530062Y-13099341D01*
X10530062Y-13099341D02*
X10520539Y-13080293D01*
X10520539Y-13080293D02*
X10511015Y-13042198D01*
X10511015Y-13042198D02*
X10511015Y-12994579D01*
X10511015Y-12994579D02*
X10520539Y-12956484D01*
X10520539Y-12956484D02*
X10530062Y-12937436D01*
X10530062Y-12937436D02*
X10539586Y-12927913D01*
X10539586Y-12927913D02*
X10558634Y-12918389D01*
X10711015Y-13118389D02*
X10711015Y-12985055D01*
X10711015Y-13004103D02*
X10720539Y-12994579D01*
X10720539Y-12994579D02*
X10739586Y-12985055D01*
X10739586Y-12985055D02*
X10768158Y-12985055D01*
X10768158Y-12985055D02*
X10787205Y-12994579D01*
X10787205Y-12994579D02*
X10796729Y-13013627D01*
X10796729Y-13013627D02*
X10796729Y-13118389D01*
X10796729Y-13013627D02*
X10806253Y-12994579D01*
X10806253Y-12994579D02*
X10825300Y-12985055D01*
X10825300Y-12985055D02*
X10853872Y-12985055D01*
X10853872Y-12985055D02*
X10872920Y-12994579D01*
X10872920Y-12994579D02*
X10882443Y-13013627D01*
X10882443Y-13013627D02*
X10882443Y-13118389D01*
X10977681Y-13118389D02*
X10977681Y-12985055D01*
X10977681Y-13004103D02*
X10987205Y-12994579D01*
X10987205Y-12994579D02*
X11006253Y-12985055D01*
X11006253Y-12985055D02*
X11034824Y-12985055D01*
X11034824Y-12985055D02*
X11053872Y-12994579D01*
X11053872Y-12994579D02*
X11063396Y-13013627D01*
X11063396Y-13013627D02*
X11063396Y-13118389D01*
X11063396Y-13013627D02*
X11072920Y-12994579D01*
X11072920Y-12994579D02*
X11091967Y-12985055D01*
X11091967Y-12985055D02*
X11120539Y-12985055D01*
X11120539Y-12985055D02*
X11139586Y-12994579D01*
X11139586Y-12994579D02*
X11149110Y-13013627D01*
X11149110Y-13013627D02*
X11149110Y-13118389D01*
X11539586Y-12908865D02*
X11368158Y-13166008D01*
X11796729Y-12918389D02*
X11815777Y-12918389D01*
X11815777Y-12918389D02*
X11834824Y-12927913D01*
X11834824Y-12927913D02*
X11844348Y-12937436D01*
X11844348Y-12937436D02*
X11853872Y-12956484D01*
X11853872Y-12956484D02*
X11863396Y-12994579D01*
X11863396Y-12994579D02*
X11863396Y-13042198D01*
X11863396Y-13042198D02*
X11853872Y-13080293D01*
X11853872Y-13080293D02*
X11844348Y-13099341D01*
X11844348Y-13099341D02*
X11834824Y-13108865D01*
X11834824Y-13108865D02*
X11815777Y-13118389D01*
X11815777Y-13118389D02*
X11796729Y-13118389D01*
X11796729Y-13118389D02*
X11777681Y-13108865D01*
X11777681Y-13108865D02*
X11768158Y-13099341D01*
X11768158Y-13099341D02*
X11758634Y-13080293D01*
X11758634Y-13080293D02*
X11749110Y-13042198D01*
X11749110Y-13042198D02*
X11749110Y-12994579D01*
X11749110Y-12994579D02*
X11758634Y-12956484D01*
X11758634Y-12956484D02*
X11768158Y-12937436D01*
X11768158Y-12937436D02*
X11777681Y-12927913D01*
X11777681Y-12927913D02*
X11796729Y-12918389D01*
X11949110Y-13099341D02*
X11958634Y-13108865D01*
X11958634Y-13108865D02*
X11949110Y-13118389D01*
X11949110Y-13118389D02*
X11939586Y-13108865D01*
X11939586Y-13108865D02*
X11949110Y-13099341D01*
X11949110Y-13099341D02*
X11949110Y-13118389D01*
X12082443Y-12918389D02*
X12101491Y-12918389D01*
X12101491Y-12918389D02*
X12120539Y-12927913D01*
X12120539Y-12927913D02*
X12130062Y-12937436D01*
X12130062Y-12937436D02*
X12139586Y-12956484D01*
X12139586Y-12956484D02*
X12149110Y-12994579D01*
X12149110Y-12994579D02*
X12149110Y-13042198D01*
X12149110Y-13042198D02*
X12139586Y-13080293D01*
X12139586Y-13080293D02*
X12130062Y-13099341D01*
X12130062Y-13099341D02*
X12120539Y-13108865D01*
X12120539Y-13108865D02*
X12101491Y-13118389D01*
X12101491Y-13118389D02*
X12082443Y-13118389D01*
X12082443Y-13118389D02*
X12063396Y-13108865D01*
X12063396Y-13108865D02*
X12053872Y-13099341D01*
X12053872Y-13099341D02*
X12044348Y-13080293D01*
X12044348Y-13080293D02*
X12034824Y-13042198D01*
X12034824Y-13042198D02*
X12034824Y-12994579D01*
X12034824Y-12994579D02*
X12044348Y-12956484D01*
X12044348Y-12956484D02*
X12053872Y-12937436D01*
X12053872Y-12937436D02*
X12063396Y-12927913D01*
X12063396Y-12927913D02*
X12082443Y-12918389D01*
X12320539Y-12985055D02*
X12320539Y-13118389D01*
X12272920Y-12908865D02*
X12225301Y-13051722D01*
X12225301Y-13051722D02*
X12349110Y-13051722D01*
X12406253Y-12918389D02*
X12539586Y-12918389D01*
X12539586Y-12918389D02*
X12453872Y-13118389D01*
X12606253Y-12937436D02*
X12615777Y-12927913D01*
X12615777Y-12927913D02*
X12634824Y-12918389D01*
X12634824Y-12918389D02*
X12682443Y-12918389D01*
X12682443Y-12918389D02*
X12701491Y-12927913D01*
X12701491Y-12927913D02*
X12711015Y-12937436D01*
X12711015Y-12937436D02*
X12720539Y-12956484D01*
X12720539Y-12956484D02*
X12720539Y-12975532D01*
X12720539Y-12975532D02*
X12711015Y-13004103D01*
X12711015Y-13004103D02*
X12596729Y-13118389D01*
X12596729Y-13118389D02*
X12720539Y-13118389D01*
X12796729Y-12918389D02*
X12796729Y-12956484D01*
X12872920Y-12918389D02*
X12872920Y-12956484D01*
X13168158Y-13194579D02*
X13158634Y-13185055D01*
X13158634Y-13185055D02*
X13139586Y-13156484D01*
X13139586Y-13156484D02*
X13130063Y-13137436D01*
X13130063Y-13137436D02*
X13120539Y-13108865D01*
X13120539Y-13108865D02*
X13111015Y-13061246D01*
X13111015Y-13061246D02*
X13111015Y-13023151D01*
X13111015Y-13023151D02*
X13120539Y-12975532D01*
X13120539Y-12975532D02*
X13130063Y-12946960D01*
X13130063Y-12946960D02*
X13139586Y-12927913D01*
X13139586Y-12927913D02*
X13158634Y-12899341D01*
X13158634Y-12899341D02*
X13168158Y-12889817D01*
X13349110Y-13118389D02*
X13234824Y-13118389D01*
X13291967Y-13118389D02*
X13291967Y-12918389D01*
X13291967Y-12918389D02*
X13272920Y-12946960D01*
X13272920Y-12946960D02*
X13253872Y-12966008D01*
X13253872Y-12966008D02*
X13234824Y-12975532D01*
X13587205Y-13118389D02*
X13587205Y-12918389D01*
X13672920Y-13118389D02*
X13672920Y-13013627D01*
X13672920Y-13013627D02*
X13663396Y-12994579D01*
X13663396Y-12994579D02*
X13644348Y-12985055D01*
X13644348Y-12985055D02*
X13615777Y-12985055D01*
X13615777Y-12985055D02*
X13596729Y-12994579D01*
X13596729Y-12994579D02*
X13587205Y-13004103D01*
X13796729Y-13118389D02*
X13777682Y-13108865D01*
X13777682Y-13108865D02*
X13768158Y-13099341D01*
X13768158Y-13099341D02*
X13758634Y-13080293D01*
X13758634Y-13080293D02*
X13758634Y-13023151D01*
X13758634Y-13023151D02*
X13768158Y-13004103D01*
X13768158Y-13004103D02*
X13777682Y-12994579D01*
X13777682Y-12994579D02*
X13796729Y-12985055D01*
X13796729Y-12985055D02*
X13825301Y-12985055D01*
X13825301Y-12985055D02*
X13844348Y-12994579D01*
X13844348Y-12994579D02*
X13853872Y-13004103D01*
X13853872Y-13004103D02*
X13863396Y-13023151D01*
X13863396Y-13023151D02*
X13863396Y-13080293D01*
X13863396Y-13080293D02*
X13853872Y-13099341D01*
X13853872Y-13099341D02*
X13844348Y-13108865D01*
X13844348Y-13108865D02*
X13825301Y-13118389D01*
X13825301Y-13118389D02*
X13796729Y-13118389D01*
X13977682Y-13118389D02*
X13958634Y-13108865D01*
X13958634Y-13108865D02*
X13949110Y-13089817D01*
X13949110Y-13089817D02*
X13949110Y-12918389D01*
X14130063Y-13108865D02*
X14111015Y-13118389D01*
X14111015Y-13118389D02*
X14072920Y-13118389D01*
X14072920Y-13118389D02*
X14053872Y-13108865D01*
X14053872Y-13108865D02*
X14044348Y-13089817D01*
X14044348Y-13089817D02*
X14044348Y-13013627D01*
X14044348Y-13013627D02*
X14053872Y-12994579D01*
X14053872Y-12994579D02*
X14072920Y-12985055D01*
X14072920Y-12985055D02*
X14111015Y-12985055D01*
X14111015Y-12985055D02*
X14130063Y-12994579D01*
X14130063Y-12994579D02*
X14139586Y-13013627D01*
X14139586Y-13013627D02*
X14139586Y-13032674D01*
X14139586Y-13032674D02*
X14044348Y-13051722D01*
X14206253Y-13194579D02*
X14215777Y-13185055D01*
X14215777Y-13185055D02*
X14234825Y-13156484D01*
X14234825Y-13156484D02*
X14244348Y-13137436D01*
X14244348Y-13137436D02*
X14253872Y-13108865D01*
X14253872Y-13108865D02*
X14263396Y-13061246D01*
X14263396Y-13061246D02*
X14263396Y-13023151D01*
X14263396Y-13023151D02*
X14253872Y-12975532D01*
X14253872Y-12975532D02*
X14244348Y-12946960D01*
X14244348Y-12946960D02*
X14234825Y-12927913D01*
X14234825Y-12927913D02*
X14215777Y-12899341D01*
X14215777Y-12899341D02*
X14206253Y-12889817D01*
X14568158Y-13194579D02*
X14558634Y-13185055D01*
X14558634Y-13185055D02*
X14539586Y-13156484D01*
X14539586Y-13156484D02*
X14530063Y-13137436D01*
X14530063Y-13137436D02*
X14520539Y-13108865D01*
X14520539Y-13108865D02*
X14511015Y-13061246D01*
X14511015Y-13061246D02*
X14511015Y-13023151D01*
X14511015Y-13023151D02*
X14520539Y-12975532D01*
X14520539Y-12975532D02*
X14530063Y-12946960D01*
X14530063Y-12946960D02*
X14539586Y-12927913D01*
X14539586Y-12927913D02*
X14558634Y-12899341D01*
X14558634Y-12899341D02*
X14568158Y-12889817D01*
X14644348Y-12985055D02*
X14644348Y-13118389D01*
X14644348Y-13004103D02*
X14653872Y-12994579D01*
X14653872Y-12994579D02*
X14672920Y-12985055D01*
X14672920Y-12985055D02*
X14701491Y-12985055D01*
X14701491Y-12985055D02*
X14720539Y-12994579D01*
X14720539Y-12994579D02*
X14730063Y-13013627D01*
X14730063Y-13013627D02*
X14730063Y-13118389D01*
X14853872Y-13118389D02*
X14834825Y-13108865D01*
X14834825Y-13108865D02*
X14825301Y-13099341D01*
X14825301Y-13099341D02*
X14815777Y-13080293D01*
X14815777Y-13080293D02*
X14815777Y-13023151D01*
X14815777Y-13023151D02*
X14825301Y-13004103D01*
X14825301Y-13004103D02*
X14834825Y-12994579D01*
X14834825Y-12994579D02*
X14853872Y-12985055D01*
X14853872Y-12985055D02*
X14882444Y-12985055D01*
X14882444Y-12985055D02*
X14901491Y-12994579D01*
X14901491Y-12994579D02*
X14911015Y-13004103D01*
X14911015Y-13004103D02*
X14920539Y-13023151D01*
X14920539Y-13023151D02*
X14920539Y-13080293D01*
X14920539Y-13080293D02*
X14911015Y-13099341D01*
X14911015Y-13099341D02*
X14901491Y-13108865D01*
X14901491Y-13108865D02*
X14882444Y-13118389D01*
X14882444Y-13118389D02*
X14853872Y-13118389D01*
X14977682Y-12985055D02*
X15053872Y-12985055D01*
X15006253Y-12918389D02*
X15006253Y-13089817D01*
X15006253Y-13089817D02*
X15015777Y-13108865D01*
X15015777Y-13108865D02*
X15034825Y-13118389D01*
X15034825Y-13118389D02*
X15053872Y-13118389D01*
X15272920Y-12985055D02*
X15272920Y-13185055D01*
X15272920Y-12994579D02*
X15291967Y-12985055D01*
X15291967Y-12985055D02*
X15330063Y-12985055D01*
X15330063Y-12985055D02*
X15349110Y-12994579D01*
X15349110Y-12994579D02*
X15358634Y-13004103D01*
X15358634Y-13004103D02*
X15368158Y-13023151D01*
X15368158Y-13023151D02*
X15368158Y-13080293D01*
X15368158Y-13080293D02*
X15358634Y-13099341D01*
X15358634Y-13099341D02*
X15349110Y-13108865D01*
X15349110Y-13108865D02*
X15330063Y-13118389D01*
X15330063Y-13118389D02*
X15291967Y-13118389D01*
X15291967Y-13118389D02*
X15272920Y-13108865D01*
X15482444Y-13118389D02*
X15463396Y-13108865D01*
X15463396Y-13108865D02*
X15453872Y-13089817D01*
X15453872Y-13089817D02*
X15453872Y-12918389D01*
X15644348Y-13118389D02*
X15644348Y-13013627D01*
X15644348Y-13013627D02*
X15634825Y-12994579D01*
X15634825Y-12994579D02*
X15615777Y-12985055D01*
X15615777Y-12985055D02*
X15577682Y-12985055D01*
X15577682Y-12985055D02*
X15558634Y-12994579D01*
X15644348Y-13108865D02*
X15625301Y-13118389D01*
X15625301Y-13118389D02*
X15577682Y-13118389D01*
X15577682Y-13118389D02*
X15558634Y-13108865D01*
X15558634Y-13108865D02*
X15549110Y-13089817D01*
X15549110Y-13089817D02*
X15549110Y-13070770D01*
X15549110Y-13070770D02*
X15558634Y-13051722D01*
X15558634Y-13051722D02*
X15577682Y-13042198D01*
X15577682Y-13042198D02*
X15625301Y-13042198D01*
X15625301Y-13042198D02*
X15644348Y-13032674D01*
X15711015Y-12985055D02*
X15787206Y-12985055D01*
X15739587Y-12918389D02*
X15739587Y-13089817D01*
X15739587Y-13089817D02*
X15749110Y-13108865D01*
X15749110Y-13108865D02*
X15768158Y-13118389D01*
X15768158Y-13118389D02*
X15787206Y-13118389D01*
X15930063Y-13108865D02*
X15911015Y-13118389D01*
X15911015Y-13118389D02*
X15872920Y-13118389D01*
X15872920Y-13118389D02*
X15853872Y-13108865D01*
X15853872Y-13108865D02*
X15844348Y-13089817D01*
X15844348Y-13089817D02*
X15844348Y-13013627D01*
X15844348Y-13013627D02*
X15853872Y-12994579D01*
X15853872Y-12994579D02*
X15872920Y-12985055D01*
X15872920Y-12985055D02*
X15911015Y-12985055D01*
X15911015Y-12985055D02*
X15930063Y-12994579D01*
X15930063Y-12994579D02*
X15939587Y-13013627D01*
X15939587Y-13013627D02*
X15939587Y-13032674D01*
X15939587Y-13032674D02*
X15844348Y-13051722D01*
X16111015Y-13118389D02*
X16111015Y-12918389D01*
X16111015Y-13108865D02*
X16091968Y-13118389D01*
X16091968Y-13118389D02*
X16053872Y-13118389D01*
X16053872Y-13118389D02*
X16034825Y-13108865D01*
X16034825Y-13108865D02*
X16025301Y-13099341D01*
X16025301Y-13099341D02*
X16015777Y-13080293D01*
X16015777Y-13080293D02*
X16015777Y-13023151D01*
X16015777Y-13023151D02*
X16025301Y-13004103D01*
X16025301Y-13004103D02*
X16034825Y-12994579D01*
X16034825Y-12994579D02*
X16053872Y-12985055D01*
X16053872Y-12985055D02*
X16091968Y-12985055D01*
X16091968Y-12985055D02*
X16111015Y-12994579D01*
X16187206Y-13194579D02*
X16196729Y-13185055D01*
X16196729Y-13185055D02*
X16215777Y-13156484D01*
X16215777Y-13156484D02*
X16225301Y-13137436D01*
X16225301Y-13137436D02*
X16234825Y-13108865D01*
X16234825Y-13108865D02*
X16244348Y-13061246D01*
X16244348Y-13061246D02*
X16244348Y-13023151D01*
X16244348Y-13023151D02*
X16234825Y-12975532D01*
X16234825Y-12975532D02*
X16225301Y-12946960D01*
X16225301Y-12946960D02*
X16215777Y-12927913D01*
X16215777Y-12927913D02*
X16196729Y-12899341D01*
X16196729Y-12899341D02*
X16187206Y-12889817D01*
M02*
