%TF.GenerationSoftware,KiCad,Pcbnew,7.0.11+dfsg-1build4*%
%TF.CreationDate,2026-08-02T21:33:04-04:00*%
%TF.ProjectId,radar2,72616461-7232-42e6-9b69-6361645f7063,rev?*%
%TF.SameCoordinates,Original*%
%TF.FileFunction,Drillmap*%
%TF.FilePolarity,Positive*%
%FSLAX45Y45*%
G04 Gerber Fmt 4.5, Leading zero omitted, Abs format (unit mm)*
G04 Created by KiCad (PCBNEW 7.0.11+dfsg-1build4) date 2026-08-02 21:33:04*
%MOMM*%
%LPD*%
G01*
G04 APERTURE LIST*
%ADD10C,0.038100*%
%ADD11C,0.200000*%
%ADD12C,0.100000*%
%ADD13C,0.125000*%
%ADD14C,0.150000*%
%ADD15C,0.162000*%
%ADD16C,0.170000*%
G04 APERTURE END LIST*
D10*
X19980000Y-5880000D02*
X19980000Y-11460000D01*
X9643800Y-11460500D02*
X10492500Y-11465000D01*
X9650000Y-5880000D02*
X9643800Y-11460500D01*
X9650000Y-5880000D02*
X19980000Y-5880000D01*
X11082500Y-12385000D02*
X11995000Y-12385000D01*
X19980000Y-11460000D02*
X12525000Y-11455000D01*
X10492500Y-11465000D02*
X11082500Y-12385000D01*
X11995000Y-12385000D02*
X12525000Y-11455000D01*
D11*
D12*
X9710439Y-9970006D02*
X9740439Y-10000006D01*
X9740439Y-9970006D02*
X9710439Y-10000006D01*
X9765000Y-10875000D02*
X9795000Y-10905000D01*
X9795000Y-10875000D02*
X9765000Y-10905000D01*
X9785000Y-9025000D02*
X9815000Y-9055000D01*
X9815000Y-9025000D02*
X9785000Y-9055000D01*
X9785000Y-10295000D02*
X9815000Y-10325000D01*
X9815000Y-10295000D02*
X9785000Y-10325000D01*
X9795000Y-10685000D02*
X9825000Y-10715000D01*
X9825000Y-10685000D02*
X9795000Y-10715000D01*
X9875000Y-10725000D02*
X9905000Y-10755000D01*
X9905000Y-10725000D02*
X9875000Y-10755000D01*
X9895000Y-8895000D02*
X9925000Y-8925000D01*
X9925000Y-8895000D02*
X9895000Y-8925000D01*
X9905000Y-8125000D02*
X9935000Y-8155000D01*
X9935000Y-8125000D02*
X9905000Y-8155000D01*
X9915000Y-8365000D02*
X9945000Y-8395000D01*
X9945000Y-8365000D02*
X9915000Y-8395000D01*
X9915000Y-10455000D02*
X9945000Y-10485000D01*
X9945000Y-10455000D02*
X9915000Y-10485000D01*
X9925000Y-7865000D02*
X9955000Y-7895000D01*
X9955000Y-7865000D02*
X9925000Y-7895000D01*
X9925000Y-10565000D02*
X9955000Y-10595000D01*
X9955000Y-10565000D02*
X9925000Y-10595000D01*
X9975000Y-7385000D02*
X10005000Y-7415000D01*
X10005000Y-7385000D02*
X9975000Y-7415000D01*
X10000000Y-11140000D02*
X10030000Y-11170000D01*
X10030000Y-11140000D02*
X10000000Y-11170000D01*
X10020000Y-11215000D02*
X10050000Y-11245000D01*
X10050000Y-11215000D02*
X10020000Y-11245000D01*
X10075000Y-10030000D02*
X10105000Y-10060000D01*
X10105000Y-10030000D02*
X10075000Y-10060000D01*
X10110000Y-11130000D02*
X10140000Y-11160000D01*
X10140000Y-11130000D02*
X10110000Y-11160000D01*
X10140000Y-10320000D02*
X10170000Y-10350000D01*
X10170000Y-10320000D02*
X10140000Y-10350000D01*
X10145000Y-11210000D02*
X10175000Y-11240000D01*
X10175000Y-11210000D02*
X10145000Y-11240000D01*
X10275000Y-11245000D02*
X10305000Y-11275000D01*
X10305000Y-11245000D02*
X10275000Y-11275000D01*
X10365000Y-6845000D02*
X10395000Y-6875000D01*
X10395000Y-6845000D02*
X10365000Y-6875000D01*
X10385000Y-8255000D02*
X10415000Y-8285000D01*
X10415000Y-8255000D02*
X10385000Y-8285000D01*
X10455000Y-8055000D02*
X10485000Y-8085000D01*
X10485000Y-8055000D02*
X10455000Y-8085000D01*
X10460000Y-10085000D02*
X10490000Y-10115000D01*
X10490000Y-10085000D02*
X10460000Y-10115000D01*
X10470000Y-8190000D02*
X10500000Y-8220000D01*
X10500000Y-8190000D02*
X10470000Y-8220000D01*
X10475000Y-9395000D02*
X10505000Y-9425000D01*
X10505000Y-9395000D02*
X10475000Y-9425000D01*
X10490000Y-10005000D02*
X10520000Y-10035000D01*
X10520000Y-10005000D02*
X10490000Y-10035000D01*
X10495000Y-7380000D02*
X10525000Y-7410000D01*
X10525000Y-7380000D02*
X10495000Y-7410000D01*
X10510000Y-7270000D02*
X10540000Y-7300000D01*
X10540000Y-7270000D02*
X10510000Y-7300000D01*
X10525000Y-7980000D02*
X10555000Y-8010000D01*
X10555000Y-7980000D02*
X10525000Y-8010000D01*
X10525000Y-9595000D02*
X10555000Y-9625000D01*
X10555000Y-9595000D02*
X10525000Y-9625000D01*
X10540000Y-10085000D02*
X10570000Y-10115000D01*
X10570000Y-10085000D02*
X10540000Y-10115000D01*
X10560000Y-9960000D02*
X10590000Y-9990000D01*
X10590000Y-9960000D02*
X10560000Y-9990000D01*
X10585000Y-9025000D02*
X10615000Y-9055000D01*
X10615000Y-9025000D02*
X10585000Y-9055000D01*
X10620000Y-10085000D02*
X10650000Y-10115000D01*
X10650000Y-10085000D02*
X10620000Y-10115000D01*
X10630000Y-10010000D02*
X10660000Y-10040000D01*
X10660000Y-10010000D02*
X10630000Y-10040000D01*
X10680000Y-11205000D02*
X10710000Y-11235000D01*
X10710000Y-11205000D02*
X10680000Y-11235000D01*
X10685000Y-7552500D02*
X10715000Y-7582500D01*
X10715000Y-7552500D02*
X10685000Y-7582500D01*
X10690000Y-7352500D02*
X10720000Y-7382500D01*
X10720000Y-7352500D02*
X10690000Y-7382500D01*
X10690000Y-11120000D02*
X10720000Y-11150000D01*
X10720000Y-11120000D02*
X10690000Y-11150000D01*
X10695000Y-9045000D02*
X10725000Y-9075000D01*
X10725000Y-9045000D02*
X10695000Y-9075000D01*
X10715000Y-10610000D02*
X10745000Y-10640000D01*
X10745000Y-10610000D02*
X10715000Y-10640000D01*
X10760000Y-10880000D02*
X10790000Y-10910000D01*
X10790000Y-10880000D02*
X10760000Y-10910000D01*
X10770000Y-11095000D02*
X10800000Y-11125000D01*
X10800000Y-11095000D02*
X10770000Y-11125000D01*
X10775000Y-9967500D02*
X10805000Y-9997500D01*
X10805000Y-9967500D02*
X10775000Y-9997500D01*
X10775000Y-11200000D02*
X10805000Y-11230000D01*
X10805000Y-11200000D02*
X10775000Y-11230000D01*
X10785000Y-9595000D02*
X10815000Y-9625000D01*
X10815000Y-9595000D02*
X10785000Y-9625000D01*
X10800000Y-10040000D02*
X10830000Y-10070000D01*
X10830000Y-10040000D02*
X10800000Y-10070000D01*
X10805000Y-7342500D02*
X10835000Y-7372500D01*
X10835000Y-7342500D02*
X10805000Y-7372500D01*
X10810000Y-6885000D02*
X10840000Y-6915000D01*
X10840000Y-6885000D02*
X10810000Y-6915000D01*
X10830000Y-10630000D02*
X10860000Y-10660000D01*
X10860000Y-10630000D02*
X10830000Y-10660000D01*
X10835000Y-7535000D02*
X10865000Y-7565000D01*
X10865000Y-7535000D02*
X10835000Y-7565000D01*
X10865000Y-10115000D02*
X10895000Y-10145000D01*
X10895000Y-10115000D02*
X10865000Y-10145000D01*
X10875000Y-10855000D02*
X10905000Y-10885000D01*
X10905000Y-10855000D02*
X10875000Y-10885000D01*
X10895000Y-9565000D02*
X10925000Y-9595000D01*
X10925000Y-9565000D02*
X10895000Y-9595000D01*
X10905000Y-10950000D02*
X10935000Y-10980000D01*
X10935000Y-10950000D02*
X10905000Y-10980000D01*
X10945000Y-7485000D02*
X10975000Y-7515000D01*
X10975000Y-7485000D02*
X10945000Y-7515000D01*
X10965000Y-9595000D02*
X10995000Y-9625000D01*
X10995000Y-9595000D02*
X10965000Y-9625000D01*
X10965000Y-10340000D02*
X10995000Y-10370000D01*
X10995000Y-10340000D02*
X10965000Y-10370000D01*
X10965000Y-10835000D02*
X10995000Y-10865000D01*
X10995000Y-10835000D02*
X10965000Y-10865000D01*
X10995000Y-10045000D02*
X11025000Y-10075000D01*
X11025000Y-10045000D02*
X10995000Y-10075000D01*
X11095000Y-9915000D02*
X11125000Y-9945000D01*
X11125000Y-9915000D02*
X11095000Y-9945000D01*
X11135000Y-9615000D02*
X11165000Y-9645000D01*
X11165000Y-9615000D02*
X11135000Y-9645000D01*
X11215000Y-9565000D02*
X11245000Y-9595000D01*
X11245000Y-9565000D02*
X11215000Y-9595000D01*
X11255000Y-9695000D02*
X11285000Y-9725000D01*
X11285000Y-9695000D02*
X11255000Y-9725000D01*
X11262500Y-7870000D02*
X11292500Y-7900000D01*
X11292500Y-7870000D02*
X11262500Y-7900000D01*
X11265000Y-9085000D02*
X11295000Y-9115000D01*
X11295000Y-9085000D02*
X11265000Y-9115000D01*
X11300000Y-7565000D02*
X11330000Y-7595000D01*
X11330000Y-7565000D02*
X11300000Y-7595000D01*
X11335000Y-6940000D02*
X11365000Y-6970000D01*
X11365000Y-6940000D02*
X11335000Y-6970000D01*
X11340000Y-10210000D02*
X11370000Y-10240000D01*
X11370000Y-10210000D02*
X11340000Y-10240000D01*
X11607500Y-6282500D02*
X11637500Y-6312500D01*
X11637500Y-6282500D02*
X11607500Y-6312500D01*
X11730000Y-9590000D02*
X11760000Y-9620000D01*
X11760000Y-9590000D02*
X11730000Y-9620000D01*
X11732500Y-7830000D02*
X11762500Y-7860000D01*
X11762500Y-7830000D02*
X11732500Y-7860000D01*
X11810000Y-6900000D02*
X11840000Y-6930000D01*
X11840000Y-6900000D02*
X11810000Y-6930000D01*
X11810000Y-9425000D02*
X11840000Y-9455000D01*
X11840000Y-9425000D02*
X11810000Y-9455000D01*
X11895000Y-8575000D02*
X11925000Y-8605000D01*
X11925000Y-8575000D02*
X11895000Y-8605000D01*
X11995000Y-6440000D02*
X12025000Y-6470000D01*
X12025000Y-6440000D02*
X11995000Y-6470000D01*
X12072500Y-9045000D02*
X12102500Y-9075000D01*
X12102500Y-9045000D02*
X12072500Y-9075000D01*
X12110000Y-7555000D02*
X12140000Y-7585000D01*
X12140000Y-7555000D02*
X12110000Y-7585000D01*
X12182500Y-7652500D02*
X12212500Y-7682500D01*
X12212500Y-7652500D02*
X12182500Y-7682500D01*
X12225000Y-10625000D02*
X12255000Y-10655000D01*
X12255000Y-10625000D02*
X12225000Y-10655000D01*
X12365000Y-6155000D02*
X12395000Y-6185000D01*
X12395000Y-6155000D02*
X12365000Y-6185000D01*
X12425000Y-9325000D02*
X12455000Y-9355000D01*
X12455000Y-9325000D02*
X12425000Y-9355000D01*
X12675000Y-8295000D02*
X12705000Y-8325000D01*
X12705000Y-8295000D02*
X12675000Y-8325000D01*
X12685000Y-8635000D02*
X12715000Y-8665000D01*
X12715000Y-8635000D02*
X12685000Y-8665000D01*
X12687500Y-10447500D02*
X12717500Y-10477500D01*
X12717500Y-10447500D02*
X12687500Y-10477500D01*
X12725000Y-7435000D02*
X12755000Y-7465000D01*
X12755000Y-7435000D02*
X12725000Y-7465000D01*
X12825000Y-7515000D02*
X12855000Y-7545000D01*
X12855000Y-7515000D02*
X12825000Y-7545000D01*
X12925000Y-8565000D02*
X12955000Y-8595000D01*
X12955000Y-8565000D02*
X12925000Y-8595000D01*
X12947500Y-10477500D02*
X12977500Y-10507500D01*
X12977500Y-10477500D02*
X12947500Y-10507500D01*
X13100000Y-7070000D02*
X13130000Y-7100000D01*
X13130000Y-7070000D02*
X13100000Y-7100000D01*
X13185000Y-7355000D02*
X13215000Y-7385000D01*
X13215000Y-7355000D02*
X13185000Y-7385000D01*
X13215000Y-9425000D02*
X13245000Y-9455000D01*
X13245000Y-9425000D02*
X13215000Y-9455000D01*
X13235000Y-8475000D02*
X13265000Y-8505000D01*
X13265000Y-8475000D02*
X13235000Y-8505000D01*
X13380000Y-6295000D02*
X13410000Y-6325000D01*
X13410000Y-6295000D02*
X13380000Y-6325000D01*
X13725000Y-10345000D02*
X13755000Y-10375000D01*
X13755000Y-10345000D02*
X13725000Y-10375000D01*
X13745000Y-9060000D02*
X13775000Y-9090000D01*
X13775000Y-9060000D02*
X13745000Y-9090000D01*
X13865000Y-9070000D02*
X13895000Y-9100000D01*
X13895000Y-9070000D02*
X13865000Y-9100000D01*
X13900000Y-9195000D02*
X13930000Y-9225000D01*
X13930000Y-9195000D02*
X13900000Y-9225000D01*
X13927500Y-9762500D02*
X13957500Y-9792500D01*
X13957500Y-9762500D02*
X13927500Y-9792500D01*
X13982500Y-9077500D02*
X14012500Y-9107500D01*
X14012500Y-9077500D02*
X13982500Y-9107500D01*
X14100000Y-9085000D02*
X14130000Y-9115000D01*
X14130000Y-9085000D02*
X14100000Y-9115000D01*
X14122500Y-11355000D02*
X14152500Y-11385000D01*
X14152500Y-11355000D02*
X14122500Y-11385000D01*
X14215000Y-7385000D02*
X14245000Y-7415000D01*
X14245000Y-7385000D02*
X14215000Y-7415000D01*
X14250000Y-9080000D02*
X14280000Y-9110000D01*
X14280000Y-9080000D02*
X14250000Y-9110000D01*
X14360000Y-9082500D02*
X14390000Y-9112500D01*
X14390000Y-9082500D02*
X14360000Y-9112500D01*
X14525000Y-9270000D02*
X14555000Y-9300000D01*
X14555000Y-9270000D02*
X14525000Y-9300000D01*
X14600000Y-9112500D02*
X14630000Y-9142500D01*
X14630000Y-9112500D02*
X14600000Y-9142500D01*
X14612500Y-9375000D02*
X14642500Y-9405000D01*
X14642500Y-9375000D02*
X14612500Y-9405000D01*
X14697500Y-9472500D02*
X14727500Y-9502500D01*
X14727500Y-9472500D02*
X14697500Y-9502500D01*
X14850000Y-7215000D02*
X14880000Y-7245000D01*
X14880000Y-7215000D02*
X14850000Y-7245000D01*
X14927500Y-6752500D02*
X14957500Y-6782500D01*
X14957500Y-6752500D02*
X14927500Y-6782500D01*
X14940000Y-7220000D02*
X14970000Y-7250000D01*
X14970000Y-7220000D02*
X14940000Y-7250000D01*
X15032500Y-9620000D02*
X15062500Y-9650000D01*
X15062500Y-9620000D02*
X15032500Y-9650000D01*
X15035000Y-7220000D02*
X15065000Y-7250000D01*
X15065000Y-7220000D02*
X15035000Y-7250000D01*
X15095000Y-9465000D02*
X15125000Y-9495000D01*
X15125000Y-9465000D02*
X15095000Y-9495000D01*
X15112500Y-6757500D02*
X15142500Y-6787500D01*
X15142500Y-6757500D02*
X15112500Y-6787500D01*
X15120000Y-7195000D02*
X15150000Y-7225000D01*
X15150000Y-7195000D02*
X15120000Y-7225000D01*
X15292500Y-6770000D02*
X15322500Y-6800000D01*
X15322500Y-6770000D02*
X15292500Y-6800000D01*
X15402500Y-9545000D02*
X15432500Y-9575000D01*
X15432500Y-9545000D02*
X15402500Y-9575000D01*
X15435000Y-9395000D02*
X15465000Y-9425000D01*
X15465000Y-9395000D02*
X15435000Y-9425000D01*
X15460000Y-6747500D02*
X15490000Y-6777500D01*
X15490000Y-6747500D02*
X15460000Y-6777500D01*
X15577500Y-6927500D02*
X15607500Y-6957500D01*
X15607500Y-6927500D02*
X15577500Y-6957500D01*
X15577500Y-8742500D02*
X15607500Y-8772500D01*
X15607500Y-8742500D02*
X15577500Y-8772500D01*
X15585000Y-9540000D02*
X15615000Y-9570000D01*
X15615000Y-9540000D02*
X15585000Y-9570000D01*
X15647500Y-9252500D02*
X15677500Y-9282500D01*
X15677500Y-9252500D02*
X15647500Y-9282500D01*
X15670000Y-8370000D02*
X15700000Y-8400000D01*
X15700000Y-8370000D02*
X15670000Y-8400000D01*
X15682500Y-8452500D02*
X15712500Y-8482500D01*
X15712500Y-8452500D02*
X15682500Y-8482500D01*
X15685000Y-8580000D02*
X15715000Y-8610000D01*
X15715000Y-8580000D02*
X15685000Y-8610000D01*
X15775000Y-8735000D02*
X15805000Y-8765000D01*
X15805000Y-8735000D02*
X15775000Y-8765000D01*
X15970000Y-10540000D02*
X16000000Y-10570000D01*
X16000000Y-10540000D02*
X15970000Y-10570000D01*
X16025000Y-8835000D02*
X16055000Y-8865000D01*
X16055000Y-8835000D02*
X16025000Y-8865000D01*
X16050000Y-10625000D02*
X16080000Y-10655000D01*
X16080000Y-10625000D02*
X16050000Y-10655000D01*
X16190000Y-10590000D02*
X16220000Y-10620000D01*
X16220000Y-10590000D02*
X16190000Y-10620000D01*
X16305000Y-10740000D02*
X16335000Y-10770000D01*
X16335000Y-10740000D02*
X16305000Y-10770000D01*
X16330000Y-10550000D02*
X16360000Y-10580000D01*
X16360000Y-10550000D02*
X16330000Y-10580000D01*
X16377500Y-9145000D02*
X16407500Y-9175000D01*
X16407500Y-9145000D02*
X16377500Y-9175000D01*
X16420000Y-10030000D02*
X16450000Y-10060000D01*
X16450000Y-10030000D02*
X16420000Y-10060000D01*
X16425000Y-9570000D02*
X16455000Y-9600000D01*
X16455000Y-9570000D02*
X16425000Y-9600000D01*
X16445000Y-8775000D02*
X16475000Y-8805000D01*
X16475000Y-8775000D02*
X16445000Y-8805000D01*
X16575000Y-9760000D02*
X16605000Y-9790000D01*
X16605000Y-9760000D02*
X16575000Y-9790000D01*
X16580000Y-9670000D02*
X16610000Y-9700000D01*
X16610000Y-9670000D02*
X16580000Y-9700000D01*
X16595000Y-9045000D02*
X16625000Y-9075000D01*
X16625000Y-9045000D02*
X16595000Y-9075000D01*
X16625000Y-9125000D02*
X16655000Y-9155000D01*
X16655000Y-9125000D02*
X16625000Y-9155000D01*
X16705000Y-9205000D02*
X16735000Y-9235000D01*
X16735000Y-9205000D02*
X16705000Y-9235000D01*
X16755000Y-9515000D02*
X16785000Y-9545000D01*
X16785000Y-9515000D02*
X16755000Y-9545000D01*
X16765000Y-9825000D02*
X16795000Y-9855000D01*
X16795000Y-9825000D02*
X16765000Y-9855000D01*
X16790000Y-9367500D02*
X16820000Y-9397500D01*
X16820000Y-9367500D02*
X16790000Y-9397500D01*
X16825000Y-9900000D02*
X16855000Y-9930000D01*
X16855000Y-9900000D02*
X16825000Y-9930000D01*
X16825000Y-10125000D02*
X16855000Y-10155000D01*
X16855000Y-10125000D02*
X16825000Y-10155000D01*
X16847500Y-9475000D02*
X16877500Y-9505000D01*
X16877500Y-9475000D02*
X16847500Y-9505000D01*
X16875000Y-8805000D02*
X16905000Y-8835000D01*
X16905000Y-8805000D02*
X16875000Y-8835000D01*
X16880000Y-9100000D02*
X16910000Y-9130000D01*
X16910000Y-9100000D02*
X16880000Y-9130000D01*
X16920000Y-9865000D02*
X16950000Y-9895000D01*
X16950000Y-9865000D02*
X16920000Y-9895000D01*
X16925000Y-8965000D02*
X16955000Y-8995000D01*
X16955000Y-8965000D02*
X16925000Y-8995000D01*
X16990000Y-10162500D02*
X17020000Y-10192500D01*
X17020000Y-10162500D02*
X16990000Y-10192500D01*
X17015000Y-8905000D02*
X17045000Y-8935000D01*
X17045000Y-8905000D02*
X17015000Y-8935000D01*
X17025000Y-9235000D02*
X17055000Y-9265000D01*
X17055000Y-9235000D02*
X17025000Y-9265000D01*
X17030000Y-9335000D02*
X17060000Y-9365000D01*
X17060000Y-9335000D02*
X17030000Y-9365000D01*
X17030000Y-9425000D02*
X17060000Y-9455000D01*
X17060000Y-9425000D02*
X17030000Y-9455000D01*
X17060000Y-8800000D02*
X17090000Y-8830000D01*
X17090000Y-8800000D02*
X17060000Y-8830000D01*
X17100000Y-10555000D02*
X17130000Y-10585000D01*
X17130000Y-10555000D02*
X17100000Y-10585000D01*
X17135000Y-9235000D02*
X17165000Y-9265000D01*
X17165000Y-9235000D02*
X17135000Y-9265000D01*
X17135000Y-9325000D02*
X17165000Y-9355000D01*
X17165000Y-9325000D02*
X17135000Y-9355000D01*
X17135000Y-9425000D02*
X17165000Y-9455000D01*
X17165000Y-9425000D02*
X17135000Y-9455000D01*
X17170000Y-6990000D02*
X17200000Y-7020000D01*
X17200000Y-6990000D02*
X17170000Y-7020000D01*
X17190000Y-10685000D02*
X17220000Y-10715000D01*
X17220000Y-10685000D02*
X17190000Y-10715000D01*
X17235000Y-9235000D02*
X17265000Y-9265000D01*
X17265000Y-9235000D02*
X17235000Y-9265000D01*
X17235000Y-9330000D02*
X17265000Y-9360000D01*
X17265000Y-9330000D02*
X17235000Y-9360000D01*
X17235000Y-9420000D02*
X17265000Y-9450000D01*
X17265000Y-9420000D02*
X17235000Y-9450000D01*
X17265000Y-10545000D02*
X17295000Y-10575000D01*
X17295000Y-10545000D02*
X17265000Y-10575000D01*
X17285000Y-8885000D02*
X17315000Y-8915000D01*
X17315000Y-8885000D02*
X17285000Y-8915000D01*
X17325000Y-8965000D02*
X17355000Y-8995000D01*
X17355000Y-8965000D02*
X17325000Y-8995000D01*
X17400000Y-10695000D02*
X17430000Y-10725000D01*
X17430000Y-10695000D02*
X17400000Y-10725000D01*
X17405000Y-10605000D02*
X17435000Y-10635000D01*
X17435000Y-10605000D02*
X17405000Y-10635000D01*
X17410000Y-9105000D02*
X17440000Y-9135000D01*
X17440000Y-9105000D02*
X17410000Y-9135000D01*
X17460000Y-6642500D02*
X17490000Y-6672500D01*
X17490000Y-6642500D02*
X17460000Y-6672500D01*
X17465000Y-7475000D02*
X17495000Y-7505000D01*
X17495000Y-7475000D02*
X17465000Y-7505000D01*
X17470000Y-9880000D02*
X17500000Y-9910000D01*
X17500000Y-9880000D02*
X17470000Y-9910000D01*
X17485000Y-9970000D02*
X17515000Y-10000000D01*
X17515000Y-9970000D02*
X17485000Y-10000000D01*
X17500000Y-9370000D02*
X17530000Y-9400000D01*
X17530000Y-9370000D02*
X17500000Y-9400000D01*
X17525000Y-10550000D02*
X17555000Y-10580000D01*
X17555000Y-10550000D02*
X17525000Y-10580000D01*
X17585000Y-9245000D02*
X17615000Y-9275000D01*
X17615000Y-9245000D02*
X17585000Y-9275000D01*
X17685000Y-6651250D02*
X17715000Y-6681250D01*
X17715000Y-6651250D02*
X17685000Y-6681250D01*
X17755000Y-9870000D02*
X17785000Y-9900000D01*
X17785000Y-9870000D02*
X17755000Y-9900000D01*
X17810000Y-9595000D02*
X17840000Y-9625000D01*
X17840000Y-9595000D02*
X17810000Y-9625000D01*
X17810000Y-9780000D02*
X17840000Y-9810000D01*
X17840000Y-9780000D02*
X17810000Y-9810000D01*
X17815000Y-8935000D02*
X17845000Y-8965000D01*
X17845000Y-8935000D02*
X17815000Y-8965000D01*
X17830000Y-9177500D02*
X17860000Y-9207500D01*
X17860000Y-9177500D02*
X17830000Y-9207500D01*
X18025000Y-9745000D02*
X18055000Y-9775000D01*
X18055000Y-9745000D02*
X18025000Y-9775000D01*
X18090000Y-9815000D02*
X18120000Y-9845000D01*
X18120000Y-9815000D02*
X18090000Y-9845000D01*
X18135000Y-8475000D02*
X18165000Y-8505000D01*
X18165000Y-8475000D02*
X18135000Y-8505000D01*
X18415000Y-8347500D02*
X18445000Y-8377500D01*
X18445000Y-8347500D02*
X18415000Y-8377500D01*
X18417500Y-8235000D02*
X18447500Y-8265000D01*
X18447500Y-8235000D02*
X18417500Y-8265000D01*
X18417500Y-8435000D02*
X18447500Y-8465000D01*
X18447500Y-8435000D02*
X18417500Y-8465000D01*
X18525000Y-9027500D02*
X18555000Y-9057500D01*
X18555000Y-9027500D02*
X18525000Y-9057500D01*
X18547500Y-8597500D02*
X18577500Y-8627500D01*
X18577500Y-8597500D02*
X18547500Y-8627500D01*
X18632500Y-10395000D02*
X18662500Y-10425000D01*
X18662500Y-10395000D02*
X18632500Y-10425000D01*
X18665000Y-9020000D02*
X18695000Y-9050000D01*
X18695000Y-9020000D02*
X18665000Y-9050000D01*
X18687500Y-9542500D02*
X18717500Y-9572500D01*
X18717500Y-9542500D02*
X18687500Y-9572500D01*
X18697500Y-8615000D02*
X18727500Y-8645000D01*
X18727500Y-8615000D02*
X18697500Y-8645000D01*
X18780000Y-9025000D02*
X18810000Y-9055000D01*
X18810000Y-9025000D02*
X18780000Y-9055000D01*
X18802500Y-8620000D02*
X18832500Y-8650000D01*
X18832500Y-8620000D02*
X18802500Y-8650000D01*
X18890000Y-9025000D02*
X18920000Y-9055000D01*
X18920000Y-9025000D02*
X18890000Y-9055000D01*
X18900000Y-8637500D02*
X18930000Y-8667500D01*
X18930000Y-8637500D02*
X18900000Y-8667500D01*
X19000000Y-9027500D02*
X19030000Y-9057500D01*
X19030000Y-9027500D02*
X19000000Y-9057500D01*
X19007500Y-8642500D02*
X19037500Y-8672500D01*
X19037500Y-8642500D02*
X19007500Y-8672500D01*
X19120000Y-8632500D02*
X19150000Y-8662500D01*
X19150000Y-8632500D02*
X19120000Y-8662500D01*
X19120000Y-9032500D02*
X19150000Y-9062500D01*
X19150000Y-9032500D02*
X19120000Y-9062500D01*
X19570000Y-10430000D02*
X19600000Y-10460000D01*
X19600000Y-10430000D02*
X19570000Y-10460000D01*
X19730000Y-7510000D02*
X19760000Y-7540000D01*
X19760000Y-7510000D02*
X19730000Y-7540000D01*
X19745000Y-6985000D02*
X19775000Y-7015000D01*
X19775000Y-6985000D02*
X19745000Y-7015000D01*
X12262000Y-6042500D02*
G75*
G03*
X12182000Y-6042500I-40000J0D01*
G01*
X12182000Y-6042500D02*
G75*
G03*
X12262000Y-6042500I40000J0D01*
G01*
X12516000Y-6042500D02*
G75*
G03*
X12436000Y-6042500I-40000J0D01*
G01*
X12436000Y-6042500D02*
G75*
G03*
X12516000Y-6042500I40000J0D01*
G01*
X12770000Y-6042500D02*
G75*
G03*
X12690000Y-6042500I-40000J0D01*
G01*
X12690000Y-6042500D02*
G75*
G03*
X12770000Y-6042500I40000J0D01*
G01*
X13258000Y-11030000D02*
X13258000Y-11130000D01*
X13208000Y-11080000D02*
X13308000Y-11080000D01*
X13362000Y-9950000D02*
X13362000Y-10050000D01*
X13312000Y-10000000D02*
X13412000Y-10000000D01*
X13512000Y-11030000D02*
X13512000Y-11130000D01*
X13462000Y-11080000D02*
X13562000Y-11080000D01*
X13616000Y-9950000D02*
X13616000Y-10050000D01*
X13566000Y-10000000D02*
X13666000Y-10000000D01*
X13766000Y-11030000D02*
X13766000Y-11130000D01*
X13716000Y-11080000D02*
X13816000Y-11080000D01*
X13870000Y-9950000D02*
X13870000Y-10050000D01*
X13820000Y-10000000D02*
X13920000Y-10000000D01*
X14020000Y-11030000D02*
X14020000Y-11130000D01*
X13970000Y-11080000D02*
X14070000Y-11080000D01*
X14124000Y-9950000D02*
X14124000Y-10050000D01*
X14074000Y-10000000D02*
X14174000Y-10000000D01*
X14274000Y-11030000D02*
X14274000Y-11130000D01*
X14224000Y-11080000D02*
X14324000Y-11080000D01*
X14378000Y-9950000D02*
X14378000Y-10050000D01*
X14328000Y-10000000D02*
X14428000Y-10000000D01*
X14528000Y-11030000D02*
X14528000Y-11130000D01*
X14478000Y-11080000D02*
X14578000Y-11080000D01*
X19620000Y-6636000D02*
X19620000Y-6736000D01*
X19570000Y-6686000D02*
X19670000Y-6686000D01*
X19620000Y-6890000D02*
X19620000Y-6990000D01*
X19570000Y-6940000D02*
X19670000Y-6940000D01*
X19620000Y-7144000D02*
X19620000Y-7244000D01*
X19570000Y-7194000D02*
X19670000Y-7194000D01*
X19620000Y-7398000D02*
X19620000Y-7498000D01*
X19570000Y-7448000D02*
X19670000Y-7448000D01*
X19632500Y-9995000D02*
X19632500Y-10095000D01*
X19582500Y-10045000D02*
X19682500Y-10045000D01*
X19632500Y-10245000D02*
X19632500Y-10345000D01*
X19582500Y-10295000D02*
X19682500Y-10295000D01*
D13*
X16234695Y-10884195D02*
X16234695Y-10795805D01*
X16146305Y-10795805D01*
X16146305Y-10884195D01*
X16234695Y-10884195D01*
X17358695Y-10884195D02*
X17358695Y-10795805D01*
X17270305Y-10795805D01*
X17270305Y-10884195D01*
X17358695Y-10884195D01*
D14*
X11605000Y-11780000D02*
X11680000Y-11705000D01*
X11605000Y-11630000D01*
X11530000Y-11705000D01*
X11605000Y-11780000D01*
X11610000Y-10885000D02*
X11685000Y-10810000D01*
X11610000Y-10735000D01*
X11535000Y-10810000D01*
X11610000Y-10885000D01*
D15*
X16109500Y-11159000D02*
X16271500Y-11321000D01*
X16271500Y-11159000D02*
X16109500Y-11321000D01*
X16271500Y-11240000D02*
G75*
G03*
X16109500Y-11240000I-81000J0D01*
G01*
X16109500Y-11240000D02*
G75*
G03*
X16271500Y-11240000I81000J0D01*
G01*
X17233500Y-11159000D02*
X17395500Y-11321000D01*
X17395500Y-11159000D02*
X17233500Y-11321000D01*
X17395500Y-11240000D02*
G75*
G03*
X17233500Y-11240000I-81000J0D01*
G01*
X17233500Y-11240000D02*
G75*
G03*
X17395500Y-11240000I81000J0D01*
G01*
D16*
X11265000Y-11365000D02*
X11435000Y-11535000D01*
X11435000Y-11365000D02*
X11265000Y-11535000D01*
X11350000Y-11365000D02*
X11350000Y-11535000D01*
X11265000Y-11450000D02*
X11435000Y-11450000D01*
X11265000Y-11875000D02*
X11435000Y-12045000D01*
X11435000Y-11875000D02*
X11265000Y-12045000D01*
X11350000Y-11875000D02*
X11350000Y-12045000D01*
X11265000Y-11960000D02*
X11435000Y-11960000D01*
X11270000Y-10470000D02*
X11440000Y-10640000D01*
X11440000Y-10470000D02*
X11270000Y-10640000D01*
X11355000Y-10470000D02*
X11355000Y-10640000D01*
X11270000Y-10555000D02*
X11440000Y-10555000D01*
X11270000Y-10980000D02*
X11440000Y-11150000D01*
X11440000Y-10980000D02*
X11270000Y-11150000D01*
X11355000Y-10980000D02*
X11355000Y-11150000D01*
X11270000Y-11065000D02*
X11440000Y-11065000D01*
X11775000Y-11365000D02*
X11945000Y-11535000D01*
X11945000Y-11365000D02*
X11775000Y-11535000D01*
X11860000Y-11365000D02*
X11860000Y-11535000D01*
X11775000Y-11450000D02*
X11945000Y-11450000D01*
X11775000Y-11875000D02*
X11945000Y-12045000D01*
X11945000Y-11875000D02*
X11775000Y-12045000D01*
X11860000Y-11875000D02*
X11860000Y-12045000D01*
X11775000Y-11960000D02*
X11945000Y-11960000D01*
X11780000Y-10470000D02*
X11950000Y-10640000D01*
X11950000Y-10470000D02*
X11780000Y-10640000D01*
X11865000Y-10470000D02*
X11865000Y-10640000D01*
X11780000Y-10555000D02*
X11950000Y-10555000D01*
X11780000Y-10980000D02*
X11950000Y-11150000D01*
X11950000Y-10980000D02*
X11780000Y-11150000D01*
X11865000Y-10980000D02*
X11865000Y-11150000D01*
X11780000Y-11065000D02*
X11950000Y-11065000D01*
D11*
X9902672Y-12698389D02*
X9902672Y-12498389D01*
X9902672Y-12498389D02*
X9950291Y-12498389D01*
X9950291Y-12498389D02*
X9978862Y-12507913D01*
X9978862Y-12507913D02*
X9997910Y-12526960D01*
X9997910Y-12526960D02*
X10007434Y-12546008D01*
X10007434Y-12546008D02*
X10016958Y-12584103D01*
X10016958Y-12584103D02*
X10016958Y-12612674D01*
X10016958Y-12612674D02*
X10007434Y-12650770D01*
X10007434Y-12650770D02*
X9997910Y-12669817D01*
X9997910Y-12669817D02*
X9978862Y-12688865D01*
X9978862Y-12688865D02*
X9950291Y-12698389D01*
X9950291Y-12698389D02*
X9902672Y-12698389D01*
X10102672Y-12698389D02*
X10102672Y-12565055D01*
X10102672Y-12603151D02*
X10112196Y-12584103D01*
X10112196Y-12584103D02*
X10121719Y-12574579D01*
X10121719Y-12574579D02*
X10140767Y-12565055D01*
X10140767Y-12565055D02*
X10159815Y-12565055D01*
X10226481Y-12698389D02*
X10226481Y-12565055D01*
X10226481Y-12498389D02*
X10216958Y-12507913D01*
X10216958Y-12507913D02*
X10226481Y-12517436D01*
X10226481Y-12517436D02*
X10236005Y-12507913D01*
X10236005Y-12507913D02*
X10226481Y-12498389D01*
X10226481Y-12498389D02*
X10226481Y-12517436D01*
X10350291Y-12698389D02*
X10331243Y-12688865D01*
X10331243Y-12688865D02*
X10321719Y-12669817D01*
X10321719Y-12669817D02*
X10321719Y-12498389D01*
X10455053Y-12698389D02*
X10436005Y-12688865D01*
X10436005Y-12688865D02*
X10426481Y-12669817D01*
X10426481Y-12669817D02*
X10426481Y-12498389D01*
X10683624Y-12698389D02*
X10683624Y-12498389D01*
X10683624Y-12498389D02*
X10750291Y-12641246D01*
X10750291Y-12641246D02*
X10816958Y-12498389D01*
X10816958Y-12498389D02*
X10816958Y-12698389D01*
X10997910Y-12698389D02*
X10997910Y-12593627D01*
X10997910Y-12593627D02*
X10988386Y-12574579D01*
X10988386Y-12574579D02*
X10969339Y-12565055D01*
X10969339Y-12565055D02*
X10931243Y-12565055D01*
X10931243Y-12565055D02*
X10912196Y-12574579D01*
X10997910Y-12688865D02*
X10978862Y-12698389D01*
X10978862Y-12698389D02*
X10931243Y-12698389D01*
X10931243Y-12698389D02*
X10912196Y-12688865D01*
X10912196Y-12688865D02*
X10902672Y-12669817D01*
X10902672Y-12669817D02*
X10902672Y-12650770D01*
X10902672Y-12650770D02*
X10912196Y-12631722D01*
X10912196Y-12631722D02*
X10931243Y-12622198D01*
X10931243Y-12622198D02*
X10978862Y-12622198D01*
X10978862Y-12622198D02*
X10997910Y-12612674D01*
X11093148Y-12565055D02*
X11093148Y-12765055D01*
X11093148Y-12574579D02*
X11112196Y-12565055D01*
X11112196Y-12565055D02*
X11150291Y-12565055D01*
X11150291Y-12565055D02*
X11169339Y-12574579D01*
X11169339Y-12574579D02*
X11178862Y-12584103D01*
X11178862Y-12584103D02*
X11188386Y-12603151D01*
X11188386Y-12603151D02*
X11188386Y-12660293D01*
X11188386Y-12660293D02*
X11178862Y-12679341D01*
X11178862Y-12679341D02*
X11169339Y-12688865D01*
X11169339Y-12688865D02*
X11150291Y-12698389D01*
X11150291Y-12698389D02*
X11112196Y-12698389D01*
X11112196Y-12698389D02*
X11093148Y-12688865D01*
X11274100Y-12679341D02*
X11283624Y-12688865D01*
X11283624Y-12688865D02*
X11274100Y-12698389D01*
X11274100Y-12698389D02*
X11264577Y-12688865D01*
X11264577Y-12688865D02*
X11274100Y-12679341D01*
X11274100Y-12679341D02*
X11274100Y-12698389D01*
X11274100Y-12574579D02*
X11283624Y-12584103D01*
X11283624Y-12584103D02*
X11274100Y-12593627D01*
X11274100Y-12593627D02*
X11264577Y-12584103D01*
X11264577Y-12584103D02*
X11274100Y-12574579D01*
X11274100Y-12574579D02*
X11274100Y-12593627D01*
D12*
X9611895Y-13011905D02*
X9641895Y-13041905D01*
X9641895Y-13011905D02*
X9611895Y-13041905D01*
D11*
X9940767Y-12918389D02*
X9959815Y-12918389D01*
X9959815Y-12918389D02*
X9978862Y-12927913D01*
X9978862Y-12927913D02*
X9988386Y-12937436D01*
X9988386Y-12937436D02*
X9997910Y-12956484D01*
X9997910Y-12956484D02*
X10007434Y-12994579D01*
X10007434Y-12994579D02*
X10007434Y-13042198D01*
X10007434Y-13042198D02*
X9997910Y-13080293D01*
X9997910Y-13080293D02*
X9988386Y-13099341D01*
X9988386Y-13099341D02*
X9978862Y-13108865D01*
X9978862Y-13108865D02*
X9959815Y-13118389D01*
X9959815Y-13118389D02*
X9940767Y-13118389D01*
X9940767Y-13118389D02*
X9921719Y-13108865D01*
X9921719Y-13108865D02*
X9912196Y-13099341D01*
X9912196Y-13099341D02*
X9902672Y-13080293D01*
X9902672Y-13080293D02*
X9893148Y-13042198D01*
X9893148Y-13042198D02*
X9893148Y-12994579D01*
X9893148Y-12994579D02*
X9902672Y-12956484D01*
X9902672Y-12956484D02*
X9912196Y-12937436D01*
X9912196Y-12937436D02*
X9921719Y-12927913D01*
X9921719Y-12927913D02*
X9940767Y-12918389D01*
X10093148Y-13099341D02*
X10102672Y-13108865D01*
X10102672Y-13108865D02*
X10093148Y-13118389D01*
X10093148Y-13118389D02*
X10083624Y-13108865D01*
X10083624Y-13108865D02*
X10093148Y-13099341D01*
X10093148Y-13099341D02*
X10093148Y-13118389D01*
X10169339Y-12918389D02*
X10293148Y-12918389D01*
X10293148Y-12918389D02*
X10226481Y-12994579D01*
X10226481Y-12994579D02*
X10255053Y-12994579D01*
X10255053Y-12994579D02*
X10274100Y-13004103D01*
X10274100Y-13004103D02*
X10283624Y-13013627D01*
X10283624Y-13013627D02*
X10293148Y-13032674D01*
X10293148Y-13032674D02*
X10293148Y-13080293D01*
X10293148Y-13080293D02*
X10283624Y-13099341D01*
X10283624Y-13099341D02*
X10274100Y-13108865D01*
X10274100Y-13108865D02*
X10255053Y-13118389D01*
X10255053Y-13118389D02*
X10197910Y-13118389D01*
X10197910Y-13118389D02*
X10178862Y-13108865D01*
X10178862Y-13108865D02*
X10169339Y-13099341D01*
X10416958Y-12918389D02*
X10436005Y-12918389D01*
X10436005Y-12918389D02*
X10455053Y-12927913D01*
X10455053Y-12927913D02*
X10464577Y-12937436D01*
X10464577Y-12937436D02*
X10474100Y-12956484D01*
X10474100Y-12956484D02*
X10483624Y-12994579D01*
X10483624Y-12994579D02*
X10483624Y-13042198D01*
X10483624Y-13042198D02*
X10474100Y-13080293D01*
X10474100Y-13080293D02*
X10464577Y-13099341D01*
X10464577Y-13099341D02*
X10455053Y-13108865D01*
X10455053Y-13108865D02*
X10436005Y-13118389D01*
X10436005Y-13118389D02*
X10416958Y-13118389D01*
X10416958Y-13118389D02*
X10397910Y-13108865D01*
X10397910Y-13108865D02*
X10388386Y-13099341D01*
X10388386Y-13099341D02*
X10378862Y-13080293D01*
X10378862Y-13080293D02*
X10369339Y-13042198D01*
X10369339Y-13042198D02*
X10369339Y-12994579D01*
X10369339Y-12994579D02*
X10378862Y-12956484D01*
X10378862Y-12956484D02*
X10388386Y-12937436D01*
X10388386Y-12937436D02*
X10397910Y-12927913D01*
X10397910Y-12927913D02*
X10416958Y-12918389D01*
X10607434Y-12918389D02*
X10626481Y-12918389D01*
X10626481Y-12918389D02*
X10645529Y-12927913D01*
X10645529Y-12927913D02*
X10655053Y-12937436D01*
X10655053Y-12937436D02*
X10664577Y-12956484D01*
X10664577Y-12956484D02*
X10674100Y-12994579D01*
X10674100Y-12994579D02*
X10674100Y-13042198D01*
X10674100Y-13042198D02*
X10664577Y-13080293D01*
X10664577Y-13080293D02*
X10655053Y-13099341D01*
X10655053Y-13099341D02*
X10645529Y-13108865D01*
X10645529Y-13108865D02*
X10626481Y-13118389D01*
X10626481Y-13118389D02*
X10607434Y-13118389D01*
X10607434Y-13118389D02*
X10588386Y-13108865D01*
X10588386Y-13108865D02*
X10578862Y-13099341D01*
X10578862Y-13099341D02*
X10569339Y-13080293D01*
X10569339Y-13080293D02*
X10559815Y-13042198D01*
X10559815Y-13042198D02*
X10559815Y-12994579D01*
X10559815Y-12994579D02*
X10569339Y-12956484D01*
X10569339Y-12956484D02*
X10578862Y-12937436D01*
X10578862Y-12937436D02*
X10588386Y-12927913D01*
X10588386Y-12927913D02*
X10607434Y-12918389D01*
X10759815Y-13118389D02*
X10759815Y-12985055D01*
X10759815Y-13004103D02*
X10769339Y-12994579D01*
X10769339Y-12994579D02*
X10788386Y-12985055D01*
X10788386Y-12985055D02*
X10816958Y-12985055D01*
X10816958Y-12985055D02*
X10836005Y-12994579D01*
X10836005Y-12994579D02*
X10845529Y-13013627D01*
X10845529Y-13013627D02*
X10845529Y-13118389D01*
X10845529Y-13013627D02*
X10855053Y-12994579D01*
X10855053Y-12994579D02*
X10874100Y-12985055D01*
X10874100Y-12985055D02*
X10902672Y-12985055D01*
X10902672Y-12985055D02*
X10921720Y-12994579D01*
X10921720Y-12994579D02*
X10931243Y-13013627D01*
X10931243Y-13013627D02*
X10931243Y-13118389D01*
X11026481Y-13118389D02*
X11026481Y-12985055D01*
X11026481Y-13004103D02*
X11036005Y-12994579D01*
X11036005Y-12994579D02*
X11055053Y-12985055D01*
X11055053Y-12985055D02*
X11083624Y-12985055D01*
X11083624Y-12985055D02*
X11102672Y-12994579D01*
X11102672Y-12994579D02*
X11112196Y-13013627D01*
X11112196Y-13013627D02*
X11112196Y-13118389D01*
X11112196Y-13013627D02*
X11121720Y-12994579D01*
X11121720Y-12994579D02*
X11140767Y-12985055D01*
X11140767Y-12985055D02*
X11169339Y-12985055D01*
X11169339Y-12985055D02*
X11188386Y-12994579D01*
X11188386Y-12994579D02*
X11197910Y-13013627D01*
X11197910Y-13013627D02*
X11197910Y-13118389D01*
X11588386Y-12908865D02*
X11416958Y-13166008D01*
X11845529Y-12918389D02*
X11864577Y-12918389D01*
X11864577Y-12918389D02*
X11883624Y-12927913D01*
X11883624Y-12927913D02*
X11893148Y-12937436D01*
X11893148Y-12937436D02*
X11902672Y-12956484D01*
X11902672Y-12956484D02*
X11912196Y-12994579D01*
X11912196Y-12994579D02*
X11912196Y-13042198D01*
X11912196Y-13042198D02*
X11902672Y-13080293D01*
X11902672Y-13080293D02*
X11893148Y-13099341D01*
X11893148Y-13099341D02*
X11883624Y-13108865D01*
X11883624Y-13108865D02*
X11864577Y-13118389D01*
X11864577Y-13118389D02*
X11845529Y-13118389D01*
X11845529Y-13118389D02*
X11826481Y-13108865D01*
X11826481Y-13108865D02*
X11816958Y-13099341D01*
X11816958Y-13099341D02*
X11807434Y-13080293D01*
X11807434Y-13080293D02*
X11797910Y-13042198D01*
X11797910Y-13042198D02*
X11797910Y-12994579D01*
X11797910Y-12994579D02*
X11807434Y-12956484D01*
X11807434Y-12956484D02*
X11816958Y-12937436D01*
X11816958Y-12937436D02*
X11826481Y-12927913D01*
X11826481Y-12927913D02*
X11845529Y-12918389D01*
X11997910Y-13099341D02*
X12007434Y-13108865D01*
X12007434Y-13108865D02*
X11997910Y-13118389D01*
X11997910Y-13118389D02*
X11988386Y-13108865D01*
X11988386Y-13108865D02*
X11997910Y-13099341D01*
X11997910Y-13099341D02*
X11997910Y-13118389D01*
X12131243Y-12918389D02*
X12150291Y-12918389D01*
X12150291Y-12918389D02*
X12169339Y-12927913D01*
X12169339Y-12927913D02*
X12178862Y-12937436D01*
X12178862Y-12937436D02*
X12188386Y-12956484D01*
X12188386Y-12956484D02*
X12197910Y-12994579D01*
X12197910Y-12994579D02*
X12197910Y-13042198D01*
X12197910Y-13042198D02*
X12188386Y-13080293D01*
X12188386Y-13080293D02*
X12178862Y-13099341D01*
X12178862Y-13099341D02*
X12169339Y-13108865D01*
X12169339Y-13108865D02*
X12150291Y-13118389D01*
X12150291Y-13118389D02*
X12131243Y-13118389D01*
X12131243Y-13118389D02*
X12112196Y-13108865D01*
X12112196Y-13108865D02*
X12102672Y-13099341D01*
X12102672Y-13099341D02*
X12093148Y-13080293D01*
X12093148Y-13080293D02*
X12083624Y-13042198D01*
X12083624Y-13042198D02*
X12083624Y-12994579D01*
X12083624Y-12994579D02*
X12093148Y-12956484D01*
X12093148Y-12956484D02*
X12102672Y-12937436D01*
X12102672Y-12937436D02*
X12112196Y-12927913D01*
X12112196Y-12927913D02*
X12131243Y-12918389D01*
X12388386Y-13118389D02*
X12274101Y-13118389D01*
X12331243Y-13118389D02*
X12331243Y-12918389D01*
X12331243Y-12918389D02*
X12312196Y-12946960D01*
X12312196Y-12946960D02*
X12293148Y-12966008D01*
X12293148Y-12966008D02*
X12274101Y-12975532D01*
X12578862Y-13118389D02*
X12464577Y-13118389D01*
X12521720Y-13118389D02*
X12521720Y-12918389D01*
X12521720Y-12918389D02*
X12502672Y-12946960D01*
X12502672Y-12946960D02*
X12483624Y-12966008D01*
X12483624Y-12966008D02*
X12464577Y-12975532D01*
X12693148Y-13004103D02*
X12674101Y-12994579D01*
X12674101Y-12994579D02*
X12664577Y-12985055D01*
X12664577Y-12985055D02*
X12655053Y-12966008D01*
X12655053Y-12966008D02*
X12655053Y-12956484D01*
X12655053Y-12956484D02*
X12664577Y-12937436D01*
X12664577Y-12937436D02*
X12674101Y-12927913D01*
X12674101Y-12927913D02*
X12693148Y-12918389D01*
X12693148Y-12918389D02*
X12731243Y-12918389D01*
X12731243Y-12918389D02*
X12750291Y-12927913D01*
X12750291Y-12927913D02*
X12759815Y-12937436D01*
X12759815Y-12937436D02*
X12769339Y-12956484D01*
X12769339Y-12956484D02*
X12769339Y-12966008D01*
X12769339Y-12966008D02*
X12759815Y-12985055D01*
X12759815Y-12985055D02*
X12750291Y-12994579D01*
X12750291Y-12994579D02*
X12731243Y-13004103D01*
X12731243Y-13004103D02*
X12693148Y-13004103D01*
X12693148Y-13004103D02*
X12674101Y-13013627D01*
X12674101Y-13013627D02*
X12664577Y-13023151D01*
X12664577Y-13023151D02*
X12655053Y-13042198D01*
X12655053Y-13042198D02*
X12655053Y-13080293D01*
X12655053Y-13080293D02*
X12664577Y-13099341D01*
X12664577Y-13099341D02*
X12674101Y-13108865D01*
X12674101Y-13108865D02*
X12693148Y-13118389D01*
X12693148Y-13118389D02*
X12731243Y-13118389D01*
X12731243Y-13118389D02*
X12750291Y-13108865D01*
X12750291Y-13108865D02*
X12759815Y-13099341D01*
X12759815Y-13099341D02*
X12769339Y-13080293D01*
X12769339Y-13080293D02*
X12769339Y-13042198D01*
X12769339Y-13042198D02*
X12759815Y-13023151D01*
X12759815Y-13023151D02*
X12750291Y-13013627D01*
X12750291Y-13013627D02*
X12731243Y-13004103D01*
X12845529Y-12918389D02*
X12845529Y-12956484D01*
X12921720Y-12918389D02*
X12921720Y-12956484D01*
X13216958Y-13194579D02*
X13207434Y-13185055D01*
X13207434Y-13185055D02*
X13188386Y-13156484D01*
X13188386Y-13156484D02*
X13178863Y-13137436D01*
X13178863Y-13137436D02*
X13169339Y-13108865D01*
X13169339Y-13108865D02*
X13159815Y-13061246D01*
X13159815Y-13061246D02*
X13159815Y-13023151D01*
X13159815Y-13023151D02*
X13169339Y-12975532D01*
X13169339Y-12975532D02*
X13178863Y-12946960D01*
X13178863Y-12946960D02*
X13188386Y-12927913D01*
X13188386Y-12927913D02*
X13207434Y-12899341D01*
X13207434Y-12899341D02*
X13216958Y-12889817D01*
X13283624Y-12937436D02*
X13293148Y-12927913D01*
X13293148Y-12927913D02*
X13312196Y-12918389D01*
X13312196Y-12918389D02*
X13359815Y-12918389D01*
X13359815Y-12918389D02*
X13378863Y-12927913D01*
X13378863Y-12927913D02*
X13388386Y-12937436D01*
X13388386Y-12937436D02*
X13397910Y-12956484D01*
X13397910Y-12956484D02*
X13397910Y-12975532D01*
X13397910Y-12975532D02*
X13388386Y-13004103D01*
X13388386Y-13004103D02*
X13274101Y-13118389D01*
X13274101Y-13118389D02*
X13397910Y-13118389D01*
X13588386Y-13118389D02*
X13474101Y-13118389D01*
X13531243Y-13118389D02*
X13531243Y-12918389D01*
X13531243Y-12918389D02*
X13512196Y-12946960D01*
X13512196Y-12946960D02*
X13493148Y-12966008D01*
X13493148Y-12966008D02*
X13474101Y-12975532D01*
X13664577Y-12937436D02*
X13674101Y-12927913D01*
X13674101Y-12927913D02*
X13693148Y-12918389D01*
X13693148Y-12918389D02*
X13740767Y-12918389D01*
X13740767Y-12918389D02*
X13759815Y-12927913D01*
X13759815Y-12927913D02*
X13769339Y-12937436D01*
X13769339Y-12937436D02*
X13778863Y-12956484D01*
X13778863Y-12956484D02*
X13778863Y-12975532D01*
X13778863Y-12975532D02*
X13769339Y-13004103D01*
X13769339Y-13004103D02*
X13655053Y-13118389D01*
X13655053Y-13118389D02*
X13778863Y-13118389D01*
X14016958Y-13118389D02*
X14016958Y-12918389D01*
X14102672Y-13118389D02*
X14102672Y-13013627D01*
X14102672Y-13013627D02*
X14093148Y-12994579D01*
X14093148Y-12994579D02*
X14074101Y-12985055D01*
X14074101Y-12985055D02*
X14045529Y-12985055D01*
X14045529Y-12985055D02*
X14026482Y-12994579D01*
X14026482Y-12994579D02*
X14016958Y-13004103D01*
X14226482Y-13118389D02*
X14207434Y-13108865D01*
X14207434Y-13108865D02*
X14197910Y-13099341D01*
X14197910Y-13099341D02*
X14188386Y-13080293D01*
X14188386Y-13080293D02*
X14188386Y-13023151D01*
X14188386Y-13023151D02*
X14197910Y-13004103D01*
X14197910Y-13004103D02*
X14207434Y-12994579D01*
X14207434Y-12994579D02*
X14226482Y-12985055D01*
X14226482Y-12985055D02*
X14255053Y-12985055D01*
X14255053Y-12985055D02*
X14274101Y-12994579D01*
X14274101Y-12994579D02*
X14283625Y-13004103D01*
X14283625Y-13004103D02*
X14293148Y-13023151D01*
X14293148Y-13023151D02*
X14293148Y-13080293D01*
X14293148Y-13080293D02*
X14283625Y-13099341D01*
X14283625Y-13099341D02*
X14274101Y-13108865D01*
X14274101Y-13108865D02*
X14255053Y-13118389D01*
X14255053Y-13118389D02*
X14226482Y-13118389D01*
X14407434Y-13118389D02*
X14388386Y-13108865D01*
X14388386Y-13108865D02*
X14378863Y-13089817D01*
X14378863Y-13089817D02*
X14378863Y-12918389D01*
X14559815Y-13108865D02*
X14540767Y-13118389D01*
X14540767Y-13118389D02*
X14502672Y-13118389D01*
X14502672Y-13118389D02*
X14483625Y-13108865D01*
X14483625Y-13108865D02*
X14474101Y-13089817D01*
X14474101Y-13089817D02*
X14474101Y-13013627D01*
X14474101Y-13013627D02*
X14483625Y-12994579D01*
X14483625Y-12994579D02*
X14502672Y-12985055D01*
X14502672Y-12985055D02*
X14540767Y-12985055D01*
X14540767Y-12985055D02*
X14559815Y-12994579D01*
X14559815Y-12994579D02*
X14569339Y-13013627D01*
X14569339Y-13013627D02*
X14569339Y-13032674D01*
X14569339Y-13032674D02*
X14474101Y-13051722D01*
X14645529Y-13108865D02*
X14664577Y-13118389D01*
X14664577Y-13118389D02*
X14702672Y-13118389D01*
X14702672Y-13118389D02*
X14721720Y-13108865D01*
X14721720Y-13108865D02*
X14731244Y-13089817D01*
X14731244Y-13089817D02*
X14731244Y-13080293D01*
X14731244Y-13080293D02*
X14721720Y-13061246D01*
X14721720Y-13061246D02*
X14702672Y-13051722D01*
X14702672Y-13051722D02*
X14674101Y-13051722D01*
X14674101Y-13051722D02*
X14655053Y-13042198D01*
X14655053Y-13042198D02*
X14645529Y-13023151D01*
X14645529Y-13023151D02*
X14645529Y-13013627D01*
X14645529Y-13013627D02*
X14655053Y-12994579D01*
X14655053Y-12994579D02*
X14674101Y-12985055D01*
X14674101Y-12985055D02*
X14702672Y-12985055D01*
X14702672Y-12985055D02*
X14721720Y-12994579D01*
X14797910Y-13194579D02*
X14807434Y-13185055D01*
X14807434Y-13185055D02*
X14826482Y-13156484D01*
X14826482Y-13156484D02*
X14836006Y-13137436D01*
X14836006Y-13137436D02*
X14845529Y-13108865D01*
X14845529Y-13108865D02*
X14855053Y-13061246D01*
X14855053Y-13061246D02*
X14855053Y-13023151D01*
X14855053Y-13023151D02*
X14845529Y-12975532D01*
X14845529Y-12975532D02*
X14836006Y-12946960D01*
X14836006Y-12946960D02*
X14826482Y-12927913D01*
X14826482Y-12927913D02*
X14807434Y-12899341D01*
X14807434Y-12899341D02*
X14797910Y-12889817D01*
D12*
X9641895Y-13290905D02*
G75*
G03*
X9561895Y-13290905I-40000J0D01*
G01*
X9561895Y-13290905D02*
G75*
G03*
X9641895Y-13290905I40000J0D01*
G01*
D11*
X9940767Y-13182389D02*
X9959815Y-13182389D01*
X9959815Y-13182389D02*
X9978862Y-13191913D01*
X9978862Y-13191913D02*
X9988386Y-13201436D01*
X9988386Y-13201436D02*
X9997910Y-13220484D01*
X9997910Y-13220484D02*
X10007434Y-13258579D01*
X10007434Y-13258579D02*
X10007434Y-13306198D01*
X10007434Y-13306198D02*
X9997910Y-13344293D01*
X9997910Y-13344293D02*
X9988386Y-13363341D01*
X9988386Y-13363341D02*
X9978862Y-13372865D01*
X9978862Y-13372865D02*
X9959815Y-13382389D01*
X9959815Y-13382389D02*
X9940767Y-13382389D01*
X9940767Y-13382389D02*
X9921719Y-13372865D01*
X9921719Y-13372865D02*
X9912196Y-13363341D01*
X9912196Y-13363341D02*
X9902672Y-13344293D01*
X9902672Y-13344293D02*
X9893148Y-13306198D01*
X9893148Y-13306198D02*
X9893148Y-13258579D01*
X9893148Y-13258579D02*
X9902672Y-13220484D01*
X9902672Y-13220484D02*
X9912196Y-13201436D01*
X9912196Y-13201436D02*
X9921719Y-13191913D01*
X9921719Y-13191913D02*
X9940767Y-13182389D01*
X10093148Y-13363341D02*
X10102672Y-13372865D01*
X10102672Y-13372865D02*
X10093148Y-13382389D01*
X10093148Y-13382389D02*
X10083624Y-13372865D01*
X10083624Y-13372865D02*
X10093148Y-13363341D01*
X10093148Y-13363341D02*
X10093148Y-13382389D01*
X10216958Y-13268103D02*
X10197910Y-13258579D01*
X10197910Y-13258579D02*
X10188386Y-13249055D01*
X10188386Y-13249055D02*
X10178862Y-13230008D01*
X10178862Y-13230008D02*
X10178862Y-13220484D01*
X10178862Y-13220484D02*
X10188386Y-13201436D01*
X10188386Y-13201436D02*
X10197910Y-13191913D01*
X10197910Y-13191913D02*
X10216958Y-13182389D01*
X10216958Y-13182389D02*
X10255053Y-13182389D01*
X10255053Y-13182389D02*
X10274100Y-13191913D01*
X10274100Y-13191913D02*
X10283624Y-13201436D01*
X10283624Y-13201436D02*
X10293148Y-13220484D01*
X10293148Y-13220484D02*
X10293148Y-13230008D01*
X10293148Y-13230008D02*
X10283624Y-13249055D01*
X10283624Y-13249055D02*
X10274100Y-13258579D01*
X10274100Y-13258579D02*
X10255053Y-13268103D01*
X10255053Y-13268103D02*
X10216958Y-13268103D01*
X10216958Y-13268103D02*
X10197910Y-13277627D01*
X10197910Y-13277627D02*
X10188386Y-13287151D01*
X10188386Y-13287151D02*
X10178862Y-13306198D01*
X10178862Y-13306198D02*
X10178862Y-13344293D01*
X10178862Y-13344293D02*
X10188386Y-13363341D01*
X10188386Y-13363341D02*
X10197910Y-13372865D01*
X10197910Y-13372865D02*
X10216958Y-13382389D01*
X10216958Y-13382389D02*
X10255053Y-13382389D01*
X10255053Y-13382389D02*
X10274100Y-13372865D01*
X10274100Y-13372865D02*
X10283624Y-13363341D01*
X10283624Y-13363341D02*
X10293148Y-13344293D01*
X10293148Y-13344293D02*
X10293148Y-13306198D01*
X10293148Y-13306198D02*
X10283624Y-13287151D01*
X10283624Y-13287151D02*
X10274100Y-13277627D01*
X10274100Y-13277627D02*
X10255053Y-13268103D01*
X10416958Y-13182389D02*
X10436005Y-13182389D01*
X10436005Y-13182389D02*
X10455053Y-13191913D01*
X10455053Y-13191913D02*
X10464577Y-13201436D01*
X10464577Y-13201436D02*
X10474100Y-13220484D01*
X10474100Y-13220484D02*
X10483624Y-13258579D01*
X10483624Y-13258579D02*
X10483624Y-13306198D01*
X10483624Y-13306198D02*
X10474100Y-13344293D01*
X10474100Y-13344293D02*
X10464577Y-13363341D01*
X10464577Y-13363341D02*
X10455053Y-13372865D01*
X10455053Y-13372865D02*
X10436005Y-13382389D01*
X10436005Y-13382389D02*
X10416958Y-13382389D01*
X10416958Y-13382389D02*
X10397910Y-13372865D01*
X10397910Y-13372865D02*
X10388386Y-13363341D01*
X10388386Y-13363341D02*
X10378862Y-13344293D01*
X10378862Y-13344293D02*
X10369339Y-13306198D01*
X10369339Y-13306198D02*
X10369339Y-13258579D01*
X10369339Y-13258579D02*
X10378862Y-13220484D01*
X10378862Y-13220484D02*
X10388386Y-13201436D01*
X10388386Y-13201436D02*
X10397910Y-13191913D01*
X10397910Y-13191913D02*
X10416958Y-13182389D01*
X10607434Y-13182389D02*
X10626481Y-13182389D01*
X10626481Y-13182389D02*
X10645529Y-13191913D01*
X10645529Y-13191913D02*
X10655053Y-13201436D01*
X10655053Y-13201436D02*
X10664577Y-13220484D01*
X10664577Y-13220484D02*
X10674100Y-13258579D01*
X10674100Y-13258579D02*
X10674100Y-13306198D01*
X10674100Y-13306198D02*
X10664577Y-13344293D01*
X10664577Y-13344293D02*
X10655053Y-13363341D01*
X10655053Y-13363341D02*
X10645529Y-13372865D01*
X10645529Y-13372865D02*
X10626481Y-13382389D01*
X10626481Y-13382389D02*
X10607434Y-13382389D01*
X10607434Y-13382389D02*
X10588386Y-13372865D01*
X10588386Y-13372865D02*
X10578862Y-13363341D01*
X10578862Y-13363341D02*
X10569339Y-13344293D01*
X10569339Y-13344293D02*
X10559815Y-13306198D01*
X10559815Y-13306198D02*
X10559815Y-13258579D01*
X10559815Y-13258579D02*
X10569339Y-13220484D01*
X10569339Y-13220484D02*
X10578862Y-13201436D01*
X10578862Y-13201436D02*
X10588386Y-13191913D01*
X10588386Y-13191913D02*
X10607434Y-13182389D01*
X10759815Y-13382389D02*
X10759815Y-13249055D01*
X10759815Y-13268103D02*
X10769339Y-13258579D01*
X10769339Y-13258579D02*
X10788386Y-13249055D01*
X10788386Y-13249055D02*
X10816958Y-13249055D01*
X10816958Y-13249055D02*
X10836005Y-13258579D01*
X10836005Y-13258579D02*
X10845529Y-13277627D01*
X10845529Y-13277627D02*
X10845529Y-13382389D01*
X10845529Y-13277627D02*
X10855053Y-13258579D01*
X10855053Y-13258579D02*
X10874100Y-13249055D01*
X10874100Y-13249055D02*
X10902672Y-13249055D01*
X10902672Y-13249055D02*
X10921720Y-13258579D01*
X10921720Y-13258579D02*
X10931243Y-13277627D01*
X10931243Y-13277627D02*
X10931243Y-13382389D01*
X11026481Y-13382389D02*
X11026481Y-13249055D01*
X11026481Y-13268103D02*
X11036005Y-13258579D01*
X11036005Y-13258579D02*
X11055053Y-13249055D01*
X11055053Y-13249055D02*
X11083624Y-13249055D01*
X11083624Y-13249055D02*
X11102672Y-13258579D01*
X11102672Y-13258579D02*
X11112196Y-13277627D01*
X11112196Y-13277627D02*
X11112196Y-13382389D01*
X11112196Y-13277627D02*
X11121720Y-13258579D01*
X11121720Y-13258579D02*
X11140767Y-13249055D01*
X11140767Y-13249055D02*
X11169339Y-13249055D01*
X11169339Y-13249055D02*
X11188386Y-13258579D01*
X11188386Y-13258579D02*
X11197910Y-13277627D01*
X11197910Y-13277627D02*
X11197910Y-13382389D01*
X11588386Y-13172865D02*
X11416958Y-13430008D01*
X11845529Y-13182389D02*
X11864577Y-13182389D01*
X11864577Y-13182389D02*
X11883624Y-13191913D01*
X11883624Y-13191913D02*
X11893148Y-13201436D01*
X11893148Y-13201436D02*
X11902672Y-13220484D01*
X11902672Y-13220484D02*
X11912196Y-13258579D01*
X11912196Y-13258579D02*
X11912196Y-13306198D01*
X11912196Y-13306198D02*
X11902672Y-13344293D01*
X11902672Y-13344293D02*
X11893148Y-13363341D01*
X11893148Y-13363341D02*
X11883624Y-13372865D01*
X11883624Y-13372865D02*
X11864577Y-13382389D01*
X11864577Y-13382389D02*
X11845529Y-13382389D01*
X11845529Y-13382389D02*
X11826481Y-13372865D01*
X11826481Y-13372865D02*
X11816958Y-13363341D01*
X11816958Y-13363341D02*
X11807434Y-13344293D01*
X11807434Y-13344293D02*
X11797910Y-13306198D01*
X11797910Y-13306198D02*
X11797910Y-13258579D01*
X11797910Y-13258579D02*
X11807434Y-13220484D01*
X11807434Y-13220484D02*
X11816958Y-13201436D01*
X11816958Y-13201436D02*
X11826481Y-13191913D01*
X11826481Y-13191913D02*
X11845529Y-13182389D01*
X11997910Y-13363341D02*
X12007434Y-13372865D01*
X12007434Y-13372865D02*
X11997910Y-13382389D01*
X11997910Y-13382389D02*
X11988386Y-13372865D01*
X11988386Y-13372865D02*
X11997910Y-13363341D01*
X11997910Y-13363341D02*
X11997910Y-13382389D01*
X12131243Y-13182389D02*
X12150291Y-13182389D01*
X12150291Y-13182389D02*
X12169339Y-13191913D01*
X12169339Y-13191913D02*
X12178862Y-13201436D01*
X12178862Y-13201436D02*
X12188386Y-13220484D01*
X12188386Y-13220484D02*
X12197910Y-13258579D01*
X12197910Y-13258579D02*
X12197910Y-13306198D01*
X12197910Y-13306198D02*
X12188386Y-13344293D01*
X12188386Y-13344293D02*
X12178862Y-13363341D01*
X12178862Y-13363341D02*
X12169339Y-13372865D01*
X12169339Y-13372865D02*
X12150291Y-13382389D01*
X12150291Y-13382389D02*
X12131243Y-13382389D01*
X12131243Y-13382389D02*
X12112196Y-13372865D01*
X12112196Y-13372865D02*
X12102672Y-13363341D01*
X12102672Y-13363341D02*
X12093148Y-13344293D01*
X12093148Y-13344293D02*
X12083624Y-13306198D01*
X12083624Y-13306198D02*
X12083624Y-13258579D01*
X12083624Y-13258579D02*
X12093148Y-13220484D01*
X12093148Y-13220484D02*
X12102672Y-13201436D01*
X12102672Y-13201436D02*
X12112196Y-13191913D01*
X12112196Y-13191913D02*
X12131243Y-13182389D01*
X12264577Y-13182389D02*
X12388386Y-13182389D01*
X12388386Y-13182389D02*
X12321720Y-13258579D01*
X12321720Y-13258579D02*
X12350291Y-13258579D01*
X12350291Y-13258579D02*
X12369339Y-13268103D01*
X12369339Y-13268103D02*
X12378862Y-13277627D01*
X12378862Y-13277627D02*
X12388386Y-13296674D01*
X12388386Y-13296674D02*
X12388386Y-13344293D01*
X12388386Y-13344293D02*
X12378862Y-13363341D01*
X12378862Y-13363341D02*
X12369339Y-13372865D01*
X12369339Y-13372865D02*
X12350291Y-13382389D01*
X12350291Y-13382389D02*
X12293148Y-13382389D01*
X12293148Y-13382389D02*
X12274101Y-13372865D01*
X12274101Y-13372865D02*
X12264577Y-13363341D01*
X12578862Y-13382389D02*
X12464577Y-13382389D01*
X12521720Y-13382389D02*
X12521720Y-13182389D01*
X12521720Y-13182389D02*
X12502672Y-13210960D01*
X12502672Y-13210960D02*
X12483624Y-13230008D01*
X12483624Y-13230008D02*
X12464577Y-13239532D01*
X12759815Y-13182389D02*
X12664577Y-13182389D01*
X12664577Y-13182389D02*
X12655053Y-13277627D01*
X12655053Y-13277627D02*
X12664577Y-13268103D01*
X12664577Y-13268103D02*
X12683624Y-13258579D01*
X12683624Y-13258579D02*
X12731243Y-13258579D01*
X12731243Y-13258579D02*
X12750291Y-13268103D01*
X12750291Y-13268103D02*
X12759815Y-13277627D01*
X12759815Y-13277627D02*
X12769339Y-13296674D01*
X12769339Y-13296674D02*
X12769339Y-13344293D01*
X12769339Y-13344293D02*
X12759815Y-13363341D01*
X12759815Y-13363341D02*
X12750291Y-13372865D01*
X12750291Y-13372865D02*
X12731243Y-13382389D01*
X12731243Y-13382389D02*
X12683624Y-13382389D01*
X12683624Y-13382389D02*
X12664577Y-13372865D01*
X12664577Y-13372865D02*
X12655053Y-13363341D01*
X12845529Y-13182389D02*
X12845529Y-13220484D01*
X12921720Y-13182389D02*
X12921720Y-13220484D01*
X13216958Y-13458579D02*
X13207434Y-13449055D01*
X13207434Y-13449055D02*
X13188386Y-13420484D01*
X13188386Y-13420484D02*
X13178863Y-13401436D01*
X13178863Y-13401436D02*
X13169339Y-13372865D01*
X13169339Y-13372865D02*
X13159815Y-13325246D01*
X13159815Y-13325246D02*
X13159815Y-13287151D01*
X13159815Y-13287151D02*
X13169339Y-13239532D01*
X13169339Y-13239532D02*
X13178863Y-13210960D01*
X13178863Y-13210960D02*
X13188386Y-13191913D01*
X13188386Y-13191913D02*
X13207434Y-13163341D01*
X13207434Y-13163341D02*
X13216958Y-13153817D01*
X13274101Y-13182389D02*
X13397910Y-13182389D01*
X13397910Y-13182389D02*
X13331243Y-13258579D01*
X13331243Y-13258579D02*
X13359815Y-13258579D01*
X13359815Y-13258579D02*
X13378863Y-13268103D01*
X13378863Y-13268103D02*
X13388386Y-13277627D01*
X13388386Y-13277627D02*
X13397910Y-13296674D01*
X13397910Y-13296674D02*
X13397910Y-13344293D01*
X13397910Y-13344293D02*
X13388386Y-13363341D01*
X13388386Y-13363341D02*
X13378863Y-13372865D01*
X13378863Y-13372865D02*
X13359815Y-13382389D01*
X13359815Y-13382389D02*
X13302672Y-13382389D01*
X13302672Y-13382389D02*
X13283624Y-13372865D01*
X13283624Y-13372865D02*
X13274101Y-13363341D01*
X13636005Y-13382389D02*
X13636005Y-13182389D01*
X13721720Y-13382389D02*
X13721720Y-13277627D01*
X13721720Y-13277627D02*
X13712196Y-13258579D01*
X13712196Y-13258579D02*
X13693148Y-13249055D01*
X13693148Y-13249055D02*
X13664577Y-13249055D01*
X13664577Y-13249055D02*
X13645529Y-13258579D01*
X13645529Y-13258579D02*
X13636005Y-13268103D01*
X13845529Y-13382389D02*
X13826482Y-13372865D01*
X13826482Y-13372865D02*
X13816958Y-13363341D01*
X13816958Y-13363341D02*
X13807434Y-13344293D01*
X13807434Y-13344293D02*
X13807434Y-13287151D01*
X13807434Y-13287151D02*
X13816958Y-13268103D01*
X13816958Y-13268103D02*
X13826482Y-13258579D01*
X13826482Y-13258579D02*
X13845529Y-13249055D01*
X13845529Y-13249055D02*
X13874101Y-13249055D01*
X13874101Y-13249055D02*
X13893148Y-13258579D01*
X13893148Y-13258579D02*
X13902672Y-13268103D01*
X13902672Y-13268103D02*
X13912196Y-13287151D01*
X13912196Y-13287151D02*
X13912196Y-13344293D01*
X13912196Y-13344293D02*
X13902672Y-13363341D01*
X13902672Y-13363341D02*
X13893148Y-13372865D01*
X13893148Y-13372865D02*
X13874101Y-13382389D01*
X13874101Y-13382389D02*
X13845529Y-13382389D01*
X14026482Y-13382389D02*
X14007434Y-13372865D01*
X14007434Y-13372865D02*
X13997910Y-13353817D01*
X13997910Y-13353817D02*
X13997910Y-13182389D01*
X14178863Y-13372865D02*
X14159815Y-13382389D01*
X14159815Y-13382389D02*
X14121720Y-13382389D01*
X14121720Y-13382389D02*
X14102672Y-13372865D01*
X14102672Y-13372865D02*
X14093148Y-13353817D01*
X14093148Y-13353817D02*
X14093148Y-13277627D01*
X14093148Y-13277627D02*
X14102672Y-13258579D01*
X14102672Y-13258579D02*
X14121720Y-13249055D01*
X14121720Y-13249055D02*
X14159815Y-13249055D01*
X14159815Y-13249055D02*
X14178863Y-13258579D01*
X14178863Y-13258579D02*
X14188386Y-13277627D01*
X14188386Y-13277627D02*
X14188386Y-13296674D01*
X14188386Y-13296674D02*
X14093148Y-13315722D01*
X14264577Y-13372865D02*
X14283625Y-13382389D01*
X14283625Y-13382389D02*
X14321720Y-13382389D01*
X14321720Y-13382389D02*
X14340767Y-13372865D01*
X14340767Y-13372865D02*
X14350291Y-13353817D01*
X14350291Y-13353817D02*
X14350291Y-13344293D01*
X14350291Y-13344293D02*
X14340767Y-13325246D01*
X14340767Y-13325246D02*
X14321720Y-13315722D01*
X14321720Y-13315722D02*
X14293148Y-13315722D01*
X14293148Y-13315722D02*
X14274101Y-13306198D01*
X14274101Y-13306198D02*
X14264577Y-13287151D01*
X14264577Y-13287151D02*
X14264577Y-13277627D01*
X14264577Y-13277627D02*
X14274101Y-13258579D01*
X14274101Y-13258579D02*
X14293148Y-13249055D01*
X14293148Y-13249055D02*
X14321720Y-13249055D01*
X14321720Y-13249055D02*
X14340767Y-13258579D01*
X14416958Y-13458579D02*
X14426482Y-13449055D01*
X14426482Y-13449055D02*
X14445529Y-13420484D01*
X14445529Y-13420484D02*
X14455053Y-13401436D01*
X14455053Y-13401436D02*
X14464577Y-13372865D01*
X14464577Y-13372865D02*
X14474101Y-13325246D01*
X14474101Y-13325246D02*
X14474101Y-13287151D01*
X14474101Y-13287151D02*
X14464577Y-13239532D01*
X14464577Y-13239532D02*
X14455053Y-13210960D01*
X14455053Y-13210960D02*
X14445529Y-13191913D01*
X14445529Y-13191913D02*
X14426482Y-13163341D01*
X14426482Y-13163341D02*
X14416958Y-13153817D01*
D12*
X9591895Y-13504905D02*
X9591895Y-13604905D01*
X9541895Y-13554905D02*
X9641895Y-13554905D01*
D11*
X10007434Y-13646389D02*
X9893148Y-13646389D01*
X9950291Y-13646389D02*
X9950291Y-13446389D01*
X9950291Y-13446389D02*
X9931243Y-13474960D01*
X9931243Y-13474960D02*
X9912196Y-13494008D01*
X9912196Y-13494008D02*
X9893148Y-13503532D01*
X10093148Y-13627341D02*
X10102672Y-13636865D01*
X10102672Y-13636865D02*
X10093148Y-13646389D01*
X10093148Y-13646389D02*
X10083624Y-13636865D01*
X10083624Y-13636865D02*
X10093148Y-13627341D01*
X10093148Y-13627341D02*
X10093148Y-13646389D01*
X10226481Y-13446389D02*
X10245529Y-13446389D01*
X10245529Y-13446389D02*
X10264577Y-13455913D01*
X10264577Y-13455913D02*
X10274100Y-13465436D01*
X10274100Y-13465436D02*
X10283624Y-13484484D01*
X10283624Y-13484484D02*
X10293148Y-13522579D01*
X10293148Y-13522579D02*
X10293148Y-13570198D01*
X10293148Y-13570198D02*
X10283624Y-13608293D01*
X10283624Y-13608293D02*
X10274100Y-13627341D01*
X10274100Y-13627341D02*
X10264577Y-13636865D01*
X10264577Y-13636865D02*
X10245529Y-13646389D01*
X10245529Y-13646389D02*
X10226481Y-13646389D01*
X10226481Y-13646389D02*
X10207434Y-13636865D01*
X10207434Y-13636865D02*
X10197910Y-13627341D01*
X10197910Y-13627341D02*
X10188386Y-13608293D01*
X10188386Y-13608293D02*
X10178862Y-13570198D01*
X10178862Y-13570198D02*
X10178862Y-13522579D01*
X10178862Y-13522579D02*
X10188386Y-13484484D01*
X10188386Y-13484484D02*
X10197910Y-13465436D01*
X10197910Y-13465436D02*
X10207434Y-13455913D01*
X10207434Y-13455913D02*
X10226481Y-13446389D01*
X10416958Y-13446389D02*
X10436005Y-13446389D01*
X10436005Y-13446389D02*
X10455053Y-13455913D01*
X10455053Y-13455913D02*
X10464577Y-13465436D01*
X10464577Y-13465436D02*
X10474100Y-13484484D01*
X10474100Y-13484484D02*
X10483624Y-13522579D01*
X10483624Y-13522579D02*
X10483624Y-13570198D01*
X10483624Y-13570198D02*
X10474100Y-13608293D01*
X10474100Y-13608293D02*
X10464577Y-13627341D01*
X10464577Y-13627341D02*
X10455053Y-13636865D01*
X10455053Y-13636865D02*
X10436005Y-13646389D01*
X10436005Y-13646389D02*
X10416958Y-13646389D01*
X10416958Y-13646389D02*
X10397910Y-13636865D01*
X10397910Y-13636865D02*
X10388386Y-13627341D01*
X10388386Y-13627341D02*
X10378862Y-13608293D01*
X10378862Y-13608293D02*
X10369339Y-13570198D01*
X10369339Y-13570198D02*
X10369339Y-13522579D01*
X10369339Y-13522579D02*
X10378862Y-13484484D01*
X10378862Y-13484484D02*
X10388386Y-13465436D01*
X10388386Y-13465436D02*
X10397910Y-13455913D01*
X10397910Y-13455913D02*
X10416958Y-13446389D01*
X10607434Y-13446389D02*
X10626481Y-13446389D01*
X10626481Y-13446389D02*
X10645529Y-13455913D01*
X10645529Y-13455913D02*
X10655053Y-13465436D01*
X10655053Y-13465436D02*
X10664577Y-13484484D01*
X10664577Y-13484484D02*
X10674100Y-13522579D01*
X10674100Y-13522579D02*
X10674100Y-13570198D01*
X10674100Y-13570198D02*
X10664577Y-13608293D01*
X10664577Y-13608293D02*
X10655053Y-13627341D01*
X10655053Y-13627341D02*
X10645529Y-13636865D01*
X10645529Y-13636865D02*
X10626481Y-13646389D01*
X10626481Y-13646389D02*
X10607434Y-13646389D01*
X10607434Y-13646389D02*
X10588386Y-13636865D01*
X10588386Y-13636865D02*
X10578862Y-13627341D01*
X10578862Y-13627341D02*
X10569339Y-13608293D01*
X10569339Y-13608293D02*
X10559815Y-13570198D01*
X10559815Y-13570198D02*
X10559815Y-13522579D01*
X10559815Y-13522579D02*
X10569339Y-13484484D01*
X10569339Y-13484484D02*
X10578862Y-13465436D01*
X10578862Y-13465436D02*
X10588386Y-13455913D01*
X10588386Y-13455913D02*
X10607434Y-13446389D01*
X10759815Y-13646389D02*
X10759815Y-13513055D01*
X10759815Y-13532103D02*
X10769339Y-13522579D01*
X10769339Y-13522579D02*
X10788386Y-13513055D01*
X10788386Y-13513055D02*
X10816958Y-13513055D01*
X10816958Y-13513055D02*
X10836005Y-13522579D01*
X10836005Y-13522579D02*
X10845529Y-13541627D01*
X10845529Y-13541627D02*
X10845529Y-13646389D01*
X10845529Y-13541627D02*
X10855053Y-13522579D01*
X10855053Y-13522579D02*
X10874100Y-13513055D01*
X10874100Y-13513055D02*
X10902672Y-13513055D01*
X10902672Y-13513055D02*
X10921720Y-13522579D01*
X10921720Y-13522579D02*
X10931243Y-13541627D01*
X10931243Y-13541627D02*
X10931243Y-13646389D01*
X11026481Y-13646389D02*
X11026481Y-13513055D01*
X11026481Y-13532103D02*
X11036005Y-13522579D01*
X11036005Y-13522579D02*
X11055053Y-13513055D01*
X11055053Y-13513055D02*
X11083624Y-13513055D01*
X11083624Y-13513055D02*
X11102672Y-13522579D01*
X11102672Y-13522579D02*
X11112196Y-13541627D01*
X11112196Y-13541627D02*
X11112196Y-13646389D01*
X11112196Y-13541627D02*
X11121720Y-13522579D01*
X11121720Y-13522579D02*
X11140767Y-13513055D01*
X11140767Y-13513055D02*
X11169339Y-13513055D01*
X11169339Y-13513055D02*
X11188386Y-13522579D01*
X11188386Y-13522579D02*
X11197910Y-13541627D01*
X11197910Y-13541627D02*
X11197910Y-13646389D01*
X11588386Y-13436865D02*
X11416958Y-13694008D01*
X11845529Y-13446389D02*
X11864577Y-13446389D01*
X11864577Y-13446389D02*
X11883624Y-13455913D01*
X11883624Y-13455913D02*
X11893148Y-13465436D01*
X11893148Y-13465436D02*
X11902672Y-13484484D01*
X11902672Y-13484484D02*
X11912196Y-13522579D01*
X11912196Y-13522579D02*
X11912196Y-13570198D01*
X11912196Y-13570198D02*
X11902672Y-13608293D01*
X11902672Y-13608293D02*
X11893148Y-13627341D01*
X11893148Y-13627341D02*
X11883624Y-13636865D01*
X11883624Y-13636865D02*
X11864577Y-13646389D01*
X11864577Y-13646389D02*
X11845529Y-13646389D01*
X11845529Y-13646389D02*
X11826481Y-13636865D01*
X11826481Y-13636865D02*
X11816958Y-13627341D01*
X11816958Y-13627341D02*
X11807434Y-13608293D01*
X11807434Y-13608293D02*
X11797910Y-13570198D01*
X11797910Y-13570198D02*
X11797910Y-13522579D01*
X11797910Y-13522579D02*
X11807434Y-13484484D01*
X11807434Y-13484484D02*
X11816958Y-13465436D01*
X11816958Y-13465436D02*
X11826481Y-13455913D01*
X11826481Y-13455913D02*
X11845529Y-13446389D01*
X11997910Y-13627341D02*
X12007434Y-13636865D01*
X12007434Y-13636865D02*
X11997910Y-13646389D01*
X11997910Y-13646389D02*
X11988386Y-13636865D01*
X11988386Y-13636865D02*
X11997910Y-13627341D01*
X11997910Y-13627341D02*
X11997910Y-13646389D01*
X12131243Y-13446389D02*
X12150291Y-13446389D01*
X12150291Y-13446389D02*
X12169339Y-13455913D01*
X12169339Y-13455913D02*
X12178862Y-13465436D01*
X12178862Y-13465436D02*
X12188386Y-13484484D01*
X12188386Y-13484484D02*
X12197910Y-13522579D01*
X12197910Y-13522579D02*
X12197910Y-13570198D01*
X12197910Y-13570198D02*
X12188386Y-13608293D01*
X12188386Y-13608293D02*
X12178862Y-13627341D01*
X12178862Y-13627341D02*
X12169339Y-13636865D01*
X12169339Y-13636865D02*
X12150291Y-13646389D01*
X12150291Y-13646389D02*
X12131243Y-13646389D01*
X12131243Y-13646389D02*
X12112196Y-13636865D01*
X12112196Y-13636865D02*
X12102672Y-13627341D01*
X12102672Y-13627341D02*
X12093148Y-13608293D01*
X12093148Y-13608293D02*
X12083624Y-13570198D01*
X12083624Y-13570198D02*
X12083624Y-13522579D01*
X12083624Y-13522579D02*
X12093148Y-13484484D01*
X12093148Y-13484484D02*
X12102672Y-13465436D01*
X12102672Y-13465436D02*
X12112196Y-13455913D01*
X12112196Y-13455913D02*
X12131243Y-13446389D01*
X12264577Y-13446389D02*
X12388386Y-13446389D01*
X12388386Y-13446389D02*
X12321720Y-13522579D01*
X12321720Y-13522579D02*
X12350291Y-13522579D01*
X12350291Y-13522579D02*
X12369339Y-13532103D01*
X12369339Y-13532103D02*
X12378862Y-13541627D01*
X12378862Y-13541627D02*
X12388386Y-13560674D01*
X12388386Y-13560674D02*
X12388386Y-13608293D01*
X12388386Y-13608293D02*
X12378862Y-13627341D01*
X12378862Y-13627341D02*
X12369339Y-13636865D01*
X12369339Y-13636865D02*
X12350291Y-13646389D01*
X12350291Y-13646389D02*
X12293148Y-13646389D01*
X12293148Y-13646389D02*
X12274101Y-13636865D01*
X12274101Y-13636865D02*
X12264577Y-13627341D01*
X12483624Y-13646389D02*
X12521720Y-13646389D01*
X12521720Y-13646389D02*
X12540767Y-13636865D01*
X12540767Y-13636865D02*
X12550291Y-13627341D01*
X12550291Y-13627341D02*
X12569339Y-13598770D01*
X12569339Y-13598770D02*
X12578862Y-13560674D01*
X12578862Y-13560674D02*
X12578862Y-13484484D01*
X12578862Y-13484484D02*
X12569339Y-13465436D01*
X12569339Y-13465436D02*
X12559815Y-13455913D01*
X12559815Y-13455913D02*
X12540767Y-13446389D01*
X12540767Y-13446389D02*
X12502672Y-13446389D01*
X12502672Y-13446389D02*
X12483624Y-13455913D01*
X12483624Y-13455913D02*
X12474101Y-13465436D01*
X12474101Y-13465436D02*
X12464577Y-13484484D01*
X12464577Y-13484484D02*
X12464577Y-13532103D01*
X12464577Y-13532103D02*
X12474101Y-13551151D01*
X12474101Y-13551151D02*
X12483624Y-13560674D01*
X12483624Y-13560674D02*
X12502672Y-13570198D01*
X12502672Y-13570198D02*
X12540767Y-13570198D01*
X12540767Y-13570198D02*
X12559815Y-13560674D01*
X12559815Y-13560674D02*
X12569339Y-13551151D01*
X12569339Y-13551151D02*
X12578862Y-13532103D01*
X12750291Y-13513055D02*
X12750291Y-13646389D01*
X12702672Y-13436865D02*
X12655053Y-13579722D01*
X12655053Y-13579722D02*
X12778862Y-13579722D01*
X12845529Y-13446389D02*
X12845529Y-13484484D01*
X12921720Y-13446389D02*
X12921720Y-13484484D01*
X13216958Y-13722579D02*
X13207434Y-13713055D01*
X13207434Y-13713055D02*
X13188386Y-13684484D01*
X13188386Y-13684484D02*
X13178863Y-13665436D01*
X13178863Y-13665436D02*
X13169339Y-13636865D01*
X13169339Y-13636865D02*
X13159815Y-13589246D01*
X13159815Y-13589246D02*
X13159815Y-13551151D01*
X13159815Y-13551151D02*
X13169339Y-13503532D01*
X13169339Y-13503532D02*
X13178863Y-13474960D01*
X13178863Y-13474960D02*
X13188386Y-13455913D01*
X13188386Y-13455913D02*
X13207434Y-13427341D01*
X13207434Y-13427341D02*
X13216958Y-13417817D01*
X13397910Y-13646389D02*
X13283624Y-13646389D01*
X13340767Y-13646389D02*
X13340767Y-13446389D01*
X13340767Y-13446389D02*
X13321720Y-13474960D01*
X13321720Y-13474960D02*
X13302672Y-13494008D01*
X13302672Y-13494008D02*
X13283624Y-13503532D01*
X13464577Y-13446389D02*
X13597910Y-13446389D01*
X13597910Y-13446389D02*
X13512196Y-13646389D01*
X13826482Y-13646389D02*
X13826482Y-13446389D01*
X13912196Y-13646389D02*
X13912196Y-13541627D01*
X13912196Y-13541627D02*
X13902672Y-13522579D01*
X13902672Y-13522579D02*
X13883625Y-13513055D01*
X13883625Y-13513055D02*
X13855053Y-13513055D01*
X13855053Y-13513055D02*
X13836005Y-13522579D01*
X13836005Y-13522579D02*
X13826482Y-13532103D01*
X14036005Y-13646389D02*
X14016958Y-13636865D01*
X14016958Y-13636865D02*
X14007434Y-13627341D01*
X14007434Y-13627341D02*
X13997910Y-13608293D01*
X13997910Y-13608293D02*
X13997910Y-13551151D01*
X13997910Y-13551151D02*
X14007434Y-13532103D01*
X14007434Y-13532103D02*
X14016958Y-13522579D01*
X14016958Y-13522579D02*
X14036005Y-13513055D01*
X14036005Y-13513055D02*
X14064577Y-13513055D01*
X14064577Y-13513055D02*
X14083625Y-13522579D01*
X14083625Y-13522579D02*
X14093148Y-13532103D01*
X14093148Y-13532103D02*
X14102672Y-13551151D01*
X14102672Y-13551151D02*
X14102672Y-13608293D01*
X14102672Y-13608293D02*
X14093148Y-13627341D01*
X14093148Y-13627341D02*
X14083625Y-13636865D01*
X14083625Y-13636865D02*
X14064577Y-13646389D01*
X14064577Y-13646389D02*
X14036005Y-13646389D01*
X14216958Y-13646389D02*
X14197910Y-13636865D01*
X14197910Y-13636865D02*
X14188386Y-13617817D01*
X14188386Y-13617817D02*
X14188386Y-13446389D01*
X14369339Y-13636865D02*
X14350291Y-13646389D01*
X14350291Y-13646389D02*
X14312196Y-13646389D01*
X14312196Y-13646389D02*
X14293148Y-13636865D01*
X14293148Y-13636865D02*
X14283625Y-13617817D01*
X14283625Y-13617817D02*
X14283625Y-13541627D01*
X14283625Y-13541627D02*
X14293148Y-13522579D01*
X14293148Y-13522579D02*
X14312196Y-13513055D01*
X14312196Y-13513055D02*
X14350291Y-13513055D01*
X14350291Y-13513055D02*
X14369339Y-13522579D01*
X14369339Y-13522579D02*
X14378863Y-13541627D01*
X14378863Y-13541627D02*
X14378863Y-13560674D01*
X14378863Y-13560674D02*
X14283625Y-13579722D01*
X14455053Y-13636865D02*
X14474101Y-13646389D01*
X14474101Y-13646389D02*
X14512196Y-13646389D01*
X14512196Y-13646389D02*
X14531244Y-13636865D01*
X14531244Y-13636865D02*
X14540767Y-13617817D01*
X14540767Y-13617817D02*
X14540767Y-13608293D01*
X14540767Y-13608293D02*
X14531244Y-13589246D01*
X14531244Y-13589246D02*
X14512196Y-13579722D01*
X14512196Y-13579722D02*
X14483625Y-13579722D01*
X14483625Y-13579722D02*
X14464577Y-13570198D01*
X14464577Y-13570198D02*
X14455053Y-13551151D01*
X14455053Y-13551151D02*
X14455053Y-13541627D01*
X14455053Y-13541627D02*
X14464577Y-13522579D01*
X14464577Y-13522579D02*
X14483625Y-13513055D01*
X14483625Y-13513055D02*
X14512196Y-13513055D01*
X14512196Y-13513055D02*
X14531244Y-13522579D01*
X14607434Y-13722579D02*
X14616958Y-13713055D01*
X14616958Y-13713055D02*
X14636006Y-13684484D01*
X14636006Y-13684484D02*
X14645529Y-13665436D01*
X14645529Y-13665436D02*
X14655053Y-13636865D01*
X14655053Y-13636865D02*
X14664577Y-13589246D01*
X14664577Y-13589246D02*
X14664577Y-13551151D01*
X14664577Y-13551151D02*
X14655053Y-13503532D01*
X14655053Y-13503532D02*
X14645529Y-13474960D01*
X14645529Y-13474960D02*
X14636006Y-13455913D01*
X14636006Y-13455913D02*
X14616958Y-13427341D01*
X14616958Y-13427341D02*
X14607434Y-13417817D01*
D13*
X9623590Y-13863100D02*
X9623590Y-13774710D01*
X9535200Y-13774710D01*
X9535200Y-13863100D01*
X9623590Y-13863100D01*
D11*
X10007434Y-13910389D02*
X9893148Y-13910389D01*
X9950291Y-13910389D02*
X9950291Y-13710389D01*
X9950291Y-13710389D02*
X9931243Y-13738960D01*
X9931243Y-13738960D02*
X9912196Y-13758008D01*
X9912196Y-13758008D02*
X9893148Y-13767532D01*
X10093148Y-13891341D02*
X10102672Y-13900865D01*
X10102672Y-13900865D02*
X10093148Y-13910389D01*
X10093148Y-13910389D02*
X10083624Y-13900865D01*
X10083624Y-13900865D02*
X10093148Y-13891341D01*
X10093148Y-13891341D02*
X10093148Y-13910389D01*
X10178862Y-13729436D02*
X10188386Y-13719913D01*
X10188386Y-13719913D02*
X10207434Y-13710389D01*
X10207434Y-13710389D02*
X10255053Y-13710389D01*
X10255053Y-13710389D02*
X10274100Y-13719913D01*
X10274100Y-13719913D02*
X10283624Y-13729436D01*
X10283624Y-13729436D02*
X10293148Y-13748484D01*
X10293148Y-13748484D02*
X10293148Y-13767532D01*
X10293148Y-13767532D02*
X10283624Y-13796103D01*
X10283624Y-13796103D02*
X10169339Y-13910389D01*
X10169339Y-13910389D02*
X10293148Y-13910389D01*
X10474100Y-13710389D02*
X10378862Y-13710389D01*
X10378862Y-13710389D02*
X10369339Y-13805627D01*
X10369339Y-13805627D02*
X10378862Y-13796103D01*
X10378862Y-13796103D02*
X10397910Y-13786579D01*
X10397910Y-13786579D02*
X10445529Y-13786579D01*
X10445529Y-13786579D02*
X10464577Y-13796103D01*
X10464577Y-13796103D02*
X10474100Y-13805627D01*
X10474100Y-13805627D02*
X10483624Y-13824674D01*
X10483624Y-13824674D02*
X10483624Y-13872293D01*
X10483624Y-13872293D02*
X10474100Y-13891341D01*
X10474100Y-13891341D02*
X10464577Y-13900865D01*
X10464577Y-13900865D02*
X10445529Y-13910389D01*
X10445529Y-13910389D02*
X10397910Y-13910389D01*
X10397910Y-13910389D02*
X10378862Y-13900865D01*
X10378862Y-13900865D02*
X10369339Y-13891341D01*
X10607434Y-13710389D02*
X10626481Y-13710389D01*
X10626481Y-13710389D02*
X10645529Y-13719913D01*
X10645529Y-13719913D02*
X10655053Y-13729436D01*
X10655053Y-13729436D02*
X10664577Y-13748484D01*
X10664577Y-13748484D02*
X10674100Y-13786579D01*
X10674100Y-13786579D02*
X10674100Y-13834198D01*
X10674100Y-13834198D02*
X10664577Y-13872293D01*
X10664577Y-13872293D02*
X10655053Y-13891341D01*
X10655053Y-13891341D02*
X10645529Y-13900865D01*
X10645529Y-13900865D02*
X10626481Y-13910389D01*
X10626481Y-13910389D02*
X10607434Y-13910389D01*
X10607434Y-13910389D02*
X10588386Y-13900865D01*
X10588386Y-13900865D02*
X10578862Y-13891341D01*
X10578862Y-13891341D02*
X10569339Y-13872293D01*
X10569339Y-13872293D02*
X10559815Y-13834198D01*
X10559815Y-13834198D02*
X10559815Y-13786579D01*
X10559815Y-13786579D02*
X10569339Y-13748484D01*
X10569339Y-13748484D02*
X10578862Y-13729436D01*
X10578862Y-13729436D02*
X10588386Y-13719913D01*
X10588386Y-13719913D02*
X10607434Y-13710389D01*
X10759815Y-13910389D02*
X10759815Y-13777055D01*
X10759815Y-13796103D02*
X10769339Y-13786579D01*
X10769339Y-13786579D02*
X10788386Y-13777055D01*
X10788386Y-13777055D02*
X10816958Y-13777055D01*
X10816958Y-13777055D02*
X10836005Y-13786579D01*
X10836005Y-13786579D02*
X10845529Y-13805627D01*
X10845529Y-13805627D02*
X10845529Y-13910389D01*
X10845529Y-13805627D02*
X10855053Y-13786579D01*
X10855053Y-13786579D02*
X10874100Y-13777055D01*
X10874100Y-13777055D02*
X10902672Y-13777055D01*
X10902672Y-13777055D02*
X10921720Y-13786579D01*
X10921720Y-13786579D02*
X10931243Y-13805627D01*
X10931243Y-13805627D02*
X10931243Y-13910389D01*
X11026481Y-13910389D02*
X11026481Y-13777055D01*
X11026481Y-13796103D02*
X11036005Y-13786579D01*
X11036005Y-13786579D02*
X11055053Y-13777055D01*
X11055053Y-13777055D02*
X11083624Y-13777055D01*
X11083624Y-13777055D02*
X11102672Y-13786579D01*
X11102672Y-13786579D02*
X11112196Y-13805627D01*
X11112196Y-13805627D02*
X11112196Y-13910389D01*
X11112196Y-13805627D02*
X11121720Y-13786579D01*
X11121720Y-13786579D02*
X11140767Y-13777055D01*
X11140767Y-13777055D02*
X11169339Y-13777055D01*
X11169339Y-13777055D02*
X11188386Y-13786579D01*
X11188386Y-13786579D02*
X11197910Y-13805627D01*
X11197910Y-13805627D02*
X11197910Y-13910389D01*
X11588386Y-13700865D02*
X11416958Y-13958008D01*
X11845529Y-13710389D02*
X11864577Y-13710389D01*
X11864577Y-13710389D02*
X11883624Y-13719913D01*
X11883624Y-13719913D02*
X11893148Y-13729436D01*
X11893148Y-13729436D02*
X11902672Y-13748484D01*
X11902672Y-13748484D02*
X11912196Y-13786579D01*
X11912196Y-13786579D02*
X11912196Y-13834198D01*
X11912196Y-13834198D02*
X11902672Y-13872293D01*
X11902672Y-13872293D02*
X11893148Y-13891341D01*
X11893148Y-13891341D02*
X11883624Y-13900865D01*
X11883624Y-13900865D02*
X11864577Y-13910389D01*
X11864577Y-13910389D02*
X11845529Y-13910389D01*
X11845529Y-13910389D02*
X11826481Y-13900865D01*
X11826481Y-13900865D02*
X11816958Y-13891341D01*
X11816958Y-13891341D02*
X11807434Y-13872293D01*
X11807434Y-13872293D02*
X11797910Y-13834198D01*
X11797910Y-13834198D02*
X11797910Y-13786579D01*
X11797910Y-13786579D02*
X11807434Y-13748484D01*
X11807434Y-13748484D02*
X11816958Y-13729436D01*
X11816958Y-13729436D02*
X11826481Y-13719913D01*
X11826481Y-13719913D02*
X11845529Y-13710389D01*
X11997910Y-13891341D02*
X12007434Y-13900865D01*
X12007434Y-13900865D02*
X11997910Y-13910389D01*
X11997910Y-13910389D02*
X11988386Y-13900865D01*
X11988386Y-13900865D02*
X11997910Y-13891341D01*
X11997910Y-13891341D02*
X11997910Y-13910389D01*
X12131243Y-13710389D02*
X12150291Y-13710389D01*
X12150291Y-13710389D02*
X12169339Y-13719913D01*
X12169339Y-13719913D02*
X12178862Y-13729436D01*
X12178862Y-13729436D02*
X12188386Y-13748484D01*
X12188386Y-13748484D02*
X12197910Y-13786579D01*
X12197910Y-13786579D02*
X12197910Y-13834198D01*
X12197910Y-13834198D02*
X12188386Y-13872293D01*
X12188386Y-13872293D02*
X12178862Y-13891341D01*
X12178862Y-13891341D02*
X12169339Y-13900865D01*
X12169339Y-13900865D02*
X12150291Y-13910389D01*
X12150291Y-13910389D02*
X12131243Y-13910389D01*
X12131243Y-13910389D02*
X12112196Y-13900865D01*
X12112196Y-13900865D02*
X12102672Y-13891341D01*
X12102672Y-13891341D02*
X12093148Y-13872293D01*
X12093148Y-13872293D02*
X12083624Y-13834198D01*
X12083624Y-13834198D02*
X12083624Y-13786579D01*
X12083624Y-13786579D02*
X12093148Y-13748484D01*
X12093148Y-13748484D02*
X12102672Y-13729436D01*
X12102672Y-13729436D02*
X12112196Y-13719913D01*
X12112196Y-13719913D02*
X12131243Y-13710389D01*
X12369339Y-13777055D02*
X12369339Y-13910389D01*
X12321720Y-13700865D02*
X12274101Y-13843722D01*
X12274101Y-13843722D02*
X12397910Y-13843722D01*
X12483624Y-13910389D02*
X12521720Y-13910389D01*
X12521720Y-13910389D02*
X12540767Y-13900865D01*
X12540767Y-13900865D02*
X12550291Y-13891341D01*
X12550291Y-13891341D02*
X12569339Y-13862770D01*
X12569339Y-13862770D02*
X12578862Y-13824674D01*
X12578862Y-13824674D02*
X12578862Y-13748484D01*
X12578862Y-13748484D02*
X12569339Y-13729436D01*
X12569339Y-13729436D02*
X12559815Y-13719913D01*
X12559815Y-13719913D02*
X12540767Y-13710389D01*
X12540767Y-13710389D02*
X12502672Y-13710389D01*
X12502672Y-13710389D02*
X12483624Y-13719913D01*
X12483624Y-13719913D02*
X12474101Y-13729436D01*
X12474101Y-13729436D02*
X12464577Y-13748484D01*
X12464577Y-13748484D02*
X12464577Y-13796103D01*
X12464577Y-13796103D02*
X12474101Y-13815151D01*
X12474101Y-13815151D02*
X12483624Y-13824674D01*
X12483624Y-13824674D02*
X12502672Y-13834198D01*
X12502672Y-13834198D02*
X12540767Y-13834198D01*
X12540767Y-13834198D02*
X12559815Y-13824674D01*
X12559815Y-13824674D02*
X12569339Y-13815151D01*
X12569339Y-13815151D02*
X12578862Y-13796103D01*
X12655053Y-13729436D02*
X12664577Y-13719913D01*
X12664577Y-13719913D02*
X12683624Y-13710389D01*
X12683624Y-13710389D02*
X12731243Y-13710389D01*
X12731243Y-13710389D02*
X12750291Y-13719913D01*
X12750291Y-13719913D02*
X12759815Y-13729436D01*
X12759815Y-13729436D02*
X12769339Y-13748484D01*
X12769339Y-13748484D02*
X12769339Y-13767532D01*
X12769339Y-13767532D02*
X12759815Y-13796103D01*
X12759815Y-13796103D02*
X12645529Y-13910389D01*
X12645529Y-13910389D02*
X12769339Y-13910389D01*
X12845529Y-13710389D02*
X12845529Y-13748484D01*
X12921720Y-13710389D02*
X12921720Y-13748484D01*
X13216958Y-13986579D02*
X13207434Y-13977055D01*
X13207434Y-13977055D02*
X13188386Y-13948484D01*
X13188386Y-13948484D02*
X13178863Y-13929436D01*
X13178863Y-13929436D02*
X13169339Y-13900865D01*
X13169339Y-13900865D02*
X13159815Y-13853246D01*
X13159815Y-13853246D02*
X13159815Y-13815151D01*
X13159815Y-13815151D02*
X13169339Y-13767532D01*
X13169339Y-13767532D02*
X13178863Y-13738960D01*
X13178863Y-13738960D02*
X13188386Y-13719913D01*
X13188386Y-13719913D02*
X13207434Y-13691341D01*
X13207434Y-13691341D02*
X13216958Y-13681817D01*
X13283624Y-13729436D02*
X13293148Y-13719913D01*
X13293148Y-13719913D02*
X13312196Y-13710389D01*
X13312196Y-13710389D02*
X13359815Y-13710389D01*
X13359815Y-13710389D02*
X13378863Y-13719913D01*
X13378863Y-13719913D02*
X13388386Y-13729436D01*
X13388386Y-13729436D02*
X13397910Y-13748484D01*
X13397910Y-13748484D02*
X13397910Y-13767532D01*
X13397910Y-13767532D02*
X13388386Y-13796103D01*
X13388386Y-13796103D02*
X13274101Y-13910389D01*
X13274101Y-13910389D02*
X13397910Y-13910389D01*
X13636005Y-13910389D02*
X13636005Y-13710389D01*
X13721720Y-13910389D02*
X13721720Y-13805627D01*
X13721720Y-13805627D02*
X13712196Y-13786579D01*
X13712196Y-13786579D02*
X13693148Y-13777055D01*
X13693148Y-13777055D02*
X13664577Y-13777055D01*
X13664577Y-13777055D02*
X13645529Y-13786579D01*
X13645529Y-13786579D02*
X13636005Y-13796103D01*
X13845529Y-13910389D02*
X13826482Y-13900865D01*
X13826482Y-13900865D02*
X13816958Y-13891341D01*
X13816958Y-13891341D02*
X13807434Y-13872293D01*
X13807434Y-13872293D02*
X13807434Y-13815151D01*
X13807434Y-13815151D02*
X13816958Y-13796103D01*
X13816958Y-13796103D02*
X13826482Y-13786579D01*
X13826482Y-13786579D02*
X13845529Y-13777055D01*
X13845529Y-13777055D02*
X13874101Y-13777055D01*
X13874101Y-13777055D02*
X13893148Y-13786579D01*
X13893148Y-13786579D02*
X13902672Y-13796103D01*
X13902672Y-13796103D02*
X13912196Y-13815151D01*
X13912196Y-13815151D02*
X13912196Y-13872293D01*
X13912196Y-13872293D02*
X13902672Y-13891341D01*
X13902672Y-13891341D02*
X13893148Y-13900865D01*
X13893148Y-13900865D02*
X13874101Y-13910389D01*
X13874101Y-13910389D02*
X13845529Y-13910389D01*
X14026482Y-13910389D02*
X14007434Y-13900865D01*
X14007434Y-13900865D02*
X13997910Y-13881817D01*
X13997910Y-13881817D02*
X13997910Y-13710389D01*
X14178863Y-13900865D02*
X14159815Y-13910389D01*
X14159815Y-13910389D02*
X14121720Y-13910389D01*
X14121720Y-13910389D02*
X14102672Y-13900865D01*
X14102672Y-13900865D02*
X14093148Y-13881817D01*
X14093148Y-13881817D02*
X14093148Y-13805627D01*
X14093148Y-13805627D02*
X14102672Y-13786579D01*
X14102672Y-13786579D02*
X14121720Y-13777055D01*
X14121720Y-13777055D02*
X14159815Y-13777055D01*
X14159815Y-13777055D02*
X14178863Y-13786579D01*
X14178863Y-13786579D02*
X14188386Y-13805627D01*
X14188386Y-13805627D02*
X14188386Y-13824674D01*
X14188386Y-13824674D02*
X14093148Y-13843722D01*
X14264577Y-13900865D02*
X14283625Y-13910389D01*
X14283625Y-13910389D02*
X14321720Y-13910389D01*
X14321720Y-13910389D02*
X14340767Y-13900865D01*
X14340767Y-13900865D02*
X14350291Y-13881817D01*
X14350291Y-13881817D02*
X14350291Y-13872293D01*
X14350291Y-13872293D02*
X14340767Y-13853246D01*
X14340767Y-13853246D02*
X14321720Y-13843722D01*
X14321720Y-13843722D02*
X14293148Y-13843722D01*
X14293148Y-13843722D02*
X14274101Y-13834198D01*
X14274101Y-13834198D02*
X14264577Y-13815151D01*
X14264577Y-13815151D02*
X14264577Y-13805627D01*
X14264577Y-13805627D02*
X14274101Y-13786579D01*
X14274101Y-13786579D02*
X14293148Y-13777055D01*
X14293148Y-13777055D02*
X14321720Y-13777055D01*
X14321720Y-13777055D02*
X14340767Y-13786579D01*
X14416958Y-13986579D02*
X14426482Y-13977055D01*
X14426482Y-13977055D02*
X14445529Y-13948484D01*
X14445529Y-13948484D02*
X14455053Y-13929436D01*
X14455053Y-13929436D02*
X14464577Y-13900865D01*
X14464577Y-13900865D02*
X14474101Y-13853246D01*
X14474101Y-13853246D02*
X14474101Y-13815151D01*
X14474101Y-13815151D02*
X14464577Y-13767532D01*
X14464577Y-13767532D02*
X14455053Y-13738960D01*
X14455053Y-13738960D02*
X14445529Y-13719913D01*
X14445529Y-13719913D02*
X14426482Y-13691341D01*
X14426482Y-13691341D02*
X14416958Y-13681817D01*
D14*
X9566895Y-14157905D02*
X9641895Y-14082905D01*
X9566895Y-14007905D01*
X9491895Y-14082905D01*
X9566895Y-14157905D01*
D11*
X10007434Y-14174389D02*
X9893148Y-14174389D01*
X9950291Y-14174389D02*
X9950291Y-13974389D01*
X9950291Y-13974389D02*
X9931243Y-14002960D01*
X9931243Y-14002960D02*
X9912196Y-14022008D01*
X9912196Y-14022008D02*
X9893148Y-14031532D01*
X10093148Y-14155341D02*
X10102672Y-14164865D01*
X10102672Y-14164865D02*
X10093148Y-14174389D01*
X10093148Y-14174389D02*
X10083624Y-14164865D01*
X10083624Y-14164865D02*
X10093148Y-14155341D01*
X10093148Y-14155341D02*
X10093148Y-14174389D01*
X10283624Y-13974389D02*
X10188386Y-13974389D01*
X10188386Y-13974389D02*
X10178862Y-14069627D01*
X10178862Y-14069627D02*
X10188386Y-14060103D01*
X10188386Y-14060103D02*
X10207434Y-14050579D01*
X10207434Y-14050579D02*
X10255053Y-14050579D01*
X10255053Y-14050579D02*
X10274100Y-14060103D01*
X10274100Y-14060103D02*
X10283624Y-14069627D01*
X10283624Y-14069627D02*
X10293148Y-14088674D01*
X10293148Y-14088674D02*
X10293148Y-14136293D01*
X10293148Y-14136293D02*
X10283624Y-14155341D01*
X10283624Y-14155341D02*
X10274100Y-14164865D01*
X10274100Y-14164865D02*
X10255053Y-14174389D01*
X10255053Y-14174389D02*
X10207434Y-14174389D01*
X10207434Y-14174389D02*
X10188386Y-14164865D01*
X10188386Y-14164865D02*
X10178862Y-14155341D01*
X10416958Y-13974389D02*
X10436005Y-13974389D01*
X10436005Y-13974389D02*
X10455053Y-13983913D01*
X10455053Y-13983913D02*
X10464577Y-13993436D01*
X10464577Y-13993436D02*
X10474100Y-14012484D01*
X10474100Y-14012484D02*
X10483624Y-14050579D01*
X10483624Y-14050579D02*
X10483624Y-14098198D01*
X10483624Y-14098198D02*
X10474100Y-14136293D01*
X10474100Y-14136293D02*
X10464577Y-14155341D01*
X10464577Y-14155341D02*
X10455053Y-14164865D01*
X10455053Y-14164865D02*
X10436005Y-14174389D01*
X10436005Y-14174389D02*
X10416958Y-14174389D01*
X10416958Y-14174389D02*
X10397910Y-14164865D01*
X10397910Y-14164865D02*
X10388386Y-14155341D01*
X10388386Y-14155341D02*
X10378862Y-14136293D01*
X10378862Y-14136293D02*
X10369339Y-14098198D01*
X10369339Y-14098198D02*
X10369339Y-14050579D01*
X10369339Y-14050579D02*
X10378862Y-14012484D01*
X10378862Y-14012484D02*
X10388386Y-13993436D01*
X10388386Y-13993436D02*
X10397910Y-13983913D01*
X10397910Y-13983913D02*
X10416958Y-13974389D01*
X10607434Y-13974389D02*
X10626481Y-13974389D01*
X10626481Y-13974389D02*
X10645529Y-13983913D01*
X10645529Y-13983913D02*
X10655053Y-13993436D01*
X10655053Y-13993436D02*
X10664577Y-14012484D01*
X10664577Y-14012484D02*
X10674100Y-14050579D01*
X10674100Y-14050579D02*
X10674100Y-14098198D01*
X10674100Y-14098198D02*
X10664577Y-14136293D01*
X10664577Y-14136293D02*
X10655053Y-14155341D01*
X10655053Y-14155341D02*
X10645529Y-14164865D01*
X10645529Y-14164865D02*
X10626481Y-14174389D01*
X10626481Y-14174389D02*
X10607434Y-14174389D01*
X10607434Y-14174389D02*
X10588386Y-14164865D01*
X10588386Y-14164865D02*
X10578862Y-14155341D01*
X10578862Y-14155341D02*
X10569339Y-14136293D01*
X10569339Y-14136293D02*
X10559815Y-14098198D01*
X10559815Y-14098198D02*
X10559815Y-14050579D01*
X10559815Y-14050579D02*
X10569339Y-14012484D01*
X10569339Y-14012484D02*
X10578862Y-13993436D01*
X10578862Y-13993436D02*
X10588386Y-13983913D01*
X10588386Y-13983913D02*
X10607434Y-13974389D01*
X10759815Y-14174389D02*
X10759815Y-14041055D01*
X10759815Y-14060103D02*
X10769339Y-14050579D01*
X10769339Y-14050579D02*
X10788386Y-14041055D01*
X10788386Y-14041055D02*
X10816958Y-14041055D01*
X10816958Y-14041055D02*
X10836005Y-14050579D01*
X10836005Y-14050579D02*
X10845529Y-14069627D01*
X10845529Y-14069627D02*
X10845529Y-14174389D01*
X10845529Y-14069627D02*
X10855053Y-14050579D01*
X10855053Y-14050579D02*
X10874100Y-14041055D01*
X10874100Y-14041055D02*
X10902672Y-14041055D01*
X10902672Y-14041055D02*
X10921720Y-14050579D01*
X10921720Y-14050579D02*
X10931243Y-14069627D01*
X10931243Y-14069627D02*
X10931243Y-14174389D01*
X11026481Y-14174389D02*
X11026481Y-14041055D01*
X11026481Y-14060103D02*
X11036005Y-14050579D01*
X11036005Y-14050579D02*
X11055053Y-14041055D01*
X11055053Y-14041055D02*
X11083624Y-14041055D01*
X11083624Y-14041055D02*
X11102672Y-14050579D01*
X11102672Y-14050579D02*
X11112196Y-14069627D01*
X11112196Y-14069627D02*
X11112196Y-14174389D01*
X11112196Y-14069627D02*
X11121720Y-14050579D01*
X11121720Y-14050579D02*
X11140767Y-14041055D01*
X11140767Y-14041055D02*
X11169339Y-14041055D01*
X11169339Y-14041055D02*
X11188386Y-14050579D01*
X11188386Y-14050579D02*
X11197910Y-14069627D01*
X11197910Y-14069627D02*
X11197910Y-14174389D01*
X11588386Y-13964865D02*
X11416958Y-14222008D01*
X11845529Y-13974389D02*
X11864577Y-13974389D01*
X11864577Y-13974389D02*
X11883624Y-13983913D01*
X11883624Y-13983913D02*
X11893148Y-13993436D01*
X11893148Y-13993436D02*
X11902672Y-14012484D01*
X11902672Y-14012484D02*
X11912196Y-14050579D01*
X11912196Y-14050579D02*
X11912196Y-14098198D01*
X11912196Y-14098198D02*
X11902672Y-14136293D01*
X11902672Y-14136293D02*
X11893148Y-14155341D01*
X11893148Y-14155341D02*
X11883624Y-14164865D01*
X11883624Y-14164865D02*
X11864577Y-14174389D01*
X11864577Y-14174389D02*
X11845529Y-14174389D01*
X11845529Y-14174389D02*
X11826481Y-14164865D01*
X11826481Y-14164865D02*
X11816958Y-14155341D01*
X11816958Y-14155341D02*
X11807434Y-14136293D01*
X11807434Y-14136293D02*
X11797910Y-14098198D01*
X11797910Y-14098198D02*
X11797910Y-14050579D01*
X11797910Y-14050579D02*
X11807434Y-14012484D01*
X11807434Y-14012484D02*
X11816958Y-13993436D01*
X11816958Y-13993436D02*
X11826481Y-13983913D01*
X11826481Y-13983913D02*
X11845529Y-13974389D01*
X11997910Y-14155341D02*
X12007434Y-14164865D01*
X12007434Y-14164865D02*
X11997910Y-14174389D01*
X11997910Y-14174389D02*
X11988386Y-14164865D01*
X11988386Y-14164865D02*
X11997910Y-14155341D01*
X11997910Y-14155341D02*
X11997910Y-14174389D01*
X12131243Y-13974389D02*
X12150291Y-13974389D01*
X12150291Y-13974389D02*
X12169339Y-13983913D01*
X12169339Y-13983913D02*
X12178862Y-13993436D01*
X12178862Y-13993436D02*
X12188386Y-14012484D01*
X12188386Y-14012484D02*
X12197910Y-14050579D01*
X12197910Y-14050579D02*
X12197910Y-14098198D01*
X12197910Y-14098198D02*
X12188386Y-14136293D01*
X12188386Y-14136293D02*
X12178862Y-14155341D01*
X12178862Y-14155341D02*
X12169339Y-14164865D01*
X12169339Y-14164865D02*
X12150291Y-14174389D01*
X12150291Y-14174389D02*
X12131243Y-14174389D01*
X12131243Y-14174389D02*
X12112196Y-14164865D01*
X12112196Y-14164865D02*
X12102672Y-14155341D01*
X12102672Y-14155341D02*
X12093148Y-14136293D01*
X12093148Y-14136293D02*
X12083624Y-14098198D01*
X12083624Y-14098198D02*
X12083624Y-14050579D01*
X12083624Y-14050579D02*
X12093148Y-14012484D01*
X12093148Y-14012484D02*
X12102672Y-13993436D01*
X12102672Y-13993436D02*
X12112196Y-13983913D01*
X12112196Y-13983913D02*
X12131243Y-13974389D01*
X12378862Y-13974389D02*
X12283624Y-13974389D01*
X12283624Y-13974389D02*
X12274101Y-14069627D01*
X12274101Y-14069627D02*
X12283624Y-14060103D01*
X12283624Y-14060103D02*
X12302672Y-14050579D01*
X12302672Y-14050579D02*
X12350291Y-14050579D01*
X12350291Y-14050579D02*
X12369339Y-14060103D01*
X12369339Y-14060103D02*
X12378862Y-14069627D01*
X12378862Y-14069627D02*
X12388386Y-14088674D01*
X12388386Y-14088674D02*
X12388386Y-14136293D01*
X12388386Y-14136293D02*
X12378862Y-14155341D01*
X12378862Y-14155341D02*
X12369339Y-14164865D01*
X12369339Y-14164865D02*
X12350291Y-14174389D01*
X12350291Y-14174389D02*
X12302672Y-14174389D01*
X12302672Y-14174389D02*
X12283624Y-14164865D01*
X12283624Y-14164865D02*
X12274101Y-14155341D01*
X12483624Y-14174389D02*
X12521720Y-14174389D01*
X12521720Y-14174389D02*
X12540767Y-14164865D01*
X12540767Y-14164865D02*
X12550291Y-14155341D01*
X12550291Y-14155341D02*
X12569339Y-14126770D01*
X12569339Y-14126770D02*
X12578862Y-14088674D01*
X12578862Y-14088674D02*
X12578862Y-14012484D01*
X12578862Y-14012484D02*
X12569339Y-13993436D01*
X12569339Y-13993436D02*
X12559815Y-13983913D01*
X12559815Y-13983913D02*
X12540767Y-13974389D01*
X12540767Y-13974389D02*
X12502672Y-13974389D01*
X12502672Y-13974389D02*
X12483624Y-13983913D01*
X12483624Y-13983913D02*
X12474101Y-13993436D01*
X12474101Y-13993436D02*
X12464577Y-14012484D01*
X12464577Y-14012484D02*
X12464577Y-14060103D01*
X12464577Y-14060103D02*
X12474101Y-14079151D01*
X12474101Y-14079151D02*
X12483624Y-14088674D01*
X12483624Y-14088674D02*
X12502672Y-14098198D01*
X12502672Y-14098198D02*
X12540767Y-14098198D01*
X12540767Y-14098198D02*
X12559815Y-14088674D01*
X12559815Y-14088674D02*
X12569339Y-14079151D01*
X12569339Y-14079151D02*
X12578862Y-14060103D01*
X12769339Y-14174389D02*
X12655053Y-14174389D01*
X12712196Y-14174389D02*
X12712196Y-13974389D01*
X12712196Y-13974389D02*
X12693148Y-14002960D01*
X12693148Y-14002960D02*
X12674101Y-14022008D01*
X12674101Y-14022008D02*
X12655053Y-14031532D01*
X12845529Y-13974389D02*
X12845529Y-14012484D01*
X12921720Y-13974389D02*
X12921720Y-14012484D01*
X13216958Y-14250579D02*
X13207434Y-14241055D01*
X13207434Y-14241055D02*
X13188386Y-14212484D01*
X13188386Y-14212484D02*
X13178863Y-14193436D01*
X13178863Y-14193436D02*
X13169339Y-14164865D01*
X13169339Y-14164865D02*
X13159815Y-14117246D01*
X13159815Y-14117246D02*
X13159815Y-14079151D01*
X13159815Y-14079151D02*
X13169339Y-14031532D01*
X13169339Y-14031532D02*
X13178863Y-14002960D01*
X13178863Y-14002960D02*
X13188386Y-13983913D01*
X13188386Y-13983913D02*
X13207434Y-13955341D01*
X13207434Y-13955341D02*
X13216958Y-13945817D01*
X13283624Y-13993436D02*
X13293148Y-13983913D01*
X13293148Y-13983913D02*
X13312196Y-13974389D01*
X13312196Y-13974389D02*
X13359815Y-13974389D01*
X13359815Y-13974389D02*
X13378863Y-13983913D01*
X13378863Y-13983913D02*
X13388386Y-13993436D01*
X13388386Y-13993436D02*
X13397910Y-14012484D01*
X13397910Y-14012484D02*
X13397910Y-14031532D01*
X13397910Y-14031532D02*
X13388386Y-14060103D01*
X13388386Y-14060103D02*
X13274101Y-14174389D01*
X13274101Y-14174389D02*
X13397910Y-14174389D01*
X13636005Y-14174389D02*
X13636005Y-13974389D01*
X13721720Y-14174389D02*
X13721720Y-14069627D01*
X13721720Y-14069627D02*
X13712196Y-14050579D01*
X13712196Y-14050579D02*
X13693148Y-14041055D01*
X13693148Y-14041055D02*
X13664577Y-14041055D01*
X13664577Y-14041055D02*
X13645529Y-14050579D01*
X13645529Y-14050579D02*
X13636005Y-14060103D01*
X13845529Y-14174389D02*
X13826482Y-14164865D01*
X13826482Y-14164865D02*
X13816958Y-14155341D01*
X13816958Y-14155341D02*
X13807434Y-14136293D01*
X13807434Y-14136293D02*
X13807434Y-14079151D01*
X13807434Y-14079151D02*
X13816958Y-14060103D01*
X13816958Y-14060103D02*
X13826482Y-14050579D01*
X13826482Y-14050579D02*
X13845529Y-14041055D01*
X13845529Y-14041055D02*
X13874101Y-14041055D01*
X13874101Y-14041055D02*
X13893148Y-14050579D01*
X13893148Y-14050579D02*
X13902672Y-14060103D01*
X13902672Y-14060103D02*
X13912196Y-14079151D01*
X13912196Y-14079151D02*
X13912196Y-14136293D01*
X13912196Y-14136293D02*
X13902672Y-14155341D01*
X13902672Y-14155341D02*
X13893148Y-14164865D01*
X13893148Y-14164865D02*
X13874101Y-14174389D01*
X13874101Y-14174389D02*
X13845529Y-14174389D01*
X14026482Y-14174389D02*
X14007434Y-14164865D01*
X14007434Y-14164865D02*
X13997910Y-14145817D01*
X13997910Y-14145817D02*
X13997910Y-13974389D01*
X14178863Y-14164865D02*
X14159815Y-14174389D01*
X14159815Y-14174389D02*
X14121720Y-14174389D01*
X14121720Y-14174389D02*
X14102672Y-14164865D01*
X14102672Y-14164865D02*
X14093148Y-14145817D01*
X14093148Y-14145817D02*
X14093148Y-14069627D01*
X14093148Y-14069627D02*
X14102672Y-14050579D01*
X14102672Y-14050579D02*
X14121720Y-14041055D01*
X14121720Y-14041055D02*
X14159815Y-14041055D01*
X14159815Y-14041055D02*
X14178863Y-14050579D01*
X14178863Y-14050579D02*
X14188386Y-14069627D01*
X14188386Y-14069627D02*
X14188386Y-14088674D01*
X14188386Y-14088674D02*
X14093148Y-14107722D01*
X14264577Y-14164865D02*
X14283625Y-14174389D01*
X14283625Y-14174389D02*
X14321720Y-14174389D01*
X14321720Y-14174389D02*
X14340767Y-14164865D01*
X14340767Y-14164865D02*
X14350291Y-14145817D01*
X14350291Y-14145817D02*
X14350291Y-14136293D01*
X14350291Y-14136293D02*
X14340767Y-14117246D01*
X14340767Y-14117246D02*
X14321720Y-14107722D01*
X14321720Y-14107722D02*
X14293148Y-14107722D01*
X14293148Y-14107722D02*
X14274101Y-14098198D01*
X14274101Y-14098198D02*
X14264577Y-14079151D01*
X14264577Y-14079151D02*
X14264577Y-14069627D01*
X14264577Y-14069627D02*
X14274101Y-14050579D01*
X14274101Y-14050579D02*
X14293148Y-14041055D01*
X14293148Y-14041055D02*
X14321720Y-14041055D01*
X14321720Y-14041055D02*
X14340767Y-14050579D01*
X14416958Y-14250579D02*
X14426482Y-14241055D01*
X14426482Y-14241055D02*
X14445529Y-14212484D01*
X14445529Y-14212484D02*
X14455053Y-14193436D01*
X14455053Y-14193436D02*
X14464577Y-14164865D01*
X14464577Y-14164865D02*
X14474101Y-14117246D01*
X14474101Y-14117246D02*
X14474101Y-14079151D01*
X14474101Y-14079151D02*
X14464577Y-14031532D01*
X14464577Y-14031532D02*
X14455053Y-14002960D01*
X14455053Y-14002960D02*
X14445529Y-13983913D01*
X14445529Y-13983913D02*
X14426482Y-13955341D01*
X14426482Y-13955341D02*
X14416958Y-13945817D01*
D15*
X9479895Y-14271905D02*
X9641895Y-14433905D01*
X9641895Y-14271905D02*
X9479895Y-14433905D01*
X9641895Y-14352905D02*
G75*
G03*
X9479895Y-14352905I-81000J0D01*
G01*
X9479895Y-14352905D02*
G75*
G03*
X9641895Y-14352905I81000J0D01*
G01*
D11*
X10007434Y-14444389D02*
X9893148Y-14444389D01*
X9950291Y-14444389D02*
X9950291Y-14244389D01*
X9950291Y-14244389D02*
X9931243Y-14272960D01*
X9931243Y-14272960D02*
X9912196Y-14292008D01*
X9912196Y-14292008D02*
X9893148Y-14301532D01*
X10093148Y-14425341D02*
X10102672Y-14434865D01*
X10102672Y-14434865D02*
X10093148Y-14444389D01*
X10093148Y-14444389D02*
X10083624Y-14434865D01*
X10083624Y-14434865D02*
X10093148Y-14425341D01*
X10093148Y-14425341D02*
X10093148Y-14444389D01*
X10274100Y-14244389D02*
X10236005Y-14244389D01*
X10236005Y-14244389D02*
X10216958Y-14253913D01*
X10216958Y-14253913D02*
X10207434Y-14263436D01*
X10207434Y-14263436D02*
X10188386Y-14292008D01*
X10188386Y-14292008D02*
X10178862Y-14330103D01*
X10178862Y-14330103D02*
X10178862Y-14406293D01*
X10178862Y-14406293D02*
X10188386Y-14425341D01*
X10188386Y-14425341D02*
X10197910Y-14434865D01*
X10197910Y-14434865D02*
X10216958Y-14444389D01*
X10216958Y-14444389D02*
X10255053Y-14444389D01*
X10255053Y-14444389D02*
X10274100Y-14434865D01*
X10274100Y-14434865D02*
X10283624Y-14425341D01*
X10283624Y-14425341D02*
X10293148Y-14406293D01*
X10293148Y-14406293D02*
X10293148Y-14358674D01*
X10293148Y-14358674D02*
X10283624Y-14339627D01*
X10283624Y-14339627D02*
X10274100Y-14330103D01*
X10274100Y-14330103D02*
X10255053Y-14320579D01*
X10255053Y-14320579D02*
X10216958Y-14320579D01*
X10216958Y-14320579D02*
X10197910Y-14330103D01*
X10197910Y-14330103D02*
X10188386Y-14339627D01*
X10188386Y-14339627D02*
X10178862Y-14358674D01*
X10369339Y-14263436D02*
X10378862Y-14253913D01*
X10378862Y-14253913D02*
X10397910Y-14244389D01*
X10397910Y-14244389D02*
X10445529Y-14244389D01*
X10445529Y-14244389D02*
X10464577Y-14253913D01*
X10464577Y-14253913D02*
X10474100Y-14263436D01*
X10474100Y-14263436D02*
X10483624Y-14282484D01*
X10483624Y-14282484D02*
X10483624Y-14301532D01*
X10483624Y-14301532D02*
X10474100Y-14330103D01*
X10474100Y-14330103D02*
X10359815Y-14444389D01*
X10359815Y-14444389D02*
X10483624Y-14444389D01*
X10607434Y-14244389D02*
X10626481Y-14244389D01*
X10626481Y-14244389D02*
X10645529Y-14253913D01*
X10645529Y-14253913D02*
X10655053Y-14263436D01*
X10655053Y-14263436D02*
X10664577Y-14282484D01*
X10664577Y-14282484D02*
X10674100Y-14320579D01*
X10674100Y-14320579D02*
X10674100Y-14368198D01*
X10674100Y-14368198D02*
X10664577Y-14406293D01*
X10664577Y-14406293D02*
X10655053Y-14425341D01*
X10655053Y-14425341D02*
X10645529Y-14434865D01*
X10645529Y-14434865D02*
X10626481Y-14444389D01*
X10626481Y-14444389D02*
X10607434Y-14444389D01*
X10607434Y-14444389D02*
X10588386Y-14434865D01*
X10588386Y-14434865D02*
X10578862Y-14425341D01*
X10578862Y-14425341D02*
X10569339Y-14406293D01*
X10569339Y-14406293D02*
X10559815Y-14368198D01*
X10559815Y-14368198D02*
X10559815Y-14320579D01*
X10559815Y-14320579D02*
X10569339Y-14282484D01*
X10569339Y-14282484D02*
X10578862Y-14263436D01*
X10578862Y-14263436D02*
X10588386Y-14253913D01*
X10588386Y-14253913D02*
X10607434Y-14244389D01*
X10759815Y-14444389D02*
X10759815Y-14311055D01*
X10759815Y-14330103D02*
X10769339Y-14320579D01*
X10769339Y-14320579D02*
X10788386Y-14311055D01*
X10788386Y-14311055D02*
X10816958Y-14311055D01*
X10816958Y-14311055D02*
X10836005Y-14320579D01*
X10836005Y-14320579D02*
X10845529Y-14339627D01*
X10845529Y-14339627D02*
X10845529Y-14444389D01*
X10845529Y-14339627D02*
X10855053Y-14320579D01*
X10855053Y-14320579D02*
X10874100Y-14311055D01*
X10874100Y-14311055D02*
X10902672Y-14311055D01*
X10902672Y-14311055D02*
X10921720Y-14320579D01*
X10921720Y-14320579D02*
X10931243Y-14339627D01*
X10931243Y-14339627D02*
X10931243Y-14444389D01*
X11026481Y-14444389D02*
X11026481Y-14311055D01*
X11026481Y-14330103D02*
X11036005Y-14320579D01*
X11036005Y-14320579D02*
X11055053Y-14311055D01*
X11055053Y-14311055D02*
X11083624Y-14311055D01*
X11083624Y-14311055D02*
X11102672Y-14320579D01*
X11102672Y-14320579D02*
X11112196Y-14339627D01*
X11112196Y-14339627D02*
X11112196Y-14444389D01*
X11112196Y-14339627D02*
X11121720Y-14320579D01*
X11121720Y-14320579D02*
X11140767Y-14311055D01*
X11140767Y-14311055D02*
X11169339Y-14311055D01*
X11169339Y-14311055D02*
X11188386Y-14320579D01*
X11188386Y-14320579D02*
X11197910Y-14339627D01*
X11197910Y-14339627D02*
X11197910Y-14444389D01*
X11588386Y-14234865D02*
X11416958Y-14492008D01*
X11845529Y-14244389D02*
X11864577Y-14244389D01*
X11864577Y-14244389D02*
X11883624Y-14253913D01*
X11883624Y-14253913D02*
X11893148Y-14263436D01*
X11893148Y-14263436D02*
X11902672Y-14282484D01*
X11902672Y-14282484D02*
X11912196Y-14320579D01*
X11912196Y-14320579D02*
X11912196Y-14368198D01*
X11912196Y-14368198D02*
X11902672Y-14406293D01*
X11902672Y-14406293D02*
X11893148Y-14425341D01*
X11893148Y-14425341D02*
X11883624Y-14434865D01*
X11883624Y-14434865D02*
X11864577Y-14444389D01*
X11864577Y-14444389D02*
X11845529Y-14444389D01*
X11845529Y-14444389D02*
X11826481Y-14434865D01*
X11826481Y-14434865D02*
X11816958Y-14425341D01*
X11816958Y-14425341D02*
X11807434Y-14406293D01*
X11807434Y-14406293D02*
X11797910Y-14368198D01*
X11797910Y-14368198D02*
X11797910Y-14320579D01*
X11797910Y-14320579D02*
X11807434Y-14282484D01*
X11807434Y-14282484D02*
X11816958Y-14263436D01*
X11816958Y-14263436D02*
X11826481Y-14253913D01*
X11826481Y-14253913D02*
X11845529Y-14244389D01*
X11997910Y-14425341D02*
X12007434Y-14434865D01*
X12007434Y-14434865D02*
X11997910Y-14444389D01*
X11997910Y-14444389D02*
X11988386Y-14434865D01*
X11988386Y-14434865D02*
X11997910Y-14425341D01*
X11997910Y-14425341D02*
X11997910Y-14444389D01*
X12131243Y-14244389D02*
X12150291Y-14244389D01*
X12150291Y-14244389D02*
X12169339Y-14253913D01*
X12169339Y-14253913D02*
X12178862Y-14263436D01*
X12178862Y-14263436D02*
X12188386Y-14282484D01*
X12188386Y-14282484D02*
X12197910Y-14320579D01*
X12197910Y-14320579D02*
X12197910Y-14368198D01*
X12197910Y-14368198D02*
X12188386Y-14406293D01*
X12188386Y-14406293D02*
X12178862Y-14425341D01*
X12178862Y-14425341D02*
X12169339Y-14434865D01*
X12169339Y-14434865D02*
X12150291Y-14444389D01*
X12150291Y-14444389D02*
X12131243Y-14444389D01*
X12131243Y-14444389D02*
X12112196Y-14434865D01*
X12112196Y-14434865D02*
X12102672Y-14425341D01*
X12102672Y-14425341D02*
X12093148Y-14406293D01*
X12093148Y-14406293D02*
X12083624Y-14368198D01*
X12083624Y-14368198D02*
X12083624Y-14320579D01*
X12083624Y-14320579D02*
X12093148Y-14282484D01*
X12093148Y-14282484D02*
X12102672Y-14263436D01*
X12102672Y-14263436D02*
X12112196Y-14253913D01*
X12112196Y-14253913D02*
X12131243Y-14244389D01*
X12369339Y-14244389D02*
X12331243Y-14244389D01*
X12331243Y-14244389D02*
X12312196Y-14253913D01*
X12312196Y-14253913D02*
X12302672Y-14263436D01*
X12302672Y-14263436D02*
X12283624Y-14292008D01*
X12283624Y-14292008D02*
X12274101Y-14330103D01*
X12274101Y-14330103D02*
X12274101Y-14406293D01*
X12274101Y-14406293D02*
X12283624Y-14425341D01*
X12283624Y-14425341D02*
X12293148Y-14434865D01*
X12293148Y-14434865D02*
X12312196Y-14444389D01*
X12312196Y-14444389D02*
X12350291Y-14444389D01*
X12350291Y-14444389D02*
X12369339Y-14434865D01*
X12369339Y-14434865D02*
X12378862Y-14425341D01*
X12378862Y-14425341D02*
X12388386Y-14406293D01*
X12388386Y-14406293D02*
X12388386Y-14358674D01*
X12388386Y-14358674D02*
X12378862Y-14339627D01*
X12378862Y-14339627D02*
X12369339Y-14330103D01*
X12369339Y-14330103D02*
X12350291Y-14320579D01*
X12350291Y-14320579D02*
X12312196Y-14320579D01*
X12312196Y-14320579D02*
X12293148Y-14330103D01*
X12293148Y-14330103D02*
X12283624Y-14339627D01*
X12283624Y-14339627D02*
X12274101Y-14358674D01*
X12455053Y-14244389D02*
X12578862Y-14244389D01*
X12578862Y-14244389D02*
X12512196Y-14320579D01*
X12512196Y-14320579D02*
X12540767Y-14320579D01*
X12540767Y-14320579D02*
X12559815Y-14330103D01*
X12559815Y-14330103D02*
X12569339Y-14339627D01*
X12569339Y-14339627D02*
X12578862Y-14358674D01*
X12578862Y-14358674D02*
X12578862Y-14406293D01*
X12578862Y-14406293D02*
X12569339Y-14425341D01*
X12569339Y-14425341D02*
X12559815Y-14434865D01*
X12559815Y-14434865D02*
X12540767Y-14444389D01*
X12540767Y-14444389D02*
X12483624Y-14444389D01*
X12483624Y-14444389D02*
X12464577Y-14434865D01*
X12464577Y-14434865D02*
X12455053Y-14425341D01*
X12693148Y-14330103D02*
X12674101Y-14320579D01*
X12674101Y-14320579D02*
X12664577Y-14311055D01*
X12664577Y-14311055D02*
X12655053Y-14292008D01*
X12655053Y-14292008D02*
X12655053Y-14282484D01*
X12655053Y-14282484D02*
X12664577Y-14263436D01*
X12664577Y-14263436D02*
X12674101Y-14253913D01*
X12674101Y-14253913D02*
X12693148Y-14244389D01*
X12693148Y-14244389D02*
X12731243Y-14244389D01*
X12731243Y-14244389D02*
X12750291Y-14253913D01*
X12750291Y-14253913D02*
X12759815Y-14263436D01*
X12759815Y-14263436D02*
X12769339Y-14282484D01*
X12769339Y-14282484D02*
X12769339Y-14292008D01*
X12769339Y-14292008D02*
X12759815Y-14311055D01*
X12759815Y-14311055D02*
X12750291Y-14320579D01*
X12750291Y-14320579D02*
X12731243Y-14330103D01*
X12731243Y-14330103D02*
X12693148Y-14330103D01*
X12693148Y-14330103D02*
X12674101Y-14339627D01*
X12674101Y-14339627D02*
X12664577Y-14349151D01*
X12664577Y-14349151D02*
X12655053Y-14368198D01*
X12655053Y-14368198D02*
X12655053Y-14406293D01*
X12655053Y-14406293D02*
X12664577Y-14425341D01*
X12664577Y-14425341D02*
X12674101Y-14434865D01*
X12674101Y-14434865D02*
X12693148Y-14444389D01*
X12693148Y-14444389D02*
X12731243Y-14444389D01*
X12731243Y-14444389D02*
X12750291Y-14434865D01*
X12750291Y-14434865D02*
X12759815Y-14425341D01*
X12759815Y-14425341D02*
X12769339Y-14406293D01*
X12769339Y-14406293D02*
X12769339Y-14368198D01*
X12769339Y-14368198D02*
X12759815Y-14349151D01*
X12759815Y-14349151D02*
X12750291Y-14339627D01*
X12750291Y-14339627D02*
X12731243Y-14330103D01*
X12845529Y-14244389D02*
X12845529Y-14282484D01*
X12921720Y-14244389D02*
X12921720Y-14282484D01*
X13216958Y-14520579D02*
X13207434Y-14511055D01*
X13207434Y-14511055D02*
X13188386Y-14482484D01*
X13188386Y-14482484D02*
X13178863Y-14463436D01*
X13178863Y-14463436D02*
X13169339Y-14434865D01*
X13169339Y-14434865D02*
X13159815Y-14387246D01*
X13159815Y-14387246D02*
X13159815Y-14349151D01*
X13159815Y-14349151D02*
X13169339Y-14301532D01*
X13169339Y-14301532D02*
X13178863Y-14272960D01*
X13178863Y-14272960D02*
X13188386Y-14253913D01*
X13188386Y-14253913D02*
X13207434Y-14225341D01*
X13207434Y-14225341D02*
X13216958Y-14215817D01*
X13283624Y-14263436D02*
X13293148Y-14253913D01*
X13293148Y-14253913D02*
X13312196Y-14244389D01*
X13312196Y-14244389D02*
X13359815Y-14244389D01*
X13359815Y-14244389D02*
X13378863Y-14253913D01*
X13378863Y-14253913D02*
X13388386Y-14263436D01*
X13388386Y-14263436D02*
X13397910Y-14282484D01*
X13397910Y-14282484D02*
X13397910Y-14301532D01*
X13397910Y-14301532D02*
X13388386Y-14330103D01*
X13388386Y-14330103D02*
X13274101Y-14444389D01*
X13274101Y-14444389D02*
X13397910Y-14444389D01*
X13636005Y-14444389D02*
X13636005Y-14244389D01*
X13721720Y-14444389D02*
X13721720Y-14339627D01*
X13721720Y-14339627D02*
X13712196Y-14320579D01*
X13712196Y-14320579D02*
X13693148Y-14311055D01*
X13693148Y-14311055D02*
X13664577Y-14311055D01*
X13664577Y-14311055D02*
X13645529Y-14320579D01*
X13645529Y-14320579D02*
X13636005Y-14330103D01*
X13845529Y-14444389D02*
X13826482Y-14434865D01*
X13826482Y-14434865D02*
X13816958Y-14425341D01*
X13816958Y-14425341D02*
X13807434Y-14406293D01*
X13807434Y-14406293D02*
X13807434Y-14349151D01*
X13807434Y-14349151D02*
X13816958Y-14330103D01*
X13816958Y-14330103D02*
X13826482Y-14320579D01*
X13826482Y-14320579D02*
X13845529Y-14311055D01*
X13845529Y-14311055D02*
X13874101Y-14311055D01*
X13874101Y-14311055D02*
X13893148Y-14320579D01*
X13893148Y-14320579D02*
X13902672Y-14330103D01*
X13902672Y-14330103D02*
X13912196Y-14349151D01*
X13912196Y-14349151D02*
X13912196Y-14406293D01*
X13912196Y-14406293D02*
X13902672Y-14425341D01*
X13902672Y-14425341D02*
X13893148Y-14434865D01*
X13893148Y-14434865D02*
X13874101Y-14444389D01*
X13874101Y-14444389D02*
X13845529Y-14444389D01*
X14026482Y-14444389D02*
X14007434Y-14434865D01*
X14007434Y-14434865D02*
X13997910Y-14415817D01*
X13997910Y-14415817D02*
X13997910Y-14244389D01*
X14178863Y-14434865D02*
X14159815Y-14444389D01*
X14159815Y-14444389D02*
X14121720Y-14444389D01*
X14121720Y-14444389D02*
X14102672Y-14434865D01*
X14102672Y-14434865D02*
X14093148Y-14415817D01*
X14093148Y-14415817D02*
X14093148Y-14339627D01*
X14093148Y-14339627D02*
X14102672Y-14320579D01*
X14102672Y-14320579D02*
X14121720Y-14311055D01*
X14121720Y-14311055D02*
X14159815Y-14311055D01*
X14159815Y-14311055D02*
X14178863Y-14320579D01*
X14178863Y-14320579D02*
X14188386Y-14339627D01*
X14188386Y-14339627D02*
X14188386Y-14358674D01*
X14188386Y-14358674D02*
X14093148Y-14377722D01*
X14264577Y-14434865D02*
X14283625Y-14444389D01*
X14283625Y-14444389D02*
X14321720Y-14444389D01*
X14321720Y-14444389D02*
X14340767Y-14434865D01*
X14340767Y-14434865D02*
X14350291Y-14415817D01*
X14350291Y-14415817D02*
X14350291Y-14406293D01*
X14350291Y-14406293D02*
X14340767Y-14387246D01*
X14340767Y-14387246D02*
X14321720Y-14377722D01*
X14321720Y-14377722D02*
X14293148Y-14377722D01*
X14293148Y-14377722D02*
X14274101Y-14368198D01*
X14274101Y-14368198D02*
X14264577Y-14349151D01*
X14264577Y-14349151D02*
X14264577Y-14339627D01*
X14264577Y-14339627D02*
X14274101Y-14320579D01*
X14274101Y-14320579D02*
X14293148Y-14311055D01*
X14293148Y-14311055D02*
X14321720Y-14311055D01*
X14321720Y-14311055D02*
X14340767Y-14320579D01*
X14416958Y-14520579D02*
X14426482Y-14511055D01*
X14426482Y-14511055D02*
X14445529Y-14482484D01*
X14445529Y-14482484D02*
X14455053Y-14463436D01*
X14455053Y-14463436D02*
X14464577Y-14434865D01*
X14464577Y-14434865D02*
X14474101Y-14387246D01*
X14474101Y-14387246D02*
X14474101Y-14349151D01*
X14474101Y-14349151D02*
X14464577Y-14301532D01*
X14464577Y-14301532D02*
X14455053Y-14272960D01*
X14455053Y-14272960D02*
X14445529Y-14253913D01*
X14445529Y-14253913D02*
X14426482Y-14225341D01*
X14426482Y-14225341D02*
X14416958Y-14215817D01*
D16*
X9471895Y-14549905D02*
X9641895Y-14719905D01*
X9641895Y-14549905D02*
X9471895Y-14719905D01*
X9556895Y-14549905D02*
X9556895Y-14719905D01*
X9471895Y-14634905D02*
X9641895Y-14634905D01*
D11*
X10007434Y-14726389D02*
X9893148Y-14726389D01*
X9950291Y-14726389D02*
X9950291Y-14526389D01*
X9950291Y-14526389D02*
X9931243Y-14554960D01*
X9931243Y-14554960D02*
X9912196Y-14574008D01*
X9912196Y-14574008D02*
X9893148Y-14583532D01*
X10093148Y-14707341D02*
X10102672Y-14716865D01*
X10102672Y-14716865D02*
X10093148Y-14726389D01*
X10093148Y-14726389D02*
X10083624Y-14716865D01*
X10083624Y-14716865D02*
X10093148Y-14707341D01*
X10093148Y-14707341D02*
X10093148Y-14726389D01*
X10169339Y-14526389D02*
X10302672Y-14526389D01*
X10302672Y-14526389D02*
X10216958Y-14726389D01*
X10416958Y-14526389D02*
X10436005Y-14526389D01*
X10436005Y-14526389D02*
X10455053Y-14535913D01*
X10455053Y-14535913D02*
X10464577Y-14545436D01*
X10464577Y-14545436D02*
X10474100Y-14564484D01*
X10474100Y-14564484D02*
X10483624Y-14602579D01*
X10483624Y-14602579D02*
X10483624Y-14650198D01*
X10483624Y-14650198D02*
X10474100Y-14688293D01*
X10474100Y-14688293D02*
X10464577Y-14707341D01*
X10464577Y-14707341D02*
X10455053Y-14716865D01*
X10455053Y-14716865D02*
X10436005Y-14726389D01*
X10436005Y-14726389D02*
X10416958Y-14726389D01*
X10416958Y-14726389D02*
X10397910Y-14716865D01*
X10397910Y-14716865D02*
X10388386Y-14707341D01*
X10388386Y-14707341D02*
X10378862Y-14688293D01*
X10378862Y-14688293D02*
X10369339Y-14650198D01*
X10369339Y-14650198D02*
X10369339Y-14602579D01*
X10369339Y-14602579D02*
X10378862Y-14564484D01*
X10378862Y-14564484D02*
X10388386Y-14545436D01*
X10388386Y-14545436D02*
X10397910Y-14535913D01*
X10397910Y-14535913D02*
X10416958Y-14526389D01*
X10607434Y-14526389D02*
X10626481Y-14526389D01*
X10626481Y-14526389D02*
X10645529Y-14535913D01*
X10645529Y-14535913D02*
X10655053Y-14545436D01*
X10655053Y-14545436D02*
X10664577Y-14564484D01*
X10664577Y-14564484D02*
X10674100Y-14602579D01*
X10674100Y-14602579D02*
X10674100Y-14650198D01*
X10674100Y-14650198D02*
X10664577Y-14688293D01*
X10664577Y-14688293D02*
X10655053Y-14707341D01*
X10655053Y-14707341D02*
X10645529Y-14716865D01*
X10645529Y-14716865D02*
X10626481Y-14726389D01*
X10626481Y-14726389D02*
X10607434Y-14726389D01*
X10607434Y-14726389D02*
X10588386Y-14716865D01*
X10588386Y-14716865D02*
X10578862Y-14707341D01*
X10578862Y-14707341D02*
X10569339Y-14688293D01*
X10569339Y-14688293D02*
X10559815Y-14650198D01*
X10559815Y-14650198D02*
X10559815Y-14602579D01*
X10559815Y-14602579D02*
X10569339Y-14564484D01*
X10569339Y-14564484D02*
X10578862Y-14545436D01*
X10578862Y-14545436D02*
X10588386Y-14535913D01*
X10588386Y-14535913D02*
X10607434Y-14526389D01*
X10759815Y-14726389D02*
X10759815Y-14593055D01*
X10759815Y-14612103D02*
X10769339Y-14602579D01*
X10769339Y-14602579D02*
X10788386Y-14593055D01*
X10788386Y-14593055D02*
X10816958Y-14593055D01*
X10816958Y-14593055D02*
X10836005Y-14602579D01*
X10836005Y-14602579D02*
X10845529Y-14621627D01*
X10845529Y-14621627D02*
X10845529Y-14726389D01*
X10845529Y-14621627D02*
X10855053Y-14602579D01*
X10855053Y-14602579D02*
X10874100Y-14593055D01*
X10874100Y-14593055D02*
X10902672Y-14593055D01*
X10902672Y-14593055D02*
X10921720Y-14602579D01*
X10921720Y-14602579D02*
X10931243Y-14621627D01*
X10931243Y-14621627D02*
X10931243Y-14726389D01*
X11026481Y-14726389D02*
X11026481Y-14593055D01*
X11026481Y-14612103D02*
X11036005Y-14602579D01*
X11036005Y-14602579D02*
X11055053Y-14593055D01*
X11055053Y-14593055D02*
X11083624Y-14593055D01*
X11083624Y-14593055D02*
X11102672Y-14602579D01*
X11102672Y-14602579D02*
X11112196Y-14621627D01*
X11112196Y-14621627D02*
X11112196Y-14726389D01*
X11112196Y-14621627D02*
X11121720Y-14602579D01*
X11121720Y-14602579D02*
X11140767Y-14593055D01*
X11140767Y-14593055D02*
X11169339Y-14593055D01*
X11169339Y-14593055D02*
X11188386Y-14602579D01*
X11188386Y-14602579D02*
X11197910Y-14621627D01*
X11197910Y-14621627D02*
X11197910Y-14726389D01*
X11588386Y-14516865D02*
X11416958Y-14774008D01*
X11845529Y-14526389D02*
X11864577Y-14526389D01*
X11864577Y-14526389D02*
X11883624Y-14535913D01*
X11883624Y-14535913D02*
X11893148Y-14545436D01*
X11893148Y-14545436D02*
X11902672Y-14564484D01*
X11902672Y-14564484D02*
X11912196Y-14602579D01*
X11912196Y-14602579D02*
X11912196Y-14650198D01*
X11912196Y-14650198D02*
X11902672Y-14688293D01*
X11902672Y-14688293D02*
X11893148Y-14707341D01*
X11893148Y-14707341D02*
X11883624Y-14716865D01*
X11883624Y-14716865D02*
X11864577Y-14726389D01*
X11864577Y-14726389D02*
X11845529Y-14726389D01*
X11845529Y-14726389D02*
X11826481Y-14716865D01*
X11826481Y-14716865D02*
X11816958Y-14707341D01*
X11816958Y-14707341D02*
X11807434Y-14688293D01*
X11807434Y-14688293D02*
X11797910Y-14650198D01*
X11797910Y-14650198D02*
X11797910Y-14602579D01*
X11797910Y-14602579D02*
X11807434Y-14564484D01*
X11807434Y-14564484D02*
X11816958Y-14545436D01*
X11816958Y-14545436D02*
X11826481Y-14535913D01*
X11826481Y-14535913D02*
X11845529Y-14526389D01*
X11997910Y-14707341D02*
X12007434Y-14716865D01*
X12007434Y-14716865D02*
X11997910Y-14726389D01*
X11997910Y-14726389D02*
X11988386Y-14716865D01*
X11988386Y-14716865D02*
X11997910Y-14707341D01*
X11997910Y-14707341D02*
X11997910Y-14726389D01*
X12131243Y-14526389D02*
X12150291Y-14526389D01*
X12150291Y-14526389D02*
X12169339Y-14535913D01*
X12169339Y-14535913D02*
X12178862Y-14545436D01*
X12178862Y-14545436D02*
X12188386Y-14564484D01*
X12188386Y-14564484D02*
X12197910Y-14602579D01*
X12197910Y-14602579D02*
X12197910Y-14650198D01*
X12197910Y-14650198D02*
X12188386Y-14688293D01*
X12188386Y-14688293D02*
X12178862Y-14707341D01*
X12178862Y-14707341D02*
X12169339Y-14716865D01*
X12169339Y-14716865D02*
X12150291Y-14726389D01*
X12150291Y-14726389D02*
X12131243Y-14726389D01*
X12131243Y-14726389D02*
X12112196Y-14716865D01*
X12112196Y-14716865D02*
X12102672Y-14707341D01*
X12102672Y-14707341D02*
X12093148Y-14688293D01*
X12093148Y-14688293D02*
X12083624Y-14650198D01*
X12083624Y-14650198D02*
X12083624Y-14602579D01*
X12083624Y-14602579D02*
X12093148Y-14564484D01*
X12093148Y-14564484D02*
X12102672Y-14545436D01*
X12102672Y-14545436D02*
X12112196Y-14535913D01*
X12112196Y-14535913D02*
X12131243Y-14526389D01*
X12369339Y-14526389D02*
X12331243Y-14526389D01*
X12331243Y-14526389D02*
X12312196Y-14535913D01*
X12312196Y-14535913D02*
X12302672Y-14545436D01*
X12302672Y-14545436D02*
X12283624Y-14574008D01*
X12283624Y-14574008D02*
X12274101Y-14612103D01*
X12274101Y-14612103D02*
X12274101Y-14688293D01*
X12274101Y-14688293D02*
X12283624Y-14707341D01*
X12283624Y-14707341D02*
X12293148Y-14716865D01*
X12293148Y-14716865D02*
X12312196Y-14726389D01*
X12312196Y-14726389D02*
X12350291Y-14726389D01*
X12350291Y-14726389D02*
X12369339Y-14716865D01*
X12369339Y-14716865D02*
X12378862Y-14707341D01*
X12378862Y-14707341D02*
X12388386Y-14688293D01*
X12388386Y-14688293D02*
X12388386Y-14640674D01*
X12388386Y-14640674D02*
X12378862Y-14621627D01*
X12378862Y-14621627D02*
X12369339Y-14612103D01*
X12369339Y-14612103D02*
X12350291Y-14602579D01*
X12350291Y-14602579D02*
X12312196Y-14602579D01*
X12312196Y-14602579D02*
X12293148Y-14612103D01*
X12293148Y-14612103D02*
X12283624Y-14621627D01*
X12283624Y-14621627D02*
X12274101Y-14640674D01*
X12559815Y-14526389D02*
X12521720Y-14526389D01*
X12521720Y-14526389D02*
X12502672Y-14535913D01*
X12502672Y-14535913D02*
X12493148Y-14545436D01*
X12493148Y-14545436D02*
X12474101Y-14574008D01*
X12474101Y-14574008D02*
X12464577Y-14612103D01*
X12464577Y-14612103D02*
X12464577Y-14688293D01*
X12464577Y-14688293D02*
X12474101Y-14707341D01*
X12474101Y-14707341D02*
X12483624Y-14716865D01*
X12483624Y-14716865D02*
X12502672Y-14726389D01*
X12502672Y-14726389D02*
X12540767Y-14726389D01*
X12540767Y-14726389D02*
X12559815Y-14716865D01*
X12559815Y-14716865D02*
X12569339Y-14707341D01*
X12569339Y-14707341D02*
X12578862Y-14688293D01*
X12578862Y-14688293D02*
X12578862Y-14640674D01*
X12578862Y-14640674D02*
X12569339Y-14621627D01*
X12569339Y-14621627D02*
X12559815Y-14612103D01*
X12559815Y-14612103D02*
X12540767Y-14602579D01*
X12540767Y-14602579D02*
X12502672Y-14602579D01*
X12502672Y-14602579D02*
X12483624Y-14612103D01*
X12483624Y-14612103D02*
X12474101Y-14621627D01*
X12474101Y-14621627D02*
X12464577Y-14640674D01*
X12674101Y-14726389D02*
X12712196Y-14726389D01*
X12712196Y-14726389D02*
X12731243Y-14716865D01*
X12731243Y-14716865D02*
X12740767Y-14707341D01*
X12740767Y-14707341D02*
X12759815Y-14678770D01*
X12759815Y-14678770D02*
X12769339Y-14640674D01*
X12769339Y-14640674D02*
X12769339Y-14564484D01*
X12769339Y-14564484D02*
X12759815Y-14545436D01*
X12759815Y-14545436D02*
X12750291Y-14535913D01*
X12750291Y-14535913D02*
X12731243Y-14526389D01*
X12731243Y-14526389D02*
X12693148Y-14526389D01*
X12693148Y-14526389D02*
X12674101Y-14535913D01*
X12674101Y-14535913D02*
X12664577Y-14545436D01*
X12664577Y-14545436D02*
X12655053Y-14564484D01*
X12655053Y-14564484D02*
X12655053Y-14612103D01*
X12655053Y-14612103D02*
X12664577Y-14631151D01*
X12664577Y-14631151D02*
X12674101Y-14640674D01*
X12674101Y-14640674D02*
X12693148Y-14650198D01*
X12693148Y-14650198D02*
X12731243Y-14650198D01*
X12731243Y-14650198D02*
X12750291Y-14640674D01*
X12750291Y-14640674D02*
X12759815Y-14631151D01*
X12759815Y-14631151D02*
X12769339Y-14612103D01*
X12845529Y-14526389D02*
X12845529Y-14564484D01*
X12921720Y-14526389D02*
X12921720Y-14564484D01*
X13216958Y-14802579D02*
X13207434Y-14793055D01*
X13207434Y-14793055D02*
X13188386Y-14764484D01*
X13188386Y-14764484D02*
X13178863Y-14745436D01*
X13178863Y-14745436D02*
X13169339Y-14716865D01*
X13169339Y-14716865D02*
X13159815Y-14669246D01*
X13159815Y-14669246D02*
X13159815Y-14631151D01*
X13159815Y-14631151D02*
X13169339Y-14583532D01*
X13169339Y-14583532D02*
X13178863Y-14554960D01*
X13178863Y-14554960D02*
X13188386Y-14535913D01*
X13188386Y-14535913D02*
X13207434Y-14507341D01*
X13207434Y-14507341D02*
X13216958Y-14497817D01*
X13321720Y-14612103D02*
X13302672Y-14602579D01*
X13302672Y-14602579D02*
X13293148Y-14593055D01*
X13293148Y-14593055D02*
X13283624Y-14574008D01*
X13283624Y-14574008D02*
X13283624Y-14564484D01*
X13283624Y-14564484D02*
X13293148Y-14545436D01*
X13293148Y-14545436D02*
X13302672Y-14535913D01*
X13302672Y-14535913D02*
X13321720Y-14526389D01*
X13321720Y-14526389D02*
X13359815Y-14526389D01*
X13359815Y-14526389D02*
X13378863Y-14535913D01*
X13378863Y-14535913D02*
X13388386Y-14545436D01*
X13388386Y-14545436D02*
X13397910Y-14564484D01*
X13397910Y-14564484D02*
X13397910Y-14574008D01*
X13397910Y-14574008D02*
X13388386Y-14593055D01*
X13388386Y-14593055D02*
X13378863Y-14602579D01*
X13378863Y-14602579D02*
X13359815Y-14612103D01*
X13359815Y-14612103D02*
X13321720Y-14612103D01*
X13321720Y-14612103D02*
X13302672Y-14621627D01*
X13302672Y-14621627D02*
X13293148Y-14631151D01*
X13293148Y-14631151D02*
X13283624Y-14650198D01*
X13283624Y-14650198D02*
X13283624Y-14688293D01*
X13283624Y-14688293D02*
X13293148Y-14707341D01*
X13293148Y-14707341D02*
X13302672Y-14716865D01*
X13302672Y-14716865D02*
X13321720Y-14726389D01*
X13321720Y-14726389D02*
X13359815Y-14726389D01*
X13359815Y-14726389D02*
X13378863Y-14716865D01*
X13378863Y-14716865D02*
X13388386Y-14707341D01*
X13388386Y-14707341D02*
X13397910Y-14688293D01*
X13397910Y-14688293D02*
X13397910Y-14650198D01*
X13397910Y-14650198D02*
X13388386Y-14631151D01*
X13388386Y-14631151D02*
X13378863Y-14621627D01*
X13378863Y-14621627D02*
X13359815Y-14612103D01*
X13636005Y-14726389D02*
X13636005Y-14526389D01*
X13721720Y-14726389D02*
X13721720Y-14621627D01*
X13721720Y-14621627D02*
X13712196Y-14602579D01*
X13712196Y-14602579D02*
X13693148Y-14593055D01*
X13693148Y-14593055D02*
X13664577Y-14593055D01*
X13664577Y-14593055D02*
X13645529Y-14602579D01*
X13645529Y-14602579D02*
X13636005Y-14612103D01*
X13845529Y-14726389D02*
X13826482Y-14716865D01*
X13826482Y-14716865D02*
X13816958Y-14707341D01*
X13816958Y-14707341D02*
X13807434Y-14688293D01*
X13807434Y-14688293D02*
X13807434Y-14631151D01*
X13807434Y-14631151D02*
X13816958Y-14612103D01*
X13816958Y-14612103D02*
X13826482Y-14602579D01*
X13826482Y-14602579D02*
X13845529Y-14593055D01*
X13845529Y-14593055D02*
X13874101Y-14593055D01*
X13874101Y-14593055D02*
X13893148Y-14602579D01*
X13893148Y-14602579D02*
X13902672Y-14612103D01*
X13902672Y-14612103D02*
X13912196Y-14631151D01*
X13912196Y-14631151D02*
X13912196Y-14688293D01*
X13912196Y-14688293D02*
X13902672Y-14707341D01*
X13902672Y-14707341D02*
X13893148Y-14716865D01*
X13893148Y-14716865D02*
X13874101Y-14726389D01*
X13874101Y-14726389D02*
X13845529Y-14726389D01*
X14026482Y-14726389D02*
X14007434Y-14716865D01*
X14007434Y-14716865D02*
X13997910Y-14697817D01*
X13997910Y-14697817D02*
X13997910Y-14526389D01*
X14178863Y-14716865D02*
X14159815Y-14726389D01*
X14159815Y-14726389D02*
X14121720Y-14726389D01*
X14121720Y-14726389D02*
X14102672Y-14716865D01*
X14102672Y-14716865D02*
X14093148Y-14697817D01*
X14093148Y-14697817D02*
X14093148Y-14621627D01*
X14093148Y-14621627D02*
X14102672Y-14602579D01*
X14102672Y-14602579D02*
X14121720Y-14593055D01*
X14121720Y-14593055D02*
X14159815Y-14593055D01*
X14159815Y-14593055D02*
X14178863Y-14602579D01*
X14178863Y-14602579D02*
X14188386Y-14621627D01*
X14188386Y-14621627D02*
X14188386Y-14640674D01*
X14188386Y-14640674D02*
X14093148Y-14659722D01*
X14264577Y-14716865D02*
X14283625Y-14726389D01*
X14283625Y-14726389D02*
X14321720Y-14726389D01*
X14321720Y-14726389D02*
X14340767Y-14716865D01*
X14340767Y-14716865D02*
X14350291Y-14697817D01*
X14350291Y-14697817D02*
X14350291Y-14688293D01*
X14350291Y-14688293D02*
X14340767Y-14669246D01*
X14340767Y-14669246D02*
X14321720Y-14659722D01*
X14321720Y-14659722D02*
X14293148Y-14659722D01*
X14293148Y-14659722D02*
X14274101Y-14650198D01*
X14274101Y-14650198D02*
X14264577Y-14631151D01*
X14264577Y-14631151D02*
X14264577Y-14621627D01*
X14264577Y-14621627D02*
X14274101Y-14602579D01*
X14274101Y-14602579D02*
X14293148Y-14593055D01*
X14293148Y-14593055D02*
X14321720Y-14593055D01*
X14321720Y-14593055D02*
X14340767Y-14602579D01*
X14416958Y-14802579D02*
X14426482Y-14793055D01*
X14426482Y-14793055D02*
X14445529Y-14764484D01*
X14445529Y-14764484D02*
X14455053Y-14745436D01*
X14455053Y-14745436D02*
X14464577Y-14716865D01*
X14464577Y-14716865D02*
X14474101Y-14669246D01*
X14474101Y-14669246D02*
X14474101Y-14631151D01*
X14474101Y-14631151D02*
X14464577Y-14583532D01*
X14464577Y-14583532D02*
X14455053Y-14554960D01*
X14455053Y-14554960D02*
X14445529Y-14535913D01*
X14445529Y-14535913D02*
X14426482Y-14507341D01*
X14426482Y-14507341D02*
X14416958Y-14497817D01*
M02*
