M48
; DRILL file {KiCad 7.0.11+dfsg-1build4} date Sun 02 Aug 2026 09:33:01 PM EDT
; FORMAT={-:-/ absolute / metric / decimal}
; #@! TF.CreationDate,2026-08-02T21:33:01-04:00
; #@! TF.GenerationSoftware,Kicad,Pcbnew,7.0.11+dfsg-1build4
; #@! TF.FileFunction,Plated,1,4,PTH
FMAT,2
METRIC
; #@! TA.AperFunction,Plated,PTH,ViaDrill
T1C0.300
; #@! TA.AperFunction,Plated,PTH,ComponentDrill
T2C0.800
; #@! TA.AperFunction,Plated,PTH,ComponentDrill
T3C1.000
; #@! TA.AperFunction,Plated,PTH,ComponentDrill
T4C1.250
; #@! TA.AperFunction,Plated,PTH,ComponentDrill
T5C1.500
; #@! TA.AperFunction,Plated,PTH,ComponentDrill
T6C1.620
; #@! TA.AperFunction,Plated,PTH,ComponentDrill
T7C1.700
%
G90
G05
T1
X97.254Y-99.85
X97.8Y-108.9
X98.0Y-90.4
X98.0Y-103.1
X98.1Y-107.0
X98.9Y-107.4
X99.1Y-89.1
X99.2Y-81.4
X99.3Y-83.8
X99.3Y-104.7
X99.4Y-78.8
X99.4Y-105.8
X99.9Y-74.0
X100.15Y-111.55
X100.35Y-112.3
X100.9Y-100.45
X101.25Y-111.45
X101.55Y-103.35
X101.6Y-112.25
X102.9Y-112.6
X103.8Y-68.6
X104.0Y-82.7
X104.7Y-80.7
X104.75Y-101.0
X104.85Y-82.05
X104.9Y-94.1
X105.05Y-100.2
X105.1Y-73.95
X105.25Y-72.85
X105.4Y-79.95
X105.4Y-96.1
X105.55Y-101.0
X105.75Y-99.75
X106.0Y-90.4
X106.35Y-101.0
X106.45Y-100.25
X106.95Y-112.2
X107.0Y-75.675
X107.05Y-73.675
X107.05Y-111.35
X107.1Y-90.6
X107.3Y-106.25
X107.75Y-108.95
X107.85Y-111.1
X107.9Y-99.825
X107.9Y-112.15
X108.0Y-96.1
X108.15Y-100.55
X108.2Y-73.575
X108.25Y-69.0
X108.45Y-106.45
X108.5Y-75.5
X108.8Y-101.3
X108.9Y-108.7
X109.1Y-95.8
X109.2Y-109.65
X109.6Y-75.0
X109.8Y-96.1
X109.8Y-103.55
X109.8Y-108.5
X110.1Y-100.6
X111.1Y-99.3
X111.5Y-96.3
X112.3Y-95.8
X112.7Y-97.1
X112.775Y-78.85
X112.8Y-91.0
X113.15Y-75.8
X113.5Y-69.55
X113.55Y-102.25
X116.225Y-62.975
X117.45Y-96.05
X117.475Y-78.45
X118.25Y-69.15
X118.25Y-94.4
X119.1Y-85.9
X120.1Y-64.55
X120.875Y-90.6
X121.25Y-75.7
X121.975Y-76.675
X122.4Y-106.4
X123.8Y-61.7
X124.4Y-93.4
X126.9Y-83.1
X127.0Y-86.5
X127.025Y-104.625
X127.4Y-74.5
X128.4Y-75.3
X129.4Y-85.8
X129.625Y-104.925
X131.15Y-70.85
X132.0Y-73.7
X132.3Y-94.4
X132.5Y-84.9
X133.95Y-63.1
X137.4Y-103.6
X137.6Y-90.75
X138.8Y-90.85
X139.15Y-92.1
X139.425Y-97.775
X139.975Y-90.925
X141.15Y-91.0
X141.375Y-113.7
X142.3Y-74.0
X142.65Y-90.95
X143.75Y-90.975
X145.4Y-92.85
X146.15Y-91.275
X146.275Y-93.9
X147.125Y-94.875
X148.65Y-72.3
X149.425Y-67.675
X149.55Y-72.35
X150.475Y-96.35
X150.5Y-72.35
X151.1Y-94.8
X151.275Y-67.725
X151.35Y-72.1
X153.075Y-67.85
X154.175Y-95.6
X154.5Y-94.1
X154.75Y-67.625
X155.925Y-69.425
X155.925Y-87.575
X156.0Y-95.55
X156.625Y-92.675
X156.85Y-83.85
X156.975Y-84.675
X157.0Y-85.95
X157.9Y-87.5
X159.85Y-105.55
X160.4Y-88.5
X160.65Y-106.4
X162.05Y-106.05
X163.2Y-107.55
X163.45Y-105.65
X163.925Y-91.6
X164.35Y-100.45
X164.4Y-95.85
X164.6Y-87.9
X165.9Y-97.75
X165.95Y-96.85
X166.1Y-90.6
X166.4Y-91.4
X167.2Y-92.2
X167.7Y-95.3
X167.8Y-98.4
X168.05Y-93.825
X168.4Y-99.15
X168.4Y-101.4
X168.625Y-94.9
X168.9Y-88.2
X168.95Y-91.15
X169.35Y-98.8
X169.4Y-89.8
X170.05Y-101.775
X170.3Y-89.2
X170.4Y-92.5
X170.45Y-93.5
X170.45Y-94.4
X170.75Y-88.15
X171.15Y-105.7
X171.5Y-92.5
X171.5Y-93.4
X171.5Y-94.4
X171.85Y-70.05
X172.05Y-107.0
X172.5Y-92.5
X172.5Y-93.45
X172.5Y-94.35
X172.8Y-105.6
X173.0Y-89.0
X173.4Y-89.8
X174.15Y-107.1
X174.2Y-106.2
X174.25Y-91.2
X174.75Y-66.575
X174.8Y-74.9
X174.85Y-98.95
X175.0Y-99.85
X175.15Y-93.85
X175.4Y-105.65
X176.0Y-92.6
X177.0Y-66.662
X177.7Y-98.85
X178.25Y-96.1
X178.25Y-97.95
X178.3Y-89.5
X178.45Y-91.925
X180.4Y-97.6
X181.05Y-98.3
X181.5Y-84.9
X184.3Y-83.625
X184.325Y-82.5
X184.325Y-84.5
X185.4Y-90.425
X185.625Y-86.125
X186.475Y-104.1
X186.8Y-90.35
X187.025Y-95.575
X187.125Y-86.3
X187.95Y-90.4
X188.175Y-86.35
X189.05Y-90.4
X189.15Y-86.525
X190.15Y-90.425
X190.225Y-86.575
X191.35Y-86.475
X191.35Y-90.475
X195.85Y-104.45
X197.45Y-75.25
X197.6Y-70.0
T2
X122.22Y-60.425
X124.76Y-60.425
X127.3Y-60.425
T3
X132.58Y-110.8
X133.62Y-100.0
X135.12Y-110.8
X136.16Y-100.0
X137.66Y-110.8
X138.7Y-100.0
X140.2Y-110.8
X141.24Y-100.0
X142.74Y-110.8
X143.78Y-100.0
X145.28Y-110.8
X196.2Y-66.86
X196.2Y-69.4
X196.2Y-71.94
X196.2Y-74.48
X196.325Y-100.45
X196.325Y-102.95
T4
X161.905Y-108.4
X173.145Y-108.4
T5
X116.05Y-117.05
X116.1Y-108.1
T6
X161.905Y-112.4
X173.145Y-112.4
T7
X113.5Y-114.5
X113.5Y-119.6
X113.55Y-105.55
X113.55Y-110.65
X118.6Y-114.5
X118.6Y-119.6
X118.65Y-105.55
X118.65Y-110.65
M30
