G04 #@! TF.GenerationSoftware,KiCad,Pcbnew,7.0.11+dfsg-1build4*
G04 #@! TF.CreationDate,2026-08-02T21:33:25-04:00*
G04 #@! TF.ProjectId,radar2,72616461-7232-42e6-9b69-6361645f7063,rev?*
G04 #@! TF.SameCoordinates,Original*
G04 #@! TF.FileFunction,Copper,L2,Inr*
G04 #@! TF.FilePolarity,Positive*
%FSLAX46Y46*%
G04 Gerber Fmt 4.6, Leading zero omitted, Abs format (unit mm)*
G04 Created by KiCad (PCBNEW 7.0.11+dfsg-1build4) date 2026-08-02 21:33:25*
%MOMM*%
%LPD*%
G01*
G04 APERTURE LIST*
G04 Aperture macros list*
%AMRoundRect*
0 Rectangle with rounded corners*
0 $1 Rounding radius*
0 $2 $3 $4 $5 $6 $7 $8 $9 X,Y pos of 4 corners*
0 Add a 4 corners polygon primitive as box body*
4,1,4,$2,$3,$4,$5,$6,$7,$8,$9,$2,$3,0*
0 Add four circle primitives for the rounded corners*
1,1,$1+$1,$2,$3*
1,1,$1+$1,$4,$5*
1,1,$1+$1,$6,$7*
1,1,$1+$1,$8,$9*
0 Add four rect primitives between the rounded corners*
20,1,$1+$1,$2,$3,$4,$5,0*
20,1,$1+$1,$4,$5,$6,$7,0*
20,1,$1+$1,$6,$7,$8,$9,0*
20,1,$1+$1,$8,$9,$2,$3,0*%
G04 Aperture macros list end*
G04 #@! TA.AperFunction,ComponentPad*
%ADD10RoundRect,0.250000X-0.750000X0.600000X-0.750000X-0.600000X0.750000X-0.600000X0.750000X0.600000X0*%
G04 #@! TD*
G04 #@! TA.AperFunction,ComponentPad*
%ADD11O,2.000000X1.700000*%
G04 #@! TD*
G04 #@! TA.AperFunction,ComponentPad*
%ADD12R,2.300000X2.300000*%
G04 #@! TD*
G04 #@! TA.AperFunction,ComponentPad*
%ADD13C,2.500000*%
G04 #@! TD*
G04 #@! TA.AperFunction,ComponentPad*
%ADD14R,1.700000X1.700000*%
G04 #@! TD*
G04 #@! TA.AperFunction,ComponentPad*
%ADD15O,1.700000X1.700000*%
G04 #@! TD*
G04 #@! TA.AperFunction,ComponentPad*
%ADD16C,1.300000*%
G04 #@! TD*
G04 #@! TA.AperFunction,ComponentPad*
%ADD17C,1.875000*%
G04 #@! TD*
G04 #@! TA.AperFunction,ComponentPad*
%ADD18C,2.430000*%
G04 #@! TD*
G04 #@! TA.AperFunction,ViaPad*
%ADD19C,0.600000*%
G04 #@! TD*
G04 APERTURE END LIST*
D10*
X196325000Y-100450000D03*
D11*
X196325000Y-102950000D03*
D12*
X116050000Y-117050000D03*
D13*
X118600000Y-119600000D03*
X118600000Y-114500000D03*
X113500000Y-114500000D03*
X113500000Y-119600000D03*
D14*
X132580000Y-110800000D03*
D15*
X135120000Y-110800000D03*
X137660000Y-110800000D03*
X140200000Y-110800000D03*
X142740000Y-110800000D03*
X145280000Y-110800000D03*
D14*
X196200000Y-66860000D03*
D15*
X196200000Y-69400000D03*
X196200000Y-71940000D03*
X196200000Y-74480000D03*
D16*
X124760000Y-60425000D03*
X127300000Y-60425000D03*
X122220000Y-60425000D03*
D17*
X161905000Y-108400000D03*
D18*
X161905000Y-112400000D03*
X173145000Y-112400000D03*
D17*
X173145000Y-108400000D03*
D14*
X143780000Y-100000000D03*
D15*
X141240000Y-100000000D03*
X138700000Y-100000000D03*
X136160000Y-100000000D03*
X133620000Y-100000000D03*
D12*
X116100000Y-108100000D03*
D13*
X113550000Y-110650000D03*
X118650000Y-110650000D03*
X118650000Y-105550000D03*
X113550000Y-105550000D03*
D19*
X156000000Y-95550000D03*
X168950000Y-91150000D03*
X181050000Y-98300000D03*
X180400000Y-97600000D03*
X133950000Y-63100000D03*
X171850000Y-70050000D03*
X122400000Y-106400000D03*
X112800000Y-91000000D03*
X118250000Y-94400000D03*
X117450000Y-96050000D03*
X112700000Y-97100000D03*
X105250000Y-72850000D03*
X171150000Y-105700000D03*
X174200000Y-106200000D03*
X172800000Y-105600000D03*
X175400000Y-105650000D03*
X174150000Y-107100000D03*
X172050000Y-107000000D03*
X162050000Y-106050000D03*
X163200000Y-107550000D03*
X160650000Y-106400000D03*
X163450000Y-105650000D03*
X159850000Y-105550000D03*
X101250000Y-111450000D03*
X100350000Y-112300000D03*
X101600000Y-112250000D03*
X100150000Y-111550000D03*
X108450000Y-106450000D03*
X107300000Y-106250000D03*
X109800000Y-108500000D03*
X109200000Y-109650000D03*
X108900000Y-108700000D03*
X107750000Y-108950000D03*
X107900000Y-112150000D03*
X106950000Y-112200000D03*
X107050000Y-111350000D03*
X107850000Y-111100000D03*
X113500000Y-69550000D03*
X118250000Y-69150000D03*
X108250000Y-69000000D03*
X123800000Y-61700000D03*
X131150000Y-70850000D03*
X110100000Y-100600000D03*
X97254394Y-99850060D03*
X109800000Y-103550000D03*
X108800000Y-101300000D03*
X101550000Y-103350000D03*
X105750000Y-99750000D03*
X105050000Y-100200000D03*
X106450000Y-100250000D03*
X105550000Y-101000000D03*
X104750000Y-101000000D03*
X100900000Y-100450000D03*
X106350000Y-101000000D03*
X113550000Y-102250000D03*
X195850000Y-104450000D03*
X197600000Y-70000000D03*
X197450000Y-75250000D03*
X151350000Y-72100000D03*
X170750000Y-88150000D03*
X165900000Y-97750000D03*
X165950000Y-96850000D03*
X164400000Y-95850000D03*
X168400000Y-99150000D03*
X167800000Y-98400000D03*
X169350000Y-98800000D03*
X174850000Y-98950000D03*
X175000000Y-99850000D03*
X177700000Y-98850000D03*
X178250000Y-97950000D03*
X178250000Y-96100000D03*
X141375000Y-113700000D03*
X139425000Y-97775000D03*
X191350000Y-90475000D03*
X190150000Y-90425000D03*
X189050000Y-90400000D03*
X187950000Y-90400000D03*
X186800000Y-90350000D03*
X185400000Y-90425000D03*
X184325000Y-82500000D03*
X184300000Y-83625000D03*
X184325000Y-84500000D03*
X157000000Y-85950000D03*
X156975000Y-84675000D03*
X156850000Y-83850000D03*
X185625000Y-86125000D03*
X149425000Y-67675000D03*
X155925000Y-69425000D03*
X154750000Y-67625000D03*
X153075000Y-67850000D03*
X151275000Y-67725000D03*
X189150000Y-86525000D03*
X188175000Y-86350000D03*
X187125000Y-86300000D03*
X190225000Y-86575000D03*
X191350000Y-86475000D03*
X146275000Y-93900000D03*
X145400000Y-92850000D03*
X139150000Y-92100000D03*
X137600000Y-90750000D03*
X138800000Y-90850000D03*
X139975000Y-90925000D03*
X141150000Y-91000000D03*
X142650000Y-90950000D03*
X143750000Y-90975000D03*
X147125000Y-94875000D03*
X154175000Y-95600000D03*
X150475000Y-96350000D03*
X156625000Y-92675000D03*
X120875000Y-90600000D03*
X112775000Y-78850000D03*
X105100000Y-73950000D03*
X113150000Y-75800000D03*
X107000000Y-75675000D03*
X121250000Y-75700000D03*
X117475000Y-78450000D03*
X121975000Y-76675000D03*
X120100000Y-64550000D03*
X116225000Y-62975000D03*
X107900000Y-99825000D03*
X111100000Y-99300000D03*
X166100000Y-90600000D03*
X146150000Y-91275000D03*
X168625000Y-94900000D03*
X178450000Y-91925000D03*
X173000000Y-89000000D03*
X163925000Y-91600000D03*
X187025000Y-95575000D03*
X176000000Y-92600000D03*
X186475000Y-104100000D03*
X175150000Y-93850000D03*
X167700000Y-95300000D03*
X168050000Y-93825000D03*
X155925000Y-87575000D03*
X108200000Y-73575000D03*
X164350000Y-100450000D03*
X107050000Y-73675000D03*
X168400000Y-101400000D03*
X108500000Y-75500000D03*
X170050000Y-101775000D03*
X109600000Y-75000000D03*
X154500000Y-94100000D03*
X166400000Y-91400000D03*
X151100000Y-94800000D03*
X167200000Y-92200000D03*
X164600000Y-87900000D03*
X168900000Y-88200000D03*
X181500000Y-84900000D03*
X106000000Y-90400000D03*
X129625000Y-104925000D03*
X127025000Y-104625000D03*
X104900000Y-94100000D03*
X137400000Y-103600000D03*
X124400000Y-93400000D03*
X132300000Y-94400000D03*
X129400000Y-85800000D03*
X132500000Y-84900000D03*
X119100000Y-85900000D03*
X150500000Y-72350000D03*
X149550000Y-72350000D03*
X148650000Y-72300000D03*
X174800000Y-74900000D03*
X174750000Y-66575000D03*
X177000000Y-66662500D03*
X107100000Y-90600000D03*
X99900000Y-74000000D03*
X127400000Y-74500000D03*
X126900000Y-83100000D03*
X127000000Y-86500000D03*
X128400000Y-75300000D03*
X142300000Y-74000000D03*
X132000000Y-73700000D03*
X99400000Y-78800000D03*
X105400000Y-79950000D03*
X104700000Y-80700000D03*
X104850000Y-82050000D03*
X104000000Y-82700000D03*
X99200000Y-81400000D03*
X99100000Y-89100000D03*
X98000000Y-90400000D03*
X103800000Y-68600000D03*
X99300000Y-83800000D03*
X172500000Y-94350000D03*
X171500000Y-94400000D03*
X170450000Y-94400000D03*
X172500000Y-93450000D03*
X171500000Y-93400000D03*
X170450000Y-93500000D03*
X172500000Y-92500000D03*
X171500000Y-92500000D03*
X170400000Y-92500000D03*
X178300000Y-89500000D03*
X174250000Y-91200000D03*
X173400000Y-89800000D03*
X170300000Y-89200000D03*
X157900000Y-87500000D03*
X169400000Y-89800000D03*
X160400000Y-88500000D03*
X98100000Y-107000000D03*
X109100000Y-95800000D03*
X98000000Y-103100000D03*
X108000000Y-96100000D03*
X111500000Y-96300000D03*
X99400000Y-105800000D03*
X102900000Y-112600000D03*
X108150000Y-100550000D03*
X105400000Y-96100000D03*
X97800000Y-108900000D03*
X109800000Y-96100000D03*
X98900000Y-107400000D03*
X112300000Y-95800000D03*
X99300000Y-104700000D03*
G04 #@! TA.AperFunction,Conductor*
G36*
X121883708Y-59320185D02*
G01*
X121929463Y-59372989D01*
X121939407Y-59442147D01*
X121910382Y-59505703D01*
X121859485Y-59538735D01*
X121860123Y-59540274D01*
X121854499Y-59542603D01*
X121689376Y-59630862D01*
X121689373Y-59630864D01*
X121544642Y-59749642D01*
X121425864Y-59894373D01*
X121425862Y-59894376D01*
X121337604Y-60059497D01*
X121283253Y-60238666D01*
X121283252Y-60238668D01*
X121264901Y-60425000D01*
X121283252Y-60611331D01*
X121283253Y-60611333D01*
X121337604Y-60790502D01*
X121425862Y-60955623D01*
X121425864Y-60955626D01*
X121544642Y-61100357D01*
X121689373Y-61219135D01*
X121689376Y-61219137D01*
X121854497Y-61307395D01*
X121854499Y-61307396D01*
X122033666Y-61361746D01*
X122033668Y-61361747D01*
X122050374Y-61363392D01*
X122220000Y-61380099D01*
X122406331Y-61361747D01*
X122585501Y-61307396D01*
X122750625Y-61219136D01*
X122895357Y-61100357D01*
X123014136Y-60955625D01*
X123102396Y-60790501D01*
X123156747Y-60611331D01*
X123175099Y-60425000D01*
X123156747Y-60238669D01*
X123102396Y-60059499D01*
X123102395Y-60059497D01*
X123014137Y-59894376D01*
X123014135Y-59894373D01*
X122895357Y-59749642D01*
X122750626Y-59630864D01*
X122750623Y-59630862D01*
X122585500Y-59542603D01*
X122579877Y-59540274D01*
X122580528Y-59538700D01*
X122528895Y-59504860D01*
X122500440Y-59441047D01*
X122511002Y-59371981D01*
X122557228Y-59319588D01*
X122623331Y-59300500D01*
X124021634Y-59300500D01*
X124088673Y-59320185D01*
X124134428Y-59372989D01*
X124144808Y-59438791D01*
X124142992Y-59454440D01*
X124715599Y-60027046D01*
X124634852Y-60039835D01*
X124521955Y-60097359D01*
X124432359Y-60186955D01*
X124374835Y-60299852D01*
X124362046Y-60380598D01*
X123786836Y-59805388D01*
X123778059Y-59817010D01*
X123683066Y-60007783D01*
X123683058Y-60007803D01*
X123624738Y-60212780D01*
X123624737Y-60212783D01*
X123605073Y-60424999D01*
X123605073Y-60425000D01*
X123624737Y-60637216D01*
X123624738Y-60637219D01*
X123683058Y-60842196D01*
X123683064Y-60842211D01*
X123778061Y-61032991D01*
X123778064Y-61032996D01*
X123786836Y-61044610D01*
X124362046Y-60469400D01*
X124374835Y-60550148D01*
X124432359Y-60663045D01*
X124521955Y-60752641D01*
X124634852Y-60810165D01*
X124715599Y-60822953D01*
X124142991Y-61395559D01*
X124245204Y-61458847D01*
X124245208Y-61458849D01*
X124443936Y-61535836D01*
X124443941Y-61535837D01*
X124653439Y-61575000D01*
X124866561Y-61575000D01*
X125076058Y-61535837D01*
X125076063Y-61535836D01*
X125274791Y-61458849D01*
X125274798Y-61458846D01*
X125377006Y-61395560D01*
X125377006Y-61395559D01*
X124804401Y-60822953D01*
X124885148Y-60810165D01*
X124998045Y-60752641D01*
X125087641Y-60663045D01*
X125145165Y-60550148D01*
X125157953Y-60469400D01*
X125733162Y-61044609D01*
X125733163Y-61044609D01*
X125741940Y-61032988D01*
X125741942Y-61032985D01*
X125836933Y-60842216D01*
X125836941Y-60842196D01*
X125895261Y-60637219D01*
X125895262Y-60637216D01*
X125914927Y-60425000D01*
X125914927Y-60424999D01*
X125895262Y-60212783D01*
X125895261Y-60212780D01*
X125836941Y-60007803D01*
X125836933Y-60007783D01*
X125741942Y-59817014D01*
X125741937Y-59817006D01*
X125733163Y-59805389D01*
X125157953Y-60380598D01*
X125145165Y-60299852D01*
X125087641Y-60186955D01*
X124998045Y-60097359D01*
X124885148Y-60039835D01*
X124804401Y-60027046D01*
X125377006Y-59454440D01*
X125375191Y-59438791D01*
X125387018Y-59369930D01*
X125434197Y-59318394D01*
X125498365Y-59300500D01*
X126896669Y-59300500D01*
X126963708Y-59320185D01*
X127009463Y-59372989D01*
X127019407Y-59442147D01*
X126990382Y-59505703D01*
X126939485Y-59538735D01*
X126940123Y-59540274D01*
X126934499Y-59542603D01*
X126769376Y-59630862D01*
X126769373Y-59630864D01*
X126624642Y-59749642D01*
X126505864Y-59894373D01*
X126505862Y-59894376D01*
X126417604Y-60059497D01*
X126363253Y-60238666D01*
X126363252Y-60238668D01*
X126344901Y-60425000D01*
X126363252Y-60611331D01*
X126363253Y-60611333D01*
X126417604Y-60790502D01*
X126505862Y-60955623D01*
X126505864Y-60955626D01*
X126624642Y-61100357D01*
X126769373Y-61219135D01*
X126769376Y-61219137D01*
X126934497Y-61307395D01*
X126934499Y-61307396D01*
X127113666Y-61361746D01*
X127113668Y-61361747D01*
X127130374Y-61363392D01*
X127300000Y-61380099D01*
X127486331Y-61361747D01*
X127665501Y-61307396D01*
X127830625Y-61219136D01*
X127975357Y-61100357D01*
X128094136Y-60955625D01*
X128182396Y-60790501D01*
X128236747Y-60611331D01*
X128255099Y-60425000D01*
X128236747Y-60238669D01*
X128182396Y-60059499D01*
X128182395Y-60059497D01*
X128094137Y-59894376D01*
X128094135Y-59894373D01*
X127975357Y-59749642D01*
X127830626Y-59630864D01*
X127830623Y-59630862D01*
X127665500Y-59542603D01*
X127659877Y-59540274D01*
X127660528Y-59538700D01*
X127608895Y-59504860D01*
X127580440Y-59441047D01*
X127591002Y-59371981D01*
X127637228Y-59319588D01*
X127703331Y-59300500D01*
X199175500Y-59300500D01*
X199242539Y-59320185D01*
X199288294Y-59372989D01*
X199299500Y-59424500D01*
X199299500Y-113975080D01*
X199279815Y-114042119D01*
X199227011Y-114087874D01*
X199175417Y-114099080D01*
X174123915Y-114082278D01*
X174056889Y-114062548D01*
X174011169Y-114009714D01*
X174001272Y-113940549D01*
X174030340Y-113877012D01*
X174054147Y-113855824D01*
X174168980Y-113777532D01*
X173515361Y-113123913D01*
X173653222Y-113037290D01*
X173782290Y-112908222D01*
X173868913Y-112770361D01*
X174522219Y-113423667D01*
X174522220Y-113423666D01*
X174565966Y-113368812D01*
X174565973Y-113368801D01*
X174694492Y-113146199D01*
X174694496Y-113146191D01*
X174788400Y-112906928D01*
X174788406Y-112906909D01*
X174845600Y-112656324D01*
X174845600Y-112656322D01*
X174864809Y-112400000D01*
X174864809Y-112399995D01*
X174845600Y-112143677D01*
X174845600Y-112143675D01*
X174788406Y-111893090D01*
X174788400Y-111893071D01*
X174694496Y-111653808D01*
X174694492Y-111653800D01*
X174565970Y-111431193D01*
X174522220Y-111376331D01*
X173868913Y-112029638D01*
X173782290Y-111891778D01*
X173653222Y-111762710D01*
X173515361Y-111676086D01*
X174168980Y-111022466D01*
X174004905Y-110910602D01*
X174004896Y-110910597D01*
X173773319Y-110799076D01*
X173773321Y-110799076D01*
X173527695Y-110723310D01*
X173527689Y-110723308D01*
X173273528Y-110685000D01*
X173016471Y-110685000D01*
X172762310Y-110723308D01*
X172762304Y-110723310D01*
X172516681Y-110799076D01*
X172516677Y-110799077D01*
X172285096Y-110910601D01*
X172285088Y-110910606D01*
X172121018Y-111022465D01*
X172774639Y-111676086D01*
X172636778Y-111762710D01*
X172507710Y-111891778D01*
X172421086Y-112029639D01*
X171767779Y-111376332D01*
X171724023Y-111431201D01*
X171595507Y-111653800D01*
X171595503Y-111653808D01*
X171501599Y-111893071D01*
X171501593Y-111893090D01*
X171444399Y-112143675D01*
X171444399Y-112143677D01*
X171425191Y-112399995D01*
X171425191Y-112400000D01*
X171444399Y-112656322D01*
X171444399Y-112656324D01*
X171501593Y-112906909D01*
X171501599Y-112906928D01*
X171595503Y-113146191D01*
X171595507Y-113146199D01*
X171724026Y-113368802D01*
X171767778Y-113423667D01*
X172421085Y-112770360D01*
X172507710Y-112908222D01*
X172636778Y-113037290D01*
X172774638Y-113123913D01*
X172121018Y-113777532D01*
X172233924Y-113854509D01*
X172278226Y-113908537D01*
X172286286Y-113977941D01*
X172255543Y-114040684D01*
X172195760Y-114076846D01*
X172163990Y-114080963D01*
X162894962Y-114074747D01*
X162827936Y-114055017D01*
X162782216Y-114002183D01*
X162772319Y-113933018D01*
X162801387Y-113869481D01*
X162825194Y-113848293D01*
X162928980Y-113777532D01*
X162275361Y-113123913D01*
X162413222Y-113037290D01*
X162542290Y-112908222D01*
X162628913Y-112770361D01*
X163282219Y-113423667D01*
X163282220Y-113423666D01*
X163325966Y-113368812D01*
X163325973Y-113368801D01*
X163454492Y-113146199D01*
X163454496Y-113146191D01*
X163548400Y-112906928D01*
X163548406Y-112906909D01*
X163605600Y-112656324D01*
X163605600Y-112656322D01*
X163624809Y-112400000D01*
X163624809Y-112399995D01*
X163605600Y-112143677D01*
X163605600Y-112143675D01*
X163548406Y-111893090D01*
X163548400Y-111893071D01*
X163454496Y-111653808D01*
X163454492Y-111653800D01*
X163325970Y-111431193D01*
X163282220Y-111376331D01*
X162628913Y-112029638D01*
X162542290Y-111891778D01*
X162413222Y-111762710D01*
X162275361Y-111676086D01*
X162928980Y-111022466D01*
X162764905Y-110910602D01*
X162764896Y-110910597D01*
X162533319Y-110799076D01*
X162533321Y-110799076D01*
X162287695Y-110723310D01*
X162287689Y-110723308D01*
X162033528Y-110685000D01*
X161776471Y-110685000D01*
X161522310Y-110723308D01*
X161522304Y-110723310D01*
X161276681Y-110799076D01*
X161276677Y-110799077D01*
X161045096Y-110910601D01*
X161045088Y-110910606D01*
X160881018Y-111022465D01*
X161534639Y-111676086D01*
X161396778Y-111762710D01*
X161267710Y-111891778D01*
X161181086Y-112029638D01*
X160527779Y-111376332D01*
X160484023Y-111431201D01*
X160355507Y-111653800D01*
X160355503Y-111653808D01*
X160261599Y-111893071D01*
X160261593Y-111893090D01*
X160204399Y-112143675D01*
X160204399Y-112143677D01*
X160185191Y-112399995D01*
X160185191Y-112400000D01*
X160204399Y-112656322D01*
X160204399Y-112656324D01*
X160261593Y-112906909D01*
X160261599Y-112906928D01*
X160355503Y-113146191D01*
X160355507Y-113146199D01*
X160484026Y-113368802D01*
X160527778Y-113423667D01*
X161181085Y-112770360D01*
X161267710Y-112908222D01*
X161396778Y-113037290D01*
X161534638Y-113123913D01*
X160881018Y-113777532D01*
X160982855Y-113846963D01*
X161027157Y-113900992D01*
X161035217Y-113970395D01*
X161004474Y-114033138D01*
X160944691Y-114069300D01*
X160912921Y-114073417D01*
X125323015Y-114049548D01*
X125298323Y-114046658D01*
X125295241Y-114046381D01*
X125295240Y-114046381D01*
X125295238Y-114046381D01*
X125295237Y-114046381D01*
X125240169Y-114049312D01*
X125233505Y-114049487D01*
X125214543Y-114049475D01*
X125214533Y-114049476D01*
X125206594Y-114050612D01*
X125195632Y-114051685D01*
X125151529Y-114054033D01*
X125151518Y-114054036D01*
X125141749Y-114057478D01*
X125118116Y-114063273D01*
X125107869Y-114064739D01*
X125107868Y-114064740D01*
X125072281Y-114080963D01*
X125067674Y-114083063D01*
X125057457Y-114087182D01*
X125015784Y-114101868D01*
X125015780Y-114101870D01*
X125007373Y-114107928D01*
X124986331Y-114120145D01*
X124976913Y-114124438D01*
X124976912Y-114124439D01*
X124943505Y-114153347D01*
X124934861Y-114160180D01*
X124899012Y-114186012D01*
X124892659Y-114194185D01*
X124875905Y-114211844D01*
X124868079Y-114218615D01*
X124868077Y-114218618D01*
X124844171Y-114255762D01*
X124837806Y-114264747D01*
X124832884Y-114271079D01*
X124823483Y-114287574D01*
X124820023Y-114293282D01*
X124790186Y-114339640D01*
X124788918Y-114342413D01*
X124779171Y-114365328D01*
X119696427Y-123284106D01*
X119646132Y-123332605D01*
X119600672Y-123346130D01*
X119582075Y-123347934D01*
X119571918Y-123348920D01*
X119559947Y-123349500D01*
X111166393Y-123349500D01*
X111099354Y-123329815D01*
X111062013Y-123292439D01*
X108694038Y-119600004D01*
X111745093Y-119600004D01*
X111764692Y-119861545D01*
X111764693Y-119861550D01*
X111823058Y-120117270D01*
X111918883Y-120361426D01*
X111918882Y-120361426D01*
X112050027Y-120588573D01*
X112097874Y-120648571D01*
X112748766Y-119997679D01*
X112792316Y-120079822D01*
X112912009Y-120220735D01*
X113059195Y-120332623D01*
X113101401Y-120352150D01*
X112450830Y-121002720D01*
X112622546Y-121119793D01*
X112622550Y-121119795D01*
X112858854Y-121233594D01*
X112858858Y-121233595D01*
X113109494Y-121310907D01*
X113109500Y-121310909D01*
X113368848Y-121349999D01*
X113368857Y-121350000D01*
X113631143Y-121350000D01*
X113631151Y-121349999D01*
X113890499Y-121310909D01*
X113890505Y-121310907D01*
X114141143Y-121233595D01*
X114377445Y-121119798D01*
X114377447Y-121119797D01*
X114549168Y-121002720D01*
X113898609Y-120352161D01*
X114017431Y-120280669D01*
X114151658Y-120153523D01*
X114254861Y-120001308D01*
X114902125Y-120648572D01*
X114949971Y-120588573D01*
X115081116Y-120361426D01*
X115176941Y-120117270D01*
X115235306Y-119861550D01*
X115235307Y-119861545D01*
X115254907Y-119600004D01*
X115254907Y-119599995D01*
X115235307Y-119338454D01*
X115235306Y-119338449D01*
X115176941Y-119082729D01*
X115081116Y-118838573D01*
X115081117Y-118838573D01*
X114993316Y-118686499D01*
X114976843Y-118618599D01*
X114999695Y-118552572D01*
X115054616Y-118509382D01*
X115100698Y-118500499D01*
X116999297Y-118500499D01*
X117066336Y-118520184D01*
X117112091Y-118572988D01*
X117122035Y-118642146D01*
X117106684Y-118686499D01*
X117018883Y-118838573D01*
X116923058Y-119082729D01*
X116864693Y-119338449D01*
X116864692Y-119338454D01*
X116845093Y-119599995D01*
X116845093Y-119600004D01*
X116864692Y-119861545D01*
X116864693Y-119861550D01*
X116923058Y-120117270D01*
X117018883Y-120361426D01*
X117018882Y-120361426D01*
X117150027Y-120588573D01*
X117197874Y-120648571D01*
X117848766Y-119997679D01*
X117892316Y-120079822D01*
X118012009Y-120220735D01*
X118159195Y-120332623D01*
X118201401Y-120352150D01*
X117550830Y-121002720D01*
X117722546Y-121119793D01*
X117722550Y-121119795D01*
X117958854Y-121233594D01*
X117958858Y-121233595D01*
X118209494Y-121310907D01*
X118209500Y-121310909D01*
X118468848Y-121349999D01*
X118468857Y-121350000D01*
X118731143Y-121350000D01*
X118731151Y-121349999D01*
X118990499Y-121310909D01*
X118990505Y-121310907D01*
X119241143Y-121233595D01*
X119477445Y-121119798D01*
X119477447Y-121119797D01*
X119649168Y-121002720D01*
X118998609Y-120352161D01*
X119117431Y-120280669D01*
X119251658Y-120153523D01*
X119354861Y-120001308D01*
X120002125Y-120648572D01*
X120049971Y-120588573D01*
X120181116Y-120361426D01*
X120276941Y-120117270D01*
X120335306Y-119861550D01*
X120335307Y-119861545D01*
X120354907Y-119600004D01*
X120354907Y-119599995D01*
X120335307Y-119338454D01*
X120335306Y-119338449D01*
X120276941Y-119082729D01*
X120181116Y-118838573D01*
X120181117Y-118838573D01*
X120049972Y-118611426D01*
X120002124Y-118551427D01*
X119351232Y-119202319D01*
X119307684Y-119120178D01*
X119187991Y-118979265D01*
X119040805Y-118867377D01*
X118998597Y-118847849D01*
X119649168Y-118197278D01*
X119477454Y-118080206D01*
X119477445Y-118080201D01*
X119241142Y-117966404D01*
X119241144Y-117966404D01*
X118990505Y-117889092D01*
X118990499Y-117889090D01*
X118731151Y-117850000D01*
X118468848Y-117850000D01*
X118209500Y-117889090D01*
X118209494Y-117889092D01*
X117958858Y-117966404D01*
X117958854Y-117966405D01*
X117722550Y-118080204D01*
X117722549Y-118080205D01*
X117694349Y-118099431D01*
X117627870Y-118120930D01*
X117560320Y-118103075D01*
X117513146Y-118051534D01*
X117500499Y-117996979D01*
X117500499Y-116103022D01*
X117520184Y-116035984D01*
X117572988Y-115990229D01*
X117642146Y-115980285D01*
X117694351Y-116000570D01*
X117722544Y-116019792D01*
X117722550Y-116019795D01*
X117958854Y-116133594D01*
X117958858Y-116133595D01*
X118209494Y-116210907D01*
X118209500Y-116210909D01*
X118468848Y-116249999D01*
X118468857Y-116250000D01*
X118731143Y-116250000D01*
X118731151Y-116249999D01*
X118990499Y-116210909D01*
X118990505Y-116210907D01*
X119241143Y-116133595D01*
X119477445Y-116019798D01*
X119477447Y-116019797D01*
X119649168Y-115902720D01*
X118998609Y-115252161D01*
X119117431Y-115180669D01*
X119251658Y-115053523D01*
X119354861Y-114901308D01*
X120002125Y-115548572D01*
X120049971Y-115488573D01*
X120181116Y-115261426D01*
X120276941Y-115017270D01*
X120335306Y-114761550D01*
X120335307Y-114761545D01*
X120354907Y-114500004D01*
X120354907Y-114499995D01*
X120335307Y-114238454D01*
X120335306Y-114238449D01*
X120276941Y-113982729D01*
X120181116Y-113738573D01*
X120181117Y-113738573D01*
X120049972Y-113511426D01*
X120002124Y-113451427D01*
X119351232Y-114102319D01*
X119307684Y-114020178D01*
X119187991Y-113879265D01*
X119040805Y-113767377D01*
X118998597Y-113747849D01*
X119649168Y-113097278D01*
X119477454Y-112980206D01*
X119477445Y-112980201D01*
X119241142Y-112866404D01*
X119241144Y-112866404D01*
X118990505Y-112789092D01*
X118990499Y-112789090D01*
X118731151Y-112750000D01*
X118468848Y-112750000D01*
X118209500Y-112789090D01*
X118209494Y-112789092D01*
X117958858Y-112866404D01*
X117958854Y-112866405D01*
X117722547Y-112980205D01*
X117722539Y-112980210D01*
X117550830Y-113097277D01*
X118201390Y-113747837D01*
X118082569Y-113819331D01*
X117948342Y-113946477D01*
X117845138Y-114098691D01*
X117197875Y-113451427D01*
X117197874Y-113451427D01*
X117150028Y-113511425D01*
X117018883Y-113738573D01*
X116923058Y-113982729D01*
X116864693Y-114238449D01*
X116864692Y-114238454D01*
X116845093Y-114499995D01*
X116845093Y-114500004D01*
X116864692Y-114761545D01*
X116864693Y-114761550D01*
X116923058Y-115017270D01*
X117018881Y-115261423D01*
X117106684Y-115413499D01*
X117123157Y-115481399D01*
X117100305Y-115547426D01*
X117045384Y-115590617D01*
X116999297Y-115599500D01*
X115100703Y-115599500D01*
X115033664Y-115579815D01*
X114987909Y-115527011D01*
X114977965Y-115457853D01*
X114993316Y-115413499D01*
X115081118Y-115261423D01*
X115176941Y-115017270D01*
X115235306Y-114761550D01*
X115235307Y-114761545D01*
X115254907Y-114500004D01*
X115254907Y-114499995D01*
X115235307Y-114238454D01*
X115235306Y-114238449D01*
X115176941Y-113982729D01*
X115081116Y-113738573D01*
X115081117Y-113738573D01*
X114949972Y-113511426D01*
X114902124Y-113451427D01*
X114251232Y-114102319D01*
X114207684Y-114020178D01*
X114087991Y-113879265D01*
X113940805Y-113767377D01*
X113898597Y-113747849D01*
X114549168Y-113097278D01*
X114377454Y-112980206D01*
X114377445Y-112980201D01*
X114141142Y-112866404D01*
X114141144Y-112866404D01*
X113890505Y-112789092D01*
X113890499Y-112789090D01*
X113631151Y-112750000D01*
X113368848Y-112750000D01*
X113109500Y-112789090D01*
X113109494Y-112789092D01*
X112858858Y-112866404D01*
X112858854Y-112866405D01*
X112622547Y-112980205D01*
X112622539Y-112980210D01*
X112450830Y-113097277D01*
X113101390Y-113747837D01*
X112982569Y-113819331D01*
X112848342Y-113946477D01*
X112745138Y-114098691D01*
X112097874Y-113451427D01*
X112050028Y-113511425D01*
X111918883Y-113738573D01*
X111823058Y-113982729D01*
X111764693Y-114238449D01*
X111764692Y-114238454D01*
X111745093Y-114499995D01*
X111745093Y-114500004D01*
X111764692Y-114761545D01*
X111764693Y-114761550D01*
X111823058Y-115017270D01*
X111918883Y-115261426D01*
X111918882Y-115261426D01*
X112050027Y-115488573D01*
X112097874Y-115548571D01*
X112748766Y-114897679D01*
X112792316Y-114979822D01*
X112912009Y-115120735D01*
X113059195Y-115232623D01*
X113101401Y-115252150D01*
X112450830Y-115902720D01*
X112622546Y-116019793D01*
X112622550Y-116019795D01*
X112858854Y-116133594D01*
X112858858Y-116133595D01*
X113109494Y-116210907D01*
X113109500Y-116210909D01*
X113368848Y-116249999D01*
X113368857Y-116250000D01*
X113631143Y-116250000D01*
X113631151Y-116249999D01*
X113890499Y-116210909D01*
X113890505Y-116210907D01*
X114141143Y-116133595D01*
X114377445Y-116019798D01*
X114377449Y-116019796D01*
X114405647Y-116000571D01*
X114472126Y-115979070D01*
X114539676Y-115996923D01*
X114586851Y-116048462D01*
X114599500Y-116103024D01*
X114599500Y-117996975D01*
X114579815Y-118064014D01*
X114527011Y-118109769D01*
X114457853Y-118119713D01*
X114405649Y-118099429D01*
X114377454Y-118080206D01*
X114377445Y-118080201D01*
X114141142Y-117966404D01*
X114141144Y-117966404D01*
X113890505Y-117889092D01*
X113890499Y-117889090D01*
X113631151Y-117850000D01*
X113368848Y-117850000D01*
X113109500Y-117889090D01*
X113109494Y-117889092D01*
X112858858Y-117966404D01*
X112858854Y-117966405D01*
X112622547Y-118080205D01*
X112622539Y-118080210D01*
X112450830Y-118197277D01*
X113101390Y-118847837D01*
X112982569Y-118919331D01*
X112848342Y-119046477D01*
X112745138Y-119198691D01*
X112097874Y-118551427D01*
X112050028Y-118611425D01*
X111918883Y-118838573D01*
X111823058Y-119082729D01*
X111764693Y-119338449D01*
X111764692Y-119338454D01*
X111745093Y-119599995D01*
X111745093Y-119600004D01*
X108694038Y-119600004D01*
X105347015Y-114380917D01*
X105346725Y-114380463D01*
X105322556Y-114342413D01*
X105308893Y-114320903D01*
X105287330Y-114302017D01*
X105275251Y-114289862D01*
X105256496Y-114268176D01*
X105234688Y-114254131D01*
X105220132Y-114243163D01*
X105200625Y-114226079D01*
X105200620Y-114226075D01*
X105174618Y-114214034D01*
X105159588Y-114205766D01*
X105141605Y-114194185D01*
X105135495Y-114190250D01*
X105110615Y-114182918D01*
X105093563Y-114176496D01*
X105070031Y-114165598D01*
X105070024Y-114165596D01*
X105041674Y-114161366D01*
X105024924Y-114157667D01*
X104997443Y-114149569D01*
X104926672Y-114149500D01*
X104926136Y-114149498D01*
X97062533Y-114107803D01*
X96995598Y-114087764D01*
X96950124Y-114034718D01*
X96939190Y-113983667D01*
X96939191Y-113982729D01*
X96940727Y-112600001D01*
X102294318Y-112600001D01*
X102314955Y-112756760D01*
X102314956Y-112756762D01*
X102375464Y-112902841D01*
X102471718Y-113028282D01*
X102597159Y-113124536D01*
X102743238Y-113185044D01*
X102816492Y-113194688D01*
X102899999Y-113205682D01*
X102900000Y-113205682D01*
X102900001Y-113205682D01*
X102983508Y-113194688D01*
X103056762Y-113185044D01*
X103202841Y-113124536D01*
X103328282Y-113028282D01*
X103424536Y-112902841D01*
X103485044Y-112756762D01*
X103505682Y-112600000D01*
X103485044Y-112443238D01*
X103424536Y-112297159D01*
X103328282Y-112171718D01*
X103202841Y-112075464D01*
X103056762Y-112014956D01*
X103056760Y-112014955D01*
X102900001Y-111994318D01*
X102899999Y-111994318D01*
X102743239Y-112014955D01*
X102743237Y-112014956D01*
X102597160Y-112075463D01*
X102471718Y-112171718D01*
X102375463Y-112297160D01*
X102314956Y-112443237D01*
X102314955Y-112443239D01*
X102294318Y-112599998D01*
X102294318Y-112600001D01*
X96940727Y-112600001D01*
X96943060Y-110499999D01*
X102299999Y-110499999D01*
X102337499Y-110549999D01*
X102450000Y-110700000D01*
X106650000Y-110750000D01*
X106647590Y-110650004D01*
X111795093Y-110650004D01*
X111814692Y-110911545D01*
X111814693Y-110911550D01*
X111873058Y-111167270D01*
X111968883Y-111411426D01*
X111968882Y-111411426D01*
X112100027Y-111638573D01*
X112147874Y-111698571D01*
X112798766Y-111047679D01*
X112842316Y-111129822D01*
X112962009Y-111270735D01*
X113109195Y-111382623D01*
X113151401Y-111402150D01*
X112500830Y-112052720D01*
X112672546Y-112169793D01*
X112672550Y-112169795D01*
X112908854Y-112283594D01*
X112908858Y-112283595D01*
X113159494Y-112360907D01*
X113159500Y-112360909D01*
X113418848Y-112399999D01*
X113418857Y-112400000D01*
X113681143Y-112400000D01*
X113681151Y-112399999D01*
X113940499Y-112360909D01*
X113940505Y-112360907D01*
X114191143Y-112283595D01*
X114427445Y-112169798D01*
X114427447Y-112169797D01*
X114599168Y-112052720D01*
X113948609Y-111402161D01*
X114067431Y-111330669D01*
X114201658Y-111203523D01*
X114304861Y-111051308D01*
X114952125Y-111698572D01*
X114999971Y-111638573D01*
X115131116Y-111411426D01*
X115226941Y-111167270D01*
X115285306Y-110911550D01*
X115285307Y-110911545D01*
X115304907Y-110650004D01*
X115304907Y-110649995D01*
X115285307Y-110388454D01*
X115285306Y-110388449D01*
X115226941Y-110132729D01*
X115131116Y-109888573D01*
X115131117Y-109888573D01*
X115043316Y-109736499D01*
X115026843Y-109668599D01*
X115049695Y-109602572D01*
X115104616Y-109559382D01*
X115150698Y-109550499D01*
X117049297Y-109550499D01*
X117116336Y-109570184D01*
X117162091Y-109622988D01*
X117172035Y-109692146D01*
X117156684Y-109736499D01*
X117068883Y-109888573D01*
X116973058Y-110132729D01*
X116914693Y-110388449D01*
X116914692Y-110388454D01*
X116895093Y-110649995D01*
X116895093Y-110650004D01*
X116914692Y-110911545D01*
X116914693Y-110911550D01*
X116973058Y-111167270D01*
X117068883Y-111411426D01*
X117068882Y-111411426D01*
X117200027Y-111638573D01*
X117247874Y-111698571D01*
X117898766Y-111047679D01*
X117942316Y-111129822D01*
X118062009Y-111270735D01*
X118209195Y-111382623D01*
X118251401Y-111402150D01*
X117600830Y-112052720D01*
X117772546Y-112169793D01*
X117772550Y-112169795D01*
X118008854Y-112283594D01*
X118008858Y-112283595D01*
X118259494Y-112360907D01*
X118259500Y-112360909D01*
X118518848Y-112399999D01*
X118518857Y-112400000D01*
X118781143Y-112400000D01*
X118781151Y-112399999D01*
X119040499Y-112360909D01*
X119040505Y-112360907D01*
X119291143Y-112283595D01*
X119527445Y-112169798D01*
X119527447Y-112169797D01*
X119699168Y-112052720D01*
X119048609Y-111402161D01*
X119167431Y-111330669D01*
X119301658Y-111203523D01*
X119404861Y-111051308D01*
X120052125Y-111698572D01*
X120055088Y-111694856D01*
X131429500Y-111694856D01*
X131429502Y-111694882D01*
X131432413Y-111719987D01*
X131432415Y-111719991D01*
X131477793Y-111822764D01*
X131477794Y-111822765D01*
X131557235Y-111902206D01*
X131660009Y-111947585D01*
X131685135Y-111950500D01*
X133474864Y-111950499D01*
X133474879Y-111950497D01*
X133474882Y-111950497D01*
X133499987Y-111947586D01*
X133499988Y-111947585D01*
X133499991Y-111947585D01*
X133602765Y-111902206D01*
X133682206Y-111822765D01*
X133727585Y-111719991D01*
X133730500Y-111694865D01*
X133730499Y-110956046D01*
X133750183Y-110889009D01*
X133802987Y-110843254D01*
X133872146Y-110833310D01*
X133935702Y-110862335D01*
X133973476Y-110921113D01*
X133977970Y-110944606D01*
X133984244Y-111012310D01*
X134042596Y-111217392D01*
X134042596Y-111217394D01*
X134137632Y-111408253D01*
X134195606Y-111485022D01*
X134266128Y-111578407D01*
X134423698Y-111722052D01*
X134604981Y-111834298D01*
X134803802Y-111911321D01*
X135013390Y-111950500D01*
X135013392Y-111950500D01*
X135226608Y-111950500D01*
X135226610Y-111950500D01*
X135436198Y-111911321D01*
X135635019Y-111834298D01*
X135816302Y-111722052D01*
X135973872Y-111578407D01*
X136102366Y-111408255D01*
X136169325Y-111273781D01*
X136216825Y-111222548D01*
X136284488Y-111205126D01*
X136350828Y-111227051D01*
X136392705Y-111276651D01*
X136486399Y-111477578D01*
X136621894Y-111671082D01*
X136788917Y-111838105D01*
X136982421Y-111973600D01*
X137196507Y-112073429D01*
X137196516Y-112073433D01*
X137410000Y-112130634D01*
X137410000Y-111235501D01*
X137517685Y-111284680D01*
X137624237Y-111300000D01*
X137695763Y-111300000D01*
X137802315Y-111284680D01*
X137910000Y-111235501D01*
X137910000Y-112130634D01*
X138123483Y-112073433D01*
X138123492Y-112073429D01*
X138337578Y-111973600D01*
X138531082Y-111838105D01*
X138698105Y-111671082D01*
X138833600Y-111477578D01*
X138927294Y-111276651D01*
X138973466Y-111224212D01*
X139040660Y-111205060D01*
X139107541Y-111225276D01*
X139150676Y-111273785D01*
X139217632Y-111408253D01*
X139275606Y-111485022D01*
X139346128Y-111578407D01*
X139503698Y-111722052D01*
X139684981Y-111834298D01*
X139883802Y-111911321D01*
X140093390Y-111950500D01*
X140093392Y-111950500D01*
X140306608Y-111950500D01*
X140306610Y-111950500D01*
X140516198Y-111911321D01*
X140715019Y-111834298D01*
X140896302Y-111722052D01*
X141053872Y-111578407D01*
X141182366Y-111408255D01*
X141249325Y-111273781D01*
X141296825Y-111222548D01*
X141364488Y-111205126D01*
X141430828Y-111227051D01*
X141472705Y-111276651D01*
X141566399Y-111477578D01*
X141701894Y-111671082D01*
X141868917Y-111838105D01*
X142062421Y-111973600D01*
X142276507Y-112073429D01*
X142276516Y-112073433D01*
X142490000Y-112130634D01*
X142490000Y-111235501D01*
X142597685Y-111284680D01*
X142704237Y-111300000D01*
X142775763Y-111300000D01*
X142882315Y-111284680D01*
X142990000Y-111235501D01*
X142990000Y-112130633D01*
X143203483Y-112073433D01*
X143203492Y-112073429D01*
X143417578Y-111973600D01*
X143611082Y-111838105D01*
X143778105Y-111671082D01*
X143913600Y-111477578D01*
X144007294Y-111276651D01*
X144053466Y-111224212D01*
X144120660Y-111205060D01*
X144187541Y-111225276D01*
X144230676Y-111273785D01*
X144297632Y-111408253D01*
X144355606Y-111485022D01*
X144426128Y-111578407D01*
X144583698Y-111722052D01*
X144764981Y-111834298D01*
X144963802Y-111911321D01*
X145173390Y-111950500D01*
X145173392Y-111950500D01*
X145386608Y-111950500D01*
X145386610Y-111950500D01*
X145596198Y-111911321D01*
X145795019Y-111834298D01*
X145976302Y-111722052D01*
X146133872Y-111578407D01*
X146262366Y-111408255D01*
X146316270Y-111300000D01*
X146357403Y-111217394D01*
X146357403Y-111217393D01*
X146357405Y-111217389D01*
X146415756Y-111012310D01*
X146435429Y-110800000D01*
X146435343Y-110799077D01*
X146430796Y-110749999D01*
X146415756Y-110587690D01*
X146357405Y-110382611D01*
X146357403Y-110382606D01*
X146357403Y-110382605D01*
X146262367Y-110191746D01*
X146133872Y-110021593D01*
X145976302Y-109877948D01*
X145795019Y-109765702D01*
X145795017Y-109765701D01*
X145679453Y-109720932D01*
X145596198Y-109688679D01*
X145386610Y-109649500D01*
X145173390Y-109649500D01*
X144963802Y-109688679D01*
X144963799Y-109688679D01*
X144963799Y-109688680D01*
X144764982Y-109765701D01*
X144764980Y-109765702D01*
X144583699Y-109877947D01*
X144426127Y-110021593D01*
X144297634Y-110191744D01*
X144230676Y-110326215D01*
X144183173Y-110377452D01*
X144115510Y-110394873D01*
X144049170Y-110372947D01*
X144007294Y-110323348D01*
X143913600Y-110122422D01*
X143913599Y-110122420D01*
X143778113Y-109928926D01*
X143778108Y-109928920D01*
X143611082Y-109761894D01*
X143417578Y-109626399D01*
X143203492Y-109526570D01*
X143203486Y-109526567D01*
X142990000Y-109469364D01*
X142990000Y-110364498D01*
X142882315Y-110315320D01*
X142775763Y-110300000D01*
X142704237Y-110300000D01*
X142597685Y-110315320D01*
X142490000Y-110364498D01*
X142490000Y-109469364D01*
X142489999Y-109469364D01*
X142276513Y-109526567D01*
X142276507Y-109526570D01*
X142062422Y-109626399D01*
X142062420Y-109626400D01*
X141868926Y-109761886D01*
X141868920Y-109761891D01*
X141701891Y-109928920D01*
X141701886Y-109928926D01*
X141566400Y-110122420D01*
X141566399Y-110122422D01*
X141472705Y-110323348D01*
X141426532Y-110375787D01*
X141359339Y-110394939D01*
X141292457Y-110374723D01*
X141249323Y-110326215D01*
X141182366Y-110191745D01*
X141053872Y-110021593D01*
X140896302Y-109877948D01*
X140715019Y-109765702D01*
X140715017Y-109765701D01*
X140599453Y-109720932D01*
X140516198Y-109688679D01*
X140306610Y-109649500D01*
X140093390Y-109649500D01*
X139883802Y-109688679D01*
X139883799Y-109688679D01*
X139883799Y-109688680D01*
X139684982Y-109765701D01*
X139684980Y-109765702D01*
X139503699Y-109877947D01*
X139346127Y-110021593D01*
X139217634Y-110191744D01*
X139150676Y-110326215D01*
X139103173Y-110377452D01*
X139035510Y-110394873D01*
X138969170Y-110372947D01*
X138927294Y-110323348D01*
X138833600Y-110122422D01*
X138833599Y-110122420D01*
X138698113Y-109928926D01*
X138698108Y-109928920D01*
X138531082Y-109761894D01*
X138337578Y-109626399D01*
X138123492Y-109526570D01*
X138123486Y-109526567D01*
X137910000Y-109469364D01*
X137910000Y-110364498D01*
X137802315Y-110315320D01*
X137695763Y-110300000D01*
X137624237Y-110300000D01*
X137517685Y-110315320D01*
X137410000Y-110364498D01*
X137410000Y-109469364D01*
X137409999Y-109469364D01*
X137196513Y-109526567D01*
X137196507Y-109526570D01*
X136982422Y-109626399D01*
X136982420Y-109626400D01*
X136788926Y-109761886D01*
X136788920Y-109761891D01*
X136621891Y-109928920D01*
X136621886Y-109928926D01*
X136486400Y-110122420D01*
X136486399Y-110122422D01*
X136392705Y-110323348D01*
X136346532Y-110375787D01*
X136279339Y-110394939D01*
X136212457Y-110374723D01*
X136169323Y-110326215D01*
X136102366Y-110191745D01*
X135973872Y-110021593D01*
X135816302Y-109877948D01*
X135635019Y-109765702D01*
X135635017Y-109765701D01*
X135519453Y-109720932D01*
X135436198Y-109688679D01*
X135226610Y-109649500D01*
X135013390Y-109649500D01*
X134803802Y-109688679D01*
X134803799Y-109688679D01*
X134803799Y-109688680D01*
X134604982Y-109765701D01*
X134604980Y-109765702D01*
X134423699Y-109877947D01*
X134266127Y-110021593D01*
X134137632Y-110191746D01*
X134042596Y-110382605D01*
X134042596Y-110382607D01*
X133984244Y-110587689D01*
X133977970Y-110655394D01*
X133952183Y-110720331D01*
X133895383Y-110761018D01*
X133825602Y-110764538D01*
X133764995Y-110729772D01*
X133732806Y-110667759D01*
X133730499Y-110643952D01*
X133730499Y-109905143D01*
X133730499Y-109905136D01*
X133730497Y-109905117D01*
X133727586Y-109880012D01*
X133727585Y-109880010D01*
X133727585Y-109880009D01*
X133682206Y-109777235D01*
X133602765Y-109697794D01*
X133602763Y-109697793D01*
X133499992Y-109652415D01*
X133474865Y-109649500D01*
X131685143Y-109649500D01*
X131685117Y-109649502D01*
X131660012Y-109652413D01*
X131660008Y-109652415D01*
X131557235Y-109697793D01*
X131477794Y-109777234D01*
X131432415Y-109880006D01*
X131432415Y-109880008D01*
X131429500Y-109905131D01*
X131429500Y-111694856D01*
X120055088Y-111694856D01*
X120099971Y-111638573D01*
X120231116Y-111411426D01*
X120326941Y-111167270D01*
X120385306Y-110911550D01*
X120385307Y-110911545D01*
X120404907Y-110650004D01*
X120404907Y-110649995D01*
X120385307Y-110388454D01*
X120385306Y-110388449D01*
X120326941Y-110132729D01*
X120231116Y-109888573D01*
X120231117Y-109888573D01*
X120099972Y-109661426D01*
X120052124Y-109601427D01*
X119401232Y-110252319D01*
X119357684Y-110170178D01*
X119237991Y-110029265D01*
X119090805Y-109917377D01*
X119048597Y-109897849D01*
X119699168Y-109247278D01*
X119527454Y-109130206D01*
X119527445Y-109130201D01*
X119291142Y-109016404D01*
X119291144Y-109016404D01*
X119040505Y-108939092D01*
X119040499Y-108939090D01*
X118781151Y-108900000D01*
X118518848Y-108900000D01*
X118259500Y-108939090D01*
X118259494Y-108939092D01*
X118008858Y-109016404D01*
X118008854Y-109016405D01*
X117772550Y-109130204D01*
X117772549Y-109130205D01*
X117744349Y-109149431D01*
X117677870Y-109170930D01*
X117610320Y-109153075D01*
X117563146Y-109101534D01*
X117550499Y-109046979D01*
X117550499Y-108400005D01*
X160462573Y-108400005D01*
X160482244Y-108637407D01*
X160482246Y-108637419D01*
X160540727Y-108868353D01*
X160636421Y-109086515D01*
X160726719Y-109224727D01*
X161322293Y-108629153D01*
X161334989Y-108668227D01*
X161419602Y-108801556D01*
X161534715Y-108909654D01*
X161672919Y-108985633D01*
X161079478Y-109579073D01*
X161079478Y-109579074D01*
X161116066Y-109607551D01*
X161116069Y-109607553D01*
X161325577Y-109720932D01*
X161325588Y-109720937D01*
X161550901Y-109798288D01*
X161785886Y-109837500D01*
X162024114Y-109837500D01*
X162259098Y-109798288D01*
X162484411Y-109720937D01*
X162484422Y-109720932D01*
X162693929Y-109607553D01*
X162693934Y-109607550D01*
X162730520Y-109579074D01*
X162730520Y-109579073D01*
X162133271Y-108981824D01*
X162208489Y-108952044D01*
X162336242Y-108859226D01*
X162436899Y-108737553D01*
X162487843Y-108629291D01*
X163083279Y-109224727D01*
X163173576Y-109086520D01*
X163269272Y-108868353D01*
X163327753Y-108637419D01*
X163327755Y-108637407D01*
X163347427Y-108400005D01*
X171702573Y-108400005D01*
X171722244Y-108637407D01*
X171722246Y-108637419D01*
X171780727Y-108868353D01*
X171876421Y-109086515D01*
X171966719Y-109224727D01*
X172562293Y-108629153D01*
X172574989Y-108668227D01*
X172659602Y-108801556D01*
X172774715Y-108909654D01*
X172912919Y-108985633D01*
X172319478Y-109579073D01*
X172319478Y-109579074D01*
X172356066Y-109607551D01*
X172356069Y-109607553D01*
X172565577Y-109720932D01*
X172565588Y-109720937D01*
X172790901Y-109798288D01*
X173025886Y-109837500D01*
X173264114Y-109837500D01*
X173499098Y-109798288D01*
X173724411Y-109720937D01*
X173724422Y-109720932D01*
X173933929Y-109607553D01*
X173933934Y-109607550D01*
X173970520Y-109579074D01*
X173970520Y-109579073D01*
X173373271Y-108981824D01*
X173448489Y-108952044D01*
X173576242Y-108859226D01*
X173676899Y-108737553D01*
X173727843Y-108629291D01*
X174323279Y-109224727D01*
X174413576Y-109086520D01*
X174509272Y-108868353D01*
X174567753Y-108637419D01*
X174567755Y-108637407D01*
X174587427Y-108400005D01*
X174587427Y-108399994D01*
X174567755Y-108162592D01*
X174567753Y-108162580D01*
X174509272Y-107931646D01*
X174413576Y-107713479D01*
X174323279Y-107575271D01*
X173727706Y-108170845D01*
X173715011Y-108131773D01*
X173630398Y-107998444D01*
X173515285Y-107890346D01*
X173377080Y-107814366D01*
X173970520Y-107220925D01*
X173933931Y-107192447D01*
X173933929Y-107192446D01*
X173724422Y-107079067D01*
X173724411Y-107079062D01*
X173499098Y-107001711D01*
X173264114Y-106962500D01*
X173025886Y-106962500D01*
X172790901Y-107001711D01*
X172565588Y-107079062D01*
X172565577Y-107079067D01*
X172356064Y-107192449D01*
X172319478Y-107220924D01*
X172319478Y-107220926D01*
X172916728Y-107818175D01*
X172841511Y-107847956D01*
X172713758Y-107940774D01*
X172613101Y-108062447D01*
X172562156Y-108170709D01*
X171966718Y-107575271D01*
X171876422Y-107713481D01*
X171780727Y-107931646D01*
X171722246Y-108162580D01*
X171722244Y-108162592D01*
X171702573Y-108399994D01*
X171702573Y-108400005D01*
X163347427Y-108400005D01*
X163347427Y-108399994D01*
X163327755Y-108162592D01*
X163327753Y-108162580D01*
X163269272Y-107931646D01*
X163173576Y-107713479D01*
X163083279Y-107575271D01*
X162487706Y-108170845D01*
X162475011Y-108131773D01*
X162390398Y-107998444D01*
X162275285Y-107890346D01*
X162137080Y-107814366D01*
X162730520Y-107220925D01*
X162693931Y-107192447D01*
X162693929Y-107192446D01*
X162484422Y-107079067D01*
X162484411Y-107079062D01*
X162259098Y-107001711D01*
X162024114Y-106962500D01*
X161785886Y-106962500D01*
X161550901Y-107001711D01*
X161325588Y-107079062D01*
X161325577Y-107079067D01*
X161116064Y-107192449D01*
X161079478Y-107220924D01*
X161079478Y-107220926D01*
X161676728Y-107818175D01*
X161601511Y-107847956D01*
X161473758Y-107940774D01*
X161373101Y-108062447D01*
X161322156Y-108170709D01*
X160726718Y-107575271D01*
X160636422Y-107713481D01*
X160540727Y-107931646D01*
X160482246Y-108162580D01*
X160482244Y-108162592D01*
X160462573Y-108399994D01*
X160462573Y-108400005D01*
X117550499Y-108400005D01*
X117550499Y-107153022D01*
X117570184Y-107085984D01*
X117622988Y-107040229D01*
X117692146Y-107030285D01*
X117744351Y-107050570D01*
X117772544Y-107069792D01*
X117772550Y-107069795D01*
X118008854Y-107183594D01*
X118008858Y-107183595D01*
X118259494Y-107260907D01*
X118259500Y-107260909D01*
X118518848Y-107299999D01*
X118518857Y-107300000D01*
X118781143Y-107300000D01*
X118781151Y-107299999D01*
X119040499Y-107260909D01*
X119040505Y-107260907D01*
X119291143Y-107183595D01*
X119527445Y-107069798D01*
X119527447Y-107069797D01*
X119699168Y-106952720D01*
X119048609Y-106302161D01*
X119167431Y-106230669D01*
X119301658Y-106103523D01*
X119404861Y-105951308D01*
X120052125Y-106598572D01*
X120099971Y-106538573D01*
X120231116Y-106311426D01*
X120326941Y-106067270D01*
X120385306Y-105811550D01*
X120385307Y-105811545D01*
X120404907Y-105550004D01*
X120404907Y-105549995D01*
X120385307Y-105288454D01*
X120385306Y-105288449D01*
X120326941Y-105032729D01*
X120231116Y-104788573D01*
X120231117Y-104788573D01*
X120136677Y-104625001D01*
X126419318Y-104625001D01*
X126439955Y-104781760D01*
X126439956Y-104781762D01*
X126499287Y-104925001D01*
X126500464Y-104927841D01*
X126596718Y-105053282D01*
X126722159Y-105149536D01*
X126868238Y-105210044D01*
X126946619Y-105220363D01*
X127024999Y-105230682D01*
X127025000Y-105230682D01*
X127025001Y-105230682D01*
X127077254Y-105223802D01*
X127181762Y-105210044D01*
X127327841Y-105149536D01*
X127453282Y-105053282D01*
X127549536Y-104927841D01*
X127550712Y-104925001D01*
X129019318Y-104925001D01*
X129039955Y-105081760D01*
X129039956Y-105081762D01*
X129100464Y-105227841D01*
X129196718Y-105353282D01*
X129322159Y-105449536D01*
X129468238Y-105510044D01*
X129546619Y-105520363D01*
X129624999Y-105530682D01*
X129625000Y-105530682D01*
X129625001Y-105530682D01*
X129677254Y-105523802D01*
X129781762Y-105510044D01*
X129927841Y-105449536D01*
X130053282Y-105353282D01*
X130149536Y-105227841D01*
X130210044Y-105081762D01*
X130230682Y-104925000D01*
X130210044Y-104768238D01*
X130149536Y-104622159D01*
X130053282Y-104496718D01*
X129927841Y-104400464D01*
X129919864Y-104397160D01*
X129781762Y-104339956D01*
X129781760Y-104339955D01*
X129625001Y-104319318D01*
X129624999Y-104319318D01*
X129468239Y-104339955D01*
X129468237Y-104339956D01*
X129322160Y-104400463D01*
X129196718Y-104496718D01*
X129100463Y-104622160D01*
X129039956Y-104768237D01*
X129039955Y-104768239D01*
X129019318Y-104924998D01*
X129019318Y-104925001D01*
X127550712Y-104925001D01*
X127610044Y-104781762D01*
X127630682Y-104625000D01*
X127610044Y-104468238D01*
X127549536Y-104322159D01*
X127453282Y-104196718D01*
X127327841Y-104100464D01*
X127326723Y-104100001D01*
X127181762Y-104039956D01*
X127181760Y-104039955D01*
X127025001Y-104019318D01*
X127024999Y-104019318D01*
X126868239Y-104039955D01*
X126868237Y-104039956D01*
X126722160Y-104100463D01*
X126596718Y-104196718D01*
X126500463Y-104322160D01*
X126439956Y-104468237D01*
X126439955Y-104468239D01*
X126419318Y-104624998D01*
X126419318Y-104625001D01*
X120136677Y-104625001D01*
X120099972Y-104561426D01*
X120052124Y-104501427D01*
X119401232Y-105152319D01*
X119357684Y-105070178D01*
X119237991Y-104929265D01*
X119090805Y-104817377D01*
X119048597Y-104797849D01*
X119699168Y-104147278D01*
X119527454Y-104030206D01*
X119527445Y-104030201D01*
X119291142Y-103916404D01*
X119291144Y-103916404D01*
X119040505Y-103839092D01*
X119040499Y-103839090D01*
X118781151Y-103800000D01*
X118518848Y-103800000D01*
X118259500Y-103839090D01*
X118259494Y-103839092D01*
X118008858Y-103916404D01*
X118008854Y-103916405D01*
X117772547Y-104030205D01*
X117772539Y-104030210D01*
X117600830Y-104147277D01*
X118251390Y-104797837D01*
X118132569Y-104869331D01*
X117998342Y-104996477D01*
X117895138Y-105148691D01*
X117247875Y-104501427D01*
X117247874Y-104501427D01*
X117200028Y-104561425D01*
X117068883Y-104788573D01*
X116973058Y-105032729D01*
X116914693Y-105288449D01*
X116914692Y-105288454D01*
X116895093Y-105549995D01*
X116895093Y-105550004D01*
X116914692Y-105811545D01*
X116914693Y-105811550D01*
X116973058Y-106067270D01*
X117068881Y-106311423D01*
X117156684Y-106463499D01*
X117173157Y-106531399D01*
X117150305Y-106597426D01*
X117095384Y-106640617D01*
X117049297Y-106649500D01*
X115150703Y-106649500D01*
X115083664Y-106629815D01*
X115037909Y-106577011D01*
X115027965Y-106507853D01*
X115043316Y-106463499D01*
X115131118Y-106311423D01*
X115226941Y-106067270D01*
X115285306Y-105811550D01*
X115285307Y-105811545D01*
X115304907Y-105550004D01*
X115304907Y-105549995D01*
X115285307Y-105288454D01*
X115285306Y-105288449D01*
X115226941Y-105032729D01*
X115131116Y-104788573D01*
X115131117Y-104788573D01*
X114999972Y-104561426D01*
X114952124Y-104501427D01*
X114301232Y-105152319D01*
X114257684Y-105070178D01*
X114137991Y-104929265D01*
X113990805Y-104817377D01*
X113948597Y-104797849D01*
X114599168Y-104147278D01*
X114427454Y-104030206D01*
X114427445Y-104030201D01*
X114191142Y-103916404D01*
X114191144Y-103916404D01*
X113940505Y-103839092D01*
X113940499Y-103839090D01*
X113681151Y-103800000D01*
X113418848Y-103800000D01*
X113159500Y-103839090D01*
X113159494Y-103839092D01*
X112908858Y-103916404D01*
X112908854Y-103916405D01*
X112672547Y-104030205D01*
X112672539Y-104030210D01*
X112500830Y-104147277D01*
X113151390Y-104797837D01*
X113032569Y-104869331D01*
X112898342Y-104996477D01*
X112795138Y-105148691D01*
X112147874Y-104501427D01*
X112100028Y-104561425D01*
X111968883Y-104788573D01*
X111873058Y-105032729D01*
X111814693Y-105288449D01*
X111814692Y-105288454D01*
X111795093Y-105549995D01*
X111795093Y-105550004D01*
X111814692Y-105811545D01*
X111814693Y-105811550D01*
X111873058Y-106067270D01*
X111968883Y-106311426D01*
X111968882Y-106311426D01*
X112100027Y-106538573D01*
X112147874Y-106598571D01*
X112798766Y-105947679D01*
X112842316Y-106029822D01*
X112962009Y-106170735D01*
X113109195Y-106282623D01*
X113151401Y-106302150D01*
X112500830Y-106952720D01*
X112672546Y-107069793D01*
X112672550Y-107069795D01*
X112908854Y-107183594D01*
X112908858Y-107183595D01*
X113159494Y-107260907D01*
X113159500Y-107260909D01*
X113418848Y-107299999D01*
X113418857Y-107300000D01*
X113681143Y-107300000D01*
X113681151Y-107299999D01*
X113940499Y-107260909D01*
X113940505Y-107260907D01*
X114191143Y-107183595D01*
X114427445Y-107069798D01*
X114427449Y-107069796D01*
X114455647Y-107050571D01*
X114522126Y-107029070D01*
X114589676Y-107046923D01*
X114636851Y-107098462D01*
X114649500Y-107153024D01*
X114649500Y-109046975D01*
X114629815Y-109114014D01*
X114577011Y-109159769D01*
X114507853Y-109169713D01*
X114455649Y-109149429D01*
X114427454Y-109130206D01*
X114427445Y-109130201D01*
X114191142Y-109016404D01*
X114191144Y-109016404D01*
X113940505Y-108939092D01*
X113940499Y-108939090D01*
X113681151Y-108900000D01*
X113418848Y-108900000D01*
X113159500Y-108939090D01*
X113159494Y-108939092D01*
X112908858Y-109016404D01*
X112908854Y-109016405D01*
X112672547Y-109130205D01*
X112672539Y-109130210D01*
X112500830Y-109247277D01*
X113151390Y-109897837D01*
X113032569Y-109969331D01*
X112898342Y-110096477D01*
X112795138Y-110248691D01*
X112147874Y-109601427D01*
X112100028Y-109661425D01*
X111968883Y-109888573D01*
X111873058Y-110132729D01*
X111814693Y-110388449D01*
X111814692Y-110388454D01*
X111795093Y-110649995D01*
X111795093Y-110650004D01*
X106647590Y-110650004D01*
X106550000Y-106600000D01*
X102850000Y-106550000D01*
X102350000Y-106550000D01*
X102299999Y-110499999D01*
X96943060Y-110499999D01*
X96944838Y-108900000D01*
X97194318Y-108900000D01*
X97214955Y-109056760D01*
X97214956Y-109056762D01*
X97245377Y-109130206D01*
X97275464Y-109202841D01*
X97371718Y-109328282D01*
X97497159Y-109424536D01*
X97643238Y-109485044D01*
X97721619Y-109495363D01*
X97799999Y-109505682D01*
X97800000Y-109505682D01*
X97800001Y-109505682D01*
X97852254Y-109498802D01*
X97956762Y-109485044D01*
X98102841Y-109424536D01*
X98228282Y-109328282D01*
X98324536Y-109202841D01*
X98385044Y-109056762D01*
X98405682Y-108900000D01*
X98385044Y-108743238D01*
X98324536Y-108597159D01*
X98228282Y-108471718D01*
X98102841Y-108375464D01*
X97956762Y-108314956D01*
X97956760Y-108314955D01*
X97800001Y-108294318D01*
X97799999Y-108294318D01*
X97643239Y-108314955D01*
X97643237Y-108314956D01*
X97497160Y-108375463D01*
X97371718Y-108471718D01*
X97275463Y-108597160D01*
X97214956Y-108743237D01*
X97214955Y-108743239D01*
X97194318Y-108899998D01*
X97194318Y-108900000D01*
X96944838Y-108900000D01*
X96946949Y-107000001D01*
X97494318Y-107000001D01*
X97514955Y-107156760D01*
X97514956Y-107156762D01*
X97550775Y-107243238D01*
X97575464Y-107302841D01*
X97671718Y-107428282D01*
X97797159Y-107524536D01*
X97943238Y-107585044D01*
X98021619Y-107595363D01*
X98099999Y-107605682D01*
X98100000Y-107605682D01*
X98228722Y-107588735D01*
X98297754Y-107599500D01*
X98350010Y-107645880D01*
X98359465Y-107664220D01*
X98375460Y-107702834D01*
X98375463Y-107702839D01*
X98375464Y-107702841D01*
X98471718Y-107828282D01*
X98597159Y-107924536D01*
X98743238Y-107985044D01*
X98821619Y-107995363D01*
X98899999Y-108005682D01*
X98900000Y-108005682D01*
X98900001Y-108005682D01*
X98954978Y-107998444D01*
X99056762Y-107985044D01*
X99202841Y-107924536D01*
X99328282Y-107828282D01*
X99424536Y-107702841D01*
X99485044Y-107556762D01*
X99505682Y-107400000D01*
X99485044Y-107243238D01*
X99424536Y-107097159D01*
X99328282Y-106971718D01*
X99202841Y-106875464D01*
X99056762Y-106814956D01*
X99056760Y-106814955D01*
X98900001Y-106794318D01*
X98899999Y-106794318D01*
X98771278Y-106811264D01*
X98702243Y-106800498D01*
X98649987Y-106754118D01*
X98640534Y-106735783D01*
X98624536Y-106697159D01*
X98528282Y-106571718D01*
X98402841Y-106475464D01*
X98256762Y-106414956D01*
X98256760Y-106414955D01*
X98100001Y-106394318D01*
X98099999Y-106394318D01*
X97943239Y-106414955D01*
X97943237Y-106414956D01*
X97797160Y-106475463D01*
X97671718Y-106571718D01*
X97575463Y-106697160D01*
X97514956Y-106843237D01*
X97514955Y-106843239D01*
X97494318Y-106999998D01*
X97494318Y-107000001D01*
X96946949Y-107000001D01*
X96949504Y-104700001D01*
X98694318Y-104700001D01*
X98714955Y-104856760D01*
X98714956Y-104856762D01*
X98743221Y-104925001D01*
X98775464Y-105002841D01*
X98871718Y-105128282D01*
X98880120Y-105134729D01*
X98953867Y-105191318D01*
X98995069Y-105247746D01*
X98999224Y-105317492D01*
X98974043Y-105363258D01*
X98976666Y-105365271D01*
X98971720Y-105371716D01*
X98971718Y-105371718D01*
X98893728Y-105473356D01*
X98875463Y-105497160D01*
X98814956Y-105643237D01*
X98814955Y-105643239D01*
X98794318Y-105799998D01*
X98794318Y-105800001D01*
X98814955Y-105956760D01*
X98814956Y-105956762D01*
X98875464Y-106102841D01*
X98971718Y-106228282D01*
X99097159Y-106324536D01*
X99243238Y-106385044D01*
X99313681Y-106394318D01*
X99399999Y-106405682D01*
X99400000Y-106405682D01*
X99400001Y-106405682D01*
X99452254Y-106398802D01*
X99556762Y-106385044D01*
X99702841Y-106324536D01*
X99828282Y-106228282D01*
X99924536Y-106102841D01*
X99985044Y-105956762D01*
X99998802Y-105852254D01*
X100005682Y-105800001D01*
X100005682Y-105799998D01*
X99985044Y-105643239D01*
X99985044Y-105643238D01*
X99924536Y-105497159D01*
X99828282Y-105371718D01*
X99828280Y-105371716D01*
X99828279Y-105371715D01*
X99746132Y-105308681D01*
X99704929Y-105252253D01*
X99700775Y-105182507D01*
X99726187Y-105136918D01*
X99723334Y-105134729D01*
X99728279Y-105128284D01*
X99728282Y-105128282D01*
X99824536Y-105002841D01*
X99885044Y-104856762D01*
X99898802Y-104752254D01*
X99905682Y-104700001D01*
X99905682Y-104699998D01*
X99885044Y-104543239D01*
X99885044Y-104543238D01*
X99824536Y-104397159D01*
X99728282Y-104271718D01*
X99602841Y-104175464D01*
X99456762Y-104114956D01*
X99456760Y-104114955D01*
X99300001Y-104094318D01*
X99299999Y-104094318D01*
X99143239Y-104114955D01*
X99143237Y-104114956D01*
X98997160Y-104175463D01*
X98871718Y-104271718D01*
X98775463Y-104397160D01*
X98714956Y-104543237D01*
X98714955Y-104543239D01*
X98694318Y-104699998D01*
X98694318Y-104700001D01*
X96949504Y-104700001D01*
X96951282Y-103100001D01*
X97394318Y-103100001D01*
X97414955Y-103256760D01*
X97414956Y-103256762D01*
X97475464Y-103402841D01*
X97571718Y-103528282D01*
X97697159Y-103624536D01*
X97843238Y-103685044D01*
X97921619Y-103695363D01*
X97999999Y-103705682D01*
X98000000Y-103705682D01*
X98000001Y-103705682D01*
X98052254Y-103698802D01*
X98156762Y-103685044D01*
X98302841Y-103624536D01*
X98334816Y-103600001D01*
X136794318Y-103600001D01*
X136814955Y-103756760D01*
X136814956Y-103756762D01*
X136841594Y-103821073D01*
X136875464Y-103902841D01*
X136971718Y-104028282D01*
X137097159Y-104124536D01*
X137243238Y-104185044D01*
X137321619Y-104195363D01*
X137399999Y-104205682D01*
X137400000Y-104205682D01*
X137400001Y-104205682D01*
X137452254Y-104198802D01*
X137556762Y-104185044D01*
X137702841Y-104124536D01*
X137734816Y-104100001D01*
X185869318Y-104100001D01*
X185889955Y-104256760D01*
X185889956Y-104256762D01*
X185906377Y-104296407D01*
X185950464Y-104402841D01*
X186046718Y-104528282D01*
X186172159Y-104624536D01*
X186318238Y-104685044D01*
X186396619Y-104695363D01*
X186474999Y-104705682D01*
X186475000Y-104705682D01*
X186475001Y-104705682D01*
X186527254Y-104698802D01*
X186631762Y-104685044D01*
X186777841Y-104624536D01*
X186903282Y-104528282D01*
X186999536Y-104402841D01*
X187060044Y-104256762D01*
X187080682Y-104100000D01*
X187071493Y-104030206D01*
X187060044Y-103943239D01*
X187060044Y-103943238D01*
X186999536Y-103797159D01*
X186903282Y-103671718D01*
X186777841Y-103575464D01*
X186631762Y-103514956D01*
X186631760Y-103514955D01*
X186475001Y-103494318D01*
X186474999Y-103494318D01*
X186318239Y-103514955D01*
X186318237Y-103514956D01*
X186172160Y-103575463D01*
X186046718Y-103671718D01*
X185950463Y-103797160D01*
X185889956Y-103943237D01*
X185889955Y-103943239D01*
X185869318Y-104099998D01*
X185869318Y-104100001D01*
X137734816Y-104100001D01*
X137828282Y-104028282D01*
X137924536Y-103902841D01*
X137985044Y-103756762D01*
X138002051Y-103627578D01*
X138005682Y-103600001D01*
X138005682Y-103599998D01*
X137985044Y-103443239D01*
X137985044Y-103443238D01*
X137924536Y-103297159D01*
X137828282Y-103171718D01*
X137702841Y-103075464D01*
X137556762Y-103014956D01*
X137556760Y-103014955D01*
X137400001Y-102994318D01*
X137399999Y-102994318D01*
X137243239Y-103014955D01*
X137243237Y-103014956D01*
X137097160Y-103075463D01*
X136971718Y-103171718D01*
X136875463Y-103297160D01*
X136814956Y-103443237D01*
X136814955Y-103443239D01*
X136794318Y-103599998D01*
X136794318Y-103600001D01*
X98334816Y-103600001D01*
X98428282Y-103528282D01*
X98524536Y-103402841D01*
X98585044Y-103256762D01*
X98605682Y-103100000D01*
X98585044Y-102943238D01*
X98524536Y-102797159D01*
X98428282Y-102671718D01*
X98302841Y-102575464D01*
X98156762Y-102514956D01*
X98156760Y-102514955D01*
X98000001Y-102494318D01*
X97999999Y-102494318D01*
X97843239Y-102514955D01*
X97843237Y-102514956D01*
X97697160Y-102575463D01*
X97571718Y-102671718D01*
X97475463Y-102797160D01*
X97414956Y-102943237D01*
X97414955Y-102943239D01*
X97394318Y-103099998D01*
X97394318Y-103100001D01*
X96951282Y-103100001D01*
X96953171Y-101400001D01*
X167794318Y-101400001D01*
X167814955Y-101556760D01*
X167814956Y-101556762D01*
X167875464Y-101702841D01*
X167971718Y-101828282D01*
X168097159Y-101924536D01*
X168243238Y-101985044D01*
X168321619Y-101995363D01*
X168399999Y-102005682D01*
X168400000Y-102005682D01*
X168400001Y-102005682D01*
X168452254Y-101998802D01*
X168556762Y-101985044D01*
X168702841Y-101924536D01*
X168828282Y-101828282D01*
X168869166Y-101775001D01*
X169444318Y-101775001D01*
X169464955Y-101931760D01*
X169464956Y-101931762D01*
X169525464Y-102077841D01*
X169621718Y-102203282D01*
X169747159Y-102299536D01*
X169893238Y-102360044D01*
X169971619Y-102370363D01*
X170049999Y-102380682D01*
X170050000Y-102380682D01*
X170050001Y-102380682D01*
X170102254Y-102373802D01*
X170206762Y-102360044D01*
X170352841Y-102299536D01*
X170478282Y-102203282D01*
X170574536Y-102077841D01*
X170635044Y-101931762D01*
X170655682Y-101775000D01*
X170654085Y-101762873D01*
X170635044Y-101618239D01*
X170635044Y-101618238D01*
X170574536Y-101472159D01*
X170478282Y-101346718D01*
X170352841Y-101250464D01*
X170335398Y-101243239D01*
X170206762Y-101189956D01*
X170206760Y-101189955D01*
X170050001Y-101169318D01*
X170049999Y-101169318D01*
X169893239Y-101189955D01*
X169893237Y-101189956D01*
X169747160Y-101250463D01*
X169621718Y-101346718D01*
X169525463Y-101472160D01*
X169464956Y-101618237D01*
X169464955Y-101618239D01*
X169444318Y-101774998D01*
X169444318Y-101775001D01*
X168869166Y-101775001D01*
X168924536Y-101702841D01*
X168985044Y-101556762D01*
X169005682Y-101400000D01*
X168985044Y-101243238D01*
X168924536Y-101097159D01*
X168828282Y-100971718D01*
X168702841Y-100875464D01*
X168648224Y-100852841D01*
X168556762Y-100814956D01*
X168556760Y-100814955D01*
X168400001Y-100794318D01*
X168399999Y-100794318D01*
X168243239Y-100814955D01*
X168243237Y-100814956D01*
X168097160Y-100875463D01*
X167971718Y-100971718D01*
X167875463Y-101097160D01*
X167814956Y-101243237D01*
X167814955Y-101243239D01*
X167794318Y-101399998D01*
X167794318Y-101400001D01*
X96953171Y-101400001D01*
X96954921Y-99825001D01*
X107294318Y-99825001D01*
X107314955Y-99981760D01*
X107314956Y-99981762D01*
X107375464Y-100127841D01*
X107471718Y-100253282D01*
X107516340Y-100287521D01*
X107557541Y-100343948D01*
X107563791Y-100402081D01*
X107544318Y-100549998D01*
X107544318Y-100550001D01*
X107564955Y-100706760D01*
X107564956Y-100706762D01*
X107625464Y-100852841D01*
X107721718Y-100978282D01*
X107847159Y-101074536D01*
X107993238Y-101135044D01*
X108071619Y-101145363D01*
X108149999Y-101155682D01*
X108150000Y-101155682D01*
X108150001Y-101155682D01*
X108202254Y-101148802D01*
X108306762Y-101135044D01*
X108452841Y-101074536D01*
X108578282Y-100978282D01*
X108674536Y-100852841D01*
X108735044Y-100706762D01*
X108755682Y-100550000D01*
X108749099Y-100500000D01*
X108741923Y-100445492D01*
X108735044Y-100393238D01*
X108674536Y-100247159D01*
X108578282Y-100121718D01*
X108533660Y-100087478D01*
X108492458Y-100031050D01*
X108489120Y-100000000D01*
X132464571Y-100000000D01*
X132484244Y-100212310D01*
X132538239Y-100402081D01*
X132542596Y-100417392D01*
X132542596Y-100417394D01*
X132637632Y-100608253D01*
X132746821Y-100752841D01*
X132766128Y-100778407D01*
X132923698Y-100922052D01*
X133104981Y-101034298D01*
X133303802Y-101111321D01*
X133513390Y-101150500D01*
X133513392Y-101150500D01*
X133726608Y-101150500D01*
X133726610Y-101150500D01*
X133936198Y-101111321D01*
X134135019Y-101034298D01*
X134316302Y-100922052D01*
X134473872Y-100778407D01*
X134602366Y-100608255D01*
X134656270Y-100500000D01*
X134697403Y-100417394D01*
X134697403Y-100417393D01*
X134697405Y-100417389D01*
X134755756Y-100212310D01*
X134766529Y-100096047D01*
X134792315Y-100031111D01*
X134834622Y-100000804D01*
X134943130Y-100000804D01*
X134979503Y-100021668D01*
X135011693Y-100083681D01*
X135013470Y-100096047D01*
X135024244Y-100212310D01*
X135078239Y-100402081D01*
X135082596Y-100417392D01*
X135082596Y-100417394D01*
X135177632Y-100608253D01*
X135286821Y-100752841D01*
X135306128Y-100778407D01*
X135463698Y-100922052D01*
X135644981Y-101034298D01*
X135843802Y-101111321D01*
X136053390Y-101150500D01*
X136053392Y-101150500D01*
X136266608Y-101150500D01*
X136266610Y-101150500D01*
X136476198Y-101111321D01*
X136675019Y-101034298D01*
X136856302Y-100922052D01*
X137013872Y-100778407D01*
X137142366Y-100608255D01*
X137209325Y-100473781D01*
X137256825Y-100422548D01*
X137324488Y-100405126D01*
X137390828Y-100427051D01*
X137432705Y-100476651D01*
X137526399Y-100677578D01*
X137661894Y-100871082D01*
X137828917Y-101038105D01*
X138022421Y-101173600D01*
X138236507Y-101273429D01*
X138236516Y-101273433D01*
X138450000Y-101330634D01*
X138450000Y-100435501D01*
X138557685Y-100484680D01*
X138664237Y-100500000D01*
X138735763Y-100500000D01*
X138842315Y-100484680D01*
X138950000Y-100435501D01*
X138950000Y-101330633D01*
X139163483Y-101273433D01*
X139163492Y-101273429D01*
X139377578Y-101173600D01*
X139571082Y-101038105D01*
X139738105Y-100871082D01*
X139873600Y-100677578D01*
X139967294Y-100476651D01*
X140013466Y-100424212D01*
X140080660Y-100405060D01*
X140147541Y-100425276D01*
X140190676Y-100473785D01*
X140257632Y-100608253D01*
X140366821Y-100752841D01*
X140386128Y-100778407D01*
X140543698Y-100922052D01*
X140724981Y-101034298D01*
X140923802Y-101111321D01*
X141133390Y-101150500D01*
X141133392Y-101150500D01*
X141346608Y-101150500D01*
X141346610Y-101150500D01*
X141556198Y-101111321D01*
X141755019Y-101034298D01*
X141936302Y-100922052D01*
X142093872Y-100778407D01*
X142222366Y-100608255D01*
X142276270Y-100500000D01*
X142317403Y-100417394D01*
X142317403Y-100417393D01*
X142317405Y-100417389D01*
X142375756Y-100212310D01*
X142382029Y-100144605D01*
X142407814Y-100079669D01*
X142464614Y-100038981D01*
X142534395Y-100035461D01*
X142595002Y-100070225D01*
X142627193Y-100132238D01*
X142629500Y-100156047D01*
X142629500Y-100894856D01*
X142629502Y-100894882D01*
X142632413Y-100919987D01*
X142632415Y-100919991D01*
X142677793Y-101022764D01*
X142677794Y-101022765D01*
X142757235Y-101102206D01*
X142860009Y-101147585D01*
X142885135Y-101150500D01*
X144674864Y-101150499D01*
X144674879Y-101150497D01*
X144674882Y-101150497D01*
X144699987Y-101147586D01*
X144699988Y-101147585D01*
X144699991Y-101147585D01*
X144802765Y-101102206D01*
X144882206Y-101022765D01*
X144927585Y-100919991D01*
X144930500Y-100894865D01*
X144930500Y-100450001D01*
X163744318Y-100450001D01*
X163764955Y-100606760D01*
X163764956Y-100606762D01*
X163806376Y-100706760D01*
X163825464Y-100752841D01*
X163921718Y-100878282D01*
X164047159Y-100974536D01*
X164193238Y-101035044D01*
X164216489Y-101038105D01*
X164349999Y-101055682D01*
X164350000Y-101055682D01*
X164350001Y-101055682D01*
X164402254Y-101048802D01*
X164506762Y-101035044D01*
X164652841Y-100974536D01*
X164778282Y-100878282D01*
X164874536Y-100752841D01*
X164935044Y-100606762D01*
X164955682Y-100450000D01*
X164952384Y-100424952D01*
X164935044Y-100293239D01*
X164935044Y-100293238D01*
X164874536Y-100147159D01*
X164778282Y-100021718D01*
X164652841Y-99925464D01*
X164506762Y-99864956D01*
X164506760Y-99864955D01*
X164350001Y-99844318D01*
X164349999Y-99844318D01*
X164193239Y-99864955D01*
X164193237Y-99864956D01*
X164047160Y-99925463D01*
X163921718Y-100021718D01*
X163825463Y-100147160D01*
X163764956Y-100293237D01*
X163764955Y-100293239D01*
X163744318Y-100449998D01*
X163744318Y-100450001D01*
X144930500Y-100450001D01*
X144930499Y-99105136D01*
X144928390Y-99086948D01*
X144927586Y-99080012D01*
X144927585Y-99080010D01*
X144927585Y-99080009D01*
X144882206Y-98977235D01*
X144802765Y-98897794D01*
X144782124Y-98888680D01*
X144699992Y-98852415D01*
X144674865Y-98849500D01*
X142885143Y-98849500D01*
X142885117Y-98849502D01*
X142860012Y-98852413D01*
X142860008Y-98852415D01*
X142757235Y-98897793D01*
X142677794Y-98977234D01*
X142632415Y-99080006D01*
X142632415Y-99080008D01*
X142629500Y-99105131D01*
X142629500Y-99843951D01*
X142609815Y-99910990D01*
X142557011Y-99956745D01*
X142487853Y-99966689D01*
X142424297Y-99937664D01*
X142386523Y-99878886D01*
X142382029Y-99855391D01*
X142375756Y-99787689D01*
X142347769Y-99689329D01*
X142317405Y-99582611D01*
X142317403Y-99582606D01*
X142317403Y-99582605D01*
X142222367Y-99391746D01*
X142093872Y-99221593D01*
X142007920Y-99143237D01*
X141936302Y-99077948D01*
X141755019Y-98965702D01*
X141755017Y-98965701D01*
X141580129Y-98897950D01*
X141556198Y-98888679D01*
X141346610Y-98849500D01*
X141133390Y-98849500D01*
X140923802Y-98888679D01*
X140923799Y-98888679D01*
X140923799Y-98888680D01*
X140724982Y-98965701D01*
X140724980Y-98965702D01*
X140543699Y-99077947D01*
X140386127Y-99221593D01*
X140257634Y-99391744D01*
X140190676Y-99526215D01*
X140143173Y-99577452D01*
X140075510Y-99594873D01*
X140009170Y-99572947D01*
X139967294Y-99523348D01*
X139873600Y-99322422D01*
X139873599Y-99322420D01*
X139738113Y-99128926D01*
X139738108Y-99128920D01*
X139571082Y-98961894D01*
X139377578Y-98826399D01*
X139325365Y-98802052D01*
X193440607Y-98802052D01*
X193450975Y-98993289D01*
X193450976Y-98993291D01*
X193502211Y-99177824D01*
X193502212Y-99177827D01*
X193591920Y-99347036D01*
X193591921Y-99347038D01*
X193715910Y-99493008D01*
X193860391Y-99602841D01*
X193868378Y-99608912D01*
X194042197Y-99689329D01*
X194229240Y-99730500D01*
X194229243Y-99730500D01*
X194372734Y-99730500D01*
X194372740Y-99730500D01*
X194515398Y-99714985D01*
X194696892Y-99653832D01*
X194860236Y-99555551D01*
X194927826Y-99537856D01*
X194994255Y-99559512D01*
X195038430Y-99613645D01*
X195046326Y-99683067D01*
X195039518Y-99707291D01*
X195035122Y-99718436D01*
X195033674Y-99730499D01*
X195024500Y-99806898D01*
X195024500Y-101093102D01*
X195026688Y-101111319D01*
X195035122Y-101181561D01*
X195035122Y-101181563D01*
X195035123Y-101181564D01*
X195052722Y-101226192D01*
X195090639Y-101322343D01*
X195182077Y-101442922D01*
X195302658Y-101534361D01*
X195302660Y-101534362D01*
X195433793Y-101586075D01*
X195488937Y-101628980D01*
X195512130Y-101694888D01*
X195496009Y-101762873D01*
X195459427Y-101803004D01*
X195303922Y-101911890D01*
X195303920Y-101911891D01*
X195136894Y-102078917D01*
X195001399Y-102272421D01*
X194901570Y-102486507D01*
X194901567Y-102486513D01*
X194844364Y-102699999D01*
X194844364Y-102700000D01*
X195891314Y-102700000D01*
X195865507Y-102740156D01*
X195825000Y-102878111D01*
X195825000Y-103021889D01*
X195865507Y-103159844D01*
X195891314Y-103200000D01*
X194844364Y-103200000D01*
X194901567Y-103413486D01*
X194901570Y-103413492D01*
X195001399Y-103627577D01*
X195001400Y-103627579D01*
X195136886Y-103821073D01*
X195136891Y-103821079D01*
X195303920Y-103988108D01*
X195303926Y-103988113D01*
X195497420Y-104123599D01*
X195497422Y-104123600D01*
X195711507Y-104223429D01*
X195711516Y-104223433D01*
X195939673Y-104284567D01*
X195939684Y-104284569D01*
X196074999Y-104296407D01*
X196075000Y-104296407D01*
X196075000Y-103385501D01*
X196182685Y-103434680D01*
X196289237Y-103450000D01*
X196360763Y-103450000D01*
X196467315Y-103434680D01*
X196575000Y-103385501D01*
X196575000Y-104296407D01*
X196710315Y-104284569D01*
X196710326Y-104284567D01*
X196938483Y-104223433D01*
X196938492Y-104223429D01*
X197152577Y-104123600D01*
X197152579Y-104123599D01*
X197346073Y-103988113D01*
X197346079Y-103988108D01*
X197513105Y-103821082D01*
X197648600Y-103627578D01*
X197748429Y-103413492D01*
X197748432Y-103413486D01*
X197805636Y-103200000D01*
X196758686Y-103200000D01*
X196784493Y-103159844D01*
X196825000Y-103021889D01*
X196825000Y-102878111D01*
X196784493Y-102740156D01*
X196758686Y-102700000D01*
X197805636Y-102700000D01*
X197805635Y-102699999D01*
X197748432Y-102486513D01*
X197748429Y-102486507D01*
X197648600Y-102272422D01*
X197648599Y-102272420D01*
X197513113Y-102078926D01*
X197513108Y-102078920D01*
X197346079Y-101911891D01*
X197346073Y-101911886D01*
X197190573Y-101803004D01*
X197146948Y-101748427D01*
X197139754Y-101678929D01*
X197171277Y-101616574D01*
X197216203Y-101586075D01*
X197347342Y-101534361D01*
X197467922Y-101442922D01*
X197559361Y-101322342D01*
X197614877Y-101181564D01*
X197625500Y-101093102D01*
X197625500Y-99806898D01*
X197614877Y-99718436D01*
X197559361Y-99577658D01*
X197559360Y-99577657D01*
X197559360Y-99577656D01*
X197467922Y-99457077D01*
X197347343Y-99365639D01*
X197206561Y-99310122D01*
X197160926Y-99304642D01*
X197118102Y-99299500D01*
X195531898Y-99299500D01*
X195492853Y-99304188D01*
X195443438Y-99310122D01*
X195294767Y-99368751D01*
X195293986Y-99366772D01*
X195237171Y-99379864D01*
X195171412Y-99356252D01*
X195128858Y-99300836D01*
X195123020Y-99231211D01*
X195129304Y-99210189D01*
X195178409Y-99086948D01*
X195209393Y-98897950D01*
X195199024Y-98706711D01*
X195147787Y-98522172D01*
X195058078Y-98352961D01*
X194934090Y-98206992D01*
X194852422Y-98144909D01*
X194781628Y-98091092D01*
X194781617Y-98091085D01*
X194607801Y-98010670D01*
X194420760Y-97969500D01*
X194277260Y-97969500D01*
X194277258Y-97969500D01*
X194134603Y-97985014D01*
X194134600Y-97985015D01*
X193953107Y-98046168D01*
X193789000Y-98144908D01*
X193788999Y-98144909D01*
X193649959Y-98276614D01*
X193542478Y-98435136D01*
X193471592Y-98613047D01*
X193471591Y-98613051D01*
X193471591Y-98613052D01*
X193444966Y-98775464D01*
X193440607Y-98802052D01*
X139325365Y-98802052D01*
X139163492Y-98726570D01*
X139163486Y-98726567D01*
X138950000Y-98669364D01*
X138950000Y-99564498D01*
X138842315Y-99515320D01*
X138735763Y-99500000D01*
X138664237Y-99500000D01*
X138557685Y-99515320D01*
X138450000Y-99564498D01*
X138450000Y-98669364D01*
X138449999Y-98669364D01*
X138236513Y-98726567D01*
X138236507Y-98726570D01*
X138022422Y-98826399D01*
X138022420Y-98826400D01*
X137828926Y-98961886D01*
X137828920Y-98961891D01*
X137661891Y-99128920D01*
X137661886Y-99128926D01*
X137526400Y-99322420D01*
X137526399Y-99322422D01*
X137432705Y-99523348D01*
X137386532Y-99575787D01*
X137319339Y-99594939D01*
X137252457Y-99574723D01*
X137209323Y-99526215D01*
X137142366Y-99391745D01*
X137122651Y-99365639D01*
X137013872Y-99221593D01*
X136927920Y-99143237D01*
X136856302Y-99077948D01*
X136675019Y-98965702D01*
X136675017Y-98965701D01*
X136500129Y-98897950D01*
X136476198Y-98888679D01*
X136266610Y-98849500D01*
X136053390Y-98849500D01*
X135843802Y-98888679D01*
X135843799Y-98888679D01*
X135843799Y-98888680D01*
X135644982Y-98965701D01*
X135644980Y-98965702D01*
X135463699Y-99077947D01*
X135306127Y-99221593D01*
X135177632Y-99391746D01*
X135082596Y-99582605D01*
X135082596Y-99582607D01*
X135024244Y-99787689D01*
X135013471Y-99903951D01*
X134987685Y-99968888D01*
X134943130Y-100000804D01*
X134834622Y-100000804D01*
X134836869Y-99999194D01*
X134800497Y-99978331D01*
X134768307Y-99916318D01*
X134766529Y-99903951D01*
X134764206Y-99878886D01*
X134755756Y-99787690D01*
X134697405Y-99582611D01*
X134697403Y-99582606D01*
X134697403Y-99582605D01*
X134602367Y-99391746D01*
X134473872Y-99221593D01*
X134387920Y-99143237D01*
X134316302Y-99077948D01*
X134135019Y-98965702D01*
X134135017Y-98965701D01*
X133960129Y-98897950D01*
X133936198Y-98888679D01*
X133726610Y-98849500D01*
X133513390Y-98849500D01*
X133303802Y-98888679D01*
X133303799Y-98888679D01*
X133303799Y-98888680D01*
X133104982Y-98965701D01*
X133104980Y-98965702D01*
X132923699Y-99077947D01*
X132766127Y-99221593D01*
X132637632Y-99391746D01*
X132542596Y-99582605D01*
X132542596Y-99582607D01*
X132484244Y-99787689D01*
X132467081Y-99972917D01*
X132464571Y-100000000D01*
X108489120Y-100000000D01*
X108486208Y-99972917D01*
X108486739Y-99968888D01*
X108505682Y-99825000D01*
X108503299Y-99806903D01*
X108485044Y-99668239D01*
X108485044Y-99668238D01*
X108424536Y-99522159D01*
X108328282Y-99396718D01*
X108202841Y-99300464D01*
X108201723Y-99300001D01*
X110494318Y-99300001D01*
X110514955Y-99456760D01*
X110514956Y-99456762D01*
X110572163Y-99594873D01*
X110575464Y-99602841D01*
X110671718Y-99728282D01*
X110797159Y-99824536D01*
X110943238Y-99885044D01*
X111021619Y-99895363D01*
X111099999Y-99905682D01*
X111100000Y-99905682D01*
X111100001Y-99905682D01*
X111152254Y-99898802D01*
X111256762Y-99885044D01*
X111402841Y-99824536D01*
X111528282Y-99728282D01*
X111624536Y-99602841D01*
X111685044Y-99456762D01*
X111704349Y-99310123D01*
X111705682Y-99300001D01*
X111705682Y-99299998D01*
X111685044Y-99143239D01*
X111685044Y-99143238D01*
X111624536Y-98997159D01*
X111528282Y-98871718D01*
X111402841Y-98775464D01*
X111256762Y-98714956D01*
X111256760Y-98714955D01*
X111100001Y-98694318D01*
X111099999Y-98694318D01*
X110943239Y-98714955D01*
X110943237Y-98714956D01*
X110797160Y-98775463D01*
X110671718Y-98871718D01*
X110575463Y-98997160D01*
X110514956Y-99143237D01*
X110514955Y-99143239D01*
X110494318Y-99299998D01*
X110494318Y-99300001D01*
X108201723Y-99300001D01*
X108056762Y-99239956D01*
X108056760Y-99239955D01*
X107900001Y-99219318D01*
X107899999Y-99219318D01*
X107743239Y-99239955D01*
X107743237Y-99239956D01*
X107597160Y-99300463D01*
X107471718Y-99396718D01*
X107375463Y-99522160D01*
X107314956Y-99668237D01*
X107314955Y-99668239D01*
X107294318Y-99824998D01*
X107294318Y-99825001D01*
X96954921Y-99825001D01*
X96959059Y-96100001D01*
X104794318Y-96100001D01*
X104814955Y-96256760D01*
X104814956Y-96256762D01*
X104875464Y-96402841D01*
X104971718Y-96528282D01*
X105097159Y-96624536D01*
X105243238Y-96685044D01*
X105321619Y-96695363D01*
X105399999Y-96705682D01*
X105400000Y-96705682D01*
X105400001Y-96705682D01*
X105452254Y-96698802D01*
X105556762Y-96685044D01*
X105702841Y-96624536D01*
X105828282Y-96528282D01*
X105924536Y-96402841D01*
X105985044Y-96256762D01*
X106005682Y-96100001D01*
X107394318Y-96100001D01*
X107414955Y-96256760D01*
X107414956Y-96256762D01*
X107475464Y-96402841D01*
X107571718Y-96528282D01*
X107697159Y-96624536D01*
X107843238Y-96685044D01*
X107921619Y-96695363D01*
X107999999Y-96705682D01*
X108000000Y-96705682D01*
X108000001Y-96705682D01*
X108052254Y-96698802D01*
X108156762Y-96685044D01*
X108302841Y-96624536D01*
X108428282Y-96528282D01*
X108524536Y-96402841D01*
X108553058Y-96333983D01*
X108596899Y-96279579D01*
X108663193Y-96257514D01*
X108730892Y-96274793D01*
X108743097Y-96283053D01*
X108797159Y-96324536D01*
X108943238Y-96385044D01*
X109003093Y-96392924D01*
X109099999Y-96405682D01*
X109100000Y-96405682D01*
X109190365Y-96393785D01*
X109259401Y-96404550D01*
X109304926Y-96441237D01*
X109371718Y-96528282D01*
X109497159Y-96624536D01*
X109643238Y-96685044D01*
X109721619Y-96695363D01*
X109799999Y-96705682D01*
X109800000Y-96705682D01*
X109800001Y-96705682D01*
X109852254Y-96698802D01*
X109956762Y-96685044D01*
X110102841Y-96624536D01*
X110228282Y-96528282D01*
X110324536Y-96402841D01*
X110367134Y-96300001D01*
X110894318Y-96300001D01*
X110914955Y-96456760D01*
X110914956Y-96456762D01*
X110975464Y-96602841D01*
X111071718Y-96728282D01*
X111197159Y-96824536D01*
X111343238Y-96885044D01*
X111421619Y-96895363D01*
X111499999Y-96905682D01*
X111500000Y-96905682D01*
X111500001Y-96905682D01*
X111552254Y-96898802D01*
X111656762Y-96885044D01*
X111802841Y-96824536D01*
X111928282Y-96728282D01*
X112024536Y-96602841D01*
X112079813Y-96469390D01*
X112123651Y-96414989D01*
X112189945Y-96392924D01*
X112210548Y-96393905D01*
X112300000Y-96405682D01*
X112300001Y-96405682D01*
X112352254Y-96398802D01*
X112456762Y-96385044D01*
X112602841Y-96324536D01*
X112728282Y-96228282D01*
X112824536Y-96102841D01*
X112885044Y-95956762D01*
X112905682Y-95800000D01*
X112900937Y-95763961D01*
X112885044Y-95643239D01*
X112885044Y-95643238D01*
X112824536Y-95497159D01*
X112728282Y-95371718D01*
X112602841Y-95275464D01*
X112594864Y-95272160D01*
X112456762Y-95214956D01*
X112456760Y-95214955D01*
X112300001Y-95194318D01*
X112299999Y-95194318D01*
X112143239Y-95214955D01*
X112143237Y-95214956D01*
X111997160Y-95275463D01*
X111871718Y-95371718D01*
X111775463Y-95497160D01*
X111720188Y-95630607D01*
X111676347Y-95685010D01*
X111610053Y-95707075D01*
X111589442Y-95706093D01*
X111500001Y-95694318D01*
X111499999Y-95694318D01*
X111343239Y-95714955D01*
X111343237Y-95714956D01*
X111197160Y-95775463D01*
X111071718Y-95871718D01*
X110975463Y-95997160D01*
X110914956Y-96143237D01*
X110914955Y-96143239D01*
X110894318Y-96299998D01*
X110894318Y-96300001D01*
X110367134Y-96300001D01*
X110385044Y-96256762D01*
X110405682Y-96100000D01*
X110385044Y-95943238D01*
X110324536Y-95797159D01*
X110228282Y-95671718D01*
X110102841Y-95575464D01*
X110101723Y-95575001D01*
X109956762Y-95514956D01*
X109956760Y-95514955D01*
X109800001Y-95494318D01*
X109799997Y-95494318D01*
X109709632Y-95506214D01*
X109640597Y-95495448D01*
X109595072Y-95458761D01*
X109591591Y-95454225D01*
X109551231Y-95401626D01*
X109528283Y-95371719D01*
X109528282Y-95371718D01*
X109402841Y-95275464D01*
X109394864Y-95272160D01*
X109256762Y-95214956D01*
X109256760Y-95214955D01*
X109100001Y-95194318D01*
X109099999Y-95194318D01*
X108943239Y-95214955D01*
X108943237Y-95214956D01*
X108797160Y-95275463D01*
X108733207Y-95324536D01*
X108671718Y-95371718D01*
X108591478Y-95476290D01*
X108575462Y-95497162D01*
X108546940Y-95566018D01*
X108503099Y-95620421D01*
X108436804Y-95642485D01*
X108369105Y-95625205D01*
X108356894Y-95616940D01*
X108302842Y-95575464D01*
X108156762Y-95514956D01*
X108156760Y-95514955D01*
X108000001Y-95494318D01*
X107999999Y-95494318D01*
X107843239Y-95514955D01*
X107843237Y-95514956D01*
X107697160Y-95575463D01*
X107571718Y-95671718D01*
X107475463Y-95797160D01*
X107414956Y-95943237D01*
X107414955Y-95943239D01*
X107394318Y-96099998D01*
X107394318Y-96100001D01*
X106005682Y-96100001D01*
X106005682Y-96100000D01*
X105985044Y-95943238D01*
X105924536Y-95797159D01*
X105828282Y-95671718D01*
X105702841Y-95575464D01*
X105701723Y-95575001D01*
X105556762Y-95514956D01*
X105556760Y-95514955D01*
X105400001Y-95494318D01*
X105399999Y-95494318D01*
X105243239Y-95514955D01*
X105243237Y-95514956D01*
X105097160Y-95575463D01*
X104971718Y-95671718D01*
X104875463Y-95797160D01*
X104814956Y-95943237D01*
X104814955Y-95943239D01*
X104794318Y-96099998D01*
X104794318Y-96100001D01*
X96959059Y-96100001D01*
X96961281Y-94100001D01*
X104294318Y-94100001D01*
X104314955Y-94256760D01*
X104314956Y-94256762D01*
X104374287Y-94400001D01*
X104375464Y-94402841D01*
X104471718Y-94528282D01*
X104597159Y-94624536D01*
X104743238Y-94685044D01*
X104813681Y-94694318D01*
X104899999Y-94705682D01*
X104900000Y-94705682D01*
X104900001Y-94705682D01*
X104952254Y-94698802D01*
X105056762Y-94685044D01*
X105202841Y-94624536D01*
X105328282Y-94528282D01*
X105424536Y-94402841D01*
X105425712Y-94400001D01*
X131694318Y-94400001D01*
X131714955Y-94556760D01*
X131714956Y-94556762D01*
X131771933Y-94694318D01*
X131775464Y-94702841D01*
X131871718Y-94828282D01*
X131997159Y-94924536D01*
X132143238Y-94985044D01*
X132180541Y-94989955D01*
X132299999Y-95005682D01*
X132300000Y-95005682D01*
X132300001Y-95005682D01*
X132364739Y-94997159D01*
X132456762Y-94985044D01*
X132602841Y-94924536D01*
X132728282Y-94828282D01*
X132749983Y-94800001D01*
X150494318Y-94800001D01*
X150514955Y-94956760D01*
X150514956Y-94956762D01*
X150556376Y-95056760D01*
X150575464Y-95102841D01*
X150671718Y-95228282D01*
X150797159Y-95324536D01*
X150943238Y-95385044D01*
X151021619Y-95395363D01*
X151099999Y-95405682D01*
X151100000Y-95405682D01*
X151100001Y-95405682D01*
X151152254Y-95398802D01*
X151256762Y-95385044D01*
X151402841Y-95324536D01*
X151434816Y-95300001D01*
X167094318Y-95300001D01*
X167114955Y-95456760D01*
X167114956Y-95456762D01*
X167175464Y-95602841D01*
X167271718Y-95728282D01*
X167397159Y-95824536D01*
X167543238Y-95885044D01*
X167621619Y-95895363D01*
X167699999Y-95905682D01*
X167700000Y-95905682D01*
X167700001Y-95905682D01*
X167752254Y-95898802D01*
X167856762Y-95885044D01*
X168002841Y-95824536D01*
X168128282Y-95728282D01*
X168224536Y-95602841D01*
X168236067Y-95575001D01*
X186419318Y-95575001D01*
X186439955Y-95731760D01*
X186439956Y-95731762D01*
X186468221Y-95800001D01*
X186500464Y-95877841D01*
X186596718Y-96003282D01*
X186722159Y-96099536D01*
X186868238Y-96160044D01*
X186946619Y-96170363D01*
X187024999Y-96180682D01*
X187025000Y-96180682D01*
X187025001Y-96180682D01*
X187077254Y-96173802D01*
X187181762Y-96160044D01*
X187327841Y-96099536D01*
X187453282Y-96003282D01*
X187549536Y-95877841D01*
X187610044Y-95731762D01*
X187630682Y-95575000D01*
X187620434Y-95497162D01*
X187610044Y-95418239D01*
X187610044Y-95418238D01*
X187549536Y-95272159D01*
X187453282Y-95146718D01*
X187327841Y-95050464D01*
X187181762Y-94989956D01*
X187181760Y-94989955D01*
X187025001Y-94969318D01*
X187024999Y-94969318D01*
X186868239Y-94989955D01*
X186868237Y-94989956D01*
X186722160Y-95050463D01*
X186596718Y-95146718D01*
X186500463Y-95272160D01*
X186439956Y-95418237D01*
X186439955Y-95418239D01*
X186419318Y-95574998D01*
X186419318Y-95575001D01*
X168236067Y-95575001D01*
X168254420Y-95530693D01*
X168298260Y-95476290D01*
X168364554Y-95454225D01*
X168416428Y-95463583D01*
X168468238Y-95485044D01*
X168538681Y-95494318D01*
X168624999Y-95505682D01*
X168625000Y-95505682D01*
X168625001Y-95505682D01*
X168702735Y-95495448D01*
X168781762Y-95485044D01*
X168927841Y-95424536D01*
X169053282Y-95328282D01*
X169149536Y-95202841D01*
X169210044Y-95056762D01*
X169230682Y-94900000D01*
X169210044Y-94743238D01*
X169149536Y-94597159D01*
X169053282Y-94471718D01*
X168927841Y-94375464D01*
X168918797Y-94371718D01*
X168865245Y-94349536D01*
X168781762Y-94314956D01*
X168766522Y-94312949D01*
X168671971Y-94300501D01*
X168608074Y-94272234D01*
X168569604Y-94213909D01*
X168568773Y-94144044D01*
X168573596Y-94130109D01*
X168574534Y-94127842D01*
X168574536Y-94127841D01*
X168635044Y-93981762D01*
X168652391Y-93850001D01*
X174544318Y-93850001D01*
X174564955Y-94006760D01*
X174564956Y-94006762D01*
X174603576Y-94100000D01*
X174625464Y-94152841D01*
X174721718Y-94278282D01*
X174847159Y-94374536D01*
X174993238Y-94435044D01*
X175071619Y-94445363D01*
X175149999Y-94455682D01*
X175150000Y-94455682D01*
X175150001Y-94455682D01*
X175202254Y-94448802D01*
X175306762Y-94435044D01*
X175452841Y-94374536D01*
X175578282Y-94278282D01*
X175674536Y-94152841D01*
X175735044Y-94006762D01*
X175755682Y-93850000D01*
X175752390Y-93824998D01*
X175735044Y-93693239D01*
X175735044Y-93693238D01*
X175674536Y-93547159D01*
X175578282Y-93421718D01*
X175452841Y-93325464D01*
X175392483Y-93300463D01*
X175306762Y-93264956D01*
X175306760Y-93264955D01*
X175150001Y-93244318D01*
X175149999Y-93244318D01*
X174993239Y-93264955D01*
X174993237Y-93264956D01*
X174847160Y-93325463D01*
X174721718Y-93421718D01*
X174625463Y-93547160D01*
X174564956Y-93693237D01*
X174564955Y-93693239D01*
X174544318Y-93849998D01*
X174544318Y-93850001D01*
X168652391Y-93850001D01*
X168655682Y-93825000D01*
X168635044Y-93668238D01*
X168574536Y-93522159D01*
X168478282Y-93396718D01*
X168352841Y-93300464D01*
X168206762Y-93239956D01*
X168206760Y-93239955D01*
X168050001Y-93219318D01*
X168049999Y-93219318D01*
X167893239Y-93239955D01*
X167893237Y-93239956D01*
X167747160Y-93300463D01*
X167621718Y-93396718D01*
X167525463Y-93522160D01*
X167464956Y-93668237D01*
X167464955Y-93668239D01*
X167444318Y-93824998D01*
X167444318Y-93825001D01*
X167464955Y-93981760D01*
X167464956Y-93981762D01*
X167475310Y-94006760D01*
X167525464Y-94127841D01*
X167621718Y-94253282D01*
X167747159Y-94349536D01*
X167893238Y-94410044D01*
X167961477Y-94419027D01*
X168003027Y-94424498D01*
X168066924Y-94452764D01*
X168105395Y-94511089D01*
X168106226Y-94580954D01*
X168101403Y-94594890D01*
X168070579Y-94669306D01*
X168026738Y-94723709D01*
X167960444Y-94745774D01*
X167908566Y-94736414D01*
X167856762Y-94714956D01*
X167856760Y-94714955D01*
X167700001Y-94694318D01*
X167699999Y-94694318D01*
X167543239Y-94714955D01*
X167543237Y-94714956D01*
X167397160Y-94775463D01*
X167271718Y-94871718D01*
X167175463Y-94997160D01*
X167114956Y-95143237D01*
X167114955Y-95143239D01*
X167094318Y-95299998D01*
X167094318Y-95300001D01*
X151434816Y-95300001D01*
X151528282Y-95228282D01*
X151624536Y-95102841D01*
X151685044Y-94956762D01*
X151705682Y-94800000D01*
X151685044Y-94643238D01*
X151624536Y-94497159D01*
X151528282Y-94371718D01*
X151402841Y-94275464D01*
X151357690Y-94256762D01*
X151256762Y-94214956D01*
X151256760Y-94214955D01*
X151100001Y-94194318D01*
X151099999Y-94194318D01*
X150943239Y-94214955D01*
X150943237Y-94214956D01*
X150797160Y-94275463D01*
X150671718Y-94371718D01*
X150575463Y-94497160D01*
X150514956Y-94643237D01*
X150514955Y-94643239D01*
X150494318Y-94799998D01*
X150494318Y-94800001D01*
X132749983Y-94800001D01*
X132824536Y-94702841D01*
X132885044Y-94556762D01*
X132905682Y-94400000D01*
X132885044Y-94243238D01*
X132825713Y-94100001D01*
X153894318Y-94100001D01*
X153914955Y-94256760D01*
X153914956Y-94256762D01*
X153974287Y-94400001D01*
X153975464Y-94402841D01*
X154071718Y-94528282D01*
X154197159Y-94624536D01*
X154343238Y-94685044D01*
X154413681Y-94694318D01*
X154499999Y-94705682D01*
X154500000Y-94705682D01*
X154500001Y-94705682D01*
X154552254Y-94698802D01*
X154656762Y-94685044D01*
X154802841Y-94624536D01*
X154928282Y-94528282D01*
X155024536Y-94402841D01*
X155085044Y-94256762D01*
X155105682Y-94100000D01*
X155085044Y-93943238D01*
X155024536Y-93797159D01*
X154928282Y-93671718D01*
X154802841Y-93575464D01*
X154757690Y-93556762D01*
X154656762Y-93514956D01*
X154656760Y-93514955D01*
X154500001Y-93494318D01*
X154499999Y-93494318D01*
X154343239Y-93514955D01*
X154343237Y-93514956D01*
X154197160Y-93575463D01*
X154071718Y-93671718D01*
X153975463Y-93797160D01*
X153914956Y-93943237D01*
X153914955Y-93943239D01*
X153894318Y-94099998D01*
X153894318Y-94100001D01*
X132825713Y-94100001D01*
X132824536Y-94097159D01*
X132728282Y-93971718D01*
X132602841Y-93875464D01*
X132481005Y-93824998D01*
X132456762Y-93814956D01*
X132456760Y-93814955D01*
X132300001Y-93794318D01*
X132299999Y-93794318D01*
X132143239Y-93814955D01*
X132143237Y-93814956D01*
X131997160Y-93875463D01*
X131871718Y-93971718D01*
X131775463Y-94097160D01*
X131714956Y-94243237D01*
X131714955Y-94243239D01*
X131694318Y-94399998D01*
X131694318Y-94400001D01*
X105425712Y-94400001D01*
X105485044Y-94256762D01*
X105505682Y-94100000D01*
X105485044Y-93943238D01*
X105424536Y-93797159D01*
X105328282Y-93671718D01*
X105202841Y-93575464D01*
X105157690Y-93556762D01*
X105056762Y-93514956D01*
X105056760Y-93514955D01*
X104900001Y-93494318D01*
X104899999Y-93494318D01*
X104743239Y-93514955D01*
X104743237Y-93514956D01*
X104597160Y-93575463D01*
X104471718Y-93671718D01*
X104375463Y-93797160D01*
X104314956Y-93943237D01*
X104314955Y-93943239D01*
X104294318Y-94099998D01*
X104294318Y-94100001D01*
X96961281Y-94100001D01*
X96962059Y-93400001D01*
X123794318Y-93400001D01*
X123814955Y-93556760D01*
X123814956Y-93556762D01*
X123861130Y-93668237D01*
X123875464Y-93702841D01*
X123971718Y-93828282D01*
X124097159Y-93924536D01*
X124243238Y-93985044D01*
X124321619Y-93995363D01*
X124399999Y-94005682D01*
X124400000Y-94005682D01*
X124400001Y-94005682D01*
X124452254Y-93998802D01*
X124556762Y-93985044D01*
X124702841Y-93924536D01*
X124828282Y-93828282D01*
X124924536Y-93702841D01*
X124985044Y-93556762D01*
X125005682Y-93400000D01*
X124985044Y-93243238D01*
X124924536Y-93097159D01*
X124828282Y-92971718D01*
X124702841Y-92875464D01*
X124556762Y-92814956D01*
X124556760Y-92814955D01*
X124400001Y-92794318D01*
X124399999Y-92794318D01*
X124243239Y-92814955D01*
X124243237Y-92814956D01*
X124097160Y-92875463D01*
X123971718Y-92971718D01*
X123875463Y-93097160D01*
X123814956Y-93243237D01*
X123814955Y-93243239D01*
X123794318Y-93399998D01*
X123794318Y-93400001D01*
X96962059Y-93400001D01*
X96964420Y-91275001D01*
X145544318Y-91275001D01*
X145564955Y-91431760D01*
X145564956Y-91431762D01*
X145625464Y-91577841D01*
X145721718Y-91703282D01*
X145847159Y-91799536D01*
X145993238Y-91860044D01*
X146071619Y-91870363D01*
X146149999Y-91880682D01*
X146150000Y-91880682D01*
X146150001Y-91880682D01*
X146202254Y-91873802D01*
X146306762Y-91860044D01*
X146452841Y-91799536D01*
X146578282Y-91703282D01*
X146657532Y-91600001D01*
X163319318Y-91600001D01*
X163339955Y-91756760D01*
X163339956Y-91756762D01*
X163400464Y-91902841D01*
X163496718Y-92028282D01*
X163622159Y-92124536D01*
X163768238Y-92185044D01*
X163846619Y-92195363D01*
X163924999Y-92205682D01*
X163925000Y-92205682D01*
X163925001Y-92205682D01*
X163977254Y-92198802D01*
X164081762Y-92185044D01*
X164227841Y-92124536D01*
X164353282Y-92028282D01*
X164449536Y-91902841D01*
X164510044Y-91756762D01*
X164528713Y-91614955D01*
X164530682Y-91600001D01*
X164530682Y-91599998D01*
X164510044Y-91443239D01*
X164510044Y-91443238D01*
X164449536Y-91297159D01*
X164353282Y-91171718D01*
X164227841Y-91075464D01*
X164081762Y-91014956D01*
X164081760Y-91014955D01*
X163925001Y-90994318D01*
X163924999Y-90994318D01*
X163768239Y-91014955D01*
X163768237Y-91014956D01*
X163622160Y-91075463D01*
X163496718Y-91171718D01*
X163400463Y-91297160D01*
X163339956Y-91443237D01*
X163339955Y-91443239D01*
X163319318Y-91599998D01*
X163319318Y-91600001D01*
X146657532Y-91600001D01*
X146674536Y-91577841D01*
X146735044Y-91431762D01*
X146755682Y-91275000D01*
X146751500Y-91243238D01*
X146735044Y-91118239D01*
X146735044Y-91118238D01*
X146674536Y-90972159D01*
X146578282Y-90846718D01*
X146452841Y-90750464D01*
X146306762Y-90689956D01*
X146306760Y-90689955D01*
X146150001Y-90669318D01*
X146149999Y-90669318D01*
X145993239Y-90689955D01*
X145993237Y-90689956D01*
X145847160Y-90750463D01*
X145721718Y-90846718D01*
X145625463Y-90972160D01*
X145564956Y-91118237D01*
X145564955Y-91118239D01*
X145544318Y-91274998D01*
X145544318Y-91275001D01*
X96964420Y-91275001D01*
X96965392Y-90400001D01*
X105394318Y-90400001D01*
X105414955Y-90556760D01*
X105414956Y-90556762D01*
X105475464Y-90702841D01*
X105571718Y-90828282D01*
X105697159Y-90924536D01*
X105843238Y-90985044D01*
X105913681Y-90994318D01*
X105999999Y-91005682D01*
X106000000Y-91005682D01*
X106000001Y-91005682D01*
X106052254Y-90998802D01*
X106156762Y-90985044D01*
X106302841Y-90924536D01*
X106428282Y-90828282D01*
X106524536Y-90702841D01*
X106567134Y-90600001D01*
X120269318Y-90600001D01*
X120289955Y-90756760D01*
X120289956Y-90756762D01*
X120346938Y-90894330D01*
X120350464Y-90902841D01*
X120446718Y-91028282D01*
X120572159Y-91124536D01*
X120718238Y-91185044D01*
X120796619Y-91195363D01*
X120874999Y-91205682D01*
X120875000Y-91205682D01*
X120875001Y-91205682D01*
X120927254Y-91198802D01*
X121031762Y-91185044D01*
X121177841Y-91124536D01*
X121303282Y-91028282D01*
X121399536Y-90902841D01*
X121460044Y-90756762D01*
X121480682Y-90600001D01*
X165494318Y-90600001D01*
X165514955Y-90756760D01*
X165514956Y-90756762D01*
X165571938Y-90894330D01*
X165575464Y-90902841D01*
X165671718Y-91028282D01*
X165761481Y-91097159D01*
X165772570Y-91105668D01*
X165813772Y-91162096D01*
X165817927Y-91231842D01*
X165816860Y-91236129D01*
X165814956Y-91243234D01*
X165794318Y-91399998D01*
X165794318Y-91400001D01*
X165814955Y-91556760D01*
X165814956Y-91556762D01*
X165875464Y-91702841D01*
X165971718Y-91828282D01*
X166097159Y-91924536D01*
X166243238Y-91985044D01*
X166400000Y-92005682D01*
X166463564Y-91997313D01*
X166532595Y-92008078D01*
X166584852Y-92054457D01*
X166603738Y-92121726D01*
X166602686Y-92136437D01*
X166594318Y-92199998D01*
X166594318Y-92200001D01*
X166614955Y-92356760D01*
X166614956Y-92356762D01*
X166650775Y-92443238D01*
X166675464Y-92502841D01*
X166771718Y-92628282D01*
X166897159Y-92724536D01*
X167043238Y-92785044D01*
X167113681Y-92794318D01*
X167199999Y-92805682D01*
X167200000Y-92805682D01*
X167200001Y-92805682D01*
X167252254Y-92798802D01*
X167356762Y-92785044D01*
X167502841Y-92724536D01*
X167628282Y-92628282D01*
X167649983Y-92600001D01*
X175394318Y-92600001D01*
X175414955Y-92756760D01*
X175414956Y-92756762D01*
X175475464Y-92902841D01*
X175571718Y-93028282D01*
X175697159Y-93124536D01*
X175843238Y-93185044D01*
X175921619Y-93195363D01*
X175999999Y-93205682D01*
X176000000Y-93205682D01*
X176000001Y-93205682D01*
X176052254Y-93198802D01*
X176156762Y-93185044D01*
X176302841Y-93124536D01*
X176428282Y-93028282D01*
X176524536Y-92902841D01*
X176585044Y-92756762D01*
X176605682Y-92600000D01*
X176585044Y-92443238D01*
X176524536Y-92297159D01*
X176428282Y-92171718D01*
X176302841Y-92075464D01*
X176156762Y-92014956D01*
X176156760Y-92014955D01*
X176000001Y-91994318D01*
X175999999Y-91994318D01*
X175843239Y-92014955D01*
X175843237Y-92014956D01*
X175697160Y-92075463D01*
X175571718Y-92171718D01*
X175475463Y-92297160D01*
X175414956Y-92443237D01*
X175414955Y-92443239D01*
X175394318Y-92599998D01*
X175394318Y-92600001D01*
X167649983Y-92600001D01*
X167724536Y-92502841D01*
X167785044Y-92356762D01*
X167805682Y-92200000D01*
X167785044Y-92043238D01*
X167736069Y-91925001D01*
X177844318Y-91925001D01*
X177864955Y-92081760D01*
X177864956Y-92081762D01*
X177925464Y-92227841D01*
X178021718Y-92353282D01*
X178147159Y-92449536D01*
X178293238Y-92510044D01*
X178371619Y-92520363D01*
X178449999Y-92530682D01*
X178450000Y-92530682D01*
X178450001Y-92530682D01*
X178502254Y-92523802D01*
X178606762Y-92510044D01*
X178752841Y-92449536D01*
X178878282Y-92353282D01*
X178974536Y-92227841D01*
X179035044Y-92081762D01*
X179055682Y-91925000D01*
X179052764Y-91902839D01*
X179039164Y-91799536D01*
X179035044Y-91768238D01*
X178974536Y-91622159D01*
X178878282Y-91496718D01*
X178752841Y-91400464D01*
X178751723Y-91400001D01*
X178606762Y-91339956D01*
X178606760Y-91339955D01*
X178450001Y-91319318D01*
X178449999Y-91319318D01*
X178293239Y-91339955D01*
X178293237Y-91339956D01*
X178147160Y-91400463D01*
X178021718Y-91496718D01*
X177925463Y-91622160D01*
X177864956Y-91768237D01*
X177864955Y-91768239D01*
X177844318Y-91924998D01*
X177844318Y-91925001D01*
X167736069Y-91925001D01*
X167724536Y-91897159D01*
X167628282Y-91771718D01*
X167502841Y-91675464D01*
X167456104Y-91656105D01*
X167356762Y-91614956D01*
X167356760Y-91614955D01*
X167200001Y-91594318D01*
X167199999Y-91594318D01*
X167136437Y-91602686D01*
X167067402Y-91591920D01*
X167015146Y-91545540D01*
X166996261Y-91478271D01*
X166997311Y-91463580D01*
X167005682Y-91400000D01*
X166999989Y-91356760D01*
X166989226Y-91275001D01*
X166985044Y-91243238D01*
X166967135Y-91200001D01*
X173644318Y-91200001D01*
X173664955Y-91356760D01*
X173664956Y-91356762D01*
X173700775Y-91443238D01*
X173725464Y-91502841D01*
X173821718Y-91628282D01*
X173947159Y-91724536D01*
X174093238Y-91785044D01*
X174171619Y-91795363D01*
X174249999Y-91805682D01*
X174250000Y-91805682D01*
X174250001Y-91805682D01*
X174302254Y-91798802D01*
X174406762Y-91785044D01*
X174552841Y-91724536D01*
X174678282Y-91628282D01*
X174774536Y-91502841D01*
X174835044Y-91356762D01*
X174855682Y-91200000D01*
X174835044Y-91043238D01*
X174774536Y-90897159D01*
X174678282Y-90771718D01*
X174552841Y-90675464D01*
X174538003Y-90669318D01*
X174406762Y-90614956D01*
X174406760Y-90614955D01*
X174250001Y-90594318D01*
X174249999Y-90594318D01*
X174093239Y-90614955D01*
X174093237Y-90614956D01*
X173947160Y-90675463D01*
X173821718Y-90771718D01*
X173725463Y-90897160D01*
X173664956Y-91043237D01*
X173664955Y-91043239D01*
X173644318Y-91199998D01*
X173644318Y-91200001D01*
X166967135Y-91200001D01*
X166924536Y-91097159D01*
X166828282Y-90971718D01*
X166804599Y-90953545D01*
X166727429Y-90894330D01*
X166686227Y-90837902D01*
X166682072Y-90768156D01*
X166683142Y-90763860D01*
X166685041Y-90756768D01*
X166685044Y-90756762D01*
X166705682Y-90600000D01*
X166699989Y-90556760D01*
X166685044Y-90443239D01*
X166685044Y-90443238D01*
X166624536Y-90297159D01*
X166528282Y-90171718D01*
X166402841Y-90075464D01*
X166256762Y-90014956D01*
X166256760Y-90014955D01*
X166100001Y-89994318D01*
X166099999Y-89994318D01*
X165943239Y-90014955D01*
X165943237Y-90014956D01*
X165797160Y-90075463D01*
X165671718Y-90171718D01*
X165575463Y-90297160D01*
X165514956Y-90443237D01*
X165514955Y-90443239D01*
X165494318Y-90599998D01*
X165494318Y-90600001D01*
X121480682Y-90600001D01*
X121480682Y-90600000D01*
X121474989Y-90556760D01*
X121460044Y-90443239D01*
X121460044Y-90443238D01*
X121399536Y-90297159D01*
X121303282Y-90171718D01*
X121177841Y-90075464D01*
X121031762Y-90014956D01*
X121031760Y-90014955D01*
X120875001Y-89994318D01*
X120874999Y-89994318D01*
X120718239Y-90014955D01*
X120718237Y-90014956D01*
X120572160Y-90075463D01*
X120446718Y-90171718D01*
X120350463Y-90297160D01*
X120289956Y-90443237D01*
X120289955Y-90443239D01*
X120269318Y-90599998D01*
X120269318Y-90600001D01*
X106567134Y-90600001D01*
X106585044Y-90556762D01*
X106605682Y-90400000D01*
X106585044Y-90243238D01*
X106524536Y-90097159D01*
X106428282Y-89971718D01*
X106302841Y-89875464D01*
X106156762Y-89814956D01*
X106156760Y-89814955D01*
X106043169Y-89800001D01*
X168794318Y-89800001D01*
X168814955Y-89956760D01*
X168814956Y-89956762D01*
X168875464Y-90102841D01*
X168971718Y-90228282D01*
X169097159Y-90324536D01*
X169243238Y-90385044D01*
X169321619Y-90395363D01*
X169399999Y-90405682D01*
X169400000Y-90405682D01*
X169400001Y-90405682D01*
X169452254Y-90398802D01*
X169556762Y-90385044D01*
X169702841Y-90324536D01*
X169828282Y-90228282D01*
X169924536Y-90102841D01*
X169985044Y-89956762D01*
X169993815Y-89890134D01*
X170022081Y-89826240D01*
X170080405Y-89787768D01*
X170134808Y-89786802D01*
X170135180Y-89783983D01*
X170143237Y-89785043D01*
X170143238Y-89785044D01*
X170222894Y-89795530D01*
X170299999Y-89805682D01*
X170300000Y-89805682D01*
X170300001Y-89805682D01*
X170352254Y-89798802D01*
X170456762Y-89785044D01*
X170602841Y-89724536D01*
X170728282Y-89628282D01*
X170824536Y-89502841D01*
X170885044Y-89356762D01*
X170905682Y-89200000D01*
X170899989Y-89156760D01*
X170885044Y-89043239D01*
X170885044Y-89043238D01*
X170867135Y-89000001D01*
X172394318Y-89000001D01*
X172414955Y-89156760D01*
X172414956Y-89156762D01*
X172475464Y-89302841D01*
X172571718Y-89428282D01*
X172697159Y-89524536D01*
X172735777Y-89540532D01*
X172790180Y-89584371D01*
X172812246Y-89650665D01*
X172811264Y-89671278D01*
X172794318Y-89799998D01*
X172794318Y-89800001D01*
X172814955Y-89956760D01*
X172814956Y-89956762D01*
X172875464Y-90102841D01*
X172971718Y-90228282D01*
X173097159Y-90324536D01*
X173243238Y-90385044D01*
X173321619Y-90395363D01*
X173399999Y-90405682D01*
X173400000Y-90405682D01*
X173400001Y-90405682D01*
X173452254Y-90398802D01*
X173556762Y-90385044D01*
X173702841Y-90324536D01*
X173828282Y-90228282D01*
X173924536Y-90102841D01*
X173985044Y-89956762D01*
X173998802Y-89852254D01*
X174005682Y-89800001D01*
X174005682Y-89799998D01*
X173991923Y-89695492D01*
X173985044Y-89643238D01*
X173925713Y-89500001D01*
X177694318Y-89500001D01*
X177714955Y-89656760D01*
X177714956Y-89656762D01*
X177774287Y-89800001D01*
X177775464Y-89802841D01*
X177871718Y-89928282D01*
X177997159Y-90024536D01*
X178143238Y-90085044D01*
X178221619Y-90095363D01*
X178299999Y-90105682D01*
X178300000Y-90105682D01*
X178300001Y-90105682D01*
X178364739Y-90097159D01*
X178456762Y-90085044D01*
X178602841Y-90024536D01*
X178728282Y-89928282D01*
X178824536Y-89802841D01*
X178885044Y-89656762D01*
X178905682Y-89500000D01*
X178885044Y-89343238D01*
X178824536Y-89197159D01*
X178728282Y-89071718D01*
X178602841Y-88975464D01*
X178456762Y-88914956D01*
X178456760Y-88914955D01*
X178300001Y-88894318D01*
X178299999Y-88894318D01*
X178143239Y-88914955D01*
X178143237Y-88914956D01*
X177997160Y-88975463D01*
X177871718Y-89071718D01*
X177775463Y-89197160D01*
X177714956Y-89343237D01*
X177714955Y-89343239D01*
X177694318Y-89499998D01*
X177694318Y-89500001D01*
X173925713Y-89500001D01*
X173924536Y-89497159D01*
X173828282Y-89371718D01*
X173828280Y-89371717D01*
X173828280Y-89371716D01*
X173702841Y-89275464D01*
X173702834Y-89275460D01*
X173664220Y-89259465D01*
X173609817Y-89215624D01*
X173587753Y-89149329D01*
X173588734Y-89128729D01*
X173605682Y-89000000D01*
X173585044Y-88843238D01*
X173524536Y-88697159D01*
X173428282Y-88571718D01*
X173302841Y-88475464D01*
X173156762Y-88414956D01*
X173156760Y-88414955D01*
X173000001Y-88394318D01*
X172999999Y-88394318D01*
X172843239Y-88414955D01*
X172843237Y-88414956D01*
X172697160Y-88475463D01*
X172571718Y-88571718D01*
X172475463Y-88697160D01*
X172414956Y-88843237D01*
X172414955Y-88843239D01*
X172394318Y-88999998D01*
X172394318Y-89000001D01*
X170867135Y-89000001D01*
X170824536Y-88897159D01*
X170728282Y-88771718D01*
X170602841Y-88675464D01*
X170557690Y-88656762D01*
X170456762Y-88614956D01*
X170456760Y-88614955D01*
X170300001Y-88594318D01*
X170299999Y-88594318D01*
X170143239Y-88614955D01*
X170143237Y-88614956D01*
X169997160Y-88675463D01*
X169871718Y-88771718D01*
X169775463Y-88897160D01*
X169714956Y-89043237D01*
X169714956Y-89043238D01*
X169706184Y-89109865D01*
X169677917Y-89173761D01*
X169619592Y-89212231D01*
X169565190Y-89213204D01*
X169564820Y-89216017D01*
X169556762Y-89214956D01*
X169443167Y-89200001D01*
X169400001Y-89194318D01*
X169399999Y-89194318D01*
X169243239Y-89214955D01*
X169243237Y-89214956D01*
X169097160Y-89275463D01*
X168971718Y-89371718D01*
X168875463Y-89497160D01*
X168814956Y-89643237D01*
X168814955Y-89643239D01*
X168794318Y-89799998D01*
X168794318Y-89800001D01*
X106043169Y-89800001D01*
X106000001Y-89794318D01*
X105999999Y-89794318D01*
X105843239Y-89814955D01*
X105843237Y-89814956D01*
X105697160Y-89875463D01*
X105571718Y-89971718D01*
X105475463Y-90097160D01*
X105414956Y-90243237D01*
X105414955Y-90243239D01*
X105394318Y-90399998D01*
X105394318Y-90400001D01*
X96965392Y-90400001D01*
X96967503Y-88500001D01*
X159794318Y-88500001D01*
X159814955Y-88656760D01*
X159814956Y-88656762D01*
X159875464Y-88802841D01*
X159971718Y-88928282D01*
X160097159Y-89024536D01*
X160243238Y-89085044D01*
X160321619Y-89095363D01*
X160399999Y-89105682D01*
X160400000Y-89105682D01*
X160400001Y-89105682D01*
X160452254Y-89098802D01*
X160556762Y-89085044D01*
X160702841Y-89024536D01*
X160828282Y-88928282D01*
X160924536Y-88802841D01*
X160985044Y-88656762D01*
X161005682Y-88500000D01*
X160985044Y-88343238D01*
X160924536Y-88197159D01*
X160828282Y-88071718D01*
X160702841Y-87975464D01*
X160556762Y-87914956D01*
X160556760Y-87914955D01*
X160443169Y-87900001D01*
X163994318Y-87900001D01*
X164014955Y-88056760D01*
X164014956Y-88056762D01*
X164074287Y-88200001D01*
X164075464Y-88202841D01*
X164171718Y-88328282D01*
X164297159Y-88424536D01*
X164443238Y-88485044D01*
X164521619Y-88495363D01*
X164599999Y-88505682D01*
X164600000Y-88505682D01*
X164600001Y-88505682D01*
X164652254Y-88498802D01*
X164756762Y-88485044D01*
X164902841Y-88424536D01*
X165028282Y-88328282D01*
X165124536Y-88202841D01*
X165125712Y-88200001D01*
X168294318Y-88200001D01*
X168314955Y-88356760D01*
X168314956Y-88356762D01*
X168374287Y-88500001D01*
X168375464Y-88502841D01*
X168471718Y-88628282D01*
X168597159Y-88724536D01*
X168743238Y-88785044D01*
X168821619Y-88795363D01*
X168899999Y-88805682D01*
X168900000Y-88805682D01*
X168900001Y-88805682D01*
X168952254Y-88798802D01*
X169056762Y-88785044D01*
X169202841Y-88724536D01*
X169328282Y-88628282D01*
X169424536Y-88502841D01*
X169485044Y-88356762D01*
X169505682Y-88200000D01*
X169485044Y-88043238D01*
X169424536Y-87897159D01*
X169328282Y-87771718D01*
X169202841Y-87675464D01*
X169157690Y-87656762D01*
X169056762Y-87614956D01*
X169056760Y-87614955D01*
X168900001Y-87594318D01*
X168899999Y-87594318D01*
X168743239Y-87614955D01*
X168743237Y-87614956D01*
X168597160Y-87675463D01*
X168471718Y-87771718D01*
X168375463Y-87897160D01*
X168314956Y-88043237D01*
X168314955Y-88043239D01*
X168294318Y-88199998D01*
X168294318Y-88200001D01*
X165125712Y-88200001D01*
X165185044Y-88056762D01*
X165205682Y-87900000D01*
X165202764Y-87877839D01*
X165185044Y-87743239D01*
X165185044Y-87743238D01*
X165124536Y-87597159D01*
X165028282Y-87471718D01*
X164902841Y-87375464D01*
X164756762Y-87314956D01*
X164756760Y-87314955D01*
X164600001Y-87294318D01*
X164599999Y-87294318D01*
X164443239Y-87314955D01*
X164443237Y-87314956D01*
X164297160Y-87375463D01*
X164171718Y-87471718D01*
X164075463Y-87597160D01*
X164014956Y-87743237D01*
X164014955Y-87743239D01*
X163994318Y-87899998D01*
X163994318Y-87900001D01*
X160443169Y-87900001D01*
X160400001Y-87894318D01*
X160399999Y-87894318D01*
X160243239Y-87914955D01*
X160243237Y-87914956D01*
X160097160Y-87975463D01*
X159971718Y-88071718D01*
X159875463Y-88197160D01*
X159814956Y-88343237D01*
X159814955Y-88343239D01*
X159794318Y-88499998D01*
X159794318Y-88500001D01*
X96967503Y-88500001D01*
X96968530Y-87575001D01*
X155319318Y-87575001D01*
X155339955Y-87731760D01*
X155339956Y-87731762D01*
X155400464Y-87877841D01*
X155496718Y-88003282D01*
X155622159Y-88099536D01*
X155768238Y-88160044D01*
X155846619Y-88170363D01*
X155924999Y-88180682D01*
X155925000Y-88180682D01*
X155925001Y-88180682D01*
X155977254Y-88173802D01*
X156081762Y-88160044D01*
X156227841Y-88099536D01*
X156353282Y-88003282D01*
X156449536Y-87877841D01*
X156510044Y-87731762D01*
X156530682Y-87575000D01*
X156520808Y-87500001D01*
X157294318Y-87500001D01*
X157314955Y-87656760D01*
X157314956Y-87656762D01*
X157350775Y-87743238D01*
X157375464Y-87802841D01*
X157471718Y-87928282D01*
X157597159Y-88024536D01*
X157743238Y-88085044D01*
X157821619Y-88095363D01*
X157899999Y-88105682D01*
X157900000Y-88105682D01*
X157900001Y-88105682D01*
X157952254Y-88098802D01*
X158056762Y-88085044D01*
X158202841Y-88024536D01*
X158328282Y-87928282D01*
X158424536Y-87802841D01*
X158485044Y-87656762D01*
X158505682Y-87500000D01*
X158485044Y-87343238D01*
X158424536Y-87197159D01*
X158328282Y-87071718D01*
X158202841Y-86975464D01*
X158188003Y-86969318D01*
X158056762Y-86914956D01*
X158056760Y-86914955D01*
X157900001Y-86894318D01*
X157899999Y-86894318D01*
X157743239Y-86914955D01*
X157743237Y-86914956D01*
X157597160Y-86975463D01*
X157471718Y-87071718D01*
X157375463Y-87197160D01*
X157314956Y-87343237D01*
X157314955Y-87343239D01*
X157294318Y-87499998D01*
X157294318Y-87500001D01*
X156520808Y-87500001D01*
X156510044Y-87418238D01*
X156449536Y-87272159D01*
X156353282Y-87146718D01*
X156227841Y-87050464D01*
X156081762Y-86989956D01*
X156081760Y-86989955D01*
X155925001Y-86969318D01*
X155924999Y-86969318D01*
X155768239Y-86989955D01*
X155768237Y-86989956D01*
X155622160Y-87050463D01*
X155496718Y-87146718D01*
X155400463Y-87272160D01*
X155339956Y-87418237D01*
X155339955Y-87418239D01*
X155319318Y-87574998D01*
X155319318Y-87575001D01*
X96968530Y-87575001D01*
X96970391Y-85900001D01*
X118494318Y-85900001D01*
X118514955Y-86056760D01*
X118514956Y-86056762D01*
X118554266Y-86151666D01*
X118575464Y-86202841D01*
X118671718Y-86328282D01*
X118797159Y-86424536D01*
X118943238Y-86485044D01*
X119021619Y-86495363D01*
X119099999Y-86505682D01*
X119100000Y-86505682D01*
X119100001Y-86505682D01*
X119152254Y-86498802D01*
X119256762Y-86485044D01*
X119402841Y-86424536D01*
X119528282Y-86328282D01*
X119624536Y-86202841D01*
X119685044Y-86056762D01*
X119705682Y-85900000D01*
X119692517Y-85800001D01*
X128794318Y-85800001D01*
X128814955Y-85956760D01*
X128814956Y-85956762D01*
X128856376Y-86056760D01*
X128875464Y-86102841D01*
X128971718Y-86228282D01*
X129097159Y-86324536D01*
X129243238Y-86385044D01*
X129321619Y-86395363D01*
X129399999Y-86405682D01*
X129400000Y-86405682D01*
X129400001Y-86405682D01*
X129452254Y-86398802D01*
X129556762Y-86385044D01*
X129702841Y-86324536D01*
X129828282Y-86228282D01*
X129907532Y-86125001D01*
X185019318Y-86125001D01*
X185039955Y-86281760D01*
X185039956Y-86281762D01*
X185100464Y-86427841D01*
X185196718Y-86553282D01*
X185322159Y-86649536D01*
X185468238Y-86710044D01*
X185526528Y-86717718D01*
X185624999Y-86730682D01*
X185625000Y-86730682D01*
X185625001Y-86730682D01*
X185677254Y-86723802D01*
X185781762Y-86710044D01*
X185927841Y-86649536D01*
X186053282Y-86553282D01*
X186149536Y-86427841D01*
X186202489Y-86300001D01*
X186519318Y-86300001D01*
X186539955Y-86456760D01*
X186539956Y-86456762D01*
X186579935Y-86553281D01*
X186600464Y-86602841D01*
X186696718Y-86728282D01*
X186822159Y-86824536D01*
X186968238Y-86885044D01*
X187038681Y-86894318D01*
X187124999Y-86905682D01*
X187125000Y-86905682D01*
X187125001Y-86905682D01*
X187202910Y-86895425D01*
X187281762Y-86885044D01*
X187427841Y-86824536D01*
X187552511Y-86728873D01*
X187617676Y-86703680D01*
X187686121Y-86717718D01*
X187726369Y-86751763D01*
X187746718Y-86778282D01*
X187872159Y-86874536D01*
X188018238Y-86935044D01*
X188096619Y-86945363D01*
X188174999Y-86955682D01*
X188175000Y-86955682D01*
X188175001Y-86955682D01*
X188230814Y-86948334D01*
X188331762Y-86935044D01*
X188477841Y-86874536D01*
X188494933Y-86861420D01*
X188560098Y-86836226D01*
X188628543Y-86850263D01*
X188668792Y-86884307D01*
X188692309Y-86914955D01*
X188720257Y-86951379D01*
X188721718Y-86953282D01*
X188847159Y-87049536D01*
X188993238Y-87110044D01*
X189071619Y-87120363D01*
X189149999Y-87130682D01*
X189150000Y-87130682D01*
X189150001Y-87130682D01*
X189202254Y-87123802D01*
X189306762Y-87110044D01*
X189452841Y-87049536D01*
X189578282Y-86953282D01*
X189578291Y-86953269D01*
X189580183Y-86951379D01*
X189582186Y-86950284D01*
X189584729Y-86948334D01*
X189585033Y-86948730D01*
X189641504Y-86917891D01*
X189711196Y-86922870D01*
X189766244Y-86963567D01*
X189770657Y-86969318D01*
X189793843Y-86999536D01*
X189796718Y-87003282D01*
X189922159Y-87099536D01*
X190068238Y-87160044D01*
X190146619Y-87170363D01*
X190224999Y-87180682D01*
X190225000Y-87180682D01*
X190225001Y-87180682D01*
X190277254Y-87173802D01*
X190381762Y-87160044D01*
X190527841Y-87099536D01*
X190653282Y-87003282D01*
X190727491Y-86906569D01*
X190783918Y-86865368D01*
X190853664Y-86861213D01*
X190914584Y-86895425D01*
X190919279Y-86900843D01*
X190921713Y-86903277D01*
X190921715Y-86903279D01*
X190921718Y-86903282D01*
X191047159Y-86999536D01*
X191193238Y-87060044D01*
X191271619Y-87070363D01*
X191349999Y-87080682D01*
X191350000Y-87080682D01*
X191350001Y-87080682D01*
X191402254Y-87073802D01*
X191506762Y-87060044D01*
X191652841Y-86999536D01*
X191778282Y-86903282D01*
X191874536Y-86777841D01*
X191935044Y-86631762D01*
X191955682Y-86475000D01*
X191949473Y-86427841D01*
X191935044Y-86318239D01*
X191935044Y-86318238D01*
X191874536Y-86172159D01*
X191778282Y-86046718D01*
X191652841Y-85950464D01*
X191627472Y-85939956D01*
X191506762Y-85889956D01*
X191506760Y-85889955D01*
X191350001Y-85869318D01*
X191349999Y-85869318D01*
X191193239Y-85889955D01*
X191193237Y-85889956D01*
X191047160Y-85950463D01*
X191047159Y-85950464D01*
X190921718Y-86046718D01*
X190921717Y-86046719D01*
X190921716Y-86046720D01*
X190847508Y-86143429D01*
X190791080Y-86184631D01*
X190721334Y-86188786D01*
X190660414Y-86154573D01*
X190655723Y-86149159D01*
X190653286Y-86146722D01*
X190653283Y-86146720D01*
X190653282Y-86146718D01*
X190527841Y-86050464D01*
X190518802Y-86046720D01*
X190381762Y-85989956D01*
X190381760Y-85989955D01*
X190225001Y-85969318D01*
X190224999Y-85969318D01*
X190068239Y-85989955D01*
X190068237Y-85989956D01*
X189922160Y-86050463D01*
X189796714Y-86146721D01*
X189794805Y-86148631D01*
X189792799Y-86149726D01*
X189790271Y-86151666D01*
X189789968Y-86151271D01*
X189733479Y-86182112D01*
X189663788Y-86177123D01*
X189608754Y-86136431D01*
X189578282Y-86096718D01*
X189452841Y-86000464D01*
X189444864Y-85997160D01*
X189306762Y-85939956D01*
X189306760Y-85939955D01*
X189150001Y-85919318D01*
X189149999Y-85919318D01*
X188993239Y-85939955D01*
X188993237Y-85939956D01*
X188847158Y-86000464D01*
X188830065Y-86013580D01*
X188764895Y-86038772D01*
X188696451Y-86024732D01*
X188656206Y-85990689D01*
X188611387Y-85932281D01*
X188603282Y-85921718D01*
X188477841Y-85825464D01*
X188469864Y-85822160D01*
X188331762Y-85764956D01*
X188331760Y-85764955D01*
X188175001Y-85744318D01*
X188174999Y-85744318D01*
X188018239Y-85764955D01*
X188018237Y-85764956D01*
X187872157Y-85825464D01*
X187747491Y-85921125D01*
X187682322Y-85946319D01*
X187613877Y-85932281D01*
X187573631Y-85898238D01*
X187553282Y-85871718D01*
X187427841Y-85775464D01*
X187402472Y-85764956D01*
X187281762Y-85714956D01*
X187281760Y-85714955D01*
X187125001Y-85694318D01*
X187124999Y-85694318D01*
X186968239Y-85714955D01*
X186968237Y-85714956D01*
X186822160Y-85775463D01*
X186696718Y-85871718D01*
X186600463Y-85997160D01*
X186539956Y-86143237D01*
X186539955Y-86143239D01*
X186519318Y-86299998D01*
X186519318Y-86300001D01*
X186202489Y-86300001D01*
X186210044Y-86281762D01*
X186230682Y-86125000D01*
X186227764Y-86102839D01*
X186213852Y-85997160D01*
X186210044Y-85968238D01*
X186149536Y-85822159D01*
X186053282Y-85696718D01*
X185927841Y-85600464D01*
X185919864Y-85597160D01*
X185781762Y-85539956D01*
X185781760Y-85539955D01*
X185625001Y-85519318D01*
X185624999Y-85519318D01*
X185468239Y-85539955D01*
X185468237Y-85539956D01*
X185322160Y-85600463D01*
X185196718Y-85696718D01*
X185100463Y-85822160D01*
X185039956Y-85968237D01*
X185039955Y-85968239D01*
X185019318Y-86124998D01*
X185019318Y-86125001D01*
X129907532Y-86125001D01*
X129924536Y-86102841D01*
X129985044Y-85956762D01*
X130005682Y-85800000D01*
X130001068Y-85764956D01*
X129985044Y-85643239D01*
X129985044Y-85643238D01*
X129924536Y-85497159D01*
X129828282Y-85371718D01*
X129702841Y-85275464D01*
X129556762Y-85214956D01*
X129556760Y-85214955D01*
X129400001Y-85194318D01*
X129399999Y-85194318D01*
X129243239Y-85214955D01*
X129243237Y-85214956D01*
X129097160Y-85275463D01*
X128971718Y-85371718D01*
X128875463Y-85497160D01*
X128814956Y-85643237D01*
X128814955Y-85643239D01*
X128794318Y-85799998D01*
X128794318Y-85800001D01*
X119692517Y-85800001D01*
X119685044Y-85743238D01*
X119624536Y-85597159D01*
X119528282Y-85471718D01*
X119402841Y-85375464D01*
X119393797Y-85371718D01*
X119256762Y-85314956D01*
X119256760Y-85314955D01*
X119100001Y-85294318D01*
X119099999Y-85294318D01*
X118943239Y-85314955D01*
X118943237Y-85314956D01*
X118797160Y-85375463D01*
X118671718Y-85471718D01*
X118575463Y-85597160D01*
X118514956Y-85743237D01*
X118514955Y-85743239D01*
X118494318Y-85899998D01*
X118494318Y-85900001D01*
X96970391Y-85900001D01*
X96971502Y-84900001D01*
X131894318Y-84900001D01*
X131914955Y-85056760D01*
X131914956Y-85056762D01*
X131971933Y-85194318D01*
X131975464Y-85202841D01*
X132071718Y-85328282D01*
X132197159Y-85424536D01*
X132343238Y-85485044D01*
X132421619Y-85495363D01*
X132499999Y-85505682D01*
X132500000Y-85505682D01*
X132500001Y-85505682D01*
X132564739Y-85497159D01*
X132656762Y-85485044D01*
X132802841Y-85424536D01*
X132928282Y-85328282D01*
X133024536Y-85202841D01*
X133085044Y-85056762D01*
X133105682Y-84900001D01*
X180894318Y-84900001D01*
X180914955Y-85056760D01*
X180914956Y-85056762D01*
X180971933Y-85194318D01*
X180975464Y-85202841D01*
X181071718Y-85328282D01*
X181197159Y-85424536D01*
X181343238Y-85485044D01*
X181421619Y-85495363D01*
X181499999Y-85505682D01*
X181500000Y-85505682D01*
X181500001Y-85505682D01*
X181564739Y-85497159D01*
X181656762Y-85485044D01*
X181802841Y-85424536D01*
X181928282Y-85328282D01*
X182024536Y-85202841D01*
X182085044Y-85056762D01*
X182105682Y-84900000D01*
X182085044Y-84743238D01*
X182024536Y-84597159D01*
X181928282Y-84471718D01*
X181802841Y-84375464D01*
X181656762Y-84314956D01*
X181656760Y-84314955D01*
X181500001Y-84294318D01*
X181499999Y-84294318D01*
X181343239Y-84314955D01*
X181343237Y-84314956D01*
X181197160Y-84375463D01*
X181071718Y-84471718D01*
X180975463Y-84597160D01*
X180914956Y-84743237D01*
X180914955Y-84743239D01*
X180894318Y-84899998D01*
X180894318Y-84900001D01*
X133105682Y-84900001D01*
X133105682Y-84900000D01*
X133085044Y-84743238D01*
X133024536Y-84597159D01*
X132928282Y-84471718D01*
X132802841Y-84375464D01*
X132656762Y-84314956D01*
X132656760Y-84314955D01*
X132500001Y-84294318D01*
X132499999Y-84294318D01*
X132343239Y-84314955D01*
X132343237Y-84314956D01*
X132197160Y-84375463D01*
X132071718Y-84471718D01*
X131975463Y-84597160D01*
X131914956Y-84743237D01*
X131914955Y-84743239D01*
X131894318Y-84899998D01*
X131894318Y-84900001D01*
X96971502Y-84900001D01*
X96978224Y-78850001D01*
X112169318Y-78850001D01*
X112189955Y-79006760D01*
X112189956Y-79006762D01*
X112250464Y-79152841D01*
X112346718Y-79278282D01*
X112472159Y-79374536D01*
X112618238Y-79435044D01*
X112696619Y-79445363D01*
X112774999Y-79455682D01*
X112775000Y-79455682D01*
X112775001Y-79455682D01*
X112827254Y-79448802D01*
X112931762Y-79435044D01*
X113077841Y-79374536D01*
X113203282Y-79278282D01*
X113299536Y-79152841D01*
X113360044Y-79006762D01*
X113380682Y-78850000D01*
X113360044Y-78693238D01*
X113299536Y-78547159D01*
X113224984Y-78450001D01*
X116869318Y-78450001D01*
X116889955Y-78606760D01*
X116889956Y-78606762D01*
X116925775Y-78693238D01*
X116950464Y-78752841D01*
X117046718Y-78878282D01*
X117172159Y-78974536D01*
X117318238Y-79035044D01*
X117396619Y-79045363D01*
X117474999Y-79055682D01*
X117475000Y-79055682D01*
X117475001Y-79055682D01*
X117527254Y-79048802D01*
X117631762Y-79035044D01*
X117777841Y-78974536D01*
X117903282Y-78878282D01*
X117999536Y-78752841D01*
X118060044Y-78606762D01*
X118080682Y-78450000D01*
X118060044Y-78293238D01*
X117999536Y-78147159D01*
X117903282Y-78021718D01*
X117777841Y-77925464D01*
X117631762Y-77864956D01*
X117631760Y-77864955D01*
X117475001Y-77844318D01*
X117474999Y-77844318D01*
X117318239Y-77864955D01*
X117318237Y-77864956D01*
X117172160Y-77925463D01*
X117046718Y-78021718D01*
X116950463Y-78147160D01*
X116889956Y-78293237D01*
X116889955Y-78293239D01*
X116869318Y-78449998D01*
X116869318Y-78450001D01*
X113224984Y-78450001D01*
X113203282Y-78421718D01*
X113077841Y-78325464D01*
X112931762Y-78264956D01*
X112931760Y-78264955D01*
X112775001Y-78244318D01*
X112774999Y-78244318D01*
X112618239Y-78264955D01*
X112618237Y-78264956D01*
X112472160Y-78325463D01*
X112346718Y-78421718D01*
X112250463Y-78547160D01*
X112189956Y-78693237D01*
X112189955Y-78693239D01*
X112169318Y-78849998D01*
X112169318Y-78850001D01*
X96978224Y-78850001D01*
X96981752Y-75675001D01*
X106394318Y-75675001D01*
X106414955Y-75831760D01*
X106414956Y-75831762D01*
X106463358Y-75948616D01*
X106475464Y-75977841D01*
X106571718Y-76103282D01*
X106697159Y-76199536D01*
X106843238Y-76260044D01*
X106921619Y-76270363D01*
X106999999Y-76280682D01*
X107000000Y-76280682D01*
X107000001Y-76280682D01*
X107052254Y-76273802D01*
X107156762Y-76260044D01*
X107302841Y-76199536D01*
X107428282Y-76103282D01*
X107524536Y-75977841D01*
X107585044Y-75831762D01*
X107605682Y-75675000D01*
X107601500Y-75643238D01*
X107585044Y-75518239D01*
X107585044Y-75518238D01*
X107577490Y-75500001D01*
X107894318Y-75500001D01*
X107914955Y-75656760D01*
X107914956Y-75656762D01*
X107974287Y-75800001D01*
X107975464Y-75802841D01*
X108071718Y-75928282D01*
X108197159Y-76024536D01*
X108343238Y-76085044D01*
X108380541Y-76089955D01*
X108499999Y-76105682D01*
X108500000Y-76105682D01*
X108500001Y-76105682D01*
X108552254Y-76098802D01*
X108656762Y-76085044D01*
X108802841Y-76024536D01*
X108928282Y-75928282D01*
X109024536Y-75802841D01*
X109025712Y-75800001D01*
X112544318Y-75800001D01*
X112564955Y-75956760D01*
X112564956Y-75956762D01*
X112625464Y-76102841D01*
X112721718Y-76228282D01*
X112847159Y-76324536D01*
X112993238Y-76385044D01*
X113071619Y-76395363D01*
X113149999Y-76405682D01*
X113150000Y-76405682D01*
X113150001Y-76405682D01*
X113202254Y-76398802D01*
X113306762Y-76385044D01*
X113452841Y-76324536D01*
X113578282Y-76228282D01*
X113674536Y-76102841D01*
X113735044Y-75956762D01*
X113748802Y-75852254D01*
X113755682Y-75800001D01*
X113755682Y-75799998D01*
X113742517Y-75700001D01*
X120644318Y-75700001D01*
X120664955Y-75856760D01*
X120664956Y-75856762D01*
X120706376Y-75956760D01*
X120725464Y-76002841D01*
X120821718Y-76128282D01*
X120947159Y-76224536D01*
X121093238Y-76285044D01*
X121250000Y-76305682D01*
X121278213Y-76301967D01*
X121347246Y-76312731D01*
X121399502Y-76359110D01*
X121418389Y-76426379D01*
X121408960Y-76472357D01*
X121389956Y-76518237D01*
X121389955Y-76518239D01*
X121369318Y-76674998D01*
X121369318Y-76675001D01*
X121389955Y-76831760D01*
X121389956Y-76831762D01*
X121450464Y-76977841D01*
X121546718Y-77103282D01*
X121672159Y-77199536D01*
X121818238Y-77260044D01*
X121896619Y-77270363D01*
X121974999Y-77280682D01*
X121975000Y-77280682D01*
X121975001Y-77280682D01*
X122027254Y-77273802D01*
X122131762Y-77260044D01*
X122277841Y-77199536D01*
X122403282Y-77103282D01*
X122499536Y-76977841D01*
X122560044Y-76831762D01*
X122580682Y-76675000D01*
X122560044Y-76518238D01*
X122499536Y-76372159D01*
X122403282Y-76246718D01*
X122277841Y-76150464D01*
X122131762Y-76089956D01*
X122131760Y-76089955D01*
X121975001Y-76069318D01*
X121974997Y-76069318D01*
X121946785Y-76073032D01*
X121877750Y-76062266D01*
X121825495Y-76015886D01*
X121806610Y-75948616D01*
X121816039Y-75902643D01*
X121835044Y-75856762D01*
X121855682Y-75700000D01*
X121852390Y-75674998D01*
X121835044Y-75543239D01*
X121835044Y-75543238D01*
X121774536Y-75397159D01*
X121678282Y-75271718D01*
X121552841Y-75175464D01*
X121509660Y-75157578D01*
X121406762Y-75114956D01*
X121406760Y-75114955D01*
X121250001Y-75094318D01*
X121249999Y-75094318D01*
X121093239Y-75114955D01*
X121093237Y-75114956D01*
X120947160Y-75175463D01*
X120821718Y-75271718D01*
X120725463Y-75397160D01*
X120664956Y-75543237D01*
X120664955Y-75543239D01*
X120644318Y-75699998D01*
X120644318Y-75700001D01*
X113742517Y-75700001D01*
X113739226Y-75675001D01*
X113735044Y-75643238D01*
X113674536Y-75497159D01*
X113578282Y-75371718D01*
X113452841Y-75275464D01*
X113443797Y-75271718D01*
X113306762Y-75214956D01*
X113306760Y-75214955D01*
X113150001Y-75194318D01*
X113149999Y-75194318D01*
X112993239Y-75214955D01*
X112993237Y-75214956D01*
X112847160Y-75275463D01*
X112721718Y-75371718D01*
X112625463Y-75497160D01*
X112564956Y-75643237D01*
X112564955Y-75643239D01*
X112544318Y-75799998D01*
X112544318Y-75800001D01*
X109025712Y-75800001D01*
X109085044Y-75656762D01*
X109092283Y-75601775D01*
X109120547Y-75537881D01*
X109178871Y-75499409D01*
X109248736Y-75498577D01*
X109290706Y-75519584D01*
X109297159Y-75524536D01*
X109443238Y-75585044D01*
X109521619Y-75595363D01*
X109599999Y-75605682D01*
X109600000Y-75605682D01*
X109600001Y-75605682D01*
X109652254Y-75598802D01*
X109756762Y-75585044D01*
X109902841Y-75524536D01*
X110028282Y-75428282D01*
X110124536Y-75302841D01*
X110185044Y-75156762D01*
X110205682Y-75000000D01*
X110185044Y-74843238D01*
X110138139Y-74730000D01*
X194869364Y-74730000D01*
X194926567Y-74943486D01*
X194926570Y-74943492D01*
X195026399Y-75157578D01*
X195161894Y-75351082D01*
X195328917Y-75518105D01*
X195522421Y-75653600D01*
X195736507Y-75753429D01*
X195736516Y-75753433D01*
X195950000Y-75810634D01*
X195950000Y-74915501D01*
X196057685Y-74964680D01*
X196164237Y-74980000D01*
X196235763Y-74980000D01*
X196342315Y-74964680D01*
X196450000Y-74915501D01*
X196450000Y-75810633D01*
X196663483Y-75753433D01*
X196663492Y-75753429D01*
X196877578Y-75653600D01*
X197071082Y-75518105D01*
X197238105Y-75351082D01*
X197373600Y-75157578D01*
X197473429Y-74943492D01*
X197473432Y-74943486D01*
X197530636Y-74730000D01*
X196633686Y-74730000D01*
X196659493Y-74689844D01*
X196700000Y-74551889D01*
X196700000Y-74408111D01*
X196659493Y-74270156D01*
X196633686Y-74230000D01*
X197530636Y-74230000D01*
X197530635Y-74229999D01*
X197473432Y-74016513D01*
X197473429Y-74016507D01*
X197373600Y-73802422D01*
X197373599Y-73802420D01*
X197238113Y-73608926D01*
X197238108Y-73608920D01*
X197071082Y-73441894D01*
X196877578Y-73306399D01*
X196678426Y-73213533D01*
X196625987Y-73167360D01*
X196606835Y-73100167D01*
X196627051Y-73033286D01*
X196680216Y-72987951D01*
X196686005Y-72985537D01*
X196715019Y-72974298D01*
X196896302Y-72862052D01*
X197053872Y-72718407D01*
X197182366Y-72548255D01*
X197277405Y-72357389D01*
X197335756Y-72152310D01*
X197355429Y-71940000D01*
X197335756Y-71727690D01*
X197277405Y-71522611D01*
X197277403Y-71522606D01*
X197277403Y-71522605D01*
X197182367Y-71331746D01*
X197053872Y-71161593D01*
X196896302Y-71017948D01*
X196715019Y-70905702D01*
X196715014Y-70905700D01*
X196708129Y-70903032D01*
X196686037Y-70894474D01*
X196630636Y-70851903D01*
X196607045Y-70786136D01*
X196622756Y-70718056D01*
X196672779Y-70669276D01*
X196678426Y-70666466D01*
X196877578Y-70573599D01*
X197071082Y-70438105D01*
X197238105Y-70271082D01*
X197373600Y-70077578D01*
X197473429Y-69863492D01*
X197473432Y-69863486D01*
X197530636Y-69650000D01*
X196633686Y-69650000D01*
X196659493Y-69609844D01*
X196700000Y-69471889D01*
X196700000Y-69328111D01*
X196659493Y-69190156D01*
X196633686Y-69150000D01*
X197530636Y-69150000D01*
X197530635Y-69149999D01*
X197473432Y-68936513D01*
X197473429Y-68936507D01*
X197373600Y-68722422D01*
X197373599Y-68722420D01*
X197238113Y-68528926D01*
X197238108Y-68528920D01*
X197071082Y-68361894D01*
X196891394Y-68236074D01*
X196847769Y-68181496D01*
X196840577Y-68111998D01*
X196872099Y-68049643D01*
X196932329Y-68014230D01*
X196962517Y-68010499D01*
X197094864Y-68010499D01*
X197094879Y-68010497D01*
X197094882Y-68010497D01*
X197119987Y-68007586D01*
X197119988Y-68007585D01*
X197119991Y-68007585D01*
X197222765Y-67962206D01*
X197302206Y-67882765D01*
X197347585Y-67779991D01*
X197350500Y-67754865D01*
X197350499Y-65965136D01*
X197350497Y-65965117D01*
X197347586Y-65940012D01*
X197347585Y-65940010D01*
X197347585Y-65940009D01*
X197302206Y-65837235D01*
X197222765Y-65757794D01*
X197222763Y-65757793D01*
X197119992Y-65712415D01*
X197094865Y-65709500D01*
X195305143Y-65709500D01*
X195305117Y-65709502D01*
X195280012Y-65712413D01*
X195280008Y-65712415D01*
X195177235Y-65757793D01*
X195097794Y-65837234D01*
X195052415Y-65940006D01*
X195052415Y-65940008D01*
X195049500Y-65965131D01*
X195049500Y-67754856D01*
X195049502Y-67754882D01*
X195052413Y-67779987D01*
X195052415Y-67779991D01*
X195097793Y-67882764D01*
X195097794Y-67882765D01*
X195177235Y-67962206D01*
X195280009Y-68007585D01*
X195305135Y-68010500D01*
X195437483Y-68010499D01*
X195504520Y-68030183D01*
X195550275Y-68082987D01*
X195560219Y-68152145D01*
X195531195Y-68215701D01*
X195508605Y-68236074D01*
X195328922Y-68361890D01*
X195328920Y-68361891D01*
X195161891Y-68528920D01*
X195161886Y-68528926D01*
X195026400Y-68722420D01*
X195026399Y-68722422D01*
X194926570Y-68936507D01*
X194926567Y-68936513D01*
X194869364Y-69149999D01*
X194869364Y-69150000D01*
X195766314Y-69150000D01*
X195740507Y-69190156D01*
X195700000Y-69328111D01*
X195700000Y-69471889D01*
X195740507Y-69609844D01*
X195766314Y-69650000D01*
X194869364Y-69650000D01*
X194926567Y-69863486D01*
X194926570Y-69863492D01*
X195026399Y-70077578D01*
X195161894Y-70271082D01*
X195328917Y-70438105D01*
X195522421Y-70573600D01*
X195721573Y-70666466D01*
X195774012Y-70712638D01*
X195793164Y-70779832D01*
X195772948Y-70846713D01*
X195719783Y-70892048D01*
X195713968Y-70894472D01*
X195706771Y-70897260D01*
X195684982Y-70905701D01*
X195684980Y-70905702D01*
X195503699Y-71017947D01*
X195346127Y-71161593D01*
X195217632Y-71331746D01*
X195122596Y-71522605D01*
X195122596Y-71522607D01*
X195064244Y-71727689D01*
X195044571Y-71939999D01*
X195044571Y-71940000D01*
X195064244Y-72152310D01*
X195122596Y-72357392D01*
X195122596Y-72357394D01*
X195217632Y-72548253D01*
X195217634Y-72548255D01*
X195346128Y-72718407D01*
X195503698Y-72862052D01*
X195684981Y-72974298D01*
X195713961Y-72985525D01*
X195769362Y-73028095D01*
X195792954Y-73093861D01*
X195777244Y-73161942D01*
X195727222Y-73210722D01*
X195721573Y-73213533D01*
X195522422Y-73306399D01*
X195522420Y-73306400D01*
X195328926Y-73441886D01*
X195328920Y-73441891D01*
X195161891Y-73608920D01*
X195161886Y-73608926D01*
X195026400Y-73802420D01*
X195026399Y-73802422D01*
X194926570Y-74016507D01*
X194926567Y-74016513D01*
X194869364Y-74229999D01*
X194869364Y-74230000D01*
X195766314Y-74230000D01*
X195740507Y-74270156D01*
X195700000Y-74408111D01*
X195700000Y-74551889D01*
X195740507Y-74689844D01*
X195766314Y-74730000D01*
X194869364Y-74730000D01*
X110138139Y-74730000D01*
X110124536Y-74697159D01*
X110028282Y-74571718D01*
X109902841Y-74475464D01*
X109756762Y-74414956D01*
X109756760Y-74414955D01*
X109600001Y-74394318D01*
X109599999Y-74394318D01*
X109443239Y-74414955D01*
X109443237Y-74414956D01*
X109297160Y-74475463D01*
X109171718Y-74571718D01*
X109075463Y-74697160D01*
X109014956Y-74843237D01*
X109014956Y-74843239D01*
X109007717Y-74898223D01*
X108979450Y-74962119D01*
X108921125Y-75000590D01*
X108851261Y-75001421D01*
X108809295Y-74980416D01*
X108802841Y-74975464D01*
X108656762Y-74914956D01*
X108656760Y-74914955D01*
X108500001Y-74894318D01*
X108499999Y-74894318D01*
X108343239Y-74914955D01*
X108343237Y-74914956D01*
X108197160Y-74975463D01*
X108071718Y-75071718D01*
X107975463Y-75197160D01*
X107914956Y-75343237D01*
X107914955Y-75343239D01*
X107894318Y-75499998D01*
X107894318Y-75500001D01*
X107577490Y-75500001D01*
X107524536Y-75372159D01*
X107428282Y-75246718D01*
X107302841Y-75150464D01*
X107156762Y-75089956D01*
X107156760Y-75089955D01*
X107000001Y-75069318D01*
X106999999Y-75069318D01*
X106843239Y-75089955D01*
X106843237Y-75089956D01*
X106697160Y-75150463D01*
X106571718Y-75246718D01*
X106475463Y-75372160D01*
X106414956Y-75518237D01*
X106414955Y-75518239D01*
X106394318Y-75674998D01*
X106394318Y-75675001D01*
X96981752Y-75675001D01*
X96983668Y-73950001D01*
X104494318Y-73950001D01*
X104514955Y-74106760D01*
X104514956Y-74106762D01*
X104566002Y-74229999D01*
X104575464Y-74252841D01*
X104671718Y-74378282D01*
X104797159Y-74474536D01*
X104943238Y-74535044D01*
X105021619Y-74545363D01*
X105099999Y-74555682D01*
X105100000Y-74555682D01*
X105100001Y-74555682D01*
X105152254Y-74548802D01*
X105256762Y-74535044D01*
X105402841Y-74474536D01*
X105528282Y-74378282D01*
X105624536Y-74252841D01*
X105685044Y-74106762D01*
X105700379Y-73990280D01*
X105705682Y-73950001D01*
X105705682Y-73949998D01*
X105685044Y-73793239D01*
X105685044Y-73793238D01*
X105636069Y-73675001D01*
X106444318Y-73675001D01*
X106464955Y-73831760D01*
X106464956Y-73831762D01*
X106525464Y-73977841D01*
X106621718Y-74103282D01*
X106747159Y-74199536D01*
X106893238Y-74260044D01*
X106970047Y-74270156D01*
X107049999Y-74280682D01*
X107050000Y-74280682D01*
X107050001Y-74280682D01*
X107129953Y-74270156D01*
X107206762Y-74260044D01*
X107352841Y-74199536D01*
X107478282Y-74103282D01*
X107564991Y-73990280D01*
X107621418Y-73949078D01*
X107691164Y-73944923D01*
X107752084Y-73979135D01*
X107761741Y-73990280D01*
X107771715Y-74003279D01*
X107771716Y-74003280D01*
X107771718Y-74003282D01*
X107897159Y-74099536D01*
X108043238Y-74160044D01*
X108121619Y-74170363D01*
X108199999Y-74180682D01*
X108200000Y-74180682D01*
X108200001Y-74180682D01*
X108252254Y-74173802D01*
X108356762Y-74160044D01*
X108502841Y-74099536D01*
X108628282Y-74003282D01*
X108724536Y-73877841D01*
X108785044Y-73731762D01*
X108805682Y-73575000D01*
X108785044Y-73418238D01*
X108724536Y-73272159D01*
X108628282Y-73146718D01*
X108502841Y-73050464D01*
X108356762Y-72989956D01*
X108356760Y-72989955D01*
X108200001Y-72969318D01*
X108199999Y-72969318D01*
X108043239Y-72989955D01*
X108043237Y-72989956D01*
X107897160Y-73050463D01*
X107897159Y-73050464D01*
X107771718Y-73146718D01*
X107771717Y-73146719D01*
X107771716Y-73146720D01*
X107685008Y-73259719D01*
X107628580Y-73300921D01*
X107558834Y-73305076D01*
X107497914Y-73270863D01*
X107488257Y-73259718D01*
X107478282Y-73246718D01*
X107352841Y-73150464D01*
X107343802Y-73146720D01*
X107206762Y-73089956D01*
X107206760Y-73089955D01*
X107050001Y-73069318D01*
X107049999Y-73069318D01*
X106893239Y-73089955D01*
X106893237Y-73089956D01*
X106747160Y-73150463D01*
X106621718Y-73246718D01*
X106525463Y-73372160D01*
X106464956Y-73518237D01*
X106464955Y-73518239D01*
X106444318Y-73674998D01*
X106444318Y-73675001D01*
X105636069Y-73675001D01*
X105624536Y-73647159D01*
X105528282Y-73521718D01*
X105402841Y-73425464D01*
X105385398Y-73418239D01*
X105256762Y-73364956D01*
X105256760Y-73364955D01*
X105100001Y-73344318D01*
X105099999Y-73344318D01*
X104943239Y-73364955D01*
X104943237Y-73364956D01*
X104797160Y-73425463D01*
X104671718Y-73521718D01*
X104575463Y-73647160D01*
X104514956Y-73793237D01*
X104514955Y-73793239D01*
X104494318Y-73949998D01*
X104494318Y-73950001D01*
X96983668Y-73950001D01*
X96988695Y-69425001D01*
X155319318Y-69425001D01*
X155339955Y-69581760D01*
X155339956Y-69581762D01*
X155400464Y-69727841D01*
X155496718Y-69853282D01*
X155622159Y-69949536D01*
X155768238Y-70010044D01*
X155846619Y-70020363D01*
X155924999Y-70030682D01*
X155925000Y-70030682D01*
X155925001Y-70030682D01*
X155977254Y-70023802D01*
X156081762Y-70010044D01*
X156227841Y-69949536D01*
X156353282Y-69853282D01*
X156449536Y-69727841D01*
X156510044Y-69581762D01*
X156530682Y-69425000D01*
X156510044Y-69268238D01*
X156449536Y-69122159D01*
X156353282Y-68996718D01*
X156227841Y-68900464D01*
X156081762Y-68839956D01*
X156081760Y-68839955D01*
X155925001Y-68819318D01*
X155924999Y-68819318D01*
X155768239Y-68839955D01*
X155768237Y-68839956D01*
X155622160Y-68900463D01*
X155496718Y-68996718D01*
X155400463Y-69122160D01*
X155339956Y-69268237D01*
X155339955Y-69268239D01*
X155319318Y-69424998D01*
X155319318Y-69425001D01*
X96988695Y-69425001D01*
X96990639Y-67675001D01*
X148819318Y-67675001D01*
X148839955Y-67831760D01*
X148839956Y-67831762D01*
X148900464Y-67977841D01*
X148996718Y-68103282D01*
X149122159Y-68199536D01*
X149268238Y-68260044D01*
X149346619Y-68270363D01*
X149424999Y-68280682D01*
X149425000Y-68280682D01*
X149425001Y-68280682D01*
X149477254Y-68273802D01*
X149581762Y-68260044D01*
X149727841Y-68199536D01*
X149853282Y-68103282D01*
X149949536Y-67977841D01*
X150010044Y-67831762D01*
X150024099Y-67725001D01*
X150669318Y-67725001D01*
X150689955Y-67881760D01*
X150689956Y-67881762D01*
X150750464Y-68027841D01*
X150846718Y-68153282D01*
X150972159Y-68249536D01*
X151118238Y-68310044D01*
X151196619Y-68320363D01*
X151274999Y-68330682D01*
X151275000Y-68330682D01*
X151275001Y-68330682D01*
X151327254Y-68323802D01*
X151431762Y-68310044D01*
X151577841Y-68249536D01*
X151703282Y-68153282D01*
X151799536Y-68027841D01*
X151860044Y-67881762D01*
X151864225Y-67850001D01*
X152469318Y-67850001D01*
X152489955Y-68006760D01*
X152489956Y-68006762D01*
X152529935Y-68103281D01*
X152550464Y-68152841D01*
X152646718Y-68278282D01*
X152772159Y-68374536D01*
X152918238Y-68435044D01*
X152996619Y-68445363D01*
X153074999Y-68455682D01*
X153075000Y-68455682D01*
X153075001Y-68455682D01*
X153127254Y-68448802D01*
X153231762Y-68435044D01*
X153377841Y-68374536D01*
X153503282Y-68278282D01*
X153599536Y-68152841D01*
X153660044Y-68006762D01*
X153676369Y-67882764D01*
X153680682Y-67850001D01*
X153680682Y-67849998D01*
X153664226Y-67725001D01*
X153660044Y-67693238D01*
X153631779Y-67625001D01*
X154144318Y-67625001D01*
X154164955Y-67781760D01*
X154164956Y-67781762D01*
X154206376Y-67881760D01*
X154225464Y-67927841D01*
X154321718Y-68053282D01*
X154447159Y-68149536D01*
X154593238Y-68210044D01*
X154671619Y-68220363D01*
X154749999Y-68230682D01*
X154750000Y-68230682D01*
X154750001Y-68230682D01*
X154802254Y-68223802D01*
X154906762Y-68210044D01*
X155052841Y-68149536D01*
X155178282Y-68053282D01*
X155274536Y-67927841D01*
X155335044Y-67781762D01*
X155355682Y-67625000D01*
X155335044Y-67468238D01*
X155274536Y-67322159D01*
X155178282Y-67196718D01*
X155052841Y-67100464D01*
X155027472Y-67089956D01*
X154906762Y-67039956D01*
X154906760Y-67039955D01*
X154750001Y-67019318D01*
X154749999Y-67019318D01*
X154593239Y-67039955D01*
X154593237Y-67039956D01*
X154447160Y-67100463D01*
X154321718Y-67196718D01*
X154225463Y-67322160D01*
X154164956Y-67468237D01*
X154164955Y-67468239D01*
X154144318Y-67624998D01*
X154144318Y-67625001D01*
X153631779Y-67625001D01*
X153599536Y-67547159D01*
X153503282Y-67421718D01*
X153377841Y-67325464D01*
X153369864Y-67322160D01*
X153231762Y-67264956D01*
X153231760Y-67264955D01*
X153075001Y-67244318D01*
X153074999Y-67244318D01*
X152918239Y-67264955D01*
X152918237Y-67264956D01*
X152772160Y-67325463D01*
X152646718Y-67421718D01*
X152550463Y-67547160D01*
X152489956Y-67693237D01*
X152489955Y-67693239D01*
X152469318Y-67849998D01*
X152469318Y-67850001D01*
X151864225Y-67850001D01*
X151880682Y-67725000D01*
X151876500Y-67693238D01*
X151860044Y-67568239D01*
X151860044Y-67568238D01*
X151799536Y-67422159D01*
X151703282Y-67296718D01*
X151577841Y-67200464D01*
X151568797Y-67196718D01*
X151431762Y-67139956D01*
X151431760Y-67139955D01*
X151275001Y-67119318D01*
X151274999Y-67119318D01*
X151118239Y-67139955D01*
X151118237Y-67139956D01*
X150972160Y-67200463D01*
X150846718Y-67296718D01*
X150750463Y-67422160D01*
X150689956Y-67568237D01*
X150689955Y-67568239D01*
X150669318Y-67724998D01*
X150669318Y-67725001D01*
X150024099Y-67725001D01*
X150030682Y-67675000D01*
X150024099Y-67625000D01*
X150013852Y-67547160D01*
X150010044Y-67518238D01*
X149949536Y-67372159D01*
X149853282Y-67246718D01*
X149727841Y-67150464D01*
X149702472Y-67139956D01*
X149581762Y-67089956D01*
X149581760Y-67089955D01*
X149425001Y-67069318D01*
X149424999Y-67069318D01*
X149268239Y-67089955D01*
X149268237Y-67089956D01*
X149122160Y-67150463D01*
X148996718Y-67246718D01*
X148900463Y-67372160D01*
X148839956Y-67518237D01*
X148839955Y-67518239D01*
X148819318Y-67674998D01*
X148819318Y-67675001D01*
X96990639Y-67675001D01*
X96994111Y-64550001D01*
X119494318Y-64550001D01*
X119514955Y-64706760D01*
X119514956Y-64706762D01*
X119575464Y-64852841D01*
X119671718Y-64978282D01*
X119797159Y-65074536D01*
X119943238Y-65135044D01*
X120021619Y-65145363D01*
X120099999Y-65155682D01*
X120100000Y-65155682D01*
X120100001Y-65155682D01*
X120152254Y-65148802D01*
X120256762Y-65135044D01*
X120402841Y-65074536D01*
X120528282Y-64978282D01*
X120624536Y-64852841D01*
X120685044Y-64706762D01*
X120705682Y-64550000D01*
X120685044Y-64393238D01*
X120624536Y-64247159D01*
X120528282Y-64121718D01*
X120402841Y-64025464D01*
X120256762Y-63964956D01*
X120256760Y-63964955D01*
X120100001Y-63944318D01*
X120099999Y-63944318D01*
X119943239Y-63964955D01*
X119943237Y-63964956D01*
X119797160Y-64025463D01*
X119671718Y-64121718D01*
X119575463Y-64247160D01*
X119514956Y-64393237D01*
X119514955Y-64393239D01*
X119494318Y-64549998D01*
X119494318Y-64550001D01*
X96994111Y-64550001D01*
X96995861Y-62975001D01*
X115619318Y-62975001D01*
X115639955Y-63131760D01*
X115639956Y-63131762D01*
X115700464Y-63277841D01*
X115796718Y-63403282D01*
X115922159Y-63499536D01*
X116068238Y-63560044D01*
X116146619Y-63570363D01*
X116224999Y-63580682D01*
X116225000Y-63580682D01*
X116225001Y-63580682D01*
X116277254Y-63573802D01*
X116381762Y-63560044D01*
X116527841Y-63499536D01*
X116653282Y-63403282D01*
X116749536Y-63277841D01*
X116810044Y-63131762D01*
X116830682Y-62975000D01*
X116810044Y-62818238D01*
X116749536Y-62672159D01*
X116653282Y-62546718D01*
X116527841Y-62450464D01*
X116381762Y-62389956D01*
X116381760Y-62389955D01*
X116225001Y-62369318D01*
X116224999Y-62369318D01*
X116068239Y-62389955D01*
X116068237Y-62389956D01*
X115922160Y-62450463D01*
X115796718Y-62546718D01*
X115700463Y-62672160D01*
X115639956Y-62818237D01*
X115639955Y-62818239D01*
X115619318Y-62974998D01*
X115619318Y-62975001D01*
X96995861Y-62975001D01*
X96999806Y-59424360D01*
X97019565Y-59357345D01*
X97072420Y-59311648D01*
X97123806Y-59300500D01*
X121816669Y-59300500D01*
X121883708Y-59320185D01*
G37*
G04 #@! TD.AperFunction*
M02*
