G04 #@! TF.GenerationSoftware,KiCad,Pcbnew,7.0.11+dfsg-1build4*
G04 #@! TF.CreationDate,2026-08-02T21:33:25-04:00*
G04 #@! TF.ProjectId,radar2,72616461-7232-42e6-9b69-6361645f7063,rev?*
G04 #@! TF.SameCoordinates,Original*
G04 #@! TF.FileFunction,Copper,L3,Inr*
G04 #@! TF.FilePolarity,Positive*
%FSLAX46Y46*%
G04 Gerber Fmt 4.6, Leading zero omitted, Abs format (unit mm)*
G04 Created by KiCad (PCBNEW 7.0.11+dfsg-1build4) date 2026-08-02 21:33:25*
%MOMM*%
%LPD*%
G01*
G04 APERTURE LIST*
G04 Aperture macros list*
%AMRoundRect*
0 Rectangle with rounded corners*
0 $1 Rounding radius*
0 $2 $3 $4 $5 $6 $7 $8 $9 X,Y pos of 4 corners*
0 Add a 4 corners polygon primitive as box body*
4,1,4,$2,$3,$4,$5,$6,$7,$8,$9,$2,$3,0*
0 Add four circle primitives for the rounded corners*
1,1,$1+$1,$2,$3*
1,1,$1+$1,$4,$5*
1,1,$1+$1,$6,$7*
1,1,$1+$1,$8,$9*
0 Add four rect primitives between the rounded corners*
20,1,$1+$1,$2,$3,$4,$5,0*
20,1,$1+$1,$4,$5,$6,$7,0*
20,1,$1+$1,$6,$7,$8,$9,0*
20,1,$1+$1,$8,$9,$2,$3,0*%
G04 Aperture macros list end*
G04 #@! TA.AperFunction,ComponentPad*
%ADD10RoundRect,0.250000X-0.750000X0.600000X-0.750000X-0.600000X0.750000X-0.600000X0.750000X0.600000X0*%
G04 #@! TD*
G04 #@! TA.AperFunction,ComponentPad*
%ADD11O,2.000000X1.700000*%
G04 #@! TD*
G04 #@! TA.AperFunction,ComponentPad*
%ADD12R,2.300000X2.300000*%
G04 #@! TD*
G04 #@! TA.AperFunction,ComponentPad*
%ADD13C,2.500000*%
G04 #@! TD*
G04 #@! TA.AperFunction,ComponentPad*
%ADD14R,1.700000X1.700000*%
G04 #@! TD*
G04 #@! TA.AperFunction,ComponentPad*
%ADD15O,1.700000X1.700000*%
G04 #@! TD*
G04 #@! TA.AperFunction,ComponentPad*
%ADD16C,1.300000*%
G04 #@! TD*
G04 #@! TA.AperFunction,ComponentPad*
%ADD17C,1.875000*%
G04 #@! TD*
G04 #@! TA.AperFunction,ComponentPad*
%ADD18C,2.430000*%
G04 #@! TD*
G04 #@! TA.AperFunction,ViaPad*
%ADD19C,0.600000*%
G04 #@! TD*
G04 APERTURE END LIST*
D10*
X196325000Y-100450000D03*
D11*
X196325000Y-102950000D03*
D12*
X116050000Y-117050000D03*
D13*
X118600000Y-119600000D03*
X118600000Y-114500000D03*
X113500000Y-114500000D03*
X113500000Y-119600000D03*
D14*
X132580000Y-110800000D03*
D15*
X135120000Y-110800000D03*
X137660000Y-110800000D03*
X140200000Y-110800000D03*
X142740000Y-110800000D03*
X145280000Y-110800000D03*
D14*
X196200000Y-66860000D03*
D15*
X196200000Y-69400000D03*
X196200000Y-71940000D03*
X196200000Y-74480000D03*
D16*
X124760000Y-60425000D03*
X127300000Y-60425000D03*
X122220000Y-60425000D03*
D17*
X161905000Y-108400000D03*
D18*
X161905000Y-112400000D03*
X173145000Y-112400000D03*
D17*
X173145000Y-108400000D03*
D14*
X143780000Y-100000000D03*
D15*
X141240000Y-100000000D03*
X138700000Y-100000000D03*
X136160000Y-100000000D03*
X133620000Y-100000000D03*
D12*
X116100000Y-108100000D03*
D13*
X113550000Y-110650000D03*
X118650000Y-110650000D03*
X118650000Y-105550000D03*
X113550000Y-105550000D03*
D19*
X156000000Y-95550000D03*
X168950000Y-91150000D03*
X181050000Y-98300000D03*
X180400000Y-97600000D03*
X133950000Y-63100000D03*
X171850000Y-70050000D03*
X122400000Y-106400000D03*
X112800000Y-91000000D03*
X118250000Y-94400000D03*
X117450000Y-96050000D03*
X112700000Y-97100000D03*
X105250000Y-72850000D03*
X171150000Y-105700000D03*
X174200000Y-106200000D03*
X172800000Y-105600000D03*
X175400000Y-105650000D03*
X174150000Y-107100000D03*
X172050000Y-107000000D03*
X162050000Y-106050000D03*
X163200000Y-107550000D03*
X160650000Y-106400000D03*
X163450000Y-105650000D03*
X159850000Y-105550000D03*
X101250000Y-111450000D03*
X100350000Y-112300000D03*
X101600000Y-112250000D03*
X100150000Y-111550000D03*
X108450000Y-106450000D03*
X107300000Y-106250000D03*
X109800000Y-108500000D03*
X109200000Y-109650000D03*
X108900000Y-108700000D03*
X107750000Y-108950000D03*
X107900000Y-112150000D03*
X106950000Y-112200000D03*
X107050000Y-111350000D03*
X107850000Y-111100000D03*
X113500000Y-69550000D03*
X118250000Y-69150000D03*
X108250000Y-69000000D03*
X123800000Y-61700000D03*
X131150000Y-70850000D03*
X110100000Y-100600000D03*
X97254394Y-99850060D03*
X109800000Y-103550000D03*
X108800000Y-101300000D03*
X101550000Y-103350000D03*
X105750000Y-99750000D03*
X105050000Y-100200000D03*
X106450000Y-100250000D03*
X105550000Y-101000000D03*
X104750000Y-101000000D03*
X100900000Y-100450000D03*
X106350000Y-101000000D03*
X113550000Y-102250000D03*
X195850000Y-104450000D03*
X197600000Y-70000000D03*
X197450000Y-75250000D03*
X151350000Y-72100000D03*
X170750000Y-88150000D03*
X165900000Y-97750000D03*
X165950000Y-96850000D03*
X164400000Y-95850000D03*
X168400000Y-99150000D03*
X167800000Y-98400000D03*
X169350000Y-98800000D03*
X174850000Y-98950000D03*
X175000000Y-99850000D03*
X177700000Y-98850000D03*
X178250000Y-97950000D03*
X178250000Y-96100000D03*
X141375000Y-113700000D03*
X139425000Y-97775000D03*
X191350000Y-90475000D03*
X190150000Y-90425000D03*
X189050000Y-90400000D03*
X187950000Y-90400000D03*
X186800000Y-90350000D03*
X185400000Y-90425000D03*
X184325000Y-82500000D03*
X184300000Y-83625000D03*
X184325000Y-84500000D03*
X157000000Y-85950000D03*
X156975000Y-84675000D03*
X156850000Y-83850000D03*
X185625000Y-86125000D03*
X149425000Y-67675000D03*
X155925000Y-69425000D03*
X154750000Y-67625000D03*
X153075000Y-67850000D03*
X151275000Y-67725000D03*
X189150000Y-86525000D03*
X188175000Y-86350000D03*
X187125000Y-86300000D03*
X190225000Y-86575000D03*
X191350000Y-86475000D03*
X146275000Y-93900000D03*
X145400000Y-92850000D03*
X139150000Y-92100000D03*
X137600000Y-90750000D03*
X138800000Y-90850000D03*
X139975000Y-90925000D03*
X141150000Y-91000000D03*
X142650000Y-90950000D03*
X143750000Y-90975000D03*
X147125000Y-94875000D03*
X154175000Y-95600000D03*
X150475000Y-96350000D03*
X156625000Y-92675000D03*
X120875000Y-90600000D03*
X112775000Y-78850000D03*
X105100000Y-73950000D03*
X113150000Y-75800000D03*
X107000000Y-75675000D03*
X121250000Y-75700000D03*
X117475000Y-78450000D03*
X121975000Y-76675000D03*
X120100000Y-64550000D03*
X116225000Y-62975000D03*
X107900000Y-99825000D03*
X111100000Y-99300000D03*
X166100000Y-90600000D03*
X146150000Y-91275000D03*
X168625000Y-94900000D03*
X178450000Y-91925000D03*
X173000000Y-89000000D03*
X163925000Y-91600000D03*
X187025000Y-95575000D03*
X176000000Y-92600000D03*
X186475000Y-104100000D03*
X175150000Y-93850000D03*
X167700000Y-95300000D03*
X168050000Y-93825000D03*
X155925000Y-87575000D03*
X108200000Y-73575000D03*
X164350000Y-100450000D03*
X107050000Y-73675000D03*
X168400000Y-101400000D03*
X108500000Y-75500000D03*
X170050000Y-101775000D03*
X109600000Y-75000000D03*
X154500000Y-94100000D03*
X166400000Y-91400000D03*
X151100000Y-94800000D03*
X167200000Y-92200000D03*
X164600000Y-87900000D03*
X168900000Y-88200000D03*
X181500000Y-84900000D03*
X106000000Y-90400000D03*
X129625000Y-104925000D03*
X127025000Y-104625000D03*
X104900000Y-94100000D03*
X137400000Y-103600000D03*
X124400000Y-93400000D03*
X132300000Y-94400000D03*
X129400000Y-85800000D03*
X132500000Y-84900000D03*
X119100000Y-85900000D03*
X150500000Y-72350000D03*
X149550000Y-72350000D03*
X148650000Y-72300000D03*
X174800000Y-74900000D03*
X174750000Y-66575000D03*
X177000000Y-66662500D03*
X107100000Y-90600000D03*
X99900000Y-74000000D03*
X127400000Y-74500000D03*
X126900000Y-83100000D03*
X127000000Y-86500000D03*
X128400000Y-75300000D03*
X142300000Y-74000000D03*
X132000000Y-73700000D03*
X99400000Y-78800000D03*
X105400000Y-79950000D03*
X104700000Y-80700000D03*
X104850000Y-82050000D03*
X104000000Y-82700000D03*
X99200000Y-81400000D03*
X99100000Y-89100000D03*
X98000000Y-90400000D03*
X103800000Y-68600000D03*
X99300000Y-83800000D03*
X172500000Y-94350000D03*
X171500000Y-94400000D03*
X170450000Y-94400000D03*
X172500000Y-93450000D03*
X171500000Y-93400000D03*
X170450000Y-93500000D03*
X172500000Y-92500000D03*
X171500000Y-92500000D03*
X170400000Y-92500000D03*
X178300000Y-89500000D03*
X174250000Y-91200000D03*
X173400000Y-89800000D03*
X170300000Y-89200000D03*
X157900000Y-87500000D03*
X169400000Y-89800000D03*
X160400000Y-88500000D03*
X98100000Y-107000000D03*
X109100000Y-95800000D03*
X98000000Y-103100000D03*
X108000000Y-96100000D03*
X111500000Y-96300000D03*
X99400000Y-105800000D03*
X102900000Y-112600000D03*
X108150000Y-100550000D03*
X105400000Y-96100000D03*
X97800000Y-108900000D03*
X109800000Y-96100000D03*
X98900000Y-107400000D03*
X112300000Y-95800000D03*
X99300000Y-104700000D03*
G04 #@! TA.AperFunction,Conductor*
G36*
X155733927Y-66545761D02*
G01*
X155781041Y-66597356D01*
X155792083Y-66632286D01*
X155833494Y-66892345D01*
X156400000Y-70450000D01*
X158115112Y-70496989D01*
X158181586Y-70518502D01*
X158225878Y-70572539D01*
X158235182Y-70609457D01*
X158313134Y-71447442D01*
X158299743Y-71516016D01*
X158251404Y-71566465D01*
X158197123Y-71582703D01*
X156339193Y-71694626D01*
X156271092Y-71679008D01*
X156222244Y-71629051D01*
X156216680Y-71617088D01*
X156196336Y-71566465D01*
X155175000Y-69025000D01*
X155124999Y-69024698D01*
X146874999Y-68974999D01*
X146999531Y-70793161D01*
X146999711Y-70806850D01*
X146700000Y-77924999D01*
X146700000Y-77925000D01*
X161050000Y-77500000D01*
X175590906Y-76500625D01*
X175609087Y-76500711D01*
X193041814Y-77866523D01*
X193107110Y-77891384D01*
X193148600Y-77947600D01*
X193155941Y-77983355D01*
X193667315Y-87309847D01*
X193651330Y-87377864D01*
X193601110Y-87426441D01*
X193534970Y-87440342D01*
X192950002Y-87400000D01*
X192950001Y-87400000D01*
X192950000Y-87400000D01*
X190826225Y-87629095D01*
X184512299Y-88310189D01*
X184443535Y-88297808D01*
X184392381Y-88250215D01*
X184375000Y-88186904D01*
X184375000Y-85410744D01*
X184394685Y-85343705D01*
X184447489Y-85297950D01*
X184485117Y-85287524D01*
X184504255Y-85285368D01*
X184524890Y-85278147D01*
X184563346Y-85271214D01*
X189350000Y-85175000D01*
X190000000Y-79525000D01*
X189999999Y-79524999D01*
X163650002Y-78725000D01*
X163650000Y-78725000D01*
X160818705Y-78764709D01*
X145954399Y-78973185D01*
X145887090Y-78954442D01*
X145840599Y-78902285D01*
X145828711Y-78845641D01*
X145853449Y-77983355D01*
X146171633Y-66892343D01*
X146193232Y-66825898D01*
X146247326Y-66781676D01*
X146292349Y-66771944D01*
X155666398Y-66527828D01*
X155733927Y-66545761D01*
G37*
G04 #@! TD.AperFunction*
M02*
