G04 #@! TF.GenerationSoftware,KiCad,Pcbnew,7.0.11+dfsg-1build4*
G04 #@! TF.CreationDate,2026-08-02T22:20:57-04:00*
G04 #@! TF.ProjectId,radar2,72616461-7232-42e6-9b69-6361645f7063,rev?*
G04 #@! TF.SameCoordinates,Original*
G04 #@! TF.FileFunction,Legend,Top*
G04 #@! TF.FilePolarity,Positive*
%FSLAX46Y46*%
G04 Gerber Fmt 4.6, Leading zero omitted, Abs format (unit mm)*
G04 Created by KiCad (PCBNEW 7.0.11+dfsg-1build4) date 2026-08-02 22:20:57*
%MOMM*%
%LPD*%
G01*
G04 APERTURE LIST*
G04 Aperture macros list*
%AMRoundRect*
0 Rectangle with rounded corners*
0 $1 Rounding radius*
0 $2 $3 $4 $5 $6 $7 $8 $9 X,Y pos of 4 corners*
0 Add a 4 corners polygon primitive as box body*
4,1,4,$2,$3,$4,$5,$6,$7,$8,$9,$2,$3,0*
0 Add four circle primitives for the rounded corners*
1,1,$1+$1,$2,$3*
1,1,$1+$1,$4,$5*
1,1,$1+$1,$6,$7*
1,1,$1+$1,$8,$9*
0 Add four rect primitives between the rounded corners*
20,1,$1+$1,$2,$3,$4,$5,0*
20,1,$1+$1,$4,$5,$6,$7,0*
20,1,$1+$1,$6,$7,$8,$9,0*
20,1,$1+$1,$8,$9,$2,$3,0*%
G04 Aperture macros list end*
%ADD10C,0.152400*%
%ADD11C,0.254000*%
%ADD12C,0.150000*%
%ADD13C,0.200000*%
%ADD14C,0.100000*%
%ADD15C,0.120000*%
%ADD16C,0.400000*%
%ADD17R,1.400000X1.900000*%
%ADD18RoundRect,0.250000X0.475000X-0.250000X0.475000X0.250000X-0.475000X0.250000X-0.475000X-0.250000X0*%
%ADD19RoundRect,0.225000X0.250000X-0.225000X0.250000X0.225000X-0.250000X0.225000X-0.250000X-0.225000X0*%
%ADD20RoundRect,0.200000X-0.200000X-0.275000X0.200000X-0.275000X0.200000X0.275000X-0.200000X0.275000X0*%
%ADD21R,2.850000X5.400000*%
%ADD22RoundRect,0.225000X0.225000X0.250000X-0.225000X0.250000X-0.225000X-0.250000X0.225000X-0.250000X0*%
%ADD23RoundRect,0.140000X-0.170000X0.140000X-0.170000X-0.140000X0.170000X-0.140000X0.170000X0.140000X0*%
%ADD24RoundRect,0.200000X0.200000X0.275000X-0.200000X0.275000X-0.200000X-0.275000X0.200000X-0.275000X0*%
%ADD25R,0.630000X0.500000*%
%ADD26R,0.410000X0.500000*%
%ADD27R,1.900000X2.450000*%
%ADD28R,1.000000X0.600000*%
%ADD29RoundRect,0.140000X-0.140000X-0.170000X0.140000X-0.170000X0.140000X0.170000X-0.140000X0.170000X0*%
%ADD30RoundRect,0.200000X0.275000X-0.200000X0.275000X0.200000X-0.275000X0.200000X-0.275000X-0.200000X0*%
%ADD31C,1.200000*%
%ADD32RoundRect,0.250000X-0.750000X0.600000X-0.750000X-0.600000X0.750000X-0.600000X0.750000X0.600000X0*%
%ADD33O,2.000000X1.700000*%
%ADD34RoundRect,0.140000X0.140000X0.170000X-0.140000X0.170000X-0.140000X-0.170000X0.140000X-0.170000X0*%
%ADD35RoundRect,0.135000X0.135000X0.185000X-0.135000X0.185000X-0.135000X-0.185000X0.135000X-0.185000X0*%
%ADD36R,0.600000X1.200000*%
%ADD37R,2.300000X2.300000*%
%ADD38C,2.500000*%
%ADD39RoundRect,0.140000X0.170000X-0.140000X0.170000X0.140000X-0.170000X0.140000X-0.170000X-0.140000X0*%
%ADD40RoundRect,0.135000X-0.135000X-0.185000X0.135000X-0.185000X0.135000X0.185000X-0.135000X0.185000X0*%
%ADD41RoundRect,0.200000X-0.275000X0.200000X-0.275000X-0.200000X0.275000X-0.200000X0.275000X0.200000X0*%
%ADD42R,1.700000X1.700000*%
%ADD43O,1.700000X1.700000*%
%ADD44RoundRect,0.225000X-0.225000X-0.250000X0.225000X-0.250000X0.225000X0.250000X-0.225000X0.250000X0*%
%ADD45RoundRect,0.135000X-0.185000X0.135000X-0.185000X-0.135000X0.185000X-0.135000X0.185000X0.135000X0*%
%ADD46RoundRect,0.075000X-0.662500X-0.075000X0.662500X-0.075000X0.662500X0.075000X-0.662500X0.075000X0*%
%ADD47RoundRect,0.075000X-0.075000X-0.662500X0.075000X-0.662500X0.075000X0.662500X-0.075000X0.662500X0*%
%ADD48R,0.200000X0.950000*%
%ADD49R,0.200000X0.850000*%
%ADD50R,0.850000X0.200000*%
%ADD51R,0.900000X0.800000*%
%ADD52RoundRect,0.225000X-0.250000X0.225000X-0.250000X-0.225000X0.250000X-0.225000X0.250000X0.225000X0*%
%ADD53C,1.300000*%
%ADD54R,0.600000X1.100000*%
%ADD55R,0.300000X1.100000*%
%ADD56C,1.875000*%
%ADD57C,2.430000*%
%ADD58RoundRect,0.135000X0.185000X-0.135000X0.185000X0.135000X-0.185000X0.135000X-0.185000X-0.135000X0*%
%ADD59R,0.500000X0.630000*%
%ADD60R,0.500000X0.410000*%
%ADD61R,2.450000X1.900000*%
%ADD62R,0.750000X0.200000*%
%ADD63R,0.200000X0.750000*%
%ADD64R,2.900000X2.900000*%
%ADD65R,1.525000X0.650000*%
%ADD66R,2.400000X3.100000*%
%ADD67R,1.400000X1.390000*%
%ADD68R,4.860000X3.360000*%
G04 APERTURE END LIST*
D10*
X190093786Y-105832965D02*
X190713063Y-105832965D01*
X190143786Y-95932965D02*
X190763063Y-95932965D01*
X190453424Y-96242603D02*
X190453424Y-95623327D01*
X134142603Y-97906213D02*
X133329803Y-97906213D01*
X133329803Y-97906213D02*
X134142603Y-97441756D01*
X134142603Y-97441756D02*
X133329803Y-97441756D01*
X134142603Y-96590251D02*
X133755556Y-96861184D01*
X134142603Y-97054708D02*
X133329803Y-97054708D01*
X133329803Y-97054708D02*
X133329803Y-96745070D01*
X133329803Y-96745070D02*
X133368508Y-96667660D01*
X133368508Y-96667660D02*
X133407213Y-96628955D01*
X133407213Y-96628955D02*
X133484622Y-96590251D01*
X133484622Y-96590251D02*
X133600737Y-96590251D01*
X133600737Y-96590251D02*
X133678146Y-96628955D01*
X133678146Y-96628955D02*
X133716851Y-96667660D01*
X133716851Y-96667660D02*
X133755556Y-96745070D01*
X133755556Y-96745070D02*
X133755556Y-97054708D01*
X134103899Y-96280612D02*
X134142603Y-96164498D01*
X134142603Y-96164498D02*
X134142603Y-95970974D01*
X134142603Y-95970974D02*
X134103899Y-95893565D01*
X134103899Y-95893565D02*
X134065194Y-95854860D01*
X134065194Y-95854860D02*
X133987784Y-95816155D01*
X133987784Y-95816155D02*
X133910375Y-95816155D01*
X133910375Y-95816155D02*
X133832965Y-95854860D01*
X133832965Y-95854860D02*
X133794260Y-95893565D01*
X133794260Y-95893565D02*
X133755556Y-95970974D01*
X133755556Y-95970974D02*
X133716851Y-96125793D01*
X133716851Y-96125793D02*
X133678146Y-96203203D01*
X133678146Y-96203203D02*
X133639441Y-96241908D01*
X133639441Y-96241908D02*
X133562032Y-96280612D01*
X133562032Y-96280612D02*
X133484622Y-96280612D01*
X133484622Y-96280612D02*
X133407213Y-96241908D01*
X133407213Y-96241908D02*
X133368508Y-96203203D01*
X133368508Y-96203203D02*
X133329803Y-96125793D01*
X133329803Y-96125793D02*
X133329803Y-95932270D01*
X133329803Y-95932270D02*
X133368508Y-95816155D01*
X133329803Y-95583927D02*
X133329803Y-95119470D01*
X134142603Y-95351698D02*
X133329803Y-95351698D01*
X141503899Y-97844917D02*
X141542603Y-97728803D01*
X141542603Y-97728803D02*
X141542603Y-97535279D01*
X141542603Y-97535279D02*
X141503899Y-97457870D01*
X141503899Y-97457870D02*
X141465194Y-97419165D01*
X141465194Y-97419165D02*
X141387784Y-97380460D01*
X141387784Y-97380460D02*
X141310375Y-97380460D01*
X141310375Y-97380460D02*
X141232965Y-97419165D01*
X141232965Y-97419165D02*
X141194260Y-97457870D01*
X141194260Y-97457870D02*
X141155556Y-97535279D01*
X141155556Y-97535279D02*
X141116851Y-97690098D01*
X141116851Y-97690098D02*
X141078146Y-97767508D01*
X141078146Y-97767508D02*
X141039441Y-97806213D01*
X141039441Y-97806213D02*
X140962032Y-97844917D01*
X140962032Y-97844917D02*
X140884622Y-97844917D01*
X140884622Y-97844917D02*
X140807213Y-97806213D01*
X140807213Y-97806213D02*
X140768508Y-97767508D01*
X140768508Y-97767508D02*
X140729803Y-97690098D01*
X140729803Y-97690098D02*
X140729803Y-97496575D01*
X140729803Y-97496575D02*
X140768508Y-97380460D01*
X140729803Y-97109527D02*
X141542603Y-96916003D01*
X141542603Y-96916003D02*
X140962032Y-96761184D01*
X140962032Y-96761184D02*
X141542603Y-96606365D01*
X141542603Y-96606365D02*
X140729803Y-96412842D01*
X141465194Y-95638747D02*
X141503899Y-95677451D01*
X141503899Y-95677451D02*
X141542603Y-95793566D01*
X141542603Y-95793566D02*
X141542603Y-95870975D01*
X141542603Y-95870975D02*
X141503899Y-95987089D01*
X141503899Y-95987089D02*
X141426489Y-96064499D01*
X141426489Y-96064499D02*
X141349079Y-96103204D01*
X141349079Y-96103204D02*
X141194260Y-96141908D01*
X141194260Y-96141908D02*
X141078146Y-96141908D01*
X141078146Y-96141908D02*
X140923327Y-96103204D01*
X140923327Y-96103204D02*
X140845918Y-96064499D01*
X140845918Y-96064499D02*
X140768508Y-95987089D01*
X140768508Y-95987089D02*
X140729803Y-95870975D01*
X140729803Y-95870975D02*
X140729803Y-95793566D01*
X140729803Y-95793566D02*
X140768508Y-95677451D01*
X140768508Y-95677451D02*
X140807213Y-95638747D01*
X141542603Y-94903356D02*
X141542603Y-95290404D01*
X141542603Y-95290404D02*
X140729803Y-95290404D01*
X141542603Y-94632423D02*
X140729803Y-94632423D01*
X141542603Y-94167966D02*
X141078146Y-94516308D01*
X140729803Y-94167966D02*
X141194260Y-94632423D01*
X136403899Y-97944917D02*
X136442603Y-97828803D01*
X136442603Y-97828803D02*
X136442603Y-97635279D01*
X136442603Y-97635279D02*
X136403899Y-97557870D01*
X136403899Y-97557870D02*
X136365194Y-97519165D01*
X136365194Y-97519165D02*
X136287784Y-97480460D01*
X136287784Y-97480460D02*
X136210375Y-97480460D01*
X136210375Y-97480460D02*
X136132965Y-97519165D01*
X136132965Y-97519165D02*
X136094260Y-97557870D01*
X136094260Y-97557870D02*
X136055556Y-97635279D01*
X136055556Y-97635279D02*
X136016851Y-97790098D01*
X136016851Y-97790098D02*
X135978146Y-97867508D01*
X135978146Y-97867508D02*
X135939441Y-97906213D01*
X135939441Y-97906213D02*
X135862032Y-97944917D01*
X135862032Y-97944917D02*
X135784622Y-97944917D01*
X135784622Y-97944917D02*
X135707213Y-97906213D01*
X135707213Y-97906213D02*
X135668508Y-97867508D01*
X135668508Y-97867508D02*
X135629803Y-97790098D01*
X135629803Y-97790098D02*
X135629803Y-97596575D01*
X135629803Y-97596575D02*
X135668508Y-97480460D01*
X135629803Y-97209527D02*
X136442603Y-97016003D01*
X136442603Y-97016003D02*
X135862032Y-96861184D01*
X135862032Y-96861184D02*
X136442603Y-96706365D01*
X136442603Y-96706365D02*
X135629803Y-96512842D01*
X136442603Y-96203204D02*
X135629803Y-96203204D01*
X135629803Y-96203204D02*
X135629803Y-96009680D01*
X135629803Y-96009680D02*
X135668508Y-95893566D01*
X135668508Y-95893566D02*
X135745918Y-95816156D01*
X135745918Y-95816156D02*
X135823327Y-95777451D01*
X135823327Y-95777451D02*
X135978146Y-95738747D01*
X135978146Y-95738747D02*
X136094260Y-95738747D01*
X136094260Y-95738747D02*
X136249079Y-95777451D01*
X136249079Y-95777451D02*
X136326489Y-95816156D01*
X136326489Y-95816156D02*
X136403899Y-95893566D01*
X136403899Y-95893566D02*
X136442603Y-96009680D01*
X136442603Y-96009680D02*
X136442603Y-96203204D01*
X136442603Y-95390404D02*
X135629803Y-95390404D01*
X135629803Y-94848537D02*
X135629803Y-94693718D01*
X135629803Y-94693718D02*
X135668508Y-94616308D01*
X135668508Y-94616308D02*
X135745918Y-94538899D01*
X135745918Y-94538899D02*
X135900737Y-94500194D01*
X135900737Y-94500194D02*
X136171670Y-94500194D01*
X136171670Y-94500194D02*
X136326489Y-94538899D01*
X136326489Y-94538899D02*
X136403899Y-94616308D01*
X136403899Y-94616308D02*
X136442603Y-94693718D01*
X136442603Y-94693718D02*
X136442603Y-94848537D01*
X136442603Y-94848537D02*
X136403899Y-94925946D01*
X136403899Y-94925946D02*
X136326489Y-95003356D01*
X136326489Y-95003356D02*
X136171670Y-95042060D01*
X136171670Y-95042060D02*
X135900737Y-95042060D01*
X135900737Y-95042060D02*
X135745918Y-95003356D01*
X135745918Y-95003356D02*
X135668508Y-94925946D01*
X135668508Y-94925946D02*
X135629803Y-94848537D01*
X129245291Y-101644917D02*
X129283995Y-101528803D01*
X129283995Y-101528803D02*
X129283995Y-101335279D01*
X129283995Y-101335279D02*
X129245291Y-101257870D01*
X129245291Y-101257870D02*
X129206586Y-101219165D01*
X129206586Y-101219165D02*
X129129176Y-101180460D01*
X129129176Y-101180460D02*
X129051767Y-101180460D01*
X129051767Y-101180460D02*
X128974357Y-101219165D01*
X128974357Y-101219165D02*
X128935652Y-101257870D01*
X128935652Y-101257870D02*
X128896948Y-101335279D01*
X128896948Y-101335279D02*
X128858243Y-101490098D01*
X128858243Y-101490098D02*
X128819538Y-101567508D01*
X128819538Y-101567508D02*
X128780833Y-101606213D01*
X128780833Y-101606213D02*
X128703424Y-101644917D01*
X128703424Y-101644917D02*
X128626014Y-101644917D01*
X128626014Y-101644917D02*
X128548605Y-101606213D01*
X128548605Y-101606213D02*
X128509900Y-101567508D01*
X128509900Y-101567508D02*
X128471195Y-101490098D01*
X128471195Y-101490098D02*
X128471195Y-101296575D01*
X128471195Y-101296575D02*
X128509900Y-101180460D01*
X128471195Y-100909527D02*
X129283995Y-100716003D01*
X129283995Y-100716003D02*
X128703424Y-100561184D01*
X128703424Y-100561184D02*
X129283995Y-100406365D01*
X129283995Y-100406365D02*
X128471195Y-100212842D01*
X129283995Y-99903204D02*
X128471195Y-99903204D01*
X128471195Y-99903204D02*
X128471195Y-99709680D01*
X128471195Y-99709680D02*
X128509900Y-99593566D01*
X128509900Y-99593566D02*
X128587310Y-99516156D01*
X128587310Y-99516156D02*
X128664719Y-99477451D01*
X128664719Y-99477451D02*
X128819538Y-99438747D01*
X128819538Y-99438747D02*
X128935652Y-99438747D01*
X128935652Y-99438747D02*
X129090471Y-99477451D01*
X129090471Y-99477451D02*
X129167881Y-99516156D01*
X129167881Y-99516156D02*
X129245291Y-99593566D01*
X129245291Y-99593566D02*
X129283995Y-99709680D01*
X129283995Y-99709680D02*
X129283995Y-99903204D01*
X130592603Y-101606213D02*
X129779803Y-101606213D01*
X129779803Y-101606213D02*
X129779803Y-101412689D01*
X129779803Y-101412689D02*
X129818508Y-101296575D01*
X129818508Y-101296575D02*
X129895918Y-101219165D01*
X129895918Y-101219165D02*
X129973327Y-101180460D01*
X129973327Y-101180460D02*
X130128146Y-101141756D01*
X130128146Y-101141756D02*
X130244260Y-101141756D01*
X130244260Y-101141756D02*
X130399079Y-101180460D01*
X130399079Y-101180460D02*
X130476489Y-101219165D01*
X130476489Y-101219165D02*
X130553899Y-101296575D01*
X130553899Y-101296575D02*
X130592603Y-101412689D01*
X130592603Y-101412689D02*
X130592603Y-101606213D01*
X130166851Y-100793413D02*
X130166851Y-100522479D01*
X130592603Y-100406365D02*
X130592603Y-100793413D01*
X130592603Y-100793413D02*
X129779803Y-100793413D01*
X129779803Y-100793413D02*
X129779803Y-100406365D01*
X130166851Y-99787089D02*
X130205556Y-99670975D01*
X130205556Y-99670975D02*
X130244260Y-99632270D01*
X130244260Y-99632270D02*
X130321670Y-99593566D01*
X130321670Y-99593566D02*
X130437784Y-99593566D01*
X130437784Y-99593566D02*
X130515194Y-99632270D01*
X130515194Y-99632270D02*
X130553899Y-99670975D01*
X130553899Y-99670975D02*
X130592603Y-99748385D01*
X130592603Y-99748385D02*
X130592603Y-100058023D01*
X130592603Y-100058023D02*
X129779803Y-100058023D01*
X129779803Y-100058023D02*
X129779803Y-99787089D01*
X129779803Y-99787089D02*
X129818508Y-99709680D01*
X129818508Y-99709680D02*
X129857213Y-99670975D01*
X129857213Y-99670975D02*
X129934622Y-99632270D01*
X129934622Y-99632270D02*
X130012032Y-99632270D01*
X130012032Y-99632270D02*
X130089441Y-99670975D01*
X130089441Y-99670975D02*
X130128146Y-99709680D01*
X130128146Y-99709680D02*
X130166851Y-99787089D01*
X130166851Y-99787089D02*
X130166851Y-100058023D01*
X129779803Y-99245223D02*
X130437784Y-99245223D01*
X130437784Y-99245223D02*
X130515194Y-99206518D01*
X130515194Y-99206518D02*
X130553899Y-99167813D01*
X130553899Y-99167813D02*
X130592603Y-99090404D01*
X130592603Y-99090404D02*
X130592603Y-98935585D01*
X130592603Y-98935585D02*
X130553899Y-98858175D01*
X130553899Y-98858175D02*
X130515194Y-98819470D01*
X130515194Y-98819470D02*
X130437784Y-98780766D01*
X130437784Y-98780766D02*
X129779803Y-98780766D01*
X129818508Y-97967965D02*
X129779803Y-98045375D01*
X129779803Y-98045375D02*
X129779803Y-98161489D01*
X129779803Y-98161489D02*
X129818508Y-98277603D01*
X129818508Y-98277603D02*
X129895918Y-98355013D01*
X129895918Y-98355013D02*
X129973327Y-98393718D01*
X129973327Y-98393718D02*
X130128146Y-98432422D01*
X130128146Y-98432422D02*
X130244260Y-98432422D01*
X130244260Y-98432422D02*
X130399079Y-98393718D01*
X130399079Y-98393718D02*
X130476489Y-98355013D01*
X130476489Y-98355013D02*
X130553899Y-98277603D01*
X130553899Y-98277603D02*
X130592603Y-98161489D01*
X130592603Y-98161489D02*
X130592603Y-98084080D01*
X130592603Y-98084080D02*
X130553899Y-97967965D01*
X130553899Y-97967965D02*
X130515194Y-97929261D01*
X130515194Y-97929261D02*
X130244260Y-97929261D01*
X130244260Y-97929261D02*
X130244260Y-98084080D01*
X143179803Y-97783622D02*
X143179803Y-97280460D01*
X143179803Y-97280460D02*
X143489441Y-97551394D01*
X143489441Y-97551394D02*
X143489441Y-97435279D01*
X143489441Y-97435279D02*
X143528146Y-97357870D01*
X143528146Y-97357870D02*
X143566851Y-97319165D01*
X143566851Y-97319165D02*
X143644260Y-97280460D01*
X143644260Y-97280460D02*
X143837784Y-97280460D01*
X143837784Y-97280460D02*
X143915194Y-97319165D01*
X143915194Y-97319165D02*
X143953899Y-97357870D01*
X143953899Y-97357870D02*
X143992603Y-97435279D01*
X143992603Y-97435279D02*
X143992603Y-97667508D01*
X143992603Y-97667508D02*
X143953899Y-97744917D01*
X143953899Y-97744917D02*
X143915194Y-97783622D01*
X143179803Y-97048232D02*
X143992603Y-96777299D01*
X143992603Y-96777299D02*
X143179803Y-96506365D01*
X143179803Y-96312841D02*
X143179803Y-95809679D01*
X143179803Y-95809679D02*
X143489441Y-96080613D01*
X143489441Y-96080613D02*
X143489441Y-95964498D01*
X143489441Y-95964498D02*
X143528146Y-95887089D01*
X143528146Y-95887089D02*
X143566851Y-95848384D01*
X143566851Y-95848384D02*
X143644260Y-95809679D01*
X143644260Y-95809679D02*
X143837784Y-95809679D01*
X143837784Y-95809679D02*
X143915194Y-95848384D01*
X143915194Y-95848384D02*
X143953899Y-95887089D01*
X143953899Y-95887089D02*
X143992603Y-95964498D01*
X143992603Y-95964498D02*
X143992603Y-96196727D01*
X143992603Y-96196727D02*
X143953899Y-96274136D01*
X143953899Y-96274136D02*
X143915194Y-96312841D01*
X138118508Y-97580460D02*
X138079803Y-97657870D01*
X138079803Y-97657870D02*
X138079803Y-97773984D01*
X138079803Y-97773984D02*
X138118508Y-97890098D01*
X138118508Y-97890098D02*
X138195918Y-97967508D01*
X138195918Y-97967508D02*
X138273327Y-98006213D01*
X138273327Y-98006213D02*
X138428146Y-98044917D01*
X138428146Y-98044917D02*
X138544260Y-98044917D01*
X138544260Y-98044917D02*
X138699079Y-98006213D01*
X138699079Y-98006213D02*
X138776489Y-97967508D01*
X138776489Y-97967508D02*
X138853899Y-97890098D01*
X138853899Y-97890098D02*
X138892603Y-97773984D01*
X138892603Y-97773984D02*
X138892603Y-97696575D01*
X138892603Y-97696575D02*
X138853899Y-97580460D01*
X138853899Y-97580460D02*
X138815194Y-97541756D01*
X138815194Y-97541756D02*
X138544260Y-97541756D01*
X138544260Y-97541756D02*
X138544260Y-97696575D01*
X138892603Y-97193413D02*
X138079803Y-97193413D01*
X138079803Y-97193413D02*
X138892603Y-96728956D01*
X138892603Y-96728956D02*
X138079803Y-96728956D01*
X138892603Y-96341908D02*
X138079803Y-96341908D01*
X138079803Y-96341908D02*
X138079803Y-96148384D01*
X138079803Y-96148384D02*
X138118508Y-96032270D01*
X138118508Y-96032270D02*
X138195918Y-95954860D01*
X138195918Y-95954860D02*
X138273327Y-95916155D01*
X138273327Y-95916155D02*
X138428146Y-95877451D01*
X138428146Y-95877451D02*
X138544260Y-95877451D01*
X138544260Y-95877451D02*
X138699079Y-95916155D01*
X138699079Y-95916155D02*
X138776489Y-95954860D01*
X138776489Y-95954860D02*
X138853899Y-96032270D01*
X138853899Y-96032270D02*
X138892603Y-96148384D01*
X138892603Y-96148384D02*
X138892603Y-96341908D01*
X127216851Y-65035279D02*
X127255556Y-64919165D01*
X127255556Y-64919165D02*
X127294260Y-64880460D01*
X127294260Y-64880460D02*
X127371670Y-64841756D01*
X127371670Y-64841756D02*
X127487784Y-64841756D01*
X127487784Y-64841756D02*
X127565194Y-64880460D01*
X127565194Y-64880460D02*
X127603899Y-64919165D01*
X127603899Y-64919165D02*
X127642603Y-64996575D01*
X127642603Y-64996575D02*
X127642603Y-65306213D01*
X127642603Y-65306213D02*
X126829803Y-65306213D01*
X126829803Y-65306213D02*
X126829803Y-65035279D01*
X126829803Y-65035279D02*
X126868508Y-64957870D01*
X126868508Y-64957870D02*
X126907213Y-64919165D01*
X126907213Y-64919165D02*
X126984622Y-64880460D01*
X126984622Y-64880460D02*
X127062032Y-64880460D01*
X127062032Y-64880460D02*
X127139441Y-64919165D01*
X127139441Y-64919165D02*
X127178146Y-64957870D01*
X127178146Y-64957870D02*
X127216851Y-65035279D01*
X127216851Y-65035279D02*
X127216851Y-65306213D01*
X126829803Y-64338594D02*
X126829803Y-64183775D01*
X126829803Y-64183775D02*
X126868508Y-64106365D01*
X126868508Y-64106365D02*
X126945918Y-64028956D01*
X126945918Y-64028956D02*
X127100737Y-63990251D01*
X127100737Y-63990251D02*
X127371670Y-63990251D01*
X127371670Y-63990251D02*
X127526489Y-64028956D01*
X127526489Y-64028956D02*
X127603899Y-64106365D01*
X127603899Y-64106365D02*
X127642603Y-64183775D01*
X127642603Y-64183775D02*
X127642603Y-64338594D01*
X127642603Y-64338594D02*
X127603899Y-64416003D01*
X127603899Y-64416003D02*
X127526489Y-64493413D01*
X127526489Y-64493413D02*
X127371670Y-64532117D01*
X127371670Y-64532117D02*
X127100737Y-64532117D01*
X127100737Y-64532117D02*
X126945918Y-64493413D01*
X126945918Y-64493413D02*
X126868508Y-64416003D01*
X126868508Y-64416003D02*
X126829803Y-64338594D01*
X126829803Y-63487089D02*
X126829803Y-63332270D01*
X126829803Y-63332270D02*
X126868508Y-63254860D01*
X126868508Y-63254860D02*
X126945918Y-63177451D01*
X126945918Y-63177451D02*
X127100737Y-63138746D01*
X127100737Y-63138746D02*
X127371670Y-63138746D01*
X127371670Y-63138746D02*
X127526489Y-63177451D01*
X127526489Y-63177451D02*
X127603899Y-63254860D01*
X127603899Y-63254860D02*
X127642603Y-63332270D01*
X127642603Y-63332270D02*
X127642603Y-63487089D01*
X127642603Y-63487089D02*
X127603899Y-63564498D01*
X127603899Y-63564498D02*
X127526489Y-63641908D01*
X127526489Y-63641908D02*
X127371670Y-63680612D01*
X127371670Y-63680612D02*
X127100737Y-63680612D01*
X127100737Y-63680612D02*
X126945918Y-63641908D01*
X126945918Y-63641908D02*
X126868508Y-63564498D01*
X126868508Y-63564498D02*
X126829803Y-63487089D01*
X126829803Y-62906517D02*
X126829803Y-62442060D01*
X127642603Y-62674288D02*
X126829803Y-62674288D01*
X124418508Y-64830460D02*
X124379803Y-64907870D01*
X124379803Y-64907870D02*
X124379803Y-65023984D01*
X124379803Y-65023984D02*
X124418508Y-65140098D01*
X124418508Y-65140098D02*
X124495918Y-65217508D01*
X124495918Y-65217508D02*
X124573327Y-65256213D01*
X124573327Y-65256213D02*
X124728146Y-65294917D01*
X124728146Y-65294917D02*
X124844260Y-65294917D01*
X124844260Y-65294917D02*
X124999079Y-65256213D01*
X124999079Y-65256213D02*
X125076489Y-65217508D01*
X125076489Y-65217508D02*
X125153899Y-65140098D01*
X125153899Y-65140098D02*
X125192603Y-65023984D01*
X125192603Y-65023984D02*
X125192603Y-64946575D01*
X125192603Y-64946575D02*
X125153899Y-64830460D01*
X125153899Y-64830460D02*
X125115194Y-64791756D01*
X125115194Y-64791756D02*
X124844260Y-64791756D01*
X124844260Y-64791756D02*
X124844260Y-64946575D01*
X125192603Y-64443413D02*
X124379803Y-64443413D01*
X124379803Y-64443413D02*
X125192603Y-63978956D01*
X125192603Y-63978956D02*
X124379803Y-63978956D01*
X125192603Y-63591908D02*
X124379803Y-63591908D01*
X124379803Y-63591908D02*
X124379803Y-63398384D01*
X124379803Y-63398384D02*
X124418508Y-63282270D01*
X124418508Y-63282270D02*
X124495918Y-63204860D01*
X124495918Y-63204860D02*
X124573327Y-63166155D01*
X124573327Y-63166155D02*
X124728146Y-63127451D01*
X124728146Y-63127451D02*
X124844260Y-63127451D01*
X124844260Y-63127451D02*
X124999079Y-63166155D01*
X124999079Y-63166155D02*
X125076489Y-63204860D01*
X125076489Y-63204860D02*
X125153899Y-63282270D01*
X125153899Y-63282270D02*
X125192603Y-63398384D01*
X125192603Y-63398384D02*
X125192603Y-63591908D01*
X121829803Y-65133622D02*
X121829803Y-64630460D01*
X121829803Y-64630460D02*
X122139441Y-64901394D01*
X122139441Y-64901394D02*
X122139441Y-64785279D01*
X122139441Y-64785279D02*
X122178146Y-64707870D01*
X122178146Y-64707870D02*
X122216851Y-64669165D01*
X122216851Y-64669165D02*
X122294260Y-64630460D01*
X122294260Y-64630460D02*
X122487784Y-64630460D01*
X122487784Y-64630460D02*
X122565194Y-64669165D01*
X122565194Y-64669165D02*
X122603899Y-64707870D01*
X122603899Y-64707870D02*
X122642603Y-64785279D01*
X122642603Y-64785279D02*
X122642603Y-65017508D01*
X122642603Y-65017508D02*
X122603899Y-65094917D01*
X122603899Y-65094917D02*
X122565194Y-65133622D01*
X121829803Y-64398232D02*
X122642603Y-64127299D01*
X122642603Y-64127299D02*
X121829803Y-63856365D01*
X121829803Y-63662841D02*
X121829803Y-63159679D01*
X121829803Y-63159679D02*
X122139441Y-63430613D01*
X122139441Y-63430613D02*
X122139441Y-63314498D01*
X122139441Y-63314498D02*
X122178146Y-63237089D01*
X122178146Y-63237089D02*
X122216851Y-63198384D01*
X122216851Y-63198384D02*
X122294260Y-63159679D01*
X122294260Y-63159679D02*
X122487784Y-63159679D01*
X122487784Y-63159679D02*
X122565194Y-63198384D01*
X122565194Y-63198384D02*
X122603899Y-63237089D01*
X122603899Y-63237089D02*
X122642603Y-63314498D01*
X122642603Y-63314498D02*
X122642603Y-63546727D01*
X122642603Y-63546727D02*
X122603899Y-63624136D01*
X122603899Y-63624136D02*
X122565194Y-63662841D01*
X136158243Y-81442603D02*
X135887310Y-81055556D01*
X135693786Y-81442603D02*
X135693786Y-80629803D01*
X135693786Y-80629803D02*
X136003424Y-80629803D01*
X136003424Y-80629803D02*
X136080834Y-80668508D01*
X136080834Y-80668508D02*
X136119539Y-80707213D01*
X136119539Y-80707213D02*
X136158243Y-80784622D01*
X136158243Y-80784622D02*
X136158243Y-80900737D01*
X136158243Y-80900737D02*
X136119539Y-80978146D01*
X136119539Y-80978146D02*
X136080834Y-81016851D01*
X136080834Y-81016851D02*
X136003424Y-81055556D01*
X136003424Y-81055556D02*
X135693786Y-81055556D01*
X136506586Y-81016851D02*
X136777520Y-81016851D01*
X136893634Y-81442603D02*
X136506586Y-81442603D01*
X136506586Y-81442603D02*
X136506586Y-80629803D01*
X136506586Y-80629803D02*
X136893634Y-80629803D01*
X137203272Y-81403899D02*
X137319386Y-81442603D01*
X137319386Y-81442603D02*
X137512910Y-81442603D01*
X137512910Y-81442603D02*
X137590319Y-81403899D01*
X137590319Y-81403899D02*
X137629024Y-81365194D01*
X137629024Y-81365194D02*
X137667729Y-81287784D01*
X137667729Y-81287784D02*
X137667729Y-81210375D01*
X137667729Y-81210375D02*
X137629024Y-81132965D01*
X137629024Y-81132965D02*
X137590319Y-81094260D01*
X137590319Y-81094260D02*
X137512910Y-81055556D01*
X137512910Y-81055556D02*
X137358091Y-81016851D01*
X137358091Y-81016851D02*
X137280681Y-80978146D01*
X137280681Y-80978146D02*
X137241976Y-80939441D01*
X137241976Y-80939441D02*
X137203272Y-80862032D01*
X137203272Y-80862032D02*
X137203272Y-80784622D01*
X137203272Y-80784622D02*
X137241976Y-80707213D01*
X137241976Y-80707213D02*
X137280681Y-80668508D01*
X137280681Y-80668508D02*
X137358091Y-80629803D01*
X137358091Y-80629803D02*
X137551614Y-80629803D01*
X137551614Y-80629803D02*
X137667729Y-80668508D01*
X138016071Y-81016851D02*
X138287005Y-81016851D01*
X138403119Y-81442603D02*
X138016071Y-81442603D01*
X138016071Y-81442603D02*
X138016071Y-80629803D01*
X138016071Y-80629803D02*
X138403119Y-80629803D01*
X138635347Y-80629803D02*
X139099804Y-80629803D01*
X138867576Y-81442603D02*
X138867576Y-80629803D01*
X189880834Y-65949803D02*
X189493786Y-65949803D01*
X189493786Y-65949803D02*
X189455082Y-66336851D01*
X189455082Y-66336851D02*
X189493786Y-66298146D01*
X189493786Y-66298146D02*
X189571196Y-66259441D01*
X189571196Y-66259441D02*
X189764720Y-66259441D01*
X189764720Y-66259441D02*
X189842129Y-66298146D01*
X189842129Y-66298146D02*
X189880834Y-66336851D01*
X189880834Y-66336851D02*
X189919539Y-66414260D01*
X189919539Y-66414260D02*
X189919539Y-66607784D01*
X189919539Y-66607784D02*
X189880834Y-66685194D01*
X189880834Y-66685194D02*
X189842129Y-66723899D01*
X189842129Y-66723899D02*
X189764720Y-66762603D01*
X189764720Y-66762603D02*
X189571196Y-66762603D01*
X189571196Y-66762603D02*
X189493786Y-66723899D01*
X189493786Y-66723899D02*
X189455082Y-66685194D01*
X190151767Y-65949803D02*
X190422700Y-66762603D01*
X190422700Y-66762603D02*
X190693634Y-65949803D01*
X189630834Y-71199803D02*
X189243786Y-71199803D01*
X189243786Y-71199803D02*
X189205082Y-71586851D01*
X189205082Y-71586851D02*
X189243786Y-71548146D01*
X189243786Y-71548146D02*
X189321196Y-71509441D01*
X189321196Y-71509441D02*
X189514720Y-71509441D01*
X189514720Y-71509441D02*
X189592129Y-71548146D01*
X189592129Y-71548146D02*
X189630834Y-71586851D01*
X189630834Y-71586851D02*
X189669539Y-71664260D01*
X189669539Y-71664260D02*
X189669539Y-71857784D01*
X189669539Y-71857784D02*
X189630834Y-71935194D01*
X189630834Y-71935194D02*
X189592129Y-71973899D01*
X189592129Y-71973899D02*
X189514720Y-72012603D01*
X189514720Y-72012603D02*
X189321196Y-72012603D01*
X189321196Y-72012603D02*
X189243786Y-71973899D01*
X189243786Y-71973899D02*
X189205082Y-71935194D01*
X189901767Y-71199803D02*
X190172700Y-72012603D01*
X190172700Y-72012603D02*
X190443634Y-71199803D01*
X188969539Y-68638508D02*
X188892129Y-68599803D01*
X188892129Y-68599803D02*
X188776015Y-68599803D01*
X188776015Y-68599803D02*
X188659901Y-68638508D01*
X188659901Y-68638508D02*
X188582491Y-68715918D01*
X188582491Y-68715918D02*
X188543786Y-68793327D01*
X188543786Y-68793327D02*
X188505082Y-68948146D01*
X188505082Y-68948146D02*
X188505082Y-69064260D01*
X188505082Y-69064260D02*
X188543786Y-69219079D01*
X188543786Y-69219079D02*
X188582491Y-69296489D01*
X188582491Y-69296489D02*
X188659901Y-69373899D01*
X188659901Y-69373899D02*
X188776015Y-69412603D01*
X188776015Y-69412603D02*
X188853424Y-69412603D01*
X188853424Y-69412603D02*
X188969539Y-69373899D01*
X188969539Y-69373899D02*
X189008243Y-69335194D01*
X189008243Y-69335194D02*
X189008243Y-69064260D01*
X189008243Y-69064260D02*
X188853424Y-69064260D01*
X189356586Y-69412603D02*
X189356586Y-68599803D01*
X189356586Y-68599803D02*
X189821043Y-69412603D01*
X189821043Y-69412603D02*
X189821043Y-68599803D01*
X190208091Y-69412603D02*
X190208091Y-68599803D01*
X190208091Y-68599803D02*
X190401615Y-68599803D01*
X190401615Y-68599803D02*
X190517729Y-68638508D01*
X190517729Y-68638508D02*
X190595139Y-68715918D01*
X190595139Y-68715918D02*
X190633844Y-68793327D01*
X190633844Y-68793327D02*
X190672548Y-68948146D01*
X190672548Y-68948146D02*
X190672548Y-69064260D01*
X190672548Y-69064260D02*
X190633844Y-69219079D01*
X190633844Y-69219079D02*
X190595139Y-69296489D01*
X190595139Y-69296489D02*
X190517729Y-69373899D01*
X190517729Y-69373899D02*
X190401615Y-69412603D01*
X190401615Y-69412603D02*
X190208091Y-69412603D01*
X189019539Y-73688508D02*
X188942129Y-73649803D01*
X188942129Y-73649803D02*
X188826015Y-73649803D01*
X188826015Y-73649803D02*
X188709901Y-73688508D01*
X188709901Y-73688508D02*
X188632491Y-73765918D01*
X188632491Y-73765918D02*
X188593786Y-73843327D01*
X188593786Y-73843327D02*
X188555082Y-73998146D01*
X188555082Y-73998146D02*
X188555082Y-74114260D01*
X188555082Y-74114260D02*
X188593786Y-74269079D01*
X188593786Y-74269079D02*
X188632491Y-74346489D01*
X188632491Y-74346489D02*
X188709901Y-74423899D01*
X188709901Y-74423899D02*
X188826015Y-74462603D01*
X188826015Y-74462603D02*
X188903424Y-74462603D01*
X188903424Y-74462603D02*
X189019539Y-74423899D01*
X189019539Y-74423899D02*
X189058243Y-74385194D01*
X189058243Y-74385194D02*
X189058243Y-74114260D01*
X189058243Y-74114260D02*
X188903424Y-74114260D01*
X189406586Y-74462603D02*
X189406586Y-73649803D01*
X189406586Y-73649803D02*
X189871043Y-74462603D01*
X189871043Y-74462603D02*
X189871043Y-73649803D01*
X190258091Y-74462603D02*
X190258091Y-73649803D01*
X190258091Y-73649803D02*
X190451615Y-73649803D01*
X190451615Y-73649803D02*
X190567729Y-73688508D01*
X190567729Y-73688508D02*
X190645139Y-73765918D01*
X190645139Y-73765918D02*
X190683844Y-73843327D01*
X190683844Y-73843327D02*
X190722548Y-73998146D01*
X190722548Y-73998146D02*
X190722548Y-74114260D01*
X190722548Y-74114260D02*
X190683844Y-74269079D01*
X190683844Y-74269079D02*
X190645139Y-74346489D01*
X190645139Y-74346489D02*
X190567729Y-74423899D01*
X190567729Y-74423899D02*
X190451615Y-74462603D01*
X190451615Y-74462603D02*
X190258091Y-74462603D01*
X191343786Y-77103995D02*
X191343786Y-76291195D01*
X191343786Y-76291195D02*
X191537310Y-76291195D01*
X191537310Y-76291195D02*
X191653424Y-76329900D01*
X191653424Y-76329900D02*
X191730834Y-76407310D01*
X191730834Y-76407310D02*
X191769539Y-76484719D01*
X191769539Y-76484719D02*
X191808243Y-76639538D01*
X191808243Y-76639538D02*
X191808243Y-76755652D01*
X191808243Y-76755652D02*
X191769539Y-76910471D01*
X191769539Y-76910471D02*
X191730834Y-76987881D01*
X191730834Y-76987881D02*
X191653424Y-77065291D01*
X191653424Y-77065291D02*
X191537310Y-77103995D01*
X191537310Y-77103995D02*
X191343786Y-77103995D01*
X192156586Y-77103995D02*
X192156586Y-76562129D01*
X192156586Y-76291195D02*
X192117882Y-76329900D01*
X192117882Y-76329900D02*
X192156586Y-76368605D01*
X192156586Y-76368605D02*
X192195291Y-76329900D01*
X192195291Y-76329900D02*
X192156586Y-76291195D01*
X192156586Y-76291195D02*
X192156586Y-76368605D01*
X192504930Y-77065291D02*
X192582339Y-77103995D01*
X192582339Y-77103995D02*
X192737158Y-77103995D01*
X192737158Y-77103995D02*
X192814568Y-77065291D01*
X192814568Y-77065291D02*
X192853272Y-76987881D01*
X192853272Y-76987881D02*
X192853272Y-76949176D01*
X192853272Y-76949176D02*
X192814568Y-76871767D01*
X192814568Y-76871767D02*
X192737158Y-76833062D01*
X192737158Y-76833062D02*
X192621044Y-76833062D01*
X192621044Y-76833062D02*
X192543634Y-76794357D01*
X192543634Y-76794357D02*
X192504930Y-76716948D01*
X192504930Y-76716948D02*
X192504930Y-76678243D01*
X192504930Y-76678243D02*
X192543634Y-76600833D01*
X192543634Y-76600833D02*
X192621044Y-76562129D01*
X192621044Y-76562129D02*
X192737158Y-76562129D01*
X192737158Y-76562129D02*
X192814568Y-76600833D01*
X193201615Y-76562129D02*
X193201615Y-77374929D01*
X193201615Y-76600833D02*
X193279025Y-76562129D01*
X193279025Y-76562129D02*
X193433844Y-76562129D01*
X193433844Y-76562129D02*
X193511253Y-76600833D01*
X193511253Y-76600833D02*
X193549958Y-76639538D01*
X193549958Y-76639538D02*
X193588663Y-76716948D01*
X193588663Y-76716948D02*
X193588663Y-76949176D01*
X193588663Y-76949176D02*
X193549958Y-77026586D01*
X193549958Y-77026586D02*
X193511253Y-77065291D01*
X193511253Y-77065291D02*
X193433844Y-77103995D01*
X193433844Y-77103995D02*
X193279025Y-77103995D01*
X193279025Y-77103995D02*
X193201615Y-77065291D01*
X194053120Y-77103995D02*
X193975710Y-77065291D01*
X193975710Y-77065291D02*
X193937005Y-76987881D01*
X193937005Y-76987881D02*
X193937005Y-76291195D01*
X194711100Y-77103995D02*
X194711100Y-76678243D01*
X194711100Y-76678243D02*
X194672395Y-76600833D01*
X194672395Y-76600833D02*
X194594986Y-76562129D01*
X194594986Y-76562129D02*
X194440167Y-76562129D01*
X194440167Y-76562129D02*
X194362757Y-76600833D01*
X194711100Y-77065291D02*
X194633691Y-77103995D01*
X194633691Y-77103995D02*
X194440167Y-77103995D01*
X194440167Y-77103995D02*
X194362757Y-77065291D01*
X194362757Y-77065291D02*
X194324053Y-76987881D01*
X194324053Y-76987881D02*
X194324053Y-76910471D01*
X194324053Y-76910471D02*
X194362757Y-76833062D01*
X194362757Y-76833062D02*
X194440167Y-76794357D01*
X194440167Y-76794357D02*
X194633691Y-76794357D01*
X194633691Y-76794357D02*
X194711100Y-76755652D01*
X195020738Y-76562129D02*
X195214262Y-77103995D01*
X195407785Y-76562129D02*
X195214262Y-77103995D01*
X195214262Y-77103995D02*
X195136852Y-77297519D01*
X195136852Y-77297519D02*
X195098147Y-77336224D01*
X195098147Y-77336224D02*
X195020738Y-77374929D01*
X191343786Y-78412603D02*
X191343786Y-77599803D01*
X191343786Y-77599803D02*
X191653424Y-77599803D01*
X191653424Y-77599803D02*
X191730834Y-77638508D01*
X191730834Y-77638508D02*
X191769539Y-77677213D01*
X191769539Y-77677213D02*
X191808243Y-77754622D01*
X191808243Y-77754622D02*
X191808243Y-77870737D01*
X191808243Y-77870737D02*
X191769539Y-77948146D01*
X191769539Y-77948146D02*
X191730834Y-77986851D01*
X191730834Y-77986851D02*
X191653424Y-78025556D01*
X191653424Y-78025556D02*
X191343786Y-78025556D01*
X192272701Y-78412603D02*
X192195291Y-78373899D01*
X192195291Y-78373899D02*
X192156586Y-78335194D01*
X192156586Y-78335194D02*
X192117882Y-78257784D01*
X192117882Y-78257784D02*
X192117882Y-78025556D01*
X192117882Y-78025556D02*
X192156586Y-77948146D01*
X192156586Y-77948146D02*
X192195291Y-77909441D01*
X192195291Y-77909441D02*
X192272701Y-77870737D01*
X192272701Y-77870737D02*
X192388815Y-77870737D01*
X192388815Y-77870737D02*
X192466224Y-77909441D01*
X192466224Y-77909441D02*
X192504929Y-77948146D01*
X192504929Y-77948146D02*
X192543634Y-78025556D01*
X192543634Y-78025556D02*
X192543634Y-78257784D01*
X192543634Y-78257784D02*
X192504929Y-78335194D01*
X192504929Y-78335194D02*
X192466224Y-78373899D01*
X192466224Y-78373899D02*
X192388815Y-78412603D01*
X192388815Y-78412603D02*
X192272701Y-78412603D01*
X192814567Y-77870737D02*
X192969386Y-78412603D01*
X192969386Y-78412603D02*
X193124205Y-78025556D01*
X193124205Y-78025556D02*
X193279024Y-78412603D01*
X193279024Y-78412603D02*
X193433843Y-77870737D01*
X194053119Y-78373899D02*
X193975710Y-78412603D01*
X193975710Y-78412603D02*
X193820891Y-78412603D01*
X193820891Y-78412603D02*
X193743481Y-78373899D01*
X193743481Y-78373899D02*
X193704777Y-78296489D01*
X193704777Y-78296489D02*
X193704777Y-77986851D01*
X193704777Y-77986851D02*
X193743481Y-77909441D01*
X193743481Y-77909441D02*
X193820891Y-77870737D01*
X193820891Y-77870737D02*
X193975710Y-77870737D01*
X193975710Y-77870737D02*
X194053119Y-77909441D01*
X194053119Y-77909441D02*
X194091824Y-77986851D01*
X194091824Y-77986851D02*
X194091824Y-78064260D01*
X194091824Y-78064260D02*
X193704777Y-78141670D01*
X194440167Y-78412603D02*
X194440167Y-77870737D01*
X194440167Y-78025556D02*
X194478872Y-77948146D01*
X194478872Y-77948146D02*
X194517577Y-77909441D01*
X194517577Y-77909441D02*
X194594986Y-77870737D01*
X194594986Y-77870737D02*
X194672396Y-77870737D01*
X129592603Y-111591756D02*
X129205556Y-111862689D01*
X129592603Y-112056213D02*
X128779803Y-112056213D01*
X128779803Y-112056213D02*
X128779803Y-111746575D01*
X128779803Y-111746575D02*
X128818508Y-111669165D01*
X128818508Y-111669165D02*
X128857213Y-111630460D01*
X128857213Y-111630460D02*
X128934622Y-111591756D01*
X128934622Y-111591756D02*
X129050737Y-111591756D01*
X129050737Y-111591756D02*
X129128146Y-111630460D01*
X129128146Y-111630460D02*
X129166851Y-111669165D01*
X129166851Y-111669165D02*
X129205556Y-111746575D01*
X129205556Y-111746575D02*
X129205556Y-112056213D01*
X129592603Y-110895070D02*
X129166851Y-110895070D01*
X129166851Y-110895070D02*
X129089441Y-110933775D01*
X129089441Y-110933775D02*
X129050737Y-111011184D01*
X129050737Y-111011184D02*
X129050737Y-111166003D01*
X129050737Y-111166003D02*
X129089441Y-111243413D01*
X129553899Y-110895070D02*
X129592603Y-110972479D01*
X129592603Y-110972479D02*
X129592603Y-111166003D01*
X129592603Y-111166003D02*
X129553899Y-111243413D01*
X129553899Y-111243413D02*
X129476489Y-111282117D01*
X129476489Y-111282117D02*
X129399079Y-111282117D01*
X129399079Y-111282117D02*
X129321670Y-111243413D01*
X129321670Y-111243413D02*
X129282965Y-111166003D01*
X129282965Y-111166003D02*
X129282965Y-110972479D01*
X129282965Y-110972479D02*
X129244260Y-110895070D01*
X129553899Y-110546727D02*
X129592603Y-110469318D01*
X129592603Y-110469318D02*
X129592603Y-110314499D01*
X129592603Y-110314499D02*
X129553899Y-110237089D01*
X129553899Y-110237089D02*
X129476489Y-110198385D01*
X129476489Y-110198385D02*
X129437784Y-110198385D01*
X129437784Y-110198385D02*
X129360375Y-110237089D01*
X129360375Y-110237089D02*
X129321670Y-110314499D01*
X129321670Y-110314499D02*
X129321670Y-110430613D01*
X129321670Y-110430613D02*
X129282965Y-110508023D01*
X129282965Y-110508023D02*
X129205556Y-110546727D01*
X129205556Y-110546727D02*
X129166851Y-110546727D01*
X129166851Y-110546727D02*
X129089441Y-110508023D01*
X129089441Y-110508023D02*
X129050737Y-110430613D01*
X129050737Y-110430613D02*
X129050737Y-110314499D01*
X129050737Y-110314499D02*
X129089441Y-110237089D01*
X129592603Y-109230766D02*
X128779803Y-109230766D01*
X128779803Y-109230766D02*
X128779803Y-108921128D01*
X128779803Y-108921128D02*
X128818508Y-108843718D01*
X128818508Y-108843718D02*
X128857213Y-108805013D01*
X128857213Y-108805013D02*
X128934622Y-108766309D01*
X128934622Y-108766309D02*
X129050737Y-108766309D01*
X129050737Y-108766309D02*
X129128146Y-108805013D01*
X129128146Y-108805013D02*
X129166851Y-108843718D01*
X129166851Y-108843718D02*
X129205556Y-108921128D01*
X129205556Y-108921128D02*
X129205556Y-109230766D01*
X129592603Y-108417966D02*
X129050737Y-108417966D01*
X128779803Y-108417966D02*
X128818508Y-108456670D01*
X128818508Y-108456670D02*
X128857213Y-108417966D01*
X128857213Y-108417966D02*
X128818508Y-108379261D01*
X128818508Y-108379261D02*
X128779803Y-108417966D01*
X128779803Y-108417966D02*
X128857213Y-108417966D01*
X132179803Y-108572327D02*
X132179803Y-108107870D01*
X132992603Y-108340098D02*
X132179803Y-108340098D01*
X132179803Y-107914346D02*
X132992603Y-107372480D01*
X132179803Y-107372480D02*
X132992603Y-107914346D01*
X144879803Y-108019165D02*
X144879803Y-108406213D01*
X144879803Y-108406213D02*
X145266851Y-108444917D01*
X145266851Y-108444917D02*
X145228146Y-108406213D01*
X145228146Y-108406213D02*
X145189441Y-108328803D01*
X145189441Y-108328803D02*
X145189441Y-108135279D01*
X145189441Y-108135279D02*
X145228146Y-108057870D01*
X145228146Y-108057870D02*
X145266851Y-108019165D01*
X145266851Y-108019165D02*
X145344260Y-107980460D01*
X145344260Y-107980460D02*
X145537784Y-107980460D01*
X145537784Y-107980460D02*
X145615194Y-108019165D01*
X145615194Y-108019165D02*
X145653899Y-108057870D01*
X145653899Y-108057870D02*
X145692603Y-108135279D01*
X145692603Y-108135279D02*
X145692603Y-108328803D01*
X145692603Y-108328803D02*
X145653899Y-108406213D01*
X145653899Y-108406213D02*
X145615194Y-108444917D01*
X144879803Y-107748232D02*
X145692603Y-107477299D01*
X145692603Y-107477299D02*
X144879803Y-107206365D01*
X139779803Y-108019165D02*
X139779803Y-108406213D01*
X139779803Y-108406213D02*
X140166851Y-108444917D01*
X140166851Y-108444917D02*
X140128146Y-108406213D01*
X140128146Y-108406213D02*
X140089441Y-108328803D01*
X140089441Y-108328803D02*
X140089441Y-108135279D01*
X140089441Y-108135279D02*
X140128146Y-108057870D01*
X140128146Y-108057870D02*
X140166851Y-108019165D01*
X140166851Y-108019165D02*
X140244260Y-107980460D01*
X140244260Y-107980460D02*
X140437784Y-107980460D01*
X140437784Y-107980460D02*
X140515194Y-108019165D01*
X140515194Y-108019165D02*
X140553899Y-108057870D01*
X140553899Y-108057870D02*
X140592603Y-108135279D01*
X140592603Y-108135279D02*
X140592603Y-108328803D01*
X140592603Y-108328803D02*
X140553899Y-108406213D01*
X140553899Y-108406213D02*
X140515194Y-108444917D01*
X139779803Y-107748232D02*
X140592603Y-107477299D01*
X140592603Y-107477299D02*
X139779803Y-107206365D01*
X142368508Y-108180460D02*
X142329803Y-108257870D01*
X142329803Y-108257870D02*
X142329803Y-108373984D01*
X142329803Y-108373984D02*
X142368508Y-108490098D01*
X142368508Y-108490098D02*
X142445918Y-108567508D01*
X142445918Y-108567508D02*
X142523327Y-108606213D01*
X142523327Y-108606213D02*
X142678146Y-108644917D01*
X142678146Y-108644917D02*
X142794260Y-108644917D01*
X142794260Y-108644917D02*
X142949079Y-108606213D01*
X142949079Y-108606213D02*
X143026489Y-108567508D01*
X143026489Y-108567508D02*
X143103899Y-108490098D01*
X143103899Y-108490098D02*
X143142603Y-108373984D01*
X143142603Y-108373984D02*
X143142603Y-108296575D01*
X143142603Y-108296575D02*
X143103899Y-108180460D01*
X143103899Y-108180460D02*
X143065194Y-108141756D01*
X143065194Y-108141756D02*
X142794260Y-108141756D01*
X142794260Y-108141756D02*
X142794260Y-108296575D01*
X143142603Y-107793413D02*
X142329803Y-107793413D01*
X142329803Y-107793413D02*
X143142603Y-107328956D01*
X143142603Y-107328956D02*
X142329803Y-107328956D01*
X143142603Y-106941908D02*
X142329803Y-106941908D01*
X142329803Y-106941908D02*
X142329803Y-106748384D01*
X142329803Y-106748384D02*
X142368508Y-106632270D01*
X142368508Y-106632270D02*
X142445918Y-106554860D01*
X142445918Y-106554860D02*
X142523327Y-106516155D01*
X142523327Y-106516155D02*
X142678146Y-106477451D01*
X142678146Y-106477451D02*
X142794260Y-106477451D01*
X142794260Y-106477451D02*
X142949079Y-106516155D01*
X142949079Y-106516155D02*
X143026489Y-106554860D01*
X143026489Y-106554860D02*
X143103899Y-106632270D01*
X143103899Y-106632270D02*
X143142603Y-106748384D01*
X143142603Y-106748384D02*
X143142603Y-106941908D01*
X137318508Y-108280460D02*
X137279803Y-108357870D01*
X137279803Y-108357870D02*
X137279803Y-108473984D01*
X137279803Y-108473984D02*
X137318508Y-108590098D01*
X137318508Y-108590098D02*
X137395918Y-108667508D01*
X137395918Y-108667508D02*
X137473327Y-108706213D01*
X137473327Y-108706213D02*
X137628146Y-108744917D01*
X137628146Y-108744917D02*
X137744260Y-108744917D01*
X137744260Y-108744917D02*
X137899079Y-108706213D01*
X137899079Y-108706213D02*
X137976489Y-108667508D01*
X137976489Y-108667508D02*
X138053899Y-108590098D01*
X138053899Y-108590098D02*
X138092603Y-108473984D01*
X138092603Y-108473984D02*
X138092603Y-108396575D01*
X138092603Y-108396575D02*
X138053899Y-108280460D01*
X138053899Y-108280460D02*
X138015194Y-108241756D01*
X138015194Y-108241756D02*
X137744260Y-108241756D01*
X137744260Y-108241756D02*
X137744260Y-108396575D01*
X138092603Y-107893413D02*
X137279803Y-107893413D01*
X137279803Y-107893413D02*
X138092603Y-107428956D01*
X138092603Y-107428956D02*
X137279803Y-107428956D01*
X138092603Y-107041908D02*
X137279803Y-107041908D01*
X137279803Y-107041908D02*
X137279803Y-106848384D01*
X137279803Y-106848384D02*
X137318508Y-106732270D01*
X137318508Y-106732270D02*
X137395918Y-106654860D01*
X137395918Y-106654860D02*
X137473327Y-106616155D01*
X137473327Y-106616155D02*
X137628146Y-106577451D01*
X137628146Y-106577451D02*
X137744260Y-106577451D01*
X137744260Y-106577451D02*
X137899079Y-106616155D01*
X137899079Y-106616155D02*
X137976489Y-106654860D01*
X137976489Y-106654860D02*
X138053899Y-106732270D01*
X138053899Y-106732270D02*
X138092603Y-106848384D01*
X138092603Y-106848384D02*
X138092603Y-107041908D01*
X135592603Y-107941756D02*
X135205556Y-108212689D01*
X135592603Y-108406213D02*
X134779803Y-108406213D01*
X134779803Y-108406213D02*
X134779803Y-108096575D01*
X134779803Y-108096575D02*
X134818508Y-108019165D01*
X134818508Y-108019165D02*
X134857213Y-107980460D01*
X134857213Y-107980460D02*
X134934622Y-107941756D01*
X134934622Y-107941756D02*
X135050737Y-107941756D01*
X135050737Y-107941756D02*
X135128146Y-107980460D01*
X135128146Y-107980460D02*
X135166851Y-108019165D01*
X135166851Y-108019165D02*
X135205556Y-108096575D01*
X135205556Y-108096575D02*
X135205556Y-108406213D01*
X134779803Y-107670822D02*
X135592603Y-107128956D01*
X134779803Y-107128956D02*
X135592603Y-107670822D01*
D11*
X173338333Y-61574318D02*
X172733571Y-61574318D01*
X172733571Y-61574318D02*
X172733571Y-60304318D01*
X173701190Y-60425270D02*
X173761666Y-60364794D01*
X173761666Y-60364794D02*
X173882619Y-60304318D01*
X173882619Y-60304318D02*
X174185000Y-60304318D01*
X174185000Y-60304318D02*
X174305952Y-60364794D01*
X174305952Y-60364794D02*
X174366428Y-60425270D01*
X174366428Y-60425270D02*
X174426905Y-60546222D01*
X174426905Y-60546222D02*
X174426905Y-60667175D01*
X174426905Y-60667175D02*
X174366428Y-60848603D01*
X174366428Y-60848603D02*
X173640714Y-61574318D01*
X173640714Y-61574318D02*
X174426905Y-61574318D01*
D12*
X179257142Y-63297080D02*
X179209523Y-63344700D01*
X179209523Y-63344700D02*
X179066666Y-63392319D01*
X179066666Y-63392319D02*
X178971428Y-63392319D01*
X178971428Y-63392319D02*
X178828571Y-63344700D01*
X178828571Y-63344700D02*
X178733333Y-63249461D01*
X178733333Y-63249461D02*
X178685714Y-63154223D01*
X178685714Y-63154223D02*
X178638095Y-62963747D01*
X178638095Y-62963747D02*
X178638095Y-62820890D01*
X178638095Y-62820890D02*
X178685714Y-62630414D01*
X178685714Y-62630414D02*
X178733333Y-62535176D01*
X178733333Y-62535176D02*
X178828571Y-62439938D01*
X178828571Y-62439938D02*
X178971428Y-62392319D01*
X178971428Y-62392319D02*
X179066666Y-62392319D01*
X179066666Y-62392319D02*
X179209523Y-62439938D01*
X179209523Y-62439938D02*
X179257142Y-62487557D01*
X179590476Y-62392319D02*
X180209523Y-62392319D01*
X180209523Y-62392319D02*
X179876190Y-62773271D01*
X179876190Y-62773271D02*
X180019047Y-62773271D01*
X180019047Y-62773271D02*
X180114285Y-62820890D01*
X180114285Y-62820890D02*
X180161904Y-62868509D01*
X180161904Y-62868509D02*
X180209523Y-62963747D01*
X180209523Y-62963747D02*
X180209523Y-63201842D01*
X180209523Y-63201842D02*
X180161904Y-63297080D01*
X180161904Y-63297080D02*
X180114285Y-63344700D01*
X180114285Y-63344700D02*
X180019047Y-63392319D01*
X180019047Y-63392319D02*
X179733333Y-63392319D01*
X179733333Y-63392319D02*
X179638095Y-63344700D01*
X179638095Y-63344700D02*
X179590476Y-63297080D01*
X180542857Y-62392319D02*
X181209523Y-62392319D01*
X181209523Y-62392319D02*
X180780952Y-63392319D01*
X173757142Y-68159580D02*
X173709523Y-68207200D01*
X173709523Y-68207200D02*
X173566666Y-68254819D01*
X173566666Y-68254819D02*
X173471428Y-68254819D01*
X173471428Y-68254819D02*
X173328571Y-68207200D01*
X173328571Y-68207200D02*
X173233333Y-68111961D01*
X173233333Y-68111961D02*
X173185714Y-68016723D01*
X173185714Y-68016723D02*
X173138095Y-67826247D01*
X173138095Y-67826247D02*
X173138095Y-67683390D01*
X173138095Y-67683390D02*
X173185714Y-67492914D01*
X173185714Y-67492914D02*
X173233333Y-67397676D01*
X173233333Y-67397676D02*
X173328571Y-67302438D01*
X173328571Y-67302438D02*
X173471428Y-67254819D01*
X173471428Y-67254819D02*
X173566666Y-67254819D01*
X173566666Y-67254819D02*
X173709523Y-67302438D01*
X173709523Y-67302438D02*
X173757142Y-67350057D01*
X174090476Y-67254819D02*
X174709523Y-67254819D01*
X174709523Y-67254819D02*
X174376190Y-67635771D01*
X174376190Y-67635771D02*
X174519047Y-67635771D01*
X174519047Y-67635771D02*
X174614285Y-67683390D01*
X174614285Y-67683390D02*
X174661904Y-67731009D01*
X174661904Y-67731009D02*
X174709523Y-67826247D01*
X174709523Y-67826247D02*
X174709523Y-68064342D01*
X174709523Y-68064342D02*
X174661904Y-68159580D01*
X174661904Y-68159580D02*
X174614285Y-68207200D01*
X174614285Y-68207200D02*
X174519047Y-68254819D01*
X174519047Y-68254819D02*
X174233333Y-68254819D01*
X174233333Y-68254819D02*
X174138095Y-68207200D01*
X174138095Y-68207200D02*
X174090476Y-68159580D01*
X175280952Y-67683390D02*
X175185714Y-67635771D01*
X175185714Y-67635771D02*
X175138095Y-67588152D01*
X175138095Y-67588152D02*
X175090476Y-67492914D01*
X175090476Y-67492914D02*
X175090476Y-67445295D01*
X175090476Y-67445295D02*
X175138095Y-67350057D01*
X175138095Y-67350057D02*
X175185714Y-67302438D01*
X175185714Y-67302438D02*
X175280952Y-67254819D01*
X175280952Y-67254819D02*
X175471428Y-67254819D01*
X175471428Y-67254819D02*
X175566666Y-67302438D01*
X175566666Y-67302438D02*
X175614285Y-67350057D01*
X175614285Y-67350057D02*
X175661904Y-67445295D01*
X175661904Y-67445295D02*
X175661904Y-67492914D01*
X175661904Y-67492914D02*
X175614285Y-67588152D01*
X175614285Y-67588152D02*
X175566666Y-67635771D01*
X175566666Y-67635771D02*
X175471428Y-67683390D01*
X175471428Y-67683390D02*
X175280952Y-67683390D01*
X175280952Y-67683390D02*
X175185714Y-67731009D01*
X175185714Y-67731009D02*
X175138095Y-67778628D01*
X175138095Y-67778628D02*
X175090476Y-67873866D01*
X175090476Y-67873866D02*
X175090476Y-68064342D01*
X175090476Y-68064342D02*
X175138095Y-68159580D01*
X175138095Y-68159580D02*
X175185714Y-68207200D01*
X175185714Y-68207200D02*
X175280952Y-68254819D01*
X175280952Y-68254819D02*
X175471428Y-68254819D01*
X175471428Y-68254819D02*
X175566666Y-68207200D01*
X175566666Y-68207200D02*
X175614285Y-68159580D01*
X175614285Y-68159580D02*
X175661904Y-68064342D01*
X175661904Y-68064342D02*
X175661904Y-67873866D01*
X175661904Y-67873866D02*
X175614285Y-67778628D01*
X175614285Y-67778628D02*
X175566666Y-67731009D01*
X175566666Y-67731009D02*
X175471428Y-67683390D01*
X148057142Y-77454819D02*
X147723809Y-76978628D01*
X147485714Y-77454819D02*
X147485714Y-76454819D01*
X147485714Y-76454819D02*
X147866666Y-76454819D01*
X147866666Y-76454819D02*
X147961904Y-76502438D01*
X147961904Y-76502438D02*
X148009523Y-76550057D01*
X148009523Y-76550057D02*
X148057142Y-76645295D01*
X148057142Y-76645295D02*
X148057142Y-76788152D01*
X148057142Y-76788152D02*
X148009523Y-76883390D01*
X148009523Y-76883390D02*
X147961904Y-76931009D01*
X147961904Y-76931009D02*
X147866666Y-76978628D01*
X147866666Y-76978628D02*
X147485714Y-76978628D01*
X148438095Y-76550057D02*
X148485714Y-76502438D01*
X148485714Y-76502438D02*
X148580952Y-76454819D01*
X148580952Y-76454819D02*
X148819047Y-76454819D01*
X148819047Y-76454819D02*
X148914285Y-76502438D01*
X148914285Y-76502438D02*
X148961904Y-76550057D01*
X148961904Y-76550057D02*
X149009523Y-76645295D01*
X149009523Y-76645295D02*
X149009523Y-76740533D01*
X149009523Y-76740533D02*
X148961904Y-76883390D01*
X148961904Y-76883390D02*
X148390476Y-77454819D01*
X148390476Y-77454819D02*
X149009523Y-77454819D01*
X149961904Y-77454819D02*
X149390476Y-77454819D01*
X149676190Y-77454819D02*
X149676190Y-76454819D01*
X149676190Y-76454819D02*
X149580952Y-76597676D01*
X149580952Y-76597676D02*
X149485714Y-76692914D01*
X149485714Y-76692914D02*
X149390476Y-76740533D01*
D11*
X170388333Y-77724318D02*
X169783571Y-77724318D01*
X169783571Y-77724318D02*
X169783571Y-76454318D01*
X171476905Y-77724318D02*
X170751190Y-77724318D01*
X171114047Y-77724318D02*
X171114047Y-76454318D01*
X171114047Y-76454318D02*
X170993095Y-76635746D01*
X170993095Y-76635746D02*
X170872143Y-76756699D01*
X170872143Y-76756699D02*
X170751190Y-76817175D01*
D12*
X155157142Y-77954819D02*
X154823809Y-77478628D01*
X154585714Y-77954819D02*
X154585714Y-76954819D01*
X154585714Y-76954819D02*
X154966666Y-76954819D01*
X154966666Y-76954819D02*
X155061904Y-77002438D01*
X155061904Y-77002438D02*
X155109523Y-77050057D01*
X155109523Y-77050057D02*
X155157142Y-77145295D01*
X155157142Y-77145295D02*
X155157142Y-77288152D01*
X155157142Y-77288152D02*
X155109523Y-77383390D01*
X155109523Y-77383390D02*
X155061904Y-77431009D01*
X155061904Y-77431009D02*
X154966666Y-77478628D01*
X154966666Y-77478628D02*
X154585714Y-77478628D01*
X156109523Y-77954819D02*
X155538095Y-77954819D01*
X155823809Y-77954819D02*
X155823809Y-76954819D01*
X155823809Y-76954819D02*
X155728571Y-77097676D01*
X155728571Y-77097676D02*
X155633333Y-77192914D01*
X155633333Y-77192914D02*
X155538095Y-77240533D01*
X156585714Y-77954819D02*
X156776190Y-77954819D01*
X156776190Y-77954819D02*
X156871428Y-77907200D01*
X156871428Y-77907200D02*
X156919047Y-77859580D01*
X156919047Y-77859580D02*
X157014285Y-77716723D01*
X157014285Y-77716723D02*
X157061904Y-77526247D01*
X157061904Y-77526247D02*
X157061904Y-77145295D01*
X157061904Y-77145295D02*
X157014285Y-77050057D01*
X157014285Y-77050057D02*
X156966666Y-77002438D01*
X156966666Y-77002438D02*
X156871428Y-76954819D01*
X156871428Y-76954819D02*
X156680952Y-76954819D01*
X156680952Y-76954819D02*
X156585714Y-77002438D01*
X156585714Y-77002438D02*
X156538095Y-77050057D01*
X156538095Y-77050057D02*
X156490476Y-77145295D01*
X156490476Y-77145295D02*
X156490476Y-77383390D01*
X156490476Y-77383390D02*
X156538095Y-77478628D01*
X156538095Y-77478628D02*
X156585714Y-77526247D01*
X156585714Y-77526247D02*
X156680952Y-77573866D01*
X156680952Y-77573866D02*
X156871428Y-77573866D01*
X156871428Y-77573866D02*
X156966666Y-77526247D01*
X156966666Y-77526247D02*
X157014285Y-77478628D01*
X157014285Y-77478628D02*
X157061904Y-77383390D01*
D11*
X180744047Y-79695270D02*
X180623095Y-79634794D01*
X180623095Y-79634794D02*
X180502142Y-79513842D01*
X180502142Y-79513842D02*
X180320714Y-79332413D01*
X180320714Y-79332413D02*
X180199761Y-79271937D01*
X180199761Y-79271937D02*
X180078809Y-79271937D01*
X180139285Y-79574318D02*
X180018333Y-79513842D01*
X180018333Y-79513842D02*
X179897380Y-79392889D01*
X179897380Y-79392889D02*
X179836904Y-79150984D01*
X179836904Y-79150984D02*
X179836904Y-78727651D01*
X179836904Y-78727651D02*
X179897380Y-78485746D01*
X179897380Y-78485746D02*
X180018333Y-78364794D01*
X180018333Y-78364794D02*
X180139285Y-78304318D01*
X180139285Y-78304318D02*
X180381190Y-78304318D01*
X180381190Y-78304318D02*
X180502142Y-78364794D01*
X180502142Y-78364794D02*
X180623095Y-78485746D01*
X180623095Y-78485746D02*
X180683571Y-78727651D01*
X180683571Y-78727651D02*
X180683571Y-79150984D01*
X180683571Y-79150984D02*
X180623095Y-79392889D01*
X180623095Y-79392889D02*
X180502142Y-79513842D01*
X180502142Y-79513842D02*
X180381190Y-79574318D01*
X180381190Y-79574318D02*
X180139285Y-79574318D01*
X181106904Y-78304318D02*
X181893095Y-78304318D01*
X181893095Y-78304318D02*
X181469761Y-78788127D01*
X181469761Y-78788127D02*
X181651190Y-78788127D01*
X181651190Y-78788127D02*
X181772142Y-78848603D01*
X181772142Y-78848603D02*
X181832618Y-78909080D01*
X181832618Y-78909080D02*
X181893095Y-79030032D01*
X181893095Y-79030032D02*
X181893095Y-79332413D01*
X181893095Y-79332413D02*
X181832618Y-79453365D01*
X181832618Y-79453365D02*
X181772142Y-79513842D01*
X181772142Y-79513842D02*
X181651190Y-79574318D01*
X181651190Y-79574318D02*
X181288333Y-79574318D01*
X181288333Y-79574318D02*
X181167380Y-79513842D01*
X181167380Y-79513842D02*
X181106904Y-79453365D01*
D12*
X145557142Y-87144819D02*
X145223809Y-86668628D01*
X144985714Y-87144819D02*
X144985714Y-86144819D01*
X144985714Y-86144819D02*
X145366666Y-86144819D01*
X145366666Y-86144819D02*
X145461904Y-86192438D01*
X145461904Y-86192438D02*
X145509523Y-86240057D01*
X145509523Y-86240057D02*
X145557142Y-86335295D01*
X145557142Y-86335295D02*
X145557142Y-86478152D01*
X145557142Y-86478152D02*
X145509523Y-86573390D01*
X145509523Y-86573390D02*
X145461904Y-86621009D01*
X145461904Y-86621009D02*
X145366666Y-86668628D01*
X145366666Y-86668628D02*
X144985714Y-86668628D01*
X146509523Y-87144819D02*
X145938095Y-87144819D01*
X146223809Y-87144819D02*
X146223809Y-86144819D01*
X146223809Y-86144819D02*
X146128571Y-86287676D01*
X146128571Y-86287676D02*
X146033333Y-86382914D01*
X146033333Y-86382914D02*
X145938095Y-86430533D01*
X147414285Y-86144819D02*
X146938095Y-86144819D01*
X146938095Y-86144819D02*
X146890476Y-86621009D01*
X146890476Y-86621009D02*
X146938095Y-86573390D01*
X146938095Y-86573390D02*
X147033333Y-86525771D01*
X147033333Y-86525771D02*
X147271428Y-86525771D01*
X147271428Y-86525771D02*
X147366666Y-86573390D01*
X147366666Y-86573390D02*
X147414285Y-86621009D01*
X147414285Y-86621009D02*
X147461904Y-86716247D01*
X147461904Y-86716247D02*
X147461904Y-86954342D01*
X147461904Y-86954342D02*
X147414285Y-87049580D01*
X147414285Y-87049580D02*
X147366666Y-87097200D01*
X147366666Y-87097200D02*
X147271428Y-87144819D01*
X147271428Y-87144819D02*
X147033333Y-87144819D01*
X147033333Y-87144819D02*
X146938095Y-87097200D01*
X146938095Y-87097200D02*
X146890476Y-87049580D01*
D11*
X135506666Y-77013842D02*
X135688095Y-77074318D01*
X135688095Y-77074318D02*
X135990476Y-77074318D01*
X135990476Y-77074318D02*
X136111428Y-77013842D01*
X136111428Y-77013842D02*
X136171904Y-76953365D01*
X136171904Y-76953365D02*
X136232381Y-76832413D01*
X136232381Y-76832413D02*
X136232381Y-76711461D01*
X136232381Y-76711461D02*
X136171904Y-76590508D01*
X136171904Y-76590508D02*
X136111428Y-76530032D01*
X136111428Y-76530032D02*
X135990476Y-76469556D01*
X135990476Y-76469556D02*
X135748571Y-76409080D01*
X135748571Y-76409080D02*
X135627619Y-76348603D01*
X135627619Y-76348603D02*
X135567142Y-76288127D01*
X135567142Y-76288127D02*
X135506666Y-76167175D01*
X135506666Y-76167175D02*
X135506666Y-76046222D01*
X135506666Y-76046222D02*
X135567142Y-75925270D01*
X135567142Y-75925270D02*
X135627619Y-75864794D01*
X135627619Y-75864794D02*
X135748571Y-75804318D01*
X135748571Y-75804318D02*
X136050952Y-75804318D01*
X136050952Y-75804318D02*
X136232381Y-75864794D01*
X136655714Y-75804318D02*
X136958095Y-77074318D01*
X136958095Y-77074318D02*
X137200000Y-76167175D01*
X137200000Y-76167175D02*
X137441905Y-77074318D01*
X137441905Y-77074318D02*
X137744286Y-75804318D01*
X138167619Y-75925270D02*
X138228095Y-75864794D01*
X138228095Y-75864794D02*
X138349048Y-75804318D01*
X138349048Y-75804318D02*
X138651429Y-75804318D01*
X138651429Y-75804318D02*
X138772381Y-75864794D01*
X138772381Y-75864794D02*
X138832857Y-75925270D01*
X138832857Y-75925270D02*
X138893334Y-76046222D01*
X138893334Y-76046222D02*
X138893334Y-76167175D01*
X138893334Y-76167175D02*
X138832857Y-76348603D01*
X138832857Y-76348603D02*
X138107143Y-77074318D01*
X138107143Y-77074318D02*
X138893334Y-77074318D01*
D12*
X158133333Y-110054819D02*
X157800000Y-109578628D01*
X157561905Y-110054819D02*
X157561905Y-109054819D01*
X157561905Y-109054819D02*
X157942857Y-109054819D01*
X157942857Y-109054819D02*
X158038095Y-109102438D01*
X158038095Y-109102438D02*
X158085714Y-109150057D01*
X158085714Y-109150057D02*
X158133333Y-109245295D01*
X158133333Y-109245295D02*
X158133333Y-109388152D01*
X158133333Y-109388152D02*
X158085714Y-109483390D01*
X158085714Y-109483390D02*
X158038095Y-109531009D01*
X158038095Y-109531009D02*
X157942857Y-109578628D01*
X157942857Y-109578628D02*
X157561905Y-109578628D01*
X158466667Y-109054819D02*
X159133333Y-109054819D01*
X159133333Y-109054819D02*
X158704762Y-110054819D01*
X191841666Y-95604819D02*
X191841666Y-96319104D01*
X191841666Y-96319104D02*
X191794047Y-96461961D01*
X191794047Y-96461961D02*
X191698809Y-96557200D01*
X191698809Y-96557200D02*
X191555952Y-96604819D01*
X191555952Y-96604819D02*
X191460714Y-96604819D01*
X192746428Y-95938152D02*
X192746428Y-96604819D01*
X192508333Y-95557200D02*
X192270238Y-96271485D01*
X192270238Y-96271485D02*
X192889285Y-96271485D01*
X165507142Y-100304819D02*
X165173809Y-99828628D01*
X164935714Y-100304819D02*
X164935714Y-99304819D01*
X164935714Y-99304819D02*
X165316666Y-99304819D01*
X165316666Y-99304819D02*
X165411904Y-99352438D01*
X165411904Y-99352438D02*
X165459523Y-99400057D01*
X165459523Y-99400057D02*
X165507142Y-99495295D01*
X165507142Y-99495295D02*
X165507142Y-99638152D01*
X165507142Y-99638152D02*
X165459523Y-99733390D01*
X165459523Y-99733390D02*
X165411904Y-99781009D01*
X165411904Y-99781009D02*
X165316666Y-99828628D01*
X165316666Y-99828628D02*
X164935714Y-99828628D01*
X166459523Y-100304819D02*
X165888095Y-100304819D01*
X166173809Y-100304819D02*
X166173809Y-99304819D01*
X166173809Y-99304819D02*
X166078571Y-99447676D01*
X166078571Y-99447676D02*
X165983333Y-99542914D01*
X165983333Y-99542914D02*
X165888095Y-99590533D01*
X167411904Y-100304819D02*
X166840476Y-100304819D01*
X167126190Y-100304819D02*
X167126190Y-99304819D01*
X167126190Y-99304819D02*
X167030952Y-99447676D01*
X167030952Y-99447676D02*
X166935714Y-99542914D01*
X166935714Y-99542914D02*
X166840476Y-99590533D01*
D11*
X131874318Y-68139762D02*
X130604318Y-68139762D01*
X131753365Y-66809285D02*
X131813842Y-66869761D01*
X131813842Y-66869761D02*
X131874318Y-67051190D01*
X131874318Y-67051190D02*
X131874318Y-67172142D01*
X131874318Y-67172142D02*
X131813842Y-67353571D01*
X131813842Y-67353571D02*
X131692889Y-67474523D01*
X131692889Y-67474523D02*
X131571937Y-67535000D01*
X131571937Y-67535000D02*
X131330032Y-67595476D01*
X131330032Y-67595476D02*
X131148603Y-67595476D01*
X131148603Y-67595476D02*
X130906699Y-67535000D01*
X130906699Y-67535000D02*
X130785746Y-67474523D01*
X130785746Y-67474523D02*
X130664794Y-67353571D01*
X130664794Y-67353571D02*
X130604318Y-67172142D01*
X130604318Y-67172142D02*
X130604318Y-67051190D01*
X130604318Y-67051190D02*
X130664794Y-66869761D01*
X130664794Y-66869761D02*
X130725270Y-66809285D01*
X130604318Y-66385952D02*
X130604318Y-65599761D01*
X130604318Y-65599761D02*
X131088127Y-66023095D01*
X131088127Y-66023095D02*
X131088127Y-65841666D01*
X131088127Y-65841666D02*
X131148603Y-65720714D01*
X131148603Y-65720714D02*
X131209080Y-65660238D01*
X131209080Y-65660238D02*
X131330032Y-65599761D01*
X131330032Y-65599761D02*
X131632413Y-65599761D01*
X131632413Y-65599761D02*
X131753365Y-65660238D01*
X131753365Y-65660238D02*
X131813842Y-65720714D01*
X131813842Y-65720714D02*
X131874318Y-65841666D01*
X131874318Y-65841666D02*
X131874318Y-66204523D01*
X131874318Y-66204523D02*
X131813842Y-66325476D01*
X131813842Y-66325476D02*
X131753365Y-66385952D01*
D12*
X101757142Y-99659580D02*
X101709523Y-99707200D01*
X101709523Y-99707200D02*
X101566666Y-99754819D01*
X101566666Y-99754819D02*
X101471428Y-99754819D01*
X101471428Y-99754819D02*
X101328571Y-99707200D01*
X101328571Y-99707200D02*
X101233333Y-99611961D01*
X101233333Y-99611961D02*
X101185714Y-99516723D01*
X101185714Y-99516723D02*
X101138095Y-99326247D01*
X101138095Y-99326247D02*
X101138095Y-99183390D01*
X101138095Y-99183390D02*
X101185714Y-98992914D01*
X101185714Y-98992914D02*
X101233333Y-98897676D01*
X101233333Y-98897676D02*
X101328571Y-98802438D01*
X101328571Y-98802438D02*
X101471428Y-98754819D01*
X101471428Y-98754819D02*
X101566666Y-98754819D01*
X101566666Y-98754819D02*
X101709523Y-98802438D01*
X101709523Y-98802438D02*
X101757142Y-98850057D01*
X102614285Y-99088152D02*
X102614285Y-99754819D01*
X102376190Y-98707200D02*
X102138095Y-99421485D01*
X102138095Y-99421485D02*
X102757142Y-99421485D01*
X103614285Y-98754819D02*
X103138095Y-98754819D01*
X103138095Y-98754819D02*
X103090476Y-99231009D01*
X103090476Y-99231009D02*
X103138095Y-99183390D01*
X103138095Y-99183390D02*
X103233333Y-99135771D01*
X103233333Y-99135771D02*
X103471428Y-99135771D01*
X103471428Y-99135771D02*
X103566666Y-99183390D01*
X103566666Y-99183390D02*
X103614285Y-99231009D01*
X103614285Y-99231009D02*
X103661904Y-99326247D01*
X103661904Y-99326247D02*
X103661904Y-99564342D01*
X103661904Y-99564342D02*
X103614285Y-99659580D01*
X103614285Y-99659580D02*
X103566666Y-99707200D01*
X103566666Y-99707200D02*
X103471428Y-99754819D01*
X103471428Y-99754819D02*
X103233333Y-99754819D01*
X103233333Y-99754819D02*
X103138095Y-99707200D01*
X103138095Y-99707200D02*
X103090476Y-99659580D01*
D11*
X109976667Y-116904318D02*
X109976667Y-117811461D01*
X109976667Y-117811461D02*
X109916190Y-117992889D01*
X109916190Y-117992889D02*
X109795238Y-118113842D01*
X109795238Y-118113842D02*
X109613809Y-118174318D01*
X109613809Y-118174318D02*
X109492857Y-118174318D01*
X111125714Y-116904318D02*
X110883809Y-116904318D01*
X110883809Y-116904318D02*
X110762857Y-116964794D01*
X110762857Y-116964794D02*
X110702381Y-117025270D01*
X110702381Y-117025270D02*
X110581428Y-117206699D01*
X110581428Y-117206699D02*
X110520952Y-117448603D01*
X110520952Y-117448603D02*
X110520952Y-117932413D01*
X110520952Y-117932413D02*
X110581428Y-118053365D01*
X110581428Y-118053365D02*
X110641905Y-118113842D01*
X110641905Y-118113842D02*
X110762857Y-118174318D01*
X110762857Y-118174318D02*
X111004762Y-118174318D01*
X111004762Y-118174318D02*
X111125714Y-118113842D01*
X111125714Y-118113842D02*
X111186190Y-118053365D01*
X111186190Y-118053365D02*
X111246667Y-117932413D01*
X111246667Y-117932413D02*
X111246667Y-117630032D01*
X111246667Y-117630032D02*
X111186190Y-117509080D01*
X111186190Y-117509080D02*
X111125714Y-117448603D01*
X111125714Y-117448603D02*
X111004762Y-117388127D01*
X111004762Y-117388127D02*
X110762857Y-117388127D01*
X110762857Y-117388127D02*
X110641905Y-117448603D01*
X110641905Y-117448603D02*
X110581428Y-117509080D01*
X110581428Y-117509080D02*
X110520952Y-117630032D01*
D12*
X168857142Y-73854819D02*
X168523809Y-73378628D01*
X168285714Y-73854819D02*
X168285714Y-72854819D01*
X168285714Y-72854819D02*
X168666666Y-72854819D01*
X168666666Y-72854819D02*
X168761904Y-72902438D01*
X168761904Y-72902438D02*
X168809523Y-72950057D01*
X168809523Y-72950057D02*
X168857142Y-73045295D01*
X168857142Y-73045295D02*
X168857142Y-73188152D01*
X168857142Y-73188152D02*
X168809523Y-73283390D01*
X168809523Y-73283390D02*
X168761904Y-73331009D01*
X168761904Y-73331009D02*
X168666666Y-73378628D01*
X168666666Y-73378628D02*
X168285714Y-73378628D01*
X169238095Y-72950057D02*
X169285714Y-72902438D01*
X169285714Y-72902438D02*
X169380952Y-72854819D01*
X169380952Y-72854819D02*
X169619047Y-72854819D01*
X169619047Y-72854819D02*
X169714285Y-72902438D01*
X169714285Y-72902438D02*
X169761904Y-72950057D01*
X169761904Y-72950057D02*
X169809523Y-73045295D01*
X169809523Y-73045295D02*
X169809523Y-73140533D01*
X169809523Y-73140533D02*
X169761904Y-73283390D01*
X169761904Y-73283390D02*
X169190476Y-73854819D01*
X169190476Y-73854819D02*
X169809523Y-73854819D01*
X170190476Y-72950057D02*
X170238095Y-72902438D01*
X170238095Y-72902438D02*
X170333333Y-72854819D01*
X170333333Y-72854819D02*
X170571428Y-72854819D01*
X170571428Y-72854819D02*
X170666666Y-72902438D01*
X170666666Y-72902438D02*
X170714285Y-72950057D01*
X170714285Y-72950057D02*
X170761904Y-73045295D01*
X170761904Y-73045295D02*
X170761904Y-73140533D01*
X170761904Y-73140533D02*
X170714285Y-73283390D01*
X170714285Y-73283390D02*
X170142857Y-73854819D01*
X170142857Y-73854819D02*
X170761904Y-73854819D01*
X160507142Y-68009580D02*
X160459523Y-68057200D01*
X160459523Y-68057200D02*
X160316666Y-68104819D01*
X160316666Y-68104819D02*
X160221428Y-68104819D01*
X160221428Y-68104819D02*
X160078571Y-68057200D01*
X160078571Y-68057200D02*
X159983333Y-67961961D01*
X159983333Y-67961961D02*
X159935714Y-67866723D01*
X159935714Y-67866723D02*
X159888095Y-67676247D01*
X159888095Y-67676247D02*
X159888095Y-67533390D01*
X159888095Y-67533390D02*
X159935714Y-67342914D01*
X159935714Y-67342914D02*
X159983333Y-67247676D01*
X159983333Y-67247676D02*
X160078571Y-67152438D01*
X160078571Y-67152438D02*
X160221428Y-67104819D01*
X160221428Y-67104819D02*
X160316666Y-67104819D01*
X160316666Y-67104819D02*
X160459523Y-67152438D01*
X160459523Y-67152438D02*
X160507142Y-67200057D01*
X160840476Y-67104819D02*
X161459523Y-67104819D01*
X161459523Y-67104819D02*
X161126190Y-67485771D01*
X161126190Y-67485771D02*
X161269047Y-67485771D01*
X161269047Y-67485771D02*
X161364285Y-67533390D01*
X161364285Y-67533390D02*
X161411904Y-67581009D01*
X161411904Y-67581009D02*
X161459523Y-67676247D01*
X161459523Y-67676247D02*
X161459523Y-67914342D01*
X161459523Y-67914342D02*
X161411904Y-68009580D01*
X161411904Y-68009580D02*
X161364285Y-68057200D01*
X161364285Y-68057200D02*
X161269047Y-68104819D01*
X161269047Y-68104819D02*
X160983333Y-68104819D01*
X160983333Y-68104819D02*
X160888095Y-68057200D01*
X160888095Y-68057200D02*
X160840476Y-68009580D01*
X162316666Y-67104819D02*
X162126190Y-67104819D01*
X162126190Y-67104819D02*
X162030952Y-67152438D01*
X162030952Y-67152438D02*
X161983333Y-67200057D01*
X161983333Y-67200057D02*
X161888095Y-67342914D01*
X161888095Y-67342914D02*
X161840476Y-67533390D01*
X161840476Y-67533390D02*
X161840476Y-67914342D01*
X161840476Y-67914342D02*
X161888095Y-68009580D01*
X161888095Y-68009580D02*
X161935714Y-68057200D01*
X161935714Y-68057200D02*
X162030952Y-68104819D01*
X162030952Y-68104819D02*
X162221428Y-68104819D01*
X162221428Y-68104819D02*
X162316666Y-68057200D01*
X162316666Y-68057200D02*
X162364285Y-68009580D01*
X162364285Y-68009580D02*
X162411904Y-67914342D01*
X162411904Y-67914342D02*
X162411904Y-67676247D01*
X162411904Y-67676247D02*
X162364285Y-67581009D01*
X162364285Y-67581009D02*
X162316666Y-67533390D01*
X162316666Y-67533390D02*
X162221428Y-67485771D01*
X162221428Y-67485771D02*
X162030952Y-67485771D01*
X162030952Y-67485771D02*
X161935714Y-67533390D01*
X161935714Y-67533390D02*
X161888095Y-67581009D01*
X161888095Y-67581009D02*
X161840476Y-67676247D01*
X149057142Y-88454819D02*
X148723809Y-87978628D01*
X148485714Y-88454819D02*
X148485714Y-87454819D01*
X148485714Y-87454819D02*
X148866666Y-87454819D01*
X148866666Y-87454819D02*
X148961904Y-87502438D01*
X148961904Y-87502438D02*
X149009523Y-87550057D01*
X149009523Y-87550057D02*
X149057142Y-87645295D01*
X149057142Y-87645295D02*
X149057142Y-87788152D01*
X149057142Y-87788152D02*
X149009523Y-87883390D01*
X149009523Y-87883390D02*
X148961904Y-87931009D01*
X148961904Y-87931009D02*
X148866666Y-87978628D01*
X148866666Y-87978628D02*
X148485714Y-87978628D01*
X149390476Y-87454819D02*
X150009523Y-87454819D01*
X150009523Y-87454819D02*
X149676190Y-87835771D01*
X149676190Y-87835771D02*
X149819047Y-87835771D01*
X149819047Y-87835771D02*
X149914285Y-87883390D01*
X149914285Y-87883390D02*
X149961904Y-87931009D01*
X149961904Y-87931009D02*
X150009523Y-88026247D01*
X150009523Y-88026247D02*
X150009523Y-88264342D01*
X150009523Y-88264342D02*
X149961904Y-88359580D01*
X149961904Y-88359580D02*
X149914285Y-88407200D01*
X149914285Y-88407200D02*
X149819047Y-88454819D01*
X149819047Y-88454819D02*
X149533333Y-88454819D01*
X149533333Y-88454819D02*
X149438095Y-88407200D01*
X149438095Y-88407200D02*
X149390476Y-88359580D01*
X150342857Y-87454819D02*
X151009523Y-87454819D01*
X151009523Y-87454819D02*
X150580952Y-88454819D01*
X104757142Y-63054819D02*
X104423809Y-62578628D01*
X104185714Y-63054819D02*
X104185714Y-62054819D01*
X104185714Y-62054819D02*
X104566666Y-62054819D01*
X104566666Y-62054819D02*
X104661904Y-62102438D01*
X104661904Y-62102438D02*
X104709523Y-62150057D01*
X104709523Y-62150057D02*
X104757142Y-62245295D01*
X104757142Y-62245295D02*
X104757142Y-62388152D01*
X104757142Y-62388152D02*
X104709523Y-62483390D01*
X104709523Y-62483390D02*
X104661904Y-62531009D01*
X104661904Y-62531009D02*
X104566666Y-62578628D01*
X104566666Y-62578628D02*
X104185714Y-62578628D01*
X105090476Y-62054819D02*
X105709523Y-62054819D01*
X105709523Y-62054819D02*
X105376190Y-62435771D01*
X105376190Y-62435771D02*
X105519047Y-62435771D01*
X105519047Y-62435771D02*
X105614285Y-62483390D01*
X105614285Y-62483390D02*
X105661904Y-62531009D01*
X105661904Y-62531009D02*
X105709523Y-62626247D01*
X105709523Y-62626247D02*
X105709523Y-62864342D01*
X105709523Y-62864342D02*
X105661904Y-62959580D01*
X105661904Y-62959580D02*
X105614285Y-63007200D01*
X105614285Y-63007200D02*
X105519047Y-63054819D01*
X105519047Y-63054819D02*
X105233333Y-63054819D01*
X105233333Y-63054819D02*
X105138095Y-63007200D01*
X105138095Y-63007200D02*
X105090476Y-62959580D01*
X106280952Y-62483390D02*
X106185714Y-62435771D01*
X106185714Y-62435771D02*
X106138095Y-62388152D01*
X106138095Y-62388152D02*
X106090476Y-62292914D01*
X106090476Y-62292914D02*
X106090476Y-62245295D01*
X106090476Y-62245295D02*
X106138095Y-62150057D01*
X106138095Y-62150057D02*
X106185714Y-62102438D01*
X106185714Y-62102438D02*
X106280952Y-62054819D01*
X106280952Y-62054819D02*
X106471428Y-62054819D01*
X106471428Y-62054819D02*
X106566666Y-62102438D01*
X106566666Y-62102438D02*
X106614285Y-62150057D01*
X106614285Y-62150057D02*
X106661904Y-62245295D01*
X106661904Y-62245295D02*
X106661904Y-62292914D01*
X106661904Y-62292914D02*
X106614285Y-62388152D01*
X106614285Y-62388152D02*
X106566666Y-62435771D01*
X106566666Y-62435771D02*
X106471428Y-62483390D01*
X106471428Y-62483390D02*
X106280952Y-62483390D01*
X106280952Y-62483390D02*
X106185714Y-62531009D01*
X106185714Y-62531009D02*
X106138095Y-62578628D01*
X106138095Y-62578628D02*
X106090476Y-62673866D01*
X106090476Y-62673866D02*
X106090476Y-62864342D01*
X106090476Y-62864342D02*
X106138095Y-62959580D01*
X106138095Y-62959580D02*
X106185714Y-63007200D01*
X106185714Y-63007200D02*
X106280952Y-63054819D01*
X106280952Y-63054819D02*
X106471428Y-63054819D01*
X106471428Y-63054819D02*
X106566666Y-63007200D01*
X106566666Y-63007200D02*
X106614285Y-62959580D01*
X106614285Y-62959580D02*
X106661904Y-62864342D01*
X106661904Y-62864342D02*
X106661904Y-62673866D01*
X106661904Y-62673866D02*
X106614285Y-62578628D01*
X106614285Y-62578628D02*
X106566666Y-62531009D01*
X106566666Y-62531009D02*
X106471428Y-62483390D01*
X139026666Y-113054819D02*
X139026666Y-113769104D01*
X139026666Y-113769104D02*
X138979047Y-113911961D01*
X138979047Y-113911961D02*
X138883809Y-114007200D01*
X138883809Y-114007200D02*
X138740952Y-114054819D01*
X138740952Y-114054819D02*
X138645714Y-114054819D01*
X139979047Y-113054819D02*
X139502857Y-113054819D01*
X139502857Y-113054819D02*
X139455238Y-113531009D01*
X139455238Y-113531009D02*
X139502857Y-113483390D01*
X139502857Y-113483390D02*
X139598095Y-113435771D01*
X139598095Y-113435771D02*
X139836190Y-113435771D01*
X139836190Y-113435771D02*
X139931428Y-113483390D01*
X139931428Y-113483390D02*
X139979047Y-113531009D01*
X139979047Y-113531009D02*
X140026666Y-113626247D01*
X140026666Y-113626247D02*
X140026666Y-113864342D01*
X140026666Y-113864342D02*
X139979047Y-113959580D01*
X139979047Y-113959580D02*
X139931428Y-114007200D01*
X139931428Y-114007200D02*
X139836190Y-114054819D01*
X139836190Y-114054819D02*
X139598095Y-114054819D01*
X139598095Y-114054819D02*
X139502857Y-114007200D01*
X139502857Y-114007200D02*
X139455238Y-113959580D01*
X192704819Y-63193333D02*
X193419104Y-63193333D01*
X193419104Y-63193333D02*
X193561961Y-63240952D01*
X193561961Y-63240952D02*
X193657200Y-63336190D01*
X193657200Y-63336190D02*
X193704819Y-63479047D01*
X193704819Y-63479047D02*
X193704819Y-63574285D01*
X192704819Y-62812380D02*
X192704819Y-62193333D01*
X192704819Y-62193333D02*
X193085771Y-62526666D01*
X193085771Y-62526666D02*
X193085771Y-62383809D01*
X193085771Y-62383809D02*
X193133390Y-62288571D01*
X193133390Y-62288571D02*
X193181009Y-62240952D01*
X193181009Y-62240952D02*
X193276247Y-62193333D01*
X193276247Y-62193333D02*
X193514342Y-62193333D01*
X193514342Y-62193333D02*
X193609580Y-62240952D01*
X193609580Y-62240952D02*
X193657200Y-62288571D01*
X193657200Y-62288571D02*
X193704819Y-62383809D01*
X193704819Y-62383809D02*
X193704819Y-62669523D01*
X193704819Y-62669523D02*
X193657200Y-62764761D01*
X193657200Y-62764761D02*
X193609580Y-62812380D01*
X116982142Y-97459580D02*
X116934523Y-97507200D01*
X116934523Y-97507200D02*
X116791666Y-97554819D01*
X116791666Y-97554819D02*
X116696428Y-97554819D01*
X116696428Y-97554819D02*
X116553571Y-97507200D01*
X116553571Y-97507200D02*
X116458333Y-97411961D01*
X116458333Y-97411961D02*
X116410714Y-97316723D01*
X116410714Y-97316723D02*
X116363095Y-97126247D01*
X116363095Y-97126247D02*
X116363095Y-96983390D01*
X116363095Y-96983390D02*
X116410714Y-96792914D01*
X116410714Y-96792914D02*
X116458333Y-96697676D01*
X116458333Y-96697676D02*
X116553571Y-96602438D01*
X116553571Y-96602438D02*
X116696428Y-96554819D01*
X116696428Y-96554819D02*
X116791666Y-96554819D01*
X116791666Y-96554819D02*
X116934523Y-96602438D01*
X116934523Y-96602438D02*
X116982142Y-96650057D01*
X117839285Y-96888152D02*
X117839285Y-97554819D01*
X117601190Y-96507200D02*
X117363095Y-97221485D01*
X117363095Y-97221485D02*
X117982142Y-97221485D01*
X118267857Y-96554819D02*
X118886904Y-96554819D01*
X118886904Y-96554819D02*
X118553571Y-96935771D01*
X118553571Y-96935771D02*
X118696428Y-96935771D01*
X118696428Y-96935771D02*
X118791666Y-96983390D01*
X118791666Y-96983390D02*
X118839285Y-97031009D01*
X118839285Y-97031009D02*
X118886904Y-97126247D01*
X118886904Y-97126247D02*
X118886904Y-97364342D01*
X118886904Y-97364342D02*
X118839285Y-97459580D01*
X118839285Y-97459580D02*
X118791666Y-97507200D01*
X118791666Y-97507200D02*
X118696428Y-97554819D01*
X118696428Y-97554819D02*
X118410714Y-97554819D01*
X118410714Y-97554819D02*
X118315476Y-97507200D01*
X118315476Y-97507200D02*
X118267857Y-97459580D01*
X154432142Y-89379580D02*
X154384523Y-89427200D01*
X154384523Y-89427200D02*
X154241666Y-89474819D01*
X154241666Y-89474819D02*
X154146428Y-89474819D01*
X154146428Y-89474819D02*
X154003571Y-89427200D01*
X154003571Y-89427200D02*
X153908333Y-89331961D01*
X153908333Y-89331961D02*
X153860714Y-89236723D01*
X153860714Y-89236723D02*
X153813095Y-89046247D01*
X153813095Y-89046247D02*
X153813095Y-88903390D01*
X153813095Y-88903390D02*
X153860714Y-88712914D01*
X153860714Y-88712914D02*
X153908333Y-88617676D01*
X153908333Y-88617676D02*
X154003571Y-88522438D01*
X154003571Y-88522438D02*
X154146428Y-88474819D01*
X154146428Y-88474819D02*
X154241666Y-88474819D01*
X154241666Y-88474819D02*
X154384523Y-88522438D01*
X154384523Y-88522438D02*
X154432142Y-88570057D01*
X154813095Y-88570057D02*
X154860714Y-88522438D01*
X154860714Y-88522438D02*
X154955952Y-88474819D01*
X154955952Y-88474819D02*
X155194047Y-88474819D01*
X155194047Y-88474819D02*
X155289285Y-88522438D01*
X155289285Y-88522438D02*
X155336904Y-88570057D01*
X155336904Y-88570057D02*
X155384523Y-88665295D01*
X155384523Y-88665295D02*
X155384523Y-88760533D01*
X155384523Y-88760533D02*
X155336904Y-88903390D01*
X155336904Y-88903390D02*
X154765476Y-89474819D01*
X154765476Y-89474819D02*
X155384523Y-89474819D01*
X156336904Y-89474819D02*
X155765476Y-89474819D01*
X156051190Y-89474819D02*
X156051190Y-88474819D01*
X156051190Y-88474819D02*
X155955952Y-88617676D01*
X155955952Y-88617676D02*
X155860714Y-88712914D01*
X155860714Y-88712914D02*
X155765476Y-88760533D01*
X126357142Y-78559580D02*
X126309523Y-78607200D01*
X126309523Y-78607200D02*
X126166666Y-78654819D01*
X126166666Y-78654819D02*
X126071428Y-78654819D01*
X126071428Y-78654819D02*
X125928571Y-78607200D01*
X125928571Y-78607200D02*
X125833333Y-78511961D01*
X125833333Y-78511961D02*
X125785714Y-78416723D01*
X125785714Y-78416723D02*
X125738095Y-78226247D01*
X125738095Y-78226247D02*
X125738095Y-78083390D01*
X125738095Y-78083390D02*
X125785714Y-77892914D01*
X125785714Y-77892914D02*
X125833333Y-77797676D01*
X125833333Y-77797676D02*
X125928571Y-77702438D01*
X125928571Y-77702438D02*
X126071428Y-77654819D01*
X126071428Y-77654819D02*
X126166666Y-77654819D01*
X126166666Y-77654819D02*
X126309523Y-77702438D01*
X126309523Y-77702438D02*
X126357142Y-77750057D01*
X126690476Y-77654819D02*
X127357142Y-77654819D01*
X127357142Y-77654819D02*
X126928571Y-78654819D01*
X128214285Y-77654819D02*
X127738095Y-77654819D01*
X127738095Y-77654819D02*
X127690476Y-78131009D01*
X127690476Y-78131009D02*
X127738095Y-78083390D01*
X127738095Y-78083390D02*
X127833333Y-78035771D01*
X127833333Y-78035771D02*
X128071428Y-78035771D01*
X128071428Y-78035771D02*
X128166666Y-78083390D01*
X128166666Y-78083390D02*
X128214285Y-78131009D01*
X128214285Y-78131009D02*
X128261904Y-78226247D01*
X128261904Y-78226247D02*
X128261904Y-78464342D01*
X128261904Y-78464342D02*
X128214285Y-78559580D01*
X128214285Y-78559580D02*
X128166666Y-78607200D01*
X128166666Y-78607200D02*
X128071428Y-78654819D01*
X128071428Y-78654819D02*
X127833333Y-78654819D01*
X127833333Y-78654819D02*
X127738095Y-78607200D01*
X127738095Y-78607200D02*
X127690476Y-78559580D01*
X108557142Y-114159580D02*
X108509523Y-114207200D01*
X108509523Y-114207200D02*
X108366666Y-114254819D01*
X108366666Y-114254819D02*
X108271428Y-114254819D01*
X108271428Y-114254819D02*
X108128571Y-114207200D01*
X108128571Y-114207200D02*
X108033333Y-114111961D01*
X108033333Y-114111961D02*
X107985714Y-114016723D01*
X107985714Y-114016723D02*
X107938095Y-113826247D01*
X107938095Y-113826247D02*
X107938095Y-113683390D01*
X107938095Y-113683390D02*
X107985714Y-113492914D01*
X107985714Y-113492914D02*
X108033333Y-113397676D01*
X108033333Y-113397676D02*
X108128571Y-113302438D01*
X108128571Y-113302438D02*
X108271428Y-113254819D01*
X108271428Y-113254819D02*
X108366666Y-113254819D01*
X108366666Y-113254819D02*
X108509523Y-113302438D01*
X108509523Y-113302438D02*
X108557142Y-113350057D01*
X109414285Y-113588152D02*
X109414285Y-114254819D01*
X109176190Y-113207200D02*
X108938095Y-113921485D01*
X108938095Y-113921485D02*
X109557142Y-113921485D01*
X109842857Y-113254819D02*
X110509523Y-113254819D01*
X110509523Y-113254819D02*
X110080952Y-114254819D01*
D11*
X180914047Y-92945270D02*
X180793095Y-92884794D01*
X180793095Y-92884794D02*
X180672142Y-92763842D01*
X180672142Y-92763842D02*
X180490714Y-92582413D01*
X180490714Y-92582413D02*
X180369761Y-92521937D01*
X180369761Y-92521937D02*
X180248809Y-92521937D01*
X180309285Y-92824318D02*
X180188333Y-92763842D01*
X180188333Y-92763842D02*
X180067380Y-92642889D01*
X180067380Y-92642889D02*
X180006904Y-92400984D01*
X180006904Y-92400984D02*
X180006904Y-91977651D01*
X180006904Y-91977651D02*
X180067380Y-91735746D01*
X180067380Y-91735746D02*
X180188333Y-91614794D01*
X180188333Y-91614794D02*
X180309285Y-91554318D01*
X180309285Y-91554318D02*
X180551190Y-91554318D01*
X180551190Y-91554318D02*
X180672142Y-91614794D01*
X180672142Y-91614794D02*
X180793095Y-91735746D01*
X180793095Y-91735746D02*
X180853571Y-91977651D01*
X180853571Y-91977651D02*
X180853571Y-92400984D01*
X180853571Y-92400984D02*
X180793095Y-92642889D01*
X180793095Y-92642889D02*
X180672142Y-92763842D01*
X180672142Y-92763842D02*
X180551190Y-92824318D01*
X180551190Y-92824318D02*
X180309285Y-92824318D01*
X181942142Y-91977651D02*
X181942142Y-92824318D01*
X181639761Y-91493842D02*
X181337380Y-92400984D01*
X181337380Y-92400984D02*
X182123571Y-92400984D01*
D12*
X119388095Y-68804819D02*
X119388095Y-69614342D01*
X119388095Y-69614342D02*
X119435714Y-69709580D01*
X119435714Y-69709580D02*
X119483333Y-69757200D01*
X119483333Y-69757200D02*
X119578571Y-69804819D01*
X119578571Y-69804819D02*
X119769047Y-69804819D01*
X119769047Y-69804819D02*
X119864285Y-69757200D01*
X119864285Y-69757200D02*
X119911904Y-69709580D01*
X119911904Y-69709580D02*
X119959523Y-69614342D01*
X119959523Y-69614342D02*
X119959523Y-68804819D01*
X120959523Y-69804819D02*
X120388095Y-69804819D01*
X120673809Y-69804819D02*
X120673809Y-68804819D01*
X120673809Y-68804819D02*
X120578571Y-68947676D01*
X120578571Y-68947676D02*
X120483333Y-69042914D01*
X120483333Y-69042914D02*
X120388095Y-69090533D01*
D11*
X103710237Y-113674318D02*
X103710237Y-112404318D01*
X105040714Y-113553365D02*
X104980238Y-113613842D01*
X104980238Y-113613842D02*
X104798809Y-113674318D01*
X104798809Y-113674318D02*
X104677857Y-113674318D01*
X104677857Y-113674318D02*
X104496428Y-113613842D01*
X104496428Y-113613842D02*
X104375476Y-113492889D01*
X104375476Y-113492889D02*
X104314999Y-113371937D01*
X104314999Y-113371937D02*
X104254523Y-113130032D01*
X104254523Y-113130032D02*
X104254523Y-112948603D01*
X104254523Y-112948603D02*
X104314999Y-112706699D01*
X104314999Y-112706699D02*
X104375476Y-112585746D01*
X104375476Y-112585746D02*
X104496428Y-112464794D01*
X104496428Y-112464794D02*
X104677857Y-112404318D01*
X104677857Y-112404318D02*
X104798809Y-112404318D01*
X104798809Y-112404318D02*
X104980238Y-112464794D01*
X104980238Y-112464794D02*
X105040714Y-112525270D01*
X106129285Y-112404318D02*
X105887380Y-112404318D01*
X105887380Y-112404318D02*
X105766428Y-112464794D01*
X105766428Y-112464794D02*
X105705952Y-112525270D01*
X105705952Y-112525270D02*
X105584999Y-112706699D01*
X105584999Y-112706699D02*
X105524523Y-112948603D01*
X105524523Y-112948603D02*
X105524523Y-113432413D01*
X105524523Y-113432413D02*
X105584999Y-113553365D01*
X105584999Y-113553365D02*
X105645476Y-113613842D01*
X105645476Y-113613842D02*
X105766428Y-113674318D01*
X105766428Y-113674318D02*
X106008333Y-113674318D01*
X106008333Y-113674318D02*
X106129285Y-113613842D01*
X106129285Y-113613842D02*
X106189761Y-113553365D01*
X106189761Y-113553365D02*
X106250238Y-113432413D01*
X106250238Y-113432413D02*
X106250238Y-113130032D01*
X106250238Y-113130032D02*
X106189761Y-113009080D01*
X106189761Y-113009080D02*
X106129285Y-112948603D01*
X106129285Y-112948603D02*
X106008333Y-112888127D01*
X106008333Y-112888127D02*
X105766428Y-112888127D01*
X105766428Y-112888127D02*
X105645476Y-112948603D01*
X105645476Y-112948603D02*
X105584999Y-113009080D01*
X105584999Y-113009080D02*
X105524523Y-113130032D01*
D12*
X113373809Y-101878628D02*
X113373809Y-102354819D01*
X113040476Y-101354819D02*
X113373809Y-101878628D01*
X113373809Y-101878628D02*
X113707142Y-101354819D01*
X114564285Y-102354819D02*
X113992857Y-102354819D01*
X114278571Y-102354819D02*
X114278571Y-101354819D01*
X114278571Y-101354819D02*
X114183333Y-101497676D01*
X114183333Y-101497676D02*
X114088095Y-101592914D01*
X114088095Y-101592914D02*
X113992857Y-101640533D01*
X186254819Y-102542857D02*
X185778628Y-102876190D01*
X186254819Y-103114285D02*
X185254819Y-103114285D01*
X185254819Y-103114285D02*
X185254819Y-102733333D01*
X185254819Y-102733333D02*
X185302438Y-102638095D01*
X185302438Y-102638095D02*
X185350057Y-102590476D01*
X185350057Y-102590476D02*
X185445295Y-102542857D01*
X185445295Y-102542857D02*
X185588152Y-102542857D01*
X185588152Y-102542857D02*
X185683390Y-102590476D01*
X185683390Y-102590476D02*
X185731009Y-102638095D01*
X185731009Y-102638095D02*
X185778628Y-102733333D01*
X185778628Y-102733333D02*
X185778628Y-103114285D01*
X186254819Y-101590476D02*
X186254819Y-102161904D01*
X186254819Y-101876190D02*
X185254819Y-101876190D01*
X185254819Y-101876190D02*
X185397676Y-101971428D01*
X185397676Y-101971428D02*
X185492914Y-102066666D01*
X185492914Y-102066666D02*
X185540533Y-102161904D01*
X185683390Y-101019047D02*
X185635771Y-101114285D01*
X185635771Y-101114285D02*
X185588152Y-101161904D01*
X185588152Y-101161904D02*
X185492914Y-101209523D01*
X185492914Y-101209523D02*
X185445295Y-101209523D01*
X185445295Y-101209523D02*
X185350057Y-101161904D01*
X185350057Y-101161904D02*
X185302438Y-101114285D01*
X185302438Y-101114285D02*
X185254819Y-101019047D01*
X185254819Y-101019047D02*
X185254819Y-100828571D01*
X185254819Y-100828571D02*
X185302438Y-100733333D01*
X185302438Y-100733333D02*
X185350057Y-100685714D01*
X185350057Y-100685714D02*
X185445295Y-100638095D01*
X185445295Y-100638095D02*
X185492914Y-100638095D01*
X185492914Y-100638095D02*
X185588152Y-100685714D01*
X185588152Y-100685714D02*
X185635771Y-100733333D01*
X185635771Y-100733333D02*
X185683390Y-100828571D01*
X185683390Y-100828571D02*
X185683390Y-101019047D01*
X185683390Y-101019047D02*
X185731009Y-101114285D01*
X185731009Y-101114285D02*
X185778628Y-101161904D01*
X185778628Y-101161904D02*
X185873866Y-101209523D01*
X185873866Y-101209523D02*
X186064342Y-101209523D01*
X186064342Y-101209523D02*
X186159580Y-101161904D01*
X186159580Y-101161904D02*
X186207200Y-101114285D01*
X186207200Y-101114285D02*
X186254819Y-101019047D01*
X186254819Y-101019047D02*
X186254819Y-100828571D01*
X186254819Y-100828571D02*
X186207200Y-100733333D01*
X186207200Y-100733333D02*
X186159580Y-100685714D01*
X186159580Y-100685714D02*
X186064342Y-100638095D01*
X186064342Y-100638095D02*
X185873866Y-100638095D01*
X185873866Y-100638095D02*
X185778628Y-100685714D01*
X185778628Y-100685714D02*
X185731009Y-100733333D01*
X185731009Y-100733333D02*
X185683390Y-100828571D01*
X135907142Y-70609580D02*
X135859523Y-70657200D01*
X135859523Y-70657200D02*
X135716666Y-70704819D01*
X135716666Y-70704819D02*
X135621428Y-70704819D01*
X135621428Y-70704819D02*
X135478571Y-70657200D01*
X135478571Y-70657200D02*
X135383333Y-70561961D01*
X135383333Y-70561961D02*
X135335714Y-70466723D01*
X135335714Y-70466723D02*
X135288095Y-70276247D01*
X135288095Y-70276247D02*
X135288095Y-70133390D01*
X135288095Y-70133390D02*
X135335714Y-69942914D01*
X135335714Y-69942914D02*
X135383333Y-69847676D01*
X135383333Y-69847676D02*
X135478571Y-69752438D01*
X135478571Y-69752438D02*
X135621428Y-69704819D01*
X135621428Y-69704819D02*
X135716666Y-69704819D01*
X135716666Y-69704819D02*
X135859523Y-69752438D01*
X135859523Y-69752438D02*
X135907142Y-69800057D01*
X136764285Y-70038152D02*
X136764285Y-70704819D01*
X136526190Y-69657200D02*
X136288095Y-70371485D01*
X136288095Y-70371485D02*
X136907142Y-70371485D01*
X137240476Y-69800057D02*
X137288095Y-69752438D01*
X137288095Y-69752438D02*
X137383333Y-69704819D01*
X137383333Y-69704819D02*
X137621428Y-69704819D01*
X137621428Y-69704819D02*
X137716666Y-69752438D01*
X137716666Y-69752438D02*
X137764285Y-69800057D01*
X137764285Y-69800057D02*
X137811904Y-69895295D01*
X137811904Y-69895295D02*
X137811904Y-69990533D01*
X137811904Y-69990533D02*
X137764285Y-70133390D01*
X137764285Y-70133390D02*
X137192857Y-70704819D01*
X137192857Y-70704819D02*
X137811904Y-70704819D01*
X110457142Y-63154819D02*
X110123809Y-62678628D01*
X109885714Y-63154819D02*
X109885714Y-62154819D01*
X109885714Y-62154819D02*
X110266666Y-62154819D01*
X110266666Y-62154819D02*
X110361904Y-62202438D01*
X110361904Y-62202438D02*
X110409523Y-62250057D01*
X110409523Y-62250057D02*
X110457142Y-62345295D01*
X110457142Y-62345295D02*
X110457142Y-62488152D01*
X110457142Y-62488152D02*
X110409523Y-62583390D01*
X110409523Y-62583390D02*
X110361904Y-62631009D01*
X110361904Y-62631009D02*
X110266666Y-62678628D01*
X110266666Y-62678628D02*
X109885714Y-62678628D01*
X110790476Y-62154819D02*
X111409523Y-62154819D01*
X111409523Y-62154819D02*
X111076190Y-62535771D01*
X111076190Y-62535771D02*
X111219047Y-62535771D01*
X111219047Y-62535771D02*
X111314285Y-62583390D01*
X111314285Y-62583390D02*
X111361904Y-62631009D01*
X111361904Y-62631009D02*
X111409523Y-62726247D01*
X111409523Y-62726247D02*
X111409523Y-62964342D01*
X111409523Y-62964342D02*
X111361904Y-63059580D01*
X111361904Y-63059580D02*
X111314285Y-63107200D01*
X111314285Y-63107200D02*
X111219047Y-63154819D01*
X111219047Y-63154819D02*
X110933333Y-63154819D01*
X110933333Y-63154819D02*
X110838095Y-63107200D01*
X110838095Y-63107200D02*
X110790476Y-63059580D01*
X112314285Y-62154819D02*
X111838095Y-62154819D01*
X111838095Y-62154819D02*
X111790476Y-62631009D01*
X111790476Y-62631009D02*
X111838095Y-62583390D01*
X111838095Y-62583390D02*
X111933333Y-62535771D01*
X111933333Y-62535771D02*
X112171428Y-62535771D01*
X112171428Y-62535771D02*
X112266666Y-62583390D01*
X112266666Y-62583390D02*
X112314285Y-62631009D01*
X112314285Y-62631009D02*
X112361904Y-62726247D01*
X112361904Y-62726247D02*
X112361904Y-62964342D01*
X112361904Y-62964342D02*
X112314285Y-63059580D01*
X112314285Y-63059580D02*
X112266666Y-63107200D01*
X112266666Y-63107200D02*
X112171428Y-63154819D01*
X112171428Y-63154819D02*
X111933333Y-63154819D01*
X111933333Y-63154819D02*
X111838095Y-63107200D01*
X111838095Y-63107200D02*
X111790476Y-63059580D01*
X99459580Y-110842857D02*
X99507200Y-110890476D01*
X99507200Y-110890476D02*
X99554819Y-111033333D01*
X99554819Y-111033333D02*
X99554819Y-111128571D01*
X99554819Y-111128571D02*
X99507200Y-111271428D01*
X99507200Y-111271428D02*
X99411961Y-111366666D01*
X99411961Y-111366666D02*
X99316723Y-111414285D01*
X99316723Y-111414285D02*
X99126247Y-111461904D01*
X99126247Y-111461904D02*
X98983390Y-111461904D01*
X98983390Y-111461904D02*
X98792914Y-111414285D01*
X98792914Y-111414285D02*
X98697676Y-111366666D01*
X98697676Y-111366666D02*
X98602438Y-111271428D01*
X98602438Y-111271428D02*
X98554819Y-111128571D01*
X98554819Y-111128571D02*
X98554819Y-111033333D01*
X98554819Y-111033333D02*
X98602438Y-110890476D01*
X98602438Y-110890476D02*
X98650057Y-110842857D01*
X98888152Y-109985714D02*
X99554819Y-109985714D01*
X98507200Y-110223809D02*
X99221485Y-110461904D01*
X99221485Y-110461904D02*
X99221485Y-109842857D01*
X98554819Y-109033333D02*
X98554819Y-109223809D01*
X98554819Y-109223809D02*
X98602438Y-109319047D01*
X98602438Y-109319047D02*
X98650057Y-109366666D01*
X98650057Y-109366666D02*
X98792914Y-109461904D01*
X98792914Y-109461904D02*
X98983390Y-109509523D01*
X98983390Y-109509523D02*
X99364342Y-109509523D01*
X99364342Y-109509523D02*
X99459580Y-109461904D01*
X99459580Y-109461904D02*
X99507200Y-109414285D01*
X99507200Y-109414285D02*
X99554819Y-109319047D01*
X99554819Y-109319047D02*
X99554819Y-109128571D01*
X99554819Y-109128571D02*
X99507200Y-109033333D01*
X99507200Y-109033333D02*
X99459580Y-108985714D01*
X99459580Y-108985714D02*
X99364342Y-108938095D01*
X99364342Y-108938095D02*
X99126247Y-108938095D01*
X99126247Y-108938095D02*
X99031009Y-108985714D01*
X99031009Y-108985714D02*
X98983390Y-109033333D01*
X98983390Y-109033333D02*
X98935771Y-109128571D01*
X98935771Y-109128571D02*
X98935771Y-109319047D01*
X98935771Y-109319047D02*
X98983390Y-109414285D01*
X98983390Y-109414285D02*
X99031009Y-109461904D01*
X99031009Y-109461904D02*
X99126247Y-109509523D01*
X123959580Y-104842857D02*
X124007200Y-104890476D01*
X124007200Y-104890476D02*
X124054819Y-105033333D01*
X124054819Y-105033333D02*
X124054819Y-105128571D01*
X124054819Y-105128571D02*
X124007200Y-105271428D01*
X124007200Y-105271428D02*
X123911961Y-105366666D01*
X123911961Y-105366666D02*
X123816723Y-105414285D01*
X123816723Y-105414285D02*
X123626247Y-105461904D01*
X123626247Y-105461904D02*
X123483390Y-105461904D01*
X123483390Y-105461904D02*
X123292914Y-105414285D01*
X123292914Y-105414285D02*
X123197676Y-105366666D01*
X123197676Y-105366666D02*
X123102438Y-105271428D01*
X123102438Y-105271428D02*
X123054819Y-105128571D01*
X123054819Y-105128571D02*
X123054819Y-105033333D01*
X123054819Y-105033333D02*
X123102438Y-104890476D01*
X123102438Y-104890476D02*
X123150057Y-104842857D01*
X123388152Y-103985714D02*
X124054819Y-103985714D01*
X123007200Y-104223809D02*
X123721485Y-104461904D01*
X123721485Y-104461904D02*
X123721485Y-103842857D01*
X123388152Y-103033333D02*
X124054819Y-103033333D01*
X123007200Y-103271428D02*
X123721485Y-103509523D01*
X123721485Y-103509523D02*
X123721485Y-102890476D01*
X179057142Y-73454819D02*
X178723809Y-72978628D01*
X178485714Y-73454819D02*
X178485714Y-72454819D01*
X178485714Y-72454819D02*
X178866666Y-72454819D01*
X178866666Y-72454819D02*
X178961904Y-72502438D01*
X178961904Y-72502438D02*
X179009523Y-72550057D01*
X179009523Y-72550057D02*
X179057142Y-72645295D01*
X179057142Y-72645295D02*
X179057142Y-72788152D01*
X179057142Y-72788152D02*
X179009523Y-72883390D01*
X179009523Y-72883390D02*
X178961904Y-72931009D01*
X178961904Y-72931009D02*
X178866666Y-72978628D01*
X178866666Y-72978628D02*
X178485714Y-72978628D01*
X179438095Y-72550057D02*
X179485714Y-72502438D01*
X179485714Y-72502438D02*
X179580952Y-72454819D01*
X179580952Y-72454819D02*
X179819047Y-72454819D01*
X179819047Y-72454819D02*
X179914285Y-72502438D01*
X179914285Y-72502438D02*
X179961904Y-72550057D01*
X179961904Y-72550057D02*
X180009523Y-72645295D01*
X180009523Y-72645295D02*
X180009523Y-72740533D01*
X180009523Y-72740533D02*
X179961904Y-72883390D01*
X179961904Y-72883390D02*
X179390476Y-73454819D01*
X179390476Y-73454819D02*
X180009523Y-73454819D01*
X180866666Y-72788152D02*
X180866666Y-73454819D01*
X180628571Y-72407200D02*
X180390476Y-73121485D01*
X180390476Y-73121485D02*
X181009523Y-73121485D01*
X98559580Y-86242857D02*
X98607200Y-86290476D01*
X98607200Y-86290476D02*
X98654819Y-86433333D01*
X98654819Y-86433333D02*
X98654819Y-86528571D01*
X98654819Y-86528571D02*
X98607200Y-86671428D01*
X98607200Y-86671428D02*
X98511961Y-86766666D01*
X98511961Y-86766666D02*
X98416723Y-86814285D01*
X98416723Y-86814285D02*
X98226247Y-86861904D01*
X98226247Y-86861904D02*
X98083390Y-86861904D01*
X98083390Y-86861904D02*
X97892914Y-86814285D01*
X97892914Y-86814285D02*
X97797676Y-86766666D01*
X97797676Y-86766666D02*
X97702438Y-86671428D01*
X97702438Y-86671428D02*
X97654819Y-86528571D01*
X97654819Y-86528571D02*
X97654819Y-86433333D01*
X97654819Y-86433333D02*
X97702438Y-86290476D01*
X97702438Y-86290476D02*
X97750057Y-86242857D01*
X97654819Y-85909523D02*
X97654819Y-85242857D01*
X97654819Y-85242857D02*
X98654819Y-85671428D01*
X97654819Y-84433333D02*
X97654819Y-84623809D01*
X97654819Y-84623809D02*
X97702438Y-84719047D01*
X97702438Y-84719047D02*
X97750057Y-84766666D01*
X97750057Y-84766666D02*
X97892914Y-84861904D01*
X97892914Y-84861904D02*
X98083390Y-84909523D01*
X98083390Y-84909523D02*
X98464342Y-84909523D01*
X98464342Y-84909523D02*
X98559580Y-84861904D01*
X98559580Y-84861904D02*
X98607200Y-84814285D01*
X98607200Y-84814285D02*
X98654819Y-84719047D01*
X98654819Y-84719047D02*
X98654819Y-84528571D01*
X98654819Y-84528571D02*
X98607200Y-84433333D01*
X98607200Y-84433333D02*
X98559580Y-84385714D01*
X98559580Y-84385714D02*
X98464342Y-84338095D01*
X98464342Y-84338095D02*
X98226247Y-84338095D01*
X98226247Y-84338095D02*
X98131009Y-84385714D01*
X98131009Y-84385714D02*
X98083390Y-84433333D01*
X98083390Y-84433333D02*
X98035771Y-84528571D01*
X98035771Y-84528571D02*
X98035771Y-84719047D01*
X98035771Y-84719047D02*
X98083390Y-84814285D01*
X98083390Y-84814285D02*
X98131009Y-84861904D01*
X98131009Y-84861904D02*
X98226247Y-84909523D01*
X113782142Y-98704819D02*
X113448809Y-98228628D01*
X113210714Y-98704819D02*
X113210714Y-97704819D01*
X113210714Y-97704819D02*
X113591666Y-97704819D01*
X113591666Y-97704819D02*
X113686904Y-97752438D01*
X113686904Y-97752438D02*
X113734523Y-97800057D01*
X113734523Y-97800057D02*
X113782142Y-97895295D01*
X113782142Y-97895295D02*
X113782142Y-98038152D01*
X113782142Y-98038152D02*
X113734523Y-98133390D01*
X113734523Y-98133390D02*
X113686904Y-98181009D01*
X113686904Y-98181009D02*
X113591666Y-98228628D01*
X113591666Y-98228628D02*
X113210714Y-98228628D01*
X114115476Y-97704819D02*
X114734523Y-97704819D01*
X114734523Y-97704819D02*
X114401190Y-98085771D01*
X114401190Y-98085771D02*
X114544047Y-98085771D01*
X114544047Y-98085771D02*
X114639285Y-98133390D01*
X114639285Y-98133390D02*
X114686904Y-98181009D01*
X114686904Y-98181009D02*
X114734523Y-98276247D01*
X114734523Y-98276247D02*
X114734523Y-98514342D01*
X114734523Y-98514342D02*
X114686904Y-98609580D01*
X114686904Y-98609580D02*
X114639285Y-98657200D01*
X114639285Y-98657200D02*
X114544047Y-98704819D01*
X114544047Y-98704819D02*
X114258333Y-98704819D01*
X114258333Y-98704819D02*
X114163095Y-98657200D01*
X114163095Y-98657200D02*
X114115476Y-98609580D01*
X115686904Y-98704819D02*
X115115476Y-98704819D01*
X115401190Y-98704819D02*
X115401190Y-97704819D01*
X115401190Y-97704819D02*
X115305952Y-97847676D01*
X115305952Y-97847676D02*
X115210714Y-97942914D01*
X115210714Y-97942914D02*
X115115476Y-97990533D01*
D11*
X159879047Y-96095270D02*
X159758095Y-96034794D01*
X159758095Y-96034794D02*
X159637142Y-95913842D01*
X159637142Y-95913842D02*
X159455714Y-95732413D01*
X159455714Y-95732413D02*
X159334761Y-95671937D01*
X159334761Y-95671937D02*
X159213809Y-95671937D01*
X159274285Y-95974318D02*
X159153333Y-95913842D01*
X159153333Y-95913842D02*
X159032380Y-95792889D01*
X159032380Y-95792889D02*
X158971904Y-95550984D01*
X158971904Y-95550984D02*
X158971904Y-95127651D01*
X158971904Y-95127651D02*
X159032380Y-94885746D01*
X159032380Y-94885746D02*
X159153333Y-94764794D01*
X159153333Y-94764794D02*
X159274285Y-94704318D01*
X159274285Y-94704318D02*
X159516190Y-94704318D01*
X159516190Y-94704318D02*
X159637142Y-94764794D01*
X159637142Y-94764794D02*
X159758095Y-94885746D01*
X159758095Y-94885746D02*
X159818571Y-95127651D01*
X159818571Y-95127651D02*
X159818571Y-95550984D01*
X159818571Y-95550984D02*
X159758095Y-95792889D01*
X159758095Y-95792889D02*
X159637142Y-95913842D01*
X159637142Y-95913842D02*
X159516190Y-95974318D01*
X159516190Y-95974318D02*
X159274285Y-95974318D01*
X161028095Y-95974318D02*
X160302380Y-95974318D01*
X160665237Y-95974318D02*
X160665237Y-94704318D01*
X160665237Y-94704318D02*
X160544285Y-94885746D01*
X160544285Y-94885746D02*
X160423333Y-95006699D01*
X160423333Y-95006699D02*
X160302380Y-95067175D01*
D12*
X165098333Y-92229819D02*
X164765000Y-91753628D01*
X164526905Y-92229819D02*
X164526905Y-91229819D01*
X164526905Y-91229819D02*
X164907857Y-91229819D01*
X164907857Y-91229819D02*
X165003095Y-91277438D01*
X165003095Y-91277438D02*
X165050714Y-91325057D01*
X165050714Y-91325057D02*
X165098333Y-91420295D01*
X165098333Y-91420295D02*
X165098333Y-91563152D01*
X165098333Y-91563152D02*
X165050714Y-91658390D01*
X165050714Y-91658390D02*
X165003095Y-91706009D01*
X165003095Y-91706009D02*
X164907857Y-91753628D01*
X164907857Y-91753628D02*
X164526905Y-91753628D01*
X165955476Y-91229819D02*
X165765000Y-91229819D01*
X165765000Y-91229819D02*
X165669762Y-91277438D01*
X165669762Y-91277438D02*
X165622143Y-91325057D01*
X165622143Y-91325057D02*
X165526905Y-91467914D01*
X165526905Y-91467914D02*
X165479286Y-91658390D01*
X165479286Y-91658390D02*
X165479286Y-92039342D01*
X165479286Y-92039342D02*
X165526905Y-92134580D01*
X165526905Y-92134580D02*
X165574524Y-92182200D01*
X165574524Y-92182200D02*
X165669762Y-92229819D01*
X165669762Y-92229819D02*
X165860238Y-92229819D01*
X165860238Y-92229819D02*
X165955476Y-92182200D01*
X165955476Y-92182200D02*
X166003095Y-92134580D01*
X166003095Y-92134580D02*
X166050714Y-92039342D01*
X166050714Y-92039342D02*
X166050714Y-91801247D01*
X166050714Y-91801247D02*
X166003095Y-91706009D01*
X166003095Y-91706009D02*
X165955476Y-91658390D01*
X165955476Y-91658390D02*
X165860238Y-91610771D01*
X165860238Y-91610771D02*
X165669762Y-91610771D01*
X165669762Y-91610771D02*
X165574524Y-91658390D01*
X165574524Y-91658390D02*
X165526905Y-91706009D01*
X165526905Y-91706009D02*
X165479286Y-91801247D01*
X178333333Y-107954819D02*
X178000000Y-107478628D01*
X177761905Y-107954819D02*
X177761905Y-106954819D01*
X177761905Y-106954819D02*
X178142857Y-106954819D01*
X178142857Y-106954819D02*
X178238095Y-107002438D01*
X178238095Y-107002438D02*
X178285714Y-107050057D01*
X178285714Y-107050057D02*
X178333333Y-107145295D01*
X178333333Y-107145295D02*
X178333333Y-107288152D01*
X178333333Y-107288152D02*
X178285714Y-107383390D01*
X178285714Y-107383390D02*
X178238095Y-107431009D01*
X178238095Y-107431009D02*
X178142857Y-107478628D01*
X178142857Y-107478628D02*
X177761905Y-107478628D01*
X178904762Y-107383390D02*
X178809524Y-107335771D01*
X178809524Y-107335771D02*
X178761905Y-107288152D01*
X178761905Y-107288152D02*
X178714286Y-107192914D01*
X178714286Y-107192914D02*
X178714286Y-107145295D01*
X178714286Y-107145295D02*
X178761905Y-107050057D01*
X178761905Y-107050057D02*
X178809524Y-107002438D01*
X178809524Y-107002438D02*
X178904762Y-106954819D01*
X178904762Y-106954819D02*
X179095238Y-106954819D01*
X179095238Y-106954819D02*
X179190476Y-107002438D01*
X179190476Y-107002438D02*
X179238095Y-107050057D01*
X179238095Y-107050057D02*
X179285714Y-107145295D01*
X179285714Y-107145295D02*
X179285714Y-107192914D01*
X179285714Y-107192914D02*
X179238095Y-107288152D01*
X179238095Y-107288152D02*
X179190476Y-107335771D01*
X179190476Y-107335771D02*
X179095238Y-107383390D01*
X179095238Y-107383390D02*
X178904762Y-107383390D01*
X178904762Y-107383390D02*
X178809524Y-107431009D01*
X178809524Y-107431009D02*
X178761905Y-107478628D01*
X178761905Y-107478628D02*
X178714286Y-107573866D01*
X178714286Y-107573866D02*
X178714286Y-107764342D01*
X178714286Y-107764342D02*
X178761905Y-107859580D01*
X178761905Y-107859580D02*
X178809524Y-107907200D01*
X178809524Y-107907200D02*
X178904762Y-107954819D01*
X178904762Y-107954819D02*
X179095238Y-107954819D01*
X179095238Y-107954819D02*
X179190476Y-107907200D01*
X179190476Y-107907200D02*
X179238095Y-107859580D01*
X179238095Y-107859580D02*
X179285714Y-107764342D01*
X179285714Y-107764342D02*
X179285714Y-107573866D01*
X179285714Y-107573866D02*
X179238095Y-107478628D01*
X179238095Y-107478628D02*
X179190476Y-107431009D01*
X179190476Y-107431009D02*
X179095238Y-107383390D01*
D11*
X132663842Y-62593333D02*
X132724318Y-62411904D01*
X132724318Y-62411904D02*
X132724318Y-62109523D01*
X132724318Y-62109523D02*
X132663842Y-61988571D01*
X132663842Y-61988571D02*
X132603365Y-61928095D01*
X132603365Y-61928095D02*
X132482413Y-61867618D01*
X132482413Y-61867618D02*
X132361461Y-61867618D01*
X132361461Y-61867618D02*
X132240508Y-61928095D01*
X132240508Y-61928095D02*
X132180032Y-61988571D01*
X132180032Y-61988571D02*
X132119556Y-62109523D01*
X132119556Y-62109523D02*
X132059080Y-62351428D01*
X132059080Y-62351428D02*
X131998603Y-62472380D01*
X131998603Y-62472380D02*
X131938127Y-62532857D01*
X131938127Y-62532857D02*
X131817175Y-62593333D01*
X131817175Y-62593333D02*
X131696222Y-62593333D01*
X131696222Y-62593333D02*
X131575270Y-62532857D01*
X131575270Y-62532857D02*
X131514794Y-62472380D01*
X131514794Y-62472380D02*
X131454318Y-62351428D01*
X131454318Y-62351428D02*
X131454318Y-62049047D01*
X131454318Y-62049047D02*
X131514794Y-61867618D01*
X131454318Y-61444285D02*
X132724318Y-61141904D01*
X132724318Y-61141904D02*
X131817175Y-60899999D01*
X131817175Y-60899999D02*
X132724318Y-60658094D01*
X132724318Y-60658094D02*
X131454318Y-60355714D01*
X132724318Y-59206665D02*
X132724318Y-59932380D01*
X132724318Y-59569523D02*
X131454318Y-59569523D01*
X131454318Y-59569523D02*
X131635746Y-59690475D01*
X131635746Y-59690475D02*
X131756699Y-59811427D01*
X131756699Y-59811427D02*
X131817175Y-59932380D01*
X176104318Y-112323332D02*
X177011461Y-112323332D01*
X177011461Y-112323332D02*
X177192889Y-112383809D01*
X177192889Y-112383809D02*
X177313842Y-112504761D01*
X177313842Y-112504761D02*
X177374318Y-112686190D01*
X177374318Y-112686190D02*
X177374318Y-112807142D01*
X177374318Y-111053332D02*
X177374318Y-111779047D01*
X177374318Y-111416190D02*
X176104318Y-111416190D01*
X176104318Y-111416190D02*
X176285746Y-111537142D01*
X176285746Y-111537142D02*
X176406699Y-111658094D01*
X176406699Y-111658094D02*
X176467175Y-111779047D01*
D12*
X109757142Y-106859580D02*
X109709523Y-106907200D01*
X109709523Y-106907200D02*
X109566666Y-106954819D01*
X109566666Y-106954819D02*
X109471428Y-106954819D01*
X109471428Y-106954819D02*
X109328571Y-106907200D01*
X109328571Y-106907200D02*
X109233333Y-106811961D01*
X109233333Y-106811961D02*
X109185714Y-106716723D01*
X109185714Y-106716723D02*
X109138095Y-106526247D01*
X109138095Y-106526247D02*
X109138095Y-106383390D01*
X109138095Y-106383390D02*
X109185714Y-106192914D01*
X109185714Y-106192914D02*
X109233333Y-106097676D01*
X109233333Y-106097676D02*
X109328571Y-106002438D01*
X109328571Y-106002438D02*
X109471428Y-105954819D01*
X109471428Y-105954819D02*
X109566666Y-105954819D01*
X109566666Y-105954819D02*
X109709523Y-106002438D01*
X109709523Y-106002438D02*
X109757142Y-106050057D01*
X110614285Y-106288152D02*
X110614285Y-106954819D01*
X110376190Y-105907200D02*
X110138095Y-106621485D01*
X110138095Y-106621485D02*
X110757142Y-106621485D01*
X111280952Y-106383390D02*
X111185714Y-106335771D01*
X111185714Y-106335771D02*
X111138095Y-106288152D01*
X111138095Y-106288152D02*
X111090476Y-106192914D01*
X111090476Y-106192914D02*
X111090476Y-106145295D01*
X111090476Y-106145295D02*
X111138095Y-106050057D01*
X111138095Y-106050057D02*
X111185714Y-106002438D01*
X111185714Y-106002438D02*
X111280952Y-105954819D01*
X111280952Y-105954819D02*
X111471428Y-105954819D01*
X111471428Y-105954819D02*
X111566666Y-106002438D01*
X111566666Y-106002438D02*
X111614285Y-106050057D01*
X111614285Y-106050057D02*
X111661904Y-106145295D01*
X111661904Y-106145295D02*
X111661904Y-106192914D01*
X111661904Y-106192914D02*
X111614285Y-106288152D01*
X111614285Y-106288152D02*
X111566666Y-106335771D01*
X111566666Y-106335771D02*
X111471428Y-106383390D01*
X111471428Y-106383390D02*
X111280952Y-106383390D01*
X111280952Y-106383390D02*
X111185714Y-106431009D01*
X111185714Y-106431009D02*
X111138095Y-106478628D01*
X111138095Y-106478628D02*
X111090476Y-106573866D01*
X111090476Y-106573866D02*
X111090476Y-106764342D01*
X111090476Y-106764342D02*
X111138095Y-106859580D01*
X111138095Y-106859580D02*
X111185714Y-106907200D01*
X111185714Y-106907200D02*
X111280952Y-106954819D01*
X111280952Y-106954819D02*
X111471428Y-106954819D01*
X111471428Y-106954819D02*
X111566666Y-106907200D01*
X111566666Y-106907200D02*
X111614285Y-106859580D01*
X111614285Y-106859580D02*
X111661904Y-106764342D01*
X111661904Y-106764342D02*
X111661904Y-106573866D01*
X111661904Y-106573866D02*
X111614285Y-106478628D01*
X111614285Y-106478628D02*
X111566666Y-106431009D01*
X111566666Y-106431009D02*
X111471428Y-106383390D01*
D11*
X186279047Y-95145270D02*
X186158095Y-95084794D01*
X186158095Y-95084794D02*
X186037142Y-94963842D01*
X186037142Y-94963842D02*
X185855714Y-94782413D01*
X185855714Y-94782413D02*
X185734761Y-94721937D01*
X185734761Y-94721937D02*
X185613809Y-94721937D01*
X185674285Y-95024318D02*
X185553333Y-94963842D01*
X185553333Y-94963842D02*
X185432380Y-94842889D01*
X185432380Y-94842889D02*
X185371904Y-94600984D01*
X185371904Y-94600984D02*
X185371904Y-94177651D01*
X185371904Y-94177651D02*
X185432380Y-93935746D01*
X185432380Y-93935746D02*
X185553333Y-93814794D01*
X185553333Y-93814794D02*
X185674285Y-93754318D01*
X185674285Y-93754318D02*
X185916190Y-93754318D01*
X185916190Y-93754318D02*
X186037142Y-93814794D01*
X186037142Y-93814794D02*
X186158095Y-93935746D01*
X186158095Y-93935746D02*
X186218571Y-94177651D01*
X186218571Y-94177651D02*
X186218571Y-94600984D01*
X186218571Y-94600984D02*
X186158095Y-94842889D01*
X186158095Y-94842889D02*
X186037142Y-94963842D01*
X186037142Y-94963842D02*
X185916190Y-95024318D01*
X185916190Y-95024318D02*
X185674285Y-95024318D01*
X187367618Y-93754318D02*
X186762856Y-93754318D01*
X186762856Y-93754318D02*
X186702380Y-94359080D01*
X186702380Y-94359080D02*
X186762856Y-94298603D01*
X186762856Y-94298603D02*
X186883809Y-94238127D01*
X186883809Y-94238127D02*
X187186190Y-94238127D01*
X187186190Y-94238127D02*
X187307142Y-94298603D01*
X187307142Y-94298603D02*
X187367618Y-94359080D01*
X187367618Y-94359080D02*
X187428095Y-94480032D01*
X187428095Y-94480032D02*
X187428095Y-94782413D01*
X187428095Y-94782413D02*
X187367618Y-94903365D01*
X187367618Y-94903365D02*
X187307142Y-94963842D01*
X187307142Y-94963842D02*
X187186190Y-95024318D01*
X187186190Y-95024318D02*
X186883809Y-95024318D01*
X186883809Y-95024318D02*
X186762856Y-94963842D01*
X186762856Y-94963842D02*
X186702380Y-94903365D01*
D12*
X99516666Y-102131009D02*
X99183333Y-102131009D01*
X99183333Y-102654819D02*
X99183333Y-101654819D01*
X99183333Y-101654819D02*
X99659523Y-101654819D01*
X100373809Y-102131009D02*
X100516666Y-102178628D01*
X100516666Y-102178628D02*
X100564285Y-102226247D01*
X100564285Y-102226247D02*
X100611904Y-102321485D01*
X100611904Y-102321485D02*
X100611904Y-102464342D01*
X100611904Y-102464342D02*
X100564285Y-102559580D01*
X100564285Y-102559580D02*
X100516666Y-102607200D01*
X100516666Y-102607200D02*
X100421428Y-102654819D01*
X100421428Y-102654819D02*
X100040476Y-102654819D01*
X100040476Y-102654819D02*
X100040476Y-101654819D01*
X100040476Y-101654819D02*
X100373809Y-101654819D01*
X100373809Y-101654819D02*
X100469047Y-101702438D01*
X100469047Y-101702438D02*
X100516666Y-101750057D01*
X100516666Y-101750057D02*
X100564285Y-101845295D01*
X100564285Y-101845295D02*
X100564285Y-101940533D01*
X100564285Y-101940533D02*
X100516666Y-102035771D01*
X100516666Y-102035771D02*
X100469047Y-102083390D01*
X100469047Y-102083390D02*
X100373809Y-102131009D01*
X100373809Y-102131009D02*
X100040476Y-102131009D01*
X101564285Y-102654819D02*
X100992857Y-102654819D01*
X101278571Y-102654819D02*
X101278571Y-101654819D01*
X101278571Y-101654819D02*
X101183333Y-101797676D01*
X101183333Y-101797676D02*
X101088095Y-101892914D01*
X101088095Y-101892914D02*
X100992857Y-101940533D01*
X101957142Y-65279819D02*
X101623809Y-64803628D01*
X101385714Y-65279819D02*
X101385714Y-64279819D01*
X101385714Y-64279819D02*
X101766666Y-64279819D01*
X101766666Y-64279819D02*
X101861904Y-64327438D01*
X101861904Y-64327438D02*
X101909523Y-64375057D01*
X101909523Y-64375057D02*
X101957142Y-64470295D01*
X101957142Y-64470295D02*
X101957142Y-64613152D01*
X101957142Y-64613152D02*
X101909523Y-64708390D01*
X101909523Y-64708390D02*
X101861904Y-64756009D01*
X101861904Y-64756009D02*
X101766666Y-64803628D01*
X101766666Y-64803628D02*
X101385714Y-64803628D01*
X102290476Y-64279819D02*
X102909523Y-64279819D01*
X102909523Y-64279819D02*
X102576190Y-64660771D01*
X102576190Y-64660771D02*
X102719047Y-64660771D01*
X102719047Y-64660771D02*
X102814285Y-64708390D01*
X102814285Y-64708390D02*
X102861904Y-64756009D01*
X102861904Y-64756009D02*
X102909523Y-64851247D01*
X102909523Y-64851247D02*
X102909523Y-65089342D01*
X102909523Y-65089342D02*
X102861904Y-65184580D01*
X102861904Y-65184580D02*
X102814285Y-65232200D01*
X102814285Y-65232200D02*
X102719047Y-65279819D01*
X102719047Y-65279819D02*
X102433333Y-65279819D01*
X102433333Y-65279819D02*
X102338095Y-65232200D01*
X102338095Y-65232200D02*
X102290476Y-65184580D01*
X103766666Y-64279819D02*
X103576190Y-64279819D01*
X103576190Y-64279819D02*
X103480952Y-64327438D01*
X103480952Y-64327438D02*
X103433333Y-64375057D01*
X103433333Y-64375057D02*
X103338095Y-64517914D01*
X103338095Y-64517914D02*
X103290476Y-64708390D01*
X103290476Y-64708390D02*
X103290476Y-65089342D01*
X103290476Y-65089342D02*
X103338095Y-65184580D01*
X103338095Y-65184580D02*
X103385714Y-65232200D01*
X103385714Y-65232200D02*
X103480952Y-65279819D01*
X103480952Y-65279819D02*
X103671428Y-65279819D01*
X103671428Y-65279819D02*
X103766666Y-65232200D01*
X103766666Y-65232200D02*
X103814285Y-65184580D01*
X103814285Y-65184580D02*
X103861904Y-65089342D01*
X103861904Y-65089342D02*
X103861904Y-64851247D01*
X103861904Y-64851247D02*
X103814285Y-64756009D01*
X103814285Y-64756009D02*
X103766666Y-64708390D01*
X103766666Y-64708390D02*
X103671428Y-64660771D01*
X103671428Y-64660771D02*
X103480952Y-64660771D01*
X103480952Y-64660771D02*
X103385714Y-64708390D01*
X103385714Y-64708390D02*
X103338095Y-64756009D01*
X103338095Y-64756009D02*
X103290476Y-64851247D01*
X178358333Y-93954819D02*
X178025000Y-93478628D01*
X177786905Y-93954819D02*
X177786905Y-92954819D01*
X177786905Y-92954819D02*
X178167857Y-92954819D01*
X178167857Y-92954819D02*
X178263095Y-93002438D01*
X178263095Y-93002438D02*
X178310714Y-93050057D01*
X178310714Y-93050057D02*
X178358333Y-93145295D01*
X178358333Y-93145295D02*
X178358333Y-93288152D01*
X178358333Y-93288152D02*
X178310714Y-93383390D01*
X178310714Y-93383390D02*
X178263095Y-93431009D01*
X178263095Y-93431009D02*
X178167857Y-93478628D01*
X178167857Y-93478628D02*
X177786905Y-93478628D01*
X179263095Y-92954819D02*
X178786905Y-92954819D01*
X178786905Y-92954819D02*
X178739286Y-93431009D01*
X178739286Y-93431009D02*
X178786905Y-93383390D01*
X178786905Y-93383390D02*
X178882143Y-93335771D01*
X178882143Y-93335771D02*
X179120238Y-93335771D01*
X179120238Y-93335771D02*
X179215476Y-93383390D01*
X179215476Y-93383390D02*
X179263095Y-93431009D01*
X179263095Y-93431009D02*
X179310714Y-93526247D01*
X179310714Y-93526247D02*
X179310714Y-93764342D01*
X179310714Y-93764342D02*
X179263095Y-93859580D01*
X179263095Y-93859580D02*
X179215476Y-93907200D01*
X179215476Y-93907200D02*
X179120238Y-93954819D01*
X179120238Y-93954819D02*
X178882143Y-93954819D01*
X178882143Y-93954819D02*
X178786905Y-93907200D01*
X178786905Y-93907200D02*
X178739286Y-93859580D01*
D11*
X121210237Y-101524318D02*
X121210237Y-100254318D01*
X122540714Y-101403365D02*
X122480238Y-101463842D01*
X122480238Y-101463842D02*
X122298809Y-101524318D01*
X122298809Y-101524318D02*
X122177857Y-101524318D01*
X122177857Y-101524318D02*
X121996428Y-101463842D01*
X121996428Y-101463842D02*
X121875476Y-101342889D01*
X121875476Y-101342889D02*
X121814999Y-101221937D01*
X121814999Y-101221937D02*
X121754523Y-100980032D01*
X121754523Y-100980032D02*
X121754523Y-100798603D01*
X121754523Y-100798603D02*
X121814999Y-100556699D01*
X121814999Y-100556699D02*
X121875476Y-100435746D01*
X121875476Y-100435746D02*
X121996428Y-100314794D01*
X121996428Y-100314794D02*
X122177857Y-100254318D01*
X122177857Y-100254318D02*
X122298809Y-100254318D01*
X122298809Y-100254318D02*
X122480238Y-100314794D01*
X122480238Y-100314794D02*
X122540714Y-100375270D01*
X123689761Y-100254318D02*
X123084999Y-100254318D01*
X123084999Y-100254318D02*
X123024523Y-100859080D01*
X123024523Y-100859080D02*
X123084999Y-100798603D01*
X123084999Y-100798603D02*
X123205952Y-100738127D01*
X123205952Y-100738127D02*
X123508333Y-100738127D01*
X123508333Y-100738127D02*
X123629285Y-100798603D01*
X123629285Y-100798603D02*
X123689761Y-100859080D01*
X123689761Y-100859080D02*
X123750238Y-100980032D01*
X123750238Y-100980032D02*
X123750238Y-101282413D01*
X123750238Y-101282413D02*
X123689761Y-101403365D01*
X123689761Y-101403365D02*
X123629285Y-101463842D01*
X123629285Y-101463842D02*
X123508333Y-101524318D01*
X123508333Y-101524318D02*
X123205952Y-101524318D01*
X123205952Y-101524318D02*
X123084999Y-101463842D01*
X123084999Y-101463842D02*
X123024523Y-101403365D01*
D12*
X114657142Y-63154819D02*
X114323809Y-62678628D01*
X114085714Y-63154819D02*
X114085714Y-62154819D01*
X114085714Y-62154819D02*
X114466666Y-62154819D01*
X114466666Y-62154819D02*
X114561904Y-62202438D01*
X114561904Y-62202438D02*
X114609523Y-62250057D01*
X114609523Y-62250057D02*
X114657142Y-62345295D01*
X114657142Y-62345295D02*
X114657142Y-62488152D01*
X114657142Y-62488152D02*
X114609523Y-62583390D01*
X114609523Y-62583390D02*
X114561904Y-62631009D01*
X114561904Y-62631009D02*
X114466666Y-62678628D01*
X114466666Y-62678628D02*
X114085714Y-62678628D01*
X114990476Y-62154819D02*
X115609523Y-62154819D01*
X115609523Y-62154819D02*
X115276190Y-62535771D01*
X115276190Y-62535771D02*
X115419047Y-62535771D01*
X115419047Y-62535771D02*
X115514285Y-62583390D01*
X115514285Y-62583390D02*
X115561904Y-62631009D01*
X115561904Y-62631009D02*
X115609523Y-62726247D01*
X115609523Y-62726247D02*
X115609523Y-62964342D01*
X115609523Y-62964342D02*
X115561904Y-63059580D01*
X115561904Y-63059580D02*
X115514285Y-63107200D01*
X115514285Y-63107200D02*
X115419047Y-63154819D01*
X115419047Y-63154819D02*
X115133333Y-63154819D01*
X115133333Y-63154819D02*
X115038095Y-63107200D01*
X115038095Y-63107200D02*
X114990476Y-63059580D01*
X115942857Y-62154819D02*
X116561904Y-62154819D01*
X116561904Y-62154819D02*
X116228571Y-62535771D01*
X116228571Y-62535771D02*
X116371428Y-62535771D01*
X116371428Y-62535771D02*
X116466666Y-62583390D01*
X116466666Y-62583390D02*
X116514285Y-62631009D01*
X116514285Y-62631009D02*
X116561904Y-62726247D01*
X116561904Y-62726247D02*
X116561904Y-62964342D01*
X116561904Y-62964342D02*
X116514285Y-63059580D01*
X116514285Y-63059580D02*
X116466666Y-63107200D01*
X116466666Y-63107200D02*
X116371428Y-63154819D01*
X116371428Y-63154819D02*
X116085714Y-63154819D01*
X116085714Y-63154819D02*
X115990476Y-63107200D01*
X115990476Y-63107200D02*
X115942857Y-63059580D01*
X132457142Y-91454819D02*
X132123809Y-90978628D01*
X131885714Y-91454819D02*
X131885714Y-90454819D01*
X131885714Y-90454819D02*
X132266666Y-90454819D01*
X132266666Y-90454819D02*
X132361904Y-90502438D01*
X132361904Y-90502438D02*
X132409523Y-90550057D01*
X132409523Y-90550057D02*
X132457142Y-90645295D01*
X132457142Y-90645295D02*
X132457142Y-90788152D01*
X132457142Y-90788152D02*
X132409523Y-90883390D01*
X132409523Y-90883390D02*
X132361904Y-90931009D01*
X132361904Y-90931009D02*
X132266666Y-90978628D01*
X132266666Y-90978628D02*
X131885714Y-90978628D01*
X133409523Y-91454819D02*
X132838095Y-91454819D01*
X133123809Y-91454819D02*
X133123809Y-90454819D01*
X133123809Y-90454819D02*
X133028571Y-90597676D01*
X133028571Y-90597676D02*
X132933333Y-90692914D01*
X132933333Y-90692914D02*
X132838095Y-90740533D01*
X133790476Y-90550057D02*
X133838095Y-90502438D01*
X133838095Y-90502438D02*
X133933333Y-90454819D01*
X133933333Y-90454819D02*
X134171428Y-90454819D01*
X134171428Y-90454819D02*
X134266666Y-90502438D01*
X134266666Y-90502438D02*
X134314285Y-90550057D01*
X134314285Y-90550057D02*
X134361904Y-90645295D01*
X134361904Y-90645295D02*
X134361904Y-90740533D01*
X134361904Y-90740533D02*
X134314285Y-90883390D01*
X134314285Y-90883390D02*
X133742857Y-91454819D01*
X133742857Y-91454819D02*
X134361904Y-91454819D01*
X146104819Y-100433333D02*
X146819104Y-100433333D01*
X146819104Y-100433333D02*
X146961961Y-100480952D01*
X146961961Y-100480952D02*
X147057200Y-100576190D01*
X147057200Y-100576190D02*
X147104819Y-100719047D01*
X147104819Y-100719047D02*
X147104819Y-100814285D01*
X146200057Y-100004761D02*
X146152438Y-99957142D01*
X146152438Y-99957142D02*
X146104819Y-99861904D01*
X146104819Y-99861904D02*
X146104819Y-99623809D01*
X146104819Y-99623809D02*
X146152438Y-99528571D01*
X146152438Y-99528571D02*
X146200057Y-99480952D01*
X146200057Y-99480952D02*
X146295295Y-99433333D01*
X146295295Y-99433333D02*
X146390533Y-99433333D01*
X146390533Y-99433333D02*
X146533390Y-99480952D01*
X146533390Y-99480952D02*
X147104819Y-100052380D01*
X147104819Y-100052380D02*
X147104819Y-99433333D01*
X152954819Y-91742857D02*
X152478628Y-92076190D01*
X152954819Y-92314285D02*
X151954819Y-92314285D01*
X151954819Y-92314285D02*
X151954819Y-91933333D01*
X151954819Y-91933333D02*
X152002438Y-91838095D01*
X152002438Y-91838095D02*
X152050057Y-91790476D01*
X152050057Y-91790476D02*
X152145295Y-91742857D01*
X152145295Y-91742857D02*
X152288152Y-91742857D01*
X152288152Y-91742857D02*
X152383390Y-91790476D01*
X152383390Y-91790476D02*
X152431009Y-91838095D01*
X152431009Y-91838095D02*
X152478628Y-91933333D01*
X152478628Y-91933333D02*
X152478628Y-92314285D01*
X152954819Y-90790476D02*
X152954819Y-91361904D01*
X152954819Y-91076190D02*
X151954819Y-91076190D01*
X151954819Y-91076190D02*
X152097676Y-91171428D01*
X152097676Y-91171428D02*
X152192914Y-91266666D01*
X152192914Y-91266666D02*
X152240533Y-91361904D01*
X152288152Y-89933333D02*
X152954819Y-89933333D01*
X151907200Y-90171428D02*
X152621485Y-90409523D01*
X152621485Y-90409523D02*
X152621485Y-89790476D01*
X178408333Y-95719819D02*
X178075000Y-95243628D01*
X177836905Y-95719819D02*
X177836905Y-94719819D01*
X177836905Y-94719819D02*
X178217857Y-94719819D01*
X178217857Y-94719819D02*
X178313095Y-94767438D01*
X178313095Y-94767438D02*
X178360714Y-94815057D01*
X178360714Y-94815057D02*
X178408333Y-94910295D01*
X178408333Y-94910295D02*
X178408333Y-95053152D01*
X178408333Y-95053152D02*
X178360714Y-95148390D01*
X178360714Y-95148390D02*
X178313095Y-95196009D01*
X178313095Y-95196009D02*
X178217857Y-95243628D01*
X178217857Y-95243628D02*
X177836905Y-95243628D01*
X179265476Y-95053152D02*
X179265476Y-95719819D01*
X179027381Y-94672200D02*
X178789286Y-95386485D01*
X178789286Y-95386485D02*
X179408333Y-95386485D01*
D11*
X121126667Y-108554318D02*
X121126667Y-109461461D01*
X121126667Y-109461461D02*
X121066190Y-109642889D01*
X121066190Y-109642889D02*
X120945238Y-109763842D01*
X120945238Y-109763842D02*
X120763809Y-109824318D01*
X120763809Y-109824318D02*
X120642857Y-109824318D01*
X121610476Y-108554318D02*
X122457143Y-108554318D01*
X122457143Y-108554318D02*
X121912857Y-109824318D01*
D12*
X175133333Y-94429819D02*
X174800000Y-93953628D01*
X174561905Y-94429819D02*
X174561905Y-93429819D01*
X174561905Y-93429819D02*
X174942857Y-93429819D01*
X174942857Y-93429819D02*
X175038095Y-93477438D01*
X175038095Y-93477438D02*
X175085714Y-93525057D01*
X175085714Y-93525057D02*
X175133333Y-93620295D01*
X175133333Y-93620295D02*
X175133333Y-93763152D01*
X175133333Y-93763152D02*
X175085714Y-93858390D01*
X175085714Y-93858390D02*
X175038095Y-93906009D01*
X175038095Y-93906009D02*
X174942857Y-93953628D01*
X174942857Y-93953628D02*
X174561905Y-93953628D01*
X175466667Y-93429819D02*
X176085714Y-93429819D01*
X176085714Y-93429819D02*
X175752381Y-93810771D01*
X175752381Y-93810771D02*
X175895238Y-93810771D01*
X175895238Y-93810771D02*
X175990476Y-93858390D01*
X175990476Y-93858390D02*
X176038095Y-93906009D01*
X176038095Y-93906009D02*
X176085714Y-94001247D01*
X176085714Y-94001247D02*
X176085714Y-94239342D01*
X176085714Y-94239342D02*
X176038095Y-94334580D01*
X176038095Y-94334580D02*
X175990476Y-94382200D01*
X175990476Y-94382200D02*
X175895238Y-94429819D01*
X175895238Y-94429819D02*
X175609524Y-94429819D01*
X175609524Y-94429819D02*
X175514286Y-94382200D01*
X175514286Y-94382200D02*
X175466667Y-94334580D01*
D11*
X159934047Y-81695270D02*
X159813095Y-81634794D01*
X159813095Y-81634794D02*
X159692142Y-81513842D01*
X159692142Y-81513842D02*
X159510714Y-81332413D01*
X159510714Y-81332413D02*
X159389761Y-81271937D01*
X159389761Y-81271937D02*
X159268809Y-81271937D01*
X159329285Y-81574318D02*
X159208333Y-81513842D01*
X159208333Y-81513842D02*
X159087380Y-81392889D01*
X159087380Y-81392889D02*
X159026904Y-81150984D01*
X159026904Y-81150984D02*
X159026904Y-80727651D01*
X159026904Y-80727651D02*
X159087380Y-80485746D01*
X159087380Y-80485746D02*
X159208333Y-80364794D01*
X159208333Y-80364794D02*
X159329285Y-80304318D01*
X159329285Y-80304318D02*
X159571190Y-80304318D01*
X159571190Y-80304318D02*
X159692142Y-80364794D01*
X159692142Y-80364794D02*
X159813095Y-80485746D01*
X159813095Y-80485746D02*
X159873571Y-80727651D01*
X159873571Y-80727651D02*
X159873571Y-81150984D01*
X159873571Y-81150984D02*
X159813095Y-81392889D01*
X159813095Y-81392889D02*
X159692142Y-81513842D01*
X159692142Y-81513842D02*
X159571190Y-81574318D01*
X159571190Y-81574318D02*
X159329285Y-81574318D01*
X160357380Y-80425270D02*
X160417856Y-80364794D01*
X160417856Y-80364794D02*
X160538809Y-80304318D01*
X160538809Y-80304318D02*
X160841190Y-80304318D01*
X160841190Y-80304318D02*
X160962142Y-80364794D01*
X160962142Y-80364794D02*
X161022618Y-80425270D01*
X161022618Y-80425270D02*
X161083095Y-80546222D01*
X161083095Y-80546222D02*
X161083095Y-80667175D01*
X161083095Y-80667175D02*
X161022618Y-80848603D01*
X161022618Y-80848603D02*
X160296904Y-81574318D01*
X160296904Y-81574318D02*
X161083095Y-81574318D01*
D12*
X148057142Y-74854819D02*
X147723809Y-74378628D01*
X147485714Y-74854819D02*
X147485714Y-73854819D01*
X147485714Y-73854819D02*
X147866666Y-73854819D01*
X147866666Y-73854819D02*
X147961904Y-73902438D01*
X147961904Y-73902438D02*
X148009523Y-73950057D01*
X148009523Y-73950057D02*
X148057142Y-74045295D01*
X148057142Y-74045295D02*
X148057142Y-74188152D01*
X148057142Y-74188152D02*
X148009523Y-74283390D01*
X148009523Y-74283390D02*
X147961904Y-74331009D01*
X147961904Y-74331009D02*
X147866666Y-74378628D01*
X147866666Y-74378628D02*
X147485714Y-74378628D01*
X148438095Y-73950057D02*
X148485714Y-73902438D01*
X148485714Y-73902438D02*
X148580952Y-73854819D01*
X148580952Y-73854819D02*
X148819047Y-73854819D01*
X148819047Y-73854819D02*
X148914285Y-73902438D01*
X148914285Y-73902438D02*
X148961904Y-73950057D01*
X148961904Y-73950057D02*
X149009523Y-74045295D01*
X149009523Y-74045295D02*
X149009523Y-74140533D01*
X149009523Y-74140533D02*
X148961904Y-74283390D01*
X148961904Y-74283390D02*
X148390476Y-74854819D01*
X148390476Y-74854819D02*
X149009523Y-74854819D01*
X149628571Y-73854819D02*
X149723809Y-73854819D01*
X149723809Y-73854819D02*
X149819047Y-73902438D01*
X149819047Y-73902438D02*
X149866666Y-73950057D01*
X149866666Y-73950057D02*
X149914285Y-74045295D01*
X149914285Y-74045295D02*
X149961904Y-74235771D01*
X149961904Y-74235771D02*
X149961904Y-74473866D01*
X149961904Y-74473866D02*
X149914285Y-74664342D01*
X149914285Y-74664342D02*
X149866666Y-74759580D01*
X149866666Y-74759580D02*
X149819047Y-74807200D01*
X149819047Y-74807200D02*
X149723809Y-74854819D01*
X149723809Y-74854819D02*
X149628571Y-74854819D01*
X149628571Y-74854819D02*
X149533333Y-74807200D01*
X149533333Y-74807200D02*
X149485714Y-74759580D01*
X149485714Y-74759580D02*
X149438095Y-74664342D01*
X149438095Y-74664342D02*
X149390476Y-74473866D01*
X149390476Y-74473866D02*
X149390476Y-74235771D01*
X149390476Y-74235771D02*
X149438095Y-74045295D01*
X149438095Y-74045295D02*
X149485714Y-73950057D01*
X149485714Y-73950057D02*
X149533333Y-73902438D01*
X149533333Y-73902438D02*
X149628571Y-73854819D01*
X178957142Y-69754819D02*
X178623809Y-69278628D01*
X178385714Y-69754819D02*
X178385714Y-68754819D01*
X178385714Y-68754819D02*
X178766666Y-68754819D01*
X178766666Y-68754819D02*
X178861904Y-68802438D01*
X178861904Y-68802438D02*
X178909523Y-68850057D01*
X178909523Y-68850057D02*
X178957142Y-68945295D01*
X178957142Y-68945295D02*
X178957142Y-69088152D01*
X178957142Y-69088152D02*
X178909523Y-69183390D01*
X178909523Y-69183390D02*
X178861904Y-69231009D01*
X178861904Y-69231009D02*
X178766666Y-69278628D01*
X178766666Y-69278628D02*
X178385714Y-69278628D01*
X179338095Y-68850057D02*
X179385714Y-68802438D01*
X179385714Y-68802438D02*
X179480952Y-68754819D01*
X179480952Y-68754819D02*
X179719047Y-68754819D01*
X179719047Y-68754819D02*
X179814285Y-68802438D01*
X179814285Y-68802438D02*
X179861904Y-68850057D01*
X179861904Y-68850057D02*
X179909523Y-68945295D01*
X179909523Y-68945295D02*
X179909523Y-69040533D01*
X179909523Y-69040533D02*
X179861904Y-69183390D01*
X179861904Y-69183390D02*
X179290476Y-69754819D01*
X179290476Y-69754819D02*
X179909523Y-69754819D01*
X180242857Y-68754819D02*
X180861904Y-68754819D01*
X180861904Y-68754819D02*
X180528571Y-69135771D01*
X180528571Y-69135771D02*
X180671428Y-69135771D01*
X180671428Y-69135771D02*
X180766666Y-69183390D01*
X180766666Y-69183390D02*
X180814285Y-69231009D01*
X180814285Y-69231009D02*
X180861904Y-69326247D01*
X180861904Y-69326247D02*
X180861904Y-69564342D01*
X180861904Y-69564342D02*
X180814285Y-69659580D01*
X180814285Y-69659580D02*
X180766666Y-69707200D01*
X180766666Y-69707200D02*
X180671428Y-69754819D01*
X180671428Y-69754819D02*
X180385714Y-69754819D01*
X180385714Y-69754819D02*
X180290476Y-69707200D01*
X180290476Y-69707200D02*
X180242857Y-69659580D01*
X135257142Y-62559580D02*
X135209523Y-62607200D01*
X135209523Y-62607200D02*
X135066666Y-62654819D01*
X135066666Y-62654819D02*
X134971428Y-62654819D01*
X134971428Y-62654819D02*
X134828571Y-62607200D01*
X134828571Y-62607200D02*
X134733333Y-62511961D01*
X134733333Y-62511961D02*
X134685714Y-62416723D01*
X134685714Y-62416723D02*
X134638095Y-62226247D01*
X134638095Y-62226247D02*
X134638095Y-62083390D01*
X134638095Y-62083390D02*
X134685714Y-61892914D01*
X134685714Y-61892914D02*
X134733333Y-61797676D01*
X134733333Y-61797676D02*
X134828571Y-61702438D01*
X134828571Y-61702438D02*
X134971428Y-61654819D01*
X134971428Y-61654819D02*
X135066666Y-61654819D01*
X135066666Y-61654819D02*
X135209523Y-61702438D01*
X135209523Y-61702438D02*
X135257142Y-61750057D01*
X136114285Y-61988152D02*
X136114285Y-62654819D01*
X135876190Y-61607200D02*
X135638095Y-62321485D01*
X135638095Y-62321485D02*
X136257142Y-62321485D01*
X137161904Y-62654819D02*
X136590476Y-62654819D01*
X136876190Y-62654819D02*
X136876190Y-61654819D01*
X136876190Y-61654819D02*
X136780952Y-61797676D01*
X136780952Y-61797676D02*
X136685714Y-61892914D01*
X136685714Y-61892914D02*
X136590476Y-61940533D01*
X147454819Y-92662857D02*
X146978628Y-92996190D01*
X147454819Y-93234285D02*
X146454819Y-93234285D01*
X146454819Y-93234285D02*
X146454819Y-92853333D01*
X146454819Y-92853333D02*
X146502438Y-92758095D01*
X146502438Y-92758095D02*
X146550057Y-92710476D01*
X146550057Y-92710476D02*
X146645295Y-92662857D01*
X146645295Y-92662857D02*
X146788152Y-92662857D01*
X146788152Y-92662857D02*
X146883390Y-92710476D01*
X146883390Y-92710476D02*
X146931009Y-92758095D01*
X146931009Y-92758095D02*
X146978628Y-92853333D01*
X146978628Y-92853333D02*
X146978628Y-93234285D01*
X147454819Y-91710476D02*
X147454819Y-92281904D01*
X147454819Y-91996190D02*
X146454819Y-91996190D01*
X146454819Y-91996190D02*
X146597676Y-92091428D01*
X146597676Y-92091428D02*
X146692914Y-92186666D01*
X146692914Y-92186666D02*
X146740533Y-92281904D01*
X146454819Y-91377142D02*
X146454819Y-90758095D01*
X146454819Y-90758095D02*
X146835771Y-91091428D01*
X146835771Y-91091428D02*
X146835771Y-90948571D01*
X146835771Y-90948571D02*
X146883390Y-90853333D01*
X146883390Y-90853333D02*
X146931009Y-90805714D01*
X146931009Y-90805714D02*
X147026247Y-90758095D01*
X147026247Y-90758095D02*
X147264342Y-90758095D01*
X147264342Y-90758095D02*
X147359580Y-90805714D01*
X147359580Y-90805714D02*
X147407200Y-90853333D01*
X147407200Y-90853333D02*
X147454819Y-90948571D01*
X147454819Y-90948571D02*
X147454819Y-91234285D01*
X147454819Y-91234285D02*
X147407200Y-91329523D01*
X147407200Y-91329523D02*
X147359580Y-91377142D01*
D11*
X158810237Y-76424318D02*
X158810237Y-75154318D01*
X160140714Y-76303365D02*
X160080238Y-76363842D01*
X160080238Y-76363842D02*
X159898809Y-76424318D01*
X159898809Y-76424318D02*
X159777857Y-76424318D01*
X159777857Y-76424318D02*
X159596428Y-76363842D01*
X159596428Y-76363842D02*
X159475476Y-76242889D01*
X159475476Y-76242889D02*
X159414999Y-76121937D01*
X159414999Y-76121937D02*
X159354523Y-75880032D01*
X159354523Y-75880032D02*
X159354523Y-75698603D01*
X159354523Y-75698603D02*
X159414999Y-75456699D01*
X159414999Y-75456699D02*
X159475476Y-75335746D01*
X159475476Y-75335746D02*
X159596428Y-75214794D01*
X159596428Y-75214794D02*
X159777857Y-75154318D01*
X159777857Y-75154318D02*
X159898809Y-75154318D01*
X159898809Y-75154318D02*
X160080238Y-75214794D01*
X160080238Y-75214794D02*
X160140714Y-75275270D01*
X160624523Y-75275270D02*
X160684999Y-75214794D01*
X160684999Y-75214794D02*
X160805952Y-75154318D01*
X160805952Y-75154318D02*
X161108333Y-75154318D01*
X161108333Y-75154318D02*
X161229285Y-75214794D01*
X161229285Y-75214794D02*
X161289761Y-75275270D01*
X161289761Y-75275270D02*
X161350238Y-75396222D01*
X161350238Y-75396222D02*
X161350238Y-75517175D01*
X161350238Y-75517175D02*
X161289761Y-75698603D01*
X161289761Y-75698603D02*
X160564047Y-76424318D01*
X160564047Y-76424318D02*
X161350238Y-76424318D01*
D12*
X181957142Y-102179819D02*
X181623809Y-101703628D01*
X181385714Y-102179819D02*
X181385714Y-101179819D01*
X181385714Y-101179819D02*
X181766666Y-101179819D01*
X181766666Y-101179819D02*
X181861904Y-101227438D01*
X181861904Y-101227438D02*
X181909523Y-101275057D01*
X181909523Y-101275057D02*
X181957142Y-101370295D01*
X181957142Y-101370295D02*
X181957142Y-101513152D01*
X181957142Y-101513152D02*
X181909523Y-101608390D01*
X181909523Y-101608390D02*
X181861904Y-101656009D01*
X181861904Y-101656009D02*
X181766666Y-101703628D01*
X181766666Y-101703628D02*
X181385714Y-101703628D01*
X182909523Y-102179819D02*
X182338095Y-102179819D01*
X182623809Y-102179819D02*
X182623809Y-101179819D01*
X182623809Y-101179819D02*
X182528571Y-101322676D01*
X182528571Y-101322676D02*
X182433333Y-101417914D01*
X182433333Y-101417914D02*
X182338095Y-101465533D01*
X183242857Y-101179819D02*
X183909523Y-101179819D01*
X183909523Y-101179819D02*
X183480952Y-102179819D01*
D11*
X152687308Y-62729508D02*
X152687308Y-61459508D01*
X152687308Y-61459508D02*
X152989689Y-61459508D01*
X152989689Y-61459508D02*
X153171118Y-61519984D01*
X153171118Y-61519984D02*
X153292070Y-61640936D01*
X153292070Y-61640936D02*
X153352547Y-61761889D01*
X153352547Y-61761889D02*
X153413023Y-62003793D01*
X153413023Y-62003793D02*
X153413023Y-62185222D01*
X153413023Y-62185222D02*
X153352547Y-62427127D01*
X153352547Y-62427127D02*
X153292070Y-62548079D01*
X153292070Y-62548079D02*
X153171118Y-62669032D01*
X153171118Y-62669032D02*
X152989689Y-62729508D01*
X152989689Y-62729508D02*
X152687308Y-62729508D01*
X154622547Y-62729508D02*
X153896832Y-62729508D01*
X154259689Y-62729508D02*
X154259689Y-61459508D01*
X154259689Y-61459508D02*
X154138737Y-61640936D01*
X154138737Y-61640936D02*
X154017785Y-61761889D01*
X154017785Y-61761889D02*
X153896832Y-61822365D01*
D13*
X170500000Y-62750000D02*
X170500000Y-61150000D01*
X170500000Y-61150000D02*
X164600000Y-61150000D01*
X164600000Y-61150000D02*
X164600000Y-62750000D01*
X170500000Y-65750000D02*
X170500000Y-67350000D01*
X170500000Y-67350000D02*
X164600000Y-67350000D01*
X164600000Y-67350000D02*
X164600000Y-65750000D01*
D14*
X163350000Y-64250000D02*
X163350000Y-64250000D01*
X163450000Y-64250000D02*
X163450000Y-64250000D01*
X163350000Y-64250000D02*
G75*
G03*
X163450000Y-64250000I50000J0D01*
G01*
X163450000Y-64250000D02*
G75*
G03*
X163350000Y-64250000I-50000J0D01*
G01*
D15*
X177835000Y-64511252D02*
X177835000Y-63988748D01*
X176365000Y-64511252D02*
X176365000Y-63988748D01*
X175485000Y-64486252D02*
X175485000Y-63963748D01*
X174015000Y-64486252D02*
X174015000Y-63963748D01*
X153560000Y-70215580D02*
X153560000Y-69934420D01*
X152540000Y-70215580D02*
X152540000Y-69934420D01*
X149985000Y-70215580D02*
X149985000Y-69934420D01*
X148965000Y-70215580D02*
X148965000Y-69934420D01*
X155260000Y-70215580D02*
X155260000Y-69934420D01*
X154240000Y-70215580D02*
X154240000Y-69934420D01*
X151760000Y-70215580D02*
X151760000Y-69934420D01*
X150740000Y-70215580D02*
X150740000Y-69934420D01*
X151662742Y-77522500D02*
X152137258Y-77522500D01*
X151662742Y-76477500D02*
X152137258Y-76477500D01*
D13*
X175350000Y-78350000D02*
X165650000Y-78350000D01*
X165650000Y-86850000D02*
X175350000Y-86850000D01*
D15*
X166540580Y-70290000D02*
X166259420Y-70290000D01*
X166540580Y-71310000D02*
X166259420Y-71310000D01*
X125040000Y-81692164D02*
X125040000Y-81907836D01*
X125760000Y-81692164D02*
X125760000Y-81907836D01*
X155837258Y-75277500D02*
X155362742Y-75277500D01*
X155837258Y-76322500D02*
X155362742Y-76322500D01*
D13*
X181675000Y-80975000D02*
X179575000Y-80975000D01*
X179575000Y-84275000D02*
X181675000Y-84275000D01*
X183175000Y-83600000D02*
X183175000Y-83600000D01*
X183275000Y-83600000D02*
X183275000Y-83600000D01*
X183175000Y-83600000D02*
X183275000Y-83600000D01*
X183175000Y-83600000D02*
G75*
G03*
X183275000Y-83600000I50000J0D01*
G01*
X183275000Y-83600000D02*
G75*
G03*
X183175000Y-83600000I-50000J0D01*
G01*
D15*
X125340000Y-74692164D02*
X125340000Y-74907836D01*
X126060000Y-74692164D02*
X126060000Y-74907836D01*
X145962742Y-88642500D02*
X146437258Y-88642500D01*
X145962742Y-87597500D02*
X146437258Y-87597500D01*
D14*
X133200000Y-74650000D02*
X133200000Y-74650000D01*
X133100000Y-74650000D02*
X133100000Y-74650000D01*
D13*
X134600000Y-73900000D02*
X139800000Y-73900000D01*
X134600000Y-79100000D02*
X139800000Y-79100000D01*
X134600000Y-77500000D02*
X134600000Y-75500000D01*
X139800000Y-77500000D02*
X139800000Y-75500000D01*
D14*
X133200000Y-74650000D02*
G75*
G03*
X133100000Y-74650000I-50000J0D01*
G01*
X133100000Y-74650000D02*
G75*
G03*
X133200000Y-74650000I50000J0D01*
G01*
D15*
X116492164Y-69860000D02*
X116707836Y-69860000D01*
X116492164Y-69140000D02*
X116707836Y-69140000D01*
X158822500Y-107337258D02*
X158822500Y-106862742D01*
X157777500Y-107337258D02*
X157777500Y-106862742D01*
X193900000Y-105050000D02*
X194650000Y-105050000D01*
X192400000Y-98200000D02*
X191060000Y-98200000D01*
X188690000Y-105060000D02*
X194660000Y-105060000D01*
X194650000Y-103250000D02*
X193900000Y-103250000D01*
X194660000Y-97440000D02*
X188690000Y-97440000D01*
X188690000Y-97440000D02*
X188690000Y-105060000D01*
X194650000Y-97450000D02*
X193900000Y-97450000D01*
X189450000Y-104300000D02*
X189450000Y-101250000D01*
X193900000Y-99250000D02*
X194650000Y-99250000D01*
X194650000Y-99250000D02*
X194650000Y-97450000D01*
X192400000Y-104300000D02*
X189450000Y-104300000D01*
X189450000Y-101250000D02*
X189450000Y-99260000D01*
X194650000Y-101750000D02*
X194650000Y-100750000D01*
X194650000Y-100750000D02*
X193900000Y-100750000D01*
X192400000Y-97450000D02*
X192400000Y-98200000D01*
X192400000Y-105050000D02*
X192400000Y-104300000D01*
X194660000Y-105060000D02*
X194660000Y-97440000D01*
X193900000Y-101750000D02*
X194650000Y-101750000D01*
X194950000Y-97150000D02*
X193700000Y-97150000D01*
X193900000Y-97450000D02*
X193900000Y-99250000D01*
X194650000Y-105050000D02*
X194650000Y-103250000D01*
X194950000Y-98400000D02*
X194950000Y-97150000D01*
X193900000Y-100750000D02*
X193900000Y-101750000D01*
X193900000Y-103250000D02*
X193900000Y-105050000D01*
X106607836Y-94340000D02*
X106392164Y-94340000D01*
X106607836Y-95060000D02*
X106392164Y-95060000D01*
X166303641Y-98980000D02*
X165996359Y-98980000D01*
X166303641Y-98220000D02*
X165996359Y-98220000D01*
D13*
X135500000Y-66750000D02*
X135500000Y-67350000D01*
X135500000Y-67350000D02*
X132600000Y-67350000D01*
X132600000Y-67350000D02*
X132600000Y-66750000D01*
X132600000Y-66750000D02*
X135500000Y-66750000D01*
X135550000Y-65200000D02*
X135550000Y-66400000D01*
D15*
X102392164Y-100860000D02*
X102607836Y-100860000D01*
X102392164Y-100140000D02*
X102607836Y-100140000D01*
D13*
X112850000Y-118050000D02*
X112850000Y-116050000D01*
X115050000Y-120250000D02*
X117050000Y-120250000D01*
X115050000Y-113850000D02*
X117050000Y-113850000D01*
X119250000Y-118050000D02*
X119250000Y-116050000D01*
D14*
X116050000Y-120850000D02*
X116050000Y-120850000D01*
X116050000Y-120950000D02*
X116050000Y-120950000D01*
X116050000Y-120850000D02*
G75*
G03*
X116050000Y-120950000I0J-50000D01*
G01*
X116050000Y-120950000D02*
G75*
G03*
X116050000Y-120850000I0J50000D01*
G01*
D15*
X166162742Y-73122500D02*
X166637258Y-73122500D01*
X166162742Y-72077500D02*
X166637258Y-72077500D01*
X100860000Y-75907836D02*
X100860000Y-75692164D01*
X100140000Y-75907836D02*
X100140000Y-75692164D01*
X158290580Y-67440000D02*
X158009420Y-67440000D01*
X158290580Y-68460000D02*
X158009420Y-68460000D01*
X173940000Y-97467164D02*
X173940000Y-97682836D01*
X174660000Y-97467164D02*
X174660000Y-97682836D01*
X186096359Y-98170000D02*
X186403641Y-98170000D01*
X186096359Y-98930000D02*
X186403641Y-98930000D01*
X106707836Y-103840000D02*
X106492164Y-103840000D01*
X106707836Y-104560000D02*
X106492164Y-104560000D01*
X153310000Y-94440580D02*
X153310000Y-94159420D01*
X152290000Y-94440580D02*
X152290000Y-94159420D01*
X176317164Y-98540000D02*
X176532836Y-98540000D01*
X176317164Y-97820000D02*
X176532836Y-97820000D01*
X113607836Y-94340000D02*
X113392164Y-94340000D01*
X113607836Y-95060000D02*
X113392164Y-95060000D01*
X108677500Y-64962742D02*
X108677500Y-65437258D01*
X109722500Y-64962742D02*
X109722500Y-65437258D01*
X162810000Y-103640580D02*
X162810000Y-103359420D01*
X161790000Y-103640580D02*
X161790000Y-103359420D01*
X110127836Y-104040000D02*
X109912164Y-104040000D01*
X110127836Y-104760000D02*
X109912164Y-104760000D01*
X182067164Y-99610000D02*
X182282836Y-99610000D01*
X182067164Y-98890000D02*
X182282836Y-98890000D01*
X149362742Y-90042500D02*
X149837258Y-90042500D01*
X149362742Y-88997500D02*
X149837258Y-88997500D01*
X106577500Y-64862742D02*
X106577500Y-65337258D01*
X107622500Y-64862742D02*
X107622500Y-65337258D01*
X164510000Y-103665580D02*
X164510000Y-103384420D01*
X163490000Y-103665580D02*
X163490000Y-103384420D01*
X133850000Y-112130000D02*
X146610000Y-112130000D01*
X132580000Y-112130000D02*
X131250000Y-112130000D01*
X131250000Y-112130000D02*
X131250000Y-110800000D01*
X133850000Y-112130000D02*
X133850000Y-109470000D01*
X146610000Y-112130000D02*
X146610000Y-109470000D01*
X133850000Y-109470000D02*
X146610000Y-109470000D01*
X194280000Y-67650000D02*
X194280000Y-75330000D01*
X191620000Y-66380000D02*
X191620000Y-65050000D01*
X191620000Y-75330000D02*
X194280000Y-75330000D01*
X191620000Y-67650000D02*
X194280000Y-67650000D01*
X191620000Y-65050000D02*
X192950000Y-65050000D01*
X191620000Y-67650000D02*
X191620000Y-75330000D01*
X120459420Y-97510000D02*
X120740580Y-97510000D01*
X120459420Y-96490000D02*
X120740580Y-96490000D01*
X111792164Y-69960000D02*
X112007836Y-69960000D01*
X111792164Y-69240000D02*
X112007836Y-69240000D01*
X155685000Y-91460580D02*
X155685000Y-91179420D01*
X154665000Y-91460580D02*
X154665000Y-91179420D01*
X126959420Y-77110000D02*
X127240580Y-77110000D01*
X126959420Y-76090000D02*
X127240580Y-76090000D01*
X173155000Y-97421359D02*
X173155000Y-97728641D01*
X172395000Y-97421359D02*
X172395000Y-97728641D01*
X168840000Y-97112164D02*
X168840000Y-97327836D01*
X169560000Y-97112164D02*
X169560000Y-97327836D01*
X141660000Y-89527836D02*
X141660000Y-89312164D01*
X140940000Y-89527836D02*
X140940000Y-89312164D01*
X108840000Y-111872164D02*
X108840000Y-112087836D01*
X109560000Y-111872164D02*
X109560000Y-112087836D01*
X170680000Y-97546359D02*
X170680000Y-97853641D01*
X169920000Y-97546359D02*
X169920000Y-97853641D01*
X105040000Y-68292164D02*
X105040000Y-68507836D01*
X105760000Y-68292164D02*
X105760000Y-68507836D01*
D13*
X180225000Y-90075000D02*
X182325000Y-90075000D01*
X182325000Y-86775000D02*
X180225000Y-86775000D01*
X178725000Y-87450000D02*
X178725000Y-87450000D01*
X178625000Y-87450000D02*
X178625000Y-87450000D01*
X178725000Y-87450000D02*
X178625000Y-87450000D01*
X178725000Y-87450000D02*
G75*
G03*
X178625000Y-87450000I-50000J0D01*
G01*
X178625000Y-87450000D02*
G75*
G03*
X178725000Y-87450000I50000J0D01*
G01*
D15*
X121985000Y-92130000D02*
X122935000Y-92130000D01*
X122935000Y-92130000D02*
X122935000Y-91180000D01*
X103665000Y-92130000D02*
X102715000Y-92130000D01*
X102715000Y-92130000D02*
X102715000Y-91180000D01*
X121985000Y-71910000D02*
X122935000Y-71910000D01*
X122935000Y-71910000D02*
X122935000Y-72860000D01*
X103665000Y-71910000D02*
X102715000Y-71910000D01*
X102715000Y-71910000D02*
X102715000Y-72860000D01*
X102125000Y-72860000D02*
X101785000Y-72390000D01*
X102465000Y-72390000D01*
X102125000Y-72860000D01*
G36*
X102125000Y-72860000D02*
G01*
X101785000Y-72390000D01*
X102465000Y-72390000D01*
X102125000Y-72860000D01*
G37*
D14*
X102050000Y-111475000D02*
X102050000Y-111475000D01*
X102050000Y-111575000D02*
X102050000Y-111575000D01*
X102050000Y-111475000D02*
G75*
G03*
X102050000Y-111575000I0J-50000D01*
G01*
X102050000Y-111575000D02*
G75*
G03*
X102050000Y-111475000I0J50000D01*
G01*
D15*
X164260000Y-86407836D02*
X164260000Y-86192164D01*
X163540000Y-86407836D02*
X163540000Y-86192164D01*
X112750000Y-103000000D02*
X112750000Y-100700000D01*
X112750000Y-100700000D02*
X110050000Y-100700000D01*
X187355000Y-101496359D02*
X187355000Y-101803641D01*
X186595000Y-101496359D02*
X186595000Y-101803641D01*
X173367164Y-100010000D02*
X173582836Y-100010000D01*
X173367164Y-99290000D02*
X173582836Y-99290000D01*
X133459420Y-70710000D02*
X133740580Y-70710000D01*
X133459420Y-69690000D02*
X133740580Y-69690000D01*
X103692164Y-69860000D02*
X103907836Y-69860000D01*
X103692164Y-69140000D02*
X103907836Y-69140000D01*
X108440000Y-102542164D02*
X108440000Y-102757836D01*
X109160000Y-102542164D02*
X109160000Y-102757836D01*
X111622500Y-65437258D02*
X111622500Y-64962742D01*
X110577500Y-65437258D02*
X110577500Y-64962742D01*
X99940000Y-109992164D02*
X99940000Y-110207836D01*
X100660000Y-109992164D02*
X100660000Y-110207836D01*
X122510000Y-104240580D02*
X122510000Y-103959420D01*
X121490000Y-104240580D02*
X121490000Y-103959420D01*
X176537258Y-72577500D02*
X176062742Y-72577500D01*
X176537258Y-73622500D02*
X176062742Y-73622500D01*
X149410000Y-95640580D02*
X149410000Y-95359420D01*
X148390000Y-95640580D02*
X148390000Y-95359420D01*
X99392164Y-77760000D02*
X99607836Y-77760000D01*
X99392164Y-77040000D02*
X99607836Y-77040000D01*
X112877500Y-64862742D02*
X112877500Y-65337258D01*
X113922500Y-64862742D02*
X113922500Y-65337258D01*
X120907836Y-94040000D02*
X120692164Y-94040000D01*
X120907836Y-94760000D02*
X120692164Y-94760000D01*
X99290000Y-85559420D02*
X99290000Y-85840580D01*
X100310000Y-85559420D02*
X100310000Y-85840580D01*
X110787742Y-98572500D02*
X111262258Y-98572500D01*
X110787742Y-97527500D02*
X111262258Y-97527500D01*
X167255000Y-93996359D02*
X167255000Y-94303641D01*
X166495000Y-93996359D02*
X166495000Y-94303641D01*
D13*
X160855000Y-89975000D02*
X158755000Y-89975000D01*
X158755000Y-93275000D02*
X160855000Y-93275000D01*
X162355000Y-92600000D02*
X162355000Y-92600000D01*
X162455000Y-92600000D02*
X162455000Y-92600000D01*
X162355000Y-92600000D02*
X162455000Y-92600000D01*
X162355000Y-92600000D02*
G75*
G03*
X162455000Y-92600000I50000J0D01*
G01*
X162455000Y-92600000D02*
G75*
G03*
X162355000Y-92600000I-50000J0D01*
G01*
D15*
X138060000Y-89527836D02*
X138060000Y-89312164D01*
X137340000Y-89527836D02*
X137340000Y-89312164D01*
X165418641Y-93355000D02*
X165111359Y-93355000D01*
X165418641Y-92595000D02*
X165111359Y-92595000D01*
X177322500Y-107637258D02*
X177322500Y-107162742D01*
X176277500Y-107637258D02*
X176277500Y-107162742D01*
X100560000Y-91207836D02*
X100560000Y-90992164D01*
X99840000Y-91207836D02*
X99840000Y-90992164D01*
D14*
X119760000Y-61675000D02*
X119760000Y-59175000D01*
X119760000Y-59175000D02*
X129840000Y-59175000D01*
X129840000Y-59175000D02*
X129840000Y-61675000D01*
X129840000Y-61675000D02*
X119760000Y-61675000D01*
D13*
X124760000Y-62425000D02*
X124760000Y-62425000D01*
X124760000Y-62625000D02*
X124760000Y-62625000D01*
X124760000Y-62425000D02*
G75*
G03*
X124760000Y-62625000I0J-100000D01*
G01*
X124760000Y-62625000D02*
G75*
G03*
X124760000Y-62425000I0J100000D01*
G01*
D14*
X164325000Y-106275000D02*
X164325000Y-106275000D01*
X164325000Y-106175000D02*
X164325000Y-106175000D01*
X164325000Y-106275000D02*
G75*
G03*
X164325000Y-106175000I0J50000D01*
G01*
X164325000Y-106175000D02*
G75*
G03*
X164325000Y-106275000I0J-50000D01*
G01*
D15*
X166445000Y-96503641D02*
X166445000Y-96196359D01*
X167205000Y-96503641D02*
X167205000Y-96196359D01*
X177467164Y-97340000D02*
X177682836Y-97340000D01*
X177467164Y-96620000D02*
X177682836Y-96620000D01*
X189410000Y-88932836D02*
X189410000Y-88717164D01*
X188690000Y-88932836D02*
X188690000Y-88717164D01*
X167740000Y-96992164D02*
X167740000Y-97207836D01*
X168460000Y-96992164D02*
X168460000Y-97207836D01*
X109492164Y-108060000D02*
X109707836Y-108060000D01*
X109492164Y-107340000D02*
X109707836Y-107340000D01*
X102307836Y-103940000D02*
X102092164Y-103940000D01*
X102307836Y-104660000D02*
X102092164Y-104660000D01*
X100760000Y-82007836D02*
X100760000Y-81792164D01*
X100040000Y-82007836D02*
X100040000Y-81792164D01*
X99940000Y-88492164D02*
X99940000Y-88707836D01*
X100660000Y-88492164D02*
X100660000Y-88707836D01*
X186357836Y-99490000D02*
X186142164Y-99490000D01*
X186357836Y-100210000D02*
X186142164Y-100210000D01*
D13*
X181650000Y-93350000D02*
X181650000Y-96650000D01*
X184950000Y-96650000D02*
X184950000Y-93350000D01*
X182326000Y-96946000D02*
G75*
G03*
X182272000Y-96946000I-27000J0D01*
G01*
X182272000Y-96946000D02*
G75*
G03*
X182326000Y-96946000I27000J0D01*
G01*
D15*
X99260000Y-91207836D02*
X99260000Y-90992164D01*
X98540000Y-91207836D02*
X98540000Y-90992164D01*
X102860000Y-102807836D02*
X102860000Y-102592164D01*
X102140000Y-102807836D02*
X102140000Y-102592164D01*
X105522500Y-65337258D02*
X105522500Y-64862742D01*
X104477500Y-65337258D02*
X104477500Y-64862742D01*
X191610000Y-88912836D02*
X191610000Y-88697164D01*
X190890000Y-88912836D02*
X190890000Y-88697164D01*
X142860000Y-89527836D02*
X142860000Y-89312164D01*
X142140000Y-89527836D02*
X142140000Y-89312164D01*
X106707836Y-101440000D02*
X106492164Y-101440000D01*
X106707836Y-102160000D02*
X106492164Y-102160000D01*
X176695000Y-93033641D02*
X176695000Y-92726359D01*
X177455000Y-93033641D02*
X177455000Y-92726359D01*
X167740000Y-90672164D02*
X167740000Y-90887836D01*
X168460000Y-90672164D02*
X168460000Y-90887836D01*
X188310000Y-88932836D02*
X188310000Y-88717164D01*
X187590000Y-88932836D02*
X187590000Y-88717164D01*
X106707836Y-102640000D02*
X106492164Y-102640000D01*
X106707836Y-103360000D02*
X106492164Y-103360000D01*
D13*
X120050000Y-100100000D02*
X120050000Y-100700000D01*
X120050000Y-100700000D02*
X117150000Y-100700000D01*
X117150000Y-100700000D02*
X117150000Y-100100000D01*
X117150000Y-100100000D02*
X120050000Y-100100000D01*
X120100000Y-98550000D02*
X120100000Y-99750000D01*
D15*
X116122500Y-65237258D02*
X116122500Y-64762742D01*
X115077500Y-65237258D02*
X115077500Y-64762742D01*
X190510000Y-88932836D02*
X190510000Y-88717164D01*
X189790000Y-88932836D02*
X189790000Y-88717164D01*
X144060000Y-89527836D02*
X144060000Y-89312164D01*
X143340000Y-89527836D02*
X143340000Y-89312164D01*
X100240000Y-104792164D02*
X100240000Y-105007836D01*
X100960000Y-104792164D02*
X100960000Y-105007836D01*
D13*
X169225000Y-91400000D02*
G75*
G03*
X169025000Y-91400000I-100000J0D01*
G01*
X169025000Y-91400000D02*
G75*
G03*
X169225000Y-91400000I100000J0D01*
G01*
D15*
X104392164Y-103360000D02*
X104607836Y-103360000D01*
X104392164Y-102640000D02*
X104607836Y-102640000D01*
X136122500Y-89737258D02*
X136122500Y-89262742D01*
X135077500Y-89737258D02*
X135077500Y-89262742D01*
X142510000Y-101330000D02*
X132290000Y-101330000D01*
X145110000Y-98670000D02*
X145110000Y-100000000D01*
X142510000Y-98670000D02*
X132290000Y-98670000D01*
X132290000Y-98670000D02*
X132290000Y-101330000D01*
X142510000Y-98670000D02*
X142510000Y-101330000D01*
X143780000Y-98670000D02*
X145110000Y-98670000D01*
X151522500Y-92357258D02*
X151522500Y-91882742D01*
X150477500Y-92357258D02*
X150477500Y-91882742D01*
X140460000Y-89527836D02*
X140460000Y-89312164D01*
X139740000Y-89527836D02*
X139740000Y-89312164D01*
X176695000Y-95518641D02*
X176695000Y-95211359D01*
X177455000Y-95518641D02*
X177455000Y-95211359D01*
D13*
X115100000Y-104900000D02*
X117100000Y-104900000D01*
X112900000Y-107100000D02*
X112900000Y-109100000D01*
X119300000Y-107100000D02*
X119300000Y-109100000D01*
X115100000Y-111300000D02*
X117100000Y-111300000D01*
D14*
X112300000Y-108100000D02*
X112300000Y-108100000D01*
X112200000Y-108100000D02*
X112200000Y-108100000D01*
X112300000Y-108100000D02*
G75*
G03*
X112200000Y-108100000I-50000J0D01*
G01*
X112200000Y-108100000D02*
G75*
G03*
X112300000Y-108100000I50000J0D01*
G01*
D15*
X174945000Y-95903641D02*
X174945000Y-95596359D01*
X175705000Y-95903641D02*
X175705000Y-95596359D01*
X139260000Y-89527836D02*
X139260000Y-89312164D01*
X138540000Y-89527836D02*
X138540000Y-89312164D01*
D13*
X159245000Y-86375000D02*
X161345000Y-86375000D01*
X161345000Y-83075000D02*
X159245000Y-83075000D01*
X157745000Y-83750000D02*
X157745000Y-83750000D01*
X157645000Y-83750000D02*
X157645000Y-83750000D01*
X157745000Y-83750000D02*
X157645000Y-83750000D01*
X157745000Y-83750000D02*
G75*
G03*
X157645000Y-83750000I-50000J0D01*
G01*
X157645000Y-83750000D02*
G75*
G03*
X157745000Y-83750000I50000J0D01*
G01*
D15*
X100760000Y-79407836D02*
X100760000Y-79192164D01*
X100040000Y-79407836D02*
X100040000Y-79192164D01*
X169990000Y-70759420D02*
X169990000Y-71040580D01*
X171010000Y-70759420D02*
X171010000Y-71040580D01*
X136959420Y-92610000D02*
X137240580Y-92610000D01*
X136959420Y-91590000D02*
X137240580Y-91590000D01*
X187210000Y-88932836D02*
X187210000Y-88717164D01*
X186490000Y-88932836D02*
X186490000Y-88717164D01*
X151562742Y-74522500D02*
X152037258Y-74522500D01*
X151562742Y-73477500D02*
X152037258Y-73477500D01*
X107459420Y-68510000D02*
X107740580Y-68510000D01*
X107459420Y-67490000D02*
X107740580Y-67490000D01*
X125960000Y-87507836D02*
X125960000Y-87292164D01*
X125240000Y-87507836D02*
X125240000Y-87292164D01*
X176692164Y-88260000D02*
X176907836Y-88260000D01*
X176692164Y-87540000D02*
X176907836Y-87540000D01*
X104392164Y-102160000D02*
X104607836Y-102160000D01*
X104392164Y-101440000D02*
X104607836Y-101440000D01*
X104392164Y-104560000D02*
X104607836Y-104560000D01*
X104392164Y-103840000D02*
X104607836Y-103840000D01*
X176577500Y-68862742D02*
X176577500Y-69337258D01*
X177622500Y-68862742D02*
X177622500Y-69337258D01*
X136159420Y-64310000D02*
X136440580Y-64310000D01*
X136159420Y-63290000D02*
X136440580Y-63290000D01*
X149122500Y-92357258D02*
X149122500Y-91882742D01*
X148077500Y-92357258D02*
X148077500Y-91882742D01*
X185910000Y-88565580D02*
X185910000Y-88284420D01*
X184890000Y-88565580D02*
X184890000Y-88284420D01*
D13*
X156625000Y-69120000D02*
X158150000Y-69120000D01*
D15*
X184220000Y-101553641D02*
X184220000Y-101246359D01*
X184980000Y-101553641D02*
X184980000Y-101246359D01*
X164940000Y-95592164D02*
X164940000Y-95807836D01*
X165660000Y-95592164D02*
X165660000Y-95807836D01*
D13*
X155440690Y-65830190D02*
X161402690Y-65830190D01*
X161402690Y-61780190D02*
X155440690Y-61780190D01*
D16*
X162505310Y-66056190D02*
G75*
G03*
X162178070Y-66056190I-163620J0D01*
G01*
X162178070Y-66056190D02*
G75*
G03*
X162505310Y-66056190I163620J0D01*
G01*
D15*
X172060000Y-89307836D02*
X172060000Y-89092164D01*
X171340000Y-89307836D02*
X171340000Y-89092164D01*
%LPC*%
D17*
X164550000Y-64250000D03*
X170550000Y-64250000D03*
D18*
X177100000Y-65200000D03*
X177100000Y-63300000D03*
X174750000Y-65175000D03*
X174750000Y-63275000D03*
D19*
X153050000Y-70850000D03*
X153050000Y-69300000D03*
X149475000Y-70850000D03*
X149475000Y-69300000D03*
X154750000Y-70850000D03*
X154750000Y-69300000D03*
X151250000Y-70850000D03*
X151250000Y-69300000D03*
D20*
X151075000Y-77000000D03*
X152725000Y-77000000D03*
D21*
X166300000Y-82600000D03*
X174700000Y-82600000D03*
D22*
X167175000Y-70800000D03*
X165625000Y-70800000D03*
D23*
X125400000Y-81320000D03*
X125400000Y-82280000D03*
D24*
X156425000Y-75800000D03*
X154775000Y-75800000D03*
D25*
X182300000Y-83600000D03*
X182300000Y-82950000D03*
X182300000Y-82300000D03*
X182300000Y-81650000D03*
D26*
X179320000Y-81650000D03*
X179320000Y-82300000D03*
X179320000Y-82950000D03*
X179320000Y-83600000D03*
D27*
X180475000Y-82625000D03*
D23*
X125700000Y-74320000D03*
X125700000Y-75280000D03*
D20*
X145375000Y-88120000D03*
X147025000Y-88120000D03*
D28*
X134200000Y-74650000D03*
X140200000Y-74650000D03*
X134200000Y-78350000D03*
X140200000Y-78350000D03*
D29*
X116120000Y-69500000D03*
X117080000Y-69500000D03*
D30*
X158300000Y-107925000D03*
X158300000Y-106275000D03*
D31*
X190200000Y-98400000D03*
D32*
X192200000Y-100000000D03*
D33*
X192200000Y-102500000D03*
D34*
X106980000Y-94700000D03*
X106020000Y-94700000D03*
D35*
X166660000Y-98600000D03*
X165640000Y-98600000D03*
D36*
X135000000Y-65800000D03*
X134050000Y-65800000D03*
X133100000Y-65800000D03*
X133100000Y-68300000D03*
X135000000Y-68300000D03*
D29*
X102020000Y-100500000D03*
X102980000Y-100500000D03*
D37*
X116050000Y-117050000D03*
D38*
X118600000Y-119600000D03*
X118600000Y-114500000D03*
X113500000Y-114500000D03*
X113500000Y-119600000D03*
D20*
X165575000Y-72600000D03*
X167225000Y-72600000D03*
D39*
X100500000Y-76280000D03*
X100500000Y-75320000D03*
D22*
X158925000Y-67950000D03*
X157375000Y-67950000D03*
D23*
X174300000Y-97095000D03*
X174300000Y-98055000D03*
D40*
X185740000Y-98550000D03*
X186760000Y-98550000D03*
D34*
X107080000Y-104200000D03*
X106120000Y-104200000D03*
D19*
X152800000Y-95075000D03*
X152800000Y-93525000D03*
D29*
X175945000Y-98180000D03*
X176905000Y-98180000D03*
D34*
X113980000Y-94700000D03*
X113020000Y-94700000D03*
D41*
X109200000Y-64375000D03*
X109200000Y-66025000D03*
D19*
X162300000Y-104275000D03*
X162300000Y-102725000D03*
D34*
X110500000Y-104400000D03*
X109540000Y-104400000D03*
D29*
X181695000Y-99250000D03*
X182655000Y-99250000D03*
D20*
X148775000Y-89520000D03*
X150425000Y-89520000D03*
D41*
X107100000Y-64275000D03*
X107100000Y-65925000D03*
D19*
X164000000Y-104300000D03*
X164000000Y-102750000D03*
D42*
X132580000Y-110800000D03*
D43*
X135120000Y-110800000D03*
X137660000Y-110800000D03*
X140200000Y-110800000D03*
X142740000Y-110800000D03*
X145280000Y-110800000D03*
D42*
X192950000Y-66380000D03*
D43*
X192950000Y-68920000D03*
X192950000Y-71460000D03*
X192950000Y-74000000D03*
D44*
X119825000Y-97000000D03*
X121375000Y-97000000D03*
D29*
X111420000Y-69600000D03*
X112380000Y-69600000D03*
D19*
X155175000Y-92095000D03*
X155175000Y-90545000D03*
D44*
X126325000Y-76600000D03*
X127875000Y-76600000D03*
D45*
X172775000Y-97065000D03*
X172775000Y-98085000D03*
D23*
X169200000Y-96740000D03*
X169200000Y-97700000D03*
D39*
X141300000Y-89900000D03*
X141300000Y-88940000D03*
D23*
X109200000Y-111500000D03*
X109200000Y-112460000D03*
D45*
X170300000Y-97190000D03*
X170300000Y-98210000D03*
D23*
X105400000Y-67920000D03*
X105400000Y-68880000D03*
D25*
X179600000Y-87450000D03*
X179600000Y-88100000D03*
X179600000Y-88750000D03*
X179600000Y-89400000D03*
D26*
X182580000Y-89400000D03*
X182580000Y-88750000D03*
X182580000Y-88100000D03*
X182580000Y-87450000D03*
D27*
X181425000Y-88425000D03*
D46*
X102162500Y-73270000D03*
X102162500Y-73770000D03*
X102162500Y-74270000D03*
X102162500Y-74770000D03*
X102162500Y-75270000D03*
X102162500Y-75770000D03*
X102162500Y-76270000D03*
X102162500Y-76770000D03*
X102162500Y-77270000D03*
X102162500Y-77770000D03*
X102162500Y-78270000D03*
X102162500Y-78770000D03*
X102162500Y-79270000D03*
X102162500Y-79770000D03*
X102162500Y-80270000D03*
X102162500Y-80770000D03*
X102162500Y-81270000D03*
X102162500Y-81770000D03*
X102162500Y-82270000D03*
X102162500Y-82770000D03*
X102162500Y-83270000D03*
X102162500Y-83770000D03*
X102162500Y-84270000D03*
X102162500Y-84770000D03*
X102162500Y-85270000D03*
X102162500Y-85770000D03*
X102162500Y-86270000D03*
X102162500Y-86770000D03*
X102162500Y-87270000D03*
X102162500Y-87770000D03*
X102162500Y-88270000D03*
X102162500Y-88770000D03*
X102162500Y-89270000D03*
X102162500Y-89770000D03*
X102162500Y-90270000D03*
X102162500Y-90770000D03*
D47*
X104075000Y-92682500D03*
X104575000Y-92682500D03*
X105075000Y-92682500D03*
X105575000Y-92682500D03*
X106075000Y-92682500D03*
X106575000Y-92682500D03*
X107075000Y-92682500D03*
X107575000Y-92682500D03*
X108075000Y-92682500D03*
X108575000Y-92682500D03*
X109075000Y-92682500D03*
X109575000Y-92682500D03*
X110075000Y-92682500D03*
X110575000Y-92682500D03*
X111075000Y-92682500D03*
X111575000Y-92682500D03*
X112075000Y-92682500D03*
X112575000Y-92682500D03*
X113075000Y-92682500D03*
X113575000Y-92682500D03*
X114075000Y-92682500D03*
X114575000Y-92682500D03*
X115075000Y-92682500D03*
X115575000Y-92682500D03*
X116075000Y-92682500D03*
X116575000Y-92682500D03*
X117075000Y-92682500D03*
X117575000Y-92682500D03*
X118075000Y-92682500D03*
X118575000Y-92682500D03*
X119075000Y-92682500D03*
X119575000Y-92682500D03*
X120075000Y-92682500D03*
X120575000Y-92682500D03*
X121075000Y-92682500D03*
X121575000Y-92682500D03*
D46*
X123487500Y-90770000D03*
X123487500Y-90270000D03*
X123487500Y-89770000D03*
X123487500Y-89270000D03*
X123487500Y-88770000D03*
X123487500Y-88270000D03*
X123487500Y-87770000D03*
X123487500Y-87270000D03*
X123487500Y-86770000D03*
X123487500Y-86270000D03*
X123487500Y-85770000D03*
X123487500Y-85270000D03*
X123487500Y-84770000D03*
X123487500Y-84270000D03*
X123487500Y-83770000D03*
X123487500Y-83270000D03*
X123487500Y-82770000D03*
X123487500Y-82270000D03*
X123487500Y-81770000D03*
X123487500Y-81270000D03*
X123487500Y-80770000D03*
X123487500Y-80270000D03*
X123487500Y-79770000D03*
X123487500Y-79270000D03*
X123487500Y-78770000D03*
X123487500Y-78270000D03*
X123487500Y-77770000D03*
X123487500Y-77270000D03*
X123487500Y-76770000D03*
X123487500Y-76270000D03*
X123487500Y-75770000D03*
X123487500Y-75270000D03*
X123487500Y-74770000D03*
X123487500Y-74270000D03*
X123487500Y-73770000D03*
X123487500Y-73270000D03*
D47*
X121575000Y-71357500D03*
X121075000Y-71357500D03*
X120575000Y-71357500D03*
X120075000Y-71357500D03*
X119575000Y-71357500D03*
X119075000Y-71357500D03*
X118575000Y-71357500D03*
X118075000Y-71357500D03*
X117575000Y-71357500D03*
X117075000Y-71357500D03*
X116575000Y-71357500D03*
X116075000Y-71357500D03*
X115575000Y-71357500D03*
X115075000Y-71357500D03*
X114575000Y-71357500D03*
X114075000Y-71357500D03*
X113575000Y-71357500D03*
X113075000Y-71357500D03*
X112575000Y-71357500D03*
X112075000Y-71357500D03*
X111575000Y-71357500D03*
X111075000Y-71357500D03*
X110575000Y-71357500D03*
X110075000Y-71357500D03*
X109575000Y-71357500D03*
X109075000Y-71357500D03*
X108575000Y-71357500D03*
X108075000Y-71357500D03*
X107575000Y-71357500D03*
X107075000Y-71357500D03*
X106575000Y-71357500D03*
X106075000Y-71357500D03*
X105575000Y-71357500D03*
X105075000Y-71357500D03*
X104575000Y-71357500D03*
X104075000Y-71357500D03*
D48*
X102650000Y-111100000D03*
D49*
X103050000Y-111150000D03*
X103450000Y-111150000D03*
X103850000Y-111150000D03*
X104250000Y-111150000D03*
X104650000Y-111150000D03*
X105050000Y-111150000D03*
X105450000Y-111150000D03*
X105850000Y-111150000D03*
X106250000Y-111150000D03*
D50*
X106950000Y-110450000D03*
X106950000Y-110050000D03*
X106950000Y-109650000D03*
X106950000Y-109250000D03*
X106950000Y-108850000D03*
X106950000Y-108450000D03*
X106950000Y-108050000D03*
X106950000Y-107650000D03*
X106950000Y-107250000D03*
X106950000Y-106850000D03*
D49*
X106250000Y-106150000D03*
X105850000Y-106150000D03*
X105450000Y-106150000D03*
X105050000Y-106150000D03*
X104650000Y-106150000D03*
X104250000Y-106150000D03*
X103850000Y-106150000D03*
X103450000Y-106150000D03*
X103050000Y-106150000D03*
X102650000Y-106150000D03*
D50*
X101950000Y-106850000D03*
X101950000Y-107250000D03*
X101950000Y-107650000D03*
X101950000Y-108050000D03*
X101950000Y-108450000D03*
X101950000Y-108850000D03*
X101950000Y-109250000D03*
X101950000Y-109650000D03*
X101950000Y-110050000D03*
X101950000Y-110450000D03*
D39*
X163900000Y-86780000D03*
X163900000Y-85820000D03*
D51*
X112100000Y-101300000D03*
X110700000Y-101300000D03*
X110700000Y-102400000D03*
X112100000Y-102400000D03*
D45*
X186975000Y-101140000D03*
X186975000Y-102160000D03*
D29*
X172995000Y-99650000D03*
X173955000Y-99650000D03*
D44*
X132825000Y-70200000D03*
X134375000Y-70200000D03*
D29*
X103320000Y-69500000D03*
X104280000Y-69500000D03*
D23*
X108800000Y-102170000D03*
X108800000Y-103130000D03*
D30*
X111100000Y-66025000D03*
X111100000Y-64375000D03*
D23*
X100300000Y-109620000D03*
X100300000Y-110580000D03*
D19*
X122000000Y-104875000D03*
X122000000Y-103325000D03*
D24*
X177125000Y-73100000D03*
X175475000Y-73100000D03*
D19*
X148900000Y-96275000D03*
X148900000Y-94725000D03*
D29*
X99020000Y-77400000D03*
X99980000Y-77400000D03*
D41*
X113400000Y-64275000D03*
X113400000Y-65925000D03*
D34*
X121280000Y-94400000D03*
X120320000Y-94400000D03*
D52*
X99800000Y-84925000D03*
X99800000Y-86475000D03*
D20*
X110200000Y-98050000D03*
X111850000Y-98050000D03*
D45*
X166875000Y-93640000D03*
X166875000Y-94660000D03*
D25*
X161480000Y-92600000D03*
X161480000Y-91950000D03*
X161480000Y-91300000D03*
X161480000Y-90650000D03*
D26*
X158500000Y-90650000D03*
X158500000Y-91300000D03*
X158500000Y-91950000D03*
X158500000Y-92600000D03*
D27*
X159655000Y-91625000D03*
D39*
X137700000Y-89900000D03*
X137700000Y-88940000D03*
D35*
X165775000Y-92975000D03*
X164755000Y-92975000D03*
D30*
X176800000Y-108225000D03*
X176800000Y-106575000D03*
D39*
X100200000Y-91580000D03*
X100200000Y-90620000D03*
D53*
X124760000Y-60425000D03*
X127300000Y-60425000D03*
X122220000Y-60425000D03*
D54*
X164325000Y-107250000D03*
X165125000Y-107250000D03*
D55*
X166275000Y-107250000D03*
X167275000Y-107250000D03*
X167775000Y-107250000D03*
X168775000Y-107250000D03*
D54*
X169925000Y-107250000D03*
X170725000Y-107250000D03*
D55*
X169275000Y-107250000D03*
X168275000Y-107250000D03*
X166775000Y-107250000D03*
X165775000Y-107250000D03*
D56*
X161905000Y-108400000D03*
D57*
X161905000Y-112400000D03*
X173145000Y-112400000D03*
D56*
X173145000Y-108400000D03*
D58*
X166825000Y-96860000D03*
X166825000Y-95840000D03*
D29*
X177095000Y-96980000D03*
X178055000Y-96980000D03*
D39*
X189050000Y-89305000D03*
X189050000Y-88345000D03*
D23*
X168100000Y-96620000D03*
X168100000Y-97580000D03*
D29*
X109120000Y-107700000D03*
X110080000Y-107700000D03*
D34*
X102680000Y-104300000D03*
X101720000Y-104300000D03*
D39*
X100400000Y-82380000D03*
X100400000Y-81420000D03*
D23*
X100300000Y-88120000D03*
X100300000Y-89080000D03*
D34*
X186730000Y-99850000D03*
X185770000Y-99850000D03*
D59*
X182325000Y-96435000D03*
X182975000Y-96435000D03*
X183625000Y-96435000D03*
X184275000Y-96435000D03*
D60*
X184275000Y-93455000D03*
X183625000Y-93455000D03*
X182975000Y-93455000D03*
X182325000Y-93455000D03*
D61*
X183300000Y-94610000D03*
D39*
X98900000Y-91580000D03*
X98900000Y-90620000D03*
X102500000Y-103180000D03*
X102500000Y-102220000D03*
D30*
X105000000Y-65925000D03*
X105000000Y-64275000D03*
D39*
X191250000Y-89285000D03*
X191250000Y-88325000D03*
X142500000Y-89900000D03*
X142500000Y-88940000D03*
D34*
X107080000Y-101800000D03*
X106120000Y-101800000D03*
D58*
X177075000Y-93390000D03*
X177075000Y-92370000D03*
D23*
X168100000Y-90300000D03*
X168100000Y-91260000D03*
D39*
X187950000Y-89305000D03*
X187950000Y-88345000D03*
D34*
X107080000Y-103000000D03*
X106120000Y-103000000D03*
D36*
X119550000Y-99150000D03*
X118600000Y-99150000D03*
X117650000Y-99150000D03*
X117650000Y-101650000D03*
X119550000Y-101650000D03*
D30*
X115600000Y-65825000D03*
X115600000Y-64175000D03*
D39*
X190150000Y-89305000D03*
X190150000Y-88345000D03*
X143700000Y-89900000D03*
X143700000Y-88940000D03*
D23*
X100600000Y-104420000D03*
X100600000Y-105380000D03*
D62*
X169500000Y-92000000D03*
X169500000Y-92400000D03*
X169500000Y-92800000D03*
X169500000Y-93200000D03*
X169500000Y-93600000D03*
X169500000Y-94000000D03*
X169500000Y-94400000D03*
X169500000Y-94800000D03*
D63*
X170100000Y-95400000D03*
X170500000Y-95400000D03*
X170900000Y-95400000D03*
X171300000Y-95400000D03*
X171700000Y-95400000D03*
X172100000Y-95400000D03*
X172500000Y-95400000D03*
X172900000Y-95400000D03*
D62*
X173500000Y-94800000D03*
X173500000Y-94400000D03*
X173500000Y-94000000D03*
X173500000Y-93600000D03*
X173500000Y-93200000D03*
X173500000Y-92800000D03*
X173500000Y-92400000D03*
X173500000Y-92000000D03*
D63*
X172900000Y-91400000D03*
X172500000Y-91400000D03*
X172100000Y-91400000D03*
X171700000Y-91400000D03*
X171300000Y-91400000D03*
X170900000Y-91400000D03*
X170500000Y-91400000D03*
X170100000Y-91400000D03*
D64*
X171500000Y-93400000D03*
D29*
X104020000Y-103000000D03*
X104980000Y-103000000D03*
D30*
X135600000Y-90325000D03*
X135600000Y-88675000D03*
D42*
X143780000Y-100000000D03*
D43*
X141240000Y-100000000D03*
X138700000Y-100000000D03*
X136160000Y-100000000D03*
X133620000Y-100000000D03*
D30*
X151000000Y-92945000D03*
X151000000Y-91295000D03*
D39*
X140100000Y-89900000D03*
X140100000Y-88940000D03*
D58*
X177075000Y-95875000D03*
X177075000Y-94855000D03*
D37*
X116100000Y-108100000D03*
D38*
X113550000Y-110650000D03*
X118650000Y-110650000D03*
X118650000Y-105550000D03*
X113550000Y-105550000D03*
D58*
X175325000Y-96260000D03*
X175325000Y-95240000D03*
D39*
X138900000Y-89900000D03*
X138900000Y-88940000D03*
D25*
X158620000Y-83750000D03*
X158620000Y-84400000D03*
X158620000Y-85050000D03*
X158620000Y-85700000D03*
D26*
X161600000Y-85700000D03*
X161600000Y-85050000D03*
X161600000Y-84400000D03*
X161600000Y-83750000D03*
D27*
X160445000Y-84725000D03*
D39*
X100400000Y-79780000D03*
X100400000Y-78820000D03*
D52*
X170500000Y-70125000D03*
X170500000Y-71675000D03*
D44*
X136325000Y-92100000D03*
X137875000Y-92100000D03*
D39*
X186850000Y-89305000D03*
X186850000Y-88345000D03*
D20*
X150975000Y-74000000D03*
X152625000Y-74000000D03*
D44*
X106825000Y-68000000D03*
X108375000Y-68000000D03*
D39*
X125600000Y-87880000D03*
X125600000Y-86920000D03*
D29*
X176320000Y-87900000D03*
X177280000Y-87900000D03*
X104020000Y-101800000D03*
X104980000Y-101800000D03*
X104020000Y-104200000D03*
X104980000Y-104200000D03*
D41*
X177100000Y-68275000D03*
X177100000Y-69925000D03*
D44*
X135525000Y-63800000D03*
X137075000Y-63800000D03*
D30*
X148600000Y-92945000D03*
X148600000Y-91295000D03*
D19*
X185400000Y-89200000D03*
X185400000Y-87650000D03*
D65*
X157388000Y-69795000D03*
X157388000Y-71065000D03*
X157388000Y-72335000D03*
X157388000Y-73605000D03*
X162812000Y-73605000D03*
X162812000Y-72335000D03*
X162812000Y-71065000D03*
X162812000Y-69795000D03*
D66*
X160100000Y-71700000D03*
D58*
X184600000Y-101910000D03*
X184600000Y-100890000D03*
D23*
X165300000Y-95220000D03*
X165300000Y-96180000D03*
D67*
X161406690Y-64725190D03*
X161406690Y-62885190D03*
D68*
X157424690Y-63805190D03*
D39*
X171700000Y-89680000D03*
X171700000Y-88720000D03*
%LPD*%
M02*
