G04 #@! TF.GenerationSoftware,KiCad,Pcbnew,7.0.11+dfsg-1build4*
G04 #@! TF.CreationDate,2026-08-02T21:33:25-04:00*
G04 #@! TF.ProjectId,radar2,72616461-7232-42e6-9b69-6361645f7063,rev?*
G04 #@! TF.SameCoordinates,Original*
G04 #@! TF.FileFunction,Soldermask,Top*
G04 #@! TF.FilePolarity,Negative*
%FSLAX46Y46*%
G04 Gerber Fmt 4.6, Leading zero omitted, Abs format (unit mm)*
G04 Created by KiCad (PCBNEW 7.0.11+dfsg-1build4) date 2026-08-02 21:33:25*
%MOMM*%
%LPD*%
G01*
G04 APERTURE LIST*
G04 Aperture macros list*
%AMRoundRect*
0 Rectangle with rounded corners*
0 $1 Rounding radius*
0 $2 $3 $4 $5 $6 $7 $8 $9 X,Y pos of 4 corners*
0 Add a 4 corners polygon primitive as box body*
4,1,4,$2,$3,$4,$5,$6,$7,$8,$9,$2,$3,0*
0 Add four circle primitives for the rounded corners*
1,1,$1+$1,$2,$3*
1,1,$1+$1,$4,$5*
1,1,$1+$1,$6,$7*
1,1,$1+$1,$8,$9*
0 Add four rect primitives between the rounded corners*
20,1,$1+$1,$2,$3,$4,$5,0*
20,1,$1+$1,$4,$5,$6,$7,0*
20,1,$1+$1,$6,$7,$8,$9,0*
20,1,$1+$1,$8,$9,$2,$3,0*%
G04 Aperture macros list end*
%ADD10R,1.400000X1.900000*%
%ADD11RoundRect,0.250000X0.475000X-0.250000X0.475000X0.250000X-0.475000X0.250000X-0.475000X-0.250000X0*%
%ADD12RoundRect,0.225000X0.250000X-0.225000X0.250000X0.225000X-0.250000X0.225000X-0.250000X-0.225000X0*%
%ADD13RoundRect,0.200000X-0.200000X-0.275000X0.200000X-0.275000X0.200000X0.275000X-0.200000X0.275000X0*%
%ADD14R,2.850000X5.400000*%
%ADD15RoundRect,0.225000X0.225000X0.250000X-0.225000X0.250000X-0.225000X-0.250000X0.225000X-0.250000X0*%
%ADD16RoundRect,0.140000X-0.170000X0.140000X-0.170000X-0.140000X0.170000X-0.140000X0.170000X0.140000X0*%
%ADD17RoundRect,0.200000X0.200000X0.275000X-0.200000X0.275000X-0.200000X-0.275000X0.200000X-0.275000X0*%
%ADD18R,0.630000X0.500000*%
%ADD19R,0.410000X0.500000*%
%ADD20R,1.900000X2.450000*%
%ADD21R,1.000000X0.600000*%
%ADD22RoundRect,0.140000X-0.140000X-0.170000X0.140000X-0.170000X0.140000X0.170000X-0.140000X0.170000X0*%
%ADD23RoundRect,0.200000X0.275000X-0.200000X0.275000X0.200000X-0.275000X0.200000X-0.275000X-0.200000X0*%
%ADD24C,1.200000*%
%ADD25RoundRect,0.250000X-0.750000X0.600000X-0.750000X-0.600000X0.750000X-0.600000X0.750000X0.600000X0*%
%ADD26O,2.000000X1.700000*%
%ADD27RoundRect,0.140000X0.140000X0.170000X-0.140000X0.170000X-0.140000X-0.170000X0.140000X-0.170000X0*%
%ADD28RoundRect,0.135000X0.135000X0.185000X-0.135000X0.185000X-0.135000X-0.185000X0.135000X-0.185000X0*%
%ADD29R,0.600000X1.200000*%
%ADD30R,2.300000X2.300000*%
%ADD31C,2.500000*%
%ADD32RoundRect,0.140000X0.170000X-0.140000X0.170000X0.140000X-0.170000X0.140000X-0.170000X-0.140000X0*%
%ADD33RoundRect,0.135000X-0.135000X-0.185000X0.135000X-0.185000X0.135000X0.185000X-0.135000X0.185000X0*%
%ADD34RoundRect,0.200000X-0.275000X0.200000X-0.275000X-0.200000X0.275000X-0.200000X0.275000X0.200000X0*%
%ADD35R,1.700000X1.700000*%
%ADD36O,1.700000X1.700000*%
%ADD37RoundRect,0.225000X-0.225000X-0.250000X0.225000X-0.250000X0.225000X0.250000X-0.225000X0.250000X0*%
%ADD38RoundRect,0.135000X-0.185000X0.135000X-0.185000X-0.135000X0.185000X-0.135000X0.185000X0.135000X0*%
%ADD39RoundRect,0.075000X-0.662500X-0.075000X0.662500X-0.075000X0.662500X0.075000X-0.662500X0.075000X0*%
%ADD40RoundRect,0.075000X-0.075000X-0.662500X0.075000X-0.662500X0.075000X0.662500X-0.075000X0.662500X0*%
%ADD41R,0.200000X0.950000*%
%ADD42R,0.200000X0.850000*%
%ADD43R,0.850000X0.200000*%
%ADD44R,0.900000X0.800000*%
%ADD45RoundRect,0.225000X-0.250000X0.225000X-0.250000X-0.225000X0.250000X-0.225000X0.250000X0.225000X0*%
%ADD46C,1.300000*%
%ADD47R,0.600000X1.100000*%
%ADD48R,0.300000X1.100000*%
%ADD49C,1.875000*%
%ADD50C,2.430000*%
%ADD51RoundRect,0.135000X0.185000X-0.135000X0.185000X0.135000X-0.185000X0.135000X-0.185000X-0.135000X0*%
%ADD52R,0.500000X0.630000*%
%ADD53R,0.500000X0.410000*%
%ADD54R,2.450000X1.900000*%
%ADD55R,0.750000X0.200000*%
%ADD56R,0.200000X0.750000*%
%ADD57R,2.900000X2.900000*%
%ADD58R,1.525000X0.650000*%
%ADD59R,2.400000X3.100000*%
%ADD60R,1.400000X1.390000*%
%ADD61R,4.860000X3.360000*%
G04 APERTURE END LIST*
D10*
X164550000Y-64250000D03*
X170550000Y-64250000D03*
D11*
X177100000Y-65200000D03*
X177100000Y-63300000D03*
X174750000Y-65175000D03*
X174750000Y-63275000D03*
D12*
X153050000Y-70850000D03*
X153050000Y-69300000D03*
X149475000Y-70850000D03*
X149475000Y-69300000D03*
X154750000Y-70850000D03*
X154750000Y-69300000D03*
X151250000Y-70850000D03*
X151250000Y-69300000D03*
D13*
X151075000Y-77000000D03*
X152725000Y-77000000D03*
D14*
X166300000Y-82600000D03*
X174700000Y-82600000D03*
D15*
X167175000Y-70800000D03*
X165625000Y-70800000D03*
D16*
X125400000Y-81320000D03*
X125400000Y-82280000D03*
D17*
X156425000Y-75800000D03*
X154775000Y-75800000D03*
D18*
X182300000Y-83600000D03*
X182300000Y-82950000D03*
X182300000Y-82300000D03*
X182300000Y-81650000D03*
D19*
X179320000Y-81650000D03*
X179320000Y-82300000D03*
X179320000Y-82950000D03*
X179320000Y-83600000D03*
D20*
X180475000Y-82625000D03*
D16*
X125700000Y-74320000D03*
X125700000Y-75280000D03*
D13*
X145375000Y-88120000D03*
X147025000Y-88120000D03*
D21*
X134200000Y-74650000D03*
X140200000Y-74650000D03*
X134200000Y-78350000D03*
X140200000Y-78350000D03*
D22*
X116120000Y-69500000D03*
X117080000Y-69500000D03*
D23*
X158300000Y-107925000D03*
X158300000Y-106275000D03*
D24*
X194325000Y-98850000D03*
D25*
X196325000Y-100450000D03*
D26*
X196325000Y-102950000D03*
D27*
X106980000Y-94700000D03*
X106020000Y-94700000D03*
D28*
X166660000Y-98600000D03*
X165640000Y-98600000D03*
D29*
X135000000Y-65800000D03*
X134050000Y-65800000D03*
X133100000Y-65800000D03*
X133100000Y-68300000D03*
X135000000Y-68300000D03*
D22*
X102020000Y-100500000D03*
X102980000Y-100500000D03*
D30*
X116050000Y-117050000D03*
D31*
X118600000Y-119600000D03*
X118600000Y-114500000D03*
X113500000Y-114500000D03*
X113500000Y-119600000D03*
D13*
X165575000Y-72600000D03*
X167225000Y-72600000D03*
D32*
X100500000Y-76280000D03*
X100500000Y-75320000D03*
D15*
X158925000Y-67950000D03*
X157375000Y-67950000D03*
D16*
X174300000Y-97095000D03*
X174300000Y-98055000D03*
D33*
X185740000Y-98550000D03*
X186760000Y-98550000D03*
D27*
X107080000Y-104200000D03*
X106120000Y-104200000D03*
D12*
X152800000Y-95075000D03*
X152800000Y-93525000D03*
D22*
X175945000Y-98180000D03*
X176905000Y-98180000D03*
D27*
X113980000Y-94700000D03*
X113020000Y-94700000D03*
D34*
X109200000Y-64375000D03*
X109200000Y-66025000D03*
D12*
X162300000Y-104275000D03*
X162300000Y-102725000D03*
D27*
X110500000Y-104400000D03*
X109540000Y-104400000D03*
D22*
X181695000Y-99250000D03*
X182655000Y-99250000D03*
D13*
X148775000Y-89520000D03*
X150425000Y-89520000D03*
D34*
X107100000Y-64275000D03*
X107100000Y-65925000D03*
D12*
X164000000Y-104300000D03*
X164000000Y-102750000D03*
D35*
X132580000Y-110800000D03*
D36*
X135120000Y-110800000D03*
X137660000Y-110800000D03*
X140200000Y-110800000D03*
X142740000Y-110800000D03*
X145280000Y-110800000D03*
D35*
X196200000Y-66860000D03*
D36*
X196200000Y-69400000D03*
X196200000Y-71940000D03*
X196200000Y-74480000D03*
D37*
X119825000Y-97000000D03*
X121375000Y-97000000D03*
D22*
X111420000Y-69600000D03*
X112380000Y-69600000D03*
D12*
X155175000Y-92095000D03*
X155175000Y-90545000D03*
D37*
X126325000Y-76600000D03*
X127875000Y-76600000D03*
D38*
X172775000Y-97065000D03*
X172775000Y-98085000D03*
D16*
X169200000Y-96740000D03*
X169200000Y-97700000D03*
D32*
X141300000Y-89900000D03*
X141300000Y-88940000D03*
D16*
X109200000Y-111500000D03*
X109200000Y-112460000D03*
D38*
X170300000Y-97190000D03*
X170300000Y-98210000D03*
D16*
X105400000Y-67920000D03*
X105400000Y-68880000D03*
D18*
X179600000Y-87450000D03*
X179600000Y-88100000D03*
X179600000Y-88750000D03*
X179600000Y-89400000D03*
D19*
X182580000Y-89400000D03*
X182580000Y-88750000D03*
X182580000Y-88100000D03*
X182580000Y-87450000D03*
D20*
X181425000Y-88425000D03*
D39*
X102162500Y-73270000D03*
X102162500Y-73770000D03*
X102162500Y-74270000D03*
X102162500Y-74770000D03*
X102162500Y-75270000D03*
X102162500Y-75770000D03*
X102162500Y-76270000D03*
X102162500Y-76770000D03*
X102162500Y-77270000D03*
X102162500Y-77770000D03*
X102162500Y-78270000D03*
X102162500Y-78770000D03*
X102162500Y-79270000D03*
X102162500Y-79770000D03*
X102162500Y-80270000D03*
X102162500Y-80770000D03*
X102162500Y-81270000D03*
X102162500Y-81770000D03*
X102162500Y-82270000D03*
X102162500Y-82770000D03*
X102162500Y-83270000D03*
X102162500Y-83770000D03*
X102162500Y-84270000D03*
X102162500Y-84770000D03*
X102162500Y-85270000D03*
X102162500Y-85770000D03*
X102162500Y-86270000D03*
X102162500Y-86770000D03*
X102162500Y-87270000D03*
X102162500Y-87770000D03*
X102162500Y-88270000D03*
X102162500Y-88770000D03*
X102162500Y-89270000D03*
X102162500Y-89770000D03*
X102162500Y-90270000D03*
X102162500Y-90770000D03*
D40*
X104075000Y-92682500D03*
X104575000Y-92682500D03*
X105075000Y-92682500D03*
X105575000Y-92682500D03*
X106075000Y-92682500D03*
X106575000Y-92682500D03*
X107075000Y-92682500D03*
X107575000Y-92682500D03*
X108075000Y-92682500D03*
X108575000Y-92682500D03*
X109075000Y-92682500D03*
X109575000Y-92682500D03*
X110075000Y-92682500D03*
X110575000Y-92682500D03*
X111075000Y-92682500D03*
X111575000Y-92682500D03*
X112075000Y-92682500D03*
X112575000Y-92682500D03*
X113075000Y-92682500D03*
X113575000Y-92682500D03*
X114075000Y-92682500D03*
X114575000Y-92682500D03*
X115075000Y-92682500D03*
X115575000Y-92682500D03*
X116075000Y-92682500D03*
X116575000Y-92682500D03*
X117075000Y-92682500D03*
X117575000Y-92682500D03*
X118075000Y-92682500D03*
X118575000Y-92682500D03*
X119075000Y-92682500D03*
X119575000Y-92682500D03*
X120075000Y-92682500D03*
X120575000Y-92682500D03*
X121075000Y-92682500D03*
X121575000Y-92682500D03*
D39*
X123487500Y-90770000D03*
X123487500Y-90270000D03*
X123487500Y-89770000D03*
X123487500Y-89270000D03*
X123487500Y-88770000D03*
X123487500Y-88270000D03*
X123487500Y-87770000D03*
X123487500Y-87270000D03*
X123487500Y-86770000D03*
X123487500Y-86270000D03*
X123487500Y-85770000D03*
X123487500Y-85270000D03*
X123487500Y-84770000D03*
X123487500Y-84270000D03*
X123487500Y-83770000D03*
X123487500Y-83270000D03*
X123487500Y-82770000D03*
X123487500Y-82270000D03*
X123487500Y-81770000D03*
X123487500Y-81270000D03*
X123487500Y-80770000D03*
X123487500Y-80270000D03*
X123487500Y-79770000D03*
X123487500Y-79270000D03*
X123487500Y-78770000D03*
X123487500Y-78270000D03*
X123487500Y-77770000D03*
X123487500Y-77270000D03*
X123487500Y-76770000D03*
X123487500Y-76270000D03*
X123487500Y-75770000D03*
X123487500Y-75270000D03*
X123487500Y-74770000D03*
X123487500Y-74270000D03*
X123487500Y-73770000D03*
X123487500Y-73270000D03*
D40*
X121575000Y-71357500D03*
X121075000Y-71357500D03*
X120575000Y-71357500D03*
X120075000Y-71357500D03*
X119575000Y-71357500D03*
X119075000Y-71357500D03*
X118575000Y-71357500D03*
X118075000Y-71357500D03*
X117575000Y-71357500D03*
X117075000Y-71357500D03*
X116575000Y-71357500D03*
X116075000Y-71357500D03*
X115575000Y-71357500D03*
X115075000Y-71357500D03*
X114575000Y-71357500D03*
X114075000Y-71357500D03*
X113575000Y-71357500D03*
X113075000Y-71357500D03*
X112575000Y-71357500D03*
X112075000Y-71357500D03*
X111575000Y-71357500D03*
X111075000Y-71357500D03*
X110575000Y-71357500D03*
X110075000Y-71357500D03*
X109575000Y-71357500D03*
X109075000Y-71357500D03*
X108575000Y-71357500D03*
X108075000Y-71357500D03*
X107575000Y-71357500D03*
X107075000Y-71357500D03*
X106575000Y-71357500D03*
X106075000Y-71357500D03*
X105575000Y-71357500D03*
X105075000Y-71357500D03*
X104575000Y-71357500D03*
X104075000Y-71357500D03*
D41*
X102650000Y-111100000D03*
D42*
X103050000Y-111150000D03*
X103450000Y-111150000D03*
X103850000Y-111150000D03*
X104250000Y-111150000D03*
X104650000Y-111150000D03*
X105050000Y-111150000D03*
X105450000Y-111150000D03*
X105850000Y-111150000D03*
X106250000Y-111150000D03*
D43*
X106950000Y-110450000D03*
X106950000Y-110050000D03*
X106950000Y-109650000D03*
X106950000Y-109250000D03*
X106950000Y-108850000D03*
X106950000Y-108450000D03*
X106950000Y-108050000D03*
X106950000Y-107650000D03*
X106950000Y-107250000D03*
X106950000Y-106850000D03*
D42*
X106250000Y-106150000D03*
X105850000Y-106150000D03*
X105450000Y-106150000D03*
X105050000Y-106150000D03*
X104650000Y-106150000D03*
X104250000Y-106150000D03*
X103850000Y-106150000D03*
X103450000Y-106150000D03*
X103050000Y-106150000D03*
X102650000Y-106150000D03*
D43*
X101950000Y-106850000D03*
X101950000Y-107250000D03*
X101950000Y-107650000D03*
X101950000Y-108050000D03*
X101950000Y-108450000D03*
X101950000Y-108850000D03*
X101950000Y-109250000D03*
X101950000Y-109650000D03*
X101950000Y-110050000D03*
X101950000Y-110450000D03*
D32*
X163900000Y-86780000D03*
X163900000Y-85820000D03*
D44*
X112100000Y-101300000D03*
X110700000Y-101300000D03*
X110700000Y-102400000D03*
X112100000Y-102400000D03*
D38*
X186975000Y-101140000D03*
X186975000Y-102160000D03*
D22*
X172995000Y-99650000D03*
X173955000Y-99650000D03*
D37*
X132825000Y-70200000D03*
X134375000Y-70200000D03*
D22*
X103320000Y-69500000D03*
X104280000Y-69500000D03*
D16*
X108800000Y-102170000D03*
X108800000Y-103130000D03*
D23*
X111100000Y-66025000D03*
X111100000Y-64375000D03*
D16*
X100300000Y-109620000D03*
X100300000Y-110580000D03*
D12*
X122000000Y-104875000D03*
X122000000Y-103325000D03*
D17*
X177125000Y-73100000D03*
X175475000Y-73100000D03*
D12*
X148900000Y-96275000D03*
X148900000Y-94725000D03*
D22*
X99020000Y-77400000D03*
X99980000Y-77400000D03*
D34*
X113400000Y-64275000D03*
X113400000Y-65925000D03*
D27*
X121280000Y-94400000D03*
X120320000Y-94400000D03*
D45*
X99800000Y-84925000D03*
X99800000Y-86475000D03*
D13*
X110200000Y-98050000D03*
X111850000Y-98050000D03*
D38*
X166875000Y-93640000D03*
X166875000Y-94660000D03*
D18*
X161480000Y-92600000D03*
X161480000Y-91950000D03*
X161480000Y-91300000D03*
X161480000Y-90650000D03*
D19*
X158500000Y-90650000D03*
X158500000Y-91300000D03*
X158500000Y-91950000D03*
X158500000Y-92600000D03*
D20*
X159655000Y-91625000D03*
D32*
X137700000Y-89900000D03*
X137700000Y-88940000D03*
D28*
X165775000Y-92975000D03*
X164755000Y-92975000D03*
D23*
X176800000Y-108225000D03*
X176800000Y-106575000D03*
D32*
X100200000Y-91580000D03*
X100200000Y-90620000D03*
D46*
X124760000Y-60425000D03*
X127300000Y-60425000D03*
X122220000Y-60425000D03*
D47*
X164325000Y-107250000D03*
X165125000Y-107250000D03*
D48*
X166275000Y-107250000D03*
X167275000Y-107250000D03*
X167775000Y-107250000D03*
X168775000Y-107250000D03*
D47*
X169925000Y-107250000D03*
X170725000Y-107250000D03*
D48*
X169275000Y-107250000D03*
X168275000Y-107250000D03*
X166775000Y-107250000D03*
X165775000Y-107250000D03*
D49*
X161905000Y-108400000D03*
D50*
X161905000Y-112400000D03*
X173145000Y-112400000D03*
D49*
X173145000Y-108400000D03*
D51*
X166825000Y-96860000D03*
X166825000Y-95840000D03*
D22*
X177095000Y-96980000D03*
X178055000Y-96980000D03*
D32*
X189050000Y-89305000D03*
X189050000Y-88345000D03*
D16*
X168100000Y-96620000D03*
X168100000Y-97580000D03*
D22*
X109120000Y-107700000D03*
X110080000Y-107700000D03*
D27*
X102680000Y-104300000D03*
X101720000Y-104300000D03*
D32*
X100400000Y-82380000D03*
X100400000Y-81420000D03*
D16*
X100300000Y-88120000D03*
X100300000Y-89080000D03*
D27*
X186730000Y-99850000D03*
X185770000Y-99850000D03*
D52*
X182325000Y-96435000D03*
X182975000Y-96435000D03*
X183625000Y-96435000D03*
X184275000Y-96435000D03*
D53*
X184275000Y-93455000D03*
X183625000Y-93455000D03*
X182975000Y-93455000D03*
X182325000Y-93455000D03*
D54*
X183300000Y-94610000D03*
D32*
X98900000Y-91580000D03*
X98900000Y-90620000D03*
X102500000Y-103180000D03*
X102500000Y-102220000D03*
D23*
X105000000Y-65925000D03*
X105000000Y-64275000D03*
D32*
X191250000Y-89285000D03*
X191250000Y-88325000D03*
X142500000Y-89900000D03*
X142500000Y-88940000D03*
D27*
X107080000Y-101800000D03*
X106120000Y-101800000D03*
D51*
X177075000Y-93390000D03*
X177075000Y-92370000D03*
D16*
X168100000Y-90300000D03*
X168100000Y-91260000D03*
D32*
X187950000Y-89305000D03*
X187950000Y-88345000D03*
D27*
X107080000Y-103000000D03*
X106120000Y-103000000D03*
D29*
X119550000Y-99150000D03*
X118600000Y-99150000D03*
X117650000Y-99150000D03*
X117650000Y-101650000D03*
X119550000Y-101650000D03*
D23*
X115600000Y-65825000D03*
X115600000Y-64175000D03*
D32*
X190150000Y-89305000D03*
X190150000Y-88345000D03*
X143700000Y-89900000D03*
X143700000Y-88940000D03*
D16*
X100600000Y-104420000D03*
X100600000Y-105380000D03*
D55*
X169500000Y-92000000D03*
X169500000Y-92400000D03*
X169500000Y-92800000D03*
X169500000Y-93200000D03*
X169500000Y-93600000D03*
X169500000Y-94000000D03*
X169500000Y-94400000D03*
X169500000Y-94800000D03*
D56*
X170100000Y-95400000D03*
X170500000Y-95400000D03*
X170900000Y-95400000D03*
X171300000Y-95400000D03*
X171700000Y-95400000D03*
X172100000Y-95400000D03*
X172500000Y-95400000D03*
X172900000Y-95400000D03*
D55*
X173500000Y-94800000D03*
X173500000Y-94400000D03*
X173500000Y-94000000D03*
X173500000Y-93600000D03*
X173500000Y-93200000D03*
X173500000Y-92800000D03*
X173500000Y-92400000D03*
X173500000Y-92000000D03*
D56*
X172900000Y-91400000D03*
X172500000Y-91400000D03*
X172100000Y-91400000D03*
X171700000Y-91400000D03*
X171300000Y-91400000D03*
X170900000Y-91400000D03*
X170500000Y-91400000D03*
X170100000Y-91400000D03*
D57*
X171500000Y-93400000D03*
D22*
X104020000Y-103000000D03*
X104980000Y-103000000D03*
D23*
X135600000Y-90325000D03*
X135600000Y-88675000D03*
D35*
X143780000Y-100000000D03*
D36*
X141240000Y-100000000D03*
X138700000Y-100000000D03*
X136160000Y-100000000D03*
X133620000Y-100000000D03*
D23*
X151000000Y-92945000D03*
X151000000Y-91295000D03*
D32*
X140100000Y-89900000D03*
X140100000Y-88940000D03*
D51*
X177075000Y-95875000D03*
X177075000Y-94855000D03*
D30*
X116100000Y-108100000D03*
D31*
X113550000Y-110650000D03*
X118650000Y-110650000D03*
X118650000Y-105550000D03*
X113550000Y-105550000D03*
D51*
X175325000Y-96260000D03*
X175325000Y-95240000D03*
D32*
X138900000Y-89900000D03*
X138900000Y-88940000D03*
D18*
X158620000Y-83750000D03*
X158620000Y-84400000D03*
X158620000Y-85050000D03*
X158620000Y-85700000D03*
D19*
X161600000Y-85700000D03*
X161600000Y-85050000D03*
X161600000Y-84400000D03*
X161600000Y-83750000D03*
D20*
X160445000Y-84725000D03*
D32*
X100400000Y-79780000D03*
X100400000Y-78820000D03*
D45*
X170500000Y-70125000D03*
X170500000Y-71675000D03*
D37*
X136325000Y-92100000D03*
X137875000Y-92100000D03*
D32*
X186850000Y-89305000D03*
X186850000Y-88345000D03*
D13*
X150975000Y-74000000D03*
X152625000Y-74000000D03*
D37*
X106825000Y-68000000D03*
X108375000Y-68000000D03*
D32*
X125600000Y-87880000D03*
X125600000Y-86920000D03*
D22*
X176320000Y-87900000D03*
X177280000Y-87900000D03*
X104020000Y-101800000D03*
X104980000Y-101800000D03*
X104020000Y-104200000D03*
X104980000Y-104200000D03*
D34*
X177100000Y-68275000D03*
X177100000Y-69925000D03*
D37*
X135525000Y-63800000D03*
X137075000Y-63800000D03*
D23*
X148600000Y-92945000D03*
X148600000Y-91295000D03*
D12*
X185400000Y-89200000D03*
X185400000Y-87650000D03*
D58*
X157388000Y-69795000D03*
X157388000Y-71065000D03*
X157388000Y-72335000D03*
X157388000Y-73605000D03*
X162812000Y-73605000D03*
X162812000Y-72335000D03*
X162812000Y-71065000D03*
X162812000Y-69795000D03*
D59*
X160100000Y-71700000D03*
D51*
X184600000Y-101910000D03*
X184600000Y-100890000D03*
D16*
X165300000Y-95220000D03*
X165300000Y-96180000D03*
D60*
X161406690Y-64725190D03*
X161406690Y-62885190D03*
D61*
X157424690Y-63805190D03*
D32*
X171700000Y-89680000D03*
X171700000Y-88720000D03*
M02*
